<svg width="150" height="81" viewBox="0 0 150 81" fill="none" xmlns="http://www.w3.org/2000/svg">
<path fill-rule="evenodd" clip-rule="evenodd" d="M5 4.5C5 6.43313 3.43211 8 1.50066 8C-0.432106 8 -2 6.43313 -2 4.5C-2 2.56687 -0.432106 1 1.50066 1C3.43211 1 5 2.56687 5 4.5Z" stroke="#5207CD"/>
<path fill-rule="evenodd" clip-rule="evenodd" d="M23 4.5C23 6.43313 21.4321 8 19.5007 8C17.5679 8 16 6.43313 16 4.5C16 2.56687 17.5679 1 19.5007 1C21.4321 1 23 2.56687 23 4.5Z" stroke="#5207CD"/>
<path fill-rule="evenodd" clip-rule="evenodd" d="M41 4.5C41 6.43313 39.4334 8 37.5007 8C35.5679 8 34 6.43313 34 4.5C34 2.56687 35.5679 1 37.5007 1C39.4334 1 41 2.56687 41 4.5Z" stroke="#5207CD"/>
<path fill-rule="evenodd" clip-rule="evenodd" d="M59 4.5C59 6.43313 57.4331 8 55.5 8C53.5669 8 52 6.43313 52 4.5C52 2.56687 53.5669 1 55.5 1C57.4331 1 59 2.56687 59 4.5Z" stroke="#5207CD"/>
<path fill-rule="evenodd" clip-rule="evenodd" d="M77 4.5C77 6.43313 75.4331 8 73.5 8C71.5669 8 70 6.43313 70 4.5C70 2.56687 71.5669 1 73.5 1C75.4331 1 77 2.56687 77 4.5Z" stroke="#5207CD"/>
<path fill-rule="evenodd" clip-rule="evenodd" d="M95 4.5C95 6.43313 93.4331 8 91.5013 8C89.5669 8 88 6.43313 88 4.5C88 2.56687 89.5669 1 91.5013 1C93.4331 1 95 2.56687 95 4.5Z" stroke="#5207CD"/>
<path fill-rule="evenodd" clip-rule="evenodd" d="M113 4.5C113 6.43313 111.432 8 109.501 8C107.567 8 106 6.43313 106 4.5C106 2.56687 107.567 1 109.501 1C111.432 1 113 2.56687 113 4.5Z" stroke="#5207CD"/>
<path fill-rule="evenodd" clip-rule="evenodd" d="M131 4.5C131 6.43313 129.432 8 127.501 8C125.568 8 124 6.43313 124 4.5C124 2.56687 125.568 1 127.501 1C129.432 1 131 2.56687 131 4.5Z" stroke="#5207CD"/>
<path fill-rule="evenodd" clip-rule="evenodd" d="M149 4.5C149 6.43313 147.432 8 145.501 8C143.568 8 142 6.43313 142 4.5C142 2.56687 143.568 1 145.501 1C147.432 1 149 2.56687 149 4.5Z" stroke="#5207CD"/>
<path fill-rule="evenodd" clip-rule="evenodd" d="M5 22.5C5 24.4331 3.43211 26 1.50066 26C-0.432106 26 -2 24.4331 -2 22.5C-2 20.5669 -0.432106 19 1.50066 19C3.43211 19 5 20.5669 5 22.5Z" stroke="#5207CD"/>
<path fill-rule="evenodd" clip-rule="evenodd" d="M23 22.5C23 24.4331 21.4321 26 19.5007 26C17.5679 26 16 24.4331 16 22.5C16 20.5669 17.5679 19 19.5007 19C21.4321 19 23 20.5669 23 22.5Z" stroke="#5207CD"/>
<path fill-rule="evenodd" clip-rule="evenodd" d="M41 22.5C41 24.4331 39.4334 26 37.5007 26C35.5679 26 34 24.4331 34 22.5C34 20.5669 35.5679 19 37.5007 19C39.4334 19 41 20.5669 41 22.5Z" stroke="#5207CD"/>
<path fill-rule="evenodd" clip-rule="evenodd" d="M59 22.5C59 24.4331 57.4331 26 55.5 26C53.5669 26 52 24.4331 52 22.5C52 20.5669 53.5669 19 55.5 19C57.4331 19 59 20.5669 59 22.5Z" stroke="#5207CD"/>
<path fill-rule="evenodd" clip-rule="evenodd" d="M77 22.5C77 24.4331 75.4331 26 73.5 26C71.5669 26 70 24.4331 70 22.5C70 20.5669 71.5669 19 73.5 19C75.4331 19 77 20.5669 77 22.5Z" stroke="#5207CD"/>
<path fill-rule="evenodd" clip-rule="evenodd" d="M95 22.5C95 24.4331 93.4331 26 91.5013 26C89.5669 26 88 24.4331 88 22.5C88 20.5669 89.5669 19 91.5013 19C93.4331 19 95 20.5669 95 22.5Z" stroke="#5207CD"/>
<path fill-rule="evenodd" clip-rule="evenodd" d="M113 22.5C113 24.4331 111.432 26 109.501 26C107.567 26 106 24.4331 106 22.5C106 20.5669 107.567 19 109.501 19C111.432 19 113 20.5669 113 22.5Z" stroke="#5207CD"/>
<path fill-rule="evenodd" clip-rule="evenodd" d="M131 22.5C131 24.4331 129.432 26 127.501 26C125.568 26 124 24.4331 124 22.5C124 20.5669 125.568 19 127.501 19C129.432 19 131 20.5669 131 22.5Z" stroke="#5207CD"/>
<path fill-rule="evenodd" clip-rule="evenodd" d="M149 22.5C149 24.4331 147.432 26 145.501 26C143.568 26 142 24.4331 142 22.5C142 20.5669 143.568 19 145.501 19C147.432 19 149 20.5669 149 22.5Z" stroke="#5207CD"/>
<path fill-rule="evenodd" clip-rule="evenodd" d="M5 40.5C5 42.4331 3.43211 44 1.50066 44C-0.432106 44 -2 42.4331 -2 40.5C-2 38.5669 -0.432106 37 1.50066 37C3.43211 37 5 38.5669 5 40.5Z" stroke="#5207CD"/>
<path fill-rule="evenodd" clip-rule="evenodd" d="M23 40.5C23 42.4331 21.4321 44 19.5007 44C17.5679 44 16 42.4331 16 40.5C16 38.5669 17.5679 37 19.5007 37C21.4321 37 23 38.5669 23 40.5Z" stroke="#5207CD"/>
<path fill-rule="evenodd" clip-rule="evenodd" d="M41 40.5C41 42.4331 39.4334 44 37.5007 44C35.5679 44 34 42.4331 34 40.5C34 38.5669 35.5679 37 37.5007 37C39.4334 37 41 38.5669 41 40.5Z" stroke="#5207CD"/>
<path fill-rule="evenodd" clip-rule="evenodd" d="M59 40.5C59 42.4331 57.4331 44 55.5 44C53.5669 44 52 42.4331 52 40.5C52 38.5669 53.5669 37 55.5 37C57.4331 37 59 38.5669 59 40.5Z" stroke="#5207CD"/>
<path fill-rule="evenodd" clip-rule="evenodd" d="M77 40.5C77 42.4331 75.4331 44 73.5 44C71.5669 44 70 42.4331 70 40.5C70 38.5669 71.5669 37 73.5 37C75.4331 37 77 38.5669 77 40.5Z" stroke="#5207CD"/>
<path fill-rule="evenodd" clip-rule="evenodd" d="M95 40.5C95 42.4331 93.4331 44 91.5013 44C89.5669 44 88 42.4331 88 40.5C88 38.5669 89.5669 37 91.5013 37C93.4331 37 95 38.5669 95 40.5Z" stroke="#5207CD"/>
<path fill-rule="evenodd" clip-rule="evenodd" d="M113 40.5C113 42.4331 111.432 44 109.501 44C107.567 44 106 42.4331 106 40.5C106 38.5669 107.567 37 109.501 37C111.432 37 113 38.5669 113 40.5Z" stroke="#5207CD"/>
<path fill-rule="evenodd" clip-rule="evenodd" d="M131 40.5C131 42.4331 129.432 44 127.501 44C125.568 44 124 42.4331 124 40.5C124 38.5669 125.568 37 127.501 37C129.432 37 131 38.5669 131 40.5Z" stroke="#5207CD"/>
<path fill-rule="evenodd" clip-rule="evenodd" d="M149 40.5C149 42.4331 147.432 44 145.501 44C143.568 44 142 42.4331 142 40.5C142 38.5669 143.568 37 145.501 37C147.432 37 149 38.5669 149 40.5Z" stroke="#5207CD"/>
<path fill-rule="evenodd" clip-rule="evenodd" d="M5 58.5C5 60.4331 3.43211 62 1.50066 62C-0.432106 62 -2 60.4331 -2 58.5C-2 56.5669 -0.432106 55 1.50066 55C3.43211 55 5 56.5669 5 58.5Z" stroke="#5207CD"/>
<path fill-rule="evenodd" clip-rule="evenodd" d="M23 58.5C23 60.4331 21.4321 62 19.5007 62C17.5679 62 16 60.4331 16 58.5C16 56.5669 17.5679 55 19.5007 55C21.4321 55 23 56.5669 23 58.5Z" stroke="#5207CD"/>
<path fill-rule="evenodd" clip-rule="evenodd" d="M41 58.5C41 60.4331 39.4334 62 37.5007 62C35.5679 62 34 60.4331 34 58.5C34 56.5669 35.5679 55 37.5007 55C39.4334 55 41 56.5669 41 58.5Z" stroke="#5207CD"/>
<path fill-rule="evenodd" clip-rule="evenodd" d="M59 58.5C59 60.4331 57.4331 62 55.5 62C53.5669 62 52 60.4331 52 58.5C52 56.5669 53.5669 55 55.5 55C57.4331 55 59 56.5669 59 58.5Z" stroke="#5207CD"/>
<path fill-rule="evenodd" clip-rule="evenodd" d="M77 58.5C77 60.4331 75.4331 62 73.5 62C71.5669 62 70 60.4331 70 58.5C70 56.5669 71.5669 55 73.5 55C75.4331 55 77 56.5669 77 58.5Z" stroke="#5207CD"/>
<path fill-rule="evenodd" clip-rule="evenodd" d="M95 58.5C95 60.4331 93.4331 62 91.5013 62C89.5669 62 88 60.4331 88 58.5C88 56.5669 89.5669 55 91.5013 55C93.4331 55 95 56.5669 95 58.5Z" stroke="#5207CD"/>
<path fill-rule="evenodd" clip-rule="evenodd" d="M113 58.5C113 60.4331 111.432 62 109.501 62C107.567 62 106 60.4331 106 58.5C106 56.5669 107.567 55 109.501 55C111.432 55 113 56.5669 113 58.5Z" stroke="#5207CD"/>
<path fill-rule="evenodd" clip-rule="evenodd" d="M131 58.5C131 60.4331 129.432 62 127.501 62C125.568 62 124 60.4331 124 58.5C124 56.5669 125.568 55 127.501 55C129.432 55 131 56.5669 131 58.5Z" stroke="#5207CD"/>
<path fill-rule="evenodd" clip-rule="evenodd" d="M149 58.5C149 60.4331 147.432 62 145.501 62C143.568 62 142 60.4331 142 58.5C142 56.5669 143.568 55 145.501 55C147.432 55 149 56.5669 149 58.5Z" stroke="#5207CD"/>
<path fill-rule="evenodd" clip-rule="evenodd" d="M5 76.5C5 78.4331 3.43211 80 1.50066 80C-0.432106 80 -2 78.4331 -2 76.5C-2 74.5669 -0.432106 73 1.50066 73C3.43211 73 5 74.5669 5 76.5Z" stroke="#5207CD"/>
<path fill-rule="evenodd" clip-rule="evenodd" d="M23 76.5C23 78.4331 21.4321 80 19.5007 80C17.5679 80 16 78.4331 16 76.5C16 74.5669 17.5679 73 19.5007 73C21.4321 73 23 74.5669 23 76.5Z" stroke="#5207CD"/>
<path fill-rule="evenodd" clip-rule="evenodd" d="M41 76.5C41 78.4331 39.4334 80 37.5007 80C35.5679 80 34 78.4331 34 76.5C34 74.5669 35.5679 73 37.5007 73C39.4334 73 41 74.5669 41 76.5Z" stroke="#5207CD"/>
<path fill-rule="evenodd" clip-rule="evenodd" d="M59 76.5C59 78.4331 57.4331 80 55.5 80C53.5669 80 52 78.4331 52 76.5C52 74.5669 53.5669 73 55.5 73C57.4331 73 59 74.5669 59 76.5Z" stroke="#5207CD"/>
<path fill-rule="evenodd" clip-rule="evenodd" d="M77 76.5C77 78.4331 75.4331 80 73.5 80C71.5669 80 70 78.4331 70 76.5C70 74.5669 71.5669 73 73.5 73C75.4331 73 77 74.5669 77 76.5Z" stroke="#5207CD"/>
<path fill-rule="evenodd" clip-rule="evenodd" d="M95 76.5C95 78.4331 93.4331 80 91.5013 80C89.5669 80 88 78.4331 88 76.5C88 74.5669 89.5669 73 91.5013 73C93.4331 73 95 74.5669 95 76.5Z" stroke="#5207CD"/>
<path fill-rule="evenodd" clip-rule="evenodd" d="M113 76.5C113 78.4331 111.432 80 109.501 80C107.567 80 106 78.4331 106 76.5C106 74.5669 107.567 73 109.501 73C111.432 73 113 74.5669 113 76.5Z" stroke="#5207CD"/>
<path fill-rule="evenodd" clip-rule="evenodd" d="M131 76.5C131 78.4331 129.432 80 127.501 80C125.568 80 124 78.4331 124 76.5C124 74.5669 125.568 73 127.501 73C129.432 73 131 74.5669 131 76.5Z" stroke="#5207CD"/>
<path fill-rule="evenodd" clip-rule="evenodd" d="M149 76.5C149 78.4331 147.432 80 145.501 80C143.568 80 142 78.4331 142 76.5C142 74.5669 143.568 73 145.501 73C147.432 73 149 74.5669 149 76.5Z" stroke="#5207CD"/>
</svg>
