<svg width="50" height="40" viewBox="0 0 50 40" fill="none" xmlns="http://www.w3.org/2000/svg">
<rect width="50" height="40" rx="8" fill="#EFF8FF"/>
<path d="M29.5 17.625C29.5 19.0574 28.8131 20.3287 27.7465 21.1276L28.7965 22.5276C29.5587 21.9576 30.1773 21.2177 30.6032 20.3666C31.0292 19.5155 31.2506 18.5767 31.25 17.625H29.5ZM25.125 13.25C26.2853 13.25 27.3981 13.7109 28.2186 14.5314C29.0391 15.3519 29.5 16.4647 29.5 17.625H31.25C31.25 16.0005 30.6047 14.4426 29.456 13.294C28.3074 12.1453 26.7495 11.5 25.125 11.5V13.25ZM20.75 17.625C20.75 16.4647 21.2109 15.3519 22.0314 14.5314C22.8519 13.7109 23.9647 13.25 25.125 13.25V11.5C23.5005 11.5 21.9426 12.1453 20.794 13.294C19.6453 14.4426 19 16.0005 19 17.625H20.75ZM22.5035 21.1276C21.9587 20.7206 21.5165 20.192 21.212 19.5839C20.9076 18.9758 20.7494 18.305 20.75 17.625H19C18.9994 18.5767 19.2209 19.5155 19.6468 20.3666C20.0727 21.2177 20.6913 21.9576 21.4535 22.5276L22.5035 21.1276ZM24.2474 26.1501C24.2197 24.8159 23.9441 23.4985 23.4345 22.2651L21.8175 22.9345C22.2428 23.9644 22.4746 25.0669 22.4983 26.1869L24.2474 26.1501ZM26.2993 25.6846C25.9347 25.867 25.5326 25.9619 25.125 25.9619C24.7174 25.9619 24.3153 25.867 23.9508 25.6846L23.1685 27.25C23.776 27.5537 24.4458 27.7118 25.125 27.7118C25.8042 27.7118 26.474 27.5537 27.0815 27.25L26.2993 25.6846ZM26.8155 22.266C26.3058 23.499 26.0298 24.8162 26.0017 26.1501L27.7517 26.1869C27.7754 25.0669 28.0072 23.9644 28.4325 22.9345L26.8155 22.266ZM27.0815 27.25C27.2794 27.1506 27.4465 26.9991 27.5646 26.8117C27.6827 26.6244 27.7474 26.4083 27.7517 26.1869L26.0017 26.1501C26.0042 26.0528 26.0332 25.9579 26.0856 25.8759C26.138 25.7938 26.2119 25.7277 26.2993 25.6846L27.0815 27.25ZM22.4983 26.1869C22.507 26.6279 22.7555 27.0435 23.1685 27.25L23.9508 25.6846C24.0381 25.7277 24.112 25.7938 24.1644 25.8759C24.2168 25.9579 24.2458 26.0528 24.2483 26.1501L22.4983 26.1869ZM21.4535 22.5276C21.5848 22.6274 21.6626 22.6851 21.7169 22.7289C21.772 22.7744 21.7615 22.7726 21.737 22.7411L23.1195 21.6684C22.9559 21.4566 22.7021 21.2764 22.5035 21.1276L21.4535 22.5276ZM23.4345 22.2651C23.3663 22.0997 23.2796 21.874 23.1195 21.6684L21.737 22.7411C21.7256 22.7254 21.723 22.7175 21.7344 22.7411C21.7623 22.8051 21.7897 22.8692 21.8166 22.9336L23.4345 22.2651ZM27.7465 21.1276C27.5479 21.2764 27.2933 21.4575 27.1296 21.6684L28.513 22.7411C28.4894 22.7717 28.478 22.7744 28.5331 22.7297C28.5874 22.6851 28.6644 22.6274 28.7965 22.5285L27.7465 21.1276ZM28.4325 22.9345L28.485 22.8094L28.5156 22.7411C28.527 22.7175 28.5244 22.7254 28.513 22.7411L27.1296 21.6684C26.9695 21.8749 26.8837 22.0997 26.8155 22.266L28.4325 22.9345Z" fill="#5207CD"/>
<path d="M27.7428 22.875C26.968 23.393 26.0569 23.6694 25.1248 23.6694C24.1928 23.6694 23.2817 23.393 22.5068 22.875" stroke="#5207CD" stroke-width="1.66667"/>
</svg>
