<svg width="21" height="21" viewBox="0 0 21 21" fill="none" xmlns="http://www.w3.org/2000/svg">
<path d="M18.3078 13.7715C18.3078 16.6135 16.6135 18.3078 13.7715 18.3078H12.8424C12.413 18.3078 12.0616 17.9564 12.0616 17.527V13.022C12.0616 12.8112 12.2334 12.6316 12.4442 12.6316L13.8183 12.6082C13.9277 12.6004 14.0214 12.5223 14.0448 12.413L14.318 10.9217C14.3415 10.7812 14.2321 10.6484 14.0838 10.6484L12.4208 10.6718C12.2021 10.6718 12.0304 10.5001 12.0226 10.2893L11.9913 8.37638C11.9913 8.25146 12.0928 8.14216 12.2256 8.14216L14.0994 8.11092C14.2321 8.11092 14.3337 8.00943 14.3337 7.8767L14.3024 6.00284C14.3024 5.87011 14.2009 5.76862 14.0682 5.76862L11.9601 5.79985C10.664 5.82328 9.63343 6.88511 9.65685 8.18119L9.69588 10.3283C9.70369 10.5469 9.53193 10.7187 9.31331 10.7265L8.37638 10.7421C8.24365 10.7421 8.14216 10.8436 8.14216 10.9763L8.16558 12.4598C8.16558 12.5925 8.26707 12.694 8.3998 12.694L9.33674 12.6784C9.55535 12.6784 9.72711 12.8502 9.73491 13.061L9.80518 17.5114C9.81299 17.9486 9.46164 18.3078 9.02441 18.3078H7.22865C4.38665 18.3078 2.69238 16.6135 2.69238 13.7637V7.22865C2.69238 4.38665 4.38665 2.69238 7.22865 2.69238H13.7715C16.6135 2.69238 18.3078 4.38665 18.3078 7.22865V13.7715Z" fill="black"/>
</svg>
