<svg width="17" height="17" viewBox="0 0 17 17" fill="none" xmlns="http://www.w3.org/2000/svg">
<path d="M0.851494 5.9505H16.1485M5.9505 5.9505L5.9505 16.1485M4.9307 0.851494H12.0693C13.4972 0.851494 14.2111 0.851494 14.7565 1.12937C15.2362 1.3738 15.6262 1.76383 15.8706 2.24355C16.1485 2.78891 16.1485 3.50284 16.1485 4.9307V12.0693C16.1485 13.4972 16.1485 14.2111 15.8706 14.7565C15.6262 15.2362 15.2362 15.6262 14.7565 15.8706C14.2111 16.1485 13.4972 16.1485 12.0693 16.1485H4.9307C3.50284 16.1485 2.78891 16.1485 2.24355 15.8706C1.76383 15.6262 1.3738 15.2362 1.12937 14.7565C0.851494 14.2111 0.851494 13.4972 0.851494 12.0693V4.9307C0.851494 3.50284 0.851494 2.78891 1.12937 2.24355C1.3738 1.76383 1.76383 1.3738 2.24355 1.12937C2.78891 0.851494 3.50284 0.851494 4.9307 0.851494Z" stroke="#5207CD" stroke-width="1.67" stroke-linecap="round" stroke-linejoin="round"/>
</svg>
