<svg width="38" height="38" viewBox="0 0 38 38" fill="none" xmlns="http://www.w3.org/2000/svg">
<path d="M16.131 11.1253C20.2045 10.2666 23.3884 7.06533 24.2422 2.96951C24.3471 2.46672 24.7882 2.10654 25.2992 2.10654C25.8103 2.10654 26.2514 2.46672 26.3562 2.96958C27.2101 7.06533 30.394 10.2666 34.4675 11.1251C34.9676 11.2304 35.3259 11.674 35.3259 12.1878C35.3259 12.7016 34.9677 13.1451 34.4675 13.2505C30.394 14.1091 27.2103 17.3104 26.3564 21.4061C26.2516 21.909 25.8105 22.2692 25.2994 22.2692C24.7884 22.2692 24.3473 21.909 24.2425 21.4061C23.3885 17.3104 20.2046 14.1091 16.1311 13.2507C15.6309 13.1453 15.2727 12.7019 15.2727 12.188C15.2727 11.6742 15.6309 11.2306 16.131 11.1253Z" fill="white"/>
<path d="M17.916 29.0621C19.8352 28.6577 21.3353 27.1494 21.7377 25.2195C21.8425 24.7167 22.2836 24.3564 22.7947 24.3564C23.3057 24.3564 23.7468 24.7165 23.8516 25.2194C24.254 27.1492 25.7542 28.6575 27.6734 29.0621C28.1735 29.1674 28.5318 29.611 28.5318 30.1248C28.5318 30.6386 28.1736 31.0821 27.6734 31.1875C25.7543 31.592 24.2541 33.1004 23.8518 35.0302C23.7469 35.533 23.3059 35.8933 22.7948 35.8933C22.2838 35.8933 21.8427 35.5332 21.7379 35.0302C21.3355 33.1004 19.8353 31.5921 17.916 31.1876C17.4159 31.0822 17.0576 30.6387 17.0576 30.1248C17.0576 29.611 17.4158 29.1676 17.916 29.0621Z" fill="#2B76CD"/>
<path d="M17.916 29.0621C19.8352 28.6577 21.3353 27.1494 21.7377 25.2195C21.8425 24.7167 22.2836 24.3564 22.7947 24.3564C23.3057 24.3564 23.7468 24.7165 23.8516 25.2194C24.254 27.1492 25.7542 28.6575 27.6734 29.0621C28.1735 29.1674 28.5318 29.611 28.5318 30.1248C28.5318 30.6386 28.1736 31.0821 27.6734 31.1875C25.7543 31.592 24.2541 33.1004 23.8518 35.0302C23.7469 35.533 23.3059 35.8933 22.7948 35.8933C22.2838 35.8933 21.8427 35.5332 21.7379 35.0302C21.3355 33.1004 19.8353 31.5921 17.916 31.1876C17.4159 31.0822 17.0576 30.6387 17.0576 30.1248C17.0576 29.611 17.4158 29.1676 17.916 29.0621Z" fill="white" fill-opacity="0.5"/>
<path d="M3.32587 19.0103C5.92007 18.4635 7.94766 16.4248 8.49143 13.8165C8.59625 13.3136 9.0373 12.9534 9.54838 12.9534C10.0594 12.9534 10.5005 13.3135 10.6053 13.8164C11.1492 16.4248 13.1768 18.4635 15.771 19.0102C16.2711 19.1156 16.6294 19.5591 16.6294 20.0729C16.6294 20.5867 16.2711 21.0302 15.771 21.1357C13.1768 21.6825 11.1492 23.7211 10.6055 26.3295C10.5006 26.8324 10.0596 27.1926 9.54851 27.1926C9.03749 27.1926 8.59638 26.8325 8.49156 26.3295C7.94766 23.7211 5.92007 21.6825 3.32594 21.1358C2.82582 21.0303 2.46753 20.5869 2.46753 20.0731C2.46753 19.5593 2.82575 19.1157 3.32587 19.0103Z" fill="white"/>
</svg>
