<svg width="50" height="40" viewBox="0 0 50 40" fill="none" xmlns="http://www.w3.org/2000/svg">
<path d="M32.5 26.75V25.25C32.5 23.8521 31.5439 22.6775 30.25 22.3445M27.625 13.4681C28.7244 13.9131 29.5 14.991 29.5 16.25C29.5 17.509 28.7244 18.5869 27.625 19.0319M28.75 26.75C28.75 25.3522 28.75 24.6533 28.5216 24.1019C28.2172 23.3669 27.6331 22.7828 26.8981 22.4784C26.3467 22.25 25.6478 22.25 24.25 22.25H22C20.6022 22.25 19.9033 22.25 19.3519 22.4784C18.6169 22.7828 18.0328 23.3669 17.7284 24.1019C17.5 24.6533 17.5 25.3522 17.5 26.75M26.125 16.25C26.125 17.9069 24.7819 19.25 23.125 19.25C21.4681 19.25 20.125 17.9069 20.125 16.25C20.125 14.5931 21.4681 13.25 23.125 13.25C24.7819 13.25 26.125 14.5931 26.125 16.25Z" stroke="#667085" stroke-width="1.67" stroke-linecap="round" stroke-linejoin="round"/>
</svg>
