<svg width="18" height="18" viewBox="0 0 18 18" fill="none" xmlns="http://www.w3.org/2000/svg">
<path d="M9.65645 10.835L7.15645 8.33496M11.3317 2.08496V0.834961M14.6145 3.38551L15.4984 2.50163M14.6145 10.0016L15.4984 10.8855M7.99841 3.38551L7.11453 2.50163M15.9151 6.66829H17.1651M3.93259 16.5588L11.6303 8.8611C11.9603 8.53109 12.1253 8.36608 12.1872 8.17581C12.2415 8.00844 12.2415 7.82815 12.1872 7.66078C12.1253 7.47051 11.9603 7.3055 11.6303 6.97548L11.0159 6.3611C10.6859 6.03109 10.5209 5.86608 10.3306 5.80426C10.1633 5.74988 9.98297 5.74988 9.8156 5.80426C9.62533 5.86608 9.46032 6.03109 9.13031 6.3611L1.43259 14.0588C1.10258 14.3888 0.937571 14.5538 0.875747 14.7441C0.821366 14.9115 0.821366 15.0918 0.875747 15.2591C0.937571 15.4494 1.10258 15.6144 1.43259 15.9444L2.04697 16.5588C2.37699 16.8888 2.54199 17.0538 2.73227 17.1157C2.89964 17.17 3.07993 17.17 3.2473 17.1157C3.43757 17.0538 3.60258 16.8888 3.93259 16.5588Z" stroke="#0E87FE" stroke-width="1.67" stroke-linecap="round" stroke-linejoin="round"/>
</svg>
