<svg width="20" height="20" viewBox="0 0 20 20" fill="none" xmlns="http://www.w3.org/2000/svg">
<g clip-path="url(#clip0_253_22944)">
<path d="M14.4444 11.75C14.1865 11.2924 13.8375 10.8927 13.419 10.5754C13.0004 10.2582 12.5212 10.0302 12.011 9.90553C11.5323 9.76191 11.0465 9.64323 10.5555 9.54997V4.51108C11.5317 4.61579 12.463 4.97605 13.2555 5.55553C13.3102 5.60404 13.3739 5.64131 13.4431 5.66519C13.5122 5.68908 13.5853 5.69911 13.6583 5.69473C13.7313 5.69034 13.8027 5.67162 13.8685 5.63964C13.9343 5.60765 13.9931 5.56302 14.0416 5.50831C14.0901 5.45359 14.1274 5.38985 14.1513 5.32073C14.1751 5.25161 14.1852 5.17847 14.1808 5.10547C14.1764 5.03247 14.1577 4.96106 14.1257 4.89529C14.0937 4.82953 14.0491 4.77071 13.9944 4.7222C13.0001 3.95642 11.8061 3.49349 10.5555 3.38886V1.66664C10.5555 1.5193 10.497 1.37799 10.3928 1.2738C10.2886 1.16962 10.1473 1.11108 9.99994 1.11108C9.85259 1.11108 9.71128 1.16962 9.6071 1.2738C9.50291 1.37799 9.44438 1.5193 9.44438 1.66664V3.33331C6.99993 3.38886 5.64994 4.60553 5.23882 5.65553C4.96457 6.33166 4.93851 7.08306 5.16527 7.77657C5.39204 8.47008 5.85698 9.06093 6.47771 9.44442C7.38127 9.99521 8.39332 10.3439 9.44438 10.4666V15.5555C7.994 15.4825 6.60459 14.9493 5.47771 14.0333C5.42742 13.9735 5.36507 13.9249 5.29473 13.8908C5.22439 13.8567 5.14764 13.8378 5.06951 13.8354C4.99137 13.833 4.91361 13.8471 4.8413 13.8768C4.76899 13.9065 4.70377 13.9511 4.64988 14.0078C4.596 14.0644 4.55468 14.1318 4.52862 14.2055C4.50255 14.2792 4.49233 14.3575 4.49863 14.4355C4.50493 14.5134 4.5276 14.5891 4.56516 14.6576C4.60272 14.7262 4.65432 14.7861 4.7166 14.8333C6.04545 15.9521 7.70869 16.597 9.44438 16.6666V18.3333C9.44438 18.4806 9.50291 18.622 9.6071 18.7261C9.71128 18.8303 9.85259 18.8889 9.99994 18.8889C10.1473 18.8889 10.2886 18.8303 10.3928 18.7261C10.497 18.622 10.5555 18.4806 10.5555 18.3333V16.6666C12.1222 16.5611 13.9277 16.0611 14.611 14.0222C14.7347 13.6512 14.7836 13.2594 14.755 12.8694C14.7264 12.4794 14.6208 12.0989 14.4444 11.75ZM7.10549 8.51108C6.69982 8.2696 6.3936 7.89134 6.24186 7.44428C6.09013 6.99723 6.10284 6.51072 6.27771 6.0722C6.33882 5.90553 6.96105 4.51108 9.44438 4.44442V9.33331C8.61563 9.22666 7.81867 8.9465 7.10549 8.51108ZM13.5555 13.6444C13.1555 14.8333 12.2666 15.4055 10.5555 15.5333V10.6833C10.911 10.7611 11.2777 10.85 11.6666 10.9666C12.034 11.0501 12.3805 11.2074 12.6852 11.4289C12.9898 11.6505 13.2463 11.9317 13.4388 12.2555C13.6567 12.6857 13.6986 13.1839 13.5555 13.6444Z" fill="#667085"/>
</g>
<defs>
<clipPath id="clip0_253_22944">
<rect width="20" height="20" fill="white"/>
</clipPath>
</defs>
</svg>
