<svg width="93" height="21" viewBox="0 0 93 21" fill="none" xmlns="http://www.w3.org/2000/svg">
<path d="M8.96014 4.62364C8.89923 4.01914 8.63787 3.54954 8.17603 3.21481C7.71419 2.88009 7.08741 2.71273 6.29569 2.71273C5.75773 2.71273 5.30351 2.78767 4.93302 2.93755C4.56254 3.08243 4.27833 3.28476 4.0804 3.54454C3.88755 3.80432 3.79112 4.09908 3.79112 4.4288C3.78097 4.70357 3.83933 4.94337 3.96621 5.1482C4.09816 5.35303 4.27833 5.53038 4.50671 5.68026C4.73509 5.82513 4.999 5.95253 5.29843 6.06244C5.59786 6.16735 5.9176 6.25727 6.25763 6.33221L7.65837 6.66194C8.33843 6.81181 8.96267 7.01164 9.53109 7.26143C10.0995 7.51123 10.5918 7.81847 11.0079 8.18316C11.4241 8.54786 11.7464 8.9775 11.9748 9.47209C12.2082 9.96667 12.3275 10.5337 12.3326 11.1732C12.3275 12.1124 12.0839 12.9267 11.6017 13.6161C11.1247 14.3006 10.4345 14.8326 9.53109 15.2123C8.63279 15.587 7.54925 15.7743 6.28047 15.7743C5.02184 15.7743 3.92561 15.5845 2.99179 15.2048C2.06304 14.8251 1.3373 14.2631 0.814558 13.5187C0.296895 12.7693 0.0253757 11.8426 0 10.7385H3.18972C3.22524 11.2531 3.37496 11.6827 3.63887 12.0275C3.90785 12.3672 4.26564 12.6245 4.71226 12.7993C5.16394 12.9692 5.67399 13.0541 6.24241 13.0541C6.80067 13.0541 7.28534 12.9742 7.69643 12.8143C8.11259 12.6544 8.43486 12.4321 8.66324 12.1474C8.89162 11.8626 9.00581 11.5354 9.00581 11.1657C9.00581 10.821 8.90177 10.5312 8.69369 10.2964C8.49069 10.0616 8.19126 9.86176 7.79539 9.6969C7.40461 9.53204 6.92501 9.38216 6.3566 9.24728L4.65897 8.82763C3.34451 8.51289 2.30664 8.0208 1.54538 7.35136C0.784107 6.68192 0.40601 5.78017 0.411085 4.64612C0.40601 3.7169 0.657229 2.90507 1.16474 2.21065C1.67733 1.51623 2.38023 0.974187 3.27346 0.584512C4.16668 0.194837 5.1817 0 6.31853 0C7.47566 0 8.48561 0.194837 9.34838 0.584512C10.2162 0.974187 10.8912 1.51623 11.3734 2.21065C11.8555 2.90507 12.1042 3.7094 12.1194 4.62364H8.96014Z" fill="white"/>
<path d="M19.8177 15.7818C18.6149 15.7818 17.5796 15.542 16.7118 15.0624C15.849 14.5778 15.1841 13.8934 14.7172 13.0091C14.2503 12.1199 14.0169 11.0683 14.0169 9.85427C14.0169 8.67026 14.2503 7.63113 14.7172 6.73687C15.1841 5.84262 15.8414 5.1457 16.6889 4.64612C17.5415 4.14654 18.5413 3.89675 19.6883 3.89675C20.4597 3.89675 21.1779 4.01914 21.8427 4.26394C22.5126 4.50374 23.0963 4.86594 23.5936 5.35053C24.0961 5.83513 24.4869 6.44462 24.766 7.179C25.0451 7.90839 25.1847 8.76268 25.1847 9.74186V10.6186H15.311V8.64028H22.132C22.132 8.18067 22.0305 7.77351 21.8275 7.4188C21.6245 7.0641 21.3428 6.78683 20.9825 6.587C20.6272 6.38217 20.2136 6.27976 19.7416 6.27976C19.2493 6.27976 18.8129 6.39216 18.4322 6.61697C18.0567 6.83679 17.7623 7.13404 17.5492 7.50873C17.336 7.87842 17.2269 8.29057 17.2218 8.7452V10.6261C17.2218 11.1956 17.3284 11.6877 17.5415 12.1024C17.7598 12.517 18.0668 12.8368 18.4627 13.0616C18.8585 13.2864 19.328 13.3988 19.871 13.3988C20.2314 13.3988 20.5612 13.3489 20.8607 13.2489C21.1601 13.149 21.4164 12.9991 21.6296 12.7993C21.8427 12.5995 22.0051 12.3547 22.1168 12.0649L25.1162 12.2598C24.9639 12.9692 24.6518 13.5887 24.1798 14.1182C23.7129 14.6428 23.109 15.0524 22.368 15.3472C21.6321 15.6369 20.782 15.7818 19.8177 15.7818Z" fill="white"/>
<path d="M32.569 20.1132C31.5184 20.1132 30.6176 19.9708 29.8665 19.6861C29.1204 19.4063 28.5267 19.0241 28.0851 18.5395C27.6436 18.0549 27.3568 17.5104 27.2249 16.9059L30.2243 16.5087C30.3156 16.7385 30.4603 16.9533 30.6582 17.1532C30.8561 17.353 31.1175 17.5129 31.4423 17.6328C31.7722 17.7577 32.1731 17.8201 32.6451 17.8201C33.3506 17.8201 33.9317 17.6503 34.3884 17.3105C34.8503 16.9758 35.0812 16.4138 35.0812 15.6244V13.5187H34.9442C34.802 13.8384 34.5889 14.1407 34.3047 14.4255C34.0205 14.7102 33.6551 14.9425 33.2085 15.1224C32.7618 15.3022 32.229 15.3921 31.6098 15.3921C30.7318 15.3921 29.9325 15.1923 29.2118 14.7926C28.4962 14.388 27.9252 13.771 27.4989 12.9417C27.0777 12.1074 26.8671 11.0533 26.8671 9.77933C26.8671 8.47542 27.0828 7.38633 27.5142 6.51206C27.9456 5.63779 28.519 4.98334 29.2346 4.5487C29.9553 4.11406 30.7445 3.89675 31.6022 3.89675C32.2569 3.89675 32.805 4.00665 33.2465 4.22647C33.6881 4.44129 34.0433 4.71107 34.3123 5.03579C34.5864 5.35553 34.797 5.67026 34.9442 5.98001H35.066V4.04662H38.2861V15.6694C38.2861 16.6486 38.0425 17.4679 37.5553 18.1274C37.0681 18.7868 36.3931 19.2814 35.5303 19.6111C34.6726 19.9458 33.6855 20.1132 32.569 20.1132ZM32.6375 12.9941C33.1602 12.9941 33.6018 12.8668 33.9621 12.612C34.3275 12.3522 34.6067 11.9825 34.7995 11.5029C34.9974 11.0183 35.0964 10.4388 35.0964 9.76435C35.0964 9.08991 35 8.5054 34.8071 8.01081C34.6143 7.51123 34.3351 7.12405 33.9697 6.84928C33.6043 6.57451 33.1602 6.43712 32.6375 6.43712C32.1046 6.43712 31.6555 6.5795 31.2901 6.86427C30.9247 7.14403 30.6481 7.53371 30.4603 8.03329C30.2725 8.53287 30.1786 9.10989 30.1786 9.76435C30.1786 10.4288 30.2725 11.0033 30.4603 11.4879C30.6531 11.9675 30.9297 12.3397 31.2901 12.6045C31.6555 12.8643 32.1046 12.9941 32.6375 12.9941Z" fill="white"/>
<path d="M40.8668 15.557V4.04662H43.9576V6.07742H44.0946C44.3382 5.40299 44.7442 4.87093 45.3126 4.48126C45.881 4.09158 46.5611 3.89675 47.3528 3.89675C48.1547 3.89675 48.8373 4.09408 49.4006 4.48875C49.964 4.87843 50.3395 5.40798 50.5273 6.07742H50.6491C50.8877 5.41798 51.319 4.89092 51.9433 4.49624C52.5726 4.09658 53.3161 3.89675 54.1738 3.89675C55.265 3.89675 56.1506 4.23896 56.8306 4.92339C57.5158 5.60282 57.8583 6.56702 57.8583 7.81597V15.557H54.6229V8.44545C54.6229 7.80598 54.4504 7.32638 54.1053 7.00665C53.7602 6.68692 53.3288 6.52705 52.8111 6.52705C52.2224 6.52705 51.7631 6.71189 51.4332 7.08159C51.1033 7.44628 50.9384 7.92838 50.9384 8.52788V15.557H47.7944V8.378C47.7944 7.81347 47.6294 7.36385 47.2995 7.02913C46.9747 6.69441 46.5459 6.52705 46.013 6.52705C45.6527 6.52705 45.3279 6.61697 45.0386 6.79682C44.7544 6.97168 44.5285 7.21897 44.361 7.5387C44.1936 7.85344 44.1098 8.22313 44.1098 8.64778V15.557H40.8668Z" fill="white"/>
<path d="M65.7489 15.7818C64.5461 15.7818 63.5108 15.542 62.6429 15.0624C61.7801 14.5778 61.1153 13.8934 60.6484 13.0091C60.1815 12.1199 59.948 11.0683 59.948 9.85427C59.948 8.67026 60.1815 7.63113 60.6484 6.73687C61.1153 5.84262 61.7725 5.1457 62.6201 4.64612C63.4727 4.14654 64.4725 3.89675 65.6195 3.89675C66.3909 3.89675 67.109 4.01914 67.7739 4.26394C68.4438 4.50374 69.0274 4.86594 69.5248 5.35053C70.0272 5.83513 70.418 6.44462 70.6971 7.179C70.9763 7.90839 71.1158 8.76268 71.1158 9.74186V10.6186H61.2422V8.64028H68.0632C68.0632 8.18067 67.9617 7.77351 67.7586 7.4188C67.5556 7.0641 67.274 6.78683 66.9136 6.587C66.5584 6.38217 66.1448 6.27976 65.6728 6.27976C65.1805 6.27976 64.744 6.39216 64.3634 6.61697C63.9878 6.83679 63.6935 7.13404 63.4803 7.50873C63.2672 7.87842 63.158 8.29057 63.153 8.7452V10.6261C63.153 11.1956 63.2595 11.6877 63.4727 12.1024C63.6909 12.517 63.998 12.8368 64.3938 13.0616C64.7897 13.2864 65.2591 13.3988 65.8022 13.3988C66.1625 13.3988 66.4924 13.3489 66.7918 13.2489C67.0913 13.149 67.3476 12.9991 67.5607 12.7993C67.7739 12.5995 67.9363 12.3547 68.0479 12.0649L71.0473 12.2598C70.8951 12.9692 70.583 13.5887 70.111 14.1182C69.6441 14.6428 69.0401 15.0524 68.2992 15.3472C67.5633 15.6369 66.7132 15.7818 65.7489 15.7818Z" fill="white"/>
<path d="M76.4752 8.90257V15.557H73.2322V4.04662H76.3229V6.07742H76.46C76.7188 5.40798 77.1527 4.87843 77.7617 4.48875C78.3707 4.09408 79.1092 3.89675 79.977 3.89675C80.789 3.89675 81.497 4.0716 82.101 4.42131C82.7049 4.77102 83.1743 5.2706 83.5093 5.92006C83.8443 6.56452 84.0117 7.33387 84.0117 8.22813V15.557H80.7687V8.79765C80.7738 8.09324 80.5911 7.5437 80.2206 7.14903C79.8501 6.74936 79.3401 6.54953 78.6905 6.54953C78.254 6.54953 77.8683 6.64195 77.5333 6.8268C77.2035 7.01164 76.9446 7.28142 76.7568 7.63612C76.5741 7.98583 76.4803 8.40798 76.4752 8.90257Z" fill="white"/>
<path d="M92.7873 4.04662V6.44462H85.7455V4.04662H92.7873ZM87.3442 1.28892H90.5872V12.02C90.5872 12.3147 90.6329 12.5445 90.7242 12.7094C90.8156 12.8693 90.9425 12.9817 91.1049 13.0466C91.2723 13.1115 91.4652 13.144 91.6834 13.144C91.8357 13.144 91.9879 13.1315 92.1402 13.1066C92.2924 13.0766 92.4092 13.0541 92.4904 13.0391L93.0004 15.4146C92.838 15.4646 92.6096 15.522 92.3153 15.587C92.0209 15.6569 91.6631 15.6994 91.2419 15.7144C90.4603 15.7444 89.7752 15.6419 89.1865 15.4071C88.6028 15.1723 88.1486 14.8076 87.8238 14.313C87.499 13.8185 87.3391 13.194 87.3442 12.4396V1.28892Z" fill="white"/>
</svg>
