<svg width="20" height="20" viewBox="0 0 20 20" fill="none" xmlns="http://www.w3.org/2000/svg">
<path d="M10.833 9.99998C10.833 9.53974 10.4599 9.16665 9.99967 9.16665C9.53944 9.16665 9.16634 9.53974 9.16634 9.99998C9.16634 10.4602 9.53944 10.8333 9.99967 10.8333C10.4599 10.8333 10.833 10.4602 10.833 9.99998Z" stroke="#667085" stroke-width="1.66667" stroke-linecap="round" stroke-linejoin="round"/>
<path d="M4.99967 9.99998C4.99967 9.53974 4.62658 9.16665 4.16634 9.16665C3.7061 9.16665 3.33301 9.53974 3.33301 9.99998C3.33301 10.4602 3.7061 10.8333 4.16634 10.8333C4.62658 10.8333 4.99967 10.4602 4.99967 9.99998Z" stroke="#667085" stroke-width="1.66667" stroke-linecap="round" stroke-linejoin="round"/>
<path d="M16.6663 9.99998C16.6663 9.53974 16.2932 9.16665 15.833 9.16665C15.3728 9.16665 14.9997 9.53974 14.9997 9.99998C14.9997 10.4602 15.3728 10.8333 15.833 10.8333C16.2932 10.8333 16.6663 10.4602 16.6663 9.99998Z" stroke="#667085" stroke-width="1.66667" stroke-linecap="round" stroke-linejoin="round"/>
</svg>
