<svg width="19" height="17" viewBox="0 0 19 17" fill="none" xmlns="http://www.w3.org/2000/svg">
<path d="M10.1995 4.25102L9.25151 2.35499C8.97867 1.80931 8.84224 1.53646 8.63871 1.33712C8.45873 1.16084 8.2418 1.02677 8.00364 0.944624C7.73433 0.85173 7.42928 0.85173 6.81918 0.85173H3.57091C2.61902 0.85173 2.14308 0.85173 1.7795 1.03698C1.45969 1.19993 1.19968 1.45994 1.03673 1.77975C0.851481 2.14333 0.851481 2.61927 0.851481 3.57116V4.25102M0.851481 4.25102H13.7688C15.1966 4.25102 15.9105 4.25102 16.4559 4.52889C16.9356 4.77332 17.3256 5.16334 17.57 5.64305C17.8479 6.18841 17.8479 6.90233 17.8479 8.33016V12.0694C17.8479 13.4972 17.8479 14.2111 17.57 14.7565C17.3256 15.2362 16.9356 15.6262 16.4559 15.8706C15.9105 16.1485 15.1966 16.1485 13.7688 16.1485H4.93063C3.50279 16.1485 2.78887 16.1485 2.24351 15.8706C1.7638 15.6262 1.37378 15.2362 1.12936 14.7565C0.851481 14.2111 0.851481 13.4972 0.851481 12.0694V4.25102Z" stroke="#5207CD" stroke-width="1.67" stroke-linecap="round" stroke-linejoin="round"/>
</svg>
