<svg width="18" height="18" viewBox="0 0 18 18" fill="none" xmlns="http://www.w3.org/2000/svg">
<g clip-path="url(#clip0_253_27325)">
<path d="M15.1875 13.125V11.8125C15.1875 11.0876 14.5999 10.5 13.875 10.5C13.1501 10.5 12.5625 11.0876 12.5625 11.8125V13.125M16.5 7.5H1.5M16.5 8.25V6.15C16.5 5.30992 16.5 4.88988 16.3365 4.56902C16.1927 4.28677 15.9632 4.0573 15.681 3.91349C15.3601 3.75 14.9401 3.75 14.1 3.75H3.9C3.05992 3.75 2.63988 3.75 2.31901 3.91349C2.03677 4.0573 1.8073 4.28677 1.66349 4.56901C1.5 4.88988 1.5 5.30992 1.5 6.15V11.85C1.5 12.6901 1.5 13.1101 1.66349 13.431C1.8073 13.7132 2.03677 13.9427 2.31901 14.0865C2.63988 14.25 3.05992 14.25 3.9 14.25H8.25M12.45 16.125H15.3C15.72 16.125 15.9301 16.125 16.0905 16.0433C16.2316 15.9713 16.3463 15.8566 16.4183 15.7155C16.5 15.5551 16.5 15.345 16.5 14.925V14.325C16.5 13.905 16.5 13.6949 16.4183 13.5345C16.3463 13.3934 16.2316 13.2787 16.0905 13.2067C15.9301 13.125 15.72 13.125 15.3 13.125H12.45C12.03 13.125 11.8199 13.125 11.6595 13.2067C11.5184 13.2787 11.4037 13.3934 11.3317 13.5345C11.25 13.6949 11.25 13.905 11.25 14.325V14.925C11.25 15.345 11.25 15.5551 11.3317 15.7155C11.4037 15.8566 11.5184 15.9713 11.6595 16.0433C11.8199 16.125 12.03 16.125 12.45 16.125Z" stroke="#667085" stroke-width="1.67" stroke-linecap="round" stroke-linejoin="round"/>
</g>
<defs>
<clipPath id="clip0_253_27325">
<rect width="18" height="18" fill="white"/>
</clipPath>
</defs>
</svg>
