<svg width="16" height="13" viewBox="0 0 16 13" fill="none" xmlns="http://www.w3.org/2000/svg">
<path d="M15.1194 6.41792L5.62688 6.41792M15.1194 1.67169L5.62688 1.67169M15.1194 11.1642L5.62688 11.1642M2.46273 6.41792C2.46273 6.8548 2.10857 7.20896 1.67169 7.20896C1.23481 7.20896 0.880649 6.8548 0.880649 6.41792C0.880649 5.98104 1.23481 5.62688 1.67169 5.62688C2.10857 5.62688 2.46273 5.98104 2.46273 6.41792ZM2.46273 1.67169C2.46273 2.10857 2.10857 2.46273 1.67169 2.46273C1.23481 2.46273 0.880649 2.10857 0.880649 1.67169C0.880649 1.23481 1.23481 0.880649 1.67169 0.880649C2.10857 0.880649 2.46273 1.23481 2.46273 1.67169ZM2.46273 11.1642C2.46273 11.601 2.10857 11.9552 1.67169 11.9552C1.23481 11.9552 0.880649 11.601 0.880649 11.1642C0.880649 10.7273 1.23481 10.3731 1.67169 10.3731C2.10857 10.3731 2.46273 10.7273 2.46273 11.1642Z" stroke="#0E87FE" stroke-width="1.67" stroke-linecap="round" stroke-linejoin="round"/>
</svg>
