<svg width="18" height="18" viewBox="0 0 18 18" fill="none" xmlns="http://www.w3.org/2000/svg">
<path d="M15.75 13.5L14.9999 14.3205C14.6021 14.7556 14.0626 15 13.5001 15C12.9376 15 12.3981 14.7556 12.0003 14.3205C11.6019 13.8863 11.0625 13.6425 10.5001 13.6425C9.93778 13.6425 9.39835 13.8863 8.99998 14.3205M2.25 15H3.50591C3.87279 15 4.05624 15 4.22887 14.9585C4.38192 14.9218 4.52824 14.8612 4.66245 14.7789C4.81382 14.6862 4.94354 14.5565 5.20296 14.297L14.625 4.87499C15.2463 4.25367 15.2463 3.24631 14.625 2.62499C14.0037 2.00367 12.9963 2.00367 12.375 2.62499L2.95295 12.047C2.69352 12.3065 2.5638 12.4362 2.47104 12.5876C2.3888 12.7218 2.32819 12.8681 2.29145 13.0211C2.25 13.1938 2.25 13.3772 2.25 13.7441V15Z" stroke="#5207CD" stroke-width="1.67" stroke-linecap="round" stroke-linejoin="round"/>
</svg>
