<svg width="45" height="45" viewBox="0 0 45 45" fill="none" xmlns="http://www.w3.org/2000/svg">
<path d="M22.4994 12.1875C22.4994 11.7389 22.4994 11.5146 22.6507 11.3754C22.8022 11.2361 23.0133 11.2537 23.4358 11.289C25.0839 11.4267 26.6855 11.9264 28.1244 12.7572C29.8346 13.7446 31.2547 15.1647 32.2423 16.875C33.2296 18.5852 33.7494 20.5252 33.7494 22.5C33.7494 24.4747 33.2296 26.4148 32.2423 28.125C31.2547 29.8352 29.8346 31.2553 28.1244 32.2428C26.4142 33.2302 24.4741 33.75 22.4994 33.75C20.5246 33.75 18.5846 33.2302 16.8744 32.2428C15.4355 31.412 14.2019 30.2748 13.2586 28.9164C13.0169 28.5682 12.896 28.394 12.9409 28.1934C12.9858 27.9926 13.18 27.8805 13.5685 27.6562L22.0306 22.7705C22.2594 22.6385 22.3738 22.5725 22.4366 22.4638C22.4994 22.3548 22.4994 22.2228 22.4994 21.9587V12.1875Z" fill="#2B76CD"/>
<path d="M22.4994 12.1875C22.4994 11.7389 22.4994 11.5146 22.6507 11.3754C22.8022 11.2361 23.0133 11.2537 23.4358 11.289C25.0839 11.4267 26.6855 11.9264 28.1244 12.7572C29.8346 13.7446 31.2547 15.1647 32.2423 16.875C33.2296 18.5852 33.7494 20.5252 33.7494 22.5C33.7494 24.4747 33.2296 26.4148 32.2423 28.125C31.2547 29.8352 29.8346 31.2553 28.1244 32.2428C26.4142 33.2302 24.4741 33.75 22.4994 33.75C20.5246 33.75 18.5846 33.2302 16.8744 32.2428C15.4355 31.412 14.2019 30.2748 13.2586 28.9164C13.0169 28.5682 12.896 28.394 12.9409 28.1934C12.9858 27.9926 13.18 27.8805 13.5685 27.6562L22.0306 22.7705C22.2594 22.6385 22.3738 22.5725 22.4366 22.4638C22.4994 22.3548 22.4994 22.2228 22.4994 21.9587V12.1875Z" fill="black" fill-opacity="0.5"/>
<path fill-rule="evenodd" clip-rule="evenodd" d="M22.5 7.44375C14.1847 7.44375 7.44375 14.1847 7.44375 22.5C7.44375 30.8153 14.1847 37.5562 22.5 37.5562C30.8153 37.5562 37.5563 30.8153 37.5563 22.5C37.5563 14.1847 30.8153 7.44375 22.5 7.44375ZM1.96875 22.5C1.96875 11.1609 11.1609 1.96875 22.5 1.96875C33.8391 1.96875 43.0312 11.1609 43.0312 22.5C43.0312 33.8391 33.8391 43.0312 22.5 43.0312C11.1609 43.0312 1.96875 33.8391 1.96875 22.5Z" fill="#2B76CD"/>
</svg>
