<svg width="83" height="94" viewBox="0 0 83 94" fill="none" xmlns="http://www.w3.org/2000/svg">
<path d="M37.333 1.11633C39.9116 -0.372398 43.0885 -0.372399 45.667 1.11633L78.8335 20.265C81.412 21.7537 83.0005 24.505 83.0005 27.4824V65.7798C83.0005 68.7572 81.412 71.5085 78.8335 72.9972L45.667 92.1459C43.0885 93.6346 39.9116 93.6346 37.333 92.1459L4.16658 72.9972C1.58803 71.5085 -0.000431696 68.7572 -0.000431696 65.7798V27.4825C-0.000431696 24.505 1.58802 21.7537 4.16658 20.265L37.333 1.11633Z" fill="#2B76CD"/>
<path d="M37.333 1.11633C39.9116 -0.372398 43.0885 -0.372399 45.667 1.11633L78.8335 20.265C81.412 21.7537 83.0005 24.505 83.0005 27.4824V65.7798C83.0005 68.7572 81.412 71.5085 78.8335 72.9972L45.667 92.1459C43.0885 93.6346 39.9116 93.6346 37.333 92.1459L4.16658 72.9972C1.58803 71.5085 -0.000431696 68.7572 -0.000431696 65.7798V27.4825C-0.000431696 24.505 1.58802 21.7537 4.16658 20.265L37.333 1.11633Z" fill="white" fill-opacity="0.7"/>
</svg>
