<svg width="50" height="50" viewBox="0 0 50 50" fill="none" xmlns="http://www.w3.org/2000/svg">
<path d="M24.8985 32.2225C27.7011 32.2242 30.4412 31.3945 32.7722 29.8385C35.1032 28.2825 36.9203 26.07 37.9936 23.4811C39.0669 20.8921 39.3481 18.043 38.8018 15.2941C38.2554 12.5453 36.906 10.0202 34.9242 8.03849C32.9425 6.05673 30.4175 4.70732 27.6686 4.16096C24.9198 3.61461 22.0706 3.89587 19.4817 4.96916C16.8927 6.04244 14.6802 7.85953 13.1242 10.1905C11.5682 12.5215 10.7386 15.2617 10.7402 18.0643C10.746 21.8175 12.2396 25.4153 14.8935 28.0692C17.5474 30.7232 21.1452 32.2167 24.8985 32.2225Z" fill="#2B76CD"/>
<path d="M24.8985 32.2225C27.7011 32.2242 30.4412 31.3945 32.7722 29.8385C35.1032 28.2825 36.9203 26.07 37.9936 23.4811C39.0669 20.8921 39.3481 18.043 38.8018 15.2941C38.2554 12.5453 36.906 10.0202 34.9242 8.03849C32.9425 6.05673 30.4175 4.70732 27.6686 4.16096C24.9198 3.61461 22.0706 3.89587 19.4817 4.96916C16.8927 6.04244 14.6802 7.85953 13.1242 10.1905C11.5682 12.5215 10.7386 15.2617 10.7402 18.0643C10.746 21.8175 12.2396 25.4153 14.8935 28.0692C17.5474 30.7232 21.1452 32.2167 24.8985 32.2225Z" fill="white" fill-opacity="0.5"/>
<path d="M32.5648 27.591C31.1183 26.2789 29.2452 25.5542 27.3045 25.5557H22.5089C20.5667 25.5535 18.6926 26.2811 17.2485 27.5982L17.2316 27.6146L17.2161 27.6303C16.4007 28.3781 15.7491 29.2911 15.3035 30.3103C14.8578 31.3295 14.628 32.4322 14.6289 33.5471V38.1748C14.6289 38.3642 14.7031 38.5459 14.8352 38.6798C14.9672 38.8138 15.1463 38.889 15.3331 38.889H34.4803C34.667 38.889 34.8461 38.8138 34.9782 38.6798C35.1103 38.5459 35.1845 38.3642 35.1845 38.1748V33.5471C35.186 32.4232 34.9534 31.3117 34.5019 30.2853C34.0505 29.2589 33.3904 28.3408 32.5648 27.591Z" fill="white"/>
<path d="M24.9041 23.8888C26.0581 23.8895 27.1864 23.5479 28.1462 22.9072C29.106 22.2665 29.8542 21.3555 30.2962 20.2894C30.7381 19.2234 30.8539 18.0502 30.629 16.9183C30.404 15.7864 29.8484 14.7467 29.0323 13.9307C28.2163 13.1147 27.1766 12.5591 26.0447 12.3341C24.9128 12.1091 23.7397 12.2249 22.6736 12.6669C21.6076 13.1088 20.6966 13.857 20.0559 14.8168C19.4152 15.7767 19.0735 16.905 19.0742 18.059C19.0766 19.6044 19.6916 21.0859 20.7844 22.1787C21.8772 23.2715 23.3586 23.8864 24.9041 23.8888Z" fill="white"/>
</svg>
