<svg width="18" height="18" viewBox="0 0 18 18" fill="none" xmlns="http://www.w3.org/2000/svg">
<path d="M16.875 2.64375V15.3598C16.875 16.2141 16.207 16.8785 15.3562 16.8785H2.64375C1.80352 16.875 1.125 16.2211 1.125 15.3562V2.64375C1.125 1.79648 1.78594 1.125 2.64375 1.125H15.3598C16.2035 1.125 16.875 1.78594 16.875 2.64375ZM15.5637 15.3562V2.64375C15.5637 2.53828 15.4723 2.43984 15.3598 2.43984H15.0328L11.1551 5.0625L9 3.3082L6.84844 5.0625L2.9707 2.43633H2.64375C2.53125 2.43633 2.43984 2.53477 2.43984 2.64023V15.3562C2.43984 15.4617 2.53125 15.5602 2.64375 15.5602H15.3598C15.4723 15.5637 15.5637 15.4652 15.5637 15.3562ZM6.40547 6.53906V7.83984H3.82148V6.53906H6.40547ZM6.40547 9.15469V10.466H3.82148V9.15469H6.40547ZM6.7957 3.97617L8.69414 2.43984H4.52813L6.7957 3.97617ZM14.1785 6.53906V7.83984H7.28789V6.53906H14.1785ZM14.1785 9.15469V10.466H7.28789V9.15469H14.1785ZM11.2043 3.97617L13.4719 2.43984H9.30938L11.2043 3.97617ZM14.1785 11.7773V13.0887H10.684V11.7773H14.1785Z" fill="#667085"/>
</svg>
