<svg width="18" height="19" viewBox="0 0 18 19" fill="none" xmlns="http://www.w3.org/2000/svg">
<path d="M8.92266 0.577637L6.11367 3.69891L6.19453 5.88205L7.97344 7.22541L9.09492 13.9793L9.47461 12.9811L9.88945 4.24553L10.5469 4.28264L10.227 10.9994L11.2219 8.37209L11.5102 4.36428L11.5418 3.69891L8.92266 0.577637ZM13.8094 2.45426L12.1711 4.3383L12.034 6.23459L12.4066 5.26232L13.4754 4.75393C13.5879 3.98947 13.6969 3.22131 13.8094 2.45426ZM15.9293 4.35314L12.9164 5.77814L9.30937 15.2744L9.82266 18.3656H10.0969L15.2859 7.48889L15.873 7.80061L10.8316 18.3656H11.6895L16.8434 7.53713L15.9293 4.35314ZM3.96914 5.05451L2.06684 8.73205L4.49649 18.3656H7.78711L5.99063 8.16799L6.63398 8.04182L8.45508 18.3656H9.15469L7.37227 7.62619L3.96914 5.05451ZM16.5656 14.7178L14.2523 14.5248L12.5016 18.2061L14.9555 16.8442L16.5656 14.7178ZM1.23891 13.6787L2.73199 18.3805H3.82148L2.83359 14.4692L1.23891 13.6787Z" fill="#667085"/>
</svg>
