<svg width="50" height="50" viewBox="0 0 50 50" fill="none" xmlns="http://www.w3.org/2000/svg">
<path d="M34.9648 31.7672C35.2804 29.5253 35.437 27.264 35.4336 25C35.437 22.736 35.2804 20.4747 34.9648 18.2328H43.8281C45.3945 22.6083 45.3945 27.3917 43.8281 31.7672H34.9648ZM25 45C23.0469 45 21.0531 42.9953 19.5242 39.5008C18.8258 37.9047 18.257 36.0852 17.8312 34.1102H32.1687C31.7429 36.0844 31.1742 37.9039 30.4758 39.5008C28.9469 42.9953 26.9531 45 25 45ZM17.4031 31.7672C16.7448 27.2797 16.7448 22.7203 17.4031 18.2328H32.5969C32.9298 20.4731 33.0948 22.7351 33.0906 25C33.0948 27.2649 32.9298 29.5269 32.5969 31.7672H17.4031ZM6.17185 31.7672C4.60548 27.3917 4.60548 22.6083 6.17185 18.2328H15.0351C14.4091 22.7226 14.4091 27.2774 15.0351 31.7672H6.17185ZM25 5C26.9531 5 28.9469 7.00391 30.4758 10.4992C31.1742 12.0953 31.7429 13.9148 32.1687 15.8898H17.8312C18.257 13.9156 18.8258 12.0961 19.5242 10.4992C21.0531 7.00391 23.0469 5 25 5ZM42.8125 15.8891H34.5609C34.0922 13.5688 33.4406 11.4273 32.6234 9.56094C31.9617 8.04688 31.2117 6.76484 30.3906 5.73203C33.0531 6.46935 35.5327 7.75333 37.6714 9.5021C39.8101 11.2509 41.561 13.4261 42.8125 15.8891ZM19.6094 5.73125C18.7906 6.76484 18.0414 8.04609 17.3789 9.55937C16.5617 11.4273 15.9109 13.5688 15.4414 15.8875H7.18748C8.4392 13.4248 10.1902 11.2499 12.3289 9.50126C14.4676 7.75264 16.9471 6.4687 19.6094 5.73125ZM7.18748 34.1109H15.439C15.9078 36.4312 16.5594 38.5727 17.3765 40.4391C18.039 41.9523 18.7883 43.2336 19.607 44.2672C16.945 43.5297 14.4659 42.2457 12.3276 40.4971C10.1893 38.7484 8.43875 36.5735 7.18748 34.1109ZM30.3906 44.2672C31.2094 43.2336 31.9594 41.9523 32.6211 40.4391C33.4383 38.5711 34.089 36.4297 34.5586 34.1109H42.8125C41.561 36.574 39.8102 38.7493 37.6714 40.4982C35.5327 42.2471 33.0531 43.5313 30.3906 44.2688V44.2672Z" fill="white"/>
</svg>
