<svg width="34" height="33" viewBox="0 0 34 33" fill="none" xmlns="http://www.w3.org/2000/svg">
<path d="M10.3474 1.25598C12.381 0.426831 14.5607 0 16.7619 0V8.25C15.6613 8.25 14.5715 8.46337 13.5546 8.87804C12.5378 9.29261 11.6139 9.90028 10.8357 10.6664C10.0574 11.4324 9.44011 12.3419 9.01896 13.3428C8.59771 14.3438 8.38095 15.4166 8.38095 16.5H0C0 14.3332 0.433606 12.1876 1.27592 10.1857C2.11832 8.18381 3.35296 6.36495 4.90942 4.83271C6.46598 3.30057 8.31371 2.08522 10.3474 1.25598Z" fill="#F75656"/>
<path d="M0 16.5C0 18.6668 0.433606 20.8124 1.27592 22.8143C2.11832 24.8162 3.35296 26.6351 4.90942 28.1673C6.46598 29.6994 8.31371 30.9148 10.3474 31.744C12.381 32.5732 14.5607 33 16.7619 33C18.9631 33 21.1428 32.5732 23.1764 31.744C25.2101 30.9148 27.0578 29.6994 28.6144 28.1673C30.1709 26.6351 31.4055 24.8162 32.2479 22.8143C33.0902 20.8124 33.5238 18.6668 33.5238 16.5H25.1429C25.1429 17.5834 24.9261 18.6562 24.5049 19.6572C24.0837 20.6581 23.4664 21.5676 22.6881 22.3336C21.9099 23.0997 20.986 23.7074 19.9692 24.122C18.9524 24.5366 17.8625 24.75 16.7619 24.75C15.6613 24.75 14.5715 24.5366 13.5546 24.122C12.5378 23.7074 11.6139 23.0997 10.8357 22.3336C10.0574 21.5676 9.44011 20.6581 9.01896 19.6572C8.59771 18.6562 8.38095 17.5834 8.38095 16.5H0Z" fill="#FF5E5E" fill-opacity="0.55"/>
<path d="M16.7611 11.25C13.8155 11.25 11.4277 13.6005 11.4277 16.5H22.0944C22.0944 13.6005 19.7066 11.25 16.7611 11.25Z" fill="#FF5E5E" fill-opacity="0.55"/>
<path d="M16.7611 21.75C13.8155 21.75 11.4277 19.3995 11.4277 16.5H22.0944C22.0944 19.3995 19.7066 21.75 16.7611 21.75Z" fill="#F75656"/>
</svg>
