<svg width="21" height="21" viewBox="0 0 21 21" fill="none" xmlns="http://www.w3.org/2000/svg">
<path d="M17.0582 2.69378H4.02942C3.86149 2.68592 3.69365 2.71124 3.53552 2.76832C3.37738 2.8254 3.23207 2.9131 3.10787 3.0264C2.98368 3.13971 2.88305 3.2764 2.81176 3.42863C2.74047 3.58088 2.6999 3.74569 2.69238 3.91362V16.9708C2.70222 17.3222 2.84625 17.6567 3.09489 17.9052C3.34353 18.1539 3.67793 18.2979 4.02942 18.3078H17.0582C17.3999 18.2925 17.722 18.144 17.9556 17.8941C18.1891 17.6442 18.3154 17.3128 18.3074 16.9708V3.91362C18.3102 3.75016 18.2796 3.58787 18.2174 3.43667C18.1553 3.28547 18.0628 3.14857 17.9458 3.03434C17.8289 2.92013 17.6898 2.83101 17.5372 2.77245C17.3846 2.71389 17.2216 2.68712 17.0582 2.69378ZM7.57208 15.7119H5.29814V8.75398H7.57208V15.7119ZM6.48879 7.70001C6.33011 7.70554 6.172 7.6782 6.02439 7.6197C5.87678 7.56121 5.74287 7.47283 5.63106 7.3601C5.51925 7.24738 5.43195 7.11276 5.37466 6.96469C5.31737 6.81662 5.29132 6.6583 5.29814 6.49969C5.29112 6.33935 5.3177 6.17933 5.37617 6.02987C5.43463 5.88041 5.5237 5.74482 5.63764 5.6318C5.75159 5.51878 5.8879 5.43082 6.03783 5.37358C6.18778 5.31632 6.34803 5.29105 6.5083 5.29936C6.66698 5.29384 6.82509 5.32117 6.9727 5.37967C7.12031 5.43816 7.25422 5.52655 7.36603 5.63927C7.47784 5.75199 7.56514 5.88661 7.62243 6.03468C7.67972 6.18275 7.70577 6.34107 7.69895 6.49969C7.70597 6.66002 7.67939 6.82004 7.62092 6.9695C7.56246 7.11896 7.47339 7.25455 7.35945 7.36757C7.2455 7.48059 7.10919 7.56855 6.95926 7.62579C6.80931 7.68305 6.64906 7.70832 6.48879 7.70001ZM15.7114 15.7119H13.4277V11.906C13.4277 10.9985 13.1057 10.3739 12.2956 10.3739C12.044 10.3761 11.7992 10.456 11.5948 10.6028C11.3903 10.7495 11.2363 10.9559 11.1538 11.1937C11.0903 11.3719 11.0638 11.5611 11.0757 11.7499V15.7119H8.83104V8.75398H11.0757V9.72985C11.2753 9.36322 11.5723 9.05894 11.9339 8.85049C12.2956 8.64214 12.7079 8.5378 13.1252 8.54902C14.5988 8.54902 15.7114 9.52492 15.7114 11.6035V15.7119Z" fill="black"/>
</svg>
