<svg width="21" height="21" viewBox="0 0 21 21" fill="none" xmlns="http://www.w3.org/2000/svg">
<path d="M7.40379 17.2308C5.4706 17.2308 3.67019 16.6684 2.1543 15.701C3.05085 15.8091 3.96007 15.7405 4.82988 15.4993C5.6997 15.2581 6.513 14.849 7.22322 14.2954C6.50839 14.2824 5.8156 14.0476 5.24206 13.6241C4.66852 13.2005 4.24302 12.6094 4.02527 11.9336C4.23467 11.9743 4.44939 11.9954 4.66865 11.9954C4.98124 11.9954 5.28472 11.9532 5.57379 11.8779C4.79887 11.7222 4.10201 11.3055 3.60121 10.6984C3.10042 10.0913 2.82647 9.33105 2.82575 8.54649V8.50207C3.30052 8.76453 3.83181 8.91014 4.37503 8.92669C3.90564 8.61635 3.5209 8.19562 3.25508 7.70197C2.98927 7.20833 2.85064 6.6571 2.85155 6.09741C2.85155 5.47704 3.02226 4.89131 3.31588 4.3899C4.17571 5.43968 5.24847 6.29823 6.46448 6.9098C7.68049 7.52136 9.01255 7.87225 10.3741 7.93968C10.2035 7.21113 10.2797 6.44709 10.591 5.76587C10.9022 5.08465 11.4311 4.52424 12.0957 4.17142C12.7603 3.8186 13.5236 3.69305 14.2674 3.81421C15.0112 3.93536 15.694 4.29647 16.2101 4.84162C16.9766 4.69106 17.7119 4.41256 18.3846 4.01798C18.1286 4.80473 17.5942 5.47284 16.88 5.89865C17.5587 5.81825 18.2214 5.6381 18.8466 5.36411C18.3856 6.04561 17.8072 6.64119 17.138 7.12357C17.1441 7.26887 17.1486 7.41568 17.1486 7.56249C17.1479 12.0511 13.7026 17.2316 7.40379 17.2308Z" fill="black"/>
</svg>
