<svg width="45" height="45" viewBox="0 0 45 45" fill="none" xmlns="http://www.w3.org/2000/svg">
<path d="M22.416 3C14.2703 3 7.66602 9.54834 7.66602 17.625C7.66602 20.8053 8.71757 23.7236 10.4654 26.1136C10.4968 26.1709 10.5017 26.2349 10.5373 26.2897L20.3707 40.9147C20.8267 41.5929 21.5949 42 22.416 42C23.2371 42 24.0053 41.5929 24.4613 40.9147L34.2947 26.2897C34.3309 26.2349 34.3352 26.1709 34.3666 26.1136C36.1145 23.7236 37.166 20.8053 37.166 17.625C37.166 9.54834 30.5617 3 22.416 3ZM22.416 22.5C19.7008 22.5 17.4993 20.3172 17.4993 17.625C17.4993 14.9328 19.7008 12.75 22.416 12.75C25.1312 12.75 27.3327 14.9328 27.3327 17.625C27.3327 20.3172 25.1312 22.5 22.416 22.5Z" fill="#2B76CD"/>
</svg>
