<svg width="17" height="16" viewBox="0 0 17 16" fill="none" xmlns="http://www.w3.org/2000/svg">
<path d="M16.1485 14.6188V13.0891C16.1485 11.6635 15.1735 10.4657 13.854 10.1261M11.177 1.07388C12.2982 1.52773 13.0891 2.62695 13.0891 3.9109C13.0891 5.19484 12.2982 6.29406 11.177 6.74791M12.3243 14.6188C12.3243 13.1933 12.3243 12.4806 12.0914 11.9183C11.7809 11.1687 11.1853 10.5731 10.4356 10.2626C9.8734 10.0297 9.16065 10.0297 7.73515 10.0297H5.4406C4.01509 10.0297 3.30234 10.0297 2.74011 10.2626C1.99047 10.5731 1.39489 11.1687 1.08438 11.9183C0.851494 12.4806 0.851494 13.1933 0.851494 14.6188M9.64728 3.9109C9.64728 5.60056 8.27753 6.9703 6.58787 6.9703C4.89821 6.9703 3.52847 5.60056 3.52847 3.9109C3.52847 2.22123 4.89821 0.851494 6.58787 0.851494C8.27753 0.851494 9.64728 2.22123 9.64728 3.9109Z" stroke="#5207CD" stroke-width="1.67" stroke-linecap="round" stroke-linejoin="round"/>
</svg>
