<svg width="50" height="50" viewBox="0 0 50 50" fill="none" xmlns="http://www.w3.org/2000/svg">
<path d="M14.6192 12.7314L10.8447 8.9569C10.3233 8.43559 9.4787 8.43559 8.95739 8.9569C8.43608 9.47821 8.43608 10.3229 8.95739 10.8442L12.7319 14.6187C13.2532 15.14 14.0979 15.14 14.6192 14.6187C15.1405 14.0974 15.1405 13.2527 14.6192 12.7314Z" fill="#2B76CD"/>
<path d="M14.6192 12.7314L10.8447 8.9569C10.3233 8.43559 9.4787 8.43559 8.95739 8.9569C8.43608 9.47821 8.43608 10.3229 8.95739 10.8442L12.7319 14.6187C13.2532 15.14 14.0979 15.14 14.6192 14.6187C15.1405 14.0974 15.1405 13.2527 14.6192 12.7314Z" fill="white" fill-opacity="0.5"/>
<path d="M8.98481 23.6655H3.55729C2.81959 23.6655 2.22266 24.2625 2.22266 25.0002C2.22266 25.7379 2.81959 26.3348 3.55729 26.3348H8.98481C9.72251 26.3348 10.3194 25.7379 10.3194 25.0002C10.3194 24.2625 9.72251 23.6655 8.98481 23.6655Z" fill="#2B76CD"/>
<path d="M8.98481 23.6655H3.55729C2.81959 23.6655 2.22266 24.2625 2.22266 25.0002C2.22266 25.7379 2.81959 26.3348 3.55729 26.3348H8.98481C9.72251 26.3348 10.3194 25.7379 10.3194 25.0002C10.3194 24.2625 9.72251 23.6655 8.98481 23.6655Z" fill="white" fill-opacity="0.5"/>
<path d="M46.4428 23.6655H41.0153C40.2776 23.6655 39.6807 24.2625 39.6807 25.0002C39.6807 25.7379 40.2776 26.3348 41.0153 26.3348H46.4428C47.1805 26.3348 47.7775 25.7379 47.7775 25.0002C47.7775 24.2625 47.1805 23.6655 46.4428 23.6655Z" fill="#2B76CD"/>
<path d="M46.4428 23.6655H41.0153C40.2776 23.6655 39.6807 24.2625 39.6807 25.0002C39.6807 25.7379 40.2776 26.3348 41.0153 26.3348H46.4428C47.1805 26.3348 47.7775 25.7379 47.7775 25.0002C47.7775 24.2625 47.1805 23.6655 46.4428 23.6655Z" fill="white" fill-opacity="0.5"/>
<path d="M41.043 8.9569C40.5217 8.43559 39.6771 8.43559 39.1557 8.9569L35.3812 12.7314C34.8599 13.2527 34.8599 14.0974 35.3812 14.6187C35.9025 15.14 36.7472 15.14 37.2685 14.6187L41.043 10.8442C41.5643 10.3229 41.5643 9.4783 41.043 8.9569Z" fill="#2B76CD"/>
<path d="M41.043 8.9569C40.5217 8.43559 39.6771 8.43559 39.1557 8.9569L35.3812 12.7314C34.8599 13.2527 34.8599 14.0974 35.3812 14.6187C35.9025 15.14 36.7472 15.14 37.2685 14.6187L41.043 10.8442C41.5643 10.3229 41.5643 9.4783 41.043 8.9569Z" fill="white" fill-opacity="0.5"/>
<path d="M24.9997 2.22241C24.262 2.22241 23.665 2.81935 23.665 3.55705V8.98457C23.665 9.72226 24.262 10.3192 24.9997 10.3192C25.7374 10.3192 26.3343 9.72226 26.3343 8.98457V3.55705C26.3343 2.81935 25.7374 2.22241 24.9997 2.22241Z" fill="#2B76CD"/>
<path d="M24.9997 2.22241C24.262 2.22241 23.665 2.81935 23.665 3.55705V8.98457C23.665 9.72226 24.262 10.3192 24.9997 10.3192C25.7374 10.3192 26.3343 9.72226 26.3343 8.98457V3.55705C26.3343 2.81935 25.7374 2.22241 24.9997 2.22241Z" fill="white" fill-opacity="0.5"/>
<path d="M32.4734 15.5777C29.564 13.2821 25.8003 12.4548 22.1167 13.3356C17.8458 14.3232 14.4026 17.7131 13.3615 21.9574C12.3204 26.2281 13.5216 30.5523 16.5912 33.5686C17.6857 34.6631 18.3263 36.3802 18.3263 38.142V38.4357C18.3263 39.183 18.9134 39.7703 19.6609 39.7703H30.338C31.0855 39.7703 31.6727 39.183 31.6727 38.4357V38.142C31.6727 36.4069 32.34 34.6363 33.5145 33.4885C35.7567 31.2196 37.0112 28.2035 37.0112 25.0003C37.0112 21.3167 35.3562 17.8733 32.4734 15.5777ZM24.9995 20.9964C22.986 20.9964 21.5202 22.332 21.1363 23.8782C20.9617 24.5813 20.2541 25.0301 19.5188 24.8531C18.8046 24.6758 18.3679 23.9511 18.5453 23.2369C19.2065 20.5676 21.7137 18.3272 24.9995 18.3272C25.7372 18.3272 26.3341 18.9241 26.3341 19.6618C26.3341 20.3995 25.7372 20.9964 24.9995 20.9964Z" fill="white"/>
<path d="M19.6611 42.4395V43.7741C19.6611 45.9819 21.4572 47.778 23.665 47.778H26.3343C28.5422 47.778 30.3382 45.9819 30.3382 43.7741V42.4395H19.6611Z" fill="white"/>
</svg>
