<svg width="18" height="18" viewBox="0 0 18 18" fill="none" xmlns="http://www.w3.org/2000/svg">
<g clip-path="url(#clip0_253_29668)">
<path d="M9 9H9.00375M12.75 9H12.7538M5.25 9H5.25375M3.9 5.25H14.1C14.9401 5.25 15.3601 5.25 15.681 5.41349C15.9632 5.5573 16.1927 5.78677 16.3365 6.06901C16.5 6.38988 16.5 6.80992 16.5 7.65V10.35C16.5 11.1901 16.5 11.6101 16.3365 11.931C16.1927 12.2132 15.9632 12.4427 15.681 12.5865C15.3601 12.75 14.9401 12.75 14.1 12.75H3.9C3.05992 12.75 2.63988 12.75 2.31901 12.5865C2.03677 12.4427 1.8073 12.2132 1.66349 11.931C1.5 11.6101 1.5 11.1901 1.5 10.35V7.65C1.5 6.80992 1.5 6.38988 1.66349 6.06901C1.8073 5.78677 2.03677 5.5573 2.31901 5.41349C2.63988 5.25 3.05992 5.25 3.9 5.25ZM9.1875 9C9.1875 9.10355 9.10355 9.1875 9 9.1875C8.89645 9.1875 8.8125 9.10355 8.8125 9C8.8125 8.89645 8.89645 8.8125 9 8.8125C9.10355 8.8125 9.1875 8.89645 9.1875 9ZM12.9375 9C12.9375 9.10355 12.8536 9.1875 12.75 9.1875C12.6464 9.1875 12.5625 9.10355 12.5625 9C12.5625 8.89645 12.6464 8.8125 12.75 8.8125C12.8536 8.8125 12.9375 8.89645 12.9375 9ZM5.4375 9C5.4375 9.10355 5.35355 9.1875 5.25 9.1875C5.14645 9.1875 5.0625 9.10355 5.0625 9C5.0625 8.89645 5.14645 8.8125 5.25 8.8125C5.35355 8.8125 5.4375 8.89645 5.4375 9Z" stroke="#667085" stroke-width="1.67" stroke-linecap="round" stroke-linejoin="round"/>
</g>
<defs>
<clipPath id="clip0_253_29668">
<rect width="18" height="18" fill="white"/>
</clipPath>
</defs>
</svg>
