<svg width="18" height="18" viewBox="0 0 18 18" fill="none" xmlns="http://www.w3.org/2000/svg">
<path d="M15.75 13.5002L14.9999 14.3207C14.6021 14.7558 14.0626 15.0002 13.5001 15.0002C12.9376 15.0002 12.3981 14.7558 12.0003 14.3207C11.6019 13.8865 11.0625 13.6427 10.5001 13.6427C9.93778 13.6427 9.39835 13.8865 8.99998 14.3207M2.25 15.0002H3.50591C3.87279 15.0002 4.05624 15.0002 4.22887 14.9587C4.38192 14.922 4.52824 14.8614 4.66245 14.7791C4.81382 14.6864 4.94354 14.5567 5.20296 14.2972L14.625 4.87517C15.2463 4.25385 15.2463 3.24649 14.625 2.62517C14.0037 2.00385 12.9963 2.00385 12.375 2.62517L2.95295 12.0472C2.69352 12.3067 2.5638 12.4364 2.47104 12.5877C2.3888 12.722 2.32819 12.8683 2.29145 13.0213C2.25 13.194 2.25 13.3774 2.25 13.7443V15.0002Z" stroke="#667085" stroke-width="1.67" stroke-linecap="round" stroke-linejoin="round"/>
</svg>
