<svg width="129" height="18" viewBox="0 0 129 18" fill="none" xmlns="http://www.w3.org/2000/svg">
<path d="M17.1962 3.81987C18.1496 2.10961 18.6263 1.25448 19.339 1.25448C20.0517 1.25448 20.5283 2.10961 21.4817 3.81987L21.7283 4.26234C21.9992 4.74834 22.1347 4.99134 22.3459 5.15168C22.5571 5.31201 22.8202 5.37153 23.3463 5.49056L23.8252 5.59893C25.6766 6.01781 26.6023 6.22725 26.8224 6.93547C27.0427 7.64364 26.4117 8.38164 25.1495 9.85744L24.823 10.2393C24.4643 10.6587 24.285 10.8684 24.2044 11.1279C24.1236 11.3872 24.1507 11.6671 24.205 12.2266L24.2543 12.736C24.4452 14.7052 24.5406 15.6898 23.964 16.1275C23.3874 16.5652 22.5207 16.1661 20.7873 15.3679L20.3389 15.1615C19.8463 14.9347 19.6001 14.8213 19.339 14.8213C19.0779 14.8213 18.8316 14.9347 18.3391 15.1615L17.8906 15.3679C16.1571 16.1661 15.2905 16.5652 14.7139 16.1275C14.1373 15.6898 14.2327 14.7052 14.4235 12.736L14.4729 12.2266C14.5271 11.6671 14.5542 11.3872 14.4736 11.1279C14.3929 10.8684 14.2136 10.6587 13.8549 10.2393L13.5284 9.85744C12.2663 8.38164 11.6352 7.64364 11.8554 6.93547C12.0757 6.22725 13.0013 6.01781 14.8527 5.59893L15.3316 5.49056C15.8577 5.37153 16.1207 5.31201 16.332 5.15168C16.5432 4.99134 16.6787 4.74834 16.9495 4.26234L17.1962 3.81987Z" fill="#2B76CD"/>
<path d="M39.7764 3.81987C40.7298 2.10961 41.2065 1.25448 41.9192 1.25448C42.6319 1.25448 43.1085 2.10961 44.0619 3.81987L44.3086 4.26234C44.5794 4.74834 44.7149 4.99134 44.9261 5.15168C45.1373 5.31201 45.4004 5.37153 45.9265 5.49056L46.4054 5.59893C48.2568 6.01781 49.1825 6.22725 49.4027 6.93547C49.6229 7.64364 48.9919 8.38164 47.7297 9.85744L47.4032 10.2393C47.0445 10.6587 46.8652 10.8684 46.7846 11.1279C46.7038 11.3872 46.7309 11.6671 46.7852 12.2266L46.8345 12.736C47.0254 14.7052 47.1208 15.6898 46.5442 16.1275C45.9676 16.5652 45.1009 16.1661 43.3675 15.3679L42.9191 15.1615C42.4265 14.9347 42.1803 14.8213 41.9192 14.8213C41.6581 14.8213 41.4118 14.9347 40.9193 15.1615L40.4708 15.3679C38.7373 16.1661 37.8707 16.5652 37.2941 16.1275C36.7175 15.6898 36.8129 14.7052 37.0037 12.736L37.0531 12.2266C37.1073 11.6671 37.1344 11.3872 37.0538 11.1279C36.9731 10.8684 36.7938 10.6587 36.4351 10.2393L36.1086 9.85744C34.8465 8.38164 34.2154 7.64364 34.4356 6.93547C34.6559 6.22725 35.5815 6.01781 37.4329 5.59893L37.9118 5.49056C38.4379 5.37153 38.7009 5.31201 38.9122 5.15168C39.1234 4.99134 39.2589 4.74834 39.5297 4.26234L39.7764 3.81987Z" fill="#2B76CD"/>
<path d="M62.3566 3.81987C63.31 2.10961 63.7867 1.25448 64.4994 1.25448C65.2121 1.25448 65.6887 2.10961 66.6421 3.81987L66.8888 4.26234C67.1596 4.74834 67.2951 4.99134 67.5063 5.15168C67.7175 5.31201 67.9806 5.37153 68.5067 5.49056L68.9856 5.59893C70.837 6.01781 71.7627 6.22725 71.9829 6.93547C72.2031 7.64364 71.5721 8.38164 70.3099 9.85744L69.9834 10.2393C69.6247 10.6587 69.4454 10.8684 69.3648 11.1279C69.284 11.3872 69.3111 11.6671 69.3654 12.2266L69.4147 12.736C69.6056 14.7052 69.701 15.6898 69.1244 16.1275C68.5478 16.5652 67.6811 16.1661 65.9477 15.3679L65.4993 15.1615C65.0067 14.9347 64.7605 14.8213 64.4994 14.8213C64.2383 14.8213 63.992 14.9347 63.4995 15.1615L63.051 15.3679C61.3176 16.1661 60.4509 16.5652 59.8743 16.1275C59.2977 15.6898 59.3931 14.7052 59.5839 12.736L59.6333 12.2266C59.6875 11.6671 59.7146 11.3872 59.634 11.1279C59.5533 10.8684 59.374 10.6587 59.0153 10.2393L58.6888 9.85744C57.4267 8.38164 56.7956 7.64364 57.0158 6.93547C57.2361 6.22725 58.1617 6.01781 60.0131 5.59893L60.492 5.49056C61.0181 5.37153 61.2811 5.31201 61.4924 5.15168C61.7036 4.99134 61.8391 4.74834 62.1099 4.26234L62.3566 3.81987Z" fill="#2B76CD"/>
<path d="M84.9368 3.81987C85.8902 2.10961 86.3669 1.25448 87.0796 1.25448C87.7923 1.25448 88.2689 2.10961 89.2223 3.81987L89.469 4.26234C89.7398 4.74834 89.8753 4.99134 90.0865 5.15168C90.2977 5.31201 90.5608 5.37153 91.0869 5.49056L91.5658 5.59893C93.4172 6.01781 94.3429 6.22725 94.5631 6.93547C94.7833 7.64364 94.1523 8.38164 92.8901 9.85744L92.5636 10.2393C92.2049 10.6587 92.0256 10.8684 91.945 11.1279C91.8642 11.3872 91.8913 11.6671 91.9456 12.2266L91.9949 12.736C92.1858 14.7052 92.2812 15.6898 91.7046 16.1275C91.128 16.5652 90.2613 16.1661 88.5279 15.3679L88.0795 15.1615C87.5869 14.9347 87.3407 14.8213 87.0796 14.8213C86.8185 14.8213 86.5722 14.9347 86.0797 15.1615L85.6312 15.3679C83.8978 16.1661 83.0311 16.5652 82.4545 16.1275C81.8779 15.6898 81.9733 14.7052 82.1641 12.736L82.2135 12.2266C82.2677 11.6671 82.2948 11.3872 82.2142 11.1279C82.1335 10.8684 81.9542 10.6587 81.5955 10.2393L81.269 9.85744C80.0069 8.38164 79.3758 7.64364 79.596 6.93547C79.8163 6.22725 80.7419 6.01781 82.5933 5.59893L83.0722 5.49056C83.5983 5.37153 83.8613 5.31201 84.0726 5.15168C84.2838 4.99134 84.4193 4.74834 84.6901 4.26234L84.9368 3.81987Z" fill="#2B76CD"/>
<path d="M107.517 3.81987C108.47 2.10961 108.947 1.25448 109.66 1.25448C110.372 1.25448 110.849 2.10961 111.802 3.81987L112.049 4.26234C112.32 4.74834 112.456 4.99134 112.667 5.15168C112.878 5.31201 113.141 5.37153 113.667 5.49056L114.146 5.59893C115.997 6.01781 116.923 6.22725 117.143 6.93547C117.364 7.64364 116.732 8.38164 115.47 9.85744L115.144 10.2393C114.785 10.6587 114.606 10.8684 114.525 11.1279C114.444 11.3872 114.472 11.6671 114.526 12.2266L114.575 12.736C114.766 14.7052 114.861 15.6898 114.285 16.1275C113.708 16.5652 112.842 16.1661 111.108 15.3679L110.66 15.1615C110.167 14.9347 109.921 14.8213 109.66 14.8213C109.399 14.8213 109.152 14.9347 108.66 15.1615L108.211 15.3679C106.478 16.1661 105.611 16.5652 105.035 16.1275C104.458 15.6898 104.554 14.7052 104.744 12.736L104.794 12.2266C104.848 11.6671 104.875 11.3872 104.794 11.1279C104.714 10.8684 104.534 10.6587 104.176 10.2393L103.849 9.85744C102.587 8.38164 101.956 7.64364 102.176 6.93547C102.396 6.22725 103.322 6.01781 105.173 5.59893L105.652 5.49056C106.178 5.37153 106.442 5.31201 106.653 5.15168C106.864 4.99134 106.999 4.74834 107.27 4.26234L107.517 3.81987Z" fill="#2B76CD"/>
<path d="M107.517 3.81987C108.47 2.10961 108.947 1.25448 109.66 1.25448C110.372 1.25448 110.849 2.10961 111.802 3.81987L112.049 4.26234C112.32 4.74834 112.456 4.99134 112.667 5.15168C112.878 5.31201 113.141 5.37153 113.667 5.49056L114.146 5.59893C115.997 6.01781 116.923 6.22725 117.143 6.93547C117.364 7.64364 116.732 8.38164 115.47 9.85744L115.144 10.2393C114.785 10.6587 114.606 10.8684 114.525 11.1279C114.444 11.3872 114.472 11.6671 114.526 12.2266L114.575 12.736C114.766 14.7052 114.861 15.6898 114.285 16.1275C113.708 16.5652 112.842 16.1661 111.108 15.3679L110.66 15.1615C110.167 14.9347 109.921 14.8213 109.66 14.8213C109.399 14.8213 109.152 14.9347 108.66 15.1615L108.211 15.3679C106.478 16.1661 105.611 16.5652 105.035 16.1275C104.458 15.6898 104.554 14.7052 104.744 12.736L104.794 12.2266C104.848 11.6671 104.875 11.3872 104.794 11.1279C104.714 10.8684 104.534 10.6587 104.176 10.2393L103.849 9.85744C102.587 8.38164 101.956 7.64364 102.176 6.93547C102.396 6.22725 103.322 6.01781 105.173 5.59893L105.652 5.49056C106.178 5.37153 106.442 5.31201 106.653 5.15168C106.864 4.99134 106.999 4.74834 107.27 4.26234L107.517 3.81987Z" fill="white" fill-opacity="0.7"/>
</svg>
