<svg width="18" height="18" viewBox="0 0 18 18" fill="none" xmlns="http://www.w3.org/2000/svg">
<path d="M13.125 13.125H4.875M5.85 15.75H12.15C13.4101 15.75 14.0402 15.75 14.5215 15.5048C14.9448 15.2891 15.289 14.9448 15.5048 14.5215C15.75 14.0402 15.75 13.4101 15.75 12.15V5.85C15.75 4.5899 15.75 3.9598 15.5048 3.4785C15.289 3.0552 14.9448 2.711 14.5215 2.4952C14.0402 2.25 13.4101 2.25 12.15 2.25H5.85C4.58988 2.25 3.95982 2.25 3.47852 2.4952C3.05516 2.711 2.71095 3.0552 2.49524 3.4785C2.25 3.9598 2.25 4.5899 2.25 5.85V12.15C2.25 13.4101 2.25 14.0402 2.49524 14.5215C2.71095 14.9448 3.05516 15.2891 3.47852 15.5048C3.95982 15.75 4.58988 15.75 5.85 15.75Z" stroke="#667085" stroke-width="1.67" stroke-linecap="round" stroke-linejoin="round"/>
</svg>
