<svg width="45" height="45" viewBox="0 0 45 45" fill="none" xmlns="http://www.w3.org/2000/svg">
<path fill-rule="evenodd" clip-rule="evenodd" d="M28.7427 36.1506C27.756 36.5181 26.6724 36.5323 25.6764 36.1909L28.5666 43L31.2442 37.4113L37.1243 39.3674L33.3684 30.5188C32.9864 30.61 32.6384 30.8084 32.3652 31.0905C32.092 31.3726 31.9049 31.7268 31.8259 32.1115L31.6729 32.8053C31.5131 33.5677 31.1596 34.2761 30.6463 34.862C30.1331 35.448 29.4774 35.8918 28.7427 36.1506ZM11.6315 30.5188L7.87515 39.3674L13.7554 37.4113L16.4335 43L19.3237 36.191C18.7082 36.3979 18.056 36.4731 17.4095 36.4116C16.763 36.35 16.1367 36.1533 15.5713 35.834C15.0058 35.5147 14.5138 35.0801 14.1272 34.5583C13.7406 34.0365 13.4681 33.4393 13.3273 32.8053L13.1744 32.1115C13.0953 31.7268 12.9082 31.3726 12.6349 31.0904C12.3617 30.8083 12.0135 30.61 11.6315 30.5188ZM22.4999 9.28176C20.6585 9.28176 18.8584 9.82779 17.3274 10.8508C15.7963 11.8738 14.603 13.3278 13.8983 15.029C13.1936 16.7302 13.0092 18.6022 13.3685 20.4082C13.7277 22.2142 14.6143 23.8731 15.9164 25.1752C17.2184 26.4773 18.8773 27.3641 20.6833 27.7233C22.4892 28.0826 24.3612 27.8983 26.0625 27.1937C27.7637 26.4891 29.2178 25.2958 30.2409 23.7648C31.2639 22.2338 31.81 20.4338 31.8101 18.5924C31.8102 17.3698 31.5694 16.1591 31.1015 15.0294C30.6337 13.8998 29.9479 12.8734 29.0834 12.0088C28.2188 11.1442 27.1924 10.4584 26.0628 9.9905C24.9332 9.52259 23.7225 9.28176 22.4999 9.28176ZM27.9587 16.2974L22.4446 22.7299C22.3134 22.8991 22.1467 23.0374 21.9562 23.1352C21.7658 23.233 21.5562 23.2879 21.3422 23.2959C21.1283 23.3039 20.9152 23.2649 20.7179 23.1817C20.5207 23.0985 20.344 22.973 20.2005 22.8142L17.0638 19.3204C16.9354 19.1777 16.8363 19.0111 16.7723 18.8301C16.7082 18.649 16.6804 18.4572 16.6905 18.2654C16.7006 18.0737 16.7484 17.8858 16.8311 17.7125C16.9138 17.5393 17.0298 17.384 17.1725 17.2555C17.3153 17.1271 17.4819 17.028 17.6629 16.9639C17.8439 16.8999 18.0357 16.8721 18.2275 16.8822C18.4192 16.8923 18.6071 16.9401 18.7804 17.0228C18.9537 17.1055 19.109 17.2215 19.2374 17.3642L21.2633 19.6203L25.7394 14.3983C25.8642 14.2526 26.0164 14.1329 26.1873 14.046C26.3583 13.9591 26.5448 13.9067 26.736 13.8918C26.9272 13.877 27.1195 13.8999 27.3018 13.9594C27.4842 14.0189 27.6531 14.1137 27.7988 14.2384C27.9445 14.3631 28.0642 14.5153 28.1511 14.6863C28.238 14.8573 28.2904 15.0437 28.3052 15.2349C28.3201 15.4261 28.2971 15.6184 28.2377 15.8008C28.1782 15.9831 28.0834 16.1517 27.9587 16.2974ZM39.2397 16.0464C39.1492 15.486 38.9147 14.9587 38.5591 14.5161C38.2035 14.0736 37.739 13.7309 37.2112 13.5218L36.5546 13.2508C35.8653 12.973 35.2888 12.4724 34.9173 11.8287C34.5457 11.1851 34.4004 10.4356 34.5046 9.69971L34.5982 8.99526C34.6727 8.43411 34.6044 7.86323 34.3995 7.33554C34.1946 6.80784 33.8598 6.34041 33.4261 5.97657C32.9925 5.61274 32.474 5.36427 31.9187 5.2542C31.3634 5.14413 30.7894 5.17603 30.2497 5.34693L29.5719 5.56138C28.8653 5.7917 28.1019 5.77871 27.4036 5.52448C26.7052 5.27026 26.1121 4.78944 25.7189 4.15877L25.3381 3.55933C25.0345 3.08149 24.6152 2.68803 24.1191 2.41542C23.6229 2.14281 23.066 1.99988 22.4999 1.99988C21.9338 1.99988 21.3769 2.14281 20.8807 2.41542C20.3846 2.68803 19.9653 3.08149 19.6617 3.55933L19.2809 4.15877C18.8876 4.78947 18.2945 5.27029 17.596 5.52449C16.8976 5.77869 16.1342 5.79162 15.4275 5.56122L14.7502 5.34693C14.2105 5.17604 13.6364 5.14417 13.0811 5.25426C12.5259 5.36436 12.0074 5.61287 11.5737 5.97674C11.1401 6.34062 10.8053 6.80809 10.6005 7.33582C10.3956 7.86354 10.3273 8.43444 10.4019 8.9956L10.4956 9.69988C10.5998 10.4357 10.4545 11.1853 10.0829 11.829C9.71134 12.4726 9.1349 12.9733 8.44555 13.2511L7.7888 13.5222C7.26552 13.7381 6.80523 14.0827 6.45059 14.5239C6.09595 14.9651 5.85845 15.4887 5.76011 16.0462C5.66177 16.6037 5.70577 17.177 5.88802 17.7129C6.07028 18.2489 6.3849 18.7301 6.80271 19.1121L7.32717 19.5915C7.87999 20.0882 8.25049 20.7558 8.37956 21.4878C8.50862 22.2197 8.38881 22.9737 8.03924 23.6296L7.71048 24.2592C7.44845 24.761 7.31736 25.3209 7.32934 25.8869C7.34133 26.4528 7.49602 27.0066 7.77906 27.4969C8.0621 27.9872 8.46434 28.398 8.94848 28.6914C9.43263 28.9848 9.98301 29.1512 10.5486 29.1752L11.2584 29.2053C12.0012 29.2305 12.7141 29.5038 13.2835 29.9815C13.8528 30.4592 14.2457 31.1139 14.3996 31.841L14.5525 32.5348C14.6744 33.0876 14.9338 33.6007 15.3068 34.0265C15.6798 34.4524 16.1543 34.7771 16.6862 34.9707C17.2182 35.1643 17.7904 35.2205 18.3498 35.134C18.9093 35.0475 19.4378 34.8212 19.8865 34.476L20.4496 34.0428C21.0348 33.5846 21.7566 33.3356 22.4999 33.3356C23.2431 33.3356 23.9649 33.5846 24.5501 34.0428L25.1132 34.476C25.5619 34.8212 26.0905 35.0475 26.6499 35.1339C27.2093 35.2204 27.7815 35.1642 28.3135 34.9707C28.8454 34.7771 29.3199 34.4523 29.6929 34.0265C30.0659 33.6007 30.3254 33.0876 30.4472 32.5348L30.6003 31.841C30.7541 31.1138 31.147 30.4591 31.7163 29.9814C32.2857 29.5037 32.9987 29.2304 33.7415 29.2053L34.451 29.1751C35.0166 29.1512 35.567 28.9848 36.0512 28.6914C36.5353 28.3981 36.9376 27.9872 37.2206 27.497C37.5037 27.0067 37.6584 26.4529 37.6704 25.8869C37.6824 25.321 37.5513 24.7611 37.2893 24.2593L36.9606 23.6295C36.611 22.9736 36.4911 22.2196 36.6202 21.4876C36.7492 20.7557 37.1197 20.0881 37.6725 19.5913L38.1969 19.1119C38.6213 18.735 38.9406 18.2543 39.1234 17.7169C39.3062 17.1795 39.3463 16.604 39.2397 16.0464ZM22.4999 29.1574C20.4102 29.1574 18.3675 28.5377 16.63 27.3768C14.8925 26.2158 13.5383 24.5657 12.7387 22.6351C11.939 20.7045 11.7298 18.5802 12.1375 16.5307C12.5452 14.4812 13.5515 12.5986 15.0292 11.121C16.5068 9.64346 18.3894 8.63724 20.4389 8.22962C22.4884 7.822 24.6128 8.03129 26.5433 8.83102C28.4739 9.63075 30.124 10.985 31.2848 12.7225C32.4457 14.46 33.0653 16.5028 33.0652 18.5924C33.065 21.3945 31.9518 24.0816 29.9705 26.0629C27.9891 28.0442 25.3019 29.1573 22.4999 29.1574Z" fill="#2B76CD"/>
<path fill-rule="evenodd" clip-rule="evenodd" d="M28.7426 36.1505C27.7558 36.518 26.6723 36.5322 25.6762 36.1908L28.5665 42.9999L31.244 37.4112L37.1242 39.3673L33.3682 30.5187C32.9863 30.61 32.6383 30.8083 32.365 31.0904C32.0918 31.3725 31.9048 31.7267 31.8258 32.1114L31.6727 32.8052C31.513 33.5676 31.1594 34.276 30.6462 34.8619C30.1329 35.4479 29.4773 35.8917 28.7426 36.1505ZM11.6314 30.5187L7.875 39.3673L13.7552 37.4112L16.4334 42.9999L19.3235 36.1909C18.708 36.3978 18.0558 36.473 17.4094 36.4115C16.7629 36.35 16.1366 36.1532 15.5711 35.8339C15.0056 35.5146 14.5136 35.08 14.127 34.5582C13.7405 34.0364 13.4679 33.4392 13.3272 32.8052L13.1742 32.1114C13.0952 31.7267 12.908 31.3725 12.6348 31.0904C12.3615 30.8082 12.0134 30.6099 11.6314 30.5187Z" fill="#2B76CD"/>
<path fill-rule="evenodd" clip-rule="evenodd" d="M28.7426 36.1505C27.7558 36.518 26.6723 36.5322 25.6762 36.1908L28.5665 42.9999L31.244 37.4112L37.1242 39.3673L33.3682 30.5187C32.9863 30.61 32.6383 30.8083 32.365 31.0904C32.0918 31.3725 31.9048 31.7267 31.8258 32.1114L31.6727 32.8052C31.513 33.5676 31.1594 34.276 30.6462 34.8619C30.1329 35.4479 29.4773 35.8917 28.7426 36.1505ZM11.6314 30.5187L7.875 39.3673L13.7552 37.4112L16.4334 42.9999L19.3235 36.1909C18.708 36.3978 18.0558 36.473 17.4094 36.4115C16.7629 36.35 16.1366 36.1532 15.5711 35.8339C15.0056 35.5146 14.5136 35.08 14.127 34.5582C13.7405 34.0364 13.4679 33.4392 13.3272 32.8052L13.1742 32.1114C13.0952 31.7267 12.908 31.3725 12.6348 31.0904C12.3615 30.8082 12.0134 30.6099 11.6314 30.5187Z" fill="black" fill-opacity="0.5"/>
</svg>
