<svg width="38" height="38" viewBox="0 0 38 38" fill="none" xmlns="http://www.w3.org/2000/svg">
<path d="M24.7497 20.9695C23.6503 19.9723 22.2268 19.4215 20.7518 19.4226H17.1072C15.6312 19.421 14.2069 19.974 13.1094 20.9749L13.0965 20.9874L13.0847 20.9993C12.465 21.5677 11.9698 22.2616 11.6311 23.0361C11.2924 23.8107 11.1178 24.6488 11.1185 25.4961V29.0131C11.1185 29.1571 11.1749 29.2951 11.2752 29.3969C11.3756 29.4987 11.5117 29.5559 11.6537 29.5559H26.2054C26.3473 29.5559 26.4834 29.4987 26.5838 29.3969C26.6842 29.2951 26.7406 29.1571 26.7406 29.0131V25.4961C26.7417 24.6419 26.5649 23.7972 26.2218 23.0171C25.8788 22.2371 25.3771 21.5393 24.7497 20.9695Z" fill="white"/>
<path d="M12.2616 20.1992C12.6833 19.8152 13.15 19.4849 13.6513 19.2156C13.3657 18.2976 12.7977 17.4954 12.0299 16.9252C11.2621 16.355 10.3343 16.0465 9.38104 16.0445H6.73473C5.54625 16.0463 4.40697 16.5237 3.56659 17.372C2.7262 18.2203 2.25327 19.3704 2.25144 20.57V23.1069C2.25144 23.2495 2.30754 23.3862 2.40739 23.487C2.50725 23.5878 2.64268 23.6444 2.7839 23.6444H10.1691C10.2774 23.2185 10.4272 22.8044 10.6163 22.4082C11.0142 21.569 11.5735 20.8181 12.2616 20.1992Z" fill="#2B76CD"/>
<path d="M12.2616 20.1992C12.6833 19.8152 13.15 19.4849 13.6513 19.2156C13.3657 18.2976 12.7977 17.4954 12.0299 16.9252C11.2621 16.355 10.3343 16.0465 9.38104 16.0445H6.73473C5.54625 16.0463 4.40697 16.5237 3.56659 17.372C2.7262 18.2203 2.25327 19.3704 2.25144 20.57V23.1069C2.25144 23.2495 2.30754 23.3862 2.40739 23.487C2.50725 23.5878 2.64268 23.6444 2.7839 23.6444H10.1691C10.2774 23.2185 10.4272 22.8044 10.6163 22.4082C11.0142 21.569 11.5735 20.8181 12.2616 20.1992Z" fill="white" fill-opacity="0.5"/>
<path d="M31.1268 16.0445H28.4793C27.5256 16.0465 26.5974 16.355 25.8292 16.9252C25.061 17.4954 24.4928 18.2976 24.207 19.2156C24.7064 19.4862 25.173 19.8145 25.5973 20.1938C26.2842 20.8142 26.8435 21.5648 27.2434 22.4028C27.4326 22.8009 27.5825 23.2167 27.6908 23.6444H35.0741C35.2154 23.6444 35.3509 23.5878 35.4508 23.487C35.5507 23.3862 35.6069 23.2495 35.6069 23.1069V20.57C35.6061 19.3709 35.1341 18.2211 34.2942 17.3727C33.4544 16.5243 32.3153 16.0466 31.1268 16.0445Z" fill="#2B76CD"/>
<path d="M31.1268 16.0445H28.4793C27.5256 16.0465 26.5974 16.355 25.8292 16.9252C25.061 17.4954 24.4928 18.2976 24.207 19.2156C24.7064 19.4862 25.173 19.8145 25.5973 20.1938C26.2842 20.8142 26.8435 21.5648 27.2434 22.4028C27.4326 22.8009 27.5825 23.2167 27.6908 23.6444H35.0741C35.2154 23.6444 35.3509 23.5878 35.4508 23.487C35.5507 23.3862 35.6069 23.2495 35.6069 23.1069V20.57C35.6061 19.3709 35.1341 18.2211 34.2942 17.3727C33.4544 16.5243 32.3153 16.0466 31.1268 16.0445Z" fill="white" fill-opacity="0.5"/>
<path d="M8.1657 15.6226C8.83376 15.622 9.48665 15.411 10.0418 15.0162C10.597 14.6214 11.0295 14.0605 11.2847 13.4045C11.5399 12.7485 11.6062 12.0269 11.4754 11.3308C11.3445 10.6348 11.0224 9.99557 10.5496 9.49405C10.0768 8.99253 9.47474 8.65123 8.81942 8.5133C8.1641 8.37537 7.485 8.447 6.868 8.71915C6.25099 8.9913 5.7238 9.45173 5.35309 10.0422C4.98237 10.6327 4.78478 11.3267 4.7853 12.0366C4.78671 12.9882 5.14347 13.9003 5.77727 14.5726C6.41107 15.245 7.27008 15.6226 8.1657 15.6226Z" fill="#2B76CD"/>
<path d="M8.1657 15.6226C8.83376 15.622 9.48665 15.411 10.0418 15.0162C10.597 14.6214 11.0295 14.0605 11.2847 13.4045C11.5399 12.7485 11.6062 12.0269 11.4754 11.3308C11.3445 10.6348 11.0224 9.99557 10.5496 9.49405C10.0768 8.99253 9.47474 8.65123 8.81942 8.5133C8.1641 8.37537 7.485 8.447 6.868 8.71915C6.25099 8.9913 5.7238 9.45173 5.35309 10.0422C4.98237 10.6327 4.78478 11.3267 4.7853 12.0366C4.78671 12.9882 5.14347 13.9003 5.77727 14.5726C6.41107 15.245 7.27008 15.6226 8.1657 15.6226Z" fill="white" fill-opacity="0.5"/>
<path d="M29.6938 15.6226C30.362 15.6232 31.0155 15.4131 31.5713 15.0189C32.1272 14.6248 32.5606 14.0643 32.8165 13.4084C33.0725 12.7525 33.1396 12.0307 33.0094 11.3343C32.8791 10.6379 32.5574 9.99812 32.0848 9.49604C31.6123 8.99396 31.0102 8.6521 30.3547 8.51371C29.6993 8.37532 29.0199 8.44663 28.4026 8.71861C27.7853 8.99059 27.2578 9.45102 26.8868 10.0416C26.5159 10.6323 26.3181 11.3265 26.3187 12.0366C26.3204 12.9871 26.6765 13.8982 27.3091 14.5703C27.9417 15.2424 28.7992 15.6208 29.6938 15.6226Z" fill="#2B76CD"/>
<path d="M29.6938 15.6226C30.362 15.6232 31.0155 15.4131 31.5713 15.0189C32.1272 14.6248 32.5606 14.0643 32.8165 13.4084C33.0725 12.7525 33.1396 12.0307 33.0094 11.3343C32.8791 10.6379 32.5574 9.99812 32.0848 9.49604C31.6123 8.99396 31.0102 8.6521 30.3547 8.51371C29.6993 8.37532 29.0199 8.44663 28.4026 8.71861C27.7853 8.99059 27.2578 9.45102 26.8868 10.0416C26.5159 10.6323 26.3181 11.3265 26.3187 12.0366C26.3204 12.9871 26.6765 13.8982 27.3091 14.5703C27.9417 15.2424 28.7992 15.6208 29.6938 15.6226Z" fill="white" fill-opacity="0.5"/>
<path d="M18.9273 18.1558C19.8043 18.1563 20.6618 17.8967 21.3913 17.4097C22.1207 16.9228 22.6894 16.2304 23.0252 15.4202C23.3611 14.6101 23.4491 13.7184 23.2782 12.8582C23.1072 11.998 22.6849 11.2078 22.0647 10.5877C21.4446 9.96749 20.6544 9.54521 19.7942 9.37423C18.9339 9.20326 18.0423 9.29127 17.2321 9.62715C16.422 9.96302 15.7296 10.5317 15.2427 11.2611C14.7557 11.9906 14.4961 12.8481 14.4966 13.7251C14.4984 14.8996 14.9658 16.0255 15.7963 16.856C16.6269 17.6866 17.7528 18.1539 18.9273 18.1558Z" fill="white"/>
</svg>
