<svg width="45" height="45" viewBox="0 0 45 45" fill="none" xmlns="http://www.w3.org/2000/svg">
<path d="M31.1 5.36571C31.0236 5.8729 30.6971 6.41465 30.0997 6.90098C28.1407 8.48486 27.4876 9.79084 27.321 10.2007C27.2862 10.291 27.2724 10.3396 27.2724 10.3396H17.7274C17.7274 10.3396 17.7135 10.291 17.6788 10.2007C17.5121 9.79084 16.8591 8.48486 14.9001 6.90098C14.8793 6.88711 14.8654 6.87315 14.8515 6.85928C12.6424 5.01138 14.4 2.51756 17.7275 3.44836C17.8872 3.49007 18.0331 3.52479 18.1651 3.54565C19.9504 3.80967 19.485 1.96875 22.4999 1.96875C25.7441 1.96875 24.9591 4.09446 27.2724 3.44844C27.9115 3.26783 28.488 3.21923 28.9952 3.26094C30.447 3.39286 31.2806 4.31677 31.1 5.36571Z" fill="#2B76CD"/>
<path d="M31.1 5.36571C31.0236 5.8729 30.6971 6.41465 30.0997 6.90098C28.1407 8.48486 27.4876 9.79084 27.321 10.2007C27.2862 10.291 27.2724 10.3396 27.2724 10.3396H17.7274C17.7274 10.3396 17.7135 10.291 17.6788 10.2007C17.5121 9.79084 16.8591 8.48486 14.9001 6.90098C14.8793 6.88711 14.8654 6.87315 14.8515 6.85928C12.6424 5.01138 14.4 2.51756 17.7275 3.44836C17.8872 3.49007 18.0331 3.52479 18.1651 3.54565C19.9504 3.80967 19.485 1.96875 22.4999 1.96875C25.7441 1.96875 24.9591 4.09446 27.2724 3.44844C27.9115 3.26783 28.488 3.21923 28.9952 3.26094C30.447 3.39286 31.2806 4.31677 31.1 5.36571Z" fill="black" fill-opacity="0.5"/>
<path d="M37.5043 28.0262C37.5043 36.3137 30.7868 43.0313 22.4993 43.0313C20.3458 43.0313 18.2965 42.5798 16.4486 41.7531C13.0308 40.2526 10.2799 37.5016 8.77237 34.0838C7.95265 32.229 7.49414 30.1798 7.49414 28.0262C7.49414 20.2111 15.0453 14.2438 17.3655 12.1251C17.5044 12.007 17.6295 11.8889 17.7267 11.7916H27.2716C27.3689 11.8889 27.4939 12.007 27.6328 12.1251C29.9532 14.2438 37.5043 20.211 37.5043 28.0262Z" fill="#2B76CD"/>
<path d="M29.8729 11.2458C29.8729 11.7886 29.4876 12.2327 28.9709 12.3644C28.8659 12.3972 28.752 12.4138 28.6381 12.4138H16.3598C16.246 12.4138 16.1321 12.3973 16.027 12.3644C15.5103 12.2328 15.125 11.7887 15.125 11.2458C15.125 10.6043 15.6767 10.0862 16.3598 10.0862H28.6381C29.3212 10.0862 29.8729 10.6043 29.8729 11.2458Z" fill="white"/>
<path d="M28.8553 32.5771C28.5012 33.1818 28.011 33.6868 27.3949 34.1012C26.7755 34.5127 26.0332 34.8195 25.1693 35.0226C24.7922 35.1083 24.3975 35.1681 23.9962 35.2178V37.5H20.9997V35.2627C20.1457 35.198 19.33 35.0774 18.5625 34.8851C17.3883 34.5932 15.8512 33.4138 15.8512 33.4138C15.7197 33.3452 15.633 33.2225 15.6155 33.0871C15.5957 32.9497 15.6472 32.8112 15.7547 32.7146L17.2567 31.3499C17.419 31.2025 17.6689 31.1756 17.8652 31.2832C17.8652 31.2832 18.989 32.1707 19.8398 32.3799C20.6917 32.5911 21.5369 32.6977 22.3812 32.6977C23.4436 32.6977 24.3228 32.5273 25.0201 32.1866C25.7184 31.8409 26.066 31.312 26.066 30.5848C26.066 30.0639 25.896 29.6505 25.5507 29.3476C25.2076 29.0458 24.6276 28.8576 23.8075 28.7749L21.1171 28.5647C19.5241 28.4233 18.295 28.0198 17.4334 27.3584C16.5672 26.694 16.1375 25.6869 16.1375 24.3421C16.1375 23.5969 16.3031 22.9335 16.6363 22.3499C16.9697 21.7672 17.4213 21.2741 17.9969 20.8726C18.5724 20.4702 19.2434 20.1673 20.0065 19.9692C20.3244 19.8835 20.6599 19.8287 20.9997 19.779V17.8125H23.9962V19.738C24.6967 19.8007 25.3623 19.9024 25.9827 20.0578C27.033 20.3168 28.1381 21.1027 28.1381 21.1027C28.2773 21.1694 28.3706 21.2919 28.3946 21.4304C28.4176 21.5718 28.3672 21.7113 28.2587 21.8139L26.85 23.1128C26.6998 23.2514 26.4673 23.2872 26.2754 23.1964C26.2754 23.1964 25.4411 22.6575 24.7208 22.4872C24.0005 22.3159 23.2439 22.2282 22.4458 22.2282C21.4052 22.2282 20.6357 22.4105 20.139 22.7721C19.6402 23.1336 19.3936 23.6079 19.3936 24.1886C19.3936 24.7125 19.5679 25.115 19.9241 25.3969C20.2772 25.6778 20.8736 25.8611 21.7178 25.9387L24.0739 26.1231C25.8226 26.2615 27.1459 26.6839 28.0417 27.3871C28.9395 28.0904 29.3868 29.1184 29.3868 30.4633C29.3871 31.2721 29.2083 31.9734 28.8553 32.5771Z" fill="white"/>
</svg>
