<svg id="SvgjsSvg1006" width="288" height="288" xmlns="http://www.w3.org/2000/svg" version="1.1" xmlns:xlink="http://www.w3.org/1999/xlink" xmlns:svgjs="http://svgjs.com/svgjs"><defs id="SvgjsDefs1007"></defs><g id="SvgjsG1008"><svg xmlns="http://www.w3.org/2000/svg" viewBox="0 0 512 512" width="288" height="288"><path fill="#5207CD" d="M0 0 C1.61247385 -0.0054292 3.22494274 -0.01255632 4.83740234 -0.02124023 C9.19070661 -0.03938029 13.5436291 -0.03244527 17.89693952 -0.01972389 C22.46645412 -0.0095494 27.03593751 -0.01900171 31.60545349 -0.02526855 C39.27592803 -0.03253132 46.94624816 -0.02299257 54.61669922 -0.00390625 C63.46914681 0.01786764 72.32122593 0.01080189 81.17366463 -0.01121187 C88.79265947 -0.02939576 96.41154374 -0.03190984 104.03055328 -0.0214572 C108.57304319 -0.01523967 113.1153602 -0.01433867 117.65783882 -0.02760315 C121.92867053 -0.03920496 126.19902954 -0.03105744 130.46981049 -0.00802612 C132.03182378 -0.00276239 133.59387724 -0.00421258 135.15587425 -0.01307678 C145.03715559 -0.06395897 152.14746559 1.01149411 160.61108398 6.20507812 C166.36911336 12.12305276 168.97925874 18.92601839 169.008255 27.0750885 C169.01193169 27.74438226 169.01560838 28.41367601 169.01939648 29.1032514 C169.03042836 31.35082443 169.03427636 33.59835122 169.03808594 35.84594727 C169.04435114 37.45576118 169.05099799 39.06557364 169.05799866 40.67538452 C169.07904088 45.96782423 169.0894036 51.26026422 169.09936523 56.55273438 C169.10341322 58.37610832 169.10753016 60.19948212 169.11171532 62.02285576 C169.13077012 70.5925357 169.14499856 79.16220703 169.15332729 87.73190409 C169.16309056 97.61399382 169.18938506 107.49585902 169.22982818 117.37786967 C169.26003246 125.0213372 169.27480039 132.66474055 169.2781083 140.30826658 C169.28045456 144.8704944 169.28935917 149.43248244 169.31456947 153.99464607 C169.33792971 158.29159485 169.34205167 162.58814735 169.33180809 166.88514328 C169.33131449 168.45642735 169.33758285 170.02773144 169.35136414 171.59895515 C169.43264528 181.42103263 169.0287173 190.07695175 162.85327148 198.13867188 C162.15459961 198.73808594 161.45592773 199.3375 160.73608398 199.95507812 C159.7112793 200.88126953 159.7112793 200.88126953 158.66577148 201.82617188 C149.82731465 207.1563276 140.1843603 206.94977705 130.18115234 206.90576172 C128.61794164 206.90983397 127.05473382 206.9151795 125.49153137 206.92169189 C121.27257284 206.93529257 117.053836 206.93009733 112.83487391 206.92055464 C108.40549958 206.91292161 103.97614333 206.9200136 99.54676819 206.92471313 C92.11171078 206.93015955 84.676743 206.9230078 77.24169922 206.90869141 C68.66196228 206.89236102 60.0824392 206.89766069 51.50270742 206.91417062 C44.11726971 206.92781014 36.73189616 206.9296933 29.34644991 206.92185462 C24.94371415 206.9171924 20.54107873 206.91651323 16.13834953 206.92646408 C11.99891521 206.93516768 7.85975515 206.92905031 3.72035027 206.91178131 C2.20671035 206.90783477 0.69304711 206.9089189 -0.82058334 206.91556931 C-11.55834178 206.95837693 -20.65795216 206.28003622 -29.34594727 199.32617188 C-35.68188517 192.93501883 -37.25703266 185.63258052 -37.27935791 176.90937805 C-37.28232903 176.25879321 -37.28530015 175.60820836 -37.28836131 174.93790883 C-37.29700813 172.76564023 -37.29855315 170.593427 -37.30004883 168.42114258 C-37.3046799 166.86029443 -37.30970495 165.2994474 -37.31509399 163.73860168 C-37.32819336 159.50282464 -37.3346583 155.26706344 -37.33910465 151.03126931 C-37.34203976 148.38199607 -37.34614542 145.73272712 -37.35060883 143.08345604 C-37.36427815 134.78608766 -37.3739472 126.48872913 -37.37781072 118.19135028 C-37.38228823 108.62910245 -37.39982425 99.06699778 -37.42881131 89.50479347 C-37.45046554 82.10332077 -37.46051701 74.70188824 -37.46185184 67.30038422 C-37.46289731 62.88466677 -37.46875006 58.469084 -37.48667145 54.05340004 C-37.50321664 49.89600179 -37.50527655 45.73883854 -37.49653244 41.58141899 C-37.49576547 40.06174208 -37.50005964 38.54205219 -37.50999069 37.02240753 C-37.63644364 16.45429972 -37.63644364 16.45429972 -30.57641602 8.64257812 C-29.97700195 7.94390625 -29.37758789 7.24523437 -28.76000977 6.52539062 C-20.07240875 -0.12949302 -10.48522575 -0.05958734 0 0 Z " transform="translate(113.139 229.482)" class="color667085 svgShape"></path><path fill="#5207CD" d="M0 0 C1.64728675 -0.00576172 1.64728675 -0.00576172 3.32785201 -0.01163983 C4.52890649 -0.01077335 5.72996097 -0.00990687 6.96741104 -0.00901413 C8.24756851 -0.01198525 9.52772599 -0.01495637 10.84667611 -0.01801753 C14.39810205 -0.02607555 17.94950776 -0.02787643 21.50094175 -0.028615 C25.33201481 -0.03046763 29.16307743 -0.03801599 32.99414444 -0.04475021 C41.37021714 -0.05832527 49.74628504 -0.06435689 58.12236691 -0.06876087 C63.35329095 -0.07152454 68.58421316 -0.0757621 73.81513596 -0.08026505 C88.30073684 -0.09245633 102.78633624 -0.10275612 117.27194214 -0.10614014 C118.19883241 -0.1063597 119.12572268 -0.10657927 120.08070053 -0.10680549 C121.47434158 -0.10713291 121.47434158 -0.10713291 122.896137 -0.10746694 C124.77880208 -0.1079104 126.66146716 -0.10835696 128.54413223 -0.10880661 C129.47799697 -0.10902804 130.41186171 -0.10924947 131.37402537 -0.10947761 C146.5057881 -0.11342559 161.63750267 -0.13088024 176.76924679 -0.15416613 C192.30825098 -0.17788557 207.84723101 -0.19034225 223.3862536 -0.19150805 C232.10945652 -0.19242445 240.83259669 -0.19816787 249.55578232 -0.21632767 C256.98368273 -0.2317366 264.41150097 -0.23684442 271.83941433 -0.22858956 C275.62787447 -0.22468594 279.41616919 -0.2255985 283.20460892 -0.23964691 C287.31544076 -0.25475119 291.42590073 -0.2465109 295.53674698 -0.23606491 C296.72887857 -0.24412132 297.92101017 -0.25217772 299.14926696 -0.26047826 C309.3587239 -0.19979146 318.11764379 1.67863831 325.5060463 9.13142776 C330.00651726 15.4633559 331.61394385 21.14532068 331.66717911 28.8804512 C331.67678665 30.01222794 331.6863942 31.14400467 331.69629288 32.31007767 C331.70266769 34.13203659 331.70266769 34.13203659 331.7091713 35.99080276 C331.71487137 37.24975357 331.72057144 38.50870438 331.72644424 39.80580521 C331.73588422 42.46874475 331.74278617 45.13157189 331.74628067 47.7945137 C331.75175197 51.18469379 331.77576284 54.57446957 331.80425262 57.96452332 C331.82750917 61.22325184 331.82933728 64.48200292 331.8341713 67.74080276 C331.8465181 68.94734512 331.8588649 70.15388748 331.87158585 71.39699173 C331.84646607 80.97571677 330.38850968 88.74990867 324.31464005 96.33845901 C318.31298868 102.28826026 311.26747906 104.25199022 303.01209259 104.26285553 C301.91390143 104.26669667 300.81571026 104.27053782 299.68424058 104.27449536 C298.4831861 104.27362888 297.28213162 104.2727624 296.04468155 104.27186966 C294.76452408 104.27484078 293.4843666 104.2778119 292.16541648 104.28087306 C288.61399054 104.28893108 285.06258483 104.29073196 281.51115084 104.29147053 C277.68007778 104.29332316 273.84901516 104.30087152 270.01794815 104.30760574 C261.64187545 104.3211808 253.26580755 104.32721242 244.88972569 104.3316164 C239.65880164 104.33438007 234.42787943 104.33861763 229.19695663 104.34312057 C214.71135575 104.35531186 200.22575635 104.36561165 185.74015045 104.36899567 C184.81326018 104.36921523 183.88636991 104.3694348 182.93139206 104.36966102 C182.00229802 104.3698793 181.07320399 104.37009757 180.11595559 104.37032247 C178.23329051 104.37076593 176.35062543 104.37121249 174.46796036 104.37166214 C173.53409562 104.37188357 172.60023088 104.372105 171.63806722 104.37233314 C156.50630449 104.37628112 141.37458993 104.39373577 126.2428458 104.41702166 C110.70384161 104.4407411 95.16486158 104.45319778 79.62583899 104.45436358 C70.90263607 104.45527998 62.1794959 104.4610234 53.45631027 104.4791832 C46.02840986 104.49459213 38.60059162 104.49969995 31.17267826 104.49144509 C27.38421812 104.48754147 23.5959234 104.48845403 19.80748367 104.50250244 C15.69665183 104.51760672 11.58619186 104.50936643 7.47534561 104.49892044 C6.28321402 104.50697685 5.09108243 104.51503325 3.86282563 104.52333379 C-6.34663131 104.46264699 -15.1055512 102.58421722 -22.4939537 95.13142776 C-26.99442467 88.79949963 -28.60185126 83.11753485 -28.65508652 75.38240433 C-28.66469406 74.25062759 -28.67430161 73.11885086 -28.68420029 71.95277786 C-28.68845016 70.73813858 -28.69270004 69.5234993 -28.6970787 68.27205276 C-28.70277878 67.01310196 -28.70847885 65.75415115 -28.71435165 64.45705032 C-28.72379163 61.79411078 -28.73069358 59.13128364 -28.73418808 56.46834183 C-28.73965938 53.07816174 -28.76367025 49.68838596 -28.79216003 46.29833221 C-28.81541658 43.03960369 -28.81724469 39.78085261 -28.8220787 36.52205276 C-28.83442551 35.31551041 -28.84677231 34.10896805 -28.85949326 32.8658638 C-28.83437348 23.28713876 -27.37641709 15.51294686 -21.30254745 7.92439651 C-15.30089609 1.97459527 -8.25538647 0.01086531 0 0 Z " transform="translate(104.494 75.869)" class="color667085 svgShape"></path><path fill="#5207CD" d="M0 0 C1.35180947 -0.00270276 2.70361702 -0.00659164 4.05541992 -0.01159668 C6.87274902 -0.01745514 9.68956685 -0.00904885 12.50683594 0.00976562 C16.09094455 0.03255417 19.67385451 0.01941111 23.25791931 -0.00452423 C26.04464504 -0.01908252 28.8310936 -0.01433092 31.61782837 -0.00401306 C33.57294507 -0.00010408 35.52807322 -0.01210269 37.4831543 -0.02453613 C46.12696872 0.0656657 53.43764901 1.18002286 60.43359375 6.5390625 C61.03300781 7.23773438 61.63242187 7.93640625 62.25 8.65625 C63.17619141 9.68105469 63.17619141 9.68105469 64.12109375 10.7265625 C69.45124947 19.56501933 69.24469893 29.20797368 69.20068359 39.21118164 C69.20475584 40.77439235 69.21010137 42.33760017 69.21661377 43.90080261 C69.23021444 48.11976114 69.22501921 52.33849799 69.21547651 56.55746007 C69.20784348 60.9868344 69.21493547 65.41619066 69.21963501 69.8455658 C69.22508142 77.2806232 69.21792968 84.71559099 69.20361328 92.15063477 C69.1872829 100.73037171 69.19258257 109.30989478 69.2090925 117.88962656 C69.22273201 125.27506427 69.22461517 132.66043783 69.21677649 140.04588407 C69.21211428 144.44861983 69.21143511 148.85125525 69.22138596 153.25398445 C69.23008955 157.39341878 69.22397218 161.53257884 69.20670319 165.67198372 C69.20275664 167.18562364 69.20384078 168.69928687 69.21049118 170.21291733 C69.2532988 180.95067576 68.57495809 190.05028615 61.62109375 198.73828125 C55.52751115 204.77921951 48.42469196 206.63483867 40.06347656 206.69238281 C38.93169983 206.70199036 37.7999231 206.7115979 36.6338501 206.72149658 C35.41921082 206.72574646 34.20457153 206.72999634 32.953125 206.734375 C31.69417419 206.74007507 30.43522339 206.74577515 29.13812256 206.75164795 C26.47518302 206.76108793 23.81235588 206.76798988 21.14941406 206.77148438 C17.75923397 206.77695568 14.3694582 206.80096654 10.97940445 206.82945633 C7.72067592 206.85271288 4.46192484 206.85454099 1.203125 206.859375 C-0.00341736 206.8717218 -1.20995972 206.8840686 -2.45306396 206.89678955 C-12.03178901 206.87166978 -19.8059809 205.41371339 -27.39453125 199.33984375 C-33.73046915 192.94869071 -35.30561665 185.6462524 -35.32794189 176.92304993 C-35.33091302 176.27246508 -35.33388414 175.62188024 -35.3369453 174.9515807 C-35.34559212 172.7793121 -35.34713713 170.60709887 -35.34863281 168.43481445 C-35.35326389 166.8739663 -35.35828894 165.31311928 -35.36367798 163.75227356 C-35.37677734 159.51649652 -35.38324229 155.28073531 -35.38768864 151.04494119 C-35.39062374 148.39566795 -35.3947294 145.74639899 -35.39919281 143.09712791 C-35.41286213 134.79975954 -35.42253118 126.50240101 -35.4263947 118.20502216 C-35.43087222 108.64277432 -35.44840823 99.08066966 -35.4773953 89.51846534 C-35.49904952 82.11699264 -35.509101 74.71556012 -35.51043582 67.3140561 C-35.5114813 62.89833864 -35.51733404 58.48275588 -35.53525543 54.06707191 C-35.55180062 49.90967367 -35.55386054 45.75251042 -35.54511642 41.59509087 C-35.54434945 40.07541395 -35.54864363 38.55572406 -35.55857468 37.03607941 C-35.68502763 16.46797159 -35.68502763 16.46797159 -28.625 8.65625 C-28.02558594 7.95757812 -27.42617188 7.25890625 -26.80859375 6.5390625 C-18.65483984 0.29311688 -9.94549846 -0.06324891 0 0 Z " transform="translate(367.188 229.469)" class="color667085 svgShape"></path></svg></g></svg>