<svg width="19" height="19" viewBox="0 0 19 19" fill="none" xmlns="http://www.w3.org/2000/svg">
<path d="M16.4165 8H2.9165M12.6665 2V5M6.6665 2V5M6.5165 17H12.8165C14.0766 17 14.7067 17 15.188 16.7548C15.6113 16.539 15.9556 16.1948 16.1713 15.7715C16.4165 15.2902 16.4165 14.6601 16.4165 13.4V7.1C16.4165 5.83988 16.4165 5.20982 16.1713 4.72852C15.9556 4.30516 15.6113 3.96095 15.188 3.74524C14.7067 3.5 14.0766 3.5 12.8165 3.5H6.5165C5.25639 3.5 4.62633 3.5 4.14503 3.74524C3.72166 3.96095 3.37745 4.30516 3.16174 4.72852C2.9165 5.20982 2.9165 5.83988 2.9165 7.1V13.4C2.9165 14.6601 2.9165 15.2902 3.16174 15.7715C3.37745 16.1948 3.72166 16.539 4.14503 16.7548C4.62633 17 5.25639 17 6.5165 17Z" stroke="#667085" stroke-width="1.67" stroke-linecap="round" stroke-linejoin="round"/>
</svg>
