<svg width="19" height="19" viewBox="0 0 19 19" fill="none" xmlns="http://www.w3.org/2000/svg">
<path d="M16.0833 9.5L7.08325 9.5M16.0833 5L7.08325 5M16.0833 14L7.08325 14M4.08325 9.5C4.08325 9.91421 3.74747 10.25 3.33325 10.25C2.91904 10.25 2.58325 9.91421 2.58325 9.5C2.58325 9.08579 2.91904 8.75 3.33325 8.75C3.74747 8.75 4.08325 9.08579 4.08325 9.5ZM4.08325 5C4.08325 5.41421 3.74747 5.75 3.33325 5.75C2.91904 5.75 2.58325 5.41421 2.58325 5C2.58325 4.58579 2.91904 4.25 3.33325 4.25C3.74747 4.25 4.08325 4.58579 4.08325 5ZM4.08325 14C4.08325 14.4142 3.74747 14.75 3.33325 14.75C2.91904 14.75 2.58325 14.4142 2.58325 14C2.58325 13.5858 2.91904 13.25 3.33325 13.25C3.74747 13.25 4.08325 13.5858 4.08325 14Z" stroke="#667085" stroke-width="1.67" stroke-linecap="round" stroke-linejoin="round"/>
</svg>
