<svg width="18" height="19" viewBox="0 0 18 19" fill="none" xmlns="http://www.w3.org/2000/svg">
<path d="M6.28521 7.14001C6.80721 8.22723 7.5188 9.24621 8.41998 10.1474C9.32116 11.0486 10.3401 11.7602 11.4274 12.2822C11.5209 12.3271 11.5676 12.3495 11.6268 12.3668C11.8371 12.4281 12.0953 12.384 12.2733 12.2565C12.3234 12.2206 12.3663 12.1778 12.452 12.092C12.7143 11.8298 12.8454 11.6987 12.9772 11.613C13.4744 11.2898 14.1153 11.2898 14.6125 11.613C14.7443 11.6987 14.8754 11.8298 15.1376 12.092L15.2838 12.2382C15.6823 12.6368 15.8816 12.8361 15.9899 13.0501C16.2052 13.4758 16.2052 13.9785 15.9899 14.4041C15.8816 14.6182 15.6823 14.8175 15.2838 15.2161L15.1655 15.3343C14.7683 15.7315 14.5697 15.9301 14.2997 16.0818C14 16.2501 13.5347 16.3711 13.191 16.3701C12.8813 16.3692 12.6696 16.3091 12.2463 16.1889C9.97125 15.5432 7.82448 14.3249 6.0335 12.5339C4.24251 10.7429 3.02415 8.59612 2.37843 6.32108C2.25827 5.89774 2.19819 5.68607 2.19727 5.37636C2.19625 5.0327 2.31727 4.56733 2.48559 4.2677C2.63727 3.99768 2.83588 3.79907 3.2331 3.40185L3.35132 3.28362C3.74991 2.88504 3.9492 2.68575 4.16323 2.57749C4.5889 2.36219 5.0916 2.36219 5.51727 2.57749C5.73131 2.68575 5.9306 2.88504 6.32918 3.28362L6.47533 3.42978C6.73754 3.69198 6.86864 3.82308 6.95436 3.95492C7.2776 4.45208 7.2776 5.09302 6.95435 5.59019C6.86864 5.72202 6.73754 5.85312 6.47533 6.11533C6.3896 6.20106 6.34673 6.24393 6.31085 6.29404C6.18334 6.47211 6.13932 6.7303 6.20061 6.94057C6.21786 6.99974 6.24031 7.0465 6.28521 7.14001Z" stroke="#667085" stroke-width="1.67" stroke-linecap="round" stroke-linejoin="round"/>
</svg>
