<svg width="19" height="19" viewBox="0 0 19 19" fill="none" xmlns="http://www.w3.org/2000/svg">
<path d="M6.33325 5.75H12.3333M9.33325 5.75V13.25M6.18325 16.25H12.4833C13.7434 16.25 14.3734 16.25 14.8547 16.0048C15.2781 15.789 15.6223 15.4448 15.838 15.0215C16.0833 14.5402 16.0833 13.9101 16.0833 12.65V6.35C16.0833 5.08988 16.0833 4.45982 15.838 3.97852C15.6223 3.55516 15.2781 3.21095 14.8547 2.99524C14.3734 2.75 13.7434 2.75 12.4833 2.75H6.18325C4.92313 2.75 4.29307 2.75 3.81177 2.99524C3.38841 3.21095 3.0442 3.55516 2.82849 3.97852C2.58325 4.45982 2.58325 5.08988 2.58325 6.35V12.65C2.58325 13.9101 2.58325 14.5402 2.82849 15.0215C3.0442 15.4448 3.38841 15.789 3.81177 16.0048C4.29307 16.25 4.92313 16.25 6.18325 16.25Z" stroke="#667085" stroke-width="1.67" stroke-linecap="round" stroke-linejoin="round"/>
</svg>
