<svg width="18" height="19" viewBox="0 0 18 19" fill="none" xmlns="http://www.w3.org/2000/svg">
<path d="M3.00002 16.8631C3.45195 17 4.06237 17 5.1 17H12.9C13.9376 17 14.548 17 15 16.8631M3.00002 16.8631C2.90312 16.8337 2.8135 16.7981 2.72852 16.7548C2.30516 16.539 1.96095 16.1948 1.74524 15.7715C1.5 15.2902 1.5 14.6601 1.5 13.4V5.6C1.5 4.33988 1.5 3.70982 1.74524 3.22852C1.96095 2.80516 2.30516 2.46095 2.72852 2.24524C3.20982 2 3.83988 2 5.1 2H12.9C14.1601 2 14.7902 2 15.2715 2.24524C15.6948 2.46095 16.039 2.80516 16.2548 3.22852C16.5 3.70982 16.5 4.33988 16.5 5.6V13.4C16.5 14.6601 16.5 15.2902 16.2548 15.7715C16.039 16.1948 15.6948 16.539 15.2715 16.7548C15.1865 16.7981 15.0969 16.8337 15 16.8631M3.00002 16.8631C3.00026 16.2561 3.0039 15.9349 3.05764 15.6647C3.29436 14.4747 4.22466 13.5444 5.41473 13.3076C5.70453 13.25 6.05302 13.25 6.75 13.25H11.25C11.947 13.25 12.2955 13.25 12.5853 13.3076C13.7753 13.5444 14.7056 14.4747 14.9424 15.6647C14.9961 15.9349 14.9997 16.2561 15 16.8631M12 7.625C12 9.28185 10.6569 10.625 9 10.625C7.34315 10.625 6 9.28185 6 7.625C6 5.96815 7.34315 4.625 9 4.625C10.6569 4.625 12 5.96815 12 7.625Z" stroke="#667085" stroke-width="1.67" stroke-linecap="round" stroke-linejoin="round"/>
</svg>
