<svg width="24" height="25" viewBox="0 0 24 25" fill="none" xmlns="http://www.w3.org/2000/svg">
<path d="M16 7.19995C16 6.26998 16 5.80499 15.8978 5.42349C15.6204 4.38822 14.8117 3.57958 13.7765 3.30217C13.395 3.19995 12.93 3.19995 12 3.19995C11.07 3.19995 10.605 3.19995 10.2235 3.30217C9.18827 3.57958 8.37962 4.38822 8.10222 5.42349C8 5.80499 8 6.26998 8 7.19995M5.2 21.2H18.8C19.9201 21.2 20.4802 21.2 20.908 20.982C21.2843 20.7902 21.5903 20.4843 21.782 20.1079C22 19.6801 22 19.1201 22 18V10.4C22 9.27985 22 8.71979 21.782 8.29197C21.5903 7.91565 21.2843 7.60968 20.908 7.41794C20.4802 7.19995 19.9201 7.19995 18.8 7.19995H5.2C4.07989 7.19995 3.51984 7.19995 3.09202 7.41794C2.71569 7.60968 2.40973 7.91565 2.21799 8.29197C2 8.71979 2 9.27985 2 10.4V18C2 19.1201 2 19.6801 2.21799 20.1079C2.40973 20.4843 2.71569 20.7902 3.09202 20.982C3.51984 21.2 4.0799 21.2 5.2 21.2Z" stroke="white" stroke-width="1.67" stroke-linecap="round" stroke-linejoin="round"/>
</svg>
