<svg width="24" height="25" viewBox="0 0 24 25" fill="none" xmlns="http://www.w3.org/2000/svg">
<path d="M13 7.7998L11.8845 5.56872C11.5634 4.92661 11.4029 4.60553 11.1634 4.37097C10.9516 4.16354 10.6963 4.00578 10.4161 3.90911C10.0992 3.7998 9.74021 3.7998 9.02229 3.7998H5.2C4.0799 3.7998 3.51984 3.7998 3.09202 4.01779C2.71569 4.20954 2.40973 4.5155 2.21799 4.89182C2 5.31965 2 5.8797 2 6.9998V7.7998M2 7.7998H17.2C18.8802 7.7998 19.7202 7.7998 20.362 8.12679C20.9265 8.41441 21.3854 8.87335 21.673 9.43783C22 10.0796 22 10.9196 22 12.5998V16.9998C22 18.68 22 19.52 21.673 20.1618C21.3854 20.7263 20.9265 21.1852 20.362 21.4728C19.7202 21.7998 18.8802 21.7998 17.2 21.7998H6.8C5.11984 21.7998 4.27976 21.7998 3.63803 21.4728C3.07354 21.1852 2.6146 20.7263 2.32698 20.1618C2 19.52 2 18.68 2 16.9998V7.7998ZM14 17.2998L16.5 14.7998L14 12.2998M10 12.2998L7.5 14.7998L10 17.2998" stroke="#344054" stroke-width="1.67" stroke-linecap="round" stroke-linejoin="round"/>
</svg>
