<svg width="24" height="25" viewBox="0 0 24 25" fill="none" xmlns="http://www.w3.org/2000/svg">
<path d="M4.27209 21.3278L10.8686 14.7312C11.2646 14.3352 11.4627 14.1372 11.691 14.063C11.8918 13.9978 12.1082 13.9978 12.309 14.063C12.5373 14.1372 12.7354 14.3352 13.1314 14.7312L19.6839 21.2838M14 15.5999L16.8686 12.7312C17.2646 12.3352 17.4627 12.1372 17.691 12.063C17.8918 11.9978 18.1082 11.9978 18.309 12.063C18.5373 12.1372 18.7354 12.3352 19.1314 12.7312L22 15.5999M10 9.59985C10 10.7044 9.10457 11.5999 8 11.5999C6.89543 11.5999 6 10.7044 6 9.59985C6 8.49528 6.89543 7.59985 8 7.59985C9.10457 7.59985 10 8.49528 10 9.59985ZM6.8 21.5999H17.2C18.8802 21.5999 19.7202 21.5999 20.362 21.2729C20.9265 20.9853 21.3854 20.5263 21.673 19.9618C22 19.3201 22 18.48 22 16.7999V8.39985C22 6.7197 22 5.87962 21.673 5.23788C21.3854 4.6734 20.9265 4.21445 20.362 3.92683C19.7202 3.59985 18.8802 3.59985 17.2 3.59985H6.8C5.11984 3.59985 4.27976 3.59985 3.63803 3.92683C3.07354 4.21445 2.6146 4.6734 2.32698 5.23788C2 5.87962 2 6.7197 2 8.39985V16.7999C2 18.48 2 19.3201 2.32698 19.9618C2.6146 20.5263 3.07354 20.9853 3.63803 21.2729C4.27976 21.5999 5.11984 21.5999 6.8 21.5999Z" stroke="#344054" stroke-width="1.67" stroke-linecap="round" stroke-linejoin="round"/>
</svg>
