<svg width="24" height="25" viewBox="0 0 24 25" fill="none" xmlns="http://www.w3.org/2000/svg">
<path d="M6 10.3999L9.43431 13.8342C9.63232 14.0322 9.73133 14.1312 9.84549 14.1683C9.94591 14.201 10.0541 14.201 10.1545 14.1683C10.2687 14.1312 10.3677 14.0322 10.5657 13.8342L13.4343 10.9656C13.6323 10.7676 13.7313 10.6686 13.8455 10.6315C13.9459 10.5989 14.0541 10.5989 14.1545 10.6315C14.2687 10.6686 14.3677 10.7676 14.5657 10.9656L18 14.3999M22 12.3999C22 17.9228 17.5228 22.3999 12 22.3999C6.47715 22.3999 2 17.9228 2 12.3999C2 6.87705 6.47715 2.3999 12 2.3999C17.5228 2.3999 22 6.87705 22 12.3999Z" stroke="#344054" stroke-width="1.67" stroke-linecap="round" stroke-linejoin="round"/>
</svg>
