<svg width="24" height="25" viewBox="0 0 24 25" fill="none" xmlns="http://www.w3.org/2000/svg">
<g clip-path="url(#clip0_131_9338)">
<path d="M12 15.2C13.6569 15.2 15 13.8568 15 12.2C15 10.5431 13.6569 9.19995 12 9.19995C10.3431 9.19995 9 10.5431 9 12.2C9 13.8568 10.3431 15.2 12 15.2Z" stroke="#344054" stroke-width="1.67" stroke-linecap="round" stroke-linejoin="round"/>
<path d="M19.4 15.2C19.2669 15.5016 19.2272 15.8361 19.286 16.1605C19.3448 16.4849 19.4995 16.7843 19.73 17.02L19.79 17.08C19.976 17.2657 20.1235 17.4863 20.2241 17.7291C20.3248 17.9719 20.3766 18.2321 20.3766 18.495C20.3766 18.7578 20.3248 19.018 20.2241 19.2608C20.1235 19.5036 19.976 19.7242 19.79 19.91C19.6043 20.0959 19.3837 20.2434 19.1409 20.3441C18.8981 20.4447 18.6378 20.4965 18.375 20.4965C18.1122 20.4965 17.8519 20.4447 17.6091 20.3441C17.3663 20.2434 17.1457 20.0959 16.96 19.91L16.9 19.85C16.6643 19.6194 16.365 19.4648 16.0406 19.4059C15.7162 19.3471 15.3816 19.3868 15.08 19.52C14.7842 19.6467 14.532 19.8572 14.3543 20.1255C14.1766 20.3938 14.0813 20.7082 14.08 21.03V21.2C14.08 21.7304 13.8693 22.2391 13.4942 22.6142C13.1191 22.9892 12.6104 23.2 12.08 23.2C11.5496 23.2 11.0409 22.9892 10.6658 22.6142C10.2907 22.2391 10.08 21.7304 10.08 21.2V21.11C10.0723 20.779 9.96512 20.4579 9.77251 20.1887C9.5799 19.9194 9.31074 19.7142 9 19.6C8.69838 19.4668 8.36381 19.4271 8.03941 19.4859C7.71502 19.5448 7.41568 19.6994 7.18 19.93L7.12 19.99C6.93425 20.1759 6.71368 20.3234 6.47088 20.4241C6.22808 20.5247 5.96783 20.5765 5.705 20.5765C5.44217 20.5765 5.18192 20.5247 4.93912 20.4241C4.69632 20.3234 4.47575 20.1759 4.29 19.99C4.10405 19.8042 3.95653 19.5836 3.85588 19.3408C3.75523 19.098 3.70343 18.8378 3.70343 18.575C3.70343 18.3121 3.75523 18.0519 3.85588 17.8091C3.95653 17.5663 4.10405 17.3457 4.29 17.16L4.35 17.1C4.58054 16.8643 4.73519 16.5649 4.794 16.2405C4.85282 15.9161 4.81312 15.5816 4.68 15.28C4.55324 14.9842 4.34276 14.7319 4.07447 14.5543C3.80618 14.3766 3.49179 14.2812 3.17 14.28H3C2.46957 14.28 1.96086 14.0692 1.58579 13.6942C1.21071 13.3191 1 12.8104 1 12.28C1 11.7495 1.21071 11.2408 1.58579 10.8657C1.96086 10.4907 2.46957 10.28 3 10.28H3.09C3.42099 10.2722 3.742 10.1651 4.0113 9.97246C4.28059 9.77985 4.48572 9.51069 4.6 9.19995C4.73312 8.89834 4.77282 8.56376 4.714 8.23936C4.65519 7.91497 4.50054 7.61563 4.27 7.37995L4.21 7.31995C4.02405 7.1342 3.87653 6.91363 3.77588 6.67083C3.67523 6.42804 3.62343 6.16778 3.62343 5.90495C3.62343 5.64212 3.67523 5.38187 3.77588 5.13907C3.87653 4.89627 4.02405 4.6757 4.21 4.48995C4.39575 4.304 4.61632 4.15648 4.85912 4.05583C5.10192 3.95518 5.36217 3.90338 5.625 3.90338C5.88783 3.90338 6.14808 3.95518 6.39088 4.05583C6.63368 4.15648 6.85425 4.304 7.04 4.48995L7.1 4.54995C7.33568 4.78049 7.63502 4.93514 7.95941 4.99396C8.28381 5.05277 8.61838 5.01307 8.92 4.87995H9C9.29577 4.75319 9.54802 4.54271 9.72569 4.27442C9.90337 4.00613 9.99872 3.69174 10 3.36995V3.19995C10 2.66952 10.2107 2.16081 10.5858 1.78574C10.9609 1.41066 11.4696 1.19995 12 1.19995C12.5304 1.19995 13.0391 1.41066 13.4142 1.78574C13.7893 2.16081 14 2.66952 14 3.19995V3.28995C14.0013 3.61174 14.0966 3.92613 14.2743 4.19442C14.452 4.46271 14.7042 4.67319 15 4.79995C15.3016 4.93307 15.6362 4.97277 15.9606 4.91396C16.285 4.85514 16.5843 4.70049 16.82 4.46995L16.88 4.40995C17.0657 4.224 17.2863 4.07648 17.5291 3.97583C17.7719 3.87518 18.0322 3.82338 18.295 3.82338C18.5578 3.82338 18.8181 3.87518 19.0609 3.97583C19.3037 4.07648 19.5243 4.224 19.71 4.40995C19.896 4.5957 20.0435 4.81627 20.1441 5.05907C20.2448 5.30187 20.2966 5.56212 20.2966 5.82495C20.2966 6.08778 20.2448 6.34804 20.1441 6.59083C20.0435 6.83363 19.896 7.0542 19.71 7.23995L19.65 7.29995C19.4195 7.53563 19.2648 7.83497 19.206 8.15936C19.1472 8.48376 19.1869 8.81834 19.32 9.11995V9.19995C19.4468 9.49572 19.6572 9.74797 19.9255 9.92564C20.1938 10.1033 20.5082 10.1987 20.83 10.2H21C21.5304 10.2 22.0391 10.4107 22.4142 10.7857C22.7893 11.1608 23 11.6695 23 12.2C23 12.7304 22.7893 13.2391 22.4142 13.6142C22.0391 13.9892 21.5304 14.2 21 14.2H20.91C20.5882 14.2012 20.2738 14.2966 20.0055 14.4743C19.7372 14.6519 19.5268 14.9042 19.4 15.2Z" stroke="#344054" stroke-width="1.67" stroke-linecap="round" stroke-linejoin="round"/>
</g>
<defs>
<clipPath id="clip0_131_9338">
<rect width="24" height="24" fill="white" transform="translate(0 0.199951)"/>
</clipPath>
</defs>
</svg>
