<svg width="20" height="20" viewBox="0 0 20 20" fill="none" xmlns="http://www.w3.org/2000/svg">
<path d="M7.01478 7.83146C7.64529 8.89562 8.46342 9.87312 9.46473 10.7133C10.466 11.5535 11.5707 12.1895 12.7282 12.6256C12.8278 12.6631 12.8776 12.6819 12.9396 12.6942C13.1599 12.7381 13.4197 12.67 13.5903 12.5238C13.6383 12.4827 13.6782 12.435 13.7582 12.3398C14.0026 12.0484 14.1249 11.9028 14.2519 11.8034C14.731 11.4287 15.3858 11.3714 15.9227 11.6572C16.065 11.733 16.2107 11.8553 16.502 12.0997L16.6644 12.236C17.1073 12.6076 17.3287 12.7934 17.4585 13.0024C17.7165 13.4181 17.7614 13.9317 17.5795 14.3858C17.488 14.6142 17.3022 14.8356 16.9306 15.2785L16.8204 15.4098C16.45 15.8512 16.2649 16.0719 16.0025 16.251C15.7115 16.4497 15.2468 16.615 14.8956 16.6447C14.5791 16.6714 14.3574 16.6289 13.9142 16.544C11.532 16.0876 9.22971 15.0347 7.23975 13.3649C5.24978 11.6952 3.81308 9.61069 2.94997 7.34396C2.78936 6.92218 2.70906 6.71128 2.68043 6.39493C2.64867 6.0439 2.73072 5.5576 2.8759 5.23642C3.00675 4.94698 3.19191 4.7263 3.56225 4.28496L3.67247 4.15359C4.04408 3.71073 4.22989 3.4893 4.43889 3.35956C4.85456 3.10153 5.36817 3.05659 5.82233 3.23852C6.05069 3.33 6.27212 3.5158 6.71499 3.88741L6.87738 4.02367C7.16872 4.26813 7.31438 4.39036 7.41374 4.51739C7.78845 4.99646 7.84574 5.65131 7.55992 6.18817C7.48413 6.33053 7.3619 6.4762 7.11744 6.76753C7.0375 6.86279 6.99754 6.91042 6.96536 6.96483C6.851 7.15816 6.8291 7.4259 6.91051 7.63525C6.93343 7.69416 6.96054 7.73993 7.01478 7.83146Z" stroke="white" stroke-width="1.66667" stroke-linecap="round" stroke-linejoin="round"/>
</svg>
