<svg width="171" height="80" viewBox="0 0 171 80" fill="none" xmlns="http://www.w3.org/2000/svg">
<path fill-rule="evenodd" clip-rule="evenodd" d="M7.5 4C7.5 5.93313 5.93211 7.5 4.00066 7.5C2.06789 7.5 0.5 5.93313 0.5 4C0.5 2.06687 2.06789 0.5 4.00066 0.5C5.93211 0.5 7.5 2.06687 7.5 4Z" stroke="#0E87FE"/>
<path fill-rule="evenodd" clip-rule="evenodd" d="M26.5 4C26.5 5.93313 24.9321 7.5 23.0007 7.5C21.0679 7.5 19.5 5.93313 19.5 4C19.5 2.06687 21.0679 0.5 23.0007 0.5C24.9321 0.5 26.5 2.06687 26.5 4Z" stroke="#0E87FE"/>
<path fill-rule="evenodd" clip-rule="evenodd" d="M44.5 4C44.5 5.93313 42.9321 7.5 41.0007 7.5C39.0679 7.5 37.5 5.93313 37.5 4C37.5 2.06687 39.0679 0.5 41.0007 0.5C42.9321 0.5 44.5 2.06687 44.5 4Z" stroke="#0E87FE"/>
<path fill-rule="evenodd" clip-rule="evenodd" d="M62.5 4C62.5 5.93313 60.9334 7.5 59.0007 7.5C57.0679 7.5 55.5 5.93313 55.5 4C55.5 2.06687 57.0679 0.5 59.0007 0.5C60.9334 0.5 62.5 2.06687 62.5 4Z" stroke="#0E87FE"/>
<path fill-rule="evenodd" clip-rule="evenodd" d="M80.5 4C80.5 5.93313 78.9331 7.5 77 7.5C75.0669 7.5 73.5 5.93313 73.5 4C73.5 2.06687 75.0669 0.5 77 0.5C78.9331 0.5 80.5 2.06687 80.5 4Z" stroke="#0E87FE"/>
<path fill-rule="evenodd" clip-rule="evenodd" d="M98.5 4C98.5 5.93313 96.9331 7.5 95 7.5C93.0669 7.5 91.5 5.93313 91.5 4C91.5 2.06687 93.0669 0.5 95 0.5C96.9331 0.5 98.5 2.06687 98.5 4Z" stroke="#0E87FE"/>
<path fill-rule="evenodd" clip-rule="evenodd" d="M116.5 4C116.5 5.93313 114.933 7.5 113.001 7.5C111.067 7.5 109.5 5.93313 109.5 4C109.5 2.06687 111.067 0.5 113.001 0.5C114.933 0.5 116.5 2.06687 116.5 4Z" stroke="#0E87FE"/>
<path fill-rule="evenodd" clip-rule="evenodd" d="M134.5 4C134.5 5.93313 132.932 7.5 131.001 7.5C129.067 7.5 127.5 5.93313 127.5 4C127.5 2.06687 129.067 0.5 131.001 0.5C132.932 0.5 134.5 2.06687 134.5 4Z" stroke="#0E87FE"/>
<path fill-rule="evenodd" clip-rule="evenodd" d="M152.5 4C152.5 5.93313 150.932 7.5 149.001 7.5C147.068 7.5 145.5 5.93313 145.5 4C145.5 2.06687 147.068 0.5 149.001 0.5C150.932 0.5 152.5 2.06687 152.5 4Z" stroke="#0E87FE"/>
<path fill-rule="evenodd" clip-rule="evenodd" d="M170.5 4C170.5 5.93313 168.932 7.5 167.001 7.5C165.068 7.5 163.5 5.93313 163.5 4C163.5 2.06687 165.068 0.5 167.001 0.5C168.932 0.5 170.5 2.06687 170.5 4Z" stroke="#0E87FE"/>
<path fill-rule="evenodd" clip-rule="evenodd" d="M7.5 22C7.5 23.9331 5.93211 25.5 4.00066 25.5C2.06789 25.5 0.5 23.9331 0.5 22C0.5 20.0669 2.06789 18.5 4.00066 18.5C5.93211 18.5 7.5 20.0669 7.5 22Z" stroke="#0E87FE"/>
<path fill-rule="evenodd" clip-rule="evenodd" d="M26.5 22C26.5 23.9331 24.9321 25.5 23.0007 25.5C21.0679 25.5 19.5 23.9331 19.5 22C19.5 20.0669 21.0679 18.5 23.0007 18.5C24.9321 18.5 26.5 20.0669 26.5 22Z" stroke="#0E87FE"/>
<path fill-rule="evenodd" clip-rule="evenodd" d="M44.5 22C44.5 23.9331 42.9321 25.5 41.0007 25.5C39.0679 25.5 37.5 23.9331 37.5 22C37.5 20.0669 39.0679 18.5 41.0007 18.5C42.9321 18.5 44.5 20.0669 44.5 22Z" stroke="#0E87FE"/>
<path fill-rule="evenodd" clip-rule="evenodd" d="M62.5 22C62.5 23.9331 60.9334 25.5 59.0007 25.5C57.0679 25.5 55.5 23.9331 55.5 22C55.5 20.0669 57.0679 18.5 59.0007 18.5C60.9334 18.5 62.5 20.0669 62.5 22Z" stroke="#0E87FE"/>
<path fill-rule="evenodd" clip-rule="evenodd" d="M80.5 22C80.5 23.9331 78.9331 25.5 77 25.5C75.0669 25.5 73.5 23.9331 73.5 22C73.5 20.0669 75.0669 18.5 77 18.5C78.9331 18.5 80.5 20.0669 80.5 22Z" stroke="#0E87FE"/>
<path fill-rule="evenodd" clip-rule="evenodd" d="M98.5 22C98.5 23.9331 96.9331 25.5 95 25.5C93.0669 25.5 91.5 23.9331 91.5 22C91.5 20.0669 93.0669 18.5 95 18.5C96.9331 18.5 98.5 20.0669 98.5 22Z" stroke="#0E87FE"/>
<path fill-rule="evenodd" clip-rule="evenodd" d="M116.5 22C116.5 23.9331 114.933 25.5 113.001 25.5C111.067 25.5 109.5 23.9331 109.5 22C109.5 20.0669 111.067 18.5 113.001 18.5C114.933 18.5 116.5 20.0669 116.5 22Z" stroke="#0E87FE"/>
<path fill-rule="evenodd" clip-rule="evenodd" d="M134.5 22C134.5 23.9331 132.932 25.5 131.001 25.5C129.067 25.5 127.5 23.9331 127.5 22C127.5 20.0669 129.067 18.5 131.001 18.5C132.932 18.5 134.5 20.0669 134.5 22Z" stroke="#0E87FE"/>
<path fill-rule="evenodd" clip-rule="evenodd" d="M152.5 22C152.5 23.9331 150.932 25.5 149.001 25.5C147.068 25.5 145.5 23.9331 145.5 22C145.5 20.0669 147.068 18.5 149.001 18.5C150.932 18.5 152.5 20.0669 152.5 22Z" stroke="#0E87FE"/>
<path fill-rule="evenodd" clip-rule="evenodd" d="M170.5 22C170.5 23.9331 168.932 25.5 167.001 25.5C165.068 25.5 163.5 23.9331 163.5 22C163.5 20.0669 165.068 18.5 167.001 18.5C168.932 18.5 170.5 20.0669 170.5 22Z" stroke="#0E87FE"/>
<path fill-rule="evenodd" clip-rule="evenodd" d="M7.5 40C7.5 41.9331 5.93211 43.5 4.00066 43.5C2.06789 43.5 0.5 41.9331 0.5 40C0.5 38.0669 2.06789 36.5 4.00066 36.5C5.93211 36.5 7.5 38.0669 7.5 40Z" stroke="#0E87FE"/>
<path fill-rule="evenodd" clip-rule="evenodd" d="M26.5 40C26.5 41.9331 24.9321 43.5 23.0007 43.5C21.0679 43.5 19.5 41.9331 19.5 40C19.5 38.0669 21.0679 36.5 23.0007 36.5C24.9321 36.5 26.5 38.0669 26.5 40Z" stroke="#0E87FE"/>
<path fill-rule="evenodd" clip-rule="evenodd" d="M44.5 40C44.5 41.9331 42.9321 43.5 41.0007 43.5C39.0679 43.5 37.5 41.9331 37.5 40C37.5 38.0669 39.0679 36.5 41.0007 36.5C42.9321 36.5 44.5 38.0669 44.5 40Z" stroke="#0E87FE"/>
<path fill-rule="evenodd" clip-rule="evenodd" d="M62.5 40C62.5 41.9331 60.9334 43.5 59.0007 43.5C57.0679 43.5 55.5 41.9331 55.5 40C55.5 38.0669 57.0679 36.5 59.0007 36.5C60.9334 36.5 62.5 38.0669 62.5 40Z" stroke="#0E87FE"/>
<path fill-rule="evenodd" clip-rule="evenodd" d="M80.5 40C80.5 41.9331 78.9331 43.5 77 43.5C75.0669 43.5 73.5 41.9331 73.5 40C73.5 38.0669 75.0669 36.5 77 36.5C78.9331 36.5 80.5 38.0669 80.5 40Z" stroke="#0E87FE"/>
<path fill-rule="evenodd" clip-rule="evenodd" d="M98.5 40C98.5 41.9331 96.9331 43.5 95 43.5C93.0669 43.5 91.5 41.9331 91.5 40C91.5 38.0669 93.0669 36.5 95 36.5C96.9331 36.5 98.5 38.0669 98.5 40Z" stroke="#0E87FE"/>
<path fill-rule="evenodd" clip-rule="evenodd" d="M116.5 40C116.5 41.9331 114.933 43.5 113.001 43.5C111.067 43.5 109.5 41.9331 109.5 40C109.5 38.0669 111.067 36.5 113.001 36.5C114.933 36.5 116.5 38.0669 116.5 40Z" stroke="#0E87FE"/>
<path fill-rule="evenodd" clip-rule="evenodd" d="M134.5 40C134.5 41.9331 132.932 43.5 131.001 43.5C129.067 43.5 127.5 41.9331 127.5 40C127.5 38.0669 129.067 36.5 131.001 36.5C132.932 36.5 134.5 38.0669 134.5 40Z" stroke="#0E87FE"/>
<path fill-rule="evenodd" clip-rule="evenodd" d="M152.5 40C152.5 41.9331 150.932 43.5 149.001 43.5C147.068 43.5 145.5 41.9331 145.5 40C145.5 38.0669 147.068 36.5 149.001 36.5C150.932 36.5 152.5 38.0669 152.5 40Z" stroke="#0E87FE"/>
<path fill-rule="evenodd" clip-rule="evenodd" d="M170.5 40C170.5 41.9331 168.932 43.5 167.001 43.5C165.068 43.5 163.5 41.9331 163.5 40C163.5 38.0669 165.068 36.5 167.001 36.5C168.932 36.5 170.5 38.0669 170.5 40Z" stroke="#0E87FE"/>
<path fill-rule="evenodd" clip-rule="evenodd" d="M7.5 58C7.5 59.9331 5.93211 61.5 4.00066 61.5C2.06789 61.5 0.5 59.9331 0.5 58C0.5 56.0669 2.06789 54.5 4.00066 54.5C5.93211 54.5 7.5 56.0669 7.5 58Z" stroke="#0E87FE"/>
<path fill-rule="evenodd" clip-rule="evenodd" d="M26.5 58C26.5 59.9331 24.9321 61.5 23.0007 61.5C21.0679 61.5 19.5 59.9331 19.5 58C19.5 56.0669 21.0679 54.5 23.0007 54.5C24.9321 54.5 26.5 56.0669 26.5 58Z" stroke="#0E87FE"/>
<path fill-rule="evenodd" clip-rule="evenodd" d="M44.5 58C44.5 59.9331 42.9321 61.5 41.0007 61.5C39.0679 61.5 37.5 59.9331 37.5 58C37.5 56.0669 39.0679 54.5 41.0007 54.5C42.9321 54.5 44.5 56.0669 44.5 58Z" stroke="#0E87FE"/>
<path fill-rule="evenodd" clip-rule="evenodd" d="M62.5 58C62.5 59.9331 60.9334 61.5 59.0007 61.5C57.0679 61.5 55.5 59.9331 55.5 58C55.5 56.0669 57.0679 54.5 59.0007 54.5C60.9334 54.5 62.5 56.0669 62.5 58Z" stroke="#0E87FE"/>
<path fill-rule="evenodd" clip-rule="evenodd" d="M80.5 58C80.5 59.9331 78.9331 61.5 77 61.5C75.0669 61.5 73.5 59.9331 73.5 58C73.5 56.0669 75.0669 54.5 77 54.5C78.9331 54.5 80.5 56.0669 80.5 58Z" stroke="#0E87FE"/>
<path fill-rule="evenodd" clip-rule="evenodd" d="M98.5 58C98.5 59.9331 96.9331 61.5 95 61.5C93.0669 61.5 91.5 59.9331 91.5 58C91.5 56.0669 93.0669 54.5 95 54.5C96.9331 54.5 98.5 56.0669 98.5 58Z" stroke="#0E87FE"/>
<path fill-rule="evenodd" clip-rule="evenodd" d="M116.5 58C116.5 59.9331 114.933 61.5 113.001 61.5C111.067 61.5 109.5 59.9331 109.5 58C109.5 56.0669 111.067 54.5 113.001 54.5C114.933 54.5 116.5 56.0669 116.5 58Z" stroke="#0E87FE"/>
<path fill-rule="evenodd" clip-rule="evenodd" d="M134.5 58C134.5 59.9331 132.932 61.5 131.001 61.5C129.067 61.5 127.5 59.9331 127.5 58C127.5 56.0669 129.067 54.5 131.001 54.5C132.932 54.5 134.5 56.0669 134.5 58Z" stroke="#0E87FE"/>
<path fill-rule="evenodd" clip-rule="evenodd" d="M152.5 58C152.5 59.9331 150.932 61.5 149.001 61.5C147.068 61.5 145.5 59.9331 145.5 58C145.5 56.0669 147.068 54.5 149.001 54.5C150.932 54.5 152.5 56.0669 152.5 58Z" stroke="#0E87FE"/>
<path fill-rule="evenodd" clip-rule="evenodd" d="M170.5 58C170.5 59.9331 168.932 61.5 167.001 61.5C165.068 61.5 163.5 59.9331 163.5 58C163.5 56.0669 165.068 54.5 167.001 54.5C168.932 54.5 170.5 56.0669 170.5 58Z" stroke="#0E87FE"/>
<path fill-rule="evenodd" clip-rule="evenodd" d="M7.5 76C7.5 77.9331 5.93211 79.5 4.00066 79.5C2.06789 79.5 0.5 77.9331 0.5 76C0.5 74.0669 2.06789 72.5 4.00066 72.5C5.93211 72.5 7.5 74.0669 7.5 76Z" stroke="#0E87FE"/>
<path fill-rule="evenodd" clip-rule="evenodd" d="M26.5 76C26.5 77.9331 24.9321 79.5 23.0007 79.5C21.0679 79.5 19.5 77.9331 19.5 76C19.5 74.0669 21.0679 72.5 23.0007 72.5C24.9321 72.5 26.5 74.0669 26.5 76Z" stroke="#0E87FE"/>
<path fill-rule="evenodd" clip-rule="evenodd" d="M44.5 76C44.5 77.9331 42.9321 79.5 41.0007 79.5C39.0679 79.5 37.5 77.9331 37.5 76C37.5 74.0669 39.0679 72.5 41.0007 72.5C42.9321 72.5 44.5 74.0669 44.5 76Z" stroke="#0E87FE"/>
<path fill-rule="evenodd" clip-rule="evenodd" d="M62.5 76C62.5 77.9331 60.9334 79.5 59.0007 79.5C57.0679 79.5 55.5 77.9331 55.5 76C55.5 74.0669 57.0679 72.5 59.0007 72.5C60.9334 72.5 62.5 74.0669 62.5 76Z" stroke="#0E87FE"/>
<path fill-rule="evenodd" clip-rule="evenodd" d="M80.5 76C80.5 77.9331 78.9331 79.5 77 79.5C75.0669 79.5 73.5 77.9331 73.5 76C73.5 74.0669 75.0669 72.5 77 72.5C78.9331 72.5 80.5 74.0669 80.5 76Z" stroke="#0E87FE"/>
<path fill-rule="evenodd" clip-rule="evenodd" d="M98.5 76C98.5 77.9331 96.9331 79.5 95 79.5C93.0669 79.5 91.5 77.9331 91.5 76C91.5 74.0669 93.0669 72.5 95 72.5C96.9331 72.5 98.5 74.0669 98.5 76Z" stroke="#0E87FE"/>
<path fill-rule="evenodd" clip-rule="evenodd" d="M116.5 76C116.5 77.9331 114.933 79.5 113.001 79.5C111.067 79.5 109.5 77.9331 109.5 76C109.5 74.0669 111.067 72.5 113.001 72.5C114.933 72.5 116.5 74.0669 116.5 76Z" stroke="#0E87FE"/>
<path fill-rule="evenodd" clip-rule="evenodd" d="M134.5 76C134.5 77.9331 132.932 79.5 131.001 79.5C129.067 79.5 127.5 77.9331 127.5 76C127.5 74.0669 129.067 72.5 131.001 72.5C132.932 72.5 134.5 74.0669 134.5 76Z" stroke="#0E87FE"/>
<path fill-rule="evenodd" clip-rule="evenodd" d="M152.5 76C152.5 77.9331 150.932 79.5 149.001 79.5C147.068 79.5 145.5 77.9331 145.5 76C145.5 74.0669 147.068 72.5 149.001 72.5C150.932 72.5 152.5 74.0669 152.5 76Z" stroke="#0E87FE"/>
<path fill-rule="evenodd" clip-rule="evenodd" d="M170.5 76C170.5 77.9331 168.932 79.5 167.001 79.5C165.068 79.5 163.5 77.9331 163.5 76C163.5 74.0669 165.068 72.5 167.001 72.5C168.932 72.5 170.5 74.0669 170.5 76Z" stroke="#0E87FE"/>
</svg>
