<svg width="22" height="18" viewBox="0 0 22 18" fill="none" xmlns="http://www.w3.org/2000/svg">
<mask id="mask0_2136_5331" style="mask-type:alpha" maskUnits="userSpaceOnUse" x="-1" y="-3" width="24" height="24">
<rect x="-1" y="-3" width="24" height="24" fill="#D9D9D9"/>
</mask>
<g mask="url(#mask0_2136_5331)">
<path d="M14.45 12.05L15.55 11L13.45 8.9C13.6333 8.61667 13.7708 8.31667 13.8625 8C13.9542 7.68333 14 7.35 14 7C14 6.01667 13.6542 5.1875 12.9625 4.5125C12.2708 3.8375 11.45 3.5 10.5 3.5C9.55 3.5 8.72917 3.8375 8.0375 4.5125C7.34583 5.1875 7 6.01667 7 7C7 7.98333 7.34583 8.8125 8.0375 9.4875C8.72917 10.1625 9.55 10.5 10.5 10.5C10.85 10.5 11.1792 10.4542 11.4875 10.3625C11.7958 10.2708 12.1 10.1333 12.4 9.95L14.45 12.05ZM10.5 9C9.95 9 9.47917 8.80417 9.0875 8.4125C8.69583 8.02083 8.5 7.55 8.5 7C8.5 6.45 8.69583 5.97917 9.0875 5.5875C9.47917 5.19583 9.95 5 10.5 5C11.0333 5 11.5 5.19583 11.9 5.5875C12.3 5.97917 12.5 6.45 12.5 7C12.5 7.55 12.3042 8.02083 11.9125 8.4125C11.5208 8.80417 11.05 9 10.5 9ZM3 15C2.45 15 1.97917 14.8042 1.5875 14.4125C1.19583 14.0208 1 13.55 1 13V2C1 1.45 1.19583 0.979167 1.5875 0.5875C1.97917 0.195833 2.45 0 3 0H19C19.55 0 20.0208 0.195833 20.4125 0.5875C20.8042 0.979167 21 1.45 21 2V13C21 13.55 20.8042 14.0208 20.4125 14.4125C20.0208 14.8042 19.55 15 19 15H3ZM3 13H19V2H3V13ZM0 18V16H22V18H0Z" fill="#101828"/>
</g>
</svg>
