<svg width="120" height="120" viewBox="0 0 120 120" fill="none" xmlns="http://www.w3.org/2000/svg">
<path d="M65.8582 4.02734C65.9476 4.1289 66.0279 4.23812 66.0982 4.35374C66.3089 4.68558 66.457 5.05327 66.535 5.43854C66.6674 6.04887 66.6442 6.68268 66.4678 7.28174C66.2383 8.08572 65.7115 8.7722 64.9942 9.20174C64.561 9.46024 64.0803 9.62912 63.5807 9.69838C63.081 9.76764 62.5725 9.73587 62.0854 9.60494C61.5348 9.46487 61.038 9.1651 60.6574 8.74334C60.4594 8.51775 60.3099 8.2539 60.2182 7.96814C60.1241 7.66492 60.1377 7.33852 60.2566 7.04414C60.4012 6.75175 60.6332 6.51166 60.9205 6.35725C61.2079 6.20284 61.5362 6.14177 61.8598 6.18254C62.5208 6.27108 63.1285 6.5928 63.5734 7.08974C64.0488 7.59351 64.3823 8.21421 64.54 8.88871C64.6976 9.56321 64.6738 10.2674 64.471 10.9297C64.2404 11.582 63.8391 12.1606 63.3089 12.605C62.7788 13.0495 62.1391 13.3437 61.4566 13.4569C60.8088 13.5756 60.1405 13.4987 59.5366 13.2361C59.2394 13.1041 58.9778 12.9034 58.7734 12.6505C58.5735 12.395 58.457 12.0841 58.4398 11.7601C58.4124 11.4422 58.5048 11.1254 58.699 10.8721C58.8966 10.6347 59.1707 10.4735 59.4742 10.4161C59.7564 10.3639 60.0465 10.3731 60.3248 10.4431C60.6031 10.513 60.8631 10.6422 61.087 10.8217C61.5059 11.1492 61.8169 11.5948 61.9798 12.1009C62.1237 12.5681 62.1403 13.0652 62.0278 13.5409C61.824 14.3499 61.3654 15.0718 60.7198 15.6001C60.2401 15.9932 59.7004 16.3068 59.1214 16.5289C58.634 16.727 58.1273 16.8734 57.6094 16.9657C57.641 16.9515 57.674 16.9402 57.7078 16.9321L57.9982 16.8481C58.3705 16.7402 58.7366 16.612 59.095 16.4641C59.661 16.2341 60.1874 15.9166 60.655 15.5233C61.2727 15.0022 61.7082 14.2977 61.8982 13.5121C62.0018 13.0602 61.9827 12.5887 61.843 12.1465C61.6855 11.6709 61.3897 11.2531 60.9934 10.9465C60.7864 10.7818 60.5464 10.6635 60.2896 10.5997C60.0329 10.5359 59.7654 10.5282 59.5054 10.5769C59.238 10.6275 58.9969 10.7702 58.8238 10.9801C58.657 11.2024 58.5784 11.4785 58.603 11.7553C58.6223 12.0418 58.7267 12.3159 58.903 12.5425C59.0919 12.7729 59.3318 12.9561 59.6038 13.0777C60.1793 13.324 60.8148 13.3942 61.4302 13.2793C62.0807 13.1727 62.6909 12.8939 63.1973 12.4719C63.7037 12.0499 64.088 11.5 64.3102 10.8793C64.5011 10.2487 64.5227 9.5789 64.3727 8.93727C64.2227 8.29565 63.9065 7.70481 63.4558 7.22414C63.0409 6.75876 62.4746 6.45524 61.8574 6.36734C61.5685 6.3276 61.2744 6.37909 61.0163 6.51463C60.7581 6.65018 60.5487 6.86299 60.4174 7.12334C60.3123 7.38163 60.3004 7.66845 60.3838 7.93454C60.4656 8.19991 60.6021 8.44518 60.7846 8.65454C61.1432 9.05585 61.6125 9.34224 62.1334 9.47774C62.6013 9.60626 63.0901 9.63976 63.5712 9.57629C64.0522 9.51281 64.5157 9.35363 64.9342 9.10814C65.6299 8.69677 66.1444 8.03746 66.3742 7.26254C66.5531 6.67857 66.5852 6.0595 66.4678 5.46014C66.3972 5.08091 66.2625 4.71649 66.0694 4.38254C65.9374 4.14494 65.8486 4.03454 65.8582 4.02734Z" fill="#E0E0E0"/>
<path d="M44.047 103.802C44.1364 103.904 44.2167 104.013 44.287 104.129C44.4978 104.46 44.6459 104.827 44.7238 105.211C44.8562 105.822 44.8331 106.457 44.6566 107.057C44.4283 107.861 43.9011 108.548 43.183 108.977C42.7503 109.236 42.2697 109.406 41.7699 109.476C41.2701 109.545 40.7614 109.514 40.2742 109.382C39.7186 109.245 39.217 108.944 38.8342 108.518C38.635 108.295 38.4853 108.031 38.395 107.746C38.2998 107.443 38.3133 107.116 38.4334 106.822C38.5779 106.529 38.8099 106.289 39.0972 106.134C39.3844 105.979 39.7128 105.917 40.0366 105.958C40.697 106.048 41.3041 106.37 41.7502 106.865C42.2252 107.369 42.5584 107.99 42.7161 108.664C42.8737 109.338 42.8502 110.043 42.6478 110.705C42.4172 111.357 42.0159 111.936 41.4858 112.38C40.9556 112.825 40.3159 113.119 39.6334 113.232C38.9857 113.351 38.3173 113.274 37.7134 113.011C37.4164 112.879 37.1549 112.678 36.9502 112.426C36.7529 112.171 36.6366 111.864 36.6166 111.542C36.5913 111.224 36.6845 110.908 36.8782 110.654C37.0754 110.417 37.3497 110.255 37.6534 110.198C37.9356 110.146 38.2258 110.155 38.5042 110.225C38.7825 110.295 39.0425 110.424 39.2662 110.604C39.6838 110.932 39.9945 111.376 40.159 111.881C40.3028 112.348 40.3186 112.845 40.2046 113.321C40.0032 114.13 39.5462 114.852 38.9014 115.38C38.4217 115.773 37.882 116.087 37.303 116.309C36.8155 116.507 36.3088 116.653 35.791 116.746C35.8225 116.731 35.8555 116.72 35.8894 116.712L36.1798 116.628C36.5521 116.52 36.9183 116.392 37.2766 116.244C37.8422 116.013 38.3684 115.696 38.8366 115.303C39.4544 114.782 39.8899 114.078 40.0798 113.292C40.1834 112.84 40.1644 112.369 40.0246 111.926C39.8669 111.451 39.5711 111.033 39.175 110.726C38.9679 110.562 38.7278 110.444 38.471 110.381C38.2143 110.317 37.9469 110.31 37.687 110.359C37.4202 110.41 37.1793 110.552 37.0054 110.76C36.8385 110.983 36.7599 111.26 36.7846 111.538C36.8029 111.824 36.9075 112.099 37.0846 112.325C37.2729 112.555 37.5131 112.738 37.7854 112.858C38.3606 113.105 38.9962 113.176 39.6118 113.062C40.2624 112.955 40.8725 112.676 41.3789 112.254C41.8854 111.832 42.2696 111.282 42.4918 110.662C42.6828 110.031 42.7044 109.362 42.5544 108.721C42.4044 108.079 42.0881 107.489 41.6374 107.009C41.2229 106.543 40.6566 106.238 40.039 106.15C39.7503 106.111 39.4566 106.163 39.1987 106.298C38.9407 106.434 38.7312 106.646 38.599 106.906C38.4939 107.164 38.482 107.451 38.5654 107.717C38.6475 107.982 38.784 108.227 38.9662 108.437C39.3255 108.837 39.7945 109.124 40.315 109.26C40.783 109.388 41.2717 109.421 41.7527 109.358C42.2336 109.294 42.697 109.135 43.1158 108.89C43.8125 108.48 44.3273 107.82 44.5558 107.045C44.7365 106.461 44.7695 105.842 44.6518 105.242C44.5819 104.863 44.4471 104.499 44.2534 104.165C44.1262 103.92 44.0374 103.81 44.047 103.802Z" fill="#E0E0E0"/>
<path d="M8.28448 25.2217C8.41581 25.1879 8.54998 25.1662 8.68528 25.1569C9.07692 25.1213 9.47176 25.1596 9.84928 25.2697C10.4523 25.4346 11.0044 25.7482 11.4549 26.1817C12.0646 26.7558 12.4313 27.5416 12.4797 28.3777C12.5091 28.881 12.4371 29.385 12.2681 29.8599C12.0991 30.3349 11.8364 30.771 11.4957 31.1425C11.1193 31.5649 10.6268 31.8671 10.0797 32.0113C9.78838 32.0843 9.48497 32.0949 9.18928 32.0425C8.87733 31.9883 8.59442 31.826 8.39008 31.5841C8.19708 31.3208 8.09083 31.004 8.0861 30.6775C8.08137 30.3511 8.17839 30.0313 8.36368 29.7625C8.74809 29.218 9.31392 28.8283 9.95968 28.6633C10.6235 28.4729 11.326 28.4614 11.9957 28.63C12.6654 28.7986 13.2787 29.1413 13.7733 29.6233C14.2454 30.1289 14.5735 30.7517 14.7233 31.4271C14.8732 32.1024 14.8393 32.8055 14.6253 33.4633C14.4303 34.0952 14.0519 34.6549 13.5381 35.0713C13.2837 35.2733 12.9852 35.4122 12.6669 35.4769C12.3506 35.5343 12.0244 35.495 11.7309 35.3641C11.4368 35.2405 11.1991 35.0121 11.0637 34.7233C10.9442 34.4387 10.9272 34.1215 11.0157 33.8257C11.0994 33.551 11.2414 33.2975 11.4319 33.0826C11.6224 32.8676 11.857 32.6963 12.1197 32.5801C12.6043 32.3609 13.1431 32.2907 13.6677 32.3785C14.147 32.469 14.594 32.6842 14.9637 33.0025C15.5873 33.5553 16.0165 34.2941 16.1877 35.1097C16.3152 35.7171 16.3444 36.3411 16.2741 36.9577C16.2245 37.4814 16.1207 37.9986 15.9645 38.5009C15.9643 38.466 15.9692 38.4313 15.9789 38.3977C15.9933 38.3209 16.0149 38.2225 16.0389 38.1001C16.1138 37.72 16.1691 37.3363 16.2045 36.9505C16.2625 36.3419 16.2236 35.7278 16.0893 35.1313C15.9086 34.35 15.4852 33.646 14.8797 33.1201C14.5253 32.8202 14.0982 32.6191 13.6413 32.5369C13.1459 32.4564 12.6378 32.5258 12.1821 32.7361C11.9404 32.8439 11.7247 33.0023 11.5496 33.2006C11.3744 33.399 11.2439 33.6326 11.1669 33.8857C11.0883 34.1459 11.1036 34.4253 11.2101 34.6753C11.3305 34.9258 11.539 35.1232 11.7957 35.2297C12.0588 35.3454 12.3505 35.3797 12.6333 35.3281C12.925 35.2676 13.1982 35.1384 13.4301 34.9513C13.916 34.5573 14.2722 34.0263 14.4525 33.4273C14.6575 32.799 14.6899 32.1272 14.5463 31.4821C14.4028 30.8369 14.0885 30.2422 13.6365 29.7601C13.1664 29.2988 12.5828 28.9698 11.9448 28.8063C11.3068 28.6428 10.6369 28.6506 10.0029 28.8289C9.39775 28.9817 8.86631 29.3439 8.50288 29.8513C8.33585 30.0884 8.2462 30.3713 8.2462 30.6613C8.2462 30.9513 8.33585 31.2343 8.50288 31.4713C8.68365 31.6846 8.93321 31.8281 9.20848 31.8769C9.48082 31.9255 9.76024 31.9173 10.0293 31.8529C10.551 31.7205 11.0215 31.4356 11.3805 31.0345C11.7099 30.6788 11.9646 30.2606 12.1295 29.8046C12.2944 29.3487 12.3662 28.8643 12.3405 28.3801C12.3043 27.5732 11.9608 26.8107 11.3805 26.2489C10.9493 25.8233 10.4202 25.5101 9.83968 25.3369C9.47007 25.2232 9.08354 25.1745 8.69728 25.1929C8.42368 25.2001 8.28448 25.2337 8.28448 25.2217Z" fill="#E0E0E0"/>
<path d="M99.2683 50.6401C99.1605 50.5615 99.0601 50.4731 98.9683 50.3761C98.7009 50.097 98.4863 49.7718 98.3347 49.4161C98.0872 48.857 97.9833 48.2449 98.0323 47.6353C98.0905 46.8169 98.4598 46.0517 99.0643 45.4969C99.4279 45.1632 99.855 44.9062 100.32 44.7413C100.785 44.5763 101.279 44.5068 101.772 44.5369C102.328 44.5616 102.864 44.7513 103.312 45.0817C103.547 45.2577 103.743 45.4809 103.886 45.7369C104.039 46.0079 104.091 46.3242 104.032 46.6297C103.952 46.9389 103.777 47.2152 103.533 47.4204C103.288 47.6256 102.985 47.7494 102.667 47.7745C102.016 47.8179 101.371 47.6301 100.845 47.2441C100.291 46.8557 99.8492 46.3278 99.5647 45.7137C99.2802 45.0996 99.1631 44.4213 99.2251 43.7473C99.3163 43.0761 99.586 42.4416 100.006 41.9101C100.426 41.3786 100.981 40.9696 101.613 40.7257C102.213 40.4826 102.871 40.4233 103.504 40.5553C103.815 40.6236 104.105 40.7642 104.352 40.9657C104.592 41.1705 104.764 41.4433 104.846 41.7481C104.934 42.0478 104.907 42.3693 104.772 42.6505C104.63 42.9171 104.4 43.1259 104.121 43.2409C103.861 43.3468 103.581 43.3953 103.3 43.3833C103.019 43.3713 102.744 43.299 102.494 43.1713C102.027 42.9409 101.641 42.5755 101.385 42.1225C101.154 41.7046 101.039 41.232 101.054 40.7545C101.087 39.9392 101.382 39.1563 101.896 38.5225C102.279 38.0528 102.734 37.6477 103.245 37.3225C103.673 37.0361 104.129 36.7948 104.606 36.6025C104.579 36.6235 104.55 36.6412 104.52 36.6553L104.258 36.7921C103.922 36.969 103.597 37.1645 103.284 37.3777C102.786 37.7104 102.344 38.1194 101.973 38.5897C101.485 39.2123 101.207 39.9736 101.179 40.7641C101.17 41.218 101.282 41.666 101.503 42.0625C101.749 42.4873 102.116 42.8297 102.556 43.0465C102.788 43.1631 103.041 43.2285 103.3 43.2385C103.559 43.2484 103.817 43.2026 104.056 43.1041C104.303 43.0041 104.506 42.8206 104.63 42.5857C104.745 42.3384 104.765 42.0575 104.688 41.7961C104.613 41.5249 104.458 41.2825 104.244 41.1001C104.017 40.9174 103.751 40.79 103.466 40.7281C102.866 40.6055 102.243 40.664 101.676 40.8961C101.073 41.1284 100.545 41.5182 100.145 42.0249C99.7449 42.5316 99.4886 43.1364 99.4027 43.7761C99.3441 44.4182 99.4556 45.0643 99.7261 45.6496C99.9966 46.2348 100.417 46.7384 100.944 47.1097C101.434 47.4742 102.038 47.6528 102.648 47.6137C102.931 47.5937 103.201 47.4858 103.42 47.3052C103.64 47.1245 103.797 46.8801 103.872 46.6057C103.923 46.3373 103.878 46.0594 103.744 45.8209C103.612 45.5844 103.432 45.3777 103.216 45.2137C102.793 44.9012 102.287 44.7201 101.762 44.6929C101.288 44.662 100.813 44.7263 100.364 44.8821C99.916 45.0379 99.5033 45.2821 99.1507 45.6001C98.5631 46.131 98.1993 46.8654 98.1331 47.6545C98.0765 48.2498 98.1672 48.8498 98.3971 49.4017C98.5385 49.7543 98.7408 50.0792 98.9947 50.3617C99.1675 50.5537 99.2755 50.6401 99.2683 50.6401Z" fill="#E0E0E0"/>
<path d="M102.904 28.2554C102.904 28.2554 102.4 26.1266 100.564 26.4314L100.958 25.0586C100.958 25.0586 104.013 25.5578 103.658 27.7442L102.904 28.2554Z" fill="#EBEBEB"/>
<path d="M95.5197 114.41C95.5197 114.41 95.0157 112.282 93.1797 112.589L93.5733 111.216C93.5733 111.216 96.6261 111.715 96.2733 113.902L95.5197 114.41Z" fill="#EBEBEB"/>
<path d="M18.1245 109.325C18.1245 109.325 16.1733 110.311 16.8981 112.027L15.4725 111.965C15.4725 111.965 15.2445 108.878 17.4525 108.713L18.1245 109.325Z" fill="#EBEBEB"/>
<path d="M53.9108 111.862C53.9108 111.862 55.5908 113.273 56.8748 111.934L57.3764 113.271C57.3764 113.271 54.626 114.689 53.6084 112.721L53.9108 111.862Z" fill="#EBEBEB"/>
<path d="M112.367 74.501C112.367 74.501 111.863 72.3722 110.027 72.677L110.419 71.3042C110.419 71.3042 113.474 71.8034 113.121 73.9898L112.367 74.501Z" fill="#F5F5F5"/>
<path d="M38.1743 10.9945C38.1743 10.9945 38.3183 8.81292 36.4727 8.56572L37.2503 7.36572C37.2503 7.36572 40.0247 8.73852 39.0455 10.7257L38.1743 10.9945Z" fill="#EBEBEB"/>
<path d="M24.0148 5.12886C24.0133 5.23962 23.9792 5.34748 23.9166 5.43888C23.8541 5.53028 23.7659 5.60114 23.6631 5.64255C23.5604 5.68395 23.4477 5.69405 23.3392 5.67158C23.2308 5.6491 23.1314 5.59505 23.0536 5.51623C22.9757 5.43741 22.923 5.33734 22.9019 5.2286C22.8808 5.11986 22.8923 5.00731 22.935 4.90511C22.9777 4.80291 23.0497 4.71563 23.1419 4.65423C23.2341 4.59283 23.3424 4.56007 23.4532 4.56006C23.5275 4.56005 23.6011 4.57481 23.6697 4.60349C23.7384 4.63216 23.8006 4.67417 23.8528 4.72708C23.9051 4.78 23.9463 4.84276 23.9741 4.91173C24.0019 4.9807 24.0157 5.0545 24.0148 5.12886Z" fill="#EBEBEB"/>
<path d="M75.6818 9.93611C75.6818 10.0472 75.6489 10.1558 75.5871 10.2481C75.5254 10.3405 75.4377 10.4125 75.3351 10.455C75.2325 10.4975 75.1196 10.5086 75.0106 10.4869C74.9017 10.4653 74.8016 10.4118 74.7231 10.3332C74.6445 10.2547 74.5911 10.1546 74.5694 10.0457C74.5477 9.93673 74.5588 9.82382 74.6013 9.7212C74.6439 9.61858 74.7158 9.53087 74.8082 9.46916C74.9005 9.40745 75.0091 9.37451 75.1202 9.37451C75.2689 9.37514 75.4114 9.43451 75.5166 9.5397C75.6218 9.64488 75.6812 9.78736 75.6818 9.93611Z" fill="#EBEBEB"/>
<path d="M112.08 23.3713C112.078 23.4816 112.044 23.5888 111.982 23.6797C111.919 23.7705 111.831 23.841 111.729 23.8823C111.627 23.9236 111.515 23.934 111.407 23.912C111.299 23.89 111.199 23.8367 111.122 23.7588C111.044 23.6808 110.99 23.5816 110.968 23.4736C110.946 23.3655 110.957 23.2534 110.998 23.1512C111.039 23.049 111.11 22.9612 111.201 22.8988C111.291 22.8363 111.399 22.802 111.509 22.8001C111.584 22.7988 111.659 22.8127 111.729 22.841C111.799 22.8692 111.862 22.9112 111.916 22.9645C111.969 23.0178 112.011 23.0813 112.039 23.1512C112.068 23.2211 112.081 23.296 112.08 23.3713Z" fill="#EBEBEB"/>
<path d="M109.691 107.477C109.692 107.589 109.659 107.698 109.598 107.791C109.536 107.884 109.448 107.957 109.345 108C109.242 108.043 109.128 108.054 109.019 108.033C108.909 108.011 108.809 107.958 108.73 107.879C108.65 107.8 108.596 107.7 108.574 107.59C108.553 107.481 108.564 107.367 108.606 107.264C108.649 107.161 108.721 107.073 108.814 107.01C108.907 106.948 109.016 106.915 109.127 106.915C109.277 106.915 109.42 106.974 109.525 107.08C109.631 107.185 109.691 107.328 109.691 107.477Z" fill="#EBEBEB"/>
<path d="M81.168 113.76C81.1685 113.872 81.1358 113.981 81.0742 114.074C81.0125 114.167 80.9246 114.24 80.8215 114.283C80.7185 114.326 80.605 114.337 80.4955 114.316C80.3859 114.294 80.2852 114.241 80.2061 114.162C80.127 114.083 80.073 113.983 80.0511 113.873C80.0291 113.764 80.0401 113.65 80.0827 113.547C80.1254 113.444 80.1976 113.356 80.2904 113.294C80.3832 113.232 80.4924 113.198 80.604 113.198C80.7532 113.198 80.8963 113.258 81.002 113.363C81.1077 113.468 81.1674 113.611 81.168 113.76Z" fill="#EBEBEB"/>
<path d="M99.5324 61.2889C99.5324 61.4 99.4994 61.5086 99.4377 61.6009C99.376 61.6933 99.2883 61.7652 99.1857 61.8077C99.0831 61.8503 98.9702 61.8614 98.8612 61.8397C98.7523 61.818 98.6522 61.7645 98.5737 61.686C98.4951 61.6075 98.4416 61.5074 98.42 61.3985C98.3983 61.2895 98.4094 61.1766 98.4519 61.074C98.4944 60.9714 98.5664 60.8837 98.6588 60.8219C98.7511 60.7602 98.8597 60.7273 98.9708 60.7273C99.1197 60.7273 99.2626 60.7865 99.3679 60.8918C99.4732 60.9971 99.5324 61.1399 99.5324 61.2889Z" fill="#EBEBEB"/>
<path d="M20.1124 27.0482C20.1128 27.1599 20.0801 27.2693 20.0183 27.3624C19.9565 27.4555 19.8685 27.5282 19.7653 27.5712C19.6622 27.6142 19.5486 27.6255 19.4389 27.6039C19.3293 27.5822 19.2286 27.5284 19.1496 27.4494C19.0705 27.3704 19.0168 27.2696 18.9951 27.16C18.9734 27.0504 18.9848 26.9368 19.0278 26.8336C19.0708 26.7305 19.1434 26.6424 19.2365 26.5806C19.3296 26.5188 19.439 26.4861 19.5508 26.4866C19.6997 26.4866 19.8426 26.5457 19.9479 26.6511C20.0532 26.7564 20.1124 26.8992 20.1124 27.0482Z" fill="#EBEBEB"/>
<path d="M7.32234 68.7962C7.32234 68.9078 7.2892 69.017 7.22712 69.1098C7.16504 69.2026 7.07681 69.2749 6.97361 69.3175C6.87041 69.3601 6.75689 69.3711 6.64742 69.3492C6.53795 69.3272 6.43746 69.2733 6.35868 69.1941C6.2799 69.115 6.22637 69.0143 6.20488 68.9047C6.18339 68.7952 6.1949 68.6817 6.23796 68.5787C6.28102 68.4757 6.35368 68.3877 6.44674 68.3261C6.53981 68.2644 6.64909 68.2317 6.76074 68.2322C6.83469 68.2322 6.90791 68.2468 6.97621 68.2752C7.0445 68.3035 7.10652 68.3451 7.1587 68.3975C7.21088 68.4499 7.2522 68.5121 7.28028 68.5805C7.30836 68.6489 7.32265 68.7222 7.32234 68.7962Z" fill="#EBEBEB"/>
<path d="M99.3378 97.7398C99.7725 99.1159 99.7624 100.594 99.309 101.964C98.2722 101.09 97.0986 99.6262 96.7386 98.3182C96.3681 97.0253 96.4033 95.6498 96.8394 94.3774C98.0072 95.2055 98.882 96.3828 99.3378 97.7398Z" fill="#455A64"/>
<path d="M98.7502 99.9168C98.748 99.8362 98.7392 99.7559 98.7238 99.6768C98.7022 99.5304 98.6638 99.3168 98.6086 99.0576C98.4675 98.3767 98.2823 97.7057 98.0542 97.0488C97.8274 96.3927 97.5596 95.7514 97.2526 95.1288C97.135 94.8888 97.0342 94.6992 96.9598 94.5696C96.9246 94.5004 96.8845 94.4338 96.8398 94.3704C96.864 94.4444 96.8954 94.516 96.9334 94.584C96.9982 94.716 97.0918 94.9104 97.2046 95.1528C97.4278 95.6328 97.7158 96.3096 97.9822 97.0728C98.2073 97.7273 98.3988 98.393 98.5558 99.0672C98.6182 99.324 98.6638 99.5352 98.695 99.6816C98.7067 99.7614 98.7252 99.8401 98.7502 99.9168Z" fill="#263238"/>
<path d="M105.466 98.9303C105.899 100.307 105.889 101.786 105.437 103.157C104.398 102.281 103.224 100.819 102.864 99.5087C102.505 98.1888 102.551 96.7912 102.998 95.4983C104.16 96.3557 105.023 97.5561 105.466 98.9303Z" fill="#455A64"/>
<path d="M104.88 101.109C104.878 101.029 104.869 100.949 104.853 100.869C104.832 100.721 104.793 100.509 104.738 100.248C104.595 99.5683 104.409 98.8982 104.184 98.2414C103.957 97.5854 103.689 96.9441 103.382 96.3214C103.262 96.0814 103.161 95.8918 103.089 95.7622C103.054 95.6931 103.013 95.6272 102.967 95.5654C102.992 95.6384 103.023 95.709 103.06 95.7766C103.128 95.911 103.221 96.1054 103.332 96.3454C103.555 96.8254 103.845 97.5046 104.109 98.2654C104.373 99.0262 104.563 99.7414 104.685 100.26C104.745 100.519 104.791 100.74 104.822 100.874C104.834 100.954 104.853 101.033 104.88 101.109Z" fill="#263238"/>
<path d="M109.029 94.7854C110.143 93.8662 110.937 92.6189 111.3 91.2214C109.953 91.3918 108.18 91.9846 107.162 92.9014C106.143 93.8135 105.422 95.0122 105.096 96.3406C106.538 96.248 107.914 95.7039 109.029 94.7854Z" fill="#455A64"/>
<path d="M109.72 92.6399C109.675 92.7035 109.625 92.7636 109.571 92.8199C109.473 92.9303 109.331 93.0887 109.139 93.2783C108.649 93.7717 108.129 94.2342 107.582 94.6631C107.035 95.0916 106.462 95.4852 105.866 95.8415C105.626 95.9783 105.448 96.0815 105.316 96.1535C105.25 96.1933 105.18 96.227 105.107 96.2543C105.167 96.2057 105.231 96.1631 105.299 96.1271C105.429 96.0503 105.611 95.9375 105.837 95.7959C106.286 95.5127 106.895 95.1023 107.534 94.5959C108.172 94.0895 108.717 93.6023 109.101 93.2327L109.55 92.7911C109.602 92.7359 109.659 92.6854 109.72 92.6399Z" fill="#263238"/>
<path d="M103.118 93.1775C104.23 92.2576 105.025 91.0106 105.388 89.6135C104.042 89.7839 102.268 90.3767 101.248 91.2815C100.23 92.1949 99.5102 93.3931 99.1816 94.7207C100.623 94.6331 102.001 94.0931 103.118 93.1775Z" fill="#455A64"/>
<path d="M103.807 91.0295C103.764 91.0943 103.715 91.1546 103.661 91.2095C103.562 91.3199 103.421 91.4783 103.226 91.6679C102.737 92.1614 102.218 92.6239 101.671 93.0527C101.123 93.4806 100.549 93.875 99.9527 94.2335C99.7127 94.3679 99.5351 94.4735 99.4031 94.5431C99.3367 94.5829 99.2668 94.6167 99.1943 94.6439C99.2552 94.5958 99.3203 94.5533 99.3887 94.5167C99.5159 94.4399 99.7007 94.3271 99.9239 94.1855C101.102 93.4505 102.2 92.5938 103.2 91.6295C103.392 91.4447 103.546 91.2935 103.651 91.1879C103.699 91.1312 103.751 91.0783 103.807 91.0295Z" fill="#263238"/>
<path d="M92.5703 94.6343C92.6271 94.6198 92.6848 94.6094 92.7431 94.6031L93.2399 94.5359L93.5999 94.4879C93.7319 94.4735 93.8759 94.4639 94.0319 94.4519C94.3415 94.4279 94.6919 94.3919 95.0831 94.3871L95.6975 94.3679C95.9087 94.3679 96.1319 94.3679 96.3623 94.3679C96.8207 94.3679 97.3103 94.4063 97.8263 94.4375C98.9436 94.5345 100.053 94.7053 101.148 94.9487C102.239 95.204 103.313 95.5303 104.362 95.9255C104.842 96.1199 105.3 96.2975 105.713 96.4967C105.922 96.5951 106.126 96.6815 106.315 96.7799L106.86 97.0607C107.21 97.2335 107.513 97.4207 107.782 97.5743C107.914 97.6535 108.041 97.7231 108.154 97.7951L108.458 97.9919L108.876 98.2703C108.927 98.3001 108.975 98.3346 109.02 98.3735C108.966 98.3489 108.915 98.32 108.866 98.2871L108.437 98.0279L108.127 97.8359C108.014 97.7687 107.887 97.7015 107.753 97.6247C107.482 97.4759 107.179 97.2935 106.826 97.1255L106.282 96.8519C106.09 96.7559 105.886 96.6719 105.679 96.5759C105.264 96.3791 104.806 96.2063 104.328 96.0167C102.237 95.2242 100.047 94.725 97.8191 94.5335C97.3055 94.4999 96.8183 94.4567 96.3599 94.4543C96.1199 94.4543 95.9087 94.4375 95.6975 94.4543H95.0855C94.6967 94.4543 94.3463 94.4879 94.0367 94.5047L93.6047 94.5311L93.2447 94.5695L92.7455 94.6199C92.6875 94.6285 92.629 94.6333 92.5703 94.6343Z" fill="#263238"/>
<path d="M111.394 98.3806C112.599 99.1738 113.523 100.327 114.034 101.676C112.675 101.652 110.842 101.258 109.735 100.476C108.625 99.679 107.778 98.567 107.307 97.2838C108.751 97.209 110.181 97.5929 111.394 98.3806Z" fill="#455A64"/>
<path d="M112.32 100.44C112.269 100.382 112.212 100.328 112.152 100.279C112.044 100.178 111.878 100.039 111.672 99.8687C111.132 99.4341 110.565 99.0334 109.975 98.6687C109.383 98.3039 108.77 97.9753 108.139 97.6847C107.899 97.5743 107.697 97.4903 107.558 97.4447C107.487 97.4137 107.414 97.388 107.34 97.3679C107.405 97.4094 107.474 97.4448 107.546 97.4735L108.115 97.7423C108.595 97.9823 109.243 98.3183 109.934 98.7455C110.522 99.1104 111.091 99.5053 111.638 99.9287C111.849 100.092 112.017 100.224 112.133 100.318C112.191 100.364 112.254 100.405 112.32 100.44Z" fill="#263238"/>
<path d="M103.284 78.8423C104.848 78.4411 106.498 78.5427 108 79.1327C106.961 80.2367 105.257 81.4559 103.776 81.7727C102.283 82.0934 100.728 81.9562 99.3145 81.3791C100.339 80.1386 101.728 79.2512 103.284 78.8423Z" fill="#455A64"/>
<path d="M105.674 79.6318C105.588 79.6286 105.502 79.6334 105.417 79.6462C105.252 79.6606 105.012 79.6918 104.717 79.735C103.182 79.9722 101.682 80.3995 100.253 81.007C99.979 81.1246 99.7606 81.2254 99.6118 81.2998C99.5328 81.3347 99.4565 81.3756 99.3838 81.4222C99.4659 81.3976 99.5461 81.3671 99.6238 81.331C99.775 81.2662 99.9982 81.1726 100.274 81.0646C101.711 80.4906 103.203 80.0652 104.726 79.795L105.42 79.6798C105.506 79.6703 105.591 79.6542 105.674 79.6318Z" fill="#263238"/>
<path d="M100.778 84.7992C102.187 84.824 103.552 85.2908 104.681 86.1336C103.548 86.8224 101.832 87.456 100.509 87.384C99.1771 87.3084 97.8984 86.8334 96.8398 86.0208C97.9922 85.211 99.3699 84.7836 100.778 84.7992Z" fill="#455A64"/>
<path d="M102.612 86.0183C102.541 85.9948 102.467 85.9788 102.392 85.9703C102.248 85.9439 102.039 85.9151 101.782 85.8839C101.108 85.8054 100.43 85.7693 99.7515 85.7759C99.0739 85.7837 98.3974 85.8334 97.7259 85.9247C97.4667 85.9583 97.2603 85.9943 97.1163 86.0207C97.0411 86.0308 96.9671 86.0485 96.8955 86.0735C96.9711 86.0715 97.0465 86.0642 97.1211 86.0519C97.2651 86.0303 97.4739 86.0063 97.7307 85.9775C98.4017 85.9009 99.0762 85.8592 99.7515 85.8527C100.544 85.8527 101.259 85.8887 101.775 85.9367C102.034 85.9607 102.243 85.9823 102.387 85.9991C102.461 86.0115 102.537 86.0179 102.612 86.0183Z" fill="#263238"/>
<path d="M98.0373 80.5847C97.7285 79.2104 96.9956 77.9679 95.9421 77.0327C95.4957 78.2807 95.2221 80.0903 95.5605 81.3695C95.9022 82.6593 96.6249 83.816 97.6341 84.6887C98.1953 83.3968 98.3364 81.9612 98.0373 80.5847Z" fill="#455A64"/>
<path d="M96.4795 79.0342C96.5146 79.1013 96.5443 79.1711 96.5683 79.243C96.6235 79.3774 96.6931 79.5742 96.7771 79.8214C96.9877 80.4657 97.1592 81.122 97.2907 81.787C97.4218 82.4527 97.5108 83.126 97.5571 83.803C97.5739 84.0622 97.5811 84.283 97.5835 84.4174C97.5912 84.4932 97.5912 84.5696 97.5835 84.6454C97.5703 84.5708 97.5623 84.4954 97.5595 84.4198C97.5595 84.2758 97.5331 84.0646 97.5091 83.8078C97.384 82.4608 97.1194 81.1305 96.7195 79.8382C96.6451 79.5982 96.5803 79.3894 96.5347 79.2526C96.5086 79.1819 96.4901 79.1087 96.4795 79.0342Z" fill="#263238"/>
<path d="M99.8882 74.995C99.2497 73.7742 98.2417 72.7863 97.0082 72.1726C96.9026 73.4638 97.1018 75.2398 97.745 76.363C98.4014 77.4916 99.3823 78.3965 100.56 78.9598C100.757 77.6004 100.522 76.2135 99.8882 74.995Z" fill="#455A64"/>
<path d="M98.0205 73.9199C98.0712 73.9739 98.1178 74.0317 98.1597 74.0927C98.2437 74.2079 98.3613 74.3759 98.5029 74.5871C99.2306 75.6961 99.8168 76.8918 100.248 78.1463C100.329 78.3863 100.389 78.5855 100.428 78.7223C100.451 78.7919 100.469 78.8633 100.481 78.9359C100.447 78.8697 100.42 78.8006 100.399 78.7295C100.353 78.5951 100.286 78.4031 100.197 78.1655C99.9691 77.5463 99.7096 76.9391 99.4197 76.3463C99.1288 75.7539 98.8084 75.1764 98.4597 74.6159L98.1381 74.1095C98.094 74.0495 98.0547 73.9861 98.0205 73.9199Z" fill="#263238"/>
<path d="M89.1738 95.0663C89.1868 95.0498 89.2013 95.0346 89.217 95.0207L89.3514 94.8887L89.8746 94.3919L90.2538 94.0343L90.6906 93.5975C91.0026 93.2807 91.3674 92.9279 91.7418 92.5127L92.3394 91.8719C92.5458 91.6463 92.7498 91.3919 92.9658 91.1519C93.405 90.6719 93.8394 90.1103 94.305 89.5367C95.2922 88.2734 96.2142 86.9604 97.0674 85.6031C97.9079 84.238 98.673 82.8278 99.3594 81.3791C99.6594 80.7047 99.9594 80.0687 100.192 79.4591C100.312 79.1543 100.432 78.8615 100.54 78.5759C100.648 78.2903 100.739 78.0119 100.831 77.7479C101.027 77.2223 101.162 76.7351 101.294 76.3079L101.474 75.7151C101.522 75.5327 101.565 75.3647 101.603 75.2111C101.683 74.9135 101.743 74.6807 101.786 74.5151C101.807 74.4415 101.823 74.3815 101.836 74.3351C101.841 74.3135 101.848 74.2925 101.858 74.2727C101.86 74.2942 101.86 74.316 101.858 74.3375C101.846 74.3831 101.834 74.4431 101.817 74.5199L101.651 75.2231C101.615 75.3743 101.575 75.5447 101.531 75.7295L101.359 76.3247C101.234 76.7519 101.102 77.2415 100.91 77.7647C100.821 78.0287 100.725 78.3071 100.627 78.5951C100.528 78.8831 100.401 79.1783 100.281 79.4855C100.041 80.1023 99.7554 80.7407 99.4578 81.4199C98.7735 82.8751 98.0083 84.291 97.1658 85.6607C96.3116 87.0219 95.3855 88.3365 94.3914 89.5991C93.9234 90.1727 93.4866 90.7247 93.0426 91.2119C92.8242 91.4519 92.6178 91.6919 92.4114 91.9319L91.8066 92.5727C91.4274 92.9831 91.0602 93.3335 90.7434 93.6455L90.2874 94.0799L89.901 94.4303L89.3658 94.9103L89.2242 95.0351C89.2087 95.0475 89.1918 95.0579 89.1738 95.0663Z" fill="#263238"/>
<path d="M101.234 66.0142C101.44 65.6086 101.75 65.1838 102.194 65.143C102.404 65.1447 102.609 65.2107 102.78 65.3321C102.952 65.4535 103.082 65.6246 103.154 65.8222C103.286 66.2232 103.335 66.6473 103.296 67.0678C103.489 66.134 104.027 65.3073 104.803 64.7518C105.06 64.5694 105.422 64.423 105.674 64.6102C105.753 64.6885 105.815 64.7821 105.856 64.8853C105.898 64.9885 105.917 65.0991 105.914 65.2102C105.999 66.091 105.962 66.9793 105.806 67.8502C106.138 67.5714 106.531 67.3749 106.953 67.2766C107.378 67.2118 107.879 67.4134 108.004 67.8262C108.055 68.0585 108.04 68.3003 107.961 68.5246C107.565 69.9965 106.815 71.3493 105.777 72.4654C105.227 73.0534 104.577 73.5886 103.778 73.7518C102.979 73.915 101.976 73.915 101.618 73.1854L101.748 73.3702C101.01 72.3027 100.574 71.0567 100.483 69.7626C100.393 68.4684 100.652 67.1738 101.234 66.0142Z" fill="#ED9FF4"/>
<path d="M102.127 73.6463C102.137 73.6239 102.146 73.6006 102.151 73.5767C102.168 73.5263 102.187 73.4615 102.214 73.3799C102.24 73.2983 102.269 73.1903 102.31 73.0703C102.351 72.9503 102.394 72.8111 102.451 72.6623C102.509 72.5135 102.567 72.3479 102.641 72.1823C102.715 72.0167 102.797 71.8271 102.881 71.6351C103.272 70.8056 103.766 70.029 104.352 69.3239C104.489 69.1631 104.619 69.0095 104.748 68.8751C104.878 68.7407 104.988 68.6135 105.113 68.5007C105.238 68.3879 105.336 68.2919 105.427 68.2055C105.519 68.1191 105.605 68.0495 105.667 67.9919L105.826 67.8575C105.859 67.8263 105.879 67.8095 105.876 67.8071C105.855 67.8183 105.834 67.832 105.816 67.8479L105.653 67.9727C105.581 68.0279 105.497 68.0951 105.401 68.1791C105.305 68.2631 105.192 68.3567 105.079 68.4695C104.967 68.5823 104.839 68.7095 104.707 68.8391C104.575 68.9687 104.443 69.1271 104.304 69.2879C104.009 69.6425 103.736 70.0143 103.486 70.4015C103.241 70.7879 103.02 71.1886 102.823 71.6015C102.737 71.7935 102.653 71.9783 102.583 72.1535C102.514 72.3287 102.451 72.4943 102.399 72.6455C102.346 72.7967 102.303 72.9359 102.267 73.0583C102.231 73.1807 102.199 73.2839 102.178 73.3727C102.156 73.4615 102.142 73.5191 102.127 73.5719C102.124 73.5966 102.124 73.6216 102.127 73.6463Z" fill="#263238"/>
<path d="M103.383 70.6896C103.395 70.641 103.402 70.591 103.402 70.5408C103.402 70.4448 103.419 70.3008 103.428 70.1328C103.445 69.7896 103.457 69.3144 103.445 68.7888C103.433 68.2632 103.407 67.788 103.375 67.4448C103.361 67.272 103.347 67.1328 103.332 67.0392C103.329 66.9889 103.321 66.939 103.308 66.8904C103.304 66.9399 103.304 66.9897 103.308 67.0392C103.308 67.1496 103.323 67.2792 103.332 67.4472C103.351 67.7904 103.373 68.2656 103.385 68.7888C103.397 69.312 103.385 69.7896 103.385 70.1328C103.385 70.2936 103.385 70.4304 103.385 70.5408C103.379 70.5902 103.378 70.64 103.383 70.6896Z" fill="#263238"/>
<g opacity="0.3">
<path d="M105.823 67.843C105.823 67.843 103.803 68.6326 103.457 70.5166C103.457 70.5166 104.513 68.7694 105.823 67.843Z" fill="black"/>
</g>
<path d="M109.819 81.5015C110.146 81.3551 110.539 81.2423 110.844 81.4391C110.974 81.5424 111.068 81.683 111.115 81.8418C111.162 82.0007 111.159 82.1702 111.106 82.3271C110.991 82.6383 110.814 82.9226 110.585 83.1623C111.16 82.6818 111.895 82.435 112.644 82.4711C112.884 82.4831 113.187 82.5695 113.249 82.8071C113.259 82.8925 113.251 82.979 113.227 83.0615C113.202 83.1439 113.162 83.2206 113.107 83.2871C112.732 83.8707 112.278 84.3997 111.759 84.8591C112.099 84.8484 112.437 84.9183 112.745 85.0631C112.896 85.1398 113.016 85.266 113.086 85.4206C113.155 85.5751 113.17 85.7488 113.127 85.9127C113.045 86.0821 112.917 86.2245 112.757 86.3231C111.796 87.038 110.674 87.5068 109.491 87.6887C108.867 87.8213 108.218 87.7575 107.633 87.5063C107.067 87.2231 106.433 86.7287 106.584 86.1119L106.572 86.2895C106.636 85.2742 106.972 84.2945 107.543 83.4525C108.114 82.6105 108.9 81.9368 109.819 81.5015Z" fill="#ED9FF4"/>
<path d="M106.651 86.6398L106.699 86.611L106.834 86.5174L107.045 86.3734C107.129 86.3206 107.223 86.2558 107.331 86.191C107.439 86.1262 107.554 86.0542 107.686 85.9846C107.818 85.915 107.955 85.8406 108.101 85.7662C108.425 85.6078 108.757 85.4684 109.097 85.3486C109.438 85.2324 109.785 85.1354 110.136 85.0582C110.299 85.027 110.453 84.9934 110.599 84.9742C110.746 84.955 110.883 84.9358 111.007 84.9214C111.132 84.907 111.247 84.9022 111.343 84.8926C111.439 84.883 111.531 84.8926 111.6 84.8806C111.528 84.8806 111.442 84.8806 111.343 84.8806C111.245 84.8806 111.13 84.8806 111.003 84.9022C110.875 84.9238 110.741 84.9262 110.595 84.9502C110.448 84.9742 110.29 84.9982 110.127 85.0294C109.772 85.1046 109.423 85.2007 109.08 85.3174C108.739 85.4377 108.406 85.5788 108.082 85.7398C107.933 85.8166 107.794 85.8886 107.664 85.963C107.535 86.0374 107.424 86.1094 107.311 86.1766C107.199 86.2438 107.112 86.311 107.031 86.3662C106.949 86.4214 106.877 86.4742 106.822 86.5174L106.695 86.6182L106.651 86.6398Z" fill="#263238"/>
<path d="M108.866 85.4399C108.897 85.4157 108.925 85.3884 108.95 85.3583C109.003 85.3031 109.075 85.2215 109.164 85.1183C109.344 84.9143 109.581 84.6263 109.831 84.2975C110.081 83.9687 110.294 83.6615 110.443 83.4359L110.616 83.1647C110.654 83.0999 110.676 83.0639 110.671 83.0615C110.644 83.0892 110.62 83.1197 110.599 83.1527L110.414 83.4143C110.258 83.6375 110.042 83.9399 109.793 84.2687C109.543 84.5975 109.313 84.8879 109.137 85.0967C109.058 85.1951 108.991 85.2791 108.936 85.3367C108.909 85.3682 108.885 85.4028 108.866 85.4399Z" fill="#263238"/>
<g opacity="0.3">
<path d="M111.758 84.8686C111.758 84.8686 110.126 84.3694 108.996 85.3606C108.996 85.3606 110.498 84.799 111.758 84.8686Z" fill="black"/>
</g>
<path d="M20.0248 97.1784C19.5902 98.5552 19.6002 100.034 20.0536 101.405C21.0904 100.529 22.264 99.0672 22.624 97.7568C22.9945 96.4646 22.9593 95.0899 22.5232 93.8184C21.3555 94.6454 20.4807 95.822 20.0248 97.1784Z" fill="#455A64"/>
<path d="M20.6133 99.3599C20.6152 99.2793 20.6241 99.199 20.6397 99.1199C20.6613 98.9711 20.6997 98.7599 20.7549 98.4983C20.8961 97.8174 21.0812 97.1464 21.3093 96.4895C21.5366 95.8335 21.8043 95.1923 22.1109 94.5695C22.2285 94.3295 22.3293 94.1399 22.4037 94.0103C22.4384 93.9416 22.4786 93.8758 22.5237 93.8135C22.4986 93.8864 22.4673 93.9571 22.4301 94.0247C22.3653 94.1591 22.2717 94.3535 22.1589 94.5935C21.9357 95.0735 21.6477 95.7527 21.3813 96.5135C21.1562 97.1681 20.9647 97.8337 20.8077 98.5079C20.7453 98.7671 20.6997 98.9759 20.6685 99.1223C20.6565 99.2028 20.638 99.2823 20.6133 99.3599Z" fill="#263238"/>
<path d="M13.8985 98.371C13.4628 99.7472 13.4703 101.226 13.9201 102.597C14.9593 101.721 16.1329 100.257 16.4929 98.9494C16.8524 97.6295 16.8056 96.2318 16.3585 94.939C15.1992 95.797 14.3387 96.9975 13.8985 98.371Z" fill="#455A64"/>
<path d="M14.4863 100.56C14.4885 100.479 14.4974 100.399 14.5127 100.32C14.5343 100.173 14.5727 99.9599 14.6279 99.7007C14.7709 99.0163 14.956 98.3414 15.1823 97.6799C15.4092 97.0238 15.6769 96.3825 15.9839 95.7599C16.1039 95.5199 16.2047 95.3303 16.2767 95.2007C16.3121 95.1311 16.353 95.0644 16.3991 95.0015C16.3749 95.0755 16.3436 95.1471 16.3055 95.2151C16.2383 95.3471 16.1447 95.5415 16.0343 95.7839C15.7431 96.4104 15.4835 97.0512 15.2567 97.7039C14.9927 98.4695 14.8031 99.1799 14.6807 99.6983C14.6207 99.9551 14.5751 100.178 14.5439 100.313C14.5333 100.397 14.514 100.48 14.4863 100.56Z" fill="#263238"/>
<path d="M10.3339 94.2263C9.22162 93.3062 8.42726 92.0593 8.06348 90.6624C9.40988 90.8328 11.1835 91.4232 12.2011 92.328C13.2189 93.2385 13.939 94.4344 14.2675 95.76C12.828 95.6736 11.452 95.1371 10.3339 94.2263Z" fill="#455A64"/>
<path d="M9.64258 92.0784C9.6882 92.1408 9.73791 92.2001 9.79138 92.256C9.88978 92.3688 10.0314 92.5248 10.2234 92.7144C10.7127 93.2085 11.233 93.671 11.781 94.0992C12.3271 94.5291 12.9003 94.9236 13.497 95.28C13.737 95.4168 13.9146 95.52 14.0466 95.5896C14.113 95.6294 14.1829 95.6631 14.2554 95.6904C14.1957 95.6418 14.1314 95.5992 14.0634 95.5632C13.9338 95.4864 13.7514 95.376 13.5258 95.232C13.077 94.9488 12.4674 94.5384 11.829 94.032C11.1906 93.5256 10.6458 93.0384 10.2618 92.6688L9.81298 92.2272C9.76099 92.1723 9.70394 92.1225 9.64258 92.0784Z" fill="#263238"/>
<path d="M16.245 92.6182C15.1325 91.6983 14.3381 90.4513 13.9746 89.0542C15.321 89.2246 17.0946 89.8174 18.1146 90.7198C19.1321 91.6336 19.8519 92.8316 20.181 94.159C18.7398 94.0711 17.3629 93.532 16.245 92.6182Z" fill="#455A64"/>
<path d="M15.5566 90.48C15.5998 90.5436 15.6488 90.6031 15.703 90.6576C15.8014 90.7704 15.943 90.9264 16.1374 91.1184C16.6266 91.611 17.146 92.0727 17.6926 92.5008C18.2399 92.9303 18.8139 93.3247 19.411 93.6816C19.651 93.8184 19.8286 93.9216 19.9606 93.9912C20.0244 94.0263 20.0911 94.056 20.1598 94.08C20.0982 94.0329 20.0333 93.9904 19.9654 93.9528C19.8382 93.8784 19.6534 93.7656 19.4302 93.624C18.8441 93.2528 18.2769 92.8523 17.731 92.424C17.1862 91.9969 16.6639 91.5419 16.1662 91.0608C15.9742 90.8784 15.8206 90.7272 15.715 90.6192C15.6662 90.5685 15.6132 90.5219 15.5566 90.48Z" fill="#263238"/>
<path d="M26.7934 94.0799C26.7363 94.0672 26.6786 94.0576 26.6206 94.0511L26.1237 93.9815L25.7638 93.9335C25.6318 93.9191 25.4854 93.9119 25.3318 93.8975C25.0222 93.8759 24.6718 93.8375 24.2806 93.8327L23.6662 93.8159C23.455 93.8159 23.2317 93.8159 23.0013 93.8159C22.5429 93.8159 22.0413 93.8519 21.5373 93.8855C20.4203 93.9828 19.3107 94.1528 18.2158 94.3943C17.1244 94.6504 16.0509 94.9775 15.0022 95.3735C14.5222 95.5679 14.0638 95.7431 13.651 95.9447C13.4422 96.0407 13.2382 96.1295 13.0486 96.2255L12.5037 96.5063C12.1533 96.6815 11.8509 96.8663 11.5821 97.0223C11.4501 97.0991 11.323 97.1711 11.2102 97.2407L10.9054 97.4399L10.4878 97.7159C10.4373 97.7467 10.3891 97.7812 10.3438 97.8191C10.3969 97.7949 10.4483 97.7668 10.4974 97.7351L10.927 97.4735L11.2366 97.2839C11.3494 97.2167 11.4766 97.1471 11.611 97.0727C11.8822 96.9239 12.1846 96.7415 12.5374 96.5735L13.0821 96.2975C13.2741 96.2039 13.4782 96.1175 13.6846 96.0239C14.0998 95.8271 14.5582 95.6543 15.0358 95.4623C16.0821 95.0739 17.1523 94.7533 18.2398 94.5023C19.3294 94.261 20.4332 94.0886 21.5445 93.9863C22.0581 93.9503 22.5454 93.9071 23.0037 93.9047C23.2437 93.9047 23.455 93.8903 23.6662 93.8927L24.2782 93.9047C24.667 93.9047 25.0174 93.9359 25.327 93.9527C25.4829 93.9647 25.627 93.9695 25.759 93.9815L26.119 94.0199L26.6182 94.0679C26.6761 94.0773 26.7347 94.0813 26.7934 94.0799Z" fill="#263238"/>
<path d="M7.97008 97.819C6.76615 98.6133 5.84257 99.7661 5.33008 101.114C6.68848 101.09 8.52208 100.697 9.62848 99.9142C10.7368 99.1154 11.5803 98.0027 12.0501 96.7198C10.6084 96.6484 9.18079 97.033 7.97008 97.819Z" fill="#455A64"/>
<path d="M7.04883 99.8782C7.10167 99.8214 7.15776 99.7677 7.21683 99.7174C7.32483 99.6166 7.49043 99.4774 7.69683 99.307C8.77885 98.4327 9.96559 97.6967 11.2296 97.1158C11.4696 97.0054 11.6712 96.9214 11.8104 96.8758C11.8809 96.8435 11.954 96.817 12.0288 96.7966C11.9641 96.8393 11.8949 96.8747 11.8224 96.9022C11.688 96.9646 11.4936 97.0558 11.2536 97.1734C10.7736 97.4134 10.1256 97.747 9.43443 98.1742C8.84704 98.5399 8.27832 98.9348 7.73043 99.3574C7.51923 99.5206 7.35123 99.655 7.23603 99.7486C7.17765 99.7974 7.115 99.8407 7.04883 99.8782Z" fill="#263238"/>
<path d="M16.0799 78.2831C14.5187 77.8835 12.8714 77.9851 11.3711 78.5735C12.4103 79.6775 14.1143 80.8943 15.5951 81.2135C17.0882 81.5318 18.6424 81.3947 20.0567 80.8199C19.03 79.5781 17.6388 78.6906 16.0799 78.2831Z" fill="#455A64"/>
<path d="M13.6797 79.0703C13.7656 79.0689 13.8515 79.0745 13.9365 79.0871C14.1021 79.1015 14.3421 79.1303 14.6349 79.1759C15.4056 79.2954 16.1679 79.4638 16.9173 79.6799C17.6639 79.8923 18.3966 80.1512 19.1109 80.4551C19.3845 80.5727 19.6029 80.6735 19.7517 80.7479C19.8348 80.7822 19.9151 80.8231 19.9917 80.8703C19.9087 80.8484 19.8282 80.8179 19.7517 80.7791C19.6005 80.7143 19.3773 80.6231 19.1013 80.5127C18.3831 80.2266 17.6509 79.9767 16.9077 79.7639C16.0365 79.5239 15.2277 79.3487 14.6493 79.2455C14.3589 79.1927 14.1213 79.1543 13.9557 79.1303C13.862 79.1191 13.7696 79.099 13.6797 79.0703Z" fill="#263238"/>
<path d="M18.585 84.2398C17.1768 84.2639 15.8117 84.7298 14.6826 85.5718C15.8154 86.263 17.5314 86.8966 18.8538 86.8222C20.1861 86.7465 21.4648 86.2715 22.5234 85.459C21.3714 84.6486 19.9933 84.222 18.585 84.2398Z" fill="#455A64"/>
<path d="M16.752 85.4568C16.824 85.4351 16.8979 85.4198 16.9728 85.4112C17.1168 85.3848 17.3256 85.3536 17.5824 85.3248C18.9306 85.1679 20.2933 85.1808 21.6384 85.3632C21.8976 85.3992 22.104 85.4328 22.248 85.4616C22.3229 85.4718 22.3968 85.4887 22.4688 85.512C22.3931 85.5115 22.3176 85.5043 22.2432 85.4904C22.0992 85.4712 21.8904 85.4448 21.6336 85.416C21.1176 85.3584 20.4024 85.3008 19.6128 85.2912C18.9373 85.2862 18.2621 85.315 17.5896 85.3776C17.3304 85.4016 17.1096 85.4232 16.9776 85.44C16.9029 85.4511 16.8275 85.4567 16.752 85.4568Z" fill="#263238"/>
<path d="M21.326 80.0256C21.6335 78.6508 22.3667 77.4078 23.4212 76.4736C23.8676 77.7192 24.1412 79.5288 23.8028 80.8104C23.4612 82.1002 22.7385 83.2569 21.7292 84.1296C21.168 82.8377 21.027 81.4021 21.326 80.0256Z" fill="#455A64"/>
<path d="M22.8887 78.48C22.8532 78.5461 22.8234 78.6151 22.7999 78.6864C22.7447 78.8208 22.6751 79.02 22.5911 79.2672C22.3809 79.9098 22.2102 80.5646 22.0799 81.228C21.9486 81.8937 21.8596 82.567 21.8135 83.244C21.7967 83.5032 21.7895 83.712 21.7871 83.8584C21.7793 83.9334 21.7793 84.009 21.7871 84.084C21.8005 84.0095 21.8085 83.9341 21.8111 83.8584C21.8111 83.7144 21.8375 83.5056 21.8615 83.2464C21.9823 81.9006 22.2429 80.571 22.6391 79.2792C22.7135 79.0392 22.7783 78.8304 22.8239 78.6912C22.8527 78.6232 22.8744 78.5524 22.8887 78.48Z" fill="#263238"/>
<path d="M19.4757 74.4359C20.1142 73.2151 21.1222 72.2272 22.3557 71.6135C22.4613 72.9023 22.2621 74.6807 21.6189 75.8039C20.9673 76.9346 19.9894 77.8422 18.8133 78.4079C18.611 77.0472 18.8428 75.6574 19.4757 74.4359Z" fill="#455A64"/>
<path d="M21.3428 73.3679C21.2913 73.4212 21.2447 73.4791 21.2036 73.5407C21.1196 73.6535 21.002 73.8239 20.8604 74.0351C20.4974 74.5896 20.1688 75.1659 19.8764 75.7607C19.5847 76.3554 19.3306 76.9678 19.1156 77.5943C19.034 77.8343 18.974 78.0311 18.9356 78.1679C18.9122 78.2376 18.8946 78.309 18.8828 78.3815C18.9159 78.316 18.9432 78.2478 18.9644 78.1775C19.01 78.0431 19.0772 77.8487 19.166 77.6111C19.3942 76.9919 19.6537 76.3847 19.9436 75.7919C20.2345 75.2002 20.5549 74.6235 20.9036 74.0639C21.038 73.8479 21.1436 73.6751 21.2252 73.5575C21.2681 73.4966 21.3073 73.4333 21.3428 73.3679Z" fill="#263238"/>
<path d="M30.1895 94.507C30.1895 94.507 30.1751 94.4878 30.1463 94.459L30.0119 94.327L29.4887 93.8398L29.1095 93.4822L28.6727 93.043C28.3607 92.7262 27.9959 92.3758 27.6215 91.9606L27.0239 91.3174C26.8175 91.0918 26.6135 90.8494 26.3975 90.5974C25.9583 90.1174 25.5239 89.5558 25.0583 88.9822C24.0718 87.7176 23.1498 86.4039 22.2959 85.0462C21.4567 83.6808 20.6924 82.2707 20.0063 80.8222C19.7063 80.1454 19.4063 79.5094 19.1735 78.9022C19.0535 78.595 18.9335 78.3022 18.8255 78.0166C18.7175 77.731 18.6263 77.4526 18.5351 77.1886C18.3383 76.6654 18.2039 76.1782 18.0719 75.7486L17.8919 75.1558L17.7599 74.6398C17.6807 74.3422 17.6207 74.1094 17.5775 73.9414C17.5551 73.8662 17.5383 73.8062 17.5271 73.7614C17.5229 73.7405 17.5156 73.7202 17.5055 73.7014C17.5034 73.7222 17.5034 73.7431 17.5055 73.7638C17.5175 73.8118 17.5295 73.8718 17.5463 73.9462C17.5847 74.1142 17.6399 74.3494 17.7119 74.6494C17.7479 74.803 17.7887 74.971 17.8319 75.1558L18.0047 75.7534C18.1295 76.1782 18.2615 76.6678 18.4535 77.1934C18.5423 77.4574 18.6383 77.7358 18.7367 78.0262C18.8351 78.3166 18.9623 78.607 19.0823 78.9142C19.3223 79.5334 19.6079 80.1718 19.9055 80.8486C20.5898 82.3039 21.355 83.7197 22.1975 85.0894C23.0547 86.4553 23.9848 87.774 24.9839 89.0398C25.4639 89.6134 25.8887 90.1654 26.3327 90.6526C26.5511 90.8926 26.7575 91.1326 26.9639 91.3726L27.5687 92.011C27.9479 92.4238 28.3151 92.7718 28.6319 93.0838L29.0759 93.5182L29.4623 93.8686L29.9975 94.3486L30.1391 94.471C30.1549 94.4843 30.1718 94.4964 30.1895 94.507Z" fill="#263238"/>
<path d="M18.1297 65.4527C17.9233 65.0495 17.6137 64.6223 17.1697 64.5815C16.9593 64.5837 16.7546 64.6502 16.583 64.772C16.4114 64.8938 16.2812 65.0652 16.2097 65.2631C16.0772 65.6633 16.029 66.0866 16.0681 66.5063C15.8736 65.5728 15.3357 64.7463 14.5609 64.1903C14.3041 64.0079 13.9417 63.8615 13.6897 64.0511C13.6105 64.1292 13.5483 64.2228 13.507 64.326C13.4657 64.4293 13.4462 64.54 13.4497 64.6511C13.3649 65.5319 13.4013 66.4202 13.5577 67.2911C13.2259 67.0116 12.8329 66.8143 12.4105 66.7151C11.9857 66.6527 11.4841 66.8519 11.3593 67.2647C11.3089 67.497 11.3239 67.7388 11.4025 67.9631C11.7978 69.4354 12.5476 70.7884 13.5865 71.9039C14.1361 72.4943 14.7865 73.0295 15.5857 73.1903C16.3849 73.3511 17.3881 73.3535 17.7337 72.6263L17.6041 72.8111C18.3431 71.7443 18.7818 70.4984 18.8743 69.2039C18.9668 67.9094 18.7096 66.6138 18.1297 65.4527Z" fill="#ED9FF4"/>
<path d="M17.2363 73.0848C17.2258 73.0633 17.2178 73.0408 17.2123 73.0176C17.1955 72.9648 17.1763 72.9 17.1499 72.8208C17.1235 72.7416 17.0947 72.6288 17.0539 72.5088C17.0131 72.3888 16.9699 72.252 16.9123 72.1008C16.8547 71.9496 16.7971 71.7888 16.7227 71.6208C16.6483 71.4528 16.5667 71.2632 16.4827 71.0712C16.2849 70.6589 16.0638 70.2582 15.8203 69.8712C15.5717 69.4867 15.3017 69.1165 15.0115 68.7624C14.8747 68.6016 14.7451 68.448 14.6155 68.3112C14.4859 68.1744 14.3635 68.0496 14.2507 67.9392C14.1379 67.8288 14.0275 67.7304 13.9363 67.644C13.8451 67.5576 13.7587 67.4856 13.6963 67.428L13.5379 67.2936C13.5043 67.2624 13.4851 67.2456 13.4875 67.2432C13.5083 67.2555 13.5284 67.2692 13.5475 67.284L13.7107 67.4088C13.7827 67.4632 13.8627 67.5328 13.9507 67.6176C14.0467 67.7016 14.1595 67.7928 14.2723 67.9056C14.3851 68.0184 14.5123 68.1456 14.6443 68.2776C14.7763 68.4096 14.9083 68.5656 15.0475 68.724C15.3432 69.0792 15.6173 69.4519 15.8683 69.84C16.112 70.2269 16.3332 70.6276 16.5307 71.04C16.6171 71.2344 16.7011 71.4168 16.7707 71.5944C16.8403 71.772 16.9027 71.9328 16.9555 72.0744C17.0083 72.216 17.0515 72.3648 17.0875 72.4872C17.1235 72.6096 17.1547 72.7152 17.1763 72.8016C17.1979 72.888 17.2123 72.9504 17.2267 73.0032C17.2335 73.0298 17.2368 73.0573 17.2363 73.0848Z" fill="#263238"/>
<path d="M15.9813 70.1278C15.9683 70.0793 15.9618 70.0292 15.9621 69.979C15.9621 69.883 15.9453 69.739 15.9357 69.5734C15.9189 69.2302 15.9069 68.7526 15.9189 68.227C15.9309 67.7014 15.9573 67.2262 15.9885 66.883C16.0029 66.7126 16.0173 66.5734 16.0317 66.4774C16.0345 66.4271 16.0425 66.3772 16.0557 66.3286C16.0603 66.3789 16.0603 66.4295 16.0557 66.4798C16.0557 66.5878 16.0413 66.7198 16.0317 66.8854C16.0125 67.2286 15.9909 67.7038 15.9789 68.2294C15.9669 68.755 15.9789 69.2278 15.9789 69.571C15.9789 69.7342 15.9789 69.871 15.9789 69.979C15.9849 70.0284 15.9857 70.0783 15.9813 70.1278Z" fill="#263238"/>
<g opacity="0.3">
<path d="M13.541 67.2839C13.541 67.2839 15.5618 68.0735 15.9074 69.9551C15.9074 69.9551 14.8514 68.2079 13.541 67.2839Z" fill="black"/>
</g>
<path d="M9.54511 80.9422C9.21871 80.7934 8.82511 80.683 8.52031 80.8774C8.39107 80.9808 8.29668 81.1215 8.2499 81.2803C8.20312 81.4391 8.20619 81.6084 8.25871 81.7654C8.37245 82.0776 8.54979 82.3629 8.77951 82.603C8.20495 82.1207 7.46956 81.873 6.72031 81.9094C6.48031 81.9094 6.17791 82.0078 6.11551 82.2478C6.1057 82.3332 6.11319 82.4197 6.13751 82.5022C6.16184 82.5847 6.20251 82.6614 6.25711 82.7278C6.63226 83.3113 7.08614 83.8403 7.60591 84.2998C7.26571 84.2901 6.92795 84.36 6.61951 84.5038C6.46685 84.5812 6.34569 84.7091 6.27657 84.8657C6.20745 85.0223 6.19464 85.198 6.24031 85.363C6.323 85.5315 6.45099 85.6736 6.60991 85.7734C7.57114 86.4876 8.69258 86.9556 9.87631 87.1366C10.4993 87.2688 11.1479 87.2059 11.7339 86.9566C12.3003 86.671 12.9339 86.1766 12.7827 85.5598V85.7374C12.7211 84.7216 12.3883 83.741 11.8188 82.8976C11.2494 82.0542 10.4642 81.379 9.54511 80.9422Z" fill="#ED9FF4"/>
<path d="M12.7199 86.0832L12.6719 86.052L12.5375 85.9608C12.4799 85.92 12.4103 85.8696 12.3263 85.8168C12.2423 85.764 12.1487 85.6968 12.0407 85.6344C11.9327 85.572 11.8151 85.4976 11.6855 85.4256C11.5559 85.3536 11.4167 85.2816 11.2703 85.2072C10.9463 85.0498 10.6138 84.9104 10.2743 84.7896C9.93399 84.6729 9.58697 84.5768 9.23513 84.5016C9.07193 84.468 8.91833 84.4368 8.77193 84.4176C8.62553 84.3984 8.48873 84.3768 8.36393 84.3648C8.23913 84.3528 8.12393 84.3432 8.02793 84.336C7.93193 84.3288 7.84073 84.336 7.77113 84.3216H7.61033H7.55273H7.77113C7.85667 84.317 7.9424 84.317 8.02793 84.3216C8.12873 84.3216 8.24153 84.3216 8.36873 84.3432C8.49593 84.3648 8.63033 84.3672 8.77673 84.3888C8.92313 84.4104 9.08153 84.4392 9.25673 84.468C9.61094 84.5431 9.96036 84.6393 10.3031 84.756C10.6363 84.8741 10.9624 85.0111 11.2799 85.1663C11.4287 85.2431 11.5679 85.3152 11.6975 85.392C11.8271 85.4688 11.9375 85.5384 12.0503 85.6056C12.1631 85.6728 12.2495 85.7376 12.3311 85.7952C12.4034 85.8418 12.4731 85.8923 12.5399 85.9463L12.6671 86.0448L12.7199 86.0832Z" fill="#263238"/>
<path d="M10.4969 84.871C10.4662 84.8468 10.438 84.8195 10.4129 84.7894C10.3601 84.7342 10.2881 84.6526 10.1993 84.5494C10.0193 84.3454 9.78173 84.0574 9.53213 83.7286C9.28253 83.3998 9.06893 83.0902 8.92013 82.8646C8.84573 82.7518 8.78813 82.6582 8.74733 82.5934C8.70653 82.5286 8.68733 82.4926 8.69213 82.4902C8.71975 82.5185 8.74392 82.5499 8.76413 82.5838L8.94893 82.8454C9.10493 83.0662 9.32093 83.371 9.57053 83.6974C9.82013 84.0238 10.0505 84.3166 10.2257 84.5254C10.3049 84.6262 10.3721 84.7078 10.4273 84.7654C10.4551 84.7974 10.4785 84.8329 10.4969 84.871Z" fill="#263238"/>
<g opacity="0.3">
<path d="M7.60547 84.3071C7.60547 84.3071 9.23747 83.8079 10.3679 84.7991C10.3679 84.7991 8.86547 84.2399 7.60547 84.3071Z" fill="black"/>
</g>
<path d="M94.3557 14.2344H25.8789V106.975H94.3557V14.2344Z" fill="#455A64"/>
<path d="M94.3583 106.975C94.3583 106.476 94.3343 69.1416 94.3007 14.2344L94.3583 14.292H25.8887L25.9511 14.2296C25.9511 48.8352 25.9511 80.892 25.9511 106.97L25.8983 106.92L94.3775 106.97L25.8983 107.021H25.8479V106.97C25.8479 80.892 25.8479 48.8352 25.8359 14.2296V14.1672H25.9079H94.3775H94.4327V14.2248C94.3799 69.1416 94.3583 106.476 94.3583 106.975Z" fill="#263238"/>
<path d="M84.5977 24.4944H34.9033V96.3768H84.5977V24.4944Z" fill="white"/>
<path d="M84.5998 96.3768C84.5998 95.8704 84.5758 66.9048 84.5422 24.4944L84.5998 24.552H34.9198L34.9822 24.4896C34.9822 51.4944 34.9822 76.44 34.9702 96.372L34.9198 96.3216L84.6166 96.372L34.9198 96.4224H34.8694V96.372C34.8694 76.44 34.8694 51.492 34.8574 24.4896V24.4272H34.927H84.607H84.6622V24.4848C84.6214 66.9048 84.5998 95.8704 84.5998 96.3768Z" fill="#263238"/>
<path d="M35.5007 96.2135C35.5271 96.2375 33.3935 98.6639 30.7368 101.635C28.0799 104.606 25.9055 106.999 25.8791 106.975C25.8527 106.951 27.9863 104.525 30.6431 101.554C33.2999 98.5823 35.4743 96.1919 35.5007 96.2135Z" fill="#263238"/>
<path d="M94.3582 14.6784C94.3822 14.7024 92.2486 17.0304 89.5918 19.8792C86.935 22.728 84.763 25.02 84.7366 24.996C84.7102 24.972 86.8438 22.644 89.5006 19.7952C92.1574 16.9464 94.3318 14.6544 94.3582 14.6784Z" fill="#263238"/>
<path d="M25.8889 14.2346C25.9153 14.2106 28.0873 16.601 30.7417 19.5722C33.3961 22.5434 35.5273 24.9722 35.5009 24.9962C35.4745 25.0202 33.3025 22.6298 30.6481 19.6562C27.9937 16.6826 25.8625 14.2586 25.8889 14.2346Z" fill="#263238"/>
<path d="M84.7364 96.2138C84.7628 96.1922 86.9372 98.5826 89.594 101.554C92.2508 104.525 94.382 106.951 94.358 106.975C94.334 106.999 92.1572 104.609 89.5004 101.635C86.8436 98.6618 84.7196 96.2402 84.7364 96.2138Z" fill="#263238"/>
<path d="M82.25 26.6567H37.25V94.5527H82.25V26.6567Z" fill="#E0E0E0"/>
<path d="M75.1195 66.3817C75.1096 66.2358 75.065 66.0944 74.9895 65.9691C74.9139 65.8439 74.8096 65.7385 74.6851 65.6617C70.8451 63.1177 67.9435 57.4777 67.6531 52.7017C67.6531 52.4305 67.6363 52.1545 67.6267 51.8761C67.4035 45.0481 66.3979 36.7561 65.4955 34.5625C63.8299 30.4825 58.1851 30.1033 58.1851 30.1033C50.6899 29.5657 49.3507 35.3257 48.5851 40.5697C48.1051 43.8313 46.3027 55.4833 46.3027 55.4833L47.6803 56.0185C48.4719 58.3993 49.7818 60.5747 51.5158 62.388C53.2498 64.2012 55.3645 65.607 57.7075 66.5041C59.0875 67.0249 60.2587 67.2241 60.8059 66.7849C62.996 69.0142 65.7062 70.6637 68.6923 71.5849C69.8947 71.9915 71.1647 72.1602 72.4315 72.0817C73.2499 72.0049 74.1115 71.7361 74.5915 71.0737C74.8032 70.787 74.9291 70.446 74.9543 70.0905C74.9796 69.735 74.9032 69.3797 74.7341 69.0659C74.5651 68.7522 74.3102 68.493 73.9994 68.3186C73.6886 68.1442 73.3346 68.0618 72.9787 68.0809C73.2811 67.1473 75.1507 67.4185 75.1195 66.3817Z" fill="#263238"/>
<path d="M59.181 32.2225L58.701 31.7761L53.6346 33.8185C53.281 33.8376 52.9473 33.9888 52.6997 34.2421C52.4522 34.4954 52.3088 34.8325 52.2979 35.1865L52.3435 51.6961C52.3435 52.8145 52.5595 53.7841 53.2363 54.6769L53.9563 55.6177C55.5787 57.7585 58.9147 57.5833 60.1963 55.2217C60.2734 55.0883 60.3331 54.9456 60.3738 54.7969C60.4063 54.6752 60.4319 54.5518 60.4507 54.4273C60.5995 53.0977 60.609 51.9457 60.609 51.9457C60.7002 50.4889 60.729 49.8889 60.729 49.9033C60.729 49.9177 63.8323 49.5457 64.6723 45.5641C65.0899 43.5817 65.0107 40.8577 64.8931 38.1745C64.7395 34.4617 62.1594 32.2201 59.181 32.2225Z" fill="#FFBE9D"/>
<path d="M58.1419 40.3992C58.1363 40.5331 58.0788 40.6596 57.9816 40.7518C57.8844 40.8441 57.7551 40.8949 57.6211 40.8936C57.5562 40.8955 57.4915 40.8846 57.4308 40.8615C57.3701 40.8384 57.3145 40.8036 57.2672 40.759C57.22 40.7144 57.182 40.661 57.1554 40.6017C57.1288 40.5424 57.1142 40.4785 57.1123 40.4136C57.1179 40.2793 57.1757 40.1524 57.2735 40.0601C57.3712 39.9677 57.5011 39.9172 57.6355 39.9192C57.7007 39.9156 57.766 39.9253 57.8273 39.9479C57.8886 39.9704 57.9447 40.0052 57.9921 40.0501C58.0395 40.095 58.0773 40.1492 58.103 40.2092C58.1288 40.2692 58.142 40.3339 58.1419 40.3992Z" fill="#263238"/>
<path d="M63.3816 40.5384C63.3766 40.6729 63.319 40.8001 63.2211 40.8926C63.1233 40.9851 62.993 41.0354 62.8584 41.0328C62.7935 41.0347 62.7288 41.0238 62.6681 41.0007C62.6074 40.9776 62.5518 40.9428 62.5045 40.8982C62.4573 40.8537 62.4193 40.8002 62.3927 40.7409C62.3661 40.6817 62.3515 40.6177 62.3496 40.5528C62.3552 40.4185 62.413 40.2916 62.5108 40.1993C62.6085 40.107 62.7384 40.0564 62.8728 40.0584C62.9378 40.0562 63.0026 40.0668 63.0635 40.0898C63.1244 40.1128 63.18 40.1476 63.2274 40.1922C63.2747 40.2369 63.3127 40.2904 63.3392 40.3499C63.3656 40.4093 63.3801 40.4734 63.3816 40.5384Z" fill="#263238"/>
<path d="M64.3722 39.2352C64.305 39.3 63.9306 38.9952 63.3762 38.964C62.8218 38.9328 62.4018 39.204 62.3442 39.1248C62.2866 39.0456 62.3874 38.9736 62.5842 38.8536C62.832 38.6997 63.1211 38.626 63.4122 38.6424C63.7005 38.6567 63.9768 38.7617 64.2018 38.9424C64.353 39.0816 64.4058 39.2064 64.3722 39.2352Z" fill="#263238"/>
<path d="M58.7498 39.2928C58.6754 39.348 58.3346 39.0048 57.7898 38.9208C57.245 38.8368 56.7986 39.0504 56.7482 38.9736C56.7242 38.94 56.8058 38.8296 57.0026 38.7336C57.2647 38.6061 57.5597 38.5625 57.8474 38.6088C58.1331 38.6522 58.3978 38.7849 58.6034 38.988C58.7474 39.1392 58.7858 39.2664 58.7498 39.2928Z" fill="#263238"/>
<path d="M60.6863 43.3273C60.9826 43.2502 61.2874 43.2107 61.5935 43.2097C61.7351 43.2097 61.8719 43.1809 61.9007 43.0849C61.9199 42.9391 61.894 42.7908 61.8263 42.6601L61.4615 41.5633C60.9575 39.9985 60.5999 38.7169 60.6623 38.6977C60.7247 38.6785 61.1855 39.9289 61.6919 41.4913C61.8119 41.8785 61.9271 42.2465 62.0375 42.5953C62.1174 42.7707 62.1335 42.9685 62.0831 43.1545C62.0604 43.2029 62.0269 43.2455 61.9854 43.2792C61.9438 43.3128 61.8952 43.3367 61.8431 43.3489C61.7645 43.3668 61.6837 43.3741 61.6031 43.3705C61.2969 43.3948 60.9889 43.3803 60.6863 43.3273Z" fill="#263238"/>
<path d="M60.739 49.9032C58.8467 49.837 57.0098 49.2471 55.4326 48.1992C55.4326 48.1992 56.6398 51.048 60.6838 50.88L60.739 49.9032Z" fill="#EB996E"/>
<path d="M60.3835 44.6402C60.2848 44.5022 60.1526 44.3918 59.9993 44.3191C59.846 44.2465 59.6768 44.2141 59.5075 44.225C59.3844 44.2299 59.2635 44.2596 59.1522 44.3124C59.0408 44.3652 58.9413 44.4399 58.8595 44.5322C58.7816 44.6211 58.7325 44.7316 58.7188 44.849C58.7051 44.9665 58.7274 45.0853 58.7827 45.1898C58.8672 45.294 58.9808 45.3707 59.1091 45.41C59.2373 45.4494 59.3744 45.4495 59.5027 45.4106C59.7659 45.3293 60.0105 45.1972 60.2227 45.0218C60.2885 44.9814 60.3457 44.9284 60.3907 44.8658C60.4113 44.8353 60.4222 44.7993 60.4222 44.7626C60.4222 44.7258 60.4113 44.6899 60.3907 44.6594" fill="#EB996E"/>
<path d="M59.0402 43.6273C59.1314 43.6273 59.1026 44.2297 59.5946 44.6809C60.0866 45.1321 60.7322 45.1009 60.7322 45.1849C60.7322 45.2233 60.5834 45.2953 60.3122 45.2881C59.9565 45.2775 59.6161 45.1405 59.3522 44.9017C59.1018 44.674 58.9488 44.3585 58.925 44.0209C58.9202 43.7689 58.9946 43.6225 59.0402 43.6273Z" fill="#263238"/>
<path d="M59.2795 37.1329C59.2027 37.2721 58.6651 37.1185 58.0099 37.0969C57.3547 37.0753 56.8099 37.1713 56.7427 37.0249C56.7139 36.9553 56.8267 36.8281 57.0595 36.7177C57.3665 36.5834 57.7001 36.521 58.0349 36.5352C58.3697 36.5493 58.6969 36.6396 58.9915 36.7993C59.2123 36.9289 59.3131 37.0657 59.2795 37.1329Z" fill="#263238"/>
<path d="M64.2935 36.8544C64.1903 36.9744 63.8135 36.8256 63.3551 36.7968C62.8967 36.768 62.5031 36.8376 62.4215 36.7008C62.3855 36.636 62.4527 36.5136 62.6279 36.4032C62.8634 36.272 63.1326 36.2136 63.4013 36.2354C63.67 36.2572 63.9262 36.3582 64.1375 36.5256C64.2935 36.6624 64.3391 36.7944 64.2935 36.8544Z" fill="#263238"/>
<path d="M52.4107 42.24C52.4107 42.24 55.2499 43.1232 56.8555 36.1176C57.4051 33.7176 59.6251 31.7832 59.6251 31.7832L58.7251 31.512C58.7251 31.512 53.1283 33.0888 53.0347 33.1584C52.9411 33.228 51.6211 36.0552 51.6211 36.0552L52.4107 42.24Z" fill="#263238"/>
<path d="M53.1117 41.9713C53.1261 41.6737 52.8141 40.9513 52.5213 40.8889C51.7389 40.7281 50.3157 40.7185 50.2005 42.7201C50.0469 45.4585 52.8261 45.0505 52.8405 44.9713C52.8549 44.8921 53.0613 43.0033 53.1117 41.9713Z" fill="#FFBE9D"/>
<path d="M52.0587 43.8864C52.0587 43.8864 52.0083 43.9176 51.9267 43.9488C51.8692 43.9704 51.808 43.9805 51.7467 43.9785C51.6853 43.9764 51.6249 43.9622 51.5691 43.9368C51.2859 43.8144 51.0675 43.3416 51.0891 42.8472C51.0954 42.6125 51.1536 42.3822 51.2595 42.1728C51.2898 42.0887 51.3402 42.0132 51.4063 41.953C51.4723 41.8928 51.5521 41.8496 51.6387 41.8272C51.6946 41.8146 51.7531 41.8224 51.8037 41.8493C51.8544 41.8761 51.8937 41.9202 51.9147 41.9736C51.9459 42.0528 51.9267 42.1056 51.9387 42.1104C51.9507 42.1152 52.0011 42.0696 51.9867 41.9544C51.9742 41.886 51.9397 41.8236 51.8883 41.7768C51.8155 41.7155 51.7215 41.6853 51.6267 41.6928C51.5131 41.7083 51.4054 41.7529 51.3142 41.8223C51.2229 41.8916 51.1512 41.9834 51.1059 42.0888C50.9756 42.3191 50.9039 42.5778 50.8971 42.8424C50.8827 43.3944 51.1371 43.9272 51.5259 44.064C51.598 44.0891 51.6749 44.0979 51.7509 44.0896C51.8269 44.0813 51.9 44.0561 51.9651 44.016C52.0491 43.9536 52.0803 43.8912 52.0587 43.8864Z" fill="#EB996E"/>
<path d="M54.3359 40.8937C54.4741 40.873 54.6111 40.845 54.7463 40.8097C55.1102 40.6993 55.4437 40.5062 55.7207 40.2457C55.9131 40.0671 56.0839 39.8665 56.2295 39.6481C56.3942 39.3966 56.5325 39.1288 56.6423 38.8489C56.8789 38.1982 57.076 37.5338 57.2327 36.8593C57.4089 36.1868 57.6188 35.5236 57.8615 34.8721C58.0632 34.3391 58.3039 33.8218 58.5815 33.3241C58.7671 32.9895 58.9764 32.6687 59.2079 32.3641C59.2871 32.2537 59.3591 32.1769 59.4047 32.1241C59.4262 32.0955 59.4503 32.069 59.4767 32.0449C59.459 32.0766 59.4381 32.1063 59.4143 32.1337C59.3735 32.1937 59.3063 32.2729 59.2295 32.3737C59.0094 32.6816 58.8074 33.0022 58.6247 33.3337C58.3575 33.832 58.1257 34.3485 57.9311 34.8793C57.7055 35.4769 57.4991 36.1489 57.3071 36.8617C57.1516 37.5396 56.9519 38.2066 56.7095 38.8585C56.5957 39.1411 56.4534 39.4113 56.2847 39.6649C56.1347 39.8849 55.9591 40.0864 55.7615 40.2649C55.4761 40.5276 55.1322 40.7185 54.7583 40.8217C54.6216 40.8652 54.4794 40.8895 54.3359 40.8937Z" fill="#263238"/>
<path d="M50.5965 52.5721C50.5808 52.5287 50.5703 52.4836 50.5653 52.4377L50.4981 52.0489C50.4381 51.6985 50.3565 51.1993 50.2581 50.5633H50.3253C50.3373 50.6641 50.3541 50.7745 50.3685 50.8873C50.3853 50.9233 50.4069 50.9665 50.4261 51.0097L50.3565 51.0337C49.6771 48.6747 49.3258 46.2333 49.3125 43.7785C49.3125 42.7777 49.3125 41.7145 49.5837 40.6585C49.6921 40.2242 49.8592 39.8067 50.0805 39.4177C50.2981 39.0423 50.5513 38.6887 50.8365 38.3617C51.3933 37.7185 51.9933 37.1617 52.5405 36.6169L55.4805 33.7369L57.4677 31.7953L58.0125 31.2721L58.1565 31.1377L58.2093 31.0945C58.2093 31.0945 58.1973 31.1137 58.1661 31.1473L58.0317 31.2889L57.5037 31.8289C57.0237 32.3089 56.3637 32.9713 55.5429 33.7993L52.6221 36.7081C52.0773 37.2601 51.4773 37.8169 50.9301 38.4529C50.3465 39.0921 49.9258 39.8627 49.7037 40.6993C49.4421 41.7385 49.4445 42.7969 49.4325 43.7929C49.4429 46.2383 49.7779 48.6716 50.4285 51.0289L50.3589 51.0553L50.3037 50.9305C50.2893 50.8153 50.2749 50.7049 50.2629 50.6065H50.3277C50.4213 51.2425 50.4933 51.7441 50.5437 52.0969C50.5653 52.2625 50.5821 52.3921 50.5965 52.4881C50.5976 52.5161 50.5976 52.5441 50.5965 52.5721Z" fill="#455A64"/>
<path d="M48.4414 39.9169C48.4517 39.8764 48.4679 39.8376 48.4894 39.8017C48.5326 39.7153 48.5854 39.6097 48.6478 39.4801C48.787 39.2017 49.0054 38.8081 49.2934 38.3305C49.5814 37.8529 49.9438 37.2961 50.3758 36.6985C50.8078 36.1009 51.319 35.4697 51.8854 34.8337C52.4518 34.1977 53.035 33.6337 53.5774 33.1369C54.1198 32.6401 54.6382 32.2201 55.0846 31.8865C55.531 31.5529 55.8982 31.2913 56.1622 31.1233L56.4646 30.9289C56.4989 30.906 56.535 30.8859 56.5726 30.8689C56.5726 30.8689 56.5438 30.9001 56.4766 30.9505L56.1886 31.1617C55.9342 31.3417 55.5742 31.6129 55.1398 31.9561C54.7054 32.2993 54.1966 32.7265 53.6566 33.2209C53.1166 33.7153 52.5454 34.2889 51.9766 34.9177C51.4078 35.5465 50.9062 36.1801 50.467 36.7657C50.0278 37.3513 49.6606 37.9057 49.3654 38.3761C49.0702 38.8465 48.8398 39.2329 48.6886 39.5041L48.5086 39.8137C48.4898 39.8503 48.4672 39.8849 48.4414 39.9169Z" fill="#455A64"/>
<path d="M51.5762 51.5352C51.6722 51.396 52.3106 50.1648 52.3106 50.1648L55.9202 53.28C55.9202 53.28 59.4674 56.2488 59.4674 56.0568L60.0338 53.2008L60.7298 50.5992L62.0306 52.5672C62.0306 52.5672 66.1106 60.5832 66.1106 60.6792C66.1106 60.7752 68.6426 69.0792 68.6426 69.0792L68.0978 72.4392L68.033 84.3552L60.4082 84.036L58.9034 81.636L56.3282 66.3528L51.5762 51.5352Z" fill="white"/>
<path d="M60.1203 81.792H68.5322L71.0115 94.572H54.1562L60.1203 81.792Z" fill="#263238"/>
<path d="M50.1956 53.5202L45.2852 55.3634L49.8212 75.5642C49.8212 75.5642 49.5548 81.0218 48.59 83.8034C47.6252 86.585 45.3596 94.5722 45.3596 94.5722H60.446C60.446 94.5722 61.0868 83.609 60.8324 79.6922C60.578 75.7754 60.6836 68.393 59.1836 64.541C57.6836 60.689 51.6716 51.2234 51.6716 51.2234L50.1956 53.5202Z" fill="#ED9FF4"/>
<path d="M60.96 50.8296L63.1848 52.668L69.2952 53.5776C69.2952 53.5776 72.1872 64.0536 71.652 68.172C71.1168 72.2904 71.8632 79.4208 71.8632 79.4208L74.5416 94.572H68.6616C68.6616 94.572 66.9816 76.8528 66.8832 77.0664C66.7848 77.28 66.4608 68.4 65.82 65.52C65.1792 62.64 61.944 53.5872 61.944 53.5872L60.96 50.8296Z" fill="#ED9FF4"/>
<path d="M77.001 76.9056C77.001 76.9056 79.4634 75.7824 79.4634 73.5888C79.4634 71.3952 77.9634 68.292 77.6442 67.1088C77.325 65.9256 70.0458 53.412 69.297 53.5728L68.5482 53.7336L72.4003 70.6416L67.1562 71.9256L69.3931 78.3624L77.001 76.9056Z" fill="#ED9FF4"/>
<path d="M69.4941 71.4409L70.5741 67.9465L70.7589 65.5657L73.3005 63.8857C73.3005 63.8857 73.9821 63.9649 73.7805 64.4929C73.5789 65.0209 72.5397 65.9713 72.5397 65.9713L71.9325 67.6681L72.9189 65.9449L74.3589 65.2249L75.7869 65.3305C75.7869 65.3305 76.0509 65.9641 75.3909 65.9905H74.6709L73.5861 66.8641L72.9093 68.5009L73.9293 66.9169L75.4365 66.3817L76.3965 66.6217C76.3965 66.6217 76.6605 67.0441 76.1853 67.1017C75.7101 67.1593 75.3933 67.1545 75.3933 67.1545L74.5221 67.6609L73.7541 69.2689L75.1029 68.1577L76.8453 67.9489C76.8453 67.9489 77.1381 68.3689 76.6869 68.5273C76.2275 68.716 75.7781 68.9283 75.3405 69.1633L74.3613 70.3513L69.4941 71.4409Z" fill="#FFBE9D"/>
<path d="M60.8929 81.7921C60.8808 81.7669 60.872 81.7403 60.8665 81.7129C60.8521 81.6553 60.8305 81.5761 60.8065 81.4729C60.7513 81.2593 60.6769 80.9569 60.5665 80.5705C60.3721 79.7761 60.0865 78.6505 59.7457 77.2393C59.4049 75.8281 58.9801 74.1625 58.5049 72.3097C58.2649 71.3833 58.0105 70.4113 57.7321 69.4057C57.5953 68.9041 57.4513 68.3953 57.2953 67.8817C57.2185 67.6249 57.1321 67.3681 57.0553 67.1089C56.9651 66.8526 56.8602 66.6018 56.7409 66.3577C55.8409 64.5505 54.9217 62.8489 54.1009 61.2793C53.2801 59.7097 52.4977 58.2841 51.8353 57.0505L51.8185 57.0169L51.8449 56.9929C52.0129 56.8417 52.1785 56.7001 52.3441 56.5657C52.4256 56.4971 52.5114 56.4338 52.6009 56.3761L52.6393 56.3545H52.6633C52.6633 56.3545 52.6633 56.3545 52.6489 56.3713C52.6449 56.3818 52.6452 56.3934 52.6497 56.4037C52.6542 56.414 52.6625 56.4222 52.6729 56.4265H52.6057H52.4569C52.0585 56.4265 51.6841 56.4265 51.3385 56.4265H51.3121V56.4025C50.9617 55.4977 50.6857 54.7801 50.4937 54.2809L50.2801 53.7193L50.2273 53.5729L50.2129 53.5225C50.2129 53.5225 50.2129 53.5369 50.2369 53.5681L50.2993 53.7121L50.5393 54.2665C50.7385 54.7633 51.0193 55.4665 51.3913 56.3761L51.3553 56.3521C51.7033 56.3521 52.0753 56.3329 52.4761 56.3329H52.6273C52.6561 56.3307 52.6849 56.3307 52.7137 56.3329H52.7281C52.7343 56.339 52.7386 56.3467 52.7408 56.3552C52.7429 56.3637 52.7426 56.3725 52.7401 56.3809C52.7257 56.4073 52.7281 56.3977 52.7233 56.4025H52.7017H52.6897C52.6796 56.4072 52.6699 56.4128 52.6609 56.4193C52.5766 56.4751 52.4964 56.5369 52.4209 56.6041C52.2601 56.7385 52.0945 56.8801 51.9409 57.0313V56.9737C52.6057 58.2049 53.3809 59.6305 54.2257 61.1929C55.0705 62.7553 55.9825 64.4593 56.8849 66.2713C57.0066 66.5198 57.1132 66.7755 57.2041 67.0369C57.2881 67.2985 57.3745 67.5553 57.4441 67.8145C57.6041 68.3313 57.7497 68.8409 57.8809 69.3433C58.1569 70.3489 58.4065 71.3209 58.6441 72.2497C59.1241 74.1049 59.5225 75.7801 59.8609 77.1889L60.6433 80.5273C60.7297 80.9161 60.7993 81.2209 60.8473 81.4369C60.8665 81.5353 60.8833 81.6145 60.8953 81.6769C60.9009 81.7151 60.9001 81.7541 60.8929 81.7921Z" fill="#263238"/>
<path d="M68.6614 69.9096C68.6551 69.8474 68.6551 69.7847 68.6614 69.7224C68.6614 69.5856 68.6782 69.408 68.6926 69.1848C68.6926 69.0672 68.707 68.9448 68.7166 68.796V68.3352C68.7166 68.0016 68.7166 67.6152 68.6926 67.2096C68.5677 65.0371 68.1412 62.8926 67.4254 60.8376C67.1337 59.9786 66.7907 59.1379 66.3982 58.32C66.0482 57.5268 65.6515 56.755 65.2102 56.0088C64.819 55.3272 64.459 54.7344 64.1566 54.2448L63.4366 53.1C63.3574 52.9752 63.295 52.86 63.2446 52.7952C63.2219 52.7599 63.2018 52.723 63.1846 52.6848C63.2141 52.7149 63.2407 52.7479 63.2638 52.7832L63.4702 53.0784C63.6478 53.3376 63.9022 53.7192 64.2142 54.204C64.5262 54.6888 64.8958 55.2792 65.2942 55.9584C65.7422 56.7046 66.143 57.4781 66.4942 58.2744C66.8945 59.0994 67.2416 59.9491 67.5334 60.8184C68.2546 62.8831 68.6718 65.0417 68.7718 67.2264C68.7982 67.6464 68.7838 68.0256 68.7718 68.3568C68.7718 68.5224 68.7718 68.6784 68.7598 68.82C68.7478 68.9616 68.7358 69.0912 68.7262 69.2088C68.7046 69.432 68.6854 69.612 68.6734 69.7464C68.6721 69.801 68.6681 69.8555 68.6614 69.9096Z" fill="#263238"/>
<path d="M77.1836 76.812C77.1347 76.8305 77.084 76.8442 77.0324 76.8528L76.5932 76.9536L74.9348 77.316L69.1364 78.5472L69.086 78.5592L69.0692 78.5088C68.5892 77.0688 68.0468 75.4944 67.4876 73.8408L66.9068 72.12L66.8828 72.0552L66.95 72.0384L71.3108 71.0136L73.19 70.5744L74.0372 70.3776C74.2975 70.3057 74.5645 70.2607 74.834 70.2432C75.2973 70.2272 75.7579 70.3209 76.178 70.5168C76.4932 70.6595 76.7845 70.8498 77.042 71.0808C77.2032 71.2252 77.3487 71.3861 77.4764 71.5608C77.5124 71.6184 77.5436 71.664 77.5676 71.7C77.5916 71.736 77.5988 71.7504 77.5964 71.7504C77.425 71.5177 77.2287 71.3044 77.0108 71.1144C76.7528 70.8927 76.4632 70.7108 76.1516 70.5744C75.7371 70.3956 75.2873 70.3136 74.8364 70.3344C74.5737 70.3541 74.3139 70.4016 74.0612 70.476L73.214 70.68L71.3372 71.1312C70.01 71.4456 68.5388 71.796 66.9788 72.1704L67.022 72.0888L67.6052 73.8096C68.162 75.4656 68.6948 77.0424 69.1796 78.4824L69.1124 78.444L74.9204 77.2584L76.586 76.9272L77.0276 76.8432C77.0788 76.8293 77.131 76.8188 77.1836 76.812Z" fill="#263238"/>
<path d="M48.8399 85.2048L56.8727 85.944L55.4903 88.4016L47.0303 87.5736L48.8399 85.2048Z" fill="#ED9FF4"/>
<path d="M48.84 85.2001C48.84 85.2001 48.84 85.2193 48.8112 85.2481L48.7224 85.3729L48.372 85.8529L47.0616 87.6001L47.0328 87.5329L55.2 88.3201L55.4976 88.3489L55.4376 88.3801L56.82 85.9201L56.8656 86.0089L51.12 85.4401L49.44 85.2697L48.9888 85.2193C48.9354 85.2161 48.8823 85.2081 48.8304 85.1953H48.9816L49.4256 85.2265L51.1056 85.3633L56.88 85.8841H56.9712L56.9256 85.9657L55.548 88.4257L55.5264 88.4593H55.4856L55.188 88.4305L47.028 87.6121H46.9512L46.9968 87.5521L48.3504 85.8193L48.7152 85.3585C48.7537 85.3034 48.7954 85.2505 48.84 85.2001Z" fill="#263238"/>
<path d="M70.4639 86.0303L71.7191 88.4015L74.4167 87.8495L72.9863 85.6655L70.4639 86.0303Z" fill="#ED9FF4"/>
<path d="M70.4639 86.0304C70.518 86.0145 70.5734 86.0033 70.6295 85.9968L71.1335 85.9104C71.5703 85.836 72.2063 85.7304 72.9791 85.6128H73.0127L73.0319 85.6416C73.4495 86.2752 73.9439 87.0216 74.4719 87.8208L74.5223 87.8976L74.4311 87.9168L74.2967 87.9432L71.7311 88.4592H71.6927L71.6735 88.4232C71.2943 87.7032 70.9895 87.0912 70.7807 86.6736C70.6847 86.4792 70.6055 86.3184 70.5407 86.1936C70.5118 86.1412 70.4869 86.0866 70.4663 86.0304C70.4663 86.0304 70.5071 86.0952 70.5719 86.208L70.8431 86.688C71.0831 87.1008 71.3951 87.6768 71.7695 88.368L71.7095 88.3416L74.2727 87.8088L74.4071 87.7824L74.3687 87.876C73.8455 87.0744 73.3583 86.3256 72.9455 85.6872L72.9959 85.7112C72.2495 85.8144 71.6279 85.8888 71.1815 85.9512L70.6607 86.0112C70.5359 86.0256 70.4687 86.0328 70.4639 86.0304Z" fill="#263238"/>
<g opacity="0.3">
<path d="M48.0094 87.6721L47.6758 88.4017L56.0206 89.1673L56.6422 86.3521L55.4902 88.4017L48.0094 87.6721Z" fill="black"/>
</g>
<g opacity="0.3">
<path d="M49.7305 76.8433C49.7305 76.8433 51.0409 79.5889 52.7425 80.3929C55.0633 81.4873 60.8761 80.7721 60.8761 80.7721L60.8929 79.1041L54.1561 79.4881L49.7305 76.8433Z" fill="black"/>
</g>
<path d="M45.5994 55.2361C45.5994 55.2361 43.245 55.3969 43.1994 61.5505C43.1538 67.7041 50.3682 78.0289 51.5994 79.0465C52.8306 80.0641 54.2394 80.7457 57.945 80.1961C62.5962 79.5073 65.8314 78.8857 65.8314 78.8857L65.1882 73.2673L56.8794 72.8929L50.1426 59.0401C50.1426 59.0401 47.8962 54.9601 45.5994 55.2361Z" fill="#ED9FF4"/>
<g opacity="0.3">
<path d="M67.1996 75.6264C66.2876 75.2472 65.2796 75.24 64.2836 75.2376L60.3572 75.2256C59.5102 75.1876 58.6617 75.2578 57.8324 75.4344C56.9957 75.6163 56.26 76.1107 55.7756 76.8168L53.7236 78.5136C56.351 79.15 59.1084 78.9887 61.6436 78.0504C62.2611 77.7773 62.9043 77.5666 63.5636 77.4216C65.3372 77.1432 67.1324 78.1728 68.8964 77.844C68.8988 76.8552 68.1092 76.008 67.1996 75.6264Z" fill="black"/>
</g>
<path d="M53.8995 69.9097C54.6655 70.2186 55.4523 70.4736 56.2539 70.6729C57.2561 70.8811 58.2341 71.1924 59.1723 71.6017C59.8371 71.8639 60.4869 72.1628 61.1187 72.4969L62.3571 76.8169C62.3571 76.8169 60.3003 78.1105 57.9795 78.0433C55.6587 77.9761 53.6019 78.7273 53.3043 78.5233C53.0067 78.3193 52.9731 77.9497 53.3043 77.7841C53.6355 77.6185 55.0419 77.4193 55.0419 77.4193L56.2419 76.9225C56.2419 76.9225 52.0971 77.2873 51.7659 77.1217C51.4347 76.9561 51.1035 76.7233 51.2355 76.3585C51.2665 76.2578 51.3274 76.169 51.4102 76.1038C51.4929 76.0386 51.5935 76.0002 51.6987 75.9937C51.6987 75.9937 50.8035 76.0273 50.8371 75.6625C50.8631 75.508 50.9207 75.3605 51.0061 75.2292C51.0916 75.0979 51.2031 74.9856 51.3339 74.8993C51.4683 74.8321 53.2059 74.1265 53.2059 74.1265L55.4427 73.6801L53.2947 73.5937L51.4179 74.1169C51.4179 74.1169 50.6691 74.2033 50.8371 73.5721C51.0051 72.9409 53.3043 72.2401 53.3043 72.2401L56.2227 72.0409C56.2227 72.0409 53.9667 71.7097 53.7339 71.0137C53.6583 70.832 53.6338 70.6332 53.663 70.4386C53.6921 70.244 53.7739 70.0611 53.8995 69.9097Z" fill="#FFBE9D"/>
<path d="M61.1182 72.4969H61.2622L66.9574 72.2449L68.6614 77.2177L62.3566 76.8073L61.1182 72.4969Z" fill="#FFBE9D"/>
<path d="M56.1596 75.3241C55.9293 75.3595 55.6966 75.3779 55.4636 75.3793C55.034 75.4033 54.4412 75.4537 53.7836 75.5521C53.126 75.6505 52.5572 75.7777 52.1396 75.8809C51.9162 75.9483 51.6885 76.0004 51.458 76.0369C51.6674 75.9324 51.888 75.8519 52.1156 75.7969C53.1998 75.4794 54.322 75.3098 55.4516 75.2929C55.688 75.2773 55.9255 75.2877 56.1596 75.3241Z" fill="#EB996E"/>
<path d="M51.8855 62.172C51.8126 62.0879 51.7491 61.9962 51.6959 61.8984C51.5807 61.7208 51.4175 61.4592 51.2159 61.1424C50.6704 60.3174 50.0816 59.5219 49.4519 58.7592C48.8301 57.9909 48.1259 57.2931 47.3519 56.6784C47.0208 56.4378 46.6771 56.2151 46.3223 56.0112C46.4285 56.0426 46.5314 56.0844 46.6295 56.136C46.7478 56.191 46.8624 56.2535 46.9727 56.3232C47.1221 56.409 47.2664 56.5036 47.4047 56.6064C48.2016 57.206 48.9214 57.9017 49.5479 58.6776C50.1821 59.4441 50.7642 60.2524 51.2903 61.0968C51.4919 61.4184 51.6455 61.6872 51.7487 61.8744C51.8036 61.9691 51.8494 62.0687 51.8855 62.172Z" fill="#263238"/>
<path d="M55.5724 70.3681C55.5203 70.2809 55.4777 70.1884 55.4452 70.0921L55.1332 69.3265C54.874 68.6785 54.5068 67.7857 54.082 66.8089C53.6572 65.8321 53.254 64.9561 52.9564 64.3225C52.8172 64.0249 52.6996 63.7729 52.6084 63.5737C52.5585 63.4844 52.5198 63.3893 52.4932 63.2905C52.5541 63.3726 52.6071 63.4601 52.6516 63.5521C52.7452 63.7225 52.8772 63.9721 53.0356 64.2841C53.3524 64.9081 53.77 65.7793 54.1972 66.7585C54.6244 67.7377 54.9772 68.6377 55.2172 69.2929C55.3372 69.6217 55.4308 69.8905 55.4908 70.0753C55.5289 70.1696 55.5562 70.2678 55.5724 70.3681Z" fill="#263238"/>
<path d="M59.4092 56.105C59.4092 56.105 59.3564 56.0882 59.2652 56.0426L58.874 55.8362L57.4964 55.0754L57.578 55.0346C57.5108 55.6538 57.398 56.3762 57.2828 57.1466C57.2372 57.461 57.194 57.7658 57.158 58.0586L57.1436 58.1714L57.0596 58.0994C56.3204 57.473 55.682 56.921 55.226 56.5226L54.698 56.0426C54.6311 55.9882 54.57 55.9271 54.5156 55.8602C54.5916 55.9002 54.6618 55.9502 54.7244 56.009L55.2788 56.453C55.7468 56.8346 56.3972 57.3746 57.1364 57.9962L57.038 58.0346C57.0716 57.7418 57.1124 57.4346 57.1604 57.1202C57.2732 56.3474 57.4004 55.625 57.47 55.0106V54.929L57.5396 54.9698L58.8956 55.7714L59.27 56.0114C59.3207 56.0357 59.3676 56.0672 59.4092 56.105Z" fill="#263238"/>
<path d="M61.5139 52.572C61.5292 52.6801 61.5332 52.7895 61.5259 52.8984C61.5259 53.1384 61.5259 53.4288 61.5091 53.784C61.4899 54.5352 61.4563 55.5696 61.4107 56.712C61.4107 56.7408 61.4107 56.7672 61.4107 56.796V56.9952L61.3027 56.8272L59.9347 54.6672H60.0187C59.8675 55.0824 59.7427 55.4304 59.6443 55.6968C59.6049 55.8265 59.5526 55.9519 59.4883 56.0712C59.5115 55.9379 59.5468 55.8069 59.5939 55.68L59.9275 54.636L59.9587 54.54L60.0139 54.624L61.4083 56.7672L61.2931 56.7984C61.2931 56.772 61.2931 56.7432 61.2931 56.7168C61.3387 55.5744 61.3867 54.54 61.4275 53.7912C61.4515 53.436 61.4683 53.1384 61.4851 52.9056C61.4835 52.7937 61.4932 52.682 61.5139 52.572Z" fill="#263238"/>
<path d="M69.0455 55.8935C68.9776 55.8679 68.9132 55.834 68.8535 55.7927L68.8823 55.7735C69.0335 56.3111 69.4607 58.0655 69.9455 60.1487C70.2431 61.4183 70.5023 62.5679 70.6847 63.4031C70.7711 63.8039 70.8407 64.1375 70.8959 64.3919C70.9267 64.5123 70.9468 64.6352 70.9559 64.7591C70.9107 64.6438 70.8746 64.525 70.8479 64.4039C70.7831 64.1495 70.7015 63.8207 70.6079 63.4223C70.4015 62.5943 70.1279 61.4471 69.8327 60.1775C69.3527 58.0943 68.9543 56.3375 68.8535 55.7807V55.7375L68.8871 55.7615C68.9447 55.7995 68.9978 55.8437 69.0455 55.8935Z" fill="#263238"/>
<path d="M61.5141 79.6105C61.4665 79.63 61.4176 79.6461 61.3677 79.6585L60.9381 79.7737C60.5637 79.8721 60.0165 79.9993 59.3373 80.1241C58.5392 80.2705 57.7329 80.3675 56.9229 80.4145C55.9281 80.4814 54.9289 80.4152 53.9517 80.2177C53.4447 80.1102 52.9536 79.9384 52.4901 79.7065C52.2703 79.5941 52.0586 79.4666 51.8565 79.3249C51.67 79.1786 51.4951 79.0181 51.3333 78.8449C50.7922 78.2375 50.2904 77.5962 49.8309 76.9249C49.4325 76.3585 49.1277 75.8905 48.9189 75.5641L48.6789 75.1873C48.65 75.1441 48.6251 75.0983 48.6045 75.0505C48.6407 75.0878 48.6729 75.1289 48.7005 75.1729C48.7653 75.2665 48.8493 75.3889 48.9549 75.5377C49.1757 75.8545 49.4925 76.3153 49.8981 76.8721C50.3652 77.5295 50.8709 78.1586 51.4125 78.7561C51.5693 78.9248 51.7394 79.0805 51.9213 79.2217C52.1181 79.3603 52.3251 79.4838 52.5405 79.5913C52.9969 79.8193 53.4809 79.9871 53.9805 80.0905C54.9466 80.2865 55.9341 80.3559 56.9181 80.2969C57.7224 80.2534 58.5236 80.1653 59.3181 80.0329C59.9973 79.9177 60.5445 79.8049 60.9213 79.7233L61.3557 79.6297C61.4073 79.6161 61.4607 79.6096 61.5141 79.6105Z" fill="#263238"/>
<g opacity="0.3">
<path d="M50.4219 54.0938L51.0579 57.1153L51.5763 56.7914L51.2787 57.5114L57.7803 69.3026L56.9355 66.6098L51.8739 57.0314L52.6755 56.3906H51.3291L50.4219 54.0938Z" fill="black"/>
</g>
<path d="M64.08 66.0745C64.0056 66.1681 62.4648 70.4281 62.4648 70.4281L63.984 69.4681C63.984 69.4681 64.6176 71.3209 64.6032 71.2561C64.5888 71.1913 65.7912 66.6337 65.7912 66.6337L64.08 66.0745Z" fill="#263238"/>
<path d="M66.8994 66.6769C66.8994 66.6769 68.0394 70.9825 68.0706 70.9345C68.1018 70.8865 68.6898 69.5257 68.6898 69.5257L70.161 70.4593L68.6106 66.0745L66.8994 66.6769Z" fill="#263238"/>
<path d="M66.3144 67.1665C68.3623 67.1665 70.0225 65.5064 70.0225 63.4585C70.0225 61.4106 68.3623 59.7505 66.3144 59.7505C64.2666 59.7505 62.6064 61.4106 62.6064 63.4585C62.6064 65.5064 64.2666 67.1665 66.3144 67.1665Z" fill="#455A64"/>
<path d="M69.2162 63.3409C69.1942 63.1042 69.1566 62.8693 69.1034 62.6377C68.9354 62.0111 68.5629 61.4586 68.045 61.0681C67.6646 60.7812 67.2183 60.5944 66.747 60.5248C66.2757 60.4552 65.7944 60.505 65.3474 60.6697C65.0888 60.7603 64.8459 60.8907 64.6274 61.0561C64.3967 61.2247 64.1942 61.4289 64.0274 61.6609C63.6684 62.1474 63.4747 62.7362 63.4747 63.3409C63.4747 63.9455 63.6684 64.5343 64.0274 65.0209C64.1929 65.254 64.3956 65.4583 64.6274 65.6257C64.8458 65.7917 65.0887 65.9228 65.3474 66.0145C65.7947 66.1784 66.276 66.2275 66.7472 66.1575C67.2184 66.0875 67.6646 65.9005 68.045 65.6137C68.5641 65.2253 68.937 64.6731 69.1034 64.0465C69.1564 63.8148 69.1941 63.5799 69.2162 63.3433C69.223 63.4047 69.223 63.4667 69.2162 63.5281C69.2168 63.6036 69.2112 63.6791 69.1994 63.7537C69.1894 63.8566 69.1709 63.9586 69.1442 64.0585C68.9911 64.7055 68.6199 65.2801 68.093 65.6857C67.7022 65.9878 67.2415 66.1863 66.7535 66.2626C66.2655 66.339 65.7661 66.2908 65.3018 66.1225C65.0329 66.0268 64.7797 65.8918 64.5506 65.7217C64.3101 65.5472 64.0987 65.3358 63.9242 65.0953C63.5485 64.5884 63.3457 63.9742 63.3457 63.3433C63.3457 62.7124 63.5485 62.0982 63.9242 61.5913C64.1005 61.3477 64.3153 61.1346 64.5602 60.9601C64.7882 60.7882 65.0416 60.6529 65.3114 60.5593C65.8086 60.38 66.345 60.3377 66.8642 60.4369C67.4157 60.5424 67.9251 60.8048 68.3312 61.1926C68.7373 61.5804 69.0229 62.0772 69.1538 62.6233C69.1805 62.7232 69.199 62.8251 69.209 62.9281C69.2207 63.0019 69.2263 63.0765 69.2258 63.1513C69.2295 63.2146 69.2263 63.2782 69.2162 63.3409Z" fill="#263238"/>
<g opacity="0.2">
<path d="M67.1856 59.8535L62.6064 63.9671L62.8969 64.8983L68.1312 60.2231C67.8513 60.0239 67.5265 59.8969 67.1856 59.8535Z" fill="white"/>
</g>
<g opacity="0.2">
<path d="M68.5463 60.4944C68.5271 60.48 63.1943 65.4624 63.1943 65.4624L63.5111 65.8848C63.5231 65.8968 68.8751 60.7752 68.8751 60.7752L68.5463 60.4944Z" fill="white"/>
</g>
<path d="M66.7538 62.0952V64.9944H66.0818V62.64H65.501V62.1024L66.7538 62.0952Z" fill="white"/>
<g opacity="0.3">
<path d="M63.8737 63.3407C63.8737 61.8215 64.9489 60.5759 66.3145 60.4487C66.2401 60.4487 66.1633 60.4487 66.0745 60.4487C64.5985 60.4487 63.4033 61.7471 63.4033 63.3503C63.4033 64.9535 64.6033 66.2519 66.0745 66.2519C66.1537 66.2519 66.2305 66.2519 66.3145 66.2399C64.9489 66.1031 63.8737 64.8575 63.8737 63.3407Z" fill="black"/>
</g>
<g opacity="0.3">
<path d="M68.5322 26.657L69.2162 50.8298L82.253 54.6818V26.657H68.5322Z" fill="white"/>
</g>
<path d="M49.7299 72.8256C49.7563 72.8472 47.7283 75.3192 45.1987 78.3456C42.6691 81.372 40.5979 83.8056 40.5715 83.784C40.5451 83.7624 42.5731 81.2904 45.1027 78.264C47.6323 75.2376 49.7035 72.804 49.7299 72.8256Z" fill="white"/>
<path d="M50.8241 68.1169C50.8481 68.1385 48.6353 70.6657 45.8801 73.7593C43.1249 76.8529 40.8689 79.3441 40.8401 79.3201C40.8113 79.2961 43.0265 76.7713 45.7817 73.6777C48.5369 70.5841 50.7977 68.0929 50.8241 68.1169Z" fill="white"/>
<path d="M79.1759 44.0233C79.2023 44.0449 76.7519 46.8338 73.7015 50.2466C70.6511 53.6594 68.1599 56.4122 68.1359 56.4002C68.1119 56.3882 70.5599 53.5778 73.6103 50.1602C76.6607 46.7426 79.1495 43.9993 79.1759 44.0233Z" fill="white"/>
<path d="M42.5803 26.5513L42.9091 30.9337C42.9482 31.5079 43.1897 32.0496 43.5907 32.4625C43.691 32.5649 43.7968 32.6618 43.9075 32.7529C44.334 33.1032 44.8574 33.315 45.4075 33.3601L48.6091 33.6313L45.1195 33.9769C44.8666 34.0029 44.6253 34.0966 44.4211 34.2481C44.3419 34.3081 44.2651 34.3681 44.1811 34.4329C43.5172 35.0117 43.1041 35.8257 43.0291 36.7033L42.7891 39.2977L42.5251 36.8977C42.4733 36.3777 42.302 35.8767 42.0248 35.4338C41.7475 34.9908 41.3717 34.6179 40.9267 34.3441L40.9051 34.3297C40.7269 34.2262 40.5274 34.1647 40.3219 34.1497L36.4795 33.8569L39.8203 33.5473C40.4792 33.4919 41.0945 33.1953 41.5483 32.7145C41.6395 32.6161 41.7283 32.5105 41.8123 32.4025C42.0996 32.0189 42.2667 31.5587 42.2923 31.0801L42.5803 26.5513Z" fill="white"/>
<path d="M32.5773 37.5745L32.7885 40.4065C32.8145 40.7771 32.9709 41.1266 33.2301 41.3929C33.2946 41.4597 33.3627 41.523 33.4341 41.5825C33.7078 41.8058 34.0422 41.9421 34.3941 41.9737L36.4629 42.1489L34.2141 42.3721C34.0506 42.3886 33.8947 42.4492 33.7629 42.5473C33.7101 42.5857 33.6621 42.6241 33.6141 42.6649C33.1855 43.0389 32.9188 43.5646 32.8701 44.1313L32.7117 45.8113L32.5437 44.2657C32.5096 43.9298 32.3985 43.6064 32.2191 43.3204C32.0397 43.0344 31.7968 42.7937 31.5093 42.6169H31.4949C31.38 42.5496 31.2509 42.5102 31.1181 42.5017L28.6221 42.3049L30.7821 42.1057C31.2075 42.0699 31.6049 41.8785 31.8981 41.5681C31.9581 41.5033 32.0157 41.4361 32.0685 41.3665C32.2564 41.1195 32.3659 40.8219 32.3829 40.5121L32.5773 37.5745Z" fill="white"/>
<path d="M29.8701 101.976L90.6165 102.48L90.5637 102.533C90.5637 79.1136 90.5637 50.2128 90.5517 18.9792V18.6912L90.6165 18.7536H29.8701L29.9253 18.696C29.8917 67.9896 29.8701 101.482 29.8701 101.976C29.8701 101.477 29.8461 67.9848 29.8125 18.696V18.6384H29.8701H90.6165H90.6789V18.984C90.6789 50.208 90.6789 79.1184 90.6669 102.538V102.588H90.6141L29.8701 101.976Z" fill="#263238"/>
<path d="M75.595 98.1985H45.5206C44.8048 98.1985 44.2246 98.7787 44.2246 99.4945V104.53C44.2246 105.245 44.8048 105.826 45.5206 105.826H75.595C76.3108 105.826 76.891 105.245 76.891 104.53V99.4945C76.891 98.7787 76.3108 98.1985 75.595 98.1985Z" fill="#ED9FF4"/>
<g opacity="0.3">
<path d="M59.3755 98.1985L52.8379 105.826H55.1059L61.6987 98.1985H59.3755Z" fill="white"/>
</g>
<path d="M54.4083 101.004V101.355H52.9443V99.4634H54.3843V99.8138H53.3883V100.224H54.2667V100.56H53.3883V100.999L54.4083 101.004Z" fill="white"/>
<path d="M56.4762 101.355V100.219L55.9194 101.155H55.7226L55.1682 100.243V101.355H54.7578V99.4634H55.1202L55.8402 100.639L56.5386 99.4634H56.8794V101.355H56.4762Z" fill="white"/>
<path d="M58.9775 100.15C58.9775 100.57 58.6607 100.834 58.1543 100.834H57.7751V101.354H57.3359V99.4631H58.1543C58.6607 99.4631 58.9775 99.7247 58.9775 100.15ZM58.5335 100.15C58.5335 99.9407 58.3991 99.8183 58.1303 99.8183H57.7751V100.476H58.1303C58.3991 100.476 58.5335 100.354 58.5335 100.15Z" fill="white"/>
<path d="M59.2793 99.4634H59.7161V100.997H60.6761V101.355H59.2793V99.4634Z" fill="white"/>
<path d="M60.7683 100.409C60.7563 100.202 60.8068 99.9954 60.9133 99.8171C61.0198 99.6389 61.1774 99.4967 61.3656 99.409C61.5538 99.3213 61.764 99.2922 61.969 99.3253C62.174 99.3585 62.3643 99.4524 62.5152 99.595C62.6662 99.7376 62.7709 99.9222 62.8157 100.125C62.8606 100.328 62.8435 100.539 62.7667 100.732C62.69 100.925 62.557 101.09 62.3852 101.207C62.2133 101.324 62.0104 101.386 61.8027 101.386C61.6698 101.393 61.5367 101.373 61.4116 101.328C61.2865 101.282 61.1721 101.211 61.0752 101.12C60.9784 101.028 60.9013 100.918 60.8485 100.796C60.7957 100.674 60.7685 100.542 60.7683 100.409ZM62.3955 100.409C62.3932 100.292 62.3564 100.179 62.2899 100.083C62.2233 99.9869 62.1299 99.9128 62.0214 99.8698C61.9129 99.8267 61.7941 99.8167 61.6799 99.8409C61.5657 99.8651 61.4612 99.9225 61.3795 100.006C61.2978 100.089 61.2425 100.195 61.2206 100.309C61.1987 100.424 61.2111 100.543 61.2563 100.65C61.3015 100.758 61.3775 100.85 61.4747 100.914C61.5719 100.979 61.686 101.014 61.8027 101.014C61.8827 101.017 61.9624 101.003 62.0368 100.974C62.1111 100.944 62.1786 100.9 62.2348 100.843C62.291 100.786 62.3348 100.718 62.3633 100.643C62.3918 100.569 62.4044 100.489 62.4003 100.409H62.3955Z" fill="white"/>
<path d="M63.9935 100.685V101.354H63.5543V100.678L62.8223 99.4631H63.2879L63.7919 100.303L64.2983 99.4631H64.7279L63.9935 100.685Z" fill="white"/>
<path d="M66.358 101.004V101.355H64.8916V99.4634H66.3316V99.8138H65.3284V100.224H66.2068V100.56H65.3284V100.999L66.358 101.004Z" fill="white"/>
<path d="M68.1603 101.004V101.355H66.6963V99.4634H68.1243V99.8138H67.1307V100.224H68.0091V100.56H67.1307V100.999L68.1603 101.004Z" fill="white"/>
<g opacity="0.3">
<path d="M75.8997 99.2522C75.9002 99.3402 75.8745 99.4263 75.8259 99.4997C75.7773 99.5731 75.708 99.6304 75.6267 99.6643C75.5455 99.6982 75.456 99.7072 75.3697 99.6901C75.2833 99.6731 75.204 99.6307 75.1418 99.5685C75.0795 99.5063 75.0372 99.4269 75.0201 99.3406C75.0031 99.2542 75.0121 99.1648 75.046 99.0835C75.0799 99.0023 75.1372 98.933 75.2105 98.8844C75.2839 98.8358 75.3701 98.8101 75.4581 98.8106C75.5752 98.8106 75.6876 98.8571 75.7704 98.9399C75.8532 99.0227 75.8997 99.135 75.8997 99.2522Z" fill="black"/>
</g>
<g opacity="0.3">
<path d="M75.8997 104.585C75.9002 104.673 75.8745 104.759 75.8259 104.832C75.7773 104.906 75.708 104.963 75.6267 104.997C75.5455 105.031 75.456 105.04 75.3697 105.023C75.2833 105.006 75.204 104.964 75.1418 104.901C75.0795 104.839 75.0372 104.76 75.0201 104.673C75.0031 104.587 75.0121 104.498 75.046 104.416C75.0799 104.335 75.1372 104.266 75.2105 104.217C75.2839 104.169 75.3701 104.143 75.4581 104.143C75.5752 104.143 75.6876 104.19 75.7704 104.273C75.8532 104.355 75.8997 104.468 75.8997 104.585Z" fill="black"/>
</g>
<g opacity="0.3">
<path d="M45.7123 99.3601C45.7123 99.4474 45.6864 99.5328 45.6379 99.6054C45.5894 99.678 45.5204 99.7346 45.4397 99.768C45.359 99.8015 45.2702 99.8102 45.1845 99.7932C45.0989 99.7761 45.0202 99.7341 44.9584 99.6723C44.8967 99.6106 44.8546 99.5319 44.8376 99.4462C44.8205 99.3605 44.8293 99.2718 44.8627 99.1911C44.8961 99.1104 44.9527 99.0414 45.0254 98.9929C45.098 98.9444 45.1834 98.9185 45.2707 98.9185C45.3878 98.9185 45.5001 98.965 45.583 99.0478C45.6658 99.1306 45.7123 99.2429 45.7123 99.3601Z" fill="black"/>
</g>
<g opacity="0.3">
<path d="M45.8666 104.585C45.8666 104.672 45.8407 104.758 45.7922 104.83C45.7437 104.903 45.6747 104.959 45.594 104.993C45.5133 105.026 45.4245 105.035 45.3388 105.018C45.2532 105.001 45.1745 104.959 45.1127 104.897C45.051 104.835 45.0089 104.757 44.9919 104.671C44.9748 104.585 44.9836 104.497 45.017 104.416C45.0504 104.335 45.107 104.266 45.1797 104.218C45.2523 104.169 45.3377 104.143 45.425 104.143C45.5421 104.143 45.6544 104.19 45.7373 104.273C45.8201 104.355 45.8666 104.468 45.8666 104.585Z" fill="black"/>
</g>
<g opacity="0.3">
<path d="M57.1198 98.1985L50.4262 105.826H49.4902L56.0926 98.1985H57.1198Z" fill="white"/>
</g>
<path d="M48.437 103.44C48.4216 103.2 48.4787 102.961 48.6009 102.754C48.723 102.547 48.9046 102.381 49.1221 102.278C49.3396 102.176 49.5829 102.141 49.8205 102.178C50.0581 102.215 50.279 102.323 50.4546 102.487C50.6302 102.652 50.7523 102.865 50.8052 103.1C50.8581 103.334 50.8392 103.579 50.7511 103.803C50.663 104.027 50.5097 104.219 50.311 104.355C50.1123 104.49 49.8775 104.563 49.637 104.563C49.4832 104.574 49.3288 104.553 49.1836 104.501C49.0383 104.449 48.9052 104.368 48.7927 104.263C48.6801 104.157 48.5904 104.03 48.5292 103.888C48.4681 103.747 48.4367 103.594 48.437 103.44ZM50.3042 103.44C50.3014 103.306 50.2592 103.177 50.1828 103.067C50.1065 102.957 49.9995 102.872 49.8751 102.823C49.7508 102.774 49.6147 102.762 49.4839 102.79C49.3531 102.818 49.2335 102.884 49.1399 102.979C49.0464 103.075 48.9831 103.196 48.958 103.327C48.933 103.459 48.9472 103.594 48.999 103.718C49.0508 103.841 49.1379 103.946 49.2492 104.02C49.3606 104.094 49.4913 104.134 49.625 104.134C49.716 104.136 49.8065 104.119 49.8907 104.085C49.975 104.051 50.0514 103.999 50.115 103.934C50.1787 103.869 50.2284 103.792 50.2609 103.707C50.2934 103.622 50.3082 103.531 50.3042 103.44Z" fill="white"/>
<path d="M51.6911 102.751V103.325H52.6967V103.728H51.6911V104.52H51.1895V102.348H52.8311V102.751H51.6911Z" fill="white"/>
<path d="M54.4987 102.759H53.8027V102.348H55.6939V102.759H55.0003V104.52H54.4987V102.759Z" fill="white"/>
<path d="M57.9554 102.348V104.52H57.4538V103.63H56.4674V104.52H55.9658V102.348H56.4674V103.2H57.4538V102.343L57.9554 102.348Z" fill="white"/>
<path d="M60.1507 104.117V104.52H58.4707V102.348H60.1099V102.751H58.9699V103.231H59.9779V103.623H58.9699V104.124L60.1507 104.117Z" fill="white"/>
<path d="M63.4033 104.52V103.217L62.7649 104.29H62.5369L61.9009 103.246V104.52H61.4209V102.348H61.8361L62.6497 103.699L63.4489 102.348H63.8617V104.52H63.4033Z" fill="white"/>
<path d="M64.2525 103.44C64.237 103.2 64.2944 102.96 64.4171 102.753C64.5398 102.545 64.7221 102.379 64.9403 102.277C65.1585 102.175 65.4024 102.14 65.6404 102.179C65.8783 102.217 66.0993 102.326 66.2744 102.491C66.4495 102.657 66.5708 102.871 66.6223 103.107C66.6738 103.342 66.6532 103.588 66.5632 103.811C66.4732 104.035 66.318 104.226 66.1177 104.36C65.9175 104.495 65.6815 104.565 65.4405 104.563C65.2876 104.572 65.1345 104.55 64.9907 104.497C64.8469 104.445 64.7153 104.363 64.604 104.258C64.4927 104.153 64.4042 104.026 64.3437 103.885C64.2833 103.745 64.2522 103.593 64.2525 103.44ZM66.1197 103.44C66.1168 103.306 66.0746 103.177 65.9983 103.067C65.9219 102.957 65.8149 102.872 65.6906 102.823C65.5662 102.774 65.4301 102.762 65.2993 102.79C65.1686 102.818 65.0489 102.884 64.9553 102.979C64.8618 103.075 64.7985 103.196 64.7734 103.327C64.7484 103.459 64.7626 103.594 64.8145 103.718C64.8663 103.841 64.9533 103.946 65.0647 104.02C65.176 104.094 65.3067 104.134 65.4405 104.134C65.5315 104.136 65.6221 104.12 65.7066 104.086C65.791 104.051 65.8675 104 65.9313 103.935C65.995 103.87 66.0447 103.792 66.0771 103.707C66.1095 103.622 66.124 103.531 66.1197 103.44Z" fill="white"/>
<path d="M68.9979 102.348V104.52H68.5851L67.5027 103.2V104.518H67.0059V102.346H67.4235L68.5011 103.666V102.346L68.9979 102.348Z" fill="white"/>
<path d="M69.9626 102.759H69.2666V102.348H71.1578V102.759H70.4642V104.52H69.9626V102.759Z" fill="white"/>
<path d="M73.4183 102.348V104.52H72.9167V103.63H71.9303V104.52H71.4287V102.348H71.9303V103.2H72.9167V102.343L73.4183 102.348Z" fill="white"/>
<path d="M71.8703 97.3633L71.9687 98.6641C71.9806 98.8336 72.052 98.9934 72.1703 99.1153C72.3113 99.2663 72.5023 99.361 72.7079 99.3817L73.6679 99.4633L72.6359 99.5665C72.5611 99.5733 72.4897 99.6007 72.4295 99.6457L72.3599 99.7009C72.1635 99.8723 72.0413 100.113 72.0191 100.373L71.9471 101.143L71.8679 100.423C71.8518 100.269 71.8 100.12 71.7167 99.9889C71.6334 99.8577 71.5209 99.7476 71.3879 99.6673C71.3351 99.6368 71.276 99.6188 71.2151 99.6145L70.0703 99.5233L71.0591 99.4321C71.2537 99.4169 71.4362 99.3316 71.5727 99.1921L71.6495 99.0985C71.736 98.9856 71.7862 98.8492 71.7935 98.7073L71.8703 97.3633Z" fill="white"/>
<path d="M85.2976 5.64491C85.2976 5.64491 83.4952 6.88571 84.448 8.48651L83.0248 8.61851C83.0248 8.61851 82.3816 5.59211 84.5488 5.12891L85.2976 5.64491Z" fill="#ED9FF4"/>
<path d="M68.131 113.203C68.131 113.203 65.947 113.306 65.9086 115.166L64.6318 114.528C64.6318 114.528 65.683 111.617 67.7686 112.368L68.131 113.203Z" fill="#ED9FF4"/>
<path d="M110.615 44.9376C110.615 44.9376 108.429 45.0408 108.393 46.9032L107.116 46.2648C107.116 46.2648 108.167 43.3536 110.253 44.1048L110.615 44.9376Z" fill="#ED9FF4"/>
<path d="M13.2808 13.7953C13.2808 13.7953 15.2512 14.7553 16.1608 13.1257L16.9792 14.2945C16.9792 14.2945 14.6776 16.3537 13.1992 14.7025L13.2808 13.7953Z" fill="#ED9FF4"/>
<path d="M14.3086 56.429C14.3086 56.429 16.4686 56.117 16.3318 54.269L17.6638 54.7802C17.6638 54.7802 16.8958 57.7802 14.7502 57.233L14.3086 56.429Z" fill="#ED9FF4"/>
<path d="M50.4191 8.61848C50.4191 8.72956 50.3862 8.83814 50.3245 8.93049C50.2627 9.02285 50.175 9.09483 50.0724 9.13734C49.9698 9.17984 49.8569 9.19096 49.7479 9.16929C49.639 9.14762 49.5389 9.09414 49.4604 9.0156C49.3818 8.93705 49.3284 8.83699 49.3067 8.72805C49.285 8.61911 49.2961 8.50619 49.3386 8.40357C49.3812 8.30095 49.4531 8.21324 49.5455 8.15153C49.6378 8.08982 49.7464 8.05688 49.8575 8.05688C50.0063 8.05752 50.1487 8.11689 50.2539 8.22207C50.3591 8.32726 50.4185 8.46973 50.4191 8.61848Z" fill="#ED9FF4"/>
<path d="M29.3976 111.66C29.3976 111.771 29.3647 111.88 29.303 111.972C29.2413 112.065 29.1535 112.137 29.0509 112.179C28.9483 112.222 28.8354 112.233 28.7265 112.211C28.6175 112.189 28.5174 112.136 28.4389 112.057C28.3604 111.979 28.3069 111.879 28.2852 111.77C28.2635 111.661 28.2747 111.548 28.3172 111.445C28.3597 111.343 28.4317 111.255 28.524 111.193C28.6164 111.132 28.7249 111.099 28.836 111.099C28.9848 111.099 29.1272 111.159 29.2324 111.264C29.3376 111.369 29.397 111.511 29.3976 111.66Z" fill="#ED9FF4"/>
<path d="M11.0587 45.8761C11.0587 45.9871 11.0258 46.0957 10.9641 46.1881C10.9024 46.2804 10.8147 46.3524 10.7121 46.3949C10.6094 46.4374 10.4965 46.4485 10.3876 46.4269C10.2786 46.4052 10.1786 46.3517 10.1 46.2732C10.0215 46.1946 9.96801 46.0946 9.94634 45.9856C9.92467 45.8767 9.93579 45.7638 9.9783 45.6611C10.0208 45.5585 10.0928 45.4708 10.1851 45.4091C10.2775 45.3474 10.3861 45.3145 10.4971 45.3145C10.6459 45.3151 10.7884 45.3745 10.8936 45.4796C10.9987 45.5848 11.0581 45.7273 11.0587 45.8761Z" fill="#ED9FF4"/>
<path d="M101.342 108.099C101.652 108.099 101.903 107.847 101.903 107.537C101.903 107.227 101.652 106.975 101.342 106.975C101.032 106.975 100.78 107.227 100.78 107.537C100.78 107.847 101.032 108.099 101.342 108.099Z" fill="#ED9FF4"/>
<path d="M105.242 13.1258C105.243 13.2376 105.21 13.3469 105.148 13.4401C105.086 13.5332 104.998 13.6058 104.895 13.6488C104.792 13.6918 104.678 13.7032 104.569 13.6815C104.459 13.6598 104.358 13.606 104.279 13.527C104.2 13.448 104.147 13.3473 104.125 13.2377C104.103 13.128 104.115 13.0144 104.158 12.9113C104.201 12.8081 104.273 12.7201 104.366 12.6583C104.46 12.5965 104.569 12.5637 104.681 12.5642C104.83 12.5642 104.972 12.6234 105.078 12.7287C105.183 12.834 105.242 12.9769 105.242 13.1258Z" fill="#ED9FF4"/>
<path d="M108.554 59.0928C108.553 59.2038 108.52 59.3121 108.458 59.4042C108.396 59.4962 108.308 59.5678 108.206 59.6099C108.103 59.6521 107.99 59.6629 107.881 59.6409C107.772 59.619 107.673 59.5653 107.594 59.4867C107.516 59.408 107.463 59.308 107.441 59.1991C107.42 59.0902 107.431 58.9774 107.474 58.8749C107.516 58.7725 107.588 58.6849 107.681 58.6233C107.773 58.5617 107.881 58.5288 107.992 58.5288C108.066 58.5288 108.139 58.5434 108.208 58.5718C108.276 58.6002 108.338 58.6417 108.39 58.6941C108.442 58.7465 108.484 58.8087 108.512 58.8772C108.54 58.9456 108.554 59.0189 108.554 59.0928Z" fill="#ED9FF4"/>
</svg>
