<svg width="330" height="42" viewBox="0 0 330 42" fill="none" xmlns="http://www.w3.org/2000/svg">
<path opacity="0.24" d="M330 4.4495C328.93 7.55145 327.716 10.8148 326.293 14.1474C321.216 14.2917 316.129 14.4251 311.058 14.5754C307.716 14.6657 304.164 14.8211 301.43 16.7149C296.23 20.2831 300.735 22.7965 300.156 26.3436C299.483 30.5424 295.23 31.4096 291.138 31.4256C277.027 31.4838 263.375 36.0094 249.527 38.7374C235.677 41.4654 220.549 42.2464 208.225 35.3728C207.375 34.9076 206.491 34.3301 206.171 33.4147C205.588 31.7725 207.091 30.1784 208.525 29.1889C211.698 27.0193 215.256 25.4734 219.008 24.6372C221.223 24.14 223.561 23.8673 225.497 22.6742C227.434 21.4811 228.804 18.9567 227.835 16.9024C195.683 18.9025 163.596 21.7238 131.575 25.3651C90.3857 30.0501 49.6464 38.203 8.29667 41.1506L7.91158 41.1877C5.00242 38.3153 2.35474 35.1903 0 31.8477C0.172643 31.5981 0.364033 31.3625 0.572367 31.1419C2.61039 28.9643 5.55785 27.9327 8.40906 27.0444C24.3123 22.1228 40.8522 19.6304 57.3225 17.148C139.166 4.81243 221.994 -3.9711 304.805 1.82777C313.22 2.41126 321.628 3.26145 330 4.4495Z" fill="#5207CD"/>
</svg>
