<svg width="170" height="43" viewBox="0 0 170 43" fill="none" xmlns="http://www.w3.org/2000/svg">
<path d="M-0.000326289 12.5236C-0.000326289 15.4747 2.39195 17.8669 5.34298 17.8669C8.29401 17.8669 10.6863 15.4747 10.6863 12.5236C10.6863 9.5726 8.29401 7.18032 5.34298 7.18032C2.39195 7.18032 -0.000326289 9.5726 -0.000326289 12.5236ZM168.126 0.796247C168.012 0.254737 167.481 -0.0920739 166.939 0.021624L158.115 1.87444C157.573 1.98814 157.226 2.51929 157.34 3.0608C157.454 3.60231 157.985 3.94912 158.527 3.83542L166.37 2.18847L168.017 10.0324C168.131 10.5739 168.662 10.9207 169.204 10.807C169.745 10.6933 170.092 10.1622 169.978 9.62067L168.126 0.796247ZM4.7721 13.3469C5.303 13.7151 5.84418 14.0848 6.39536 14.4558L7.51418 12.7935C6.97058 12.4276 6.43705 12.0631 5.91386 11.7003L4.7721 13.3469ZM9.73729 16.6411C10.8369 17.3401 11.9696 18.0411 13.1335 18.7418L14.167 17.0251C13.0168 16.3327 11.898 15.6403 10.8122 14.9501L9.73729 16.6411ZM16.5805 20.7627C17.7193 21.4129 18.8837 22.061 20.0723 22.7051L21.0269 20.9434C19.8514 20.3064 18.6999 19.6655 17.5741 19.0227L16.5805 20.7627ZM23.586 24.5601C24.7526 25.16 25.9396 25.7547 27.1458 26.3426L28.0238 24.5415C26.8305 23.9598 25.6563 23.3715 24.5023 22.7781L23.586 24.5601ZM30.7495 28.0518C31.9481 28.6046 33.1634 29.1497 34.3944 29.6857L35.1944 27.8486C33.9767 27.3184 32.7744 26.7791 31.5887 26.2322L30.7495 28.0518ZM38.0625 31.2358C39.2828 31.736 40.5167 32.2263 41.7634 32.7054L42.4823 30.8351C41.2496 30.3613 40.0292 29.8764 38.8223 29.3818L38.0625 31.2358ZM45.5032 34.0947C46.7505 34.5421 48.0091 34.9775 49.278 35.3998L49.9106 33.4985C48.6566 33.0812 47.4127 32.6509 46.1797 32.2086L45.5032 34.0947ZM53.0705 36.6121C54.3375 37.0005 55.6136 37.3749 56.8979 37.7344L57.4379 35.8047C56.1697 35.4498 54.9093 35.08 53.6577 34.6963L53.0705 36.6121ZM60.7562 38.7615C62.0428 39.0864 63.3366 39.3954 64.6367 39.6874L65.0758 37.7324C63.7933 37.4444 62.5167 37.1395 61.2469 36.8188L60.7562 38.7615ZM68.5421 40.5086C69.8469 40.7641 71.1572 41.0017 72.4721 41.2202L72.8005 39.2436C71.505 39.0283 70.2136 38.7941 68.9272 38.5422L68.5421 40.5086ZM76.4215 41.8163C77.7402 41.995 79.0626 42.1536 80.3879 42.2911L80.5947 40.2981C79.2907 40.1628 77.989 40.0066 76.6906 39.8307L76.4215 41.8163ZM84.3697 42.6389C85.6987 42.7328 87.0298 42.8046 88.3621 42.853L88.4349 40.8506C87.126 40.803 85.8178 40.7325 84.511 40.6401L84.3697 42.6389ZM92.3609 42.9271C93.6943 42.9277 95.028 42.9039 96.3613 42.8545L96.2871 40.8521C94.9794 40.9006 93.6707 40.9239 92.3618 40.9233L92.3609 42.9271ZM100.358 42.6286C101.688 42.527 103.017 42.3989 104.343 42.243L104.109 40.253C102.81 40.4056 101.509 40.5311 100.205 40.6306L100.358 42.6286ZM108.31 41.6919C109.628 41.4801 110.942 41.2396 112.253 40.9693L111.848 39.0068C110.567 39.2711 109.281 39.5063 107.992 39.7135L108.31 41.6919ZM116.159 40.0712C117.451 39.743 118.738 39.3845 120.019 38.9945L119.436 37.0776C118.185 37.4584 116.928 37.8086 115.666 38.1292L116.159 40.0712ZM123.829 37.7347C125.084 37.2862 126.332 36.8059 127.574 36.2929L126.808 34.4411C125.597 34.9416 124.379 35.4102 123.155 35.8479L123.829 37.7347ZM131.237 34.6721C132.442 34.1035 133.638 33.5024 134.826 32.8677L133.882 31.1004C132.723 31.7194 131.556 32.3056 130.382 32.8602L131.237 34.6721ZM138.318 30.89C139.454 30.2088 140.581 29.4951 141.699 28.7481L140.586 27.082C139.495 27.8108 138.395 28.507 137.287 29.1715L138.318 30.89ZM144.989 26.4321C146.051 25.6453 147.104 24.8265 148.146 23.9751L146.879 22.4232C145.861 23.2547 144.833 24.0541 143.796 24.8221L144.989 26.4321ZM151.188 21.3707C152.177 20.4835 153.156 19.565 154.125 18.6144L152.721 17.1845C151.774 18.1141 150.817 19.012 149.85 19.879L151.188 21.3707ZM156.904 15.7654C157.81 14.7961 158.706 13.7969 159.591 12.7672L158.071 11.4612C157.204 12.4699 156.327 13.4484 155.44 14.3971L156.904 15.7654ZM162.125 9.69629C162.946 8.66151 163.756 7.59869 164.556 6.50731L162.939 5.32312C162.155 6.39423 161.36 7.43682 160.555 8.45144L162.125 9.69629ZM166.857 3.24341C167.235 2.68578 167.611 2.12128 167.984 1.54986L166.306 0.454374C165.94 1.01595 165.57 1.5706 165.199 2.11837L166.857 3.24341Z" fill="#D0D5DD"/>
</svg>
