<svg width="40" height="40" viewBox="0 0 40 40" fill="none" xmlns="http://www.w3.org/2000/svg">
<path d="M18.3333 5.00016H13C10.1997 5.00016 8.79961 5.00016 7.73005 5.54513C6.78924 6.0245 6.02433 6.7894 5.54497 7.73021C5 8.79977 5 10.1999 5 13.0002V27.0002C5 29.8004 5 31.2006 5.54497 32.2701C6.02433 33.2109 6.78924 33.9758 7.73005 34.4552C8.79961 35.0002 10.1997 35.0002 13 35.0002H27C29.8003 35.0002 31.2004 35.0002 32.27 34.4552C33.2108 33.9758 33.9757 33.2109 34.455 32.2701C35 31.2006 35 29.8004 35 27.0002V21.6668M20 13.3335H26.6667V20.0002M25.8333 5.8335V3.3335M32.3989 7.60126L34.1667 5.8335M34.1838 14.1668H36.6838M5 22.2453C6.08657 22.4131 7.19978 22.5002 8.33333 22.5002C15.6439 22.5002 22.1089 18.8795 26.0328 13.3335" stroke="#F9F9F9" stroke-width="2" stroke-linecap="round" stroke-linejoin="round"/>
</svg>
