<svg width="40" height="40" viewBox="0 0 40 40" fill="none" xmlns="http://www.w3.org/2000/svg">
<path d="M13.1144 25.7667L11.6667 36.6668L19.314 32.0784C19.5634 31.9288 19.6881 31.854 19.8213 31.8247C19.939 31.7989 20.061 31.7989 20.1787 31.8247C20.3119 31.854 20.4366 31.9288 20.686 32.0784L28.3333 36.6668L26.8865 25.762M27.3765 7.08163C27.6339 7.70416 28.1279 8.19899 28.7501 8.45734L30.9315 9.36097C31.5541 9.61885 32.0487 10.1135 32.3066 10.7361C32.5645 11.3586 32.5645 12.0582 32.3066 12.6808L31.4036 14.8607C31.1457 15.4836 31.1453 16.1838 31.4045 16.8064L32.3058 18.9857C32.4337 19.2941 32.4995 19.6246 32.4996 19.9584C32.4996 20.2922 32.4339 20.6228 32.3062 20.9312C32.1784 21.2396 31.9912 21.5198 31.7551 21.7558C31.519 21.9918 31.2388 22.1789 30.9304 22.3066L28.7504 23.2096C28.1279 23.467 27.6331 23.9611 27.3748 24.5832L26.4712 26.7648C26.2133 27.3874 25.7187 27.882 25.0961 28.1399C24.4736 28.3978 23.7741 28.3978 23.1515 28.1399L20.9716 27.2369C20.349 26.9796 19.6498 26.9802 19.0276 27.2383L16.8461 28.1407C16.2239 28.398 15.525 28.3978 14.903 28.1401C14.2809 27.8824 13.7866 27.3884 13.5285 26.7664L12.6246 24.5842C12.3673 23.9617 11.8732 23.4669 11.2511 23.2085L9.06958 22.3049C8.44729 22.0471 7.95282 21.5528 7.69485 20.9306C7.43689 20.3084 7.43654 19.6092 7.69388 18.9867L8.59683 16.8067C8.85407 16.1841 8.85354 15.4848 8.59537 14.8626L7.69372 12.6795C7.56588 12.3711 7.50005 12.0406 7.5 11.7068C7.49995 11.373 7.56567 11.0424 7.6934 10.734C7.82114 10.4256 8.00839 10.1454 8.24446 9.90944C8.48053 9.67344 8.76078 9.48627 9.06921 9.35863L11.2491 8.45564C11.8711 8.19846 12.3656 7.705 12.6241 7.08357L13.5277 4.90201C13.7856 4.27943 14.2802 3.78479 14.9028 3.52691C15.5253 3.26903 16.2248 3.26903 16.8474 3.52691L19.0273 4.42989C19.6499 4.68714 20.3491 4.68661 20.9713 4.42843L23.1537 3.52831C23.7762 3.27057 24.4755 3.27062 25.098 3.52845C25.7204 3.78628 26.215 4.28078 26.4729 4.9032L27.3767 7.08541L27.3765 7.08163Z" stroke="#F9F9F9" stroke-width="2" stroke-linecap="round" stroke-linejoin="round"/>
</svg>
