<svg width="40" height="40" viewBox="0 0 40 40" fill="none" xmlns="http://www.w3.org/2000/svg">
<path d="M20.0007 3.3335C24.1695 7.89742 26.5386 13.8202 26.6673 20.0002C26.5386 26.1801 24.1695 32.1029 20.0007 36.6668M20.0007 3.3335C15.8319 7.89742 13.4627 13.8202 13.334 20.0002C13.4627 26.1801 15.8319 32.1029 20.0007 36.6668M20.0007 3.3335C10.7959 3.3335 3.33398 10.7954 3.33398 20.0002C3.33398 29.2049 10.7959 36.6668 20.0007 36.6668M20.0007 3.3335C29.2054 3.3335 36.6673 10.7954 36.6673 20.0002C36.6673 29.2049 29.2054 36.6668 20.0007 36.6668M4.16735 15.0002H35.834M4.16732 25.0002H35.834" stroke="#F9F9F9" stroke-width="2" stroke-linecap="round" stroke-linejoin="round"/>
</svg>
