<svg width="40" height="40" viewBox="0 0 40 40" fill="none" xmlns="http://www.w3.org/2000/svg">
<path d="M14.9997 23.3333C14.9997 23.3333 17.1872 25.8333 20.833 25.8333C24.4789 25.8333 26.6664 23.3333 26.6664 23.3333M25.4164 15H25.433M16.2497 15H16.2664M20.833 33.3333C28.6571 33.3333 34.9997 26.9907 34.9997 19.1667C34.9997 11.3426 28.6571 5 20.833 5C13.009 5 6.66637 11.3426 6.66637 19.1667C6.66637 20.75 6.92611 22.2726 7.40532 23.6944C7.58565 24.2294 7.67582 24.4969 7.69208 24.7024C7.70814 24.9053 7.696 25.0476 7.64579 25.2449C7.59495 25.4447 7.48269 25.6525 7.25819 26.068L4.53209 31.1139C4.14324 31.8337 3.94882 32.1935 3.99233 32.4713C4.03023 32.7132 4.17261 32.9262 4.38166 33.0537C4.62166 33.2001 5.02853 33.1581 5.84227 33.074L14.3773 32.1917C14.6358 32.165 14.765 32.1516 14.8828 32.1561C14.9987 32.1605 15.0804 32.1714 15.1934 32.1975C15.3083 32.2239 15.4527 32.2796 15.7416 32.3909C17.3217 32.9996 19.0384 33.3333 20.833 33.3333ZM26.2497 15C26.2497 15.4602 25.8766 15.8333 25.4164 15.8333C24.9561 15.8333 24.583 15.4602 24.583 15C24.583 14.5398 24.9561 14.1667 25.4164 14.1667C25.8766 14.1667 26.2497 14.5398 26.2497 15ZM17.083 15C17.083 15.4602 16.7099 15.8333 16.2497 15.8333C15.7895 15.8333 15.4164 15.4602 15.4164 15C15.4164 14.5398 15.7895 14.1667 16.2497 14.1667C16.7099 14.1667 17.083 14.5398 17.083 15Z" stroke="#0E87FE" stroke-width="3" stroke-linecap="round" stroke-linejoin="round"/>
</svg>
