<svg width="47" height="35" viewBox="0 0 47 35" fill="none" xmlns="http://www.w3.org/2000/svg">
<path d="M46.9996 0C46.1578 3.5542 45.2693 7.38899 44.334 11.5044C43.3986 15.6198 42.5569 19.6416 41.8086 23.57C41.0604 27.4983 40.4524 31.0992 39.9847 34.3729H26.6565L25.6744 32.8296C26.5162 29.556 27.5918 26.0485 28.9013 22.3073C30.2107 18.4725 31.6604 14.6377 33.2505 10.8029C34.8405 6.9681 36.3838 3.36714 37.8803 0H46.9996ZM21.0446 0C20.2028 3.5542 19.3143 7.38899 18.379 11.5044C17.4436 15.6198 16.6019 19.6416 15.8536 23.57C15.1053 27.4983 14.4974 31.0992 14.0297 34.3729H0.841784L0 32.8296C0.841784 29.556 1.9174 26.0485 3.22684 22.3073C4.53628 18.4725 5.93925 14.6377 7.43576 10.8029C9.0258 6.9681 10.5691 3.36714 12.0656 0H21.0446Z" fill="#F9F9F9" fill-opacity="0.2"/>
</svg>
