<svg width="236" height="171" viewBox="0 0 236 171" fill="none" xmlns="http://www.w3.org/2000/svg">
<path opacity="0.1" d="M8.11461 146.063C8.11461 146.063 9.91786 143.358 13.5244 137.948C17.1308 132.539 21.4136 125.776 26.3725 117.662C31.7822 109.547 36.2903 101.433 39.8968 93.318C34.0363 91.9656 27.9503 88.8099 21.639 83.851C15.3276 78.4412 10.1433 72.5807 6.08596 66.2693C2.02865 59.958 0 54.0974 0 48.6877C0 34.2617 4.73352 22.5406 14.2006 13.5243C24.1184 4.50811 36.2903 0 50.7163 0C64.2407 0 76.1872 5.18434 86.5559 15.553C96.9245 25.9217 102.109 38.0936 102.109 52.0688C102.109 66.4947 98.9532 80.2445 92.6418 93.318C86.7813 106.392 79.3429 118.563 70.3266 129.834C61.7612 140.653 53.6466 149.67 45.9828 156.882C38.7698 163.645 34.2617 168.153 32.4584 170.407L8.11461 146.063ZM142.006 146.063C142.006 146.063 143.809 143.358 147.415 137.948C151.022 132.539 155.305 125.776 160.264 117.662C165.673 109.547 170.181 101.433 173.788 93.318C167.477 91.9656 161.165 88.8099 154.854 83.851C148.993 78.4412 144.034 72.5807 139.977 66.2693C135.92 59.958 133.891 54.0974 133.891 48.6877C133.891 34.2617 138.625 22.5406 148.092 13.5243C157.559 4.50811 169.731 0 184.607 0C197.681 0 209.402 5.18434 219.771 15.553C230.59 25.9217 236 38.0936 236 52.0688C236 66.0439 232.844 79.7937 226.533 93.318C220.222 106.392 212.783 118.338 204.218 129.158C195.652 139.977 187.763 148.993 180.55 156.206C173.337 163.419 168.604 168.153 166.35 170.407L142.006 146.063Z" fill="#5207CD"/>
</svg>
