<svg width="100" height="100" viewBox="0 0 100 100" fill="none" xmlns="http://www.w3.org/2000/svg">
<path d="M66.0714 17.0553C66.5429 14.1377 64.56 11.3904 61.6425 10.9189C58.725 10.4473 55.9776 12.4302 55.5061 15.3477C55.0346 18.2653 57.0175 21.0126 59.935 21.4841C62.8525 21.9556 65.5999 19.9728 66.0714 17.0553Z" fill="#EBEBEB"/>
<path d="M66.0951 17.3586C66.5491 14.5832 64.6672 11.9653 61.8919 11.5113C59.1165 11.0574 56.4986 12.9392 56.0447 15.7145C55.5907 18.4899 57.4725 21.1078 60.2479 21.5618C63.0232 22.0157 65.6411 20.1339 66.0951 17.3586Z" fill="#DBDBDB"/>
<path d="M63.1687 20.8628C65.6187 19.8617 66.7933 17.0641 65.7922 14.6141C64.7912 12.1641 61.9935 10.9896 59.5435 11.9906C57.0935 12.9917 55.919 15.7893 56.92 18.2393C57.9211 20.6893 60.7187 21.8639 63.1687 20.8628Z" fill="white"/>
<path d="M61.1337 12.1123H61.0117V12.8363H61.1337V12.1123Z" fill="#EBEBEB"/>
<path d="M58.9152 12.6802L58.8096 12.7412L59.1715 13.3683L59.2771 13.3073L58.9152 12.6802Z" fill="#EBEBEB"/>
<path d="M57.3305 14.0462L57.2695 14.1523L57.8994 14.5143L57.9604 14.4082L57.3305 14.0462Z" fill="#EBEBEB"/>
<path d="M57.3734 16.4761H56.6494V16.5981H57.3734V16.4761Z" fill="#EBEBEB"/>
<path d="M57.8398 18.3371L57.2129 18.6992L57.2739 18.8049L57.9008 18.4428L57.8398 18.3371Z" fill="#EBEBEB"/>
<path d="M59.1703 19.7092L58.8086 20.3364L58.9143 20.3974L59.276 19.7702L59.1703 19.7092Z" fill="#EBEBEB"/>
<path d="M61.1337 20.2383H61.0117V20.9623H61.1337V20.2383Z" fill="#EBEBEB"/>
<path d="M62.9787 19.7168L62.873 19.7778L63.235 20.4048L63.3407 20.3438L62.9787 19.7168Z" fill="#EBEBEB"/>
<path d="M64.3071 18.3348L64.2461 18.4404L64.8714 18.8014L64.9324 18.6958L64.3071 18.3348Z" fill="#EBEBEB"/>
<path d="M65.4974 16.4761H64.7734V16.5981H65.4974V16.4761Z" fill="#EBEBEB"/>
<path d="M64.8714 14.2708L64.2461 14.6318L64.3071 14.7375L64.9324 14.3765L64.8714 14.2708Z" fill="#EBEBEB"/>
<path d="M63.2367 12.678L62.875 13.3052L62.9807 13.3661L63.3424 12.7389L63.2367 12.678Z" fill="#EBEBEB"/>
<path d="M61.7802 15.0063L59.6875 19.1206L59.7962 19.1759L61.889 15.0616L61.7802 15.0063Z" fill="#EBEBEB"/>
<path d="M60.8288 14.8969L60.6699 14.9287L61.5622 19.3863L61.7211 19.3545L60.8288 14.8969Z" fill="#DBDBDB"/>
<path d="M45.3995 50.964H11.0635V11.312H45.3995V50.964ZM11.8615 50.164H44.5995V12.112H11.8635L11.8615 50.164Z" fill="#EBEBEB"/>
<path d="M28.3195 12.3223H27.5195V50.5643H28.3195V12.3223Z" fill="#EBEBEB"/>
<path d="M46.1279 12.9302H10.3379V14.0442H46.1279V12.9302Z" fill="#EBEBEB"/>
<path d="M46.1279 14.1841H10.3379V15.2981H46.1279V14.1841Z" fill="#EBEBEB"/>
<path d="M46.1279 15.436H10.3379V16.55H46.1279V15.436Z" fill="#EBEBEB"/>
<path d="M46.1279 16.6899H10.3379V17.8039H46.1279V16.6899Z" fill="#EBEBEB"/>
<path d="M46.1279 17.9443H10.3379V19.0583H46.1279V17.9443Z" fill="#EBEBEB"/>
<path d="M46.1279 19.1963H10.3379V20.3103H46.1279V19.1963Z" fill="#EBEBEB"/>
<path d="M46.1279 20.4502H10.3379V21.5642H46.1279V20.4502Z" fill="#EBEBEB"/>
<path d="M46.1279 21.7041H10.3379V22.8181H46.1279V21.7041Z" fill="#EBEBEB"/>
<path d="M46.1279 22.9561H10.3379V24.0701H46.1279V22.9561Z" fill="#EBEBEB"/>
<path d="M43.7518 12.7041H43.5518V38.3821H43.7518V12.7041Z" fill="#263238"/>
<path d="M44.0059 39.3139H43.2959L43.4739 38.2939H43.8279L44.0059 39.3139Z" fill="#263238"/>
<path d="M44.4715 12.7041H44.2715V49.8501H44.4715V12.7041Z" fill="#263238"/>
<path d="M44.7256 50.6001H44.0176L44.1936 49.5801H44.5496L44.7256 50.6001Z" fill="#263238"/>
<path d="M47.3677 11.1562H9.0957V13.4863H47.3677V11.1562Z" fill="#DBDBDB"/>
<path d="M91.8963 20.332H70.3203V47.502H91.8963V20.332Z" fill="#EBEBEB"/>
<path d="M89.1502 25.9463H72.9922V26.4603H89.1502V25.9463Z" fill="#DBDBDB"/>
<path d="M86.6742 27.022H72.9922V27.536H86.6742V27.022Z" fill="#DBDBDB"/>
<path d="M83.4262 28.0962H72.9922V28.6102H83.4262V28.0962Z" fill="#DBDBDB"/>
<path d="M88.5862 29.1724H72.9922V29.6864H88.5862V29.1724Z" fill="#DBDBDB"/>
<path d="M87.2602 30.2461H72.9922V30.7601H87.2602V30.2461Z" fill="#DBDBDB"/>
<path d="M87.7982 32.396H72.9922V32.91H87.7982V32.396Z" fill="#DBDBDB"/>
<path d="M78.6642 33.4722H72.9922V33.9862H78.6642V33.4722Z" fill="#DBDBDB"/>
<path d="M84.4302 34.5464H72.9922V35.0604H84.4302V34.5464Z" fill="#DBDBDB"/>
<path d="M88.5862 35.6221H72.9922V36.1361H88.5862V35.6221Z" fill="#DBDBDB"/>
<path d="M86.4382 36.6963H72.9922V37.2103H86.4382V36.6963Z" fill="#DBDBDB"/>
<path d="M87.5622 38.8462H72.9922V39.3602H87.5622V38.8462Z" fill="#DBDBDB"/>
<path d="M81.8122 39.9224H72.9922V40.4364H81.8122V39.9224Z" fill="#DBDBDB"/>
<path d="M81.8122 43.1763H72.9922V43.6903H81.8122V43.1763Z" fill="#DBDBDB"/>
<path d="M87.7883 45.3242C88.6907 45.3242 89.4223 44.5926 89.4223 43.6902C89.4223 42.7877 88.6907 42.0562 87.7883 42.0562C86.8859 42.0562 86.1543 42.7877 86.1543 43.6902C86.1543 44.5926 86.8859 45.3242 87.7883 45.3242Z" fill="#ED9FF4"/>
<path d="M75.3997 22.4263C75.596 22.4264 75.7867 22.4918 75.9417 22.6123C75.948 22.617 75.9534 22.6229 75.9574 22.6298C75.9614 22.6366 75.9639 22.6442 75.9648 22.6521C75.9658 22.66 75.9651 22.668 75.9628 22.6756C75.9606 22.6832 75.9568 22.6902 75.9517 22.6963C75.9471 22.7025 75.9414 22.7078 75.9348 22.7118C75.9282 22.7158 75.9208 22.7184 75.9132 22.7195C75.9055 22.7206 75.8978 22.7202 75.8903 22.7183C75.8828 22.7163 75.8758 22.7129 75.8697 22.7083C75.7361 22.602 75.5704 22.5442 75.3997 22.5443C75.205 22.5443 75.0183 22.6216 74.8806 22.7593C74.743 22.8969 74.6657 23.0836 74.6657 23.2783C74.6657 23.4729 74.743 23.6596 74.8806 23.7973C75.0183 23.9349 75.205 24.0123 75.3997 24.0123C75.5692 24.0148 75.7343 23.9575 75.8657 23.8503C75.8719 23.8451 75.8791 23.8413 75.8869 23.8391C75.8947 23.837 75.9029 23.8366 75.9109 23.8379C75.9189 23.8392 75.9265 23.8423 75.9332 23.8468C75.9399 23.8514 75.9455 23.8573 75.9497 23.8643C75.9556 23.8695 75.9604 23.876 75.9637 23.8832C75.9669 23.8905 75.9686 23.8983 75.9686 23.9063C75.9686 23.9142 75.9669 23.9221 75.9637 23.9293C75.9604 23.9366 75.9556 23.943 75.9497 23.9483C75.7939 24.0668 75.6034 24.1307 75.4077 24.1303C75.2958 24.1303 75.185 24.1082 75.0816 24.0654C74.9782 24.0226 74.8843 23.9598 74.8052 23.8807C74.7261 23.8016 74.6633 23.7077 74.6205 23.6043C74.5777 23.5009 74.5557 23.3902 74.5557 23.2783C74.5557 23.1664 74.5777 23.0556 74.6205 22.9522C74.6633 22.8489 74.7261 22.7549 74.8052 22.6758C74.8843 22.5967 74.9782 22.5339 75.0816 22.4911C75.185 22.4483 75.2958 22.4263 75.4077 22.4263H75.3997Z" fill="#A6A6A6"/>
<path d="M77.1337 22.4259C77.3042 22.4171 77.4736 22.4597 77.6197 22.5481C77.7659 22.6365 77.8821 22.7668 77.9535 22.9219C78.0249 23.0771 78.0481 23.2502 78.0201 23.4187C77.9922 23.5872 77.9143 23.7434 77.7966 23.8672C77.6789 23.991 77.5268 24.0767 77.3599 24.1131C77.193 24.1496 77.019 24.1352 76.8604 24.0717C76.7018 24.0083 76.5659 23.8987 76.4702 23.7572C76.3745 23.6157 76.3235 23.4488 76.3237 23.2779C76.3202 23.1686 76.3385 23.0597 76.3774 22.9575C76.4164 22.8554 76.4753 22.7619 76.5506 22.6827C76.626 22.6034 76.7163 22.5399 76.8164 22.4958C76.9165 22.4518 77.0243 22.428 77.1337 22.4259ZM77.1337 24.0119C77.2803 24.0203 77.4261 23.9845 77.5522 23.9092C77.6783 23.8338 77.7789 23.7223 77.841 23.5892C77.903 23.456 77.9237 23.3073 77.9003 23.1622C77.8769 23.0172 77.8105 22.8825 77.7097 22.7756C77.609 22.6687 77.4784 22.5945 77.335 22.5626C77.1916 22.5308 77.0419 22.5426 76.9053 22.5967C76.7688 22.6508 76.6515 22.7447 76.5689 22.8661C76.4862 22.9876 76.4419 23.131 76.4417 23.2779C76.4363 23.467 76.5061 23.6505 76.6359 23.7881C76.7656 23.9257 76.9446 24.0062 77.1337 24.0119Z" fill="#A6A6A6"/>
<path d="M78.498 22.6984V24.0724C78.4996 24.0808 78.4993 24.0894 78.4972 24.0976C78.4951 24.1059 78.4911 24.1136 78.4857 24.1201C78.4802 24.1267 78.4734 24.132 78.4657 24.1356C78.458 24.1392 78.4496 24.1411 78.441 24.1411C78.4325 24.1411 78.4241 24.1392 78.4164 24.1356C78.4087 24.132 78.4018 24.1267 78.3964 24.1201C78.391 24.1136 78.387 24.1059 78.3849 24.0976C78.3828 24.0894 78.3825 24.0808 78.384 24.0724V22.5324C78.38 22.521 78.3798 22.5086 78.3834 22.4971C78.387 22.4855 78.3942 22.4755 78.404 22.4684C78.4169 22.4597 78.4326 22.4563 78.4479 22.4589C78.4632 22.4615 78.4768 22.4699 78.486 22.4824L79.504 23.8824V22.5164C79.504 22.5013 79.5099 22.4869 79.5203 22.4761C79.5308 22.4652 79.545 22.4589 79.56 22.4584C79.5678 22.4581 79.5756 22.4594 79.5829 22.4622C79.5901 22.465 79.5968 22.4692 79.6024 22.4746C79.608 22.4801 79.6124 22.4865 79.6154 22.4937C79.6185 22.5009 79.6201 22.5086 79.62 22.5164V24.0624C79.6201 24.0702 79.6185 24.0779 79.6154 24.085C79.6124 24.0922 79.608 24.0987 79.6024 24.1041C79.5968 24.1095 79.5901 24.1138 79.5829 24.1166C79.5756 24.1193 79.5678 24.1206 79.56 24.1204C79.5515 24.1203 79.5431 24.1183 79.5355 24.1145C79.5279 24.1107 79.5212 24.1052 79.516 24.0984C79.5137 24.0976 79.5116 24.0963 79.5099 24.0945C79.5081 24.0928 79.5068 24.0907 79.506 24.0884L78.498 22.6984Z" fill="#A6A6A6"/>
<path d="M80.6363 22.5682H80.1303C80.1147 22.5677 80.1 22.5611 80.0891 22.5499C80.0783 22.5387 80.0723 22.5238 80.0723 22.5082C80.0728 22.493 80.079 22.4785 80.0898 22.4677C80.1006 22.457 80.115 22.4507 80.1303 22.4502H81.2583C81.2735 22.4507 81.288 22.457 81.2987 22.4677C81.3095 22.4785 81.3158 22.493 81.3163 22.5082C81.3163 22.5238 81.3102 22.5387 81.2994 22.5499C81.2886 22.5611 81.2738 22.5677 81.2583 22.5682H80.7523V24.0722C80.7523 24.0876 80.7462 24.1023 80.7353 24.1132C80.7244 24.1241 80.7097 24.1302 80.6943 24.1302C80.6789 24.1302 80.6641 24.1241 80.6533 24.1132C80.6424 24.1023 80.6363 24.0876 80.6363 24.0722V22.5682Z" fill="#A6A6A6"/>
<path d="M82.6004 23.7501C82.6005 23.6998 82.5881 23.6503 82.5644 23.606C82.5406 23.5616 82.5063 23.5239 82.4644 23.4961C82.4036 23.4558 82.3357 23.4273 82.2644 23.4121H82.2524H81.8524V24.0761C81.8498 24.0899 81.8425 24.1023 81.8318 24.1113C81.821 24.1203 81.8074 24.1252 81.7934 24.1252C81.7794 24.1252 81.7658 24.1203 81.755 24.1113C81.7442 24.1023 81.7369 24.0899 81.7344 24.0761V22.5121C81.7351 22.4979 81.7407 22.4845 81.7501 22.4739C81.7596 22.4634 81.7724 22.4564 81.7864 22.4541H82.2664C82.375 22.4552 82.48 22.4932 82.5643 22.5617C82.6485 22.6303 82.7071 22.7254 82.7303 22.8315C82.7535 22.9376 82.74 23.0484 82.6921 23.1459C82.6442 23.2434 82.5646 23.3217 82.4664 23.3681C82.4737 23.3733 82.4818 23.3773 82.4904 23.3801C82.558 23.4166 82.6147 23.4705 82.6544 23.5363C82.6942 23.602 82.7156 23.6773 82.7164 23.7541C82.7129 23.8214 82.7196 23.8888 82.7364 23.9541C82.7408 23.9693 82.7491 23.9831 82.7604 23.9941C82.774 23.9925 82.7878 23.9954 82.7996 24.0022C82.8115 24.0091 82.8209 24.0195 82.8264 24.0321C82.8301 24.0475 82.8284 24.0637 82.8214 24.0779C82.8145 24.0922 82.8028 24.1036 82.7884 24.1101H82.7544C82.7311 24.1078 82.7088 24.0994 82.6898 24.0857C82.6708 24.072 82.6558 24.0535 82.6464 24.0321C82.6074 23.9435 82.5916 23.8465 82.6004 23.7501ZM82.2644 22.5681H81.8504V23.2921H82.2744C82.3704 23.2908 82.4619 23.2514 82.5289 23.1825C82.5958 23.1137 82.6327 23.0211 82.6314 22.9251C82.63 22.8291 82.5906 22.7375 82.5218 22.6706C82.453 22.6036 82.3604 22.5668 82.2644 22.5681Z" fill="#A6A6A6"/>
<path d="M84.1761 23.6964H83.4101L83.2621 24.0964C83.258 24.1075 83.2507 24.1171 83.241 24.1239C83.2314 24.1307 83.2199 24.1343 83.2081 24.1344H83.1861C83.1715 24.1282 83.1599 24.1167 83.1536 24.1022C83.1473 24.0877 83.1467 24.0713 83.1521 24.0564L83.7341 22.5004C83.7394 22.4896 83.7476 22.4804 83.7579 22.4741C83.7682 22.4677 83.78 22.4643 83.7921 22.4644C83.8043 22.4638 83.8163 22.4669 83.8267 22.4734C83.8371 22.4798 83.8452 22.4892 83.8501 22.5004L84.4321 24.0564C84.4377 24.0708 84.4378 24.0868 84.4322 24.1012C84.4267 24.1157 84.4159 24.1275 84.4021 24.1344H84.3801C84.3681 24.1342 84.3564 24.1305 84.3464 24.1237C84.3365 24.117 84.3287 24.1075 84.3241 24.0964L84.1761 23.6964ZM83.4541 23.5784H84.1341L83.7941 22.6764L83.4541 23.5784Z" fill="#A6A6A6"/>
<path d="M85.51 22.4263C85.7063 22.4264 85.897 22.4918 86.052 22.6123C86.0584 22.617 86.0637 22.6229 86.0677 22.6298C86.0717 22.6366 86.0743 22.6442 86.0752 22.6521C86.0761 22.66 86.0755 22.668 86.0732 22.6756C86.0709 22.6832 86.0671 22.6902 86.062 22.6963C86.0575 22.7025 86.0517 22.7078 86.0451 22.7118C86.0385 22.7158 86.0312 22.7184 86.0235 22.7195C86.0159 22.7206 86.0081 22.7202 86.0006 22.7183C85.9932 22.7163 85.9862 22.7129 85.98 22.7083C85.8464 22.602 85.6807 22.5442 85.51 22.5443C85.3153 22.5443 85.1287 22.6216 84.991 22.7593C84.8534 22.8969 84.776 23.0836 84.776 23.2783C84.776 23.4729 84.8534 23.6596 84.991 23.7973C85.1287 23.9349 85.3153 24.0123 85.51 24.0123C85.6796 24.0148 85.8446 23.9575 85.976 23.8503C85.9822 23.8451 85.9895 23.8413 85.9973 23.8391C86.0051 23.837 86.0133 23.8366 86.0212 23.8379C86.0292 23.8392 86.0368 23.8423 86.0435 23.8468C86.0502 23.8514 86.0558 23.8573 86.06 23.8643C86.066 23.8695 86.0707 23.876 86.074 23.8832C86.0773 23.8905 86.079 23.8983 86.079 23.9063C86.079 23.9142 86.0773 23.9221 86.074 23.9293C86.0707 23.9366 86.066 23.943 86.06 23.9483C85.9042 24.0668 85.7138 24.1307 85.518 24.1303C85.4061 24.1303 85.2953 24.1082 85.192 24.0654C85.0886 24.0226 84.9947 23.9598 84.9156 23.8807C84.8364 23.8016 84.7737 23.7077 84.7309 23.6043C84.6881 23.5009 84.666 23.3902 84.666 23.2783C84.666 23.1664 84.6881 23.0556 84.7309 22.9522C84.7737 22.8489 84.8364 22.7549 84.9156 22.6758C84.9947 22.5967 85.0886 22.5339 85.192 22.4911C85.2953 22.4483 85.4061 22.4263 85.518 22.4263H85.51Z" fill="#A6A6A6"/>
<path d="M86.9995 22.5682H86.4935C86.478 22.5677 86.4632 22.5611 86.4524 22.5499C86.4416 22.5387 86.4355 22.5238 86.4355 22.5082C86.436 22.493 86.4423 22.4785 86.4531 22.4677C86.4639 22.457 86.4783 22.4507 86.4935 22.4502H87.6215C87.6368 22.4507 87.6512 22.457 87.662 22.4677C87.6728 22.4785 87.679 22.493 87.6795 22.5082C87.6798 22.516 87.6785 22.5237 87.6757 22.531C87.6729 22.5383 87.6687 22.5449 87.6633 22.5505C87.6579 22.5561 87.6514 22.5606 87.6442 22.5636C87.637 22.5666 87.6293 22.5682 87.6215 22.5682H87.1155V24.0722C87.1155 24.0876 87.1094 24.1023 87.0986 24.1132C87.0877 24.1241 87.0729 24.1302 87.0576 24.1302C87.0422 24.1302 87.0274 24.1241 87.0165 24.1132C87.0057 24.1023 86.9995 24.0876 86.9995 24.0722V22.5682Z" fill="#A6A6A6"/>
<path d="M51.3982 73.2282H91.0202L91.8442 56.9722H50.5742L51.3982 73.2282Z" fill="#EBEBEB"/>
<path d="M89.1416 64.414H72.5756L72.2656 58.77H89.5036L89.1416 64.414ZM72.7656 64.214H88.9536L89.2896 58.97H72.4776L72.7656 64.214Z" fill="#DBDBDB"/>
<path d="M88.8357 70.906H73.2257L72.9717 65.812H89.1537L88.8357 70.906ZM73.4157 70.706H88.6477L88.9417 66.012H73.1817L73.4157 70.706Z" fill="#DBDBDB"/>
<path d="M82.4541 62.2004H79.6701L79.4961 60.8384H82.6301L82.4541 62.2004ZM79.8541 62.0004H82.2861L82.4101 61.0384H79.7301L79.8541 62.0004Z" fill="#DBDBDB"/>
<path d="M82.4541 69.0402H79.6701L79.4961 67.6782H82.6301L82.4541 69.0402ZM79.8541 68.8402H82.2861L82.4101 67.8782H79.7301L79.8541 68.8402Z" fill="#DBDBDB"/>
<path d="M69.6573 64.414H53.0912L52.7812 58.77H70.0193L69.6573 64.414ZM53.2812 64.214H69.4693L69.7992 58.97H52.9992L53.2812 64.214Z" fill="#DBDBDB"/>
<path d="M69.3523 70.906H53.7423L53.4883 65.812H69.6703L69.3523 70.906ZM53.9323 70.706H69.1643L69.4583 66.012H53.6983L53.9323 70.706Z" fill="#DBDBDB"/>
<path d="M62.9697 62.2004H60.1857L60.0117 60.8384H63.1457L62.9697 62.2004ZM60.3697 62.0004H62.7997L62.9237 61.0384H60.2437L60.3697 62.0004Z" fill="#DBDBDB"/>
<path d="M62.9697 69.0402H60.1857L60.0117 67.6782H63.1457L62.9697 69.0402ZM60.3697 68.8402H62.7997L62.9237 67.8782H60.2437L60.3697 68.8402Z" fill="#DBDBDB"/>
<path d="M54.9516 73.228L54.7016 75L54.2016 78.558H53.2236V73.228H54.9516Z" fill="#EBEBEB"/>
<path d="M54.9516 73.228L54.7016 75H53.2236V73.228H54.9516Z" fill="#DBDBDB"/>
<path d="M87.4658 73.228L87.7138 75L88.2158 78.558H89.1938V73.228H87.4658Z" fill="#EBEBEB"/>
<path d="M87.4658 73.228L87.7138 75H89.1938V73.228H87.4658Z" fill="#DBDBDB"/>
<path d="M50.0001 94.5822C69.931 94.5822 86.0881 92.4771 86.0881 89.8802C86.0881 87.2834 69.931 85.1782 50.0001 85.1782C30.0693 85.1782 13.9121 87.2834 13.9121 89.8802C13.9121 92.4771 30.0693 94.5822 50.0001 94.5822Z" fill="#EBEBEB"/>
<path d="M16.8958 84.7341C22.8627 84.7341 27.6998 83.5754 27.6998 82.1461C27.6998 80.7168 22.8627 79.5581 16.8958 79.5581C10.9289 79.5581 6.0918 80.7168 6.0918 82.1461C6.0918 83.5754 10.9289 84.7341 16.8958 84.7341Z" fill="#EBEBEB"/>
<path d="M6.67969 78.558L17.5097 78.51L28.3397 78.492L49.9997 78.46L71.6597 78.492L82.4897 78.51L93.3197 78.558L82.4897 78.608L71.6597 78.626L49.9997 78.658L28.3397 78.626L17.5097 78.608L6.67969 78.558Z" fill="#263238"/>
<path d="M17.2135 43.9218C17.2135 43.9218 11.8355 43.1698 13.0915 36.6758C13.0915 36.6758 19.1015 38.0258 17.2135 43.9218Z" fill="#ED9FF4"/>
<path opacity="0.1" d="M17.2135 43.9218C17.2135 43.9218 11.8355 43.1698 13.0915 36.6758C13.0915 36.6758 19.1015 38.0258 17.2135 43.9218Z" fill="black"/>
<path d="M16.9418 42.5659C16.8367 42.2378 16.7146 41.9153 16.5758 41.5999C16.5758 41.5579 16.5758 41.5159 16.5618 41.4759C16.5618 41.3859 16.5458 41.2979 16.5398 41.2079C16.5238 41.0079 16.5118 40.8199 16.4998 40.6259C16.4778 40.2379 16.4538 39.8499 16.4478 39.4619C16.4478 39.4399 16.4138 39.4419 16.4138 39.4619C16.4138 39.8519 16.4138 40.2399 16.4138 40.6279C16.4138 40.8279 16.4338 41.0159 16.4458 41.2099C16.4458 41.2539 16.4458 41.2959 16.4458 41.3399C16.1435 40.6932 15.782 40.0759 15.3658 39.4959C15.1904 39.2374 15.0015 38.9884 14.7998 38.7499C14.5858 38.5039 14.3598 38.2699 14.1418 38.0279C14.1278 38.0119 14.1058 38.0279 14.1198 38.0519C14.506 38.4791 14.8527 38.9403 15.1558 39.4299C15.3198 39.6759 15.4738 39.9299 15.6218 40.1879L15.5718 40.1699L15.3718 40.0919L14.9318 39.9259C14.6438 39.8179 14.3558 39.7139 14.0678 39.6039C14.0498 39.6039 14.0378 39.6279 14.0558 39.6339C14.3418 39.7479 14.6238 39.8679 14.9078 39.9899L15.3238 40.1699L15.5338 40.2559C15.5788 40.2785 15.6265 40.2953 15.6758 40.3059C15.7838 40.5059 15.8918 40.6959 15.9918 40.8959C16.2412 41.399 16.4603 41.9166 16.6478 42.4459C16.6618 42.4819 16.6738 42.5199 16.6878 42.5579C16.5457 42.4762 16.398 42.4047 16.2458 42.3439L15.6898 42.0919C15.3118 41.9179 14.9378 41.7419 14.5758 41.5379C14.5721 41.5358 14.5677 41.5352 14.5635 41.5364C14.5594 41.5375 14.5559 41.5402 14.5538 41.5439C14.5517 41.5476 14.5511 41.552 14.5522 41.5562C14.5533 41.5603 14.5561 41.5638 14.5598 41.5659C14.9298 41.7659 15.2918 41.9839 15.6618 42.1839C15.8478 42.2839 16.0338 42.3839 16.2238 42.4739C16.3801 42.5668 16.5503 42.6344 16.7278 42.6739C16.9082 43.1661 17.0271 43.6786 17.0818 44.1999C17.1418 44.9339 17.1358 45.6739 17.1538 46.4099H17.1718C17.2258 45.7419 17.2558 45.0679 17.2598 44.3979C17.2519 43.7742 17.1446 43.1558 16.9418 42.5659Z" fill="#263238"/>
<path d="M16.1143 38.7479C16.0624 39.1276 16.0443 39.5111 16.0603 39.8939C16.0603 39.9039 16.0763 39.9039 16.0763 39.8939C16.0983 39.5139 16.1023 39.1339 16.1463 38.7559C16.1483 38.7359 16.1163 38.7279 16.1143 38.7479Z" fill="#263238"/>
<path d="M14.5753 39.0737C14.3348 38.9815 14.1032 38.8677 13.8833 38.7337C13.8653 38.7217 13.8493 38.7517 13.8673 38.7617C14.0827 38.9072 14.3187 39.0198 14.5673 39.0957C14.5793 39.0997 14.5993 39.0797 14.5753 39.0737Z" fill="#263238"/>
<path d="M17.3855 54.2299C17.3855 53.6299 17.3695 53.0419 17.3635 52.4479C17.3515 50.4739 17.3355 48.4999 17.2995 46.5259C17.2715 44.9579 17.2348 43.3912 17.1895 41.8259C17.1894 41.8218 17.1882 41.8178 17.1861 41.8143C17.184 41.8108 17.181 41.8079 17.1775 41.8059C17.1775 41.3779 17.1775 40.9499 17.1775 40.5219C17.1775 40.5099 17.1655 40.5059 17.1515 40.5059C17.1375 40.5059 17.1255 40.5059 17.1275 40.5219C17.1275 40.9512 17.1275 41.3799 17.1275 41.8079C17.1275 41.8079 17.1135 41.8179 17.1135 41.8259C17.0355 44.6259 16.9655 47.4039 16.9475 50.1939C16.9475 50.7619 16.9475 51.3279 16.9475 51.8959C16.9275 53.7132 16.9202 55.5319 16.9255 57.3519C16.9255 57.6399 16.9255 57.9299 16.9255 58.2199C16.9255 59.8839 16.9435 61.5479 16.9435 63.2199C16.9435 63.3079 17.0435 63.3539 17.1435 63.3579C17.2435 63.3619 17.3935 63.3139 17.3935 63.2119C17.3935 61.3779 17.4055 59.5419 17.4055 57.7079C17.3995 56.5439 17.3995 55.3859 17.3855 54.2299Z" fill="#263238"/>
<path d="M15.1399 52.4241C15.1399 52.4241 12.5519 50.5081 10.0979 51.8001C7.64386 53.0921 7.25586 58.0881 7.25586 58.0881C7.25586 58.0881 10.8559 58.6041 13.1319 56.4421C15.3199 54.3621 15.1399 52.4241 15.1399 52.4241Z" fill="#ED9FF4"/>
<path d="M15.8436 52.5419C15.3685 52.3525 14.8538 52.2838 14.3456 52.3419C14.2413 52.3233 14.1356 52.3126 14.0296 52.3099L13.6636 52.2819L12.9096 52.2299C12.3996 52.1919 11.8876 52.1599 11.3776 52.1079C11.3741 52.1091 11.3711 52.1114 11.3689 52.1145C11.3667 52.1175 11.3656 52.1212 11.3656 52.1249C11.3656 52.1286 11.3667 52.1323 11.3689 52.1353C11.3711 52.1384 11.3741 52.1407 11.3776 52.1419C11.8816 52.2059 12.3776 52.2779 12.8876 52.3279C13.1476 52.3539 13.4076 52.3819 13.6696 52.3999L13.8576 52.4179C13.7816 52.4359 13.7036 52.4539 13.6276 52.4759C13.2217 52.5941 12.829 52.7536 12.4556 52.9519C12.2556 52.9879 12.0556 53.0459 11.8556 53.0919C11.5356 53.1679 11.2176 53.2499 10.8996 53.3339C10.2716 53.4979 9.64964 53.6839 9.02564 53.8659C9.00564 53.8659 9.01564 53.9019 9.02564 53.8959C9.64764 53.7439 10.2756 53.6039 10.8996 53.4559L11.8076 53.2379L12.0456 53.1819C11.3515 53.6137 10.7309 54.1538 10.2076 54.7819C9.70403 55.4018 9.27571 56.0792 8.93164 56.7999C8.93164 56.8179 8.94764 56.8359 8.95964 56.8179C9.38555 56.0812 9.90522 55.4029 10.5056 54.7999C10.4936 54.8339 10.4836 54.8699 10.4716 54.9039L10.3276 55.3599C10.2316 55.6659 10.1276 55.9699 10.0436 56.2759C10.0436 56.2959 10.0696 56.3019 10.0756 56.2759C10.1856 55.9799 10.2896 55.6759 10.3936 55.3859C10.4436 55.2399 10.4956 55.0959 10.5456 54.9499C10.5736 54.8739 10.5996 54.7979 10.6236 54.7219C10.6236 54.6999 10.6416 54.6759 10.6496 54.6519C10.938 54.372 11.2439 54.1108 11.5656 53.8699C11.9928 53.5574 12.4537 53.2937 12.9396 53.0839C12.9396 53.1279 12.9236 53.1739 12.9136 53.2159C12.8876 53.3339 12.8616 53.4519 12.8376 53.5699C12.7876 53.8139 12.7396 54.0599 12.6916 54.3059C12.5936 54.8059 12.5336 55.3059 12.4396 55.8139C12.4396 55.8359 12.4676 55.8439 12.4716 55.8139C12.5876 55.3099 12.7376 54.8139 12.8496 54.3099C12.9056 54.0579 12.9616 53.8059 13.0156 53.5539L13.0876 53.1979C13.0996 53.1319 13.1156 53.0659 13.1236 52.9979L13.2636 52.9399C13.9416 52.6879 14.6916 52.5059 15.4156 52.6459C15.7581 52.7093 16.0796 52.8565 16.3514 53.0742C16.6232 53.292 16.837 53.5736 16.9736 53.8939C16.9976 53.9499 17.0856 53.9139 17.0716 53.8559C16.9316 53.2439 16.4136 52.7819 15.8436 52.5419Z" fill="#263238"/>
<path d="M11.8843 54.6738C11.8123 55.0018 11.7383 55.3298 11.6663 55.6578C11.5846 55.972 11.5245 56.2914 11.4863 56.6138C11.4863 56.6278 11.5023 56.6278 11.5063 56.6138C11.6016 56.2986 11.6751 55.9772 11.7263 55.6518C11.7903 55.3278 11.8543 55.0038 11.9163 54.6798C11.9203 54.6618 11.8883 54.6538 11.8843 54.6738Z" fill="#263238"/>
<path d="M9.38125 55.508C9.05125 55.674 8.73325 55.864 8.38125 56.002C8.37928 56.0028 8.37748 56.0039 8.37597 56.0054C8.37445 56.0069 8.37324 56.0087 8.3724 56.0106C8.37156 56.0126 8.37112 56.0146 8.37109 56.0168C8.37107 56.0189 8.37146 56.021 8.37225 56.023C8.37304 56.0249 8.37421 56.0267 8.37569 56.0282C8.37717 56.0298 8.37893 56.031 8.38088 56.0318C8.38284 56.0326 8.38493 56.0331 8.38705 56.0331C8.38917 56.0331 8.39128 56.0328 8.39325 56.032C8.73753 55.8795 9.07335 55.7086 9.39925 55.52C9.39925 55.52 9.39925 55.504 9.38125 55.508Z" fill="#263238"/>
<path d="M15.7221 48.904C15.7221 48.904 12.5601 49.104 11.0881 47.022C9.6161 44.94 9.9481 41.958 9.9481 41.958C9.9481 41.958 13.2701 42.358 14.5881 43.86C15.9061 45.362 15.7221 48.904 15.7221 48.904Z" fill="#ED9FF4"/>
<path d="M17.1996 52.0239C17.0896 51.6859 16.9536 51.3519 16.8256 51.0239C16.6976 50.6959 16.5716 50.3879 16.4256 50.0759C16.144 49.4387 15.8282 48.8171 15.4796 48.2139C15.2556 47.8299 15.0156 47.4559 14.7696 47.0879C14.7696 47.0319 14.7536 46.9759 14.7456 46.9199C14.7316 46.8219 14.7176 46.7199 14.7016 46.6259C14.6696 46.4259 14.6356 46.2259 14.6016 46.0259C14.5296 45.5879 14.4396 45.1539 14.3696 44.7179C14.3696 44.6979 14.3336 44.6979 14.3376 44.7179C14.3996 45.1499 14.4436 45.5839 14.5036 46.0159C14.5336 46.2279 14.5616 46.4399 14.5936 46.6519L14.6296 46.8819C14.1473 46.1761 13.6251 45.4983 13.0656 44.8519L12.8476 44.5999C12.8476 44.5759 12.8276 44.5519 12.8176 44.5279C12.7936 44.4679 12.7716 44.4079 12.7496 44.3459C12.7016 44.2219 12.6576 44.0959 12.6116 43.9699C12.5236 43.7219 12.4436 43.4719 12.3756 43.2179C12.3756 43.1979 12.3396 43.2079 12.3456 43.2179C12.4096 43.4779 12.4756 43.7359 12.5456 43.9919C12.5836 44.1159 12.6236 44.2379 12.6676 44.3599C12.6676 44.3799 12.6816 44.3999 12.6896 44.4199C12.2896 43.9799 11.8636 43.5559 11.4376 43.1359C11.4236 43.1219 11.4016 43.1359 11.4156 43.1599C12.2326 44.0148 12.9816 44.9323 13.6556 45.9039C13.5789 45.8797 13.5007 45.8603 13.4216 45.8459C13.1776 45.7979 12.9336 45.7639 12.6876 45.7319C12.1716 45.6659 11.6576 45.6019 11.1456 45.5199C11.1236 45.5199 11.1156 45.5479 11.1456 45.5519C11.6356 45.6479 12.1196 45.7519 12.6076 45.8719C12.8376 45.9239 13.0676 45.9679 13.2976 46.0139C13.4862 46.0541 13.672 46.1069 13.8536 46.1719C13.9036 46.2459 13.9576 46.3179 14.0076 46.3919C14.2396 46.7279 14.4616 47.0739 14.6796 47.4199L14.3576 47.3579C14.1136 47.3099 13.8676 47.2659 13.6236 47.2259C13.1416 47.1459 12.6576 47.0619 12.1816 46.9539C12.1616 46.9539 12.1536 46.9819 12.1816 46.9859C12.6656 47.0999 13.1436 47.2319 13.6236 47.3599C13.8556 47.4219 14.0896 47.4779 14.3236 47.5299L14.6736 47.6059C14.7208 47.6183 14.769 47.6263 14.8176 47.6299C15.2796 48.3779 15.7116 49.1459 16.1136 49.9279C16.2896 50.2719 16.4596 50.6199 16.6236 50.9679C16.7876 51.3159 16.9376 51.6939 17.0936 52.0579C17.1156 52.1339 17.2296 52.1039 17.1996 52.0239Z" fill="#263238"/>
<path d="M13.9677 44.7578C13.9077 44.4558 13.8437 44.1578 13.7677 43.8538C13.7677 43.8338 13.7317 43.8438 13.7357 43.8538C13.7957 44.1498 13.8537 44.4538 13.9077 44.7438C13.9518 45.042 14.0112 45.3377 14.0857 45.6298C14.0668 45.3368 14.0274 45.0454 13.9677 44.7578Z" fill="#263238"/>
<path d="M12.1239 44.6699C11.9779 44.5959 11.8219 44.5379 11.6699 44.4699L11.4299 44.3759L11.3079 44.3279C11.2612 44.3129 11.2162 44.2928 11.1739 44.2679C11.1499 44.2519 11.1359 44.2919 11.1599 44.2959C11.2068 44.3087 11.2519 44.3275 11.2939 44.3519L11.4139 44.4059L11.6459 44.5079C11.7975 44.579 11.9531 44.6411 12.1119 44.6939C12.1299 44.7079 12.1419 44.6779 12.1239 44.6699Z" fill="#263238"/>
<path d="M18.958 46.418C18.958 46.418 20.872 42.844 23.782 42.29C26.692 41.736 28.476 44.732 28.476 44.732C28.476 44.732 26.352 47.444 23.676 47.918C21 48.392 18.958 46.418 18.958 46.418Z" fill="#ED9FF4"/>
<path d="M25.7339 43.8919C24.9753 43.7891 24.2057 43.7985 23.4499 43.9199L23.5799 43.8499L24.2259 43.5179C24.6698 43.2725 25.1257 43.0495 25.5919 42.8499C25.6139 42.8399 25.5919 42.8099 25.5799 42.8199C25.1239 43.0319 24.6519 43.2199 24.1959 43.4199C23.9659 43.5239 23.7419 43.6339 23.5199 43.7519C23.3759 43.8279 23.2179 43.8999 23.0759 43.9919C22.4365 44.1201 21.8152 44.3263 21.2259 44.6059L21.5899 44.2059C21.8599 43.9079 22.1279 43.5959 22.4259 43.3259C22.4419 43.3119 22.4259 43.2899 22.4019 43.3039C22.0979 43.5799 21.7759 43.8359 21.4799 44.1239C21.3379 44.2639 21.1999 44.4079 21.0659 44.5579C20.9999 44.6319 20.9319 44.7079 20.8659 44.7879C19.8661 45.3232 18.9975 46.0734 18.3224 46.9847C17.6473 47.8959 17.1827 48.9455 16.9619 50.0579C16.9619 50.0779 16.9879 50.0879 16.9939 50.0679C17.4039 48.7053 18.1382 47.4624 19.1339 46.4459C20.207 45.3564 21.5567 44.5799 23.0379 44.1999C23.9166 43.976 24.8253 43.8936 25.7299 43.9559C25.7384 43.9564 25.7468 43.9535 25.7531 43.9479C25.7595 43.9423 25.7634 43.9344 25.7639 43.9259C25.7644 43.9174 25.7616 43.909 25.756 43.9027C25.7503 43.8963 25.7424 43.8924 25.7339 43.8919Z" fill="#263238"/>
<path opacity="0.1" d="M28.4759 44.7319C28.4759 44.7319 26.3519 47.4439 23.6759 47.9179C21.6379 48.2779 19.9619 47.2159 19.2759 46.6919L19.1279 46.4499C19.1279 46.4499 20.5059 45.2899 23.1139 44.6199C25.7219 43.9499 28.4759 44.7319 28.4759 44.7319Z" fill="black"/>
<path d="M24.0418 42.6179C23.819 42.7482 23.6033 42.8904 23.3958 43.0439C23.1936 43.1981 23.0055 43.3702 22.8338 43.5579C22.8316 43.5614 22.8307 43.5657 22.8312 43.5698C22.8318 43.574 22.8338 43.5778 22.8368 43.5807C22.8399 43.5835 22.8439 43.5852 22.8481 43.5854C22.8523 43.5856 22.8564 43.5844 22.8598 43.5819C23.0598 43.4139 23.2458 43.2459 23.4478 43.0879C23.6423 42.9279 23.8468 42.7802 24.0598 42.6459C24.0616 42.6447 24.0632 42.6432 24.0645 42.6414C24.0657 42.6396 24.0666 42.6375 24.0671 42.6354C24.0675 42.6333 24.0676 42.6311 24.0672 42.6289C24.0668 42.6268 24.066 42.6247 24.0648 42.6229C24.0636 42.621 24.0621 42.6195 24.0603 42.6182C24.0585 42.617 24.0565 42.6161 24.0543 42.6156C24.0522 42.6152 24.05 42.6151 24.0478 42.6155C24.0457 42.6159 24.0436 42.6167 24.0418 42.6179Z" fill="#263238"/>
<path d="M25.6397 43.222C25.5317 43.268 25.4217 43.306 25.3137 43.352L24.9897 43.486C24.9677 43.486 24.9777 43.534 25.0017 43.524L25.3257 43.392C25.4357 43.348 25.5417 43.298 25.6497 43.254C25.6697 43.246 25.6597 43.214 25.6397 43.222Z" fill="#263238"/>
<path d="M18.5762 50.9161C18.5762 50.9161 19.0882 54.4621 21.7542 55.7021C24.4202 56.9421 27.6702 55.7021 27.6702 55.7021C27.6702 55.7021 26.4002 48.0321 18.5762 50.9161Z" fill="#ED9FF4"/>
<path d="M25.8316 53.3998C25.5876 53.3718 25.3416 53.3298 25.0996 53.2858L24.7396 53.2178L24.5536 53.1798C24.4816 53.1138 24.4116 53.0458 24.3376 52.9798C23.8312 52.5362 23.2849 52.1406 22.7056 51.7978C22.3906 51.6111 22.0646 51.4435 21.7296 51.2958H21.7796L22.6576 51.3338C23.2416 51.3618 23.8276 51.3738 24.4116 51.4118C24.4336 51.4118 24.4316 51.3818 24.4116 51.3798C23.8236 51.3398 23.2396 51.2758 22.6536 51.2258L21.8016 51.1498L21.3616 51.1118L21.2496 51.0998C21.0976 51.0418 20.9456 50.9878 20.7896 50.9398C20.0629 50.6903 19.2812 50.6474 18.5316 50.8158C17.8616 50.9878 17.1916 51.4278 17.0176 52.1338C17.0176 52.1578 17.0496 52.1758 17.0596 52.1518C17.3096 51.5518 17.9656 51.2618 18.5576 51.1398C18.9534 51.0647 19.3591 51.0566 19.7576 51.1158C19.7845 51.2984 19.8294 51.478 19.8916 51.6518C19.9656 51.9018 20.0376 52.1518 20.1136 52.3998C20.2656 52.8978 20.4316 53.3998 20.5796 53.8898C20.5796 53.894 20.5813 53.8981 20.5843 53.9011C20.5873 53.9041 20.5913 53.9058 20.5956 53.9058C20.5998 53.9058 20.6039 53.9041 20.6069 53.9011C20.6099 53.8981 20.6116 53.894 20.6116 53.8898C20.4876 53.3918 20.3816 52.8898 20.2616 52.3898C20.2036 52.1458 20.1416 51.9018 20.0816 51.6578C20.0467 51.4873 20.002 51.319 19.9476 51.1538C20.1812 51.1945 20.4122 51.2486 20.6396 51.3158C21.0486 51.4382 21.4494 51.5865 21.8396 51.7598C21.8776 52.0118 21.9356 52.2618 21.9936 52.5118C22.0656 52.8238 22.1476 53.1338 22.2456 53.4398C22.2467 53.4428 22.2488 53.4455 22.2514 53.4474C22.2541 53.4492 22.2573 53.4502 22.2606 53.4502C22.2638 53.4502 22.267 53.4492 22.2697 53.4474C22.2724 53.4455 22.2744 53.4428 22.2756 53.4398L22.2636 53.3818C22.2036 53.0918 22.1396 52.8018 22.0776 52.5118C22.0296 52.2778 21.9836 52.0438 21.9336 51.8118C22.2656 51.9593 22.5901 52.1235 22.9056 52.3038C22.9056 52.3758 22.9296 52.4498 22.9396 52.5158C22.9596 52.6358 22.9816 52.7578 23.0036 52.8798C23.0536 53.1518 23.1076 53.4258 23.1736 53.6958C23.2942 54.2188 23.4472 54.7337 23.6316 55.2378C23.6293 55.2406 23.6281 55.2441 23.6281 55.2478C23.6281 55.2514 23.6293 55.2549 23.6316 55.2578L23.6476 55.2758C23.6596 55.2898 23.6776 55.2758 23.6736 55.2598C23.5516 54.7338 23.4096 54.2118 23.2936 53.6858C23.2376 53.4218 23.1796 53.1578 23.1256 52.8858C23.0996 52.7538 23.0756 52.6218 23.0496 52.4858L23.0316 52.3678C23.3907 52.5782 23.7373 52.8092 24.0696 53.0598C24.6451 53.4907 25.1776 53.9763 25.6596 54.5098C25.6776 54.5318 25.7156 54.5098 25.6976 54.4778C25.4997 54.2091 25.2881 53.9507 25.0636 53.7038C24.9296 53.5598 24.7896 53.4198 24.6476 53.2838H24.6916C24.8176 53.3058 24.9416 53.3238 25.0676 53.3398C25.3136 53.3738 25.5616 53.3978 25.8096 53.4258C25.8456 53.4298 25.8536 53.3998 25.8316 53.3998Z" fill="#263238"/>
<path d="M23.9602 54.6001C23.9602 54.5701 23.9602 54.5381 23.9442 54.5081C23.9282 54.4781 23.9182 54.4321 23.9122 54.3921C23.8582 54.1541 23.8122 53.9161 23.7682 53.6761C23.7682 53.6601 23.7402 53.6641 23.7402 53.6761C23.7565 53.9935 23.824 54.3062 23.9402 54.6021C23.9402 54.6121 23.9622 54.6021 23.9602 54.6021V54.6001Z" fill="#263238"/>
<path d="M21.7279 54.5417C21.7279 54.5417 21.7279 54.5257 21.7119 54.5257C21.6359 54.2117 21.5639 53.8977 21.4999 53.5817C21.4659 53.4157 21.4319 53.2497 21.3999 53.0837C21.3819 52.9937 21.3659 52.9037 21.3499 52.8137C21.3429 52.7344 21.3233 52.6568 21.2919 52.5837C21.2907 52.5806 21.2887 52.578 21.286 52.5761C21.2833 52.5742 21.2801 52.5732 21.2769 52.5732C21.2736 52.5732 21.2704 52.5742 21.2677 52.5761C21.265 52.578 21.263 52.5806 21.2619 52.5837C21.2597 52.7449 21.2827 52.9055 21.3299 53.0597C21.3619 53.2317 21.3959 53.4057 21.4339 53.5777C21.5119 53.9277 21.5979 54.2757 21.6979 54.6197C21.6991 54.6232 21.7014 54.6263 21.7044 54.6284C21.7075 54.6306 21.7111 54.6318 21.7149 54.6318C21.7186 54.6318 21.7222 54.6306 21.7253 54.6284C21.7283 54.6263 21.7306 54.6232 21.7319 54.6197L21.7279 54.5417Z" fill="#263238"/>
<path d="M25.5993 52.3738C25.1113 52.3078 24.6253 52.2378 24.1373 52.1738C24.1173 52.1738 24.1093 52.2038 24.1373 52.2058C24.6233 52.2778 25.1113 52.3378 25.5993 52.4058C25.5993 52.4098 25.6093 52.3778 25.5993 52.3738Z" fill="#263238"/>
<path d="M17.2094 42.5999C17.2094 42.5999 15.5774 35.4439 23.2674 32.5459C23.2674 32.5459 25.3994 41.9679 17.2094 42.5999Z" fill="#ED9FF4"/>
<path d="M18.8703 38.542L18.9523 38.492L19.3883 38.248L20.2803 37.75C20.8663 37.42 21.4463 37.08 22.0363 36.75C22.0563 36.75 22.0363 36.712 22.0203 36.722C21.4203 37.044 20.8203 37.346 20.2303 37.66L19.3483 38.126L18.9883 38.326C19.2443 37.84 19.5183 37.364 19.8203 36.904C20.2203 36.29 20.6623 35.704 21.1203 35.136C21.1251 35.1309 21.1277 35.1242 21.1275 35.1173C21.1273 35.1103 21.1244 35.1037 21.1193 35.099C21.1143 35.0942 21.1075 35.0916 21.1006 35.0918C21.0937 35.092 21.0871 35.0949 21.0823 35.1C20.407 35.7552 19.8104 36.4868 19.3043 37.28C19.3043 37.254 19.3043 37.228 19.3043 37.204C19.3043 37.026 19.3183 36.848 19.3203 36.67C19.3203 36.32 19.3083 35.97 19.3203 35.622C19.3203 35.6 19.2883 35.602 19.2863 35.622C19.2723 35.966 19.2303 36.31 19.2103 36.654C19.2103 36.824 19.1943 36.996 19.1883 37.168C19.1883 37.26 19.1883 37.368 19.1883 37.468C19.031 37.72 18.8796 37.9753 18.7343 38.234C18.4766 38.7006 18.2468 39.1821 18.0463 39.676C18.0463 39.498 18.0283 39.32 18.0183 39.142C17.9943 38.742 17.9483 38.36 17.9303 37.968C17.9303 37.9637 17.9286 37.9597 17.9256 37.9567C17.9226 37.9537 17.9186 37.952 17.9143 37.952C17.9101 37.952 17.906 37.9537 17.903 37.9567C17.9 37.9597 17.8983 37.9637 17.8983 37.968C17.8983 38.368 17.8983 38.752 17.8983 39.144C17.8983 39.344 17.9103 39.544 17.9223 39.732C17.9223 39.804 17.9223 39.878 17.9363 39.95C17.6918 40.5898 17.4979 41.2478 17.3563 41.918C17.2229 42.6331 17.1275 43.3548 17.0703 44.08C17.1478 43.4276 17.2817 42.7832 17.4703 42.154C17.5643 41.816 17.6703 41.48 17.7743 41.154C18.0943 41.004 18.4003 40.816 18.7083 40.644L19.6743 40.116C20.3163 39.764 20.9563 39.406 21.6183 39.096C21.6363 39.096 21.6183 39.058 21.6003 39.068C20.9303 39.37 20.2543 39.668 19.6003 39.99C19.2723 40.156 18.9503 40.332 18.6303 40.512C18.3643 40.662 18.0883 40.812 17.8303 40.986C17.9043 40.762 17.9823 40.54 18.0683 40.322C18.3043 39.715 18.572 39.1209 18.8703 38.542Z" fill="#263238"/>
<path d="M18.2215 36.9042C18.2203 36.9006 18.218 36.8976 18.2149 36.8954C18.2119 36.8933 18.2082 36.8921 18.2045 36.8921C18.2008 36.8921 18.1971 36.8933 18.1941 36.8954C18.191 36.8976 18.1887 36.9006 18.1875 36.9042C18.2155 37.3042 18.2295 37.7202 18.2735 38.1282C18.2735 38.1329 18.2754 38.1375 18.2788 38.1409C18.2821 38.1443 18.2867 38.1462 18.2915 38.1462C18.2963 38.1462 18.3009 38.1443 18.3042 38.1409C18.3076 38.1375 18.3095 38.1329 18.3095 38.1282C18.2955 37.7202 18.2515 37.3142 18.2215 36.9042Z" fill="#263238"/>
<path d="M21.9074 38.2718C21.4274 38.4718 20.9414 38.6498 20.4614 38.8498C20.4494 38.8498 20.4614 38.8778 20.4614 38.8718C20.9474 38.6898 21.4254 38.4918 21.9094 38.3038C21.9374 38.2958 21.9274 38.2638 21.9074 38.2718Z" fill="#263238"/>
<path d="M22.6393 34.9699C22.1685 35.1859 21.7116 35.431 21.2713 35.7039C21.2681 35.7074 21.2662 35.7118 21.2657 35.7166C21.2653 35.7213 21.2664 35.726 21.2689 35.7301C21.2713 35.7341 21.275 35.7373 21.2794 35.739C21.2839 35.7408 21.2887 35.7411 21.2933 35.7399C21.7393 35.4779 22.1933 35.2279 22.6553 34.9979C22.6753 34.9999 22.6573 34.9619 22.6393 34.9699Z" fill="#263238"/>
<path d="M22.5216 58.0781H11.4316V69.7681H22.5216V58.0781Z" fill="#455A64"/>
<path d="M11.2379 62.2158H10.6699V82.2398H11.2379V62.2158Z" fill="#263238"/>
<path d="M23.2282 62.2158H22.6602V82.2398H23.2282V62.2158Z" fill="#263238"/>
<path d="M17.5338 62.2158H16.9658V82.2398H17.5338V62.2158Z" fill="#263238"/>
<path d="M22.9441 69.02H10.9541V70.638H22.9441V69.02Z" fill="#263238"/>
<path d="M67.1253 75.7002C67.1253 75.7002 67.1253 84.3142 67.1253 84.3202C67.1253 85.9662 67.1113 87.4102 67.0293 88.1562C67.0304 88.158 67.0309 88.1601 67.0309 88.1622C67.0309 88.1643 67.0304 88.1664 67.0293 88.1682C67.0294 88.3452 66.9883 88.5198 66.9093 88.6782L66.8993 88.6882C66.4113 89.0222 53.2513 89.4742 52.7873 89.3342C52.3233 89.1942 52.6813 87.8622 53.1873 87.4362C53.6933 87.0102 58.6473 84.5862 58.6473 84.5862L58.7293 75.9762L67.1253 75.7002Z" fill="#AD6359"/>
<path d="M67.1234 82.5498V84.3198C67.1234 85.9658 67.1094 87.4098 67.0274 88.1558C67.0284 88.1576 67.029 88.1597 67.029 88.1618C67.029 88.1639 67.0284 88.166 67.0274 88.1678C67.0067 88.3418 66.9664 88.5129 66.9074 88.6778L66.8974 88.6878C66.4094 89.0218 53.2494 89.4738 52.7854 89.3338C52.3214 89.1938 52.6794 87.8618 53.1854 87.4358C53.6914 87.0098 58.6454 84.5858 58.6454 84.5858L58.6214 82.7858L67.1234 82.5498Z" fill="#C7C7C7"/>
<path d="M52.7855 89.3341C53.2495 89.4741 66.4095 89.0241 66.8995 88.6881C67.0875 88.5641 67.1335 86.6421 67.1235 84.3201V84.2461L58.6295 84.4461L58.6395 84.5901C58.6395 84.5901 53.6795 87.0161 53.1795 87.4421C52.6795 87.8681 52.3195 89.2001 52.7855 89.3341Z" fill="#263238"/>
<path d="M52.9154 88.82C55.1334 88.688 64.0854 88.372 66.2854 88.42C66.3034 88.42 66.3034 88.432 66.2854 88.434C64.0854 88.61 55.1374 88.856 52.9174 88.864C52.8714 88.856 52.8694 88.822 52.9154 88.82Z" fill="#455A64"/>
<path d="M57.9231 84.6357C58.7911 84.4357 59.8631 84.5397 60.5511 85.1397C60.5791 85.1637 60.5511 85.1997 60.5171 85.1917C59.6735 84.9514 58.8066 84.8019 57.9311 84.7457C57.918 84.7444 57.9058 84.7384 57.8967 84.729C57.8875 84.7196 57.882 84.7072 57.881 84.6941C57.8801 84.6809 57.8838 84.6679 57.8915 84.6572C57.8992 84.6465 57.9104 84.6389 57.9231 84.6357Z" fill="#455A64"/>
<path d="M57.3076 85.038C58.1736 84.838 59.2476 84.942 59.9356 85.542C59.9616 85.564 59.9356 85.602 59.8996 85.594C59.056 85.3535 58.189 85.2039 57.3136 85.148C57.3006 85.1464 57.2886 85.1402 57.2796 85.1306C57.2707 85.121 57.2654 85.1086 57.2647 85.0956C57.264 85.0825 57.2679 85.0696 57.2757 85.059C57.2836 85.0485 57.2948 85.0411 57.3076 85.038Z" fill="#455A64"/>
<path d="M56.6897 85.4381C57.5577 85.2381 58.6297 85.3441 59.3177 85.9421C59.3457 85.9661 59.3177 86.0041 59.2837 85.9961C58.4401 85.7551 57.5732 85.6049 56.6977 85.5481C56.6846 85.5467 56.6724 85.5408 56.6633 85.5314C56.6541 85.5219 56.6486 85.5095 56.6476 85.4964C56.6467 85.4833 56.6504 85.4702 56.6581 85.4596C56.6658 85.4489 56.677 85.4413 56.6897 85.4381Z" fill="#455A64"/>
<path d="M67.8795 43.7658L67.8715 44.3358L67.5495 69.5078L67.5475 69.6038L67.3575 84.6818L58.1455 84.4978L59.9235 43.7958L59.9475 43.2518L60.0375 38.5298H67.8175L67.8795 43.7658Z" fill="#455A64"/>
<path d="M58.5322 82.9622C59.9702 82.9482 59.5562 82.9322 60.9942 82.9362C61.6982 82.9362 66.3242 82.9542 66.9802 83.0702C66.9942 83.0702 66.9942 83.0982 66.9802 83.1002C66.3202 83.2002 61.6962 83.1002 60.9922 83.0882C59.5542 83.0582 59.9682 83.0502 58.5302 83.0042C58.5257 83.0026 58.5219 82.9996 58.5193 82.9957C58.5167 82.9918 58.5154 82.9871 58.5156 82.9824C58.5159 82.9777 58.5176 82.9732 58.5206 82.9696C58.5235 82.9659 58.5276 82.9633 58.5322 82.9622Z" fill="#263238"/>
<path d="M62.6576 46.4139C62.6576 46.4097 62.6559 46.4056 62.6529 46.4026C62.6499 46.3996 62.6458 46.3979 62.6416 46.3979C62.6373 46.3979 62.6332 46.3996 62.6302 46.4026C62.6272 46.4056 62.6256 46.4097 62.6256 46.4139C62.6256 48.8239 62.5276 50.1739 62.4696 52.5819C62.4116 54.9899 62.3416 57.3979 62.2696 59.8039C62.1396 64.6179 61.9456 69.428 61.7676 74.24C61.6676 76.9386 61.5429 79.6359 61.3936 82.332C61.3936 82.3357 61.395 82.3392 61.3977 82.3419C61.4003 82.3445 61.4038 82.346 61.4076 82.346C61.4113 82.346 61.4148 82.3445 61.4175 82.3419C61.4201 82.3392 61.4216 82.3357 61.4216 82.332C61.7716 77.5319 62.1056 72.716 62.2976 67.902C62.4896 63.0879 62.6256 58.2759 62.6476 53.4619C62.6676 50.7599 62.6516 49.1159 62.6576 46.4139Z" fill="#263238"/>
<path d="M67.878 43.7663L67.55 69.5083L61.376 38.5303H67.816L67.878 43.7663Z" fill="#263238"/>
<path d="M77.4581 75.2339C77.4581 75.2339 78.6181 83.7679 78.6181 83.7739C78.8501 85.4059 79.0181 86.8399 79.0421 87.5899C79.0421 87.5899 79.0421 87.5899 79.0421 87.6019C79.0654 87.7766 79.049 87.9544 78.9941 88.1219C78.9939 88.1259 78.9939 88.1299 78.9941 88.1339C78.5541 88.5339 65.5741 90.7539 65.0961 90.6779C64.6181 90.6019 64.7941 89.2339 65.2281 88.7439C65.6621 88.2539 70.2541 85.1839 70.2541 85.1839L69.1741 76.6419L77.4581 75.2339Z" fill="#AD6359"/>
<path d="M78.3801 82.022C78.3801 82.022 78.6181 83.768 78.6181 83.774C78.8501 85.406 79.0181 86.84 79.0421 87.59C79.0421 87.59 79.0421 87.59 79.0421 87.602C79.0458 87.7766 79.0297 87.951 78.9941 88.122C78.9939 88.126 78.9939 88.13 78.9941 88.134C78.5541 88.534 65.5741 90.754 65.0961 90.678C64.6181 90.602 64.7941 89.234 65.2281 88.744C65.6621 88.254 70.2541 85.184 70.2541 85.184L69.9801 83.4L78.3801 82.022Z" fill="#C7C7C7"/>
<path d="M65.0879 90.6781C65.5679 90.7541 78.5459 88.5321 78.9859 88.1341C79.1559 87.9841 78.9419 86.0761 78.6179 83.7741L78.6059 83.7021L70.2179 85.0421L70.2459 85.1841C70.2459 85.1841 65.6579 88.2561 65.2199 88.7461C64.7819 89.2361 64.5999 90.6001 65.0879 90.6781Z" fill="#263238"/>
<path d="M65.1473 90.1502C67.3273 89.7222 76.1473 88.2002 78.3473 87.9502C78.3653 87.9502 78.3673 87.9602 78.3473 87.9642C76.1973 88.4362 67.3593 89.8862 65.1593 90.1942C65.1073 90.2002 65.1013 90.1602 65.1473 90.1502Z" fill="#455A64"/>
<path d="M69.546 85.3297C70.38 85.0217 71.456 84.9737 72.218 85.4737C72.248 85.4937 72.218 85.5357 72.19 85.5317C71.3219 85.4064 70.4428 85.3749 69.568 85.4377C69.5549 85.438 69.5421 85.4337 69.5318 85.4255C69.5215 85.4173 69.5145 85.4058 69.5119 85.3929C69.5092 85.3801 69.5112 85.3667 69.5175 85.3551C69.5237 85.3436 69.5338 85.3346 69.546 85.3297Z" fill="#455A64"/>
<path d="M68.9874 85.81C69.8214 85.502 70.8974 85.454 71.6594 85.956C71.6894 85.974 71.6594 86.016 71.6314 86.012C70.7632 85.8876 69.8843 85.8561 69.0094 85.918C68.9963 85.9183 68.9835 85.914 68.9732 85.9058C68.963 85.8976 68.9559 85.8861 68.9533 85.8732C68.9507 85.8603 68.9526 85.847 68.9589 85.8354C68.9651 85.8239 68.9752 85.8149 68.9874 85.81Z" fill="#455A64"/>
<path d="M68.4317 86.2921C69.2657 85.9841 70.3397 85.9361 71.1037 86.4361C71.1337 86.4561 71.1037 86.4981 71.0757 86.4941C70.2077 86.3679 69.3286 86.3364 68.4537 86.4001C68.4406 86.4004 68.4278 86.3961 68.4175 86.3879C68.4073 86.3797 68.4002 86.3682 68.3976 86.3553C68.395 86.3425 68.397 86.3291 68.4032 86.3175C68.4094 86.306 68.4195 86.297 68.4317 86.2921Z" fill="#455A64"/>
<path d="M60.8301 38.522C60.8641 38.682 61.4081 41.206 61.9721 43.374C62.3821 44.958 62.8041 46.35 63.0461 46.494C63.3201 46.656 64.6561 47.248 65.1041 47.434L67.1501 67L69.9161 85.116L78.9601 83.716L72.5241 44.068L71.4761 38.522H60.8301Z" fill="#455A64"/>
<path d="M69.9699 83.2981C71.3899 83.0701 70.9699 83.1141 72.4019 82.8981C73.0979 82.7941 77.6739 82.1161 78.3399 82.1341C78.3539 82.1341 78.3579 82.1581 78.3399 82.1621C77.7039 82.3621 73.1159 82.9621 72.4179 83.0501C70.9919 83.2341 71.3999 83.1661 69.9719 83.3361C69.9685 83.3344 69.9656 83.3318 69.9635 83.3285C69.9614 83.3253 69.9602 83.3216 69.96 83.3177C69.9598 83.3139 69.9606 83.31 69.9623 83.3066C69.9641 83.3032 69.9667 83.3002 69.9699 83.2981Z" fill="#263238"/>
<path d="M75.1994 77.8879C74.9734 76.6319 74.7494 75.3759 74.5174 74.1199C74.0547 71.6079 73.588 69.0966 73.1174 66.5859C72.1734 61.5606 71.24 56.5312 70.3174 51.4979C69.8014 48.6579 69.8134 48.9239 69.3634 46.0699C69.3634 46.0519 69.3274 46.0539 69.3314 46.0699C69.7634 48.6059 69.5594 48.0499 69.9674 50.5899C70.3754 53.1299 70.8034 55.6159 71.2534 58.1219C72.1574 63.1599 73.1054 68.1899 74.0634 73.2179C74.33 74.6286 74.6027 76.0372 74.8814 77.4439C75.1614 78.8799 75.4814 80.3079 75.7774 81.7399C75.7774 81.7719 75.8354 81.7699 75.8294 81.7399C75.6214 80.4579 75.4334 79.1699 75.1994 77.8879Z" fill="#263238"/>
<path d="M72.7135 46.2582C72.4735 46.1962 72.2155 46.1762 71.9715 46.1382C71.7715 46.1062 71.5715 46.0702 71.3715 46.0282C70.9952 45.9609 70.6385 45.8106 70.3275 45.5882C69.9875 45.3242 69.8135 44.9222 69.6495 44.5362C69.5509 44.3082 69.4509 44.0802 69.3495 43.8522L69.1995 43.5222C69.1297 43.3926 69.0676 43.2591 69.0135 43.1222C69.0135 43.1022 68.9755 43.1222 68.9835 43.1222C69.0176 43.2156 69.0456 43.3112 69.0675 43.4082C69.1015 43.5182 69.1315 43.6282 69.1655 43.7382C69.2275 43.9382 69.2875 44.1382 69.3515 44.3382C69.4489 44.699 69.5892 45.0468 69.7695 45.3742C70.1335 45.9502 70.7815 46.1842 71.4295 46.2662C71.6155 46.2882 71.8035 46.3022 71.9915 46.3122C72.2271 46.3332 72.464 46.3332 72.6995 46.3122C72.705 46.3107 72.71 46.3078 72.714 46.3038C72.718 46.2998 72.7209 46.2948 72.7223 46.2893C72.7237 46.2838 72.7237 46.278 72.7221 46.2725C72.7206 46.2671 72.7176 46.2621 72.7135 46.2582Z" fill="#263238"/>
<path d="M62.3355 46.1478C63.2894 46.4943 64.2109 46.9239 65.0895 47.4318C65.0969 47.4352 65.1027 47.4415 65.1055 47.4492C65.1083 47.4569 65.108 47.4654 65.1045 47.4728C65.1011 47.4802 65.0948 47.486 65.0871 47.4888C65.0794 47.4916 65.0709 47.4912 65.0635 47.4878C64.1355 47.0878 63.1895 46.7078 62.2855 46.2598C62.273 46.2518 62.2637 46.2396 62.2595 46.2253C62.2552 46.2111 62.2562 46.1958 62.2622 46.1822C62.2683 46.1687 62.279 46.1577 62.2925 46.1514C62.3059 46.1451 62.3212 46.1438 62.3355 46.1478Z" fill="#263238"/>
<path d="M62.0557 39.8C62.0557 39.768 62.1157 39.76 62.1157 39.8C62.1151 40.8353 62.1671 41.87 62.2717 42.9C62.3137 43.378 62.6977 46.018 63.5277 45.826C63.6657 45.794 63.7277 45.656 63.7577 45.448C63.7547 45.1745 63.7178 44.9024 63.6477 44.638C63.5557 44.084 63.4817 43.53 63.4357 42.972C63.338 41.9324 63.3494 40.8853 63.4697 39.848C63.4697 39.8411 63.4725 39.8345 63.4773 39.8296C63.4822 39.8248 63.4888 39.822 63.4957 39.822C63.5026 39.822 63.5092 39.8248 63.5141 39.8296C63.519 39.8345 63.5217 39.8411 63.5217 39.848C63.4986 41.2903 63.5828 42.7323 63.7737 44.162C63.8777 44.848 64.2237 45.882 63.5057 45.988C62.7877 46.094 62.3057 44.364 62.2117 43.89C61.9826 42.5392 61.9302 41.1644 62.0557 39.8Z" fill="#263238"/>
<path d="M63.5058 45.8862C63.5788 46.065 63.641 46.248 63.6918 46.4342C63.7453 46.5782 63.7717 46.7307 63.7698 46.8842C63.7687 46.8905 63.7657 46.8962 63.7612 46.9008C63.7568 46.9053 63.7511 46.9084 63.7448 46.9097C63.7386 46.911 63.7322 46.9104 63.7263 46.908C63.7204 46.9056 63.7154 46.9015 63.7118 46.8962C63.6225 46.7617 63.555 46.6138 63.5118 46.4582C63.4478 46.2902 63.3818 46.1202 63.3238 45.9502C63.3153 45.9261 63.3168 45.8996 63.3278 45.8765C63.3389 45.8535 63.3587 45.8357 63.3828 45.8272C63.407 45.8188 63.4335 45.8202 63.4565 45.8313C63.4796 45.8423 63.4973 45.8621 63.5058 45.8862Z" fill="#263238"/>
<path d="M72.6173 44.6498C71.5213 44.5778 59.9473 43.2498 59.9473 43.2498L60.0373 38.5278H60.8373H71.4833L72.5313 44.0738L72.6173 44.6498Z" fill="#263238"/>
<path d="M64.5115 27.6839C63.1875 31.8279 60.9455 36.1059 60.2975 36.9479C58.5595 39.2119 53.3376 41.4419 51.7436 41.7299C51.0536 41.8539 49.3996 37.4039 49.8276 36.7919C50.2556 36.1799 56.7456 33.6999 57.0636 33.3699C57.2836 33.1399 60.0216 29.6119 61.8636 27.4839C64.1656 24.8379 64.8595 26.5999 64.5115 27.6839Z" fill="#AD6359"/>
<path d="M51.2139 35.9281L53.7779 41.1281C53.7779 41.1281 59.2279 38.7661 60.5259 37.0801C61.8239 35.3941 64.1759 29.6801 64.5259 27.8601C64.8759 26.0401 64.2719 24.7401 61.8339 27.4001C59.3959 30.0601 57.3759 32.7101 56.9399 33.1541C56.5039 33.5981 51.2139 35.9281 51.2139 35.9281Z" fill="#EBEBEB"/>
<path d="M51.4297 35.6641L54.5017 41.0521C54.5017 41.0521 59.3017 38.7581 60.5257 37.2521C61.7497 35.7461 63.7677 31.1221 64.3997 28.6261C65.0317 26.1301 64.6617 24.3601 61.8357 27.4141C59.0097 30.4681 57.4117 32.6861 56.8357 33.1841C56.5617 33.4001 51.4297 35.6641 51.4297 35.6641Z" fill="#37474F"/>
<path d="M52.7234 36.1621C52.8792 36.1621 53.0054 36.0359 53.0054 35.8801C53.0054 35.7244 52.8792 35.5981 52.7234 35.5981C52.5677 35.5981 52.4414 35.7244 52.4414 35.8801C52.4414 36.0359 52.5677 36.1621 52.7234 36.1621Z" fill="#263238"/>
<path d="M54.0535 35.5498C54.2092 35.5498 54.3355 35.4236 54.3355 35.2678C54.3355 35.1121 54.2092 34.9858 54.0535 34.9858C53.8977 34.9858 53.7715 35.1121 53.7715 35.2678C53.7715 35.4236 53.8977 35.5498 54.0535 35.5498Z" fill="#263238"/>
<path d="M64.3993 28.618C63.7673 31.114 61.7513 35.73 60.5253 37.244C60.0013 37.89 58.8293 38.678 57.6553 39.37L63.8413 25.822C64.7993 25.562 64.8293 26.922 64.3993 28.618Z" fill="#263238"/>
<path d="M73.2221 42.6681C73.1901 42.7041 59.3541 42.7461 59.2221 42.6041C59.0441 42.4041 62.1701 27.4041 63.5901 25.5621C63.8921 25.1621 64.8941 25.0561 65.7461 25.1621C65.9684 25.1872 66.1879 25.232 66.4021 25.2961H66.4261C66.5989 25.3471 66.7619 25.4268 66.9081 25.5321C69.2761 27.4241 71.2721 34.0381 71.7381 36.0241C72.5181 39.3021 73.3361 42.5381 73.2221 42.6681Z" fill="#EBEBEB"/>
<path d="M66.8679 25.356C66.8679 25.356 65.7419 31.496 65.5459 33.092C65.3499 34.688 65.6379 43.118 65.6379 43.118L74.3259 43.76C74.3259 43.76 72.4479 38.18 72.4259 37.826C72.4259 37.826 70.8659 31.142 69.4039 28.35C68.7653 27.1938 67.9032 26.176 66.8679 25.356Z" fill="#37474F"/>
<path d="M74.3262 43.7601L70.3862 43.4681L67.5742 25.9741V25.9861L69.3382 28.2461C69.3582 28.2821 69.3782 28.3181 69.3962 28.3541C70.8582 31.1541 72.4182 37.8301 72.4182 37.8301C72.4482 38.1801 74.3262 43.7601 74.3262 43.7601Z" fill="#263238"/>
<path d="M63.5055 25.4902C63.5055 25.4902 62.5835 31.7082 62.4835 32.2222C62.3835 32.7362 60.9875 42.8762 60.9875 42.8762L58.8135 42.9442L59.9475 38.3082C59.9475 38.3082 62.4695 26.8142 63.5055 25.4902Z" fill="#37474F"/>
<path d="M64.7753 28.9021L64.1593 27.7021L63.3633 28.5702L63.5593 29.4341L64.3433 29.5361L64.7753 28.9021Z" fill="#263238"/>
<path d="M64.3431 29.5361L64.7191 38.3641L63.0651 41.2841L62.2051 37.9981L63.5591 29.4341L64.3431 29.5361Z" fill="#263238"/>
<path d="M63.9972 53.9352L63.9863 64.3032L81.0983 64.3211L81.1092 53.9531L63.9972 53.9352Z" fill="#ED9FF4"/>
<path opacity="0.1" d="M63.9963 53.9364L63.9912 58.8184L81.1032 58.8363L81.1083 53.9543L63.9963 53.9364Z" fill="black"/>
<path d="M63.5888 57.2469L81.5107 57.2656L81.5158 52.4276L63.5938 52.4089L63.5888 57.2469Z" fill="#ED9FF4"/>
<path d="M68.7833 49.6562L68.7793 52.4143L70.0773 52.4162L70.0793 50.8462L75.0293 50.8522L75.0273 52.4222H76.3253L76.3273 49.6622L68.7833 49.6562Z" fill="#263238"/>
<path d="M77.8808 58.4153L79.0488 58.4165L79.0512 56.1045L77.8833 56.1033L77.8808 58.4153Z" fill="#263238"/>
<path d="M66.0468 58.4055L67.2148 58.4067L67.2173 56.0947L66.0493 56.0935L66.0468 58.4055Z" fill="#263238"/>
<path d="M68.7797 27.1998C72.6397 30.7018 75.0897 35.7038 75.2557 36.7138C75.6557 39.1558 76.1617 43.4358 76.0757 45.3138C76.0437 46.0098 70.7697 45.1658 70.7797 44.4218C70.8137 42.0938 70.5037 36.9738 70.4897 36.8838C70.3957 36.2578 69.2477 33.4438 68.0897 30.3918C66.9317 27.3398 67.1557 25.7298 68.7797 27.1998Z" fill="#AD6359"/>
<path d="M70.2233 51.7183C70.3772 51.7882 70.5487 51.8094 70.715 51.779C70.8812 51.7487 71.0342 51.6681 71.1533 51.5483C71.3038 51.7927 71.5352 51.9767 71.8073 52.0683C72.2933 52.2083 72.7253 51.5063 72.7253 51.5063C72.9349 51.7274 73.2058 51.8807 73.5033 51.9463C73.9813 52.0323 74.5193 51.3863 74.5193 51.3863C74.8234 51.4821 75.1517 51.4665 75.4453 51.3423C75.9433 51.1083 76.3653 49.6803 76.4693 48.8583C76.5733 48.0363 76.0953 45.6063 76.0513 45.1343L70.7793 44.4263C70.7793 44.4263 69.2673 47.9823 69.2833 48.9663C69.2973 49.8003 69.6433 51.4303 70.2233 51.7183Z" fill="#AD6359"/>
<path d="M71.074 51.5C70.848 50.622 70.894 49.724 70.89 48.828C70.89 48.8238 70.8917 48.8197 70.8947 48.8167C70.8977 48.8137 70.9018 48.812 70.906 48.812C70.9103 48.812 70.9143 48.8137 70.9173 48.8167C70.9203 48.8197 70.922 48.8238 70.922 48.828C70.922 49.72 71.086 50.602 71.122 51.494C71.1228 51.5004 71.1211 51.5068 71.1171 51.5119C71.1132 51.5169 71.1074 51.5202 71.101 51.521C71.0947 51.5218 71.0882 51.52 71.0832 51.5161C71.0781 51.5122 71.0748 51.5064 71.074 51.5Z" fill="#263238"/>
<path d="M72.6599 51.4803C72.6276 51.2759 72.6222 51.0681 72.6439 50.8623C72.6439 50.6443 72.6679 50.4243 72.6859 50.2063C72.7206 49.769 72.7653 49.333 72.8199 48.8983C72.8199 48.8783 72.8519 48.8783 72.8499 48.8983C72.8179 49.3343 72.7919 49.7703 72.7759 50.2063C72.7759 50.4263 72.7639 50.6443 72.7599 50.8623C72.7687 51.0691 72.7553 51.2763 72.7199 51.4803C72.7177 51.4864 72.7136 51.4917 72.7082 51.4954C72.7028 51.4992 72.6965 51.5012 72.6899 51.5012C72.6834 51.5012 72.677 51.4992 72.6717 51.4954C72.6663 51.4917 72.6622 51.4864 72.6599 51.4803Z" fill="#263238"/>
<path d="M74.5198 51.3681C74.4942 51.1825 74.4996 50.9939 74.5358 50.8101C74.5558 50.6101 74.5738 50.4101 74.5918 50.2101C74.6278 49.8101 74.6618 49.4101 74.6818 49.0101C74.6818 48.9901 74.7138 48.9901 74.7138 49.0101C74.6938 49.4101 74.6798 49.8221 74.6578 50.2281L74.6218 50.8281C74.626 51.0109 74.5983 51.1929 74.5398 51.3661C74.5389 51.3679 74.5375 51.3694 74.5359 51.3705C74.5342 51.3716 74.5323 51.3723 74.5303 51.3725C74.5284 51.3727 74.5264 51.3724 74.5245 51.3717C74.5227 51.3709 74.5211 51.3697 74.5198 51.3681Z" fill="#263238"/>
<path d="M70.5216 44.45L76.3676 44.766C76.3676 44.766 75.9356 38.366 75.4716 36.588C75.0076 34.81 71.0476 28.884 68.7096 26.736C66.5096 24.714 66.5096 26.396 67.3436 28.766C68.1776 31.136 70.2416 36.864 70.3116 37.282C70.3816 37.7 70.5216 44.45 70.5216 44.45Z" fill="#37474F"/>
<path d="M70.7842 43.2701C71.0082 43.2501 71.2342 43.2701 71.4582 43.2701C71.6822 43.2701 71.9062 43.2801 72.1302 43.2901C72.5622 43.3081 72.9942 43.3341 73.4262 43.3621L74.7202 43.4481C75.1662 43.4781 75.6222 43.4861 76.0642 43.5521C76.0673 43.5533 76.0699 43.5553 76.0718 43.558C76.0736 43.5607 76.0746 43.5639 76.0746 43.5671C76.0746 43.5704 76.0736 43.5736 76.0718 43.5763C76.0699 43.5789 76.0673 43.581 76.0642 43.5821C75.6182 43.6001 75.1642 43.5601 74.7182 43.5441L73.3982 43.4901C72.9582 43.4701 72.5182 43.4481 72.0782 43.4201C71.8622 43.4081 71.6462 43.3921 71.4322 43.3681C71.2182 43.3441 70.9942 43.3421 70.7822 43.3001C70.7622 43.2961 70.7682 43.2721 70.7842 43.2701Z" fill="#263238"/>
<path d="M64.3675 27.5419C64.5955 27.5319 66.1095 26.3419 66.5675 25.4259C66.5995 25.3619 66.4815 24.7099 66.3775 23.9119C66.3155 23.4279 66.2575 22.8859 66.2415 22.3879C66.2415 22.2859 65.8975 22.4859 65.8975 22.4859L65.2575 22.6619L63.1455 23.2499C63.3445 23.8665 63.4667 24.5053 63.5095 25.1519C63.5118 25.2188 63.5071 25.2859 63.4955 25.3519C63.4964 25.3632 63.4964 25.3746 63.4955 25.3859C63.4495 25.7799 63.9995 27.5559 64.3675 27.5419Z" fill="#AD6359"/>
<path d="M63.5042 25.3558C63.5051 25.3672 63.5051 25.3785 63.5042 25.3898C63.6113 25.4 63.7191 25.4 63.8262 25.3898C65.9262 25.2738 66.1002 22.5898 66.1002 22.5898L65.2702 22.6538L63.1582 23.2418C63.3572 23.8585 63.4794 24.4973 63.5222 25.1438C63.5241 25.215 63.518 25.2861 63.5042 25.3558Z" fill="#263238"/>
<path d="M66.1631 18.168C66.6671 19.21 66.5831 22.462 65.9131 23.288C64.9451 24.488 63.1131 24.87 62.0331 23.648C60.9871 22.466 61.1731 18.23 61.9431 17.448C63.0771 16.312 65.4191 16.628 66.1631 18.168Z" fill="#AD6359"/>
<path d="M63.376 20.54C63.376 20.54 63.392 20.54 63.392 20.56C63.38 20.778 63.404 21.032 63.592 21.108C63.592 21.108 63.592 21.122 63.592 21.12C63.358 21.082 63.33 20.746 63.376 20.54Z" fill="#263238"/>
<path d="M63.5756 20.3158C63.9276 20.2958 63.9416 21.0038 63.6136 21.0218C63.2856 21.0398 63.2796 20.3318 63.5756 20.3158Z" fill="#263238"/>
<path d="M62.1079 20.6001C62.1079 20.6001 62.0919 20.6101 62.0919 20.6201C62.1019 20.8381 62.0779 21.0921 61.8799 21.1681V21.1801C62.1239 21.1401 62.1539 20.8001 62.1079 20.6001Z" fill="#263238"/>
<path d="M61.9073 20.372C61.5553 20.352 61.5393 21.06 61.8673 21.078C62.1953 21.096 62.1993 20.4 61.9073 20.372Z" fill="#263238"/>
<path d="M63.8495 19.9881C63.7515 19.9641 63.6655 19.9281 63.5735 19.8961C63.4713 19.8779 63.3783 19.8258 63.3095 19.7481C63.2923 19.72 63.2852 19.6869 63.2892 19.6543C63.2932 19.6216 63.3081 19.5912 63.3315 19.5681C63.3838 19.528 63.4458 19.5026 63.5112 19.4945C63.5766 19.4864 63.643 19.4959 63.7035 19.5221C63.8343 19.5567 63.9477 19.6387 64.0215 19.7521C64.0368 19.7789 64.0441 19.8095 64.0424 19.8404C64.0407 19.8712 64.0301 19.9008 64.0119 19.9258C63.9938 19.9507 63.9687 19.9699 63.9399 19.9809C63.9111 19.992 63.8797 19.9945 63.8495 19.9881Z" fill="#263238"/>
<path d="M61.6274 20.0222C61.7221 20.0013 61.8156 19.9753 61.9074 19.9442C62.0096 19.9299 62.1043 19.8829 62.1774 19.8102C62.1961 19.7828 62.205 19.7501 62.2028 19.7171C62.2006 19.6841 62.1875 19.6528 62.1654 19.6282C62.1152 19.5853 62.0543 19.5567 61.9892 19.5454C61.9241 19.5342 61.8572 19.5406 61.7954 19.5642C61.6633 19.5921 61.5463 19.6684 61.4674 19.7782C61.4509 19.8042 61.4422 19.8344 61.4424 19.8652C61.4426 19.896 61.4517 19.9261 61.4686 19.9519C61.4855 19.9776 61.5095 19.998 61.5376 20.0105C61.5658 20.0229 61.597 20.027 61.6274 20.0222Z" fill="#263238"/>
<path d="M63.3717 21.9178C63.3177 22.0055 63.246 22.0809 63.1614 22.1394C63.0767 22.198 62.9808 22.2383 62.8797 22.2578C62.7917 22.2769 62.7014 22.2829 62.6117 22.2758C62.5944 22.2779 62.577 22.2779 62.5597 22.2758H62.5117C62.5001 22.2737 62.4896 22.2679 62.4816 22.2592C62.4737 22.2505 62.4688 22.2395 62.4677 22.2278C62.4667 22.2205 62.4667 22.2131 62.4677 22.2058V22.1858C62.4677 22.0178 62.4677 21.7618 62.4677 21.7618C62.4057 21.7938 62.0937 21.9398 62.0977 21.8518C62.1042 21.0913 62.188 20.3334 62.3477 19.5898C62.3477 19.5845 62.3498 19.5794 62.3536 19.5757C62.3573 19.5719 62.3624 19.5698 62.3677 19.5698C62.373 19.5698 62.3781 19.5719 62.3818 19.5757C62.3856 19.5794 62.3877 19.5845 62.3877 19.5898C62.3877 20.2938 62.2597 20.9898 62.2477 21.6978C62.3585 21.6437 62.4763 21.6053 62.5977 21.5838C62.6217 21.5838 62.5657 22.0798 62.5757 22.1558C62.7139 22.1672 62.853 22.1506 62.9846 22.107C63.1162 22.0633 63.2377 21.9935 63.3417 21.9018C63.3677 21.8858 63.3837 21.8998 63.3717 21.9178Z" fill="#263238"/>
<path d="M62.71 22.1879C62.8038 22.307 62.9273 22.3994 63.068 22.4559C63.1454 22.4848 63.23 22.489 63.31 22.4679C63.486 22.4179 63.486 22.2679 63.452 22.1199C63.4323 22.0504 63.4048 21.9833 63.37 21.9199C63.184 22.0771 62.9528 22.171 62.71 22.1879Z" fill="#263238"/>
<path d="M63.0674 22.4561C63.1449 22.485 63.2294 22.4892 63.3094 22.4681C63.4854 22.4181 63.4854 22.2681 63.4514 22.1201C63.3592 22.1255 63.2713 22.1615 63.2018 22.2223C63.1323 22.2832 63.085 22.3654 63.0674 22.4561Z" fill="#FF9ABB"/>
<path d="M61.4961 18.536C61.6101 18.256 61.7441 17.974 61.9101 17.914C62.0761 17.854 62.1941 18.262 62.5761 18.28C63.0901 18.306 63.3301 17.83 64.0481 17.766C65.0781 17.674 65.5481 18.528 65.6021 19.992C65.6481 21.298 66.4421 21.406 66.4421 21.406C66.4421 21.406 66.8661 18.514 66.0421 17.574C65.2181 16.634 63.3381 16.248 62.1021 17.174C61.6441 17.524 61.4961 18.536 61.4961 18.536Z" fill="#263238"/>
<path d="M65.772 20.9043C65.772 20.9043 66.35 19.7823 66.85 19.9743C67.35 20.1663 67.012 21.7263 66.492 22.0043C66.4278 22.0443 66.3563 22.0708 66.2815 22.0824C66.2068 22.094 66.1306 22.0904 66.0573 22.0717C65.984 22.053 65.9153 22.0197 65.8553 21.9737C65.7953 21.9277 65.7452 21.8701 65.708 21.8043L65.772 20.9043Z" fill="#AD6359"/>
<path d="M66.7413 20.4199C66.7413 20.4199 66.7533 20.4299 66.7413 20.4339C66.3793 20.6339 66.2253 21.0219 66.1413 21.4099C66.1582 21.3683 66.1839 21.3309 66.2167 21.3003C66.2496 21.2697 66.2887 21.2466 66.3314 21.2327C66.374 21.2188 66.4192 21.2144 66.4638 21.2198C66.5083 21.2252 66.5512 21.2402 66.5893 21.2639C66.5993 21.2639 66.5893 21.2859 66.5893 21.2859C66.5191 21.2734 66.4467 21.2831 66.3822 21.3136C66.3177 21.344 66.2643 21.3938 66.2293 21.4559C66.1708 21.5598 66.1239 21.6698 66.0893 21.7839C66.0773 21.8219 66.0113 21.8119 66.0193 21.7699C65.9353 21.2739 66.2233 20.5399 66.7413 20.4199Z" fill="#263238"/>
<path d="M63.4941 25.4318L64.2481 27.2838L66.5361 24.9438L67.1881 25.6918C67.1881 25.6918 64.9521 29.3998 64.9381 29.2378L64.1741 27.6498L63.0801 28.7578L63.1621 25.9798L63.4941 25.4318Z" fill="#EBEBEB"/>
<path d="M63.0421 27.3838C63.0721 26.9258 63.0881 26.4618 63.1381 26.0058C63.1381 25.9898 63.1661 25.9838 63.1701 26.0058C63.2621 26.4478 63.1421 28.2058 63.1441 28.6198C63.1901 28.5718 64.1581 27.6458 64.1681 27.6598C64.3341 27.9118 64.8941 29.0598 64.9321 29.1738C65.2861 28.5838 66.6401 26.4398 67.0601 25.8818C67.0627 25.8796 67.0659 25.8783 67.0693 25.878C67.0727 25.8777 67.0761 25.8785 67.079 25.8803C67.0819 25.8821 67.0841 25.8848 67.0854 25.8879C67.0867 25.8911 67.0869 25.8945 67.0861 25.8978C66.7801 26.5098 64.9881 29.3998 64.9601 29.3998C64.6651 28.8538 64.3981 28.2931 64.1601 27.7198C63.9961 27.9198 63.0181 28.9698 63.0141 28.9018C62.9971 28.3957 63.0064 27.889 63.0421 27.3838Z" fill="#263238"/>
<path d="M37.6595 27.3401C40.1755 32.3061 42.7315 44.2521 42.9695 45.8501C43.1315 46.9361 37.4215 47.9181 37.4215 47.1662C37.4215 46.2022 36.2695 34.9262 36.3795 30.4702C36.4395 28.0122 37.1395 26.3141 37.6595 27.3401Z" fill="#EB9481"/>
<path d="M37.3997 46.6901C37.3077 47.3441 37.5257 49.6101 37.9537 51.2901C38.1537 52.1101 39.0097 54.4001 39.6517 54.2901C40.2937 54.1801 40.1037 53.4901 40.1037 53.4901C40.1037 53.4901 40.6077 54.4021 41.2417 54.2321C41.8757 54.0621 41.5497 52.9941 41.5497 52.9941C41.5497 52.9941 42.1337 53.8961 42.7497 53.6801C43.3657 53.4641 42.8597 52.4461 42.8597 52.4461C42.8597 52.4461 43.3577 53.2961 43.7937 52.9021C44.3197 52.4281 43.2277 50.9681 43.0437 50.0501C43.0017 49.8501 42.4917 45.7661 42.4917 45.7661L37.3997 46.6901Z" fill="#EB9481"/>
<path d="M42.8676 52.4319C42.0676 51.3559 41.9036 50.7459 41.8036 49.4319C41.8022 49.4275 41.7994 49.4236 41.7957 49.4208C41.7919 49.418 41.7873 49.4165 41.7826 49.4165C41.7779 49.4165 41.7734 49.418 41.7696 49.4208C41.7658 49.4236 41.763 49.4275 41.7616 49.4319C41.7436 50.7299 41.8396 51.5239 42.8176 52.4779C42.8656 52.5199 42.9056 52.4819 42.8676 52.4319Z" fill="#263238"/>
<path d="M41.5654 53.0521C40.8314 51.8621 40.6474 51.2021 40.4394 49.8321C40.4394 49.8121 40.4034 49.8141 40.4054 49.8321C40.4954 51.1941 40.6054 51.9841 41.4994 53.0781C41.5394 53.1301 41.5994 53.1061 41.5654 53.0521Z" fill="#263238"/>
<path d="M40.0457 53.3998C39.4197 52.1998 39.1877 51.4818 39.1577 50.1258C39.1562 50.1204 39.1529 50.1156 39.1484 50.1122C39.1439 50.1088 39.1384 50.1069 39.1327 50.1069C39.1271 50.1069 39.1216 50.1088 39.1171 50.1122C39.1125 50.1156 39.1093 50.1204 39.1077 50.1258C39.0037 51.5118 39.2877 52.4058 40.0077 53.4178C40.0577 53.4758 40.0857 53.4678 40.0457 53.3998Z" fill="#263238"/>
<path d="M42.9339 45.5659C42.9339 45.5659 43.8539 46.9659 44.1219 47.6799C44.3899 48.3939 44.4199 51.3879 43.7719 51.4319C42.9359 51.4879 42.5719 49.7579 42.5119 48.8879C42.5119 48.8879 40.5759 49.0179 40.0519 47.8319C39.5279 46.6459 42.9339 45.5659 42.9339 45.5659Z" fill="#EB9481"/>
<path d="M43.5378 51.37C42.7378 50.872 42.7258 49.724 42.5998 48.884C42.5986 48.8715 42.5943 48.8595 42.5873 48.849C42.5804 48.8385 42.571 48.8298 42.56 48.8238C42.549 48.8177 42.5367 48.8143 42.5242 48.814C42.5116 48.8137 42.4991 48.8165 42.4878 48.822C41.6738 48.822 40.5238 48.586 40.0318 47.882C40.0308 47.8793 40.0292 47.8768 40.0271 47.8748C40.025 47.8728 40.0225 47.8712 40.0198 47.8703C40.017 47.8693 40.0141 47.869 40.0112 47.8692C40.0083 47.8695 40.0055 47.8704 40.003 47.8719C40.0005 47.8734 39.9984 47.8754 39.9967 47.8778C39.9951 47.8802 39.9939 47.8829 39.9935 47.8858C39.993 47.8886 39.9931 47.8916 39.9939 47.8944C39.9946 47.8972 39.996 47.8998 39.9978 47.902C40.4218 48.73 41.5338 49.054 42.4258 48.996C42.5418 49.858 42.6038 51.01 43.5318 51.378C43.5378 51.38 43.5418 51.374 43.5378 51.37Z" fill="#263238"/>
<path d="M43.5177 45.2298L37.0317 46.2298C37.0317 46.2298 35.9977 34.1878 35.9597 30.1458C35.9217 26.1038 37.3737 25.1138 38.9317 29.2478C40.4897 33.3818 43.5177 45.2298 43.5177 45.2298Z" fill="#ED9FF4"/>
<path d="M36.9996 45.2158C39.6536 44.6158 42.5316 44.3938 43.0316 44.3198C43.0556 44.3198 43.0576 44.3538 43.0316 44.3558C42.5396 44.4038 39.2756 45.0178 36.9996 45.2558C36.9816 45.2578 36.9796 45.2198 36.9996 45.2158Z" fill="#263238"/>
<path d="M51.3756 89.3242C50.9256 89.4702 37.7356 89.2722 37.2516 88.9542C37.1936 88.9182 37.1856 87.7262 37.2016 86.0922L36.5596 76.3862L44.9056 76.4102L45.5656 84.8102C45.5656 84.8102 47.4376 85.6742 48.9816 86.4302C49.6571 86.7372 50.3137 87.0845 50.9476 87.4702C51.4456 87.8862 51.8256 89.1802 51.3756 89.3242Z" fill="#EB9481"/>
<path d="M51.3756 89.3238C50.9256 89.4698 37.7356 89.2718 37.2516 88.9538C37.1936 88.9178 37.1856 87.7258 37.2016 86.0918C40.4596 86.8178 49.1476 87.9938 49.4016 87.3118C49.5036 87.0378 49.2956 86.7278 48.9856 86.4418C49.6611 86.7488 50.3176 87.0961 50.9516 87.4818C51.4456 87.8858 51.8256 89.1798 51.3756 89.3238Z" fill="#263238"/>
<path d="M33.0352 41.0601C33.0352 41.0601 35.3992 66.1441 35.4512 66.4481C35.4512 66.4881 35.4772 66.9521 35.4992 67.7061C35.6312 71.8441 35.9552 84.7481 35.9552 84.7481H45.8712C45.8712 84.7481 45.2252 69.4641 44.8532 65.9001C44.3792 61.3501 41.4652 41.0601 41.4652 41.0601H33.0352Z" fill="#37474F"/>
<path d="M36.6335 67.2958C36.3282 62.0878 35.8688 56.8878 35.2555 51.6958C34.9075 48.7758 34.4875 45.8658 34.0715 42.9538C34.0715 42.9278 34.0275 42.9298 34.0315 42.9538C34.7995 48.1358 35.3415 53.3538 35.8095 58.5758C36.2775 63.7978 36.6095 69.0078 36.8095 74.2358C36.9315 77.1958 37.0235 80.1598 37.1175 83.1218C37.12 83.1346 37.1268 83.1461 37.1368 83.1544C37.1469 83.1627 37.1595 83.1673 37.1725 83.1673C37.1855 83.1673 37.1981 83.1627 37.2082 83.1544C37.2182 83.1461 37.2251 83.1346 37.2275 83.1218C37.0955 77.8498 36.9435 72.5698 36.6335 67.2958Z" fill="#263238"/>
<path d="M45.2453 83.1498C44.9853 83.1158 44.7033 83.1258 44.4453 83.1178C44.1493 83.1178 43.8453 83.1038 43.5533 83.0938C42.9793 83.0718 42.4033 83.0558 41.8293 83.0478C40.6713 83.0278 39.5113 83.0358 38.3553 83.0718L37.3993 83.1058C37.0593 83.1178 36.7193 83.1498 36.3793 83.1478C36.3553 83.1478 36.3553 83.1778 36.3793 83.1778C36.9613 83.1778 37.5513 83.2278 38.1353 83.2498C38.7193 83.2718 39.2833 83.2798 39.8573 83.2878C41.0153 83.3038 42.1773 83.2878 43.3333 83.2518C43.6513 83.2398 43.9693 83.2358 44.2873 83.2258L44.7993 83.1998C44.9513 83.1998 45.1013 83.1998 45.2533 83.1858C45.2733 83.1858 45.2713 83.1538 45.2453 83.1498Z" fill="#263238"/>
<path d="M40.1992 41.0601L35.6692 73.7321C35.6052 71.2961 35.5412 69.0441 35.4992 67.7061C35.4772 66.9521 35.4592 66.4881 35.4512 66.4481C35.3952 66.1441 33.0352 41.0601 33.0352 41.0601H40.1992Z" fill="#263238"/>
<path d="M34.7638 91.064C34.2918 91.026 22.1918 85.77 21.8678 85.29C21.8278 85.236 22.2678 84.132 22.9218 82.63L25.5898 73.23L33.3098 76.328L31.1318 84.674C31.1318 84.674 32.5318 86.192 33.6638 87.474C34.1694 88.0181 34.6422 88.5918 35.0798 89.192C35.3818 89.762 35.2338 91.104 34.7638 91.064Z" fill="#EB9481"/>
<path d="M34.7638 91.0639C34.2918 91.0259 22.1918 85.7699 21.8678 85.2899C21.8278 85.2359 22.2678 84.1319 22.9218 82.6299C25.6518 84.5539 33.2178 88.9779 33.7218 88.4459C33.9218 88.2339 33.8478 87.8659 33.6718 87.4819C34.1773 88.026 34.6502 88.5997 35.0878 89.1999C35.3818 89.7619 35.2338 91.1039 34.7638 91.0639Z" fill="#263238"/>
<path d="M22.0537 81.662L31.7277 84.662C31.7277 84.662 36.4517 68.092 36.8137 64.2C37.1717 60.342 37.5177 52.46 37.6717 46.742C37.6717 46.742 39.2877 45.786 39.6977 45.264C40.1077 44.742 40.4757 42.864 41.2837 41.064H29.4477C26.6197 46.558 28.7477 49.002 28.7477 50.2C28.7477 55.984 27.8737 63.662 27.5957 64.8C27.0157 67.172 22.0537 81.662 22.0537 81.662Z" fill="#37474F"/>
<path d="M31.7052 82.546C31.4632 82.446 31.1892 82.384 30.9372 82.306C30.6512 82.22 30.3632 82.14 30.0792 82.052C29.5312 81.882 28.9792 81.72 28.4272 81.564C27.3138 81.2466 26.1925 80.9546 25.0632 80.688L24.1312 80.474C23.8012 80.398 23.4632 80.34 23.1312 80.252C23.1052 80.252 23.0992 80.274 23.1312 80.282C23.6952 80.43 24.2512 80.6319 24.8092 80.8039C25.3672 80.9759 25.9112 81.13 26.4632 81.288C27.5772 81.602 28.7012 81.888 29.8292 82.15C30.1412 82.22 30.4492 82.2979 30.7592 82.3719L31.2572 82.482C31.4052 82.516 31.5492 82.5639 31.6992 82.5859C31.7045 82.5867 31.7099 82.5854 31.7142 82.5822C31.7185 82.579 31.7214 82.5743 31.7222 82.569C31.723 82.5636 31.7216 82.5582 31.7184 82.5539C31.7153 82.5496 31.7105 82.5467 31.7052 82.546Z" fill="#263238"/>
<path d="M39.9742 45.1341C39.4094 45.3936 38.8731 45.7113 38.3742 46.0821C37.8442 46.4461 37.3562 46.8641 36.8462 47.2541C36.8262 47.2701 36.8462 47.3021 36.8662 47.2881C37.4042 46.9441 37.9682 46.6421 38.5002 46.2881C39.0343 45.964 39.5378 45.5918 40.0042 45.1761C40.0182 45.1601 40.0002 45.1241 39.9742 45.1341Z" fill="#263238"/>
<path d="M40.0479 41.8002C39.9799 42.1682 39.8899 42.5342 39.8099 42.9002C39.7299 43.2662 39.6799 43.5942 39.5899 43.9342C39.5155 44.2631 39.3482 44.5637 39.1079 44.8002C38.9739 44.9262 38.8239 45.0362 38.6799 45.1522C38.6039 45.2142 38.5199 45.2722 38.4399 45.3362C38.4499 45.2862 38.4579 45.2382 38.4659 45.1862C38.4919 45.0482 38.5159 44.9082 38.5379 44.7682C38.5899 44.4582 38.6399 44.1462 38.6879 43.8362C38.7819 43.2242 38.8679 42.6062 38.9959 42.0002C38.9972 41.9949 38.9964 41.9893 38.9935 41.9846C38.9907 41.9799 38.9862 41.9765 38.9809 41.9752C38.9756 41.9739 38.9699 41.9747 38.9653 41.9775C38.9606 41.9803 38.9572 41.9849 38.9559 41.9902C38.8039 42.5902 38.6359 43.1902 38.5039 43.7902C38.4379 44.0862 38.2059 45.5502 38.1959 45.6542C38.1859 45.7582 38.1759 45.8682 38.1719 45.9762C38.1589 46.0858 38.1589 46.1966 38.1719 46.3062C38.1719 46.3322 38.2119 46.3282 38.2219 46.3062C38.2667 46.2046 38.2983 46.0978 38.3159 45.9882C38.3419 45.8842 38.3659 45.7782 38.3839 45.6722C38.3839 45.6342 38.3959 45.5942 38.4019 45.5542C38.5459 45.4662 38.6799 45.3542 38.8159 45.2542C38.9519 45.1542 39.1079 45.0542 39.2459 44.9302C39.5002 44.7156 39.6835 44.429 39.7719 44.1082C39.8607 43.7626 39.919 43.41 39.9459 43.0542C39.9919 42.6382 40.0259 42.2202 40.0839 41.8062C40.0899 41.8002 40.0519 41.7802 40.0479 41.8002Z" fill="#263238"/>
<path d="M39.7997 25.8521C39.6097 28.2021 39.3737 30.6181 38.8257 32.9141C38.3977 34.7021 37.4257 36.0921 35.4857 36.2781C33.6857 36.4501 31.1957 36.0781 29.8757 34.7161C29.2597 34.0821 29.1257 33.2861 29.2877 32.4381C29.5137 31.2601 31.3477 24.8841 31.9057 22.8921C32.2457 21.6801 32.5817 20.4501 33.1337 19.3101C34.2897 16.9101 35.5337 17.1101 35.7057 17.0801C35.8677 17.0041 36.8757 16.7121 38.1717 17.3281C38.5127 17.4873 38.8162 17.7167 39.0623 18.0014C39.3084 18.2861 39.4916 18.6196 39.5997 18.9801C40.2877 21.1241 39.9837 23.6521 39.7997 25.8521Z" fill="#263238"/>
<path d="M35.2779 17.3743C33.6919 17.8663 33.1119 19.4463 32.5519 20.8543C31.7719 22.8163 31.0239 24.7923 30.3719 26.8023C30.0599 27.7683 29.7719 28.7423 29.5059 29.7223C29.2559 30.6623 28.9299 31.6563 28.8619 32.6303C28.7499 34.2303 30.1099 35.1663 31.4939 35.5883C31.5077 35.5928 31.5228 35.5916 31.5357 35.5851C31.5486 35.5785 31.5584 35.5671 31.5629 35.5533C31.5675 35.5395 31.5663 35.5245 31.5597 35.5115C31.5532 35.4986 31.5417 35.4888 31.5279 35.4843C30.7439 35.2143 29.9539 34.8843 29.4359 34.1983C28.7699 33.3263 28.9979 32.3383 29.2239 31.3543C29.6119 29.6783 30.0939 28.0283 30.6239 26.3963C31.1539 24.7643 31.7659 23.1483 32.3899 21.5463C32.9899 20.0203 33.5439 17.9803 35.2739 17.4003C35.2999 17.4003 35.2939 17.3683 35.2779 17.3743Z" fill="#263238"/>
<path d="M40.0414 20.7779C39.9254 19.5199 39.4534 18.2439 38.2194 17.7139C39.8074 18.4699 39.9634 20.3399 39.9754 21.8839C39.9888 23.5119 39.9428 25.1372 39.8374 26.7599C39.7374 28.3219 39.6014 29.8919 39.3594 31.4379C39.0974 33.1059 38.5794 34.6379 37.4034 35.8759C37.4008 35.8782 37.3987 35.8811 37.3972 35.8843C37.3956 35.8875 37.3948 35.8909 37.3946 35.8945C37.3944 35.898 37.3949 35.9015 37.3961 35.9048C37.3973 35.9082 37.3991 35.9112 37.4014 35.9139C37.4038 35.9165 37.4067 35.9186 37.4098 35.9201C37.413 35.9217 37.4165 35.9226 37.42 35.9227C37.4236 35.9229 37.4271 35.9224 37.4304 35.9212C37.4337 35.9201 37.4368 35.9182 37.4394 35.9159C38.5654 34.9339 39.0994 33.4419 39.3734 32.0139C39.704 30.1181 39.9092 28.2026 39.9874 26.2799C40.0914 24.4699 40.2094 22.5999 40.0414 20.7779Z" fill="#263238"/>
<path d="M35.1841 26.172C35.2601 26.372 36.4261 27.592 37.3701 27.426C37.6761 27.37 37.4501 25.68 37.4501 25.68L37.4621 25.552L37.6261 23.752L35.4001 22.7L35.0821 22.564C35.0821 22.564 35.0681 23.06 35.0601 23.676C35.0601 23.706 35.0601 23.734 35.0601 23.764C35.0581 23.7979 35.0581 23.832 35.0601 23.866C35.0601 23.958 35.0601 24.052 35.0601 24.146C35.0601 24.24 35.0601 24.286 35.0601 24.36C35.0601 24.434 35.0601 24.51 35.0601 24.584C35.0653 25.1155 35.1068 25.6461 35.1841 26.172Z" fill="#EB9481"/>
<path d="M35.0596 23.676C35.2996 24.144 35.6386 24.5543 36.053 24.8782C36.4674 25.2022 36.9474 25.4321 37.4596 25.552L37.6236 23.752L35.3996 22.7L35.0816 22.564C35.0816 22.564 35.0676 23.06 35.0596 23.676Z" fill="#263238"/>
<path d="M39.9132 21.1022C40.1652 24.2622 38.3012 24.7702 37.6192 24.8242C36.9992 24.8722 34.8852 24.9602 34.3092 21.8402C33.7332 18.7202 35.1232 17.6002 36.5332 17.4202C37.9432 17.2402 39.6632 17.9402 39.9132 21.1022Z" fill="#EB9481"/>
<path d="M39.3819 20.4301C39.3098 20.4194 39.2383 20.4048 39.1679 20.3861C39.0897 20.3814 39.0152 20.3511 38.9559 20.3001C38.9408 20.2802 38.9326 20.256 38.9326 20.2311C38.9326 20.2061 38.9408 20.1819 38.9559 20.1621C38.9915 20.1277 39.0356 20.1032 39.0837 20.0913C39.1318 20.0794 39.1822 20.0803 39.2299 20.0941C39.3318 20.1069 39.4249 20.1585 39.4899 20.2381C39.504 20.2567 39.5125 20.2791 39.5141 20.3024C39.5157 20.3258 39.5104 20.3491 39.499 20.3696C39.4875 20.39 39.4703 20.4066 39.4495 20.4173C39.4287 20.4281 39.4052 20.4325 39.3819 20.4301Z" fill="#263238"/>
<path d="M37.2778 20.4738C37.3518 20.4638 37.4178 20.4438 37.4918 20.4278C37.5662 20.4194 37.6362 20.388 37.6918 20.3378C37.7072 20.3181 37.7155 20.2938 37.7155 20.2688C37.7155 20.2438 37.7072 20.2195 37.6918 20.1998C37.6556 20.1655 37.611 20.1415 37.5625 20.1303C37.5139 20.119 37.4633 20.1209 37.4158 20.1358C37.3151 20.1519 37.224 20.2046 37.1598 20.2838C37.1453 20.3031 37.1369 20.3264 37.1359 20.3505C37.1348 20.3747 37.141 20.3986 37.1538 20.4191C37.1666 20.4397 37.1852 20.4559 37.2073 20.4656C37.2295 20.4754 37.254 20.4782 37.2778 20.4738Z" fill="#263238"/>
<path d="M37.7717 21.272C37.7717 21.272 37.7557 21.272 37.7557 21.29C37.7697 21.506 37.7557 21.756 37.5557 21.834C37.5557 21.834 37.5557 21.848 37.5557 21.846C37.7997 21.8 37.8197 21.474 37.7717 21.272Z" fill="#263238"/>
<path d="M37.5711 21.052C37.2231 21.038 37.2191 21.734 37.5411 21.748C37.8631 21.762 37.8631 21.064 37.5711 21.052Z" fill="#263238"/>
<path d="M37.4354 21.0879C37.3734 21.1279 37.3134 21.1959 37.2354 21.2039C37.1574 21.2119 37.0874 21.1379 37.0354 21.0679H37.0234C37.0234 21.1999 37.0694 21.3379 37.2234 21.3579C37.3774 21.3779 37.4494 21.2599 37.4834 21.1259C37.4814 21.1099 37.4594 21.0719 37.4354 21.0879Z" fill="#263238"/>
<path d="M38.9721 21.2241C38.9721 21.2241 38.9881 21.2241 38.9881 21.2421C38.9781 21.4581 39.0021 21.7081 39.1981 21.7821C39.1981 21.7821 39.1981 21.7961 39.1981 21.7941C38.9581 21.7581 38.9281 21.4261 38.9721 21.2241Z" fill="#263238"/>
<path d="M39.1677 20.9999C39.5137 20.9799 39.5317 21.6759 39.2097 21.6959C38.8877 21.7159 38.8757 21.0179 39.1677 20.9999Z" fill="#263238"/>
<path d="M39.3135 21.044C39.3695 21.078 39.4255 21.144 39.4915 21.148C39.5575 21.152 39.6215 21.074 39.6695 21H39.6795C39.6795 21.132 39.6455 21.272 39.5195 21.3C39.3935 21.328 39.3195 21.214 39.2795 21.084C39.2735 21.066 39.2915 21.028 39.3135 21.044Z" fill="#263238"/>
<path d="M38.6556 22.2001C38.6556 22.2001 38.7016 22.5221 38.7016 22.6741C38.7016 22.6901 38.6656 22.6961 38.6136 22.7001C38.4831 22.7247 38.3484 22.713 38.2242 22.666C38.0999 22.6191 37.9911 22.5388 37.9096 22.4341C37.9066 22.4309 37.9051 22.4267 37.9053 22.4223C37.9055 22.418 37.9074 22.414 37.9106 22.4111C37.9137 22.4081 37.9179 22.4066 37.9223 22.4068C37.9266 22.407 37.9306 22.4089 37.9336 22.4121C38.1275 22.5441 38.3592 22.6094 38.5936 22.598C38.6036 22.5561 38.4956 22.0481 38.5196 22.0461C38.6378 22.0555 38.7542 22.0811 38.8656 22.1221C38.7896 21.4481 38.6056 20.7921 38.5376 20.1221C38.5376 20.1167 38.5397 20.1117 38.5434 20.1079C38.5472 20.1042 38.5522 20.1021 38.5576 20.1021C38.5629 20.1021 38.5679 20.1042 38.5717 20.1079C38.5754 20.1117 38.5776 20.1167 38.5776 20.1221C38.7969 20.8195 38.9463 21.537 39.0236 22.2641C39.0296 22.3321 38.7156 22.2201 38.6556 22.2001Z" fill="#263238"/>
<path d="M38.8997 21.4339C38.8517 20.9179 39.0897 20.4739 39.4297 20.4339C39.7697 20.3939 40.0877 20.7939 40.1357 21.3099C40.1837 21.8259 39.9357 22.2699 39.6057 22.3099C39.2757 22.3499 38.9477 21.9499 38.8997 21.4339ZM39.0257 21.4219C39.0677 21.8679 39.3217 22.2099 39.5937 22.1859C39.8657 22.1619 40.0537 21.7759 40.0117 21.3299C39.9697 20.8839 39.7137 20.5419 39.4417 20.5659C39.1697 20.5899 38.9837 20.9759 39.0257 21.4219Z" fill="#263238"/>
<path d="M36.5491 21.6563C36.5448 21.4854 36.5906 21.3169 36.6807 21.1716C36.7708 21.0263 36.9014 20.9104 37.0564 20.8383C37.2115 20.7662 37.3842 20.7409 37.5534 20.7655C37.7226 20.7902 37.8809 20.8637 38.009 20.9771C38.137 21.0904 38.2291 21.2387 38.274 21.4037C38.3189 21.5687 38.3147 21.7432 38.2618 21.9058C38.2089 22.0684 38.1097 22.2121 37.9764 22.3191C37.843 22.4261 37.6813 22.4919 37.5111 22.5083C37.2708 22.522 37.0348 22.4401 36.8546 22.2805C36.6743 22.1209 36.5645 21.8965 36.5491 21.6563ZM36.6751 21.6443C36.7006 21.7881 36.7674 21.9214 36.8673 22.0279C36.9673 22.1343 37.0961 22.2094 37.238 22.2439C37.3799 22.2784 37.5287 22.2708 37.6664 22.2221C37.8041 22.1734 37.9246 22.0856 38.0132 21.9696C38.1019 21.8535 38.1548 21.7141 38.1655 21.5685C38.1763 21.4228 38.1444 21.2772 38.0737 21.1494C38.0031 21.0216 37.8968 20.9171 37.7677 20.8487C37.6387 20.7803 37.4925 20.751 37.3471 20.7643C37.1414 20.7921 36.9552 20.9004 36.8292 21.0654C36.7032 21.2303 36.6478 21.4385 36.6751 21.6443Z" fill="#263238"/>
<path d="M38.2454 21.4101C38.6974 21.2101 38.9234 21.3361 38.9254 21.3381L38.9934 21.2321C38.9834 21.2321 38.7154 21.0561 38.1934 21.2961L38.2454 21.4101Z" fill="#263238"/>
<path d="M36.6 21.5683L36.612 21.4423C36.528 21.4423 34.588 21.2623 34.38 21.2703C34.172 21.2783 33.678 21.6123 33.624 21.6503L33.696 21.7543C33.9015 21.5989 34.1313 21.4786 34.376 21.3983H34.4C34.552 21.4003 35.91 21.5063 36.6 21.5683Z" fill="#263238"/>
<path d="M34.3999 21.6139C34.7419 21.5939 35.6339 20.6479 35.6619 18.9919C35.6619 18.9919 35.5339 20.4779 35.4239 20.6959C35.3139 20.9139 35.9219 20.1639 35.9619 18.8299C36.3832 19.1305 36.8452 19.3695 37.3339 19.5399C37.9639 19.7159 38.3499 19.7099 38.3959 19.6639C38.4419 19.6179 37.5119 19.3259 37.2599 19.0379C37.2599 19.0379 38.9399 19.8159 39.7119 19.8759C39.8019 19.8759 39.9119 18.0419 38.7119 17.2619C37.5119 16.4819 35.6219 17.3259 35.1119 17.8179C35.1119 17.8179 34.5119 17.9019 33.8659 18.7879C33.2199 19.6739 34.0319 21.6359 34.3999 21.6139Z" fill="#263238"/>
<path d="M34.832 22.044C34.832 22.044 34.1459 21.044 33.6959 21.292C33.2459 21.54 33.7539 22.974 34.2799 23.174C34.3457 23.2043 34.4168 23.221 34.4892 23.2232C34.5615 23.2253 34.6335 23.2129 34.7009 23.1865C34.7683 23.1602 34.8297 23.1205 34.8815 23.0699C34.9332 23.0193 34.9742 22.9588 35.0019 22.892L34.832 22.044Z" fill="#EB9481"/>
<path d="M33.8516 21.7002V21.7142C34.2196 21.8682 34.4116 22.2122 34.5456 22.5682C34.5246 22.5308 34.4957 22.4985 34.4609 22.4735C34.4261 22.4484 34.3862 22.4313 34.3441 22.4233C34.302 22.4153 34.2587 22.4166 34.2171 22.4271C34.1755 22.4377 34.1368 22.4571 34.1036 22.4842C34.1036 22.4842 34.1036 22.5062 34.1136 22.5042C34.1787 22.4838 34.2485 22.4841 34.3134 22.5053C34.3783 22.5264 34.435 22.5673 34.4756 22.6222C34.5432 22.7138 34.6009 22.8124 34.6476 22.9162C34.6636 22.9502 34.7236 22.9322 34.7116 22.8942C34.7196 22.4142 34.3576 21.7522 33.8516 21.7002Z" fill="#263238"/>
<path d="M34.7218 23.1021C34.7222 23.148 34.7089 23.1931 34.6837 23.2315C34.6584 23.2699 34.6223 23.3 34.58 23.3178C34.5376 23.3357 34.4909 23.3406 34.4458 23.3319C34.4006 23.3231 34.3591 23.3012 34.3265 23.2688C34.2938 23.2365 34.2715 23.1951 34.2624 23.1501C34.2533 23.105 34.2578 23.0583 34.2753 23.0158C34.2928 22.9732 34.3225 22.9369 34.3607 22.9113C34.3989 22.8857 34.4438 22.8721 34.4898 22.8721C34.551 22.8721 34.6097 22.8962 34.6531 22.9393C34.6966 22.9824 34.7213 23.0409 34.7218 23.1021Z" fill="white"/>
<path d="M41.7999 42.13C41.7999 42.13 31.1479 42.288 28.5039 42.102C28.5039 42.102 30.6599 29.882 33.5039 26.794C33.6098 26.678 33.722 26.5678 33.8399 26.464C34.0139 26.318 33.9899 25.152 34.0719 25.064C34.1539 24.976 37.6099 25.43 37.6539 25.514C37.6979 25.598 37.8759 26.698 37.8759 26.698C38.6599 27.698 41.1819 31.154 41.4759 32.58C41.7699 34.006 40.8439 35.58 40.8439 35.58L41.7999 42.13Z" fill="#ED9FF4"/>
<path d="M32.6896 28.9738C32.0596 32.0098 32.4336 38.5738 33.8896 39.7738C36.2896 41.7378 42.0576 42.3118 43.6676 42.5018C44.3616 42.5838 45.7436 38.0418 45.2676 37.4558C44.7916 36.8698 37.7016 35.9578 37.3636 35.6558C37.1296 35.4398 36.0276 31.4738 35.0776 29.2378C33.7996 26.2118 32.9196 27.8538 32.6896 28.9738Z" fill="#EB9481"/>
<path d="M44.0675 37.0901C44.0675 37.0901 46.1955 37.0681 47.5875 37.1201C48.3655 37.1481 49.6915 37.3201 50.2535 37.6001C51.0915 38.0221 54.3315 40.3221 53.7895 41.1201C53.2995 41.8421 52.3355 40.8921 52.3355 40.8921C52.3355 40.8921 53.4875 41.8301 52.7815 42.3981C52.0755 42.9661 50.9335 41.6101 50.9335 41.6101C50.9335 41.6101 52.2255 42.5221 51.4135 43.0541C50.7095 43.5181 49.2315 42.0941 49.2315 42.0941C49.2315 42.0941 50.6935 42.8941 50.0175 43.4481C49.2715 44.0481 46.7875 42.1921 46.7875 42.1921C45.0075 42.5921 43.8855 42.5921 42.5775 42.3781C42.3375 42.3381 44.0675 37.0901 44.0675 37.0901Z" fill="#EB9481"/>
<path d="M51.2901 41.926L51.0001 41.62C50.8206 41.4171 50.6296 41.2248 50.4281 41.0439C50.2281 40.8719 50.0281 40.7079 49.8081 40.5519C49.5881 40.3959 49.3401 40.24 49.1201 40.07C49.1021 40.056 49.0821 40.0819 49.1021 40.0939C49.3205 40.2624 49.5301 40.4419 49.7301 40.632C49.9301 40.812 50.1301 40.9959 50.3301 41.1779C50.5301 41.3599 50.7301 41.5219 50.9301 41.6959C51.0281 41.7819 51.1301 41.8719 51.2201 41.9619C51.3054 42.0544 51.3984 42.1393 51.4981 42.2159C51.5081 42.2159 51.5201 42.2159 51.5141 42.1999C51.4494 42.1009 51.3743 42.009 51.2901 41.926Z" fill="#263238"/>
<path d="M52.5713 41.0919C52.2504 40.7042 51.9029 40.3393 51.5313 39.9999C51.1551 39.6627 50.7457 39.3645 50.3093 39.1099C50.2933 39.1099 50.2773 39.1219 50.2893 39.1339C50.6653 39.4719 51.0473 39.8039 51.4293 40.1339C51.6153 40.2959 52.4393 41.0599 52.5353 41.1339C52.5573 41.1459 52.5853 41.1139 52.5713 41.0919Z" fill="#263238"/>
<path d="M50.104 42.742C49.7927 42.3841 49.4587 42.0467 49.104 41.732C48.7137 41.4445 48.3025 41.1864 47.874 40.96C47.858 40.96 47.842 40.976 47.856 40.986C48.244 41.274 48.636 41.552 49.01 41.858C49.194 42.008 49.886 42.644 50.074 42.77C50.094 42.782 50.116 42.758 50.104 42.742Z" fill="#263238"/>
<path d="M42.0717 42.69L44.6097 36.772C44.6097 36.772 37.6577 35.622 37.4437 35.482C37.2297 35.342 35.9617 30.726 35.1477 28.914C34.3337 27.102 32.9357 26.038 32.3957 29.928C31.8557 33.818 32.6377 38.568 33.4197 39.556C34.3677 40.752 38.1217 42.266 42.0717 42.69Z" fill="#ED9FF4"/>
<path d="M38.4995 41.9422C37.4595 41.6602 36.4455 41.1682 35.4515 40.7422C34.5975 40.3842 33.7255 39.9422 33.2515 39.1042C33.0305 38.6775 32.8761 38.2195 32.7935 37.7462C32.6835 37.2182 32.5935 36.6842 32.5175 36.1462C32.4255 35.5328 32.3428 34.9182 32.2695 34.3022C32.2335 33.9862 32.1975 33.6702 32.1655 33.3542C32.1335 33.0382 32.0755 32.7222 32.0635 32.4042C32.0635 32.3999 32.0618 32.3959 32.0588 32.3929C32.0558 32.3899 32.0518 32.3882 32.0475 32.3882C32.0433 32.3882 32.0392 32.3899 32.0362 32.3929C32.0332 32.3959 32.0315 32.3999 32.0315 32.4042C32.0535 32.6962 32.0315 32.9902 32.0555 33.2842C32.0555 33.4842 32.0795 33.6682 32.0935 33.8602L32.0375 33.7382C31.9759 33.5981 31.929 33.452 31.8975 33.3022C31.8975 33.2842 31.8635 33.2922 31.8675 33.3022C31.9035 33.4522 31.9395 33.6042 31.9815 33.7522C32.0015 33.8242 32.0255 33.8962 32.0535 33.9682C32.0703 34.0165 32.0896 34.0639 32.1115 34.1102C32.1595 34.6849 32.2215 35.2569 32.2975 35.8262C32.3715 36.3782 32.4575 36.9262 32.5555 37.4742C32.6281 37.9589 32.7569 38.4334 32.9395 38.8882C33.1211 39.3169 33.399 39.6981 33.7515 40.0022C34.1169 40.3021 34.5204 40.5523 34.9515 40.7462C35.9263 41.1965 36.9339 41.5723 37.9655 41.8702C39.1995 42.2582 39.5755 42.2322 38.4995 41.9422Z" fill="#263238"/>
<path d="M41.1094 36.1558C40.8534 36.1218 37.8274 35.4858 37.7094 35.4518C37.6503 35.4338 37.597 35.4008 37.5545 35.3559C37.5121 35.311 37.4821 35.2558 37.4674 35.1958C37.3734 34.9518 37.2914 34.7018 37.2034 34.4558C37.0514 34.0318 36.8968 33.6098 36.7394 33.1898C36.7394 33.0958 36.7214 32.9898 36.7114 32.9078C36.7014 32.8258 36.6814 32.6838 36.6634 32.5718C36.6234 32.3298 36.5514 32.0918 36.5214 31.8498C36.5214 31.8258 36.4834 31.8338 36.4894 31.8498C36.5504 32.0882 36.5866 32.3321 36.5974 32.5778C36.6074 32.6738 36.6134 32.7778 36.6194 32.8678C36.5274 32.6218 36.4334 32.3758 36.3354 32.1318C36.2214 31.8478 36.0914 31.5618 35.9994 31.2698C35.9994 31.2498 35.9634 31.2598 35.9694 31.2698C36.0734 31.5318 36.1474 31.8098 36.2294 32.0698C36.3114 32.3298 36.3994 32.6098 36.4874 32.8798C36.6594 33.4098 36.8414 33.9358 37.0254 34.4638C37.1134 34.7178 37.1994 34.9758 37.2934 35.2278C37.3192 35.3222 37.37 35.4079 37.4404 35.4758C37.5108 35.5437 37.5982 35.5914 37.6934 35.6138C38.2194 35.7558 40.7914 36.1818 41.1034 36.1938C41.1354 36.2138 41.1434 36.1598 41.1094 36.1558Z" fill="#263238"/>
<path d="M43.3234 36.864C42.9234 37.714 42.5234 38.558 42.1614 39.426C41.7952 40.2799 41.4741 41.1524 41.1994 42.04C41.1978 42.044 41.1979 42.0484 41.1995 42.0524C41.2012 42.0563 41.2044 42.0594 41.2084 42.061C41.2124 42.0626 41.2168 42.0625 41.2208 42.0608C41.2247 42.0592 41.2278 42.056 41.2294 42.052C41.6294 41.218 41.9794 40.352 42.3334 39.494C42.6874 38.636 43.0094 37.754 43.3674 36.894C43.3854 36.858 43.3394 36.83 43.3234 36.864Z" fill="#263238"/>
<path d="M50.8001 36.188C50.4941 36.36 48.7421 35.876 48.0321 36.408C47.5621 36.76 47.1021 37.608 47.0021 38.714C46.9001 39.856 47.8021 39.798 48.1361 39.314C48.5431 38.6768 48.8982 38.008 49.1981 37.314C49.5193 37.378 49.836 37.4628 50.1461 37.568L50.8001 36.188Z" fill="#AD6359"/>
<path d="M48.6517 40.1742C48.1097 39.6062 45.4017 41.6882 46.2517 42.6342C47.1017 43.5802 49.2637 40.8182 48.6517 40.1742Z" fill="#AD6359"/>
<path d="M49.556 40.9882C49.014 40.4202 46.306 42.5022 47.156 43.4482C48.006 44.3942 50.168 41.6322 49.556 40.9882Z" fill="#AD6359"/>
<path d="M50.2677 41.2758C49.6977 40.8338 47.5257 43.1038 48.4357 43.8438C49.3457 44.5838 50.9137 41.7758 50.2677 41.2758Z" fill="#AD6359"/>
<path d="M51.0421 41.4C50.3881 41.15 49.0101 43.87 50.0641 44.3C51.1181 44.73 51.7841 41.674 51.0421 41.4Z" fill="#AD6359"/>
<path d="M48.5718 41.1099C48.4214 41.2106 48.2796 41.3237 48.1478 41.4479C48.0018 41.5759 47.8578 41.7059 47.7258 41.8479C47.5971 41.9821 47.4762 42.1237 47.3638 42.2719C47.2458 42.4319 47.1478 42.6059 47.0278 42.7619C47.0257 42.7633 47.0239 42.7652 47.0226 42.7674C47.0213 42.7696 47.0206 42.7722 47.0205 42.7747C47.0204 42.7773 47.021 42.7799 47.0221 42.7822C47.0232 42.7845 47.0248 42.7866 47.0269 42.7881C47.029 42.7897 47.0314 42.7907 47.0339 42.7911C47.0365 42.7915 47.0391 42.7913 47.0415 42.7905C47.044 42.7897 47.0462 42.7883 47.048 42.7865C47.0498 42.7846 47.0511 42.7823 47.0518 42.7799C47.1704 42.629 47.2994 42.4867 47.4378 42.3539C47.5678 42.2179 47.6898 42.0759 47.8198 41.9379C47.9498 41.7999 48.0658 41.6659 48.1938 41.5379C48.3218 41.4099 48.4658 41.2779 48.5938 41.1379C48.5998 41.1199 48.5858 41.1019 48.5718 41.1099Z" fill="#263238"/>
<path d="M49.6476 41.364C49.5316 41.542 49.1256 42.232 49.0016 42.406C48.8776 42.58 48.7476 42.754 48.6156 42.924C48.4836 43.094 48.3556 43.28 48.2056 43.44C48.1936 43.454 48.2156 43.476 48.2296 43.462C48.3796 43.302 48.5436 43.156 48.6856 42.988C48.8276 42.82 48.9576 42.65 49.0856 42.472C49.3078 42.1192 49.5081 41.7532 49.6856 41.376C49.6856 41.358 49.6576 41.348 49.6476 41.364Z" fill="#263238"/>
<path d="M50.4002 41.7523C50.2802 42.0163 50.1762 42.2903 50.0542 42.5523C49.9942 42.6823 49.9322 42.8123 49.8722 42.9523L49.7882 43.1423C49.7618 43.218 49.7283 43.291 49.6882 43.3603C49.6762 43.3763 49.7082 43.3943 49.7162 43.3723C49.7564 43.2931 49.8032 43.2175 49.8562 43.1463C49.8902 43.0863 49.9262 43.0263 49.9582 42.9663C50.0262 42.833 50.0882 42.703 50.1442 42.5763C50.2611 42.3172 50.3587 42.0498 50.4362 41.7763C50.4394 41.7715 50.4405 41.7657 50.4394 41.7601C50.4383 41.7544 50.435 41.7495 50.4302 41.7463C50.4254 41.7431 50.4196 41.742 50.414 41.7431C50.4083 41.7442 50.4034 41.7475 50.4002 41.7523Z" fill="#263238"/>
<path d="M52.1654 19.02C52.0697 19.9336 51.7222 20.8027 51.1614 21.5302C50.6007 22.2578 49.8488 22.8153 48.9897 23.1405C48.1306 23.4658 47.1981 23.5459 46.2961 23.3721C45.3941 23.1982 44.5581 22.7772 43.8814 22.156L41.3994 22.52L42.6414 20.376C42.3187 19.5829 42.2069 18.7196 42.3169 17.8705C42.4268 17.0213 42.7549 16.215 43.2691 15.5303C43.7832 14.8455 44.466 14.3056 45.2508 13.9632C46.0356 13.6207 46.8957 13.4873 47.7474 13.576C49.0549 13.7127 50.2547 14.3628 51.0831 15.3836C51.9115 16.4044 52.3008 17.7123 52.1654 19.02Z" fill="white"/>
<path d="M52.1654 19.0202C52.069 19.9335 51.7231 20.8026 51.1654 21.5322C51.0274 21.7144 50.8778 21.8874 50.7174 22.0502C50.552 22.2082 50.377 22.3558 50.1934 22.4922C49.8273 22.7705 49.4232 22.9948 48.9934 23.1582C48.5659 23.3266 48.1168 23.4337 47.6594 23.4762C47.4307 23.4978 47.2007 23.5025 46.9714 23.4902C46.7411 23.4843 46.5118 23.4603 46.2854 23.4182C45.3718 23.2537 44.5221 22.8382 43.8314 22.2182L43.8914 22.2362L41.4154 22.6002L41.2354 22.6282L41.3254 22.4702L42.5594 20.3222V20.4062C42.27 19.6975 42.1466 18.9321 42.1986 18.1684C42.2506 17.4047 42.4766 16.6631 42.8594 16.0002C43.2453 15.3388 43.7758 14.7733 44.4114 14.3462C45.2012 13.8174 46.1254 13.5247 47.0757 13.5024C48.026 13.4801 48.9629 13.7291 49.7767 14.2202C50.5905 14.7114 51.2474 15.4244 51.6705 16.2756C52.0935 17.1268 52.2652 18.0809 52.1654 19.0262V19.0202ZM52.1654 19.0202C52.2444 18.2736 52.1511 17.5188 51.8925 16.8139C51.6339 16.1091 51.2171 15.473 50.674 14.9546C50.1309 14.4362 49.476 14.0494 48.7599 13.824C48.0438 13.5985 47.2855 13.5404 46.5434 13.6542C45.8088 13.7621 45.1085 14.0356 44.4954 14.4542C43.8898 14.8795 43.3841 15.4317 43.0134 16.0722C42.647 16.7147 42.4316 17.4321 42.3834 18.1702C42.3379 18.9064 42.4568 19.6435 42.7314 20.3282L42.7494 20.3722L42.7254 20.4142L41.4774 22.5542L41.3894 22.4222L43.8714 22.0742H43.9054L43.9314 22.0962C44.5933 22.7161 45.4145 23.1398 46.3034 23.3202C46.5256 23.3645 46.7509 23.3919 46.9774 23.4022C47.2031 23.4182 47.4296 23.4182 47.6554 23.4022C48.1082 23.3672 48.5538 23.2689 48.9794 23.1102C49.4092 22.9565 49.8137 22.7394 50.1794 22.4662C50.5514 22.2028 50.88 21.8829 51.1534 21.5182C51.713 20.7938 52.063 19.9298 52.1654 19.0202Z" fill="#263238"/>
<path d="M46.6531 21.332L44.5371 19.188L45.2471 18.486L46.4851 19.738L49.0551 15.708L49.8971 16.246L46.6531 21.332Z" fill="#ED9FF4"/>
</svg>
