<svg width="360" height="240" viewBox="0 0 360 240" fill="none" xmlns="http://www.w3.org/2000/svg">
<path d="M180.333 224.72C239.98 224.72 288.333 197.696 288.333 164.36C288.333 131.024 239.98 104 180.333 104C120.686 104 72.333 131.024 72.333 164.36C72.333 197.696 120.686 224.72 180.333 224.72Z" fill="#EBEBEB"/>
<path d="M111.23 41.7887C111.864 41.5092 112.401 41.0501 112.777 40.4683C113.152 39.8865 113.349 39.2075 113.342 38.5151C113.374 38.061 113.312 37.6052 113.161 37.1759C113.01 36.7466 112.772 36.353 112.462 36.0194C112.152 35.6857 111.777 35.4192 111.36 35.2363C110.944 35.0534 110.494 34.9581 110.038 34.9561C109.583 34.9541 109.132 35.0456 108.714 35.2249C108.296 35.4041 107.918 35.6674 107.606 35.9983C107.293 36.3292 107.052 36.7208 106.897 37.1487C106.742 37.5767 106.676 38.032 106.704 38.4863C106.689 39.1841 106.882 39.8704 107.258 40.4584C107.634 41.0463 108.176 41.5093 108.816 41.7887C103.709 42.5615 103.939 48.1103 103.939 48.1103L116.021 48.1679C116.021 48.1679 116.294 42.5567 111.23 41.7887Z" fill="#E0E0E0"/>
<path d="M307.334 70.9965L301.732 64.9629L303.547 63.2781L307.416 67.4397L315.542 59.4429L317.28 61.2093L307.334 70.9965Z" fill="#F5F5F5"/>
<path d="M226.08 103.949C226.08 99.8255 221.76 97.2287 217.335 99.2831C216.337 99.7505 215.52 100.533 215.011 101.51C213.903 103.661 214.392 106.118 215.4 108.158L218.837 116.861C218.946 117.138 219.136 117.376 219.382 117.543C219.628 117.711 219.919 117.8 220.217 117.8C220.515 117.8 220.806 117.711 221.052 117.543C221.298 117.376 221.488 117.138 221.597 116.861L224.957 108.11C226.138 105.432 226.08 103.949 226.08 103.949ZM221.943 107.52C218.976 109.243 215.967 106.056 217.594 102.907C217.813 102.49 218.145 102.144 218.554 101.909C221.525 100.181 224.53 103.349 222.903 106.521C222.684 106.939 222.351 107.285 221.943 107.52Z" fill="#EBEBEB"/>
<path d="M277.138 163.766C267.888 155.318 267.36 141.926 269.371 130.229C269.707 128.275 269.77 126.177 270.951 124.589C272.131 123 274.498 122.121 276.163 123.192C277.546 124.08 277.959 125.865 278.592 127.382C279.447 129.408 280.855 131.152 282.653 132.417C283.829 133.238 285.341 133.857 286.685 133.339C288.528 132.643 289.047 130.334 289.301 128.381L290.741 117.461C290.995 115.507 291.259 113.515 292.128 111.749C292.997 109.982 294.591 108.446 296.544 108.187C298.498 107.928 300.672 109.315 300.811 111.278C300.864 112.094 300.591 112.896 300.533 113.717C300.475 114.537 300.739 115.483 301.493 115.814C302.247 116.145 303.12 115.709 303.787 115.219C306.096 113.529 307.829 111.182 309.471 108.835C311.112 106.488 312.715 104.078 314.861 102.182C317.007 100.286 319.8 98.9373 322.651 99.1677C325.503 99.3981 328.287 101.539 328.627 104.381C328.968 107.222 326.962 109.795 324.888 111.782C321.805 114.729 318.311 117.214 314.515 119.16C313.834 119.51 313.075 119.889 312.759 120.6C312.149 121.843 313.239 123.307 314.463 123.912C315.874 124.598 317.491 124.665 319.008 125.059C320.525 125.453 322.104 126.35 322.488 127.867C323.026 129.974 321.048 131.832 319.2 132.969C315.487 135.259 311.409 136.895 307.143 137.808C305.616 138.134 304.023 138.384 302.712 139.248C301.402 140.112 300.456 141.749 300.975 143.222C301.493 144.696 303.255 145.382 304.815 145.315C306.375 145.248 307.853 144.614 309.375 144.273C312.231 143.635 315.715 144.302 317.136 146.861C318.096 148.541 317.885 150.677 317.055 152.409C316.224 154.142 314.842 155.549 313.402 156.821C308.357 161.265 302.227 164.558 295.642 165.849C289.056 167.141 283.123 166.92 277.171 163.8" fill="#EBEBEB"/>
<path d="M277.872 168.528C278.942 163.934 278.674 162.514 281.232 156.835C284.087 150.704 287.292 144.742 290.832 138.979L293.592 134.429C294.504 132.936 295.402 131.458 296.376 130.066C298.251 127.396 300.271 124.832 302.429 122.386C304.478 120.034 306.504 117.878 308.419 115.872C310.334 113.866 312.158 112.032 313.891 110.438C316.616 107.898 319.537 105.578 322.627 103.498C323.722 102.763 324.586 102.216 325.176 101.856L325.853 101.448C326.006 101.357 326.088 101.318 326.088 101.318C326.088 101.318 326.016 101.376 325.872 101.472L325.21 101.904C324.629 102.283 323.77 102.864 322.694 103.594C319.636 105.707 316.74 108.047 314.03 110.592C312.312 112.2 310.502 114.038 308.597 116.045C306.691 118.051 304.675 120.216 302.64 122.568C300.491 125.014 298.48 127.578 296.616 130.248C295.656 131.635 294.754 133.104 293.846 134.597L291.086 139.147C287.553 144.899 284.348 150.846 281.486 156.96C278.904 162.624 279.163 164.016 278.069 168.59" fill="#E0E0E0"/>
<path d="M296.477 130.046C296.43 129.762 296.409 129.475 296.414 129.187C296.386 128.635 296.376 127.833 296.371 126.845C296.371 124.862 296.443 122.126 296.539 119.112C296.635 116.097 296.664 113.352 296.611 111.389C296.611 110.4 296.563 109.598 296.534 109.046C296.505 108.761 296.505 108.473 296.534 108.187C296.6 108.466 296.64 108.75 296.654 109.037C296.722 109.589 296.779 110.39 296.827 111.379C296.933 113.357 296.933 116.097 296.827 119.121C296.721 122.145 296.64 124.814 296.573 126.845C296.573 127.805 296.534 128.582 296.52 129.187C296.534 129.474 296.519 129.762 296.477 130.046Z" fill="#E0E0E0"/>
<path d="M322.56 128.851C322.471 128.864 322.38 128.864 322.291 128.851L321.528 128.813C320.871 128.774 319.915 128.717 318.735 128.688C316.373 128.611 313.104 128.621 309.504 128.789C305.904 128.957 302.645 129.269 300.303 129.557C299.127 129.691 298.181 129.83 297.523 129.922L296.77 130.022C296.597 130.022 296.506 130.051 296.501 130.022C296.584 129.987 296.671 129.963 296.76 129.95L297.504 129.792C298.157 129.667 299.098 129.499 300.274 129.336C302.616 128.99 305.875 128.654 309.49 128.477C313.104 128.299 316.373 128.333 318.739 128.477C319.925 128.534 320.88 128.621 321.538 128.698L322.296 128.789C322.387 128.797 322.476 128.818 322.56 128.851Z" fill="#E0E0E0"/>
<path d="M281.597 156.403C281.545 156.297 281.501 156.186 281.468 156.072C281.391 155.817 281.29 155.496 281.165 155.112C280.901 154.267 280.556 153.043 280.143 151.521C279.317 148.473 278.3 144.24 277.263 139.545C276.226 134.851 275.223 130.613 274.45 127.545C274.066 126.048 273.749 124.824 273.519 123.931C273.418 123.533 273.337 123.206 273.269 122.971C273.235 122.857 273.213 122.739 273.202 122.621C273.257 122.726 273.299 122.837 273.327 122.952L273.629 123.912C273.893 124.752 274.244 125.981 274.652 127.502C275.482 130.545 276.495 134.784 277.532 139.478C278.569 144.173 279.572 148.406 280.345 151.478C280.733 152.976 281.045 154.205 281.276 155.093C281.381 155.496 281.463 155.822 281.525 156.077C281.561 156.182 281.585 156.292 281.597 156.403Z" fill="#E0E0E0"/>
<path d="M316.833 150.302C316.72 150.343 316.603 150.37 316.483 150.384L315.456 150.566L311.678 151.2C308.491 151.752 304.094 152.568 299.241 153.485C294.389 154.402 289.987 155.179 286.785 155.678C285.187 155.928 283.905 156.12 282.993 156.235L281.957 156.365C281.837 156.376 281.716 156.376 281.597 156.365C281.712 156.323 281.831 156.294 281.952 156.278L282.974 156.096L286.752 155.448C289.939 154.896 294.336 154.08 299.189 153.168C304.041 152.256 308.443 151.469 311.669 150.97C313.267 150.72 314.549 150.528 315.461 150.413L316.497 150.288C316.61 150.277 316.723 150.282 316.833 150.302Z" fill="#E0E0E0"/>
<path d="M27.9744 104.861C27.9744 104.861 30.8544 101.606 37.3488 108.787C43.8432 115.968 46.7856 120.341 46.7856 120.341C46.7856 120.341 48.3888 121.781 49.2768 120.317C50.1648 118.853 50.928 115.161 53.1168 115.19C55.3968 115.219 56.736 117.389 57.2784 120.95C57.8208 124.512 59.2896 132.331 59.424 133.032C59.5584 133.733 60.2208 134.621 60.984 133.713C61.7472 132.806 65.5296 125.299 68.9856 127.305C72.4416 129.312 72.312 139.531 72.3168 140.649C72.3216 141.768 72.648 142.157 73.2144 142.281C73.7808 142.406 74.8128 139.757 75.9744 137.669C77.136 135.581 78.8544 133.349 80.7504 134.678C82.6464 136.008 85.0416 142.992 81.4128 156.389L79.3248 162.485L72.9936 163.838C59.2704 165.902 52.5984 162.72 51.4992 160.685C50.4 158.649 52.8096 157.2 55.0224 156.288C57.2352 155.376 59.976 154.651 59.9184 154.075C59.8608 153.499 59.5152 153.115 58.4016 152.995C57.288 152.875 47.136 151.838 45.5424 148.176C43.9488 144.513 51.84 141.619 52.824 140.976C53.808 140.333 53.0016 139.56 52.344 139.349C51.6864 139.137 44.0784 136.776 40.584 135.825C37.0896 134.875 35.088 133.301 35.304 131.025C35.5296 128.837 39.2784 128.505 40.8432 127.79C42.408 127.075 41.1552 125.318 41.1552 125.318C41.1552 125.318 37.1472 121.92 30.7584 114.609C24.3696 107.299 28.0368 104.798 28.0368 104.798" fill="#EBEBEB"/>
<path d="M33.8213 111.283C33.8213 111.283 33.8693 111.322 33.9461 111.408L34.3013 111.787C34.6133 112.142 35.0597 112.637 35.6309 113.275L40.5077 118.766L56.6693 136.8C62.9957 143.837 68.6981 150.24 72.7829 154.896L77.5829 160.44L78.8837 161.957L79.2149 162.355C79.2533 162.399 79.2886 162.446 79.3205 162.494C79.3205 162.494 79.2773 162.456 79.1957 162.37L78.8453 161.99L77.5109 160.502L72.6485 155.04C68.5301 150.403 62.8133 144.029 56.4821 136.992C50.1509 129.955 44.4821 123.552 40.3781 118.896L35.5781 113.357C35.0213 112.704 34.5845 112.195 34.2821 111.835L33.9461 111.437C33.9005 111.389 33.8587 111.338 33.8213 111.283Z" fill="#E0E0E0"/>
<path d="M52.267 120.389C52.3357 120.964 52.3645 121.543 52.3534 122.121C52.387 123.259 52.435 124.699 52.483 126.297C52.531 127.896 52.579 129.408 52.5742 130.478C52.5742 131.016 52.5742 131.438 52.5406 131.75C52.5478 131.912 52.5284 132.075 52.483 132.23C52.4235 131.656 52.3946 131.079 52.3966 130.502C52.3534 129.365 52.2958 127.92 52.2334 126.326C52.171 124.733 52.1614 123.211 52.1758 122.141C52.1758 121.608 52.1758 121.181 52.2142 120.873C52.2118 120.71 52.2295 120.547 52.267 120.389Z" fill="#E0E0E0"/>
<path d="M51.9405 132.48C51.9405 132.547 48.8877 132.561 45.1245 132.509C41.3613 132.456 38.3037 132.355 38.3037 132.283C38.3037 132.211 41.3613 132.201 45.1245 132.254C48.8877 132.307 51.9453 132.408 51.9405 132.48Z" fill="#E0E0E0"/>
<path d="M63.6868 144.365C63.5512 144.448 63.404 144.511 63.25 144.552C62.962 144.662 62.5444 144.802 62.0212 144.965C60.9796 145.296 59.5252 145.714 57.898 146.088C56.2708 146.462 54.778 146.736 53.698 146.899C53.1556 146.981 52.738 147.034 52.4116 147.067C52.2538 147.1 52.0919 147.108 51.9316 147.091C52.5012 146.933 53.0799 146.81 53.6644 146.722C54.7348 146.515 56.2132 146.242 57.8356 145.843C59.458 145.445 60.9124 145.08 61.9684 144.797C62.5318 144.617 63.1057 144.473 63.6868 144.365Z" fill="#E0E0E0"/>
<path d="M66.3891 133.498C66.3195 134.04 66.2088 134.576 66.0579 135.101C65.8275 136.061 65.4867 137.434 65.0979 138.941C64.7091 140.448 64.3443 141.778 64.0659 142.747C63.9464 143.279 63.7859 143.8 63.5859 144.307C63.6516 143.765 63.7607 143.229 63.9123 142.704C64.1475 141.744 64.4883 140.371 64.8723 138.864C65.2563 137.357 65.6307 136.027 65.9091 135.058C66.0286 134.526 66.1891 134.004 66.3891 133.498Z" fill="#E0E0E0"/>
<path d="M78.0914 142.67C78.0788 142.859 78.045 143.046 77.9906 143.227C77.8898 143.63 77.7698 144.13 77.6258 144.715C77.309 145.973 76.853 147.701 76.3346 149.606C75.8162 151.512 75.3314 153.23 74.9666 154.474C74.7938 155.054 74.645 155.544 74.5298 155.942C74.4842 156.125 74.4182 156.302 74.333 156.47C74.346 156.282 74.3798 156.095 74.4338 155.914C74.5346 155.51 74.6546 155.016 74.7986 154.426C75.1154 153.173 75.5714 151.445 76.0898 149.539C76.6082 147.634 77.093 145.91 77.453 144.672C77.6306 144.091 77.7746 143.602 77.8946 143.203C77.9394 143.019 78.0055 142.84 78.0914 142.67Z" fill="#E0E0E0"/>
<path d="M74.328 156.115C74.1464 156.201 73.9567 156.269 73.7616 156.317C73.392 156.432 72.8496 156.586 72.1776 156.763C70.8384 157.123 68.976 157.579 66.8976 158.002C64.8192 158.424 62.9328 158.736 61.5552 158.928C60.8688 159.024 60.312 159.091 59.928 159.13C59.7288 159.167 59.5257 159.18 59.3232 159.168C59.5146 159.102 59.7126 159.057 59.9136 159.034L61.5312 158.75C62.8944 158.515 64.776 158.179 66.8496 157.757C68.9232 157.334 70.7808 156.907 72.1296 156.595L73.728 156.221C73.9235 156.163 74.1247 156.128 74.328 156.115Z" fill="#E0E0E0"/>
<path d="M50.8266 115.982C51.0688 115.961 51.3017 115.878 51.5034 115.742C51.7407 115.57 51.9105 115.321 51.9834 115.037C52.0231 114.852 52.0376 114.664 52.0266 114.475C52.0266 114.274 52.0266 114.058 52.0266 113.827C52.0266 111.974 52.0698 109.315 52.0986 106.037C52.0986 105.214 52.1082 104.355 52.1274 103.459C52.1274 103.008 52.1274 102.552 52.1274 102.086C52.147 101.86 52.147 101.632 52.1274 101.405C52.0837 101.188 51.9788 100.988 51.825 100.829C51.6705 100.667 51.469 100.558 51.249 100.517C51.0077 100.5 50.7655 100.5 50.5242 100.517H49.0074H45.8298H31.689C31.4049 100.523 31.1332 100.635 30.9266 100.83C30.7199 101.025 30.5931 101.29 30.5706 101.573L30.5418 103.406C30.5418 104.63 30.5034 105.806 30.4842 107.016C30.4506 109.382 30.417 111.662 30.3834 113.837V114.648C30.3661 114.894 30.4265 115.139 30.5562 115.349C30.6798 115.555 30.8691 115.714 31.0938 115.8C31.3296 115.873 31.5775 115.899 31.8234 115.877H34.8186H40.1994L47.985 115.915L50.1018 115.939H50.6538H50.841C50.7787 115.946 50.716 115.946 50.6538 115.939H50.1018H47.985L40.1994 115.982H34.8186H31.809C31.5374 116.007 31.2638 115.979 31.0026 115.901C30.7319 115.796 30.5028 115.605 30.3498 115.358C30.1974 115.111 30.1253 114.823 30.1434 114.533C30.1434 114.264 30.1434 113.995 30.1434 113.722C30.1722 111.547 30.201 109.267 30.2298 106.901C30.2298 105.72 30.2634 104.501 30.2826 103.291C30.2826 102.677 30.2826 102.062 30.3114 101.438C30.3655 101.114 30.5322 100.818 30.7824 100.604C31.0325 100.39 31.3501 100.271 31.6794 100.267H45.8202H50.5194C50.7741 100.26 51.029 100.27 51.2826 100.296C51.5452 100.345 51.7855 100.476 51.969 100.67C52.1486 100.858 52.2717 101.093 52.3242 101.347C52.3454 101.588 52.3454 101.831 52.3242 102.072C52.3242 102.552 52.3242 102.998 52.3242 103.445C52.3242 104.342 52.2954 105.206 52.281 106.027C52.2138 109.306 52.1658 111.96 52.1274 113.813C52.1274 114.043 52.1274 114.259 52.1274 114.466C52.1332 114.659 52.1138 114.853 52.0698 115.042C51.9829 115.338 51.7964 115.596 51.5418 115.771C51.3863 115.875 51.2088 115.941 51.0234 115.963C50.9595 115.981 50.8928 115.988 50.8266 115.982Z" fill="#455A64"/>
<path d="M42.0768 106.863L44.6976 108.451L42.0192 110.026L39.3408 111.595L39.3984 108.432L39.456 105.269L42.0768 106.863Z" fill="#455A64"/>
<path d="M284.88 60.9599C285.745 60.5769 286.479 59.9485 286.991 59.1525C287.503 58.3565 287.77 57.4279 287.76 56.4815C287.76 53.8079 285.744 51.6287 283.233 51.6143C280.723 51.5999 278.683 53.7647 278.673 56.4383C278.653 57.3921 278.916 58.3304 279.429 59.135C279.941 59.9396 280.68 60.5746 281.553 60.9599C274.564 62.0159 274.881 69.5999 274.881 69.5999L291.407 69.6767C291.407 69.6767 291.811 62.0255 284.88 60.9599Z" fill="#ED9FF4"/>
<path d="M186.929 43.8695L160.126 46.4126L161.84 64.4803L188.643 61.9372L186.929 43.8695Z" fill="white"/>
<path d="M188.639 61.9201C188.639 61.9201 188.639 61.8049 188.596 61.5841L188.495 60.6241C188.409 59.7745 188.284 58.5505 188.126 56.9809C187.814 53.8417 187.367 49.3393 186.83 43.8577L186.935 43.9489L160.142 46.5601L160.252 46.4257V46.5601V46.7137L160.281 47.0113L160.338 47.6161L160.454 48.8113L160.674 51.1777C160.822 52.7425 160.967 54.2817 161.111 55.7953C161.394 58.8193 161.668 61.7281 161.927 64.4785L161.802 64.3777L181.098 62.6017L186.623 62.1217L188.097 61.9921L188.481 61.9633H188.639H188.519L188.15 62.0017L186.71 62.1553L181.218 62.7073L161.86 64.5985H161.745V64.4833C161.481 61.7281 161.202 58.8241 160.91 55.8001C160.766 54.2897 160.62 52.7505 160.473 51.1825C160.396 50.4001 160.319 49.6081 160.247 48.8161L160.132 47.6209L160.06 47.0401L160.031 46.7425V46.5889V46.4497L160.146 46.3105L186.95 43.7905H187.05V43.8913C187.53 49.4017 187.962 53.9281 188.25 57.0913C188.385 58.6465 188.495 59.8657 188.567 60.7105C188.601 61.1137 188.625 61.4305 188.644 61.6705C188.663 61.9105 188.639 61.9201 188.639 61.9201Z" fill="#455A64"/>
<path d="M186.931 43.8721C186.873 43.9763 186.802 44.073 186.72 44.1601L186.086 44.8945C185.515 45.5473 184.714 46.4593 183.725 47.5777L175.795 56.4481L175.723 56.5249L175.637 56.4673L174.922 56.0113L164.429 49.2913L161.28 47.1985L160.426 46.6273C160.324 46.5653 160.227 46.4947 160.138 46.4161C160.249 46.4615 160.355 46.5178 160.454 46.5841L161.333 47.1169L164.539 49.1137L175.071 55.7809L175.786 56.2609H175.623L183.6 47.4433L186.024 44.8129L186.686 44.1073C186.763 44.0236 186.845 43.945 186.931 43.8721Z" fill="#455A64"/>
<path d="M127.343 65.4337C127.291 64.8489 127.2 64.2684 127.07 63.6961C126.899 63.0318 126.629 62.3974 126.268 61.8145C125.801 61.037 125.188 60.3573 124.463 59.8129C123.523 59.1009 122.418 58.6368 121.252 58.4632C120.085 58.2896 118.893 58.412 117.786 58.8193C116.482 59.2999 115.347 60.1527 114.522 61.2721C113.634 62.4758 113.154 63.9326 113.154 65.4289C113.154 66.9251 113.634 68.382 114.522 69.5857C115.345 70.7082 116.48 71.5631 117.786 72.0433C119.328 72.6059 121.017 72.6148 122.565 72.0683C124.112 71.5219 125.422 70.4541 126.268 69.0481C126.629 68.4652 126.899 67.8307 127.07 67.1665C127.199 66.5956 127.291 66.0167 127.343 65.4337C127.349 65.4719 127.349 65.5106 127.343 65.5489V65.8897C127.343 66.0745 127.329 66.2591 127.3 66.4417C127.274 66.6942 127.229 66.9445 127.166 67.1905C127.006 67.8658 126.746 68.5132 126.393 69.1105C125.543 70.5684 124.208 71.6814 122.621 72.2552C121.034 72.8289 119.295 72.827 117.71 72.2497C117.049 72.0272 116.427 71.7033 115.866 71.2897C115.273 70.8622 114.753 70.3419 114.326 69.7489C113.403 68.5038 112.905 66.9952 112.905 65.4457C112.905 63.8961 113.403 62.3876 114.326 61.1425C114.753 60.5494 115.273 60.0291 115.866 59.6017C116.427 59.188 117.049 58.8642 117.71 58.6417C118.85 58.2275 120.078 58.1084 121.277 58.2956C122.476 58.4827 123.608 58.97 124.569 59.7121C125.304 60.2768 125.922 60.9795 126.388 61.7809C126.744 62.3771 127.007 63.0247 127.166 63.7009C127.229 63.9468 127.274 64.1971 127.3 64.4497C127.329 64.6323 127.343 64.8168 127.343 65.0017V65.3425C127.346 65.3728 127.346 65.4033 127.343 65.4337Z" fill="#263238"/>
<path d="M136.958 77.3761C136.92 77.4337 134.385 75.8017 131.304 73.7329C128.222 71.6641 125.75 69.9361 125.789 69.8929C125.827 69.8497 128.357 71.4673 131.443 73.5409C134.529 75.6145 136.997 77.3185 136.958 77.3761Z" fill="#263238"/>
<path d="M158.174 90.5761L152.567 84.5425L154.382 82.8577L158.255 87.0193L166.382 79.0225L168.119 80.7889L158.174 90.5761Z" fill="#ED9FF4"/>
<path d="M315.46 84.8016H315.729H316.065L316.545 84.864C317.569 85.0306 318.535 85.4533 319.353 86.0928C320.664 87.1256 321.511 88.636 321.71 90.2928C321.758 90.7728 321.758 91.2768 321.758 91.7856C321.758 92.2944 321.758 92.8272 321.758 93.3744C321.758 94.464 321.758 95.6208 321.758 96.8304C321.758 98.04 321.758 99.3216 321.758 100.67C321.758 101.333 321.758 102.014 321.758 102.706C321.791 103.421 321.72 104.137 321.547 104.832C321.253 105.955 320.656 106.974 319.82 107.779C318.984 108.583 317.942 109.142 316.809 109.392C316.017 109.529 315.212 109.579 314.409 109.541H292.982L293.068 109.507L288.235 114.341L288.019 114.557V109.44L288.143 109.565C287.613 109.584 287.082 109.564 286.555 109.507C286.026 109.44 285.509 109.306 285.014 109.109C284.04 108.717 283.179 108.089 282.508 107.281C281.838 106.473 281.379 105.511 281.174 104.482C281.085 103.979 281.043 103.47 281.049 102.96V101.467C281.049 99.4896 281.049 97.5408 281.049 95.64V92.8176C281.02 91.8935 281.049 90.9685 281.135 90.048C281.279 89.1436 281.617 88.2808 282.124 87.5184C282.613 86.7922 283.248 86.175 283.987 85.7058C284.726 85.2366 285.555 84.9255 286.42 84.792C287.242 84.7143 288.067 84.6886 288.892 84.7152H297.839L310.761 84.7584L297.839 84.8016H288.892C288.078 84.7761 287.264 84.8033 286.454 84.8832C285.175 85.0767 283.991 85.6738 283.075 86.5873C282.158 87.5008 281.558 88.683 281.361 89.9616C281.277 90.8711 281.251 91.7849 281.284 92.6976V95.52C281.284 97.44 281.284 99.36 281.284 101.347C281.242 102.338 281.282 103.33 281.404 104.314C281.611 105.294 282.049 106.21 282.681 106.987C283.663 108.175 285.06 108.946 286.588 109.142C287.105 109.196 287.624 109.214 288.143 109.195H288.268V114.24L288.057 114.149L292.895 109.315L292.929 109.282H292.982H314.409C315.204 109.322 316.001 109.273 316.785 109.138C317.538 108.975 318.253 108.67 318.892 108.24C320.119 107.411 321.004 106.167 321.383 104.736C321.55 104.078 321.623 103.399 321.599 102.72C321.599 102.029 321.599 101.347 321.599 100.685C321.599 99.3552 321.599 98.0784 321.599 96.8448C321.599 95.6112 321.599 94.4784 321.599 93.3888C321.599 92.8416 321.599 92.3136 321.599 91.8C321.599 91.2864 321.599 90.792 321.566 90.3216C321.38 88.6926 320.557 87.2034 319.276 86.1792C318.476 85.537 317.527 85.1062 316.516 84.9264L316.06 84.8496H315.729L315.46 84.8016Z" fill="#263238"/>
<path d="M296.424 97.9202C296.424 97.9202 296.395 97.8002 296.332 97.5938C296.243 97.3116 296.064 97.0659 295.824 96.893C295.651 96.7694 295.45 96.6902 295.239 96.6626C295.028 96.635 294.813 96.6597 294.614 96.7346C294.371 96.8235 294.161 96.9849 294.013 97.1969C293.865 97.409 293.785 97.6615 293.785 97.9202C293.785 98.179 293.865 98.4314 294.013 98.6435C294.161 98.8556 294.371 99.017 294.614 99.1058C294.813 99.1807 295.028 99.2055 295.239 99.1778C295.45 99.1502 295.651 99.0711 295.824 98.9474C296.064 98.7746 296.243 98.5288 296.332 98.2466C296.395 98.045 296.4 97.9202 296.424 97.9202C296.455 98.0349 296.455 98.1559 296.424 98.2706C296.37 98.5925 296.199 98.883 295.944 99.0866C295.751 99.2437 295.522 99.3483 295.277 99.3904C295.032 99.4324 294.781 99.4105 294.547 99.3266C294.256 99.2245 294.004 99.0346 293.826 98.7831C293.648 98.5316 293.552 98.2309 293.552 97.9226C293.552 97.6144 293.648 97.3137 293.826 97.0622C294.004 96.8107 294.256 96.6207 294.547 96.5186C294.78 96.4341 295.031 96.4114 295.276 96.4526C295.521 96.4938 295.751 96.5976 295.944 96.7538C296.199 96.9589 296.37 97.2512 296.424 97.5746C296.455 97.6877 296.455 97.8071 296.424 97.9202Z" fill="#263238"/>
<path d="M302.784 97.8719C302.749 97.7665 302.72 97.6591 302.698 97.5503C302.607 97.2669 302.429 97.0197 302.189 96.8447C302.015 96.7206 301.813 96.6413 301.601 96.6136C301.39 96.586 301.174 96.611 300.974 96.6863C300.734 96.7783 300.527 96.9411 300.381 97.1533C300.235 97.3654 300.157 97.6168 300.157 97.8743C300.157 98.1318 300.235 98.3832 300.381 98.5953C300.527 98.8074 300.734 98.9703 300.974 99.0623C301.175 99.1357 301.39 99.1592 301.602 99.1307C301.813 99.1023 302.015 99.0228 302.189 98.8991C302.428 98.7248 302.606 98.4796 302.698 98.1983C302.72 98.088 302.749 97.979 302.784 97.8719C302.784 97.8719 302.827 97.9967 302.784 98.2223C302.726 98.5427 302.556 98.8321 302.304 99.0383C302.112 99.1953 301.882 99.3 301.637 99.342C301.392 99.3841 301.141 99.3621 300.907 99.2783C300.616 99.1762 300.364 98.9862 300.186 98.7347C300.008 98.4832 299.912 98.1826 299.912 97.8743C299.912 97.566 300.008 97.2653 300.186 97.0138C300.364 96.7623 300.616 96.5724 300.907 96.4703C301.141 96.3858 301.392 96.3631 301.637 96.4043C301.881 96.4455 302.111 96.5492 302.304 96.7055C302.556 96.9134 302.727 97.2044 302.784 97.5263C302.827 97.7471 302.798 97.8719 302.784 97.8719Z" fill="#263238"/>
<path d="M309.148 97.8724C309.112 97.7668 309.082 97.6594 309.057 97.5508C308.975 97.2708 308.807 97.0239 308.577 96.8452C308.403 96.7211 308.201 96.6417 307.99 96.6141C307.778 96.5865 307.563 96.6114 307.363 96.6868C307.122 96.7788 306.915 96.9416 306.769 97.1537C306.623 97.3659 306.545 97.6173 306.545 97.8748C306.545 98.1323 306.623 98.3837 306.769 98.5958C306.915 98.8079 307.122 98.9708 307.363 99.0628C307.563 99.1362 307.778 99.1597 307.99 99.1312C308.202 99.1028 308.403 99.0233 308.577 98.8996C308.806 98.7217 308.974 98.4767 309.057 98.1988C309.124 97.9972 309.129 97.8724 309.148 97.8724C309.167 97.8724 309.191 97.9972 309.148 98.2228C309.09 98.5432 308.92 98.8326 308.668 99.0388C308.476 99.1958 308.246 99.3005 308.001 99.3425C307.757 99.3846 307.505 99.3626 307.271 99.2788C306.981 99.1767 306.729 98.9867 306.55 98.7352C306.372 98.4837 306.276 98.183 306.276 97.8748C306.276 97.5665 306.372 97.2658 306.55 97.0143C306.729 96.7628 306.981 96.5729 307.271 96.4708C307.505 96.3863 307.756 96.3635 308.001 96.4048C308.246 96.446 308.475 96.5497 308.668 96.706C308.921 96.9139 309.091 97.2049 309.148 97.5268C309.191 97.7476 309.163 97.8724 309.148 97.8724Z" fill="#263238"/>
<path d="M74.6158 64.9153C74.6158 60.7969 70.2958 58.1953 65.875 60.2497C64.8774 60.7174 64.0612 61.5 63.5518 62.4769C62.4382 64.6273 62.9326 67.0849 63.9358 69.1249L67.3726 77.8321C67.4818 78.1092 67.6717 78.347 67.9179 78.5146C68.164 78.6821 68.4549 78.7718 68.7526 78.7718C69.0504 78.7718 69.3413 78.6821 69.5874 78.5146C69.8335 78.347 70.0235 78.1092 70.1326 77.8321L73.4926 69.0769C74.6686 66.4033 74.6158 64.9153 74.6158 64.9153ZM70.4686 68.5057C67.5022 70.2289 64.4974 67.0417 66.1198 63.8929C66.3364 63.4742 66.6699 63.1273 67.0798 62.8945C70.0462 61.1665 73.0558 64.3585 71.4286 67.5025C71.2124 67.9228 70.8789 68.2712 70.4686 68.5057Z" fill="#ED9FF4"/>
<path d="M89.8751 79.1425C89.8751 79.1425 89.8751 79.1953 89.9375 79.3009C89.9999 79.4065 90.0239 79.5649 90.0959 79.7809L90.6911 81.5953C91.2143 83.1937 91.9775 85.5409 92.9567 88.5505L92.9855 88.6465H92.8895L83.2127 86.8753H83.1503V86.8081L83.2799 86.8705C79.0549 90.0273 73.9138 91.7163 68.6399 91.6801C67.4458 91.6609 66.2543 91.5615 65.0735 91.3825C63.8509 91.1988 62.643 90.9277 61.4591 90.5713L59.6687 89.9185C59.3652 89.8126 59.07 89.6843 58.7855 89.5345L57.9119 89.1169C55.5202 87.9132 53.3385 86.3313 51.4511 84.4321C49.4726 82.4268 47.8654 80.0866 46.7039 77.5201C44.9751 73.7601 44.2399 69.6195 44.5686 65.4941C44.8974 61.3688 46.2792 57.3969 48.5818 53.9582C50.8843 50.5195 54.0307 47.7291 57.7199 45.854C61.4091 43.9788 65.5177 43.0816 69.6527 43.2481C75.6465 43.4628 81.3455 45.9024 85.638 50.0911C89.9306 54.2798 92.509 59.9174 92.8703 65.9041C93.0534 68.3843 92.8313 70.8777 92.2127 73.2865C91.8311 74.8083 91.2972 76.2877 90.6191 77.7025C90.3839 78.1825 90.1967 78.5521 90.0623 78.7825L89.8559 79.1473L90.0383 78.7825C90.1679 78.5281 90.3503 78.1633 90.5759 77.6785C91.2334 76.2602 91.751 74.7812 92.1215 73.2625C92.7188 70.8617 92.9247 68.3802 92.7311 65.9137C92.5012 62.2901 91.4522 58.7658 89.6629 55.6064C87.8737 52.4469 85.3909 49.7346 82.4015 47.6737C78.434 44.9516 73.743 43.4784 68.9316 43.4433C64.1202 43.4082 59.4083 44.813 55.4015 47.4769C50.6663 50.6499 47.215 55.4046 45.6654 60.8898C44.1157 66.3751 44.569 72.2329 46.9439 77.4145C48.0933 79.9563 49.6825 82.2751 51.6383 84.2641C53.5065 86.1445 55.6653 87.7118 58.0319 88.9057L58.9007 89.3233C59.181 89.4747 59.4732 89.6032 59.7743 89.7073L61.5407 90.3553C62.7148 90.7116 63.9132 90.9827 65.1263 91.1665C66.296 91.3446 67.4762 91.4456 68.6591 91.4689C73.8897 91.5033 78.9884 89.8279 83.1791 86.6977L83.3087 86.6017V86.7649L83.2463 86.6833L92.9087 88.4977L92.8415 88.5745L90.6335 81.6001L90.0623 79.7761C89.9999 79.5745 89.9567 79.4161 89.9231 79.2961C89.8895 79.1761 89.8751 79.1329 89.8751 79.1329V79.1425Z" fill="#263238"/>
<path d="M245.496 58.9968C245.429 58.7186 245.397 58.4333 245.4 58.1472C245.384 57.8024 245.344 57.4591 245.28 57.12C245.222 56.6567 245.133 56.1979 245.011 55.7472C244.711 54.501 244.225 53.3069 243.571 52.2048C242.725 50.7422 241.608 49.455 240.278 48.4128C238.677 47.1446 236.802 46.2699 234.801 45.8592C232.508 45.3873 230.131 45.5348 227.913 46.2864C226.712 46.6794 225.578 47.2558 224.553 47.9952C223.471 48.7376 222.518 49.6521 221.731 50.7024C220.03 52.8972 219.076 55.5787 219.009 58.3545C218.941 61.1303 219.764 63.8549 221.356 66.1296C221.742 66.6751 222.166 67.1932 222.624 67.68C223.075 68.1447 223.556 68.5792 224.064 68.9808C225.048 69.7661 226.147 70.3958 227.323 70.848C229.5 71.7056 231.865 71.969 234.177 71.6112C236.196 71.2963 238.113 70.5121 239.774 69.3216C241.153 68.3467 242.333 67.1165 243.249 65.6976C243.951 64.6261 244.489 63.4566 244.848 62.2272C244.991 61.7827 245.103 61.3288 245.184 60.8688C245.264 60.5343 245.318 60.1941 245.347 59.8512C245.359 59.5635 245.406 59.2783 245.486 59.0016C245.519 59.2871 245.519 59.5753 245.486 59.8608C245.482 60.21 245.45 60.5584 245.39 60.9024C245.333 61.3756 245.242 61.8441 245.116 62.304C244.797 63.5787 244.282 64.7963 243.59 65.9136C242.574 67.5666 241.217 68.9839 239.609 70.0707C238.002 71.1575 236.181 71.8889 234.268 72.216C231.846 72.6159 229.36 72.3624 227.068 71.4816C225.831 71.0194 224.67 70.372 223.627 69.5616C223.086 69.1411 222.573 68.6857 222.091 68.1984C221.618 67.6851 221.178 67.1416 220.776 66.5712C219.086 64.1739 218.213 61.2966 218.284 58.3646C218.356 55.4326 219.369 52.6014 221.174 50.2896C221.601 49.7376 222.066 49.2163 222.566 48.7296C223.065 48.2553 223.598 47.8173 224.16 47.4192C225.238 46.6477 226.43 46.0485 227.692 45.6432C230.024 44.8694 232.521 44.7367 234.921 45.2592C236.814 45.6731 238.597 46.4867 240.15 47.6457C241.703 48.8047 242.991 50.2822 243.926 51.9792C244.568 53.1345 245.025 54.3832 245.28 55.68C245.386 56.1538 245.455 56.6353 245.486 57.12C245.53 57.4653 245.546 57.8137 245.534 58.1616C245.552 58.4406 245.539 58.7206 245.496 58.9968Z" fill="#455A64"/>
<path d="M242.812 50.6162C242.841 50.6594 242.596 50.8706 242.13 51.2162L241.266 51.8354C241.098 51.9506 240.916 52.085 240.719 52.2098L240.057 52.5554C237.658 53.9247 234.931 54.6119 232.17 54.5426L230.975 54.4898L229.833 54.3074C229.646 54.2786 229.458 54.2546 229.276 54.2162L228.738 54.0722C228.388 53.9762 228.038 53.8946 227.706 53.789C226.535 53.3948 225.408 52.8766 224.346 52.2434C222.551 51.1586 221.673 50.1698 221.74 50.1074C221.807 50.045 222.791 50.8514 224.62 51.7922C225.678 52.3361 226.781 52.7858 227.918 53.1362C228.234 53.2322 228.57 53.3042 228.911 53.3906L229.425 53.5154L229.958 53.597L231.052 53.7602L232.19 53.8034C234.836 53.8601 237.457 53.272 239.826 52.0898L240.498 51.797C240.7 51.6914 240.887 51.581 241.065 51.4802L241.977 51.0002C242.481 50.7074 242.778 50.5778 242.812 50.6162Z" fill="#455A64"/>
<path d="M221.347 66.9266C221.318 66.8882 221.563 66.677 222.029 66.3266L222.893 65.7074C223.061 65.5922 223.243 65.4578 223.44 65.333L224.102 64.9874C226.501 63.6197 229.228 62.9342 231.989 63.005L233.184 63.0578L234.326 63.2354C234.513 63.269 234.701 63.293 234.883 63.3314L235.421 63.4706C235.771 63.5714 236.121 63.653 236.453 63.7586C237.625 64.1493 238.752 64.6659 239.813 65.2994C241.608 66.389 242.486 67.3778 242.419 67.4402C242.352 67.5026 241.368 66.6962 239.539 65.7554C238.482 65.2078 237.379 64.7563 236.241 64.4066C235.92 64.3154 235.584 64.2434 235.248 64.157L234.734 64.0274L234.201 63.9458L233.107 63.7874L231.969 63.7394C229.32 63.6834 226.698 64.2732 224.328 65.4578L223.68 65.7602C223.478 65.8658 223.291 65.981 223.113 66.077L222.201 66.5858C221.678 66.8402 221.376 66.9698 221.347 66.9266Z" fill="#455A64"/>
<path d="M245.486 59.3087C245.486 59.5151 239.472 59.5343 232.046 59.3519C224.621 59.1695 218.64 58.8719 218.645 58.6559C218.649 58.4399 224.654 58.4351 232.085 58.6175C239.515 58.7999 245.491 59.1071 245.486 59.3087Z" fill="#455A64"/>
<path d="M231.456 72.072C231.254 72.072 231.235 66.0624 231.413 58.656C231.59 51.2496 231.893 45.2496 232.109 45.2544C232.325 45.2592 232.329 51.2688 232.152 58.6944C231.974 66.12 231.657 72.0768 231.456 72.072Z" fill="#455A64"/>
<path d="M231.456 72.0526C231.408 72.1294 229.93 71.1262 228.221 68.8606C227.225 67.5267 226.417 66.0617 225.821 64.507C225.096 62.5882 224.744 60.5484 224.784 58.4974C224.833 56.4429 225.293 54.4189 226.138 52.5454C226.816 51.0267 227.698 49.6072 228.759 48.3262C230.564 46.1422 232.052 45.1774 232.119 45.2542C232.186 45.331 230.842 46.435 229.181 48.6478C228.216 49.9346 227.41 51.3336 226.781 52.8142C226.009 54.6156 225.587 56.5477 225.538 58.507C225.51 60.4691 225.835 62.4202 226.498 64.267C227.045 65.7811 227.779 67.221 228.682 68.5534C230.199 70.843 231.533 71.971 231.456 72.0526Z" fill="#455A64"/>
<path d="M232.407 45.2595C232.459 45.1827 233.938 46.1859 235.642 48.4515C236.638 49.7854 237.446 51.2504 238.042 52.8051C238.763 54.7268 239.114 56.7673 239.079 58.8195C239.028 60.8722 238.568 62.8941 237.725 64.7667C237.043 66.2835 236.162 67.7025 235.104 68.9859C233.299 71.1699 231.807 72.1395 231.744 72.0579C231.682 71.9763 233.021 70.8771 234.677 68.6643C235.642 67.3775 236.448 65.9785 237.077 64.4979C237.846 62.6955 238.266 60.7638 238.315 58.8051C238.344 56.843 238.019 54.8919 237.355 53.0451C236.806 51.5312 236.071 50.0914 235.167 48.7587C233.664 46.4691 232.32 45.3411 232.407 45.2595Z" fill="#455A64"/>
<path d="M218.674 78.6528L218.511 78.696L218.031 78.8112L216.168 79.248L209.035 80.88L208.939 80.904L208.968 80.808L211.589 71.3328V71.2656H211.68L211.603 71.3904C209.437 67.9073 208.197 63.9288 207.999 59.832C207.945 58.686 207.971 57.5377 208.075 56.3952C208.202 55.2085 208.407 54.0315 208.69 52.872C208.98 51.6704 209.357 50.4913 209.818 49.344C210.087 48.7728 210.355 48.1968 210.629 47.6208C210.767 47.3271 210.927 47.0447 211.109 46.776C211.272 46.4976 211.435 46.2192 211.589 45.9408C213.001 43.6669 214.769 41.6346 216.826 39.9216C218.999 38.1295 221.472 36.7368 224.131 35.808C228.032 34.419 232.223 34.0545 236.304 34.7492C240.386 35.444 244.221 37.1747 247.442 39.7758C250.663 42.3769 253.162 45.7613 254.701 49.6049C256.239 53.4485 256.765 57.6228 256.229 61.728C255.484 67.6802 252.549 73.1416 247.995 77.0465C243.441 80.9514 237.596 83.0197 231.6 82.848C229.113 82.8095 226.649 82.367 224.304 81.5376C222.825 81.0208 221.4 80.3584 220.051 79.56C219.571 79.2816 219.24 79.08 219.024 78.9072L218.679 78.6672L219.024 78.8832C219.264 79.032 219.615 79.248 220.075 79.5168C221.432 80.2913 222.859 80.9342 224.338 81.4368C226.677 82.2451 229.13 82.6714 231.605 82.6992C235.817 82.7921 239.98 81.7767 243.676 79.7548C247.372 77.7328 250.473 74.7753 252.666 71.1782C254.86 67.5812 256.07 63.4709 256.176 59.2591C256.281 55.0472 255.278 50.8815 253.267 47.1792C250.535 42.1743 246.111 38.3055 240.786 36.2658C235.461 34.2262 229.585 34.149 224.208 36.048C221.572 36.9666 219.118 38.3429 216.96 40.1136C214.923 41.8116 213.173 43.8262 211.776 46.08C211.613 46.3536 211.45 46.632 211.296 46.9056C211.125 47.1734 210.973 47.4524 210.84 47.7408L210.024 49.44C209.564 50.5771 209.189 51.7467 208.901 52.9392C208.617 54.0873 208.41 55.2531 208.282 56.4288C208.176 57.5631 208.149 58.7035 208.2 59.8416C208.386 63.9061 209.605 67.8562 211.743 71.3184L211.829 71.4576H211.666L211.752 71.4C210.72 75.0528 209.832 78.2496 209.083 80.8656L209.016 80.7888L216.159 79.2L218.026 78.7968L218.506 78.696C218.561 78.6831 218.617 78.6735 218.674 78.6672V78.6528Z" fill="#263238"/>
<path d="M238.896 90.1917C236.549 90.7389 235.056 93.1149 234.543 95.4717C234.029 97.8285 234.288 100.272 234.063 102.672C233.837 105.072 232.997 107.62 230.976 108.912L232.988 109.497C232.59 110.757 231.751 111.83 230.626 112.521C231.412 113.129 232.378 113.459 233.372 113.457C232.191 113.769 231.864 115.459 232.517 116.491C233.17 117.523 234.413 118.012 235.599 118.315C236.985 118.741 238.461 118.786 239.871 118.444C241.791 117.864 243.269 116.155 244.013 114.264C244.757 112.372 244.896 110.308 244.973 108.278C245.117 103.195 244.82 98.0589 243.533 93.1389C243.216 91.9485 242.784 90.6861 241.772 89.9853C240.759 89.2845 239.031 89.5677 238.724 90.7581" fill="#ED9FF4"/>
<path d="M291.95 163.565C291.394 161.443 288.149 149.491 285.23 141.686C282.01 133.022 275.366 131.232 275.366 131.232C260.414 126.129 246.979 126.101 232.646 131.073C232.166 131.217 231.739 131.371 231.312 131.553H231.269C220.627 135.729 219.528 146.971 219.528 146.971L215.04 174.24C214.993 174.455 214.958 174.673 214.934 174.893L214.891 175.152C214.815 176.426 215.123 177.694 215.775 178.792C216.427 179.89 217.393 180.767 218.549 181.31C224.789 184.19 230.76 183.504 235.886 181.387L232.162 186.811H276.509L273.6 179.654L274.56 175.334L281.429 183.6C282.252 184.589 283.354 185.307 284.592 185.659C292.512 186.581 293.794 174.787 292.306 167.923" fill="#455A64"/>
<path d="M263.856 128.26C263.856 128.26 256.699 164.26 254.179 163.982C251.659 163.704 239.837 128.942 239.837 128.942C239.837 128.942 254.947 124.91 263.856 128.26Z" fill="#FFBE9D"/>
<path d="M243.562 130.915C243.523 126.773 243.408 122.41 243.408 122.41C243.408 122.41 238.066 121.56 236.914 114.6C235.819 107.966 236.822 92.6208 236.822 92.6208C240.601 91.0771 244.762 90.7256 248.746 91.6136C252.73 92.5016 256.348 94.5865 259.114 97.5888L258.869 131.246C258.84 135.154 255.456 138.24 251.275 138.178C247.046 138.115 243.595 134.88 243.562 130.915Z" fill="#FFBE9D"/>
<path d="M238.594 104.232C238.592 104.465 238.682 104.689 238.843 104.856C239.005 105.024 239.225 105.122 239.458 105.13C239.572 105.138 239.686 105.124 239.794 105.087C239.902 105.051 240.002 104.993 240.087 104.917C240.173 104.842 240.242 104.75 240.292 104.647C240.341 104.544 240.369 104.432 240.375 104.318C240.376 104.086 240.286 103.862 240.125 103.694C239.964 103.526 239.743 103.428 239.511 103.421C239.397 103.412 239.282 103.427 239.174 103.463C239.066 103.5 238.966 103.557 238.881 103.633C238.796 103.709 238.726 103.801 238.677 103.903C238.627 104.006 238.599 104.118 238.594 104.232Z" fill="#263238"/>
<path d="M237.418 103.599C237.528 103.714 238.2 103.21 239.16 103.205C240.12 103.2 240.831 103.685 240.936 103.56C241.042 103.435 240.869 103.301 240.562 103.08C240.138 102.791 239.635 102.642 239.122 102.653C238.621 102.664 238.136 102.832 237.735 103.133C237.461 103.335 237.36 103.546 237.418 103.599Z" fill="#263238"/>
<path d="M248.313 104.697C248.312 104.93 248.402 105.154 248.563 105.322C248.724 105.489 248.945 105.587 249.177 105.595C249.29 105.601 249.403 105.586 249.509 105.548C249.616 105.511 249.714 105.453 249.798 105.377C249.882 105.302 249.95 105.211 249.998 105.109C250.047 105.007 250.074 104.896 250.08 104.784C250.081 104.551 249.992 104.327 249.83 104.159C249.669 103.992 249.448 103.894 249.216 103.886C249.103 103.88 248.99 103.896 248.884 103.933C248.778 103.97 248.68 104.028 248.596 104.104C248.512 104.179 248.444 104.27 248.395 104.372C248.347 104.474 248.319 104.585 248.313 104.697Z" fill="#263238"/>
<path d="M247.445 103.887C247.56 104.002 248.232 103.498 249.192 103.493C250.152 103.488 250.863 103.973 250.964 103.848C251.064 103.723 250.901 103.589 250.594 103.368C250.17 103.079 249.667 102.93 249.154 102.941C248.652 102.948 248.166 103.117 247.767 103.421C247.493 103.623 247.392 103.834 247.445 103.887Z" fill="#263238"/>
<path d="M244.003 111.033C243.495 110.88 242.969 110.789 242.438 110.765C242.193 110.765 241.958 110.693 241.92 110.525C241.896 110.271 241.952 110.016 242.078 109.795L242.793 107.923C243.782 105.254 244.502 103.065 244.392 103.022C244.281 102.979 243.393 105.115 242.4 107.784C242.165 108.441 241.92 109.065 241.718 109.665C241.566 109.961 241.524 110.301 241.598 110.625C241.634 110.712 241.688 110.789 241.758 110.85C241.828 110.912 241.911 110.956 242.001 110.981C242.138 111.016 242.278 111.035 242.419 111.038C242.945 111.104 243.477 111.102 244.003 111.033Z" fill="#263238"/>
<path d="M243.408 122.4C246.688 122.43 249.911 121.549 252.72 119.856C252.72 119.856 250.483 124.656 243.509 124.046L243.408 122.4Z" fill="#EB996E"/>
<path d="M244.421 113.347C244.604 113.117 244.842 112.937 245.113 112.823C245.384 112.709 245.679 112.665 245.971 112.694C246.183 112.713 246.39 112.774 246.578 112.874C246.766 112.974 246.932 113.11 247.066 113.275C247.195 113.435 247.273 113.631 247.287 113.836C247.302 114.041 247.253 114.246 247.147 114.422C246.994 114.596 246.792 114.719 246.568 114.776C246.344 114.834 246.108 114.822 245.89 114.744C245.436 114.587 245.018 114.34 244.661 114.019C244.551 113.944 244.456 113.847 244.383 113.736C244.347 113.684 244.327 113.622 244.327 113.558C244.327 113.495 244.347 113.433 244.383 113.381" fill="#EB996E"/>
<path d="M246.835 111.682C246.677 111.682 246.682 112.719 245.794 113.463C244.906 114.207 243.792 114.101 243.787 114.245C243.787 114.312 244.037 114.447 244.507 114.456C245.118 114.461 245.711 114.25 246.182 113.861C246.636 113.489 246.924 112.952 246.984 112.368C247.022 111.936 246.907 111.677 246.835 111.682Z" fill="#263238"/>
<path d="M255.36 91.9775C252.878 95.6543 246.197 99.5135 241.382 100.464C241.934 99.7103 244.872 97.8287 245.419 97.0799C243.259 98.7503 240.139 100.992 237.259 101.194C236.918 101.246 236.57 101.198 236.256 101.054C236.09 100.927 235.956 100.763 235.864 100.574C235.772 100.386 235.726 100.179 235.728 99.9695C235.53 97.8684 235.561 95.752 235.819 93.6575C236.021 91.8872 236.891 90.2609 238.253 89.1119C240.091 87.6383 242.746 87.2399 245.256 87.1343C247.358 87.0479 249.528 87.1343 251.467 87.8591C253.406 88.5839 255.077 90.0575 255.389 91.8527" fill="#ED9FF4"/>
<path d="M263.592 108.821C263.891 107.279 264.096 105.721 264.206 104.155C264.35 100.555 265.425 87.5758 253.056 88.8622L253.756 92.3518C253.756 92.3518 251.448 100.435 256.761 105.888C256.761 105.888 255.249 117.273 258.945 120.95C258.945 120.95 262.91 112.704 263.592 108.821Z" fill="#ED9FF4"/>
<path d="M256.603 105.283C257.349 105.121 258.124 105.166 258.845 105.413C259.57 105.669 260.164 106.202 260.496 106.896C260.79 107.605 260.802 108.4 260.53 109.118C260.256 109.831 259.826 110.474 259.272 111C258.9 111.403 258.438 111.714 257.923 111.907C257.666 111.997 257.39 112.024 257.12 111.984C256.85 111.944 256.593 111.838 256.373 111.677" fill="#FFBE9D"/>
<path d="M257.04 109.795C256.958 109.824 257.284 110.275 257.961 110.088C258.328 109.961 258.629 109.696 258.801 109.349C259.002 108.963 259.124 108.543 259.161 108.11C259.216 107.649 259.102 107.183 258.84 106.8C258.733 106.638 258.591 106.503 258.425 106.404C258.259 106.305 258.072 106.245 257.88 106.229C257.179 106.229 256.963 106.709 257.044 106.709C257.126 106.709 257.371 106.512 257.827 106.617C258.109 106.722 258.344 106.926 258.489 107.19C258.634 107.455 258.678 107.763 258.614 108.057C258.537 108.825 258.244 109.526 257.836 109.704C257.428 109.881 257.088 109.733 257.04 109.795Z" fill="#EB996E"/>
<path d="M232.2 164.443C232.133 164.443 232.075 161.616 232.075 158.126C232.075 154.637 232.133 151.814 232.2 151.814C232.267 151.814 232.325 154.642 232.325 158.126C232.325 161.611 232.267 164.443 232.2 164.443Z" fill="#263238"/>
<path d="M250.224 151.55C250.224 151.55 243.984 151.622 243.605 152.99C242.952 155.275 244.118 167.818 244.118 167.818L249.854 169.738C249.854 169.738 252.619 169.099 251.342 163.776C250.509 160.431 249.233 157.213 247.55 154.205C247.55 154.205 255.173 154.416 254.962 152.712C254.75 151.008 250.224 151.55 250.224 151.55Z" fill="#FFBE9D"/>
<path d="M247.747 155.251C248.088 155.184 255.705 154.555 255.23 155.774C254.755 156.993 247.747 157.296 247.747 157.296V155.251Z" fill="#FFBE9D"/>
<path d="M272.222 136.81L271.281 160.598L267.806 169.733L246.456 170.174L245.592 140.707L272.222 136.81Z" fill="#263238"/>
<path d="M243.111 159.936C243.03 159.991 242.943 160.036 242.851 160.07L242.083 160.416L239.237 161.63L229.82 165.562L224.64 167.698C223.212 168.233 221.826 168.875 220.493 169.618C219.6 170.124 218.812 170.795 218.17 171.595C217.728 172.171 217.57 172.555 217.546 172.555C217.571 172.459 217.61 172.367 217.661 172.282C217.78 172.026 217.925 171.783 218.093 171.557C218.713 170.718 219.497 170.015 220.397 169.488C221.728 168.72 223.118 168.061 224.554 167.515L229.743 165.365L239.189 161.501L242.069 160.358L242.856 160.061C242.936 160.009 243.021 159.967 243.111 159.936Z" fill="#263238"/>
<path d="M250.171 169.257C250.029 169.462 249.868 169.653 249.691 169.829C249.379 170.189 248.913 170.693 248.313 171.293C247.118 172.502 245.39 174.096 243.403 175.757C241.416 177.417 239.563 178.848 238.181 179.846C237.494 180.326 236.933 180.739 236.539 181.008C236.343 181.155 236.134 181.286 235.915 181.397C236.089 181.219 236.278 181.059 236.481 180.917L238.075 179.693C239.419 178.661 241.257 177.216 243.245 175.555C245.232 173.894 246.969 172.334 248.189 171.158C248.803 170.577 249.288 170.088 249.629 169.757C249.795 169.575 249.976 169.408 250.171 169.257Z" fill="#263238"/>
<path d="M282.327 184.483C282.274 184.531 279.145 180.94 275.333 176.467C271.522 171.993 268.474 168.336 268.527 168.307C268.58 168.278 271.709 171.84 275.521 176.304C279.332 180.768 282.38 184.44 282.327 184.483Z" fill="#263238"/>
<path d="M288.36 167.198C288.123 167.136 287.892 167.054 287.669 166.953C287.227 166.781 286.594 166.512 285.821 166.166C284.275 165.47 282.173 164.433 279.936 163.137C277.699 161.841 275.746 160.541 274.373 159.547C273.686 159.067 273.139 158.635 272.77 158.337C272.57 158.195 272.383 158.034 272.213 157.857C272.429 157.971 272.635 158.105 272.827 158.256C273.255 158.549 273.811 158.933 274.474 159.398C275.871 160.358 277.834 161.625 280.061 162.917C282.288 164.208 284.381 165.269 285.898 165.998L287.707 166.857C287.935 166.951 288.153 167.065 288.36 167.198Z" fill="#263238"/>
<path d="M277.311 161.976C277.244 161.976 276.869 159.446 276.476 156.307C276.082 153.168 275.818 150.609 275.885 150.604C275.953 150.6 276.332 153.134 276.725 156.273C277.119 159.412 277.383 161.971 277.311 161.976Z" fill="#263238"/>
<path d="M259.253 109.752C259.197 109.859 259.131 109.96 259.056 110.054L258.446 110.87L256.233 113.75V113.596L259.838 116.428L260.16 116.688H259.987L263.107 112.78V112.924L260.76 111.004L260.117 110.462C260.037 110.4 259.964 110.329 259.901 110.251C259.901 110.251 259.997 110.299 260.155 110.414L260.832 110.894L263.232 112.737L263.313 112.8L263.246 112.881C262.358 114.024 261.302 115.368 260.165 116.817L260.088 116.918L259.987 116.841L259.68 116.64C258.379 115.603 257.155 114.624 256.094 113.784L256.008 113.712L256.075 113.63L258.36 110.817L259.013 110.035C259.157 109.833 259.243 109.742 259.253 109.752Z" fill="#263238"/>
<path d="M268.411 167.933C264.955 167.774 261.512 167.405 258.1 166.829C254.064 166.185 254.107 165.816 254.26 165.355C254.644 164.117 261.403 166.219 260.188 164.918C258.974 163.617 251.654 163.31 252.11 162.038C252.705 160.373 259.742 162.705 260.352 162.859C260.961 163.013 261.177 162.134 260.62 162.024C259.824 161.865 251.457 160.017 252.024 158.376C252.34 157.464 253.915 158.227 253.915 158.227C253.915 158.227 261.628 160.541 261.873 159.753C262.118 158.966 257.635 157.445 256.084 157.046C254.534 156.648 254.107 155.755 254.827 155.217C255.307 154.853 260.107 155.971 261.6 156.408C263.092 156.845 267.273 158.102 265.689 155.808L265.622 155.697C264 153.48 263.486 151.233 263.779 150.48C263.859 150.323 263.982 150.191 264.133 150.098C264.283 150.006 264.457 149.958 264.633 149.958C264.81 149.958 264.983 150.006 265.134 150.098C265.285 150.191 265.407 150.323 265.488 150.48C265.565 150.591 265.619 150.717 265.646 150.849C265.661 150.916 265.681 150.982 265.704 151.046C266.085 151.907 266.555 152.725 267.105 153.489C267.581 154.187 268.172 154.799 268.852 155.299C269.64 155.87 271.632 157.973 272.212 158.347" fill="#FFBE9D"/>
<path d="M125.563 139.636C123.401 139.597 121.337 138.728 119.799 137.209C118.26 135.69 117.364 133.637 117.297 131.476C117.182 127.737 117.095 124.132 117.095 124.132C117.095 124.132 110.227 123.494 109.723 116.697C109.219 109.9 109.435 94.2093 109.435 94.2093C113.2 92.309 117.404 91.4482 121.613 91.7157C125.822 91.9832 129.883 93.3693 133.377 95.7309L134.433 96.4461L134.14 131.294C134.13 132.406 133.899 133.506 133.461 134.529C133.023 135.551 132.387 136.477 131.59 137.253C130.792 138.028 129.849 138.638 128.815 139.048C127.78 139.457 126.675 139.657 125.563 139.636Z" fill="#B78876"/>
<path d="M116.928 112.502C116.928 112.426 116.342 112.344 115.392 112.272C115.142 112.272 114.95 112.219 114.912 112.09C114.891 111.843 114.937 111.596 115.046 111.374L115.68 109.44C116.534 106.666 117.12 104.381 116.971 104.338C116.822 104.294 116.011 106.507 115.166 109.282C114.964 109.958 114.772 110.606 114.585 111.245C114.445 111.569 114.42 111.931 114.513 112.272C114.555 112.363 114.617 112.443 114.694 112.506C114.771 112.57 114.862 112.614 114.96 112.637C115.099 112.664 115.241 112.674 115.382 112.666C116.332 112.627 116.923 112.574 116.928 112.502Z" fill="#263238"/>
<path d="M120.033 113.347C118.59 114.044 117.077 114.587 115.521 114.965C115.869 115.437 116.366 115.778 116.933 115.932C117.5 116.085 118.102 116.042 118.641 115.81C120.628 114.936 120.033 113.347 120.033 113.347Z" fill="white"/>
<path d="M117.081 124.027C120.225 123.893 123.258 122.825 125.793 120.96C125.793 120.96 123.998 125.986 117.153 125.789L117.081 124.027Z" fill="#A36957"/>
<path d="M134.054 104.842C134.052 104.58 134.15 104.327 134.329 104.135C134.507 103.943 134.752 103.827 135.014 103.81C136.286 103.776 138.374 104.29 138.556 107.779C138.834 112.786 134.02 111.538 134.006 111.394C133.991 111.25 134.039 106.786 134.054 104.842Z" fill="#B78876"/>
<path d="M135.129 109.44C135.129 109.44 135.215 109.498 135.369 109.555C135.578 109.639 135.812 109.639 136.022 109.555C136.54 109.33 136.938 108.466 136.91 107.563C136.901 107.134 136.794 106.712 136.598 106.33C136.543 106.176 136.451 106.037 136.331 105.927C136.21 105.817 136.065 105.737 135.906 105.696C135.804 105.675 135.698 105.69 135.606 105.739C135.514 105.788 135.442 105.868 135.402 105.965C135.345 106.109 135.402 106.205 135.354 106.214C135.306 106.224 135.244 106.138 135.273 105.926C135.294 105.802 135.357 105.689 135.45 105.605C135.516 105.549 135.593 105.506 135.675 105.48C135.757 105.453 135.844 105.444 135.93 105.451C136.139 105.48 136.337 105.561 136.505 105.688C136.673 105.815 136.806 105.983 136.89 106.176C137.126 106.586 137.259 107.047 137.279 107.52C137.303 108.528 136.838 109.502 136.127 109.752C135.995 109.798 135.855 109.814 135.716 109.798C135.577 109.782 135.444 109.735 135.326 109.661C135.143 109.546 135.11 109.44 135.129 109.44Z" fill="#A36957"/>
<path d="M111.566 105.725C111.582 105.965 111.691 106.19 111.87 106.351C112.05 106.513 112.285 106.598 112.526 106.589C112.643 106.59 112.76 106.567 112.869 106.523C112.978 106.478 113.077 106.412 113.16 106.328C113.243 106.244 113.308 106.145 113.352 106.035C113.395 105.926 113.416 105.809 113.414 105.691C113.4 105.449 113.292 105.222 113.112 105.06C112.932 104.897 112.696 104.812 112.454 104.822C112.336 104.821 112.219 104.844 112.11 104.89C112.001 104.935 111.902 105.002 111.819 105.086C111.736 105.17 111.671 105.27 111.628 105.38C111.584 105.489 111.563 105.607 111.566 105.725Z" fill="#263238"/>
<path d="M109.996 104.798C110.121 104.909 110.783 104.318 111.772 104.275C112.761 104.232 113.529 104.649 113.625 104.525C113.721 104.4 113.543 104.256 113.212 104.045C112.76 103.778 112.237 103.657 111.714 103.699C111.199 103.73 110.707 103.927 110.313 104.261C110.025 104.525 109.919 104.745 109.996 104.798Z" fill="#263238"/>
<path d="M121.44 105.552C121.454 105.793 121.563 106.019 121.743 106.18C121.922 106.342 122.158 106.427 122.4 106.416C122.518 106.417 122.635 106.395 122.744 106.35C122.853 106.306 122.952 106.239 123.035 106.156C123.119 106.072 123.184 105.973 123.228 105.863C123.272 105.754 123.294 105.636 123.292 105.518C123.276 105.278 123.167 105.053 122.988 104.892C122.808 104.73 122.573 104.645 122.332 104.654C122.214 104.654 122.098 104.677 121.989 104.722C121.88 104.767 121.781 104.833 121.698 104.916C121.615 105 121.549 105.099 121.505 105.208C121.46 105.317 121.438 105.434 121.44 105.552Z" fill="#263238"/>
<path d="M120.062 104.798C120.186 104.909 120.849 104.318 121.838 104.275C122.826 104.232 123.59 104.65 123.69 104.525C123.791 104.4 123.609 104.256 123.273 104.045C122.823 103.778 122.301 103.657 121.78 103.699C121.265 103.731 120.773 103.928 120.378 104.261C120.09 104.525 119.999 104.746 120.062 104.798Z" fill="#263238"/>
<path d="M126.623 91.8528C126.174 92.9124 126.042 94.0796 126.243 95.2127C126.444 96.3459 126.969 97.3964 127.756 98.2368C128.423 98.928 129.268 99.456 129.849 100.229C131.049 101.827 130.852 104.026 131.044 106.013C131.13 106.934 131.346 107.933 132.004 108.542C132.661 109.152 133.948 109.214 134.404 108.422C134.532 108.171 134.616 107.9 134.653 107.621C135.073 105.403 135.489 103.187 135.901 100.973C136.213 99.3072 136.53 97.6128 136.242 95.9328C136.074 94.9557 135.703 94.0246 135.153 93.1994C134.604 92.3742 133.887 91.6732 133.051 91.1415C132.214 90.6098 131.275 90.2592 130.294 90.1122C129.314 89.9652 128.313 90.0251 127.357 90.288" fill="#263238"/>
<path d="M127.679 90.4463C125.37 90.0047 124.074 89.2655 122.442 88.5263C120.83 87.7261 118.989 87.5171 117.239 87.9359C116.077 88.2623 114.978 88.9631 113.783 88.9487C112.587 88.9343 111.527 88.2335 110.394 87.8735C109.618 87.6342 108.803 87.5533 107.995 87.6358C107.188 87.7183 106.406 87.9624 105.695 88.3535C104.576 88.9679 103.573 90.0671 103.477 91.4111C103.381 92.7551 104.581 94.1423 105.786 93.7583C104.528 94.1951 104.019 96.0479 104.643 97.2815C104.97 97.8615 105.467 98.3264 106.068 98.6125C106.668 98.8987 107.343 98.9921 107.999 98.8799C109.327 98.5868 110.52 97.8587 111.387 96.8111C111.416 98.3087 112.919 99.3599 114.311 99.3167C115.703 99.2735 116.96 98.4383 118.107 97.5791C119.255 96.7199 120.416 95.7839 121.779 95.4815C122.739 95.2703 123.699 95.3855 124.659 95.2703C125.619 95.1551 126.651 94.7375 127.117 93.8303C127.583 92.9231 129.426 91.8575 128.461 91.8287" fill="#263238"/>
<path d="M113.999 97.8143C114.165 97.9145 114.337 98.0058 114.513 98.0879C115.013 98.2541 115.553 98.2541 116.054 98.0879C116.401 97.9865 116.734 97.8396 117.042 97.6511C117.378 97.4495 117.719 97.1711 118.084 96.9263C118.464 96.6375 118.867 96.3806 119.289 96.1583C119.756 95.9194 120.271 95.7897 120.796 95.7791C121.866 95.7791 122.831 96.0479 123.705 95.9711C124.089 95.9477 124.464 95.8402 124.803 95.656C125.141 95.4719 125.435 95.2157 125.663 94.9055C125.987 94.4882 126.189 93.9901 126.249 93.4655C126.287 93.0911 126.249 92.8799 126.273 92.8799C126.297 92.8799 126.297 92.9279 126.316 93.0287C126.341 93.1745 126.351 93.3225 126.345 93.4703C126.323 94.0245 126.136 94.5595 125.807 95.0063C125.586 95.3221 125.304 95.5899 124.977 95.7935C124.599 96.0248 124.171 96.163 123.729 96.1967C122.798 96.2879 121.809 96.0047 120.806 96.0239C119.802 96.0431 118.938 96.5951 118.218 97.1087C117.849 97.3679 117.503 97.6223 117.148 97.8239C116.82 98.0158 116.466 98.1597 116.097 98.2511C115.564 98.4136 114.991 98.3881 114.474 98.1791C114.338 98.1151 114.212 98.031 114.1 97.9295C114.03 97.8591 113.996 97.8207 113.999 97.8143Z" fill="#263238"/>
<path d="M126.964 88.0752C126.968 88.6092 127.015 89.142 127.103 89.6688C127.271 90.1767 127.481 90.6697 127.732 91.1424C127.304 90.7718 127.001 90.2787 126.864 89.7299C126.726 89.1812 126.761 88.6035 126.964 88.0752Z" fill="#263238"/>
<path d="M129.522 87.9697C129.575 88.0225 128.956 88.6081 128.495 89.5297C128.034 90.4513 127.904 91.2865 127.832 91.2721C127.78 90.6225 127.933 89.9728 128.269 89.4145C128.53 88.8165 128.967 88.3125 129.522 87.9697Z" fill="#263238"/>
<path d="M161.62 159.144L172.07 186.029H156.076L148.622 166.886L161.62 159.144Z" fill="#B78876"/>
<path d="M104.98 137.314C104.98 137.314 91.1995 151.498 85.2475 151.498C83.2987 151.498 81.7723 127.872 81.7483 121.061C82.0641 120.182 82.516 119.357 83.0875 118.618C83.5912 117.915 84.1725 117.271 84.8203 116.698C85.638 115.997 86.5471 115.411 87.5227 114.955C88.4539 114.629 88.5307 113.357 87.6811 113.103C86.8315 112.848 84.2491 113.688 81.9211 115.882C79.5931 118.075 80.2987 113.165 80.5195 111.375C80.7403 109.584 81.1579 104.002 80.6587 103.512C79.9291 102.792 79.0027 103.459 78.8203 105.255C78.6379 107.05 77.7595 112.416 76.7995 112.277C75.8395 112.138 77.1163 103.023 77.1163 103.023C77.1163 103.023 77.6971 101.103 76.6363 100.911C74.6779 100.56 74.0683 110.333 74.0347 111.264C74.0347 111.912 72.9787 111.802 73.0411 111.106C73.1035 110.41 74.4811 102.034 72.5083 101.655C70.9867 101.367 71.9323 109.695 70.6795 111.293C69.4267 112.891 70.6075 104.885 69.1387 104.669C68.5915 104.592 68.1787 104.607 68.1787 109.282C68.1787 111.797 69.1387 115.594 68.7643 120.432C69.3979 134.717 68.6971 174.831 84.6043 170.079C102.081 164.847 114.024 153.399 114.024 153.399L104.98 137.314Z" fill="#B78876"/>
<path d="M143.563 150.024C143.634 150.207 143.685 150.397 143.716 150.59C143.803 150.955 143.913 151.488 144.038 152.15C144.283 153.475 144.576 155.314 144.801 157.354C145.027 159.394 145.142 161.251 145.19 162.595C145.19 163.267 145.224 163.814 145.219 164.189C145.234 164.384 145.224 164.581 145.19 164.774C145.149 164.583 145.127 164.389 145.123 164.194C145.094 163.766 145.056 163.234 145.012 162.605C144.921 161.266 144.777 159.418 144.532 157.382C144.288 155.347 144.052 153.509 143.841 152.179C143.745 151.555 143.668 151.032 143.601 150.61C143.566 150.416 143.553 150.22 143.563 150.024Z" fill="#263238"/>
<path d="M102.647 186.029L146.673 186.25L145.189 176.957C145.578 172.547 145.557 168.11 145.127 163.704L147.359 169.747L165.556 160.627C165.556 160.627 158.941 142.992 153.402 137.016C146.409 129.466 133.818 130.219 133.818 130.219L125.313 135.979L117.484 130.464C113.284 130.956 109.196 132.146 105.388 133.982L104.985 134.098V134.184C100.367 136.584 93.7765 142.474 87.5029 148.181L94.7461 155.232L102.767 162.706C103.221 162.638 103.681 162.619 104.14 162.648C104.274 163.474 102.647 186.029 102.647 186.029Z" fill="#455A64"/>
<path opacity="0.2" d="M143.774 147.206L149.76 168.547L147.36 169.747L145.132 163.704C145.132 163.704 142.958 151.051 143.774 147.206Z" fill="black"/>
<path d="M116.994 130.401V128.097C116.994 128.097 123.868 127.564 125.26 135.686C125.26 135.686 127.501 128.097 134.173 127.334L135.133 130.881C135.133 130.881 131.97 140.764 131.514 140.851C131.058 140.937 125.274 142.622 125.274 142.622L121.914 141.864L118.194 137.625L116.994 130.401Z" fill="#455A64"/>
<path d="M135.283 130.613C135.169 130.759 135.041 130.892 134.899 131.011C134.649 131.266 134.285 131.621 133.853 132.086C132.731 133.29 131.732 134.602 130.872 136.003C130.661 136.349 130.469 136.69 130.286 137.021L130.176 137.222L130.07 137.021C129.307 135.581 128.63 134.333 128.112 133.358C128 133.171 127.851 133.007 127.675 132.878C127.533 132.78 127.367 132.722 127.195 132.71C127.052 132.708 126.911 132.733 126.777 132.782C126.777 132.782 126.888 132.629 127.2 132.624C127.386 132.621 127.57 132.673 127.728 132.773C127.933 132.907 128.106 133.084 128.237 133.291C128.779 134.198 129.47 135.47 130.272 136.925H130.08C130.262 136.589 130.454 136.238 130.67 135.893C131.534 134.472 132.563 133.158 133.737 131.981C134.189 131.53 134.573 131.189 134.846 130.958C134.974 130.823 135.122 130.706 135.283 130.613Z" fill="#263238"/>
<path d="M116.548 131.04C116.671 131.141 116.781 131.257 116.874 131.386C117.076 131.621 117.354 131.962 117.695 132.389C118.381 133.238 119.313 134.424 120.33 135.749L120.493 135.96H120.282C120.652 135.283 120.681 134.52 120.849 133.819C120.956 133.183 121.298 132.611 121.809 132.216C121.989 132.096 122.195 132.02 122.409 131.992C122.624 131.965 122.842 131.987 123.047 132.058C123.155 132.103 123.254 132.166 123.34 132.245C123.393 132.307 123.412 132.341 123.407 132.346C123.285 132.266 123.155 132.2 123.018 132.149C122.828 132.101 122.631 132.096 122.438 132.132C122.246 132.169 122.064 132.246 121.905 132.36C121.455 132.747 121.163 133.285 121.084 133.872C120.995 134.631 120.803 135.373 120.513 136.08L120.421 136.248L120.306 136.094L120.143 135.883C119.125 134.563 118.223 133.358 117.565 132.48C117.244 132.043 116.985 131.683 116.807 131.434C116.704 131.314 116.617 131.182 116.548 131.04Z" fill="#263238"/>
<path d="M121.439 186.029C121.433 185.984 121.433 185.939 121.439 185.894C121.439 185.798 121.439 185.669 121.439 185.515C121.439 185.16 121.482 184.67 121.516 184.046C121.598 182.755 121.718 180.917 121.857 178.656C122.174 174.086 122.606 167.808 123.081 160.872L124.372 143.112C124.55 140.851 124.694 139.017 124.794 137.726C124.847 137.102 124.891 136.613 124.924 136.262C124.924 136.104 124.953 135.979 124.962 135.878C124.957 135.837 124.957 135.795 124.962 135.753C124.971 135.796 124.971 135.84 124.962 135.883V136.262C124.962 136.617 124.915 137.107 124.881 137.731C124.799 139.022 124.684 140.861 124.54 143.121C124.228 147.691 123.796 153.969 123.321 160.905C122.846 167.841 122.361 174.12 122.025 178.665C121.847 180.926 121.708 182.76 121.607 184.051C121.55 184.675 121.506 185.165 121.478 185.52C121.478 185.673 121.449 185.798 121.439 185.899C121.446 185.942 121.446 185.986 121.439 186.029Z" fill="#263238"/>
<path d="M105.633 143.328C105.641 143.583 105.627 143.839 105.59 144.091C105.551 144.624 105.494 145.32 105.426 146.165C105.297 147.912 105.162 150.336 105.014 153.015C104.865 155.693 104.702 158.112 104.534 159.864C104.447 160.738 104.361 161.448 104.289 161.933C104.266 162.188 104.219 162.44 104.15 162.687C104.141 162.431 104.156 162.176 104.193 161.923C104.236 161.391 104.289 160.69 104.356 159.85C104.49 158.098 104.62 155.674 104.774 153C104.927 150.327 105.081 147.898 105.254 146.146C105.34 145.272 105.426 144.567 105.498 144.077C105.522 143.824 105.567 143.574 105.633 143.328Z" fill="#263238"/>
<path d="M124.8 134.525C124.8 134.525 122.438 137.611 122.784 138.072L124.8 140.765H126.24C126.24 140.765 127.584 136.992 127.238 136.512C126.892 136.032 124.8 134.525 124.8 134.525Z" fill="#ED9FF4"/>
<path d="M128.399 133.694L125.793 135.73L126.791 137.645L129.47 135.667L128.399 133.694Z" fill="#ED9FF4"/>
<path d="M120.743 134.981L123.119 136.963L124.434 134.981L121.434 132.701L120.743 134.981Z" fill="#ED9FF4"/>
<path d="M124.77 140.76L121.146 173.237L124.713 184.526L129.47 173.338L126.34 140.376L124.77 140.76Z" fill="#ED9FF4"/>
<path d="M150.129 134.726C149.979 134.604 149.819 134.497 149.649 134.404C149.181 134.187 148.647 134.156 148.156 134.318C147.438 134.594 146.799 135.044 146.299 135.628C145.638 136.31 145.067 137.073 144.6 137.899C143.756 139.41 143.264 141.092 143.16 142.819C143.083 144.148 143.251 144.969 143.198 144.974C143.138 144.788 143.097 144.597 143.073 144.403C142.999 143.877 142.971 143.345 142.987 142.814C143.038 141.046 143.517 139.316 144.384 137.774C144.86 136.929 145.45 136.152 146.136 135.465C146.667 134.862 147.347 134.409 148.108 134.15C148.371 134.07 148.647 134.044 148.92 134.073C149.193 134.102 149.457 134.185 149.697 134.318C149.825 134.392 149.94 134.486 150.038 134.596C150.11 134.673 150.134 134.721 150.129 134.726Z" fill="#263238"/>
<path d="M184.435 94.5596C181.359 96.446 179.223 99.5996 177.955 102.974C176.688 106.348 176.208 109.968 175.834 113.534C174.842 123.015 174.51 132.553 174.84 142.08C186.471 143.548 198.192 145.027 209.88 144.23C207.85 130.872 206.563 117.528 208.191 104.112" fill="#263238"/>
<path d="M210.562 205.569L202.08 188.443L205.315 175.915C205.695 178.569 206.031 180.873 206.031 180.873L224.199 179.913C224.359 179.905 224.515 179.863 224.658 179.791C224.801 179.719 224.927 179.618 225.029 179.494C225.13 179.37 225.205 179.227 225.248 179.072C225.291 178.918 225.302 178.757 225.279 178.598L221.76 153.542C221.76 153.542 220.623 141.917 209.616 137.597H209.563C209.122 137.424 208.661 137.27 208.186 137.117C193.349 131.971 179.453 132.005 163.992 137.28C163.992 137.28 157.123 139.128 153.792 148.089C150.461 157.051 147.072 170.222 147.072 170.222L162.48 175.68L162.581 173.073L165.989 186.11L158.515 205.099L184.603 205.742L210.562 205.569Z" fill="#ED9FF4"/>
<path d="M147.086 170.054L145.354 178.214C143.866 185.246 149.074 192.465 156.216 193.277L194.189 197.174C196.19 197.4 198.216 197.222 200.147 196.653C202.079 196.084 203.877 195.134 205.435 193.859C206.994 192.584 208.282 191.011 209.223 189.231C210.165 187.45 210.741 185.5 210.917 183.494L163.042 178.934L163.339 174.336L147.086 170.054Z" fill="#ED9FF4"/>
<path d="M194.573 178.402L197.52 177.854C197.52 177.854 204.509 170.208 205.819 170.102C206.899 170.011 212.847 170.069 214.939 170.102C215.129 170.105 215.309 170.182 215.442 170.317C215.575 170.451 215.65 170.633 215.65 170.822C215.65 171.009 215.577 171.189 215.448 171.323C215.318 171.457 215.141 171.536 214.954 171.542L207.931 171.816L207.898 172.382L214.93 172.473C215.65 172.531 216.106 173.664 213.816 173.87L207.931 174.077V174.442L213.898 175.277C214.2 175.32 214.992 175.473 214.997 175.781C214.997 175.781 215.362 176.525 213.658 176.741C213.077 176.813 207.898 176.64 207.898 176.64L208.095 177.12L213.461 178.277C213.649 178.317 213.814 178.428 213.924 178.585C214.033 178.743 214.079 178.936 214.051 179.126C214.025 179.321 213.924 179.497 213.77 179.619C213.616 179.741 213.421 179.798 213.226 179.779L207.499 179.251L201.874 183.739H194.338L194.573 178.402Z" fill="#FFBE9D"/>
<path d="M175.91 133.584C175.91 133.584 183.307 171.408 185.913 171.134C188.52 170.861 200.745 134.88 200.745 134.88C200.745 134.88 185.121 130.123 175.91 133.584Z" fill="#FAFAFA"/>
<path d="M208.641 170.198C208.574 170.198 208.517 167.587 208.517 164.371C208.517 161.155 208.574 158.549 208.641 158.549C208.709 158.549 208.766 161.155 208.766 164.371C208.766 167.587 208.713 170.198 208.641 170.198Z" fill="#263238"/>
<path d="M163.233 170.443C163.244 169.882 163.295 169.322 163.387 168.768C163.517 167.731 163.709 166.31 163.939 164.74C164.169 163.171 164.385 161.745 164.558 160.723C164.627 160.163 164.738 159.61 164.889 159.067C164.879 159.63 164.828 160.191 164.736 160.747C164.606 161.779 164.414 163.204 164.184 164.774C163.953 166.344 163.737 167.76 163.565 168.787C163.495 169.346 163.385 169.9 163.233 170.443Z" fill="#263238"/>
<path d="M184.603 205.718C184.589 205.602 184.589 205.484 184.603 205.368C184.603 205.113 184.603 204.782 184.603 204.365C184.603 203.491 184.603 202.229 184.636 200.669C184.694 197.549 184.862 193.243 185.078 188.491C185.294 183.739 185.486 179.433 185.592 176.313C185.635 174.777 185.673 173.525 185.702 172.622C185.702 172.209 185.702 171.873 185.731 171.619C185.728 171.501 185.738 171.384 185.76 171.269C185.77 171.385 185.77 171.502 185.76 171.619C185.76 171.872 185.76 172.208 185.76 172.627C185.76 173.496 185.76 174.758 185.731 176.318C185.673 179.438 185.5 183.744 185.289 188.501C185.078 193.257 184.876 197.558 184.776 200.673C184.728 202.214 184.689 203.467 184.665 204.365C184.665 204.782 184.665 205.118 184.632 205.368C184.629 205.485 184.62 205.602 184.603 205.718Z" fill="#263238"/>
<path d="M200.683 134.817C200.683 134.817 200.707 134.981 200.765 135.297C200.847 135.744 200.974 136.182 201.144 136.603C201.414 137.267 201.735 137.909 202.104 138.523C202.601 139.343 203.054 140.189 203.462 141.057C203.984 142.123 204.184 143.317 204.038 144.494C203.919 145.148 203.655 145.766 203.265 146.304C202.86 146.863 202.407 147.387 201.912 147.869C200.855 148.881 199.891 149.986 199.032 151.171C198.116 152.441 197.599 153.955 197.549 155.52C197.549 156.306 197.723 157.083 198.057 157.795C198.409 158.495 198.72 159.215 198.989 159.95C199.11 160.325 199.16 160.719 199.137 161.112C199.109 161.504 198.986 161.883 198.777 162.216C198.341 162.809 197.8 163.317 197.179 163.713L191.165 168.149L187.099 171.115L185.985 171.917L185.692 172.118L185.587 172.181C185.587 172.181 185.616 172.147 185.678 172.094L185.957 171.873L187.041 171.038L191.04 168L197.021 163.526C197.616 163.145 198.135 162.657 198.552 162.086C198.741 161.787 198.853 161.446 198.878 161.093C198.896 160.727 198.847 160.361 198.734 160.013C198.467 159.288 198.158 158.579 197.808 157.891C197.459 157.149 197.279 156.339 197.28 155.52C197.33 153.906 197.863 152.344 198.811 151.037C199.679 149.838 200.656 148.723 201.729 147.705C202.713 146.745 203.62 145.685 203.812 144.456C203.963 143.319 203.778 142.163 203.28 141.129C202.885 140.26 202.445 139.412 201.96 138.59C201.601 137.961 201.291 137.304 201.033 136.627C200.871 136.196 200.758 135.749 200.697 135.293C200.68 135.175 200.669 135.056 200.664 134.937C200.664 134.897 200.67 134.856 200.683 134.817Z" fill="#263238"/>
<path d="M185.885 170.746H185.769L185.429 170.683C184.995 170.593 184.567 170.476 184.147 170.333C182.6 169.81 181.168 168.995 179.928 167.933C178.074 166.338 176.727 164.236 176.054 161.885C175.658 160.504 175.495 159.067 175.574 157.632C175.614 156.876 175.715 156.125 175.877 155.386C176.06 154.65 176.081 153.884 175.939 153.139C175.839 152.786 175.637 152.47 175.358 152.232C175.06 152.014 174.725 151.852 174.369 151.752C174.014 151.632 173.645 151.536 173.285 151.387C172.927 151.239 172.601 151.024 172.325 150.754C171.805 150.206 171.46 149.516 171.336 148.771C171.203 148.077 171.164 147.368 171.221 146.664C171.445 144.253 171.974 141.881 172.795 139.603C173.343 138.07 174.017 136.585 174.811 135.163C175.094 134.683 175.325 134.28 175.493 134.03L175.68 133.742C175.699 133.707 175.723 133.675 175.752 133.646C175.752 133.646 175.752 133.685 175.704 133.752L175.536 134.054C175.382 134.314 175.166 134.707 174.893 135.211C174.142 136.644 173.5 138.132 172.973 139.661C172.189 141.931 171.682 144.287 171.461 146.678C171.414 147.363 171.456 148.05 171.585 148.723C171.704 149.419 172.025 150.065 172.507 150.581C172.768 150.827 173.072 151.022 173.405 151.157C173.741 151.296 174.105 151.392 174.475 151.517C174.86 151.628 175.222 151.811 175.541 152.054C175.859 152.325 176.09 152.684 176.203 153.086C176.357 153.867 176.338 154.671 176.145 155.443C175.987 156.174 175.886 156.915 175.843 157.661C175.772 159.07 175.934 160.481 176.323 161.837C176.975 164.151 178.284 166.227 180.091 167.813C181.308 168.88 182.71 169.715 184.229 170.275C184.766 170.467 185.189 170.592 185.491 170.669L185.822 170.755C185.843 170.751 185.864 170.748 185.885 170.746Z" fill="#263238"/>
<path d="M205.862 178.454L174.053 177.427L174.101 187.987L195.163 192.614L209.981 194.98C219.187 194.98 226.555 186.528 225.13 177.432H225.091L205.862 178.454Z" fill="#ED9FF4"/>
<path d="M214.618 178.253C214.481 178.274 214.343 178.284 214.205 178.281L213.024 178.315L208.675 178.392C205.003 178.449 199.93 178.512 194.323 178.454C188.717 178.397 183.643 178.2 179.976 177.974C178.143 177.849 176.664 177.734 175.656 177.629L174.48 177.509C174.341 177.501 174.203 177.482 174.067 177.451C174.205 177.439 174.343 177.439 174.48 177.451L175.661 177.523C176.688 177.595 178.171 177.686 179.981 177.787C183.648 177.989 188.717 178.166 194.323 178.219C199.93 178.272 204.994 178.219 208.666 178.219H213.019H214.2C214.34 178.22 214.48 178.231 214.618 178.253Z" fill="#263238"/>
<path d="M173.784 178.402L170.837 177.854C170.837 177.854 163.848 170.208 162.533 170.102C161.458 170.011 155.511 170.069 153.437 170.102C153.248 170.105 153.067 170.182 152.934 170.317C152.801 170.451 152.727 170.633 152.727 170.822C152.726 171.008 152.798 171.187 152.927 171.322C153.056 171.456 153.232 171.535 153.418 171.542L160.445 171.816L160.479 172.382L153.442 172.473C152.727 172.531 152.266 173.664 154.56 173.87L160.445 174.077V174.442L154.479 175.277C154.176 175.32 153.384 175.473 153.375 175.781C153.375 175.781 153.015 176.525 154.714 176.741C155.299 176.813 160.474 176.64 160.474 176.64L160.272 177.12L154.911 178.277C154.723 178.318 154.558 178.429 154.448 178.586C154.338 178.743 154.29 178.936 154.315 179.126C154.343 179.32 154.444 179.496 154.598 179.618C154.751 179.739 154.946 179.797 155.141 179.779L160.872 179.251L166.498 183.739H174.015L173.784 178.402Z" fill="#FFBE9D"/>
<path d="M209.414 194.808C209.294 194.822 209.173 194.822 209.054 194.808L208.027 194.697C207.129 194.597 205.843 194.433 204.249 194.217C201.062 193.776 196.675 193.08 191.86 192.139C187.046 191.198 182.74 190.181 179.601 189.384C178.046 188.99 176.788 188.654 175.924 188.424L174.931 188.136C174.813 188.106 174.697 188.067 174.585 188.021C174.705 188.03 174.824 188.053 174.94 188.088L175.948 188.328L179.644 189.23C182.769 189.979 187.099 190.963 191.908 191.909C196.718 192.854 201.1 193.574 204.273 194.059L208.036 194.621L209.059 194.779C209.177 194.782 209.296 194.791 209.414 194.808Z" fill="#263238"/>
<path d="M174.389 188.03C174.249 187.539 174.156 187.036 174.11 186.528C173.986 185.568 173.851 184.291 173.774 182.856C173.698 181.421 173.702 180.11 173.731 179.165C173.724 178.655 173.765 178.145 173.851 177.643C173.908 178.15 173.927 178.66 173.909 179.169C173.909 180.129 173.952 181.406 174.024 182.841C174.096 184.277 174.206 185.568 174.288 186.504C174.355 187.01 174.389 187.52 174.389 188.03Z" fill="#263238"/>
<path d="M177.863 188.443C177.799 188.315 177.753 188.18 177.724 188.04C177.652 187.781 177.556 187.397 177.46 186.922C176.949 184.431 176.787 181.882 176.98 179.347C177.018 178.867 177.066 178.469 177.11 178.2C177.117 178.059 177.147 177.92 177.196 177.787C177.214 178.311 177.201 178.835 177.158 179.357C177.119 180.317 177.105 181.661 177.196 183.134C177.287 184.608 177.46 185.933 177.614 186.888C177.729 187.401 177.812 187.92 177.863 188.443Z" fill="#263238"/>
<path d="M174.926 179.332C174.955 179.361 174.773 179.491 174.778 179.812C174.778 179.894 174.795 179.974 174.828 180.049C174.861 180.123 174.909 180.19 174.97 180.244C175.049 180.297 175.141 180.325 175.236 180.325C175.331 180.325 175.424 180.297 175.502 180.244C175.588 180.199 175.659 180.129 175.704 180.044C175.749 179.958 175.768 179.861 175.757 179.764C175.741 179.685 175.708 179.609 175.661 179.543C175.614 179.477 175.553 179.421 175.483 179.38C175.229 179.227 175.003 179.318 175.003 179.279C175.003 179.241 175.2 179.073 175.56 179.227C175.663 179.269 175.754 179.334 175.827 179.417C175.901 179.5 175.954 179.6 175.982 179.707C175.999 179.849 175.974 179.993 175.91 180.121C175.845 180.249 175.745 180.356 175.62 180.427C175.496 180.498 175.353 180.531 175.21 180.521C175.067 180.512 174.93 180.461 174.816 180.374C174.734 180.297 174.671 180.201 174.633 180.096C174.594 179.99 174.581 179.876 174.595 179.764C174.653 179.395 174.926 179.299 174.926 179.332Z" fill="#263238"/>
<path d="M180.71 190.003C180.602 190.016 180.492 190.016 180.384 190.003C180.168 190.003 179.856 190.003 179.448 190.003C178.304 190.033 177.164 190.14 176.035 190.324C174.362 190.609 172.703 190.977 171.067 191.428C169.209 191.908 167.184 192.508 165.009 192.984C162.964 193.461 160.869 193.688 158.769 193.66C157.053 193.616 155.356 193.292 153.744 192.7C152.662 192.291 151.649 191.719 150.739 191.006C150.494 190.811 150.262 190.601 150.043 190.377C149.961 190.306 149.887 190.225 149.822 190.137C149.822 190.137 150.153 190.444 150.782 190.929C151.701 191.606 152.713 192.146 153.787 192.532C155.394 193.103 157.083 193.409 158.789 193.44C160.865 193.453 162.935 193.221 164.957 192.748C167.117 192.268 169.147 191.692 171.009 191.212C172.657 190.771 174.326 190.419 176.011 190.156C177.149 189.989 178.298 189.909 179.448 189.916C179.856 189.916 180.173 189.916 180.384 189.96C180.494 189.964 180.603 189.978 180.71 190.003Z" fill="#263238"/>
<path d="M194.703 138.038C195.456 133.824 196.33 129.398 196.33 129.398C196.33 129.398 201.927 129.451 204.303 122.558C206.568 115.982 208.205 100.161 208.205 100.161C204.62 97.9326 200.439 96.8536 196.223 97.0689C192.007 97.2843 187.958 98.7837 184.618 101.366L179.04 135.724C178.392 139.713 181.306 143.448 185.583 144.105C189.898 144.772 193.983 142.08 194.703 138.038Z" fill="#FFBE9D"/>
<path d="M204.043 112.008C204.003 112.245 203.873 112.458 203.679 112.6C203.486 112.743 203.244 112.804 203.006 112.771C202.888 112.761 202.773 112.727 202.669 112.672C202.564 112.616 202.472 112.54 202.398 112.448C202.324 112.356 202.268 112.25 202.236 112.137C202.203 112.023 202.194 111.904 202.209 111.787C202.249 111.549 202.38 111.336 202.575 111.194C202.769 111.051 203.012 110.99 203.251 111.024C203.368 111.035 203.481 111.069 203.585 111.125C203.688 111.181 203.78 111.257 203.854 111.349C203.927 111.441 203.982 111.546 204.015 111.659C204.047 111.772 204.056 111.891 204.043 112.008Z" fill="#263238"/>
<path d="M205.699 111.25C205.565 111.35 204.965 110.717 203.986 110.549C203.006 110.381 202.205 110.741 202.118 110.602C202.075 110.544 202.229 110.347 202.598 110.174C203.074 109.957 203.605 109.89 204.12 109.982C204.63 110.072 205.099 110.321 205.459 110.693C205.699 110.976 205.762 111.206 205.699 111.25Z" fill="#263238"/>
<path d="M193.992 110.4C193.951 110.637 193.821 110.849 193.627 110.991C193.434 111.133 193.193 111.195 192.955 111.163C192.722 111.141 192.507 111.028 192.358 110.848C192.209 110.668 192.137 110.436 192.158 110.203C192.198 109.965 192.329 109.752 192.524 109.608C192.718 109.465 192.96 109.403 193.2 109.435C193.432 109.459 193.645 109.574 193.794 109.755C193.942 109.935 194.013 110.167 193.992 110.4Z" fill="#263238"/>
<path d="M195.422 109.809C195.288 109.905 194.688 109.277 193.708 109.104C192.729 108.931 191.928 109.301 191.841 109.161C191.798 109.099 191.947 108.902 192.321 108.729C192.797 108.511 193.328 108.446 193.843 108.542C194.353 108.629 194.822 108.876 195.182 109.248C195.422 109.531 195.484 109.766 195.422 109.809Z" fill="#263238"/>
<path d="M197.692 117.691C198.238 117.626 198.789 117.626 199.334 117.691C199.588 117.691 199.814 117.691 199.905 117.538C199.972 117.284 199.96 117.016 199.872 116.77C199.742 116.122 199.608 115.445 199.468 114.734C198.916 111.854 198.566 109.483 198.686 109.454C198.806 109.426 199.339 111.758 199.891 114.648C200.02 115.363 200.145 116.04 200.26 116.688C200.363 117.017 200.348 117.372 200.217 117.691C200.165 117.774 200.095 117.843 200.012 117.894C199.928 117.945 199.834 117.976 199.737 117.984C199.592 118.004 199.445 118.004 199.3 117.984C198.754 117.956 198.214 117.858 197.692 117.691Z" fill="#263238"/>
<path d="M196.32 129.398C192.972 128.858 189.839 127.401 187.268 125.188C187.268 125.188 188.708 130.468 195.908 131.054L196.32 129.398Z" fill="#EB996E"/>
<path d="M196.867 120C196.724 119.728 196.514 119.497 196.257 119.329C196 119.162 195.704 119.062 195.398 119.04C195.179 119.021 194.958 119.048 194.749 119.117C194.541 119.186 194.348 119.297 194.184 119.443C194.023 119.582 193.91 119.768 193.859 119.974C193.808 120.181 193.823 120.397 193.9 120.595C194.027 120.798 194.21 120.959 194.428 121.058C194.646 121.156 194.889 121.187 195.124 121.147C195.615 121.063 196.085 120.884 196.507 120.619C196.631 120.56 196.743 120.479 196.838 120.379C196.884 120.332 196.915 120.272 196.926 120.207C196.937 120.141 196.928 120.074 196.9 120.014" fill="#EB996E"/>
<path d="M194.697 117.863C194.856 117.863 194.668 118.943 195.446 119.86C196.224 120.777 197.366 120.854 197.366 121.007C197.366 121.075 197.078 121.166 196.598 121.094C195.975 120.995 195.407 120.679 194.995 120.201C194.593 119.75 194.38 119.163 194.4 118.559C194.457 118.079 194.625 117.844 194.697 117.863Z" fill="#263238"/>
<path d="M189.413 96.2975C191.309 100.478 197.453 105.566 202.195 107.371C201.763 106.507 199.1 104.078 198.668 103.219C200.588 105.298 203.347 108.12 206.271 108.826C206.609 108.939 206.973 108.951 207.317 108.859C207.507 108.757 207.672 108.613 207.797 108.437C207.923 108.261 208.007 108.059 208.042 107.846C208.607 105.737 208.942 103.572 209.04 101.39C209.147 99.5527 208.546 97.744 207.36 96.3359C205.743 94.5167 203.103 93.6479 200.563 93.1055C198.432 92.6543 196.205 92.3663 194.103 92.7695C192 93.1727 190.042 94.3823 189.413 96.1631" fill="#263238"/>
<path d="M178.104 112.042C178.066 110.419 178.127 108.795 178.286 107.179C178.766 103.488 179.913 90.0624 192.302 93.5184L190.987 96.96C190.987 96.96 191.947 105.6 185.577 110.237C185.577 110.237 185.606 118.877 181.2 121.973C181.2 121.973 178.128 116.126 178.104 112.046" fill="#263238"/>
<path d="M185.842 109.646C185.11 109.352 184.311 109.264 183.533 109.392C182.757 109.532 182.067 109.971 181.613 110.616C181.192 111.289 181.042 112.097 181.195 112.877C181.351 113.652 181.679 114.381 182.155 115.013C182.462 115.484 182.874 115.877 183.36 116.16C183.607 116.299 183.884 116.374 184.167 116.38C184.45 116.386 184.73 116.322 184.982 116.193" fill="#FFBE9D"/>
<path d="M184.613 114.172C184.695 114.216 184.287 114.619 183.624 114.307C183.45 114.212 183.297 114.084 183.173 113.93C183.048 113.776 182.955 113.599 182.9 113.409C182.759 112.983 182.707 112.532 182.746 112.084C182.771 111.605 182.967 111.15 183.298 110.803C183.439 110.655 183.611 110.54 183.802 110.469C183.994 110.397 184.199 110.37 184.402 110.39C185.117 110.5 185.252 111.033 185.165 111.033C185.079 111.033 184.868 110.779 184.383 110.808C184.078 110.866 183.804 111.032 183.611 111.275C183.418 111.518 183.319 111.822 183.332 112.132C183.279 112.929 183.452 113.697 183.836 113.947C184.22 114.196 184.58 114.1 184.613 114.172Z" fill="#EB996E"/>
<path d="M184.603 116.188C182.683 127.665 184.243 139.396 184.603 151.032C184.637 152.145 184.646 153.312 184.123 154.305C183.36 155.808 181.574 156.542 179.889 156.643C178.205 156.744 176.529 156.355 174.854 156.216C174.672 155.102 174.494 153.984 174.312 152.856C173.75 154.142 173.189 155.424 172.632 156.696C173.371 148.536 174.181 140.376 175.061 132.216" fill="#263238"/>
</svg>
