<svg width="189" height="163" viewBox="0 0 189 163" fill="none" xmlns="http://www.w3.org/2000/svg">
<path fill-rule="evenodd" clip-rule="evenodd" d="M79.3974 162.934C78.576 163.205 77.7307 162.61 77.5094 161.607C77.2881 160.603 77.7745 159.57 78.596 159.299C79.795 158.905 81.0445 158.494 82.5618 157.996C83.3834 157.726 84.2283 158.321 84.4491 159.325C84.6698 160.329 84.1827 161.362 83.3611 161.631C81.8445 162.129 80.5956 162.54 79.3974 162.934ZM95.2647 157.718C94.4435 157.99 93.5977 157.396 93.3755 156.393C93.1533 155.389 93.6389 154.356 94.4601 154.084C95.8429 153.627 97.1533 153.192 98.4209 152.77C99.2416 152.497 100.088 153.088 100.312 154.091C100.536 155.094 100.052 156.129 99.2311 156.402C97.9615 156.825 96.6493 157.26 95.2647 157.718ZM111.121 152.375C110.302 152.658 109.451 152.076 109.22 151.076C108.988 150.076 109.464 149.035 110.282 148.752C111.622 148.289 112.935 147.832 114.225 147.378C115.042 147.091 115.896 147.668 116.131 148.667C116.366 149.666 115.894 150.709 115.077 150.996C113.782 151.451 112.465 151.91 111.121 152.375ZM126.918 146.703C126.105 147.008 125.244 146.449 124.994 145.455C124.745 144.461 125.202 143.409 126.015 143.104C127.336 142.609 128.639 142.115 129.927 141.62C130.739 141.308 131.603 141.859 131.859 142.851C132.114 143.843 131.663 144.899 130.851 145.211C129.556 145.709 128.246 146.206 126.918 146.703ZM142.609 140.502C141.804 140.839 140.928 140.314 140.653 139.331C140.377 138.347 140.806 137.277 141.611 136.94C142.913 136.396 144.201 135.848 145.476 135.298C146.279 134.951 147.159 135.465 147.442 136.446C147.725 137.426 147.305 138.501 146.503 138.847C145.217 139.402 143.92 139.953 142.609 140.502ZM158.103 133.584C157.311 133.963 156.417 133.484 156.108 132.516C155.798 131.548 156.189 130.456 156.982 130.078C158.073 129.557 159.156 129.032 160.224 128.506C160.5 128.368 160.5 128.368 160.774 128.23C161.56 127.834 162.461 128.293 162.785 129.254C163.109 130.215 162.734 131.315 161.947 131.711C161.669 131.851 161.669 131.851 161.382 131.994C160.297 132.528 159.204 133.058 158.103 133.584ZM173.259 125.194C172.516 125.7 171.577 125.375 171.163 124.467C170.749 123.559 171.015 122.413 171.758 121.906C172.958 121.088 174.102 120.251 175.194 119.388C175.908 118.823 176.862 119.073 177.324 119.946C177.786 120.819 177.581 121.985 176.867 122.549C175.717 123.458 174.516 124.337 173.259 125.194ZM186.585 112.287C186.07 113.114 185.104 113.275 184.426 112.646C183.749 112.017 183.617 110.836 184.132 110.009C184.921 108.741 185.57 107.416 186.048 106.08C186.389 105.128 187.297 104.693 188.076 105.11C188.856 105.526 189.211 106.636 188.871 107.588C188.291 109.208 187.517 110.789 186.585 112.287ZM187.381 91.3128C187.845 92.1842 187.643 93.3502 186.93 93.9171C186.217 94.484 185.262 94.2372 184.798 93.3658C184.129 92.1083 183.331 90.9042 182.407 89.7448C181.814 89 181.827 87.8083 182.436 87.083C183.046 86.3578 184.021 86.3736 184.614 87.1184C185.674 88.4483 186.598 89.8427 187.381 91.3128ZM174.073 78.0692C174.826 78.5531 175.115 79.6913 174.719 80.6114C174.323 81.5314 173.392 81.885 172.639 81.4011C172.419 81.2599 172.196 81.1179 172 80.994C171.02 80.4118 170.032 79.8635 169.023 79.3422C168.239 78.9372 167.873 77.8327 168.204 76.8753C168.536 75.9178 169.44 75.4699 170.223 75.8749C171.281 76.4218 172.319 76.9973 173.379 77.6277C173.614 77.7758 173.845 77.9228 174.073 78.0692ZM158.241 71.1308C159.068 71.3718 159.579 72.3871 159.382 73.3983C159.185 74.4095 158.354 75.0339 157.526 74.7928C156.238 74.4173 154.922 74.0726 153.576 73.7565C152.74 73.5603 152.193 72.5736 152.354 71.5527C152.514 70.5318 153.322 69.8632 154.157 70.0594C155.547 70.3858 156.907 70.7422 158.241 71.1308ZM141.788 67.9852C142.635 68.08 143.259 68.996 143.182 70.0313C143.104 71.0665 142.355 71.829 141.508 71.7342C140.194 71.5874 138.845 71.4558 137.447 71.3371C136.598 71.2651 135.958 70.366 136.017 69.3289C136.076 68.2918 136.811 67.5095 137.66 67.5815C139.081 67.7021 140.452 67.8358 141.788 67.9852ZM125.239 66.8508C126.089 66.8868 126.755 67.7582 126.725 68.7972C126.696 69.8362 125.983 70.6492 125.132 70.6133C124.521 70.5874 123.892 70.5613 123.103 70.5288C122.452 70.5167 121.795 70.5067 121.132 70.4986C120.281 70.4883 119.598 69.6373 119.607 68.5977C119.615 67.5582 120.312 66.7238 121.162 66.7341C121.831 66.7422 122.493 66.7524 123.178 66.7654C123.996 66.7988 124.626 66.8249 125.239 66.8508ZM108.803 66.7884C109.653 66.7732 110.353 67.6036 110.365 68.6431C110.378 69.6825 109.698 70.5375 108.847 70.5527C107.533 70.5761 106.176 70.6047 104.748 70.6388C103.897 70.6591 103.195 69.833 103.178 68.7936C103.161 67.7542 103.837 66.8951 104.688 66.8748C106.121 66.8407 107.483 66.8119 108.803 66.7884ZM92.3601 67.2239C93.2106 67.1984 93.917 68.0202 93.9378 69.0594C93.9587 70.0987 93.2862 70.9619 92.4358 70.9874C90.8268 71.0357 89.5559 71.073 88.3271 71.1075C87.4766 71.1314 86.7713 70.3083 86.7518 69.269C86.7322 68.2296 87.4058 67.3677 88.2563 67.3438C89.4832 67.3094 90.7527 67.2722 92.3601 67.2239ZM75.9585 67.5992C76.8092 67.5902 77.5047 68.4257 77.512 69.4653C77.5193 70.5048 76.8356 71.3548 75.9849 71.3637C75.1241 71.3727 74.2782 71.3792 73.4503 71.383C72.9345 71.3877 72.4141 71.3946 71.8848 71.4035C71.0341 71.4178 70.335 70.5868 70.3233 69.5473C70.3116 68.5078 70.9916 67.6535 71.8423 67.6392C72.378 67.6302 72.9049 67.6232 73.4329 67.6184C74.2615 67.6146 75.1025 67.6081 75.9585 67.5992ZM59.5049 68.0289C60.3554 68.0033 61.0618 68.8249 61.0829 69.8642C61.1039 70.9034 60.4315 71.7668 59.581 71.7924C58.0724 71.838 56.735 71.8677 55.4499 71.882C54.5992 71.8915 53.9033 71.0565 53.8955 70.017C53.8877 68.9775 54.571 68.1271 55.4217 68.1175C56.6894 68.1034 58.0113 68.074 59.5049 68.0289ZM43.2358 67.6272C44.0836 67.714 44.7132 68.6243 44.6421 69.6602C44.571 70.6962 43.8261 71.4655 42.9784 71.3787C41.6004 71.2374 40.2223 71.0648 38.8343 70.8583C37.9898 70.7326 37.3886 69.7942 37.4914 68.7622C37.5942 67.7302 38.3622 66.9955 39.2066 67.1212C40.5562 67.322 41.896 67.4899 43.2358 67.6272ZM27.2401 64.5393C28.0695 64.7704 28.5886 65.7794 28.3995 66.793C28.2104 67.8066 27.3847 68.4409 26.5553 68.2098C25.2992 67.8599 24.0232 67.4817 22.7245 67.0742C22.6132 67.0391 22.6132 67.0391 22.5071 67.0049C21.6847 66.7387 21.1947 65.7082 21.4126 64.7033C21.6304 63.6984 22.4737 63.0996 23.296 63.3658C23.3906 63.3962 23.3906 63.3962 23.4908 63.4278C24.7625 63.8269 26.0114 64.197 27.2401 64.5393ZM12.8883 56.865C13.5513 57.5164 13.6567 58.7013 13.1236 59.5115C12.5906 60.3217 11.621 60.4504 10.958 59.7991C9.83453 58.6953 8.77272 57.5021 7.78365 56.2314C7.19732 55.4782 7.2217 54.2867 7.83809 53.5703C8.45449 52.8538 9.42949 52.8835 10.0158 53.6368C10.9104 54.786 11.8713 55.8659 12.8883 56.865ZM3.93619 41.3613C4.19761 42.3506 3.75325 43.4115 2.94369 43.731C2.13414 44.0504 1.26594 43.5074 1.00453 42.5181C0.552851 40.8088 0.221515 39.0711 0.0157948 37.318C-0.104963 36.2889 0.479803 35.3351 1.32191 35.1875C2.16401 35.04 2.94456 35.7545 3.06532 36.7836C3.24603 38.3236 3.53769 39.8532 3.93619 41.3613ZM4.34018 22.949C4.05654 23.9291 3.17643 24.4427 2.37439 24.0961C1.57234 23.7495 1.15209 22.674 1.43572 21.6939C1.90813 20.0615 2.47721 18.4507 3.13996 16.8585C3.52566 15.9319 4.45303 15.5629 5.21128 16.0342C5.96954 16.5055 6.27155 17.6388 5.88584 18.5654C5.28291 20.0138 4.76702 21.4741 4.34018 22.949ZM12.8612 6.73417C12.2818 7.49544 11.3072 7.53864 10.6842 6.83068C10.0612 6.12271 10.0259 4.93166 10.6052 4.1704C11.5323 2.95228 12.5148 1.73925 13.5567 0.521853C14.1715 -0.196598 15.1466 -0.169908 15.7345 0.581467C16.3225 1.33284 16.3006 2.52437 15.6857 3.24282C14.6861 4.41081 13.7458 5.57171 12.8612 6.73417Z" fill="#0E87FE"/>
</svg>
