<svg width="115" height="145" viewBox="0 0 115 145" fill="none" xmlns="http://www.w3.org/2000/svg">
<circle cx="62.5" cy="52.5" r="52.5" fill="#5207CD" fill-opacity="0.5"/>
<path fill-rule="evenodd" clip-rule="evenodd" d="M70.5034 119H70.4898C69.9123 119 69.4058 119.229 68.9841 119.558C68.9028 119.623 68.8012 119.66 68.7283 119.733C68.3235 120.14 68.0898 120.697 68.039 121.304C68.0339 121.372 68 121.431 68 121.501C68 121.81 68.0728 122.098 68.1762 122.37C68.21 122.458 68.2524 122.534 68.2947 122.617C68.3862 122.795 68.4963 122.96 68.6284 123.111C68.6927 123.186 68.7503 123.262 68.8232 123.328C69.023 123.51 69.2432 123.669 69.4939 123.779H69.4956C69.8056 123.917 70.1443 124 70.5034 124C71.6162 124 72.5257 123.26 72.8493 122.251C72.9356 122.02 72.9949 121.779 72.9966 121.514C72.9966 121.509 73 121.506 73 121.501C73 120.118 71.8821 119 70.5034 119ZM105.43 89.1883C105.188 89.0865 104.918 89.0475 104.642 89.0288C104.593 89.0271 104.554 89 104.503 89H104.49C103.111 89 102 90.1194 102 91.5017C102 91.8375 102.071 92.1547 102.191 92.443C102.276 92.6499 102.415 92.8161 102.545 92.9908C102.6 93.057 102.63 93.1384 102.688 93.1995C103.103 93.6404 103.675 93.9118 104.315 93.9627C104.319 93.9627 104.322 93.9644 104.326 93.9661V93.9644C104.387 93.9695 104.441 94 104.503 94C105.882 94 107 92.8806 107 91.5017C107 90.4501 106.348 89.558 105.43 89.1883ZM19.5034 45H19.4898C18.1111 45 17 46.1194 17 47.5C17 48.8789 18.1247 50 19.5034 50C20.8804 50 22 48.8789 22 47.5C22 46.1194 20.8804 45 19.5034 45ZM19.5034 104H19.4898C18.1111 104 17 105.118 17 106.501C17 107.88 18.1247 109 19.5034 109C20.8804 109 22 107.88 22 106.501C22 105.118 20.8804 104 19.5034 104ZM36.5034 65C37.8821 65 39 63.8789 39 62.5C39 61.1177 37.8821 60 36.5034 60H36.4915C35.1111 60 34 61.1177 34 62.5C34 63.8789 35.1247 65 36.5034 65ZM19.5034 30H19.4898C18.1111 30 17 31.1194 17 32.5C17 33.8806 18.1247 35 19.5034 35C20.8804 35 22 33.8806 22 32.5C22 31.1194 20.8804 30 19.5034 30ZM19.5034 74H19.4898C18.1111 74 17 75.1194 17 76.5C17 77.8806 18.1247 79 19.5034 79C20.8804 79 22 77.8806 22 76.5C22 75.1194 20.8804 74 19.5034 74ZM19.5034 89H19.4898C18.1111 89 17 90.1194 17 91.5017C17 92.8806 18.1247 94 19.5034 94C20.8804 94 22 92.8806 22 91.5017C22 90.1194 20.8804 89 19.5034 89ZM36.5034 35C37.8821 35 39 33.8806 39 32.5C39 31.1194 37.8821 30 36.5034 30H36.4915C35.1111 30 34 31.1194 34 32.5C34 33.8806 35.1247 35 36.5034 35ZM36.5034 50C37.8821 50 39 48.8789 39 47.5C39 46.1194 37.8821 45 36.5034 45H36.4915C35.1111 45 34 46.1194 34 47.5C34 48.8789 35.1247 50 36.5034 50ZM36.5034 20C37.8821 20 39 18.8806 39 17.5C39 16.1194 37.8821 15 36.5034 15H36.4915C35.1111 15 34 16.1194 34 17.5C34 18.8806 35.1247 20 36.5034 20ZM19.5034 60H19.4898C18.1111 60 17 61.1177 17 62.5C17 63.8789 18.1247 65 19.5034 65C20.8804 65 22 63.8789 22 62.5C22 61.1177 20.8804 60 19.5034 60ZM2.50508 74H2.48984C1.11111 74 0 75.1194 0 76.5C0 77.8806 1.12636 79 2.50508 79C3.88381 79 5 77.8806 5 76.5C5 75.1194 3.88381 74 2.50508 74ZM2.50508 60H2.48984C1.11111 60 0 61.1177 0 62.5C0 63.8789 1.12636 65 2.50508 65C3.88381 65 5 63.8789 5 62.5C5 61.1177 3.88381 60 2.50508 60ZM2.50424 89H2.48899C2.17553 89 1.88241 89.0712 1.60962 89.1798C1.47069 89.2324 1.35547 89.3172 1.23009 89.3935C1.12504 89.4596 1.0183 89.519 0.923416 89.6021C0.759065 89.7361 0.630295 89.8921 0.504914 90.0651C0.481193 90.1007 0.457472 90.133 0.433751 90.172C0.298204 90.3823 0.198238 90.6028 0.130464 90.8504L0.12877 90.8521V90.8538C0.0711623 91.0641 0 91.271 0 91.5017C0 92.4854 0.584548 93.3182 1.41308 93.7252V93.7269H1.41477C1.74517 93.8881 2.10098 93.9949 2.49068 93.9966C2.49576 93.9966 2.49915 94 2.50424 94C3.88343 94 5 92.8806 5 91.5017C5 91.1557 4.93053 90.8267 4.80346 90.5282C4.42562 89.6309 3.53778 89 2.50424 89ZM87.5034 60H87.4898C86.1111 60 85 61.1177 85 62.5C85 63.8789 86.1247 65 87.5034 65C88.8821 65 90 63.8789 90 62.5C90 61.1177 88.8821 60 87.5034 60ZM2.50424 45H2.48899C2.20434 45 1.94171 45.0628 1.69434 45.1611C1.46899 45.2391 1.27245 45.3562 1.08268 45.4919C1.08099 45.4919 1.08099 45.4919 1.0793 45.4936C0.440529 45.9464 0 46.6554 0 47.5C0 47.6069 0.0474415 47.6967 0.0609963 47.8019H0.0593019C0.0593019 47.8053 0.0609963 47.807 0.0626906 47.8087C0.14063 48.4176 0.413419 48.9552 0.848865 49.3453C0.908167 49.3996 0.982718 49.4301 1.04541 49.4776C1.21654 49.6031 1.38089 49.7337 1.58251 49.8134C1.86547 49.9305 2.17384 50 2.50424 50C3.53778 50 4.42562 49.3708 4.80346 48.4718C4.93053 48.1733 5 47.8443 5 47.5C5 47.1557 4.93053 46.8267 4.80346 46.5282C4.42562 45.6292 3.53778 45 2.50424 45ZM87.5034 74H87.4898C86.1111 74 85 75.1194 85 76.5C85 77.8806 86.1247 79 87.5034 79C88.8821 79 90 77.8806 90 76.5C90 75.1194 88.8821 74 87.5034 74ZM87.5034 45H87.4898C86.1111 45 85 46.1194 85 47.5C85 48.8789 86.1247 50 87.5034 50C88.8821 50 90 48.8789 90 47.5C90 46.1194 88.8821 45 87.5034 45ZM87.5034 104H87.4898C86.1111 104 85 105.118 85 106.501C85 107.88 86.1247 109 87.5034 109C88.8821 109 90 107.88 90 106.501C90 105.118 88.8821 104 87.5034 104ZM87.5034 89H87.4898C86.1111 89 85 90.1194 85 91.5017C85 92.8806 86.1247 94 87.5034 94C88.8821 94 90 92.8806 90 91.5017C90 90.1194 88.8821 89 87.5034 89ZM70.5042 20C71.8825 20 73 18.8806 73 17.5C73 17.5 72.9983 17.4983 72.9983 17.4966C72.9983 17.0912 72.8798 16.7232 72.7071 16.384C72.6901 16.3518 72.6681 16.328 72.6495 16.2975C72.4683 15.9769 72.2211 15.7107 71.9214 15.4969H71.9197C71.5117 15.2069 71.041 15 70.5042 15H70.4907C69.1124 15 68 16.1194 68 17.5C68 18.8806 69.126 20 70.5042 20ZM87.5034 30H87.4898C86.1111 30 85 31.1194 85 32.5C85 33.8806 86.1247 35 87.5034 35C88.8821 35 90 33.8806 90 32.5C90 31.1194 88.8821 30 87.5034 30ZM70.5034 45H70.4898C69.1111 45 68 46.1194 68 47.5C68 48.8789 69.1247 50 70.5034 50C71.8821 50 73 48.8789 73 47.5C73 46.1194 71.8821 45 70.5034 45ZM70.5034 89H70.4898C69.1111 89 68 90.1194 68 91.5017C68 92.8806 69.1247 94 70.5034 94C71.8821 94 73 92.8806 73 91.5017C73 90.1194 71.8821 89 70.5034 89ZM70.5034 74H70.4898C69.1111 74 68 75.1194 68 76.5C68 77.8806 69.1247 79 70.5034 79C71.8821 79 73 77.8806 73 76.5C73 75.1194 71.8821 74 70.5034 74ZM70.5034 60H70.4898C69.1111 60 68 61.1177 68 62.5C68 63.8789 69.1247 65 70.5034 65C71.8821 65 73 63.8789 73 62.5C73 61.1177 71.8821 60 70.5034 60ZM70.5034 104H70.4898C69.1111 104 68 105.118 68 106.501C68 107.88 69.1247 109 70.5034 109C71.8821 109 73 107.88 73 106.501C73 105.118 71.8821 104 70.5034 104ZM36.5034 79C37.8821 79 39 77.8806 39 76.5C39 75.1194 37.8821 74 36.5034 74H36.4915C35.1111 74 34 75.1194 34 76.5C34 77.8806 35.1247 79 36.5034 79ZM38.2683 119.733C38.1938 119.658 38.0921 119.621 38.0091 119.558C37.5874 119.229 37.081 119 36.5034 119H36.4898C35.1111 119 34 120.118 34 121.501C34 122.18 34.2761 122.79 34.7165 123.242C34.7182 123.243 34.7182 123.245 34.7199 123.245C35.1738 123.71 35.8039 124 36.5034 124C36.6355 124 36.749 123.946 36.876 123.925C36.8777 123.925 36.8794 123.924 36.8811 123.924C37.4705 123.832 37.9854 123.561 38.3598 123.131C38.4207 123.065 38.4563 122.984 38.5088 122.911C38.6223 122.75 38.7425 122.597 38.8171 122.412C38.9289 122.135 38.9949 121.833 38.9966 121.511C38.9966 121.508 39 121.506 39 121.501C39 120.866 38.7442 120.303 38.3564 119.862C38.3208 119.821 38.3056 119.769 38.2683 119.733ZM103.53 49.8033C103.83 49.9305 104.159 50 104.504 50C104.869 50 105.209 49.9135 105.521 49.7728C105.531 49.7677 105.538 49.7592 105.548 49.7542C105.853 49.6117 106.116 49.4117 106.338 49.1641C106.741 48.7216 107 48.1451 107 47.5008C107 46.1207 105.882 45 104.504 45H104.491C103.111 45 102 46.1207 102 47.5008C102 48.5351 102.632 49.4235 103.53 49.8033ZM104.504 65C105.882 65 107 63.8789 107 62.5C107 61.1177 105.882 60 104.504 60H104.491C103.111 60 102 61.1177 102 62.5C102 63.8789 103.123 65 104.504 65ZM104.504 79C105.882 79 107 77.8806 107 76.5C107 75.1194 105.882 74 104.504 74H104.491C103.111 74 102 75.1194 102 76.5C102 77.8806 103.123 79 104.504 79ZM53.5034 45H53.4915C52.1128 45 51 46.1194 51 47.5C51 48.8789 52.1247 50 53.5034 50C54.8821 50 56 48.8789 56 47.5C56 46.1194 54.8821 45 53.5034 45ZM53.5034 30H53.4915C52.1128 30 51 31.1194 51 32.5C51 33.8806 52.1247 35 53.5034 35C54.8821 35 56 33.8806 56 32.5C56 31.1194 54.8821 30 53.5034 30ZM53.5034 15H53.4915C52.1128 15 51 16.1194 51 17.5C51 18.8806 52.1247 20 53.5034 20C54.8821 20 56 18.8806 56 17.5C56 16.1194 54.8821 15 53.5034 15ZM36.5034 109C37.8821 109 39 107.88 39 106.501C39 105.118 37.8821 104 36.5034 104H36.4915C35.1111 104 34 105.118 34 106.501C34 107.88 35.1247 109 36.5034 109ZM36.5034 94C37.8821 94 39 92.8806 39 91.5017C39 90.1194 37.8821 89 36.5034 89H36.4915C35.1111 89 34 90.1194 34 91.5017C34 92.8806 35.1247 94 36.5034 94ZM53.5034 60H53.4915C52.1128 60 51 61.1177 51 62.5C51 63.8789 52.1247 65 53.5034 65C54.8821 65 56 63.8789 56 62.5C56 61.1177 54.8821 60 53.5034 60ZM70.5034 30H70.4898C69.1111 30 68 31.1194 68 32.5C68 33.8806 69.1247 35 70.5034 35C71.8821 35 73 33.8806 73 32.5C73 31.1194 71.8821 30 70.5034 30ZM53.5034 104H53.4915C52.1128 104 51 105.118 51 106.501C51 107.88 52.1247 109 53.5034 109C54.8821 109 56 107.88 56 106.501C56 105.118 54.8821 104 53.5034 104ZM53.5034 119H53.4915C52.1128 119 51 120.12 51 121.501C51 122.882 52.1247 124 53.5034 124C54.8821 124 56 122.882 56 121.501C56 120.12 54.8821 119 53.5034 119ZM53.5034 89H53.4915C52.1128 89 51 90.1194 51 91.5017C51 92.8806 52.1247 94 53.5034 94C54.8821 94 56 92.8806 56 91.5017C56 90.1194 54.8821 89 53.5034 89ZM53.5034 74H53.4915C52.1128 74 51 75.1194 51 76.5C51 77.8806 52.1247 79 53.5034 79C54.8821 79 56 77.8806 56 76.5C56 75.1194 54.8821 74 53.5034 74Z" fill="white"/>
<circle cx="73.5" cy="134.5" r="10.5" fill="#5207CD" fill-opacity="0.5"/>
</svg>
