<svg width="120" height="120" viewBox="0 0 120 120" fill="none" xmlns="http://www.w3.org/2000/svg">
<path d="M86.1537 75.4609H103.496V62.0833H86.1537V75.4609Z" fill="#EBEBEB"/>
<path d="M87.392 74.2922H89.4824V71.9306H87.392V74.2922Z" fill="white"/>
<path d="M98.2057 62.1169H96.2354V64.9705H98.2057V62.1169Z" fill="#FAFAFA"/>
<path d="M98.2057 72.5664H96.2354V75.42H98.2057V72.5664Z" fill="#FAFAFA"/>
<path d="M90.481 75.5521C90.4498 75.5521 90.4258 72.6097 90.4258 68.9809C90.4258 65.3521 90.4498 62.4097 90.481 62.4097C90.5122 62.4097 90.5362 65.3521 90.5362 68.9809C90.5362 72.6097 90.5122 75.5521 90.481 75.5521Z" fill="#E0E0E0"/>
<path d="M79.0807 98.4961H109.004V75.4153H79.0807V98.4961Z" fill="#EBEBEB"/>
<path d="M81.2194 96.4827H84.8242V92.4075H81.2194V96.4827Z" fill="white"/>
<path d="M99.874 75.4753H96.4756V80.4001H99.874V75.4753Z" fill="#FAFAFA"/>
<path d="M99.874 93.5017H96.4756V98.4265H99.874V93.5017Z" fill="#FAFAFA"/>
<path d="M86.5491 98.6545C86.4963 98.6545 86.4531 93.5785 86.4531 87.3169C86.4531 81.0553 86.4963 75.9792 86.5491 75.9792C86.6019 75.9792 86.6427 81.0553 86.6427 87.3169C86.6427 93.5785 86.6019 98.6545 86.5491 98.6545Z" fill="#E0E0E0"/>
<path d="M108.053 27.4106L109.656 30.6578L113.239 31.1786L110.647 33.7082L111.259 37.277L108.053 35.5922L104.846 37.277L105.458 33.7082L102.866 31.1786L106.449 30.6578L108.053 27.4106Z" fill="#EBEBEB"/>
<path d="M12.6028 69.353L13.6132 71.4002L15.8716 71.7266L14.2372 73.3202L14.6236 75.5714L12.6028 74.5082L10.582 75.5714L10.9684 73.3202L9.33398 71.7266L11.5924 71.4002L12.6028 69.353Z" fill="#EBEBEB"/>
<path d="M13.8557 51.5186L16.0997 56.0642L21.1157 56.7938L17.4869 60.3314L18.3437 65.3282L13.8557 62.969L9.3701 65.3282L10.2269 60.3314L6.5957 56.7938L11.6117 56.0642L13.8557 51.5186Z" fill="#EBEBEB"/>
<path d="M106.626 42.0769L107.593 44.0377L109.755 44.3521L108.19 45.8761L108.56 48.0289L106.626 47.0137L104.691 48.0289L105.061 45.8761L103.496 44.3521L105.658 44.0377L106.626 42.0769Z" fill="#EBEBEB"/>
<path d="M74.8933 10.3369L75.8605 12.2953L78.0229 12.6097L76.4581 14.1361L76.8277 16.2889L74.8933 15.2713L72.9589 16.2889L73.3285 14.1361L71.7637 12.6097L73.9261 12.2953L74.8933 10.3369Z" fill="#EBEBEB"/>
<path d="M97.013 31.2986L97.6466 32.5802L99.0626 32.7866L98.0378 33.785L98.2802 35.1938L97.013 34.529L95.7482 35.1938L95.9906 33.785L94.9658 32.7866L96.3818 32.5802L97.013 31.2986Z" fill="#EBEBEB"/>
<path d="M38.6216 96.0266L39.8552 98.5226L42.6104 98.9234L40.616 100.867L41.0888 103.613L38.6216 102.317L36.1568 103.613L36.6272 100.867L34.6328 98.9234L37.3904 98.5226L38.6216 96.0266Z" fill="#EBEBEB"/>
<path d="M41.8754 93.5425L42.3842 94.5745L43.5242 94.7401L42.6986 95.5441L42.893 96.6793L41.8754 96.1417L40.8578 96.6793L41.0522 95.5441L40.2266 94.7401L41.3666 94.5745L41.8754 93.5425Z" fill="#EBEBEB"/>
<path d="M87.3902 83.981L88.475 86.177L90.899 86.5298L89.1446 88.2386L89.5598 90.653L87.3902 89.513L85.223 90.653L85.6382 88.2386L83.8838 86.5298L86.3078 86.177L87.3902 83.981Z" fill="#ED9FF4"/>
<path d="M92.5628 82.0344L93.074 83.0688L94.214 83.2344L93.3884 84.0408L93.5828 85.1784L92.5628 84.6408L91.5404 85.1784L91.7372 84.0408L90.9092 83.2344L92.0516 83.0688L92.5628 82.0344Z" fill="#ED9FF4"/>
<path d="M85.7851 24.8784L86.6395 22.224C85.8253 20.5842 85.578 18.7206 85.9365 16.9252C86.2949 15.1297 87.2388 13.5039 88.6203 12.3025C90.0017 11.101 91.7428 10.3918 93.5705 10.2858C95.3983 10.1799 97.2096 10.6833 98.7206 11.7171C100.232 12.7509 101.357 14.2568 101.92 15.9988C102.484 17.7408 102.454 19.6205 101.834 21.3434C101.215 23.0663 100.042 24.535 98.4979 25.5196C96.9543 26.5041 95.1277 26.9488 93.3043 26.784C91.5252 26.6628 89.8416 25.9341 88.5355 24.72L85.7851 24.8784Z" fill="#FAFAFA"/>
<path d="M85.7849 24.8784L85.9673 24.864L86.4977 24.8256L88.5353 24.6864C89.5453 25.6205 90.7893 26.264 92.1353 26.5488C92.5508 26.6411 92.9729 26.7013 93.3977 26.7288L94.0697 26.7552C94.2953 26.7552 94.5281 26.7288 94.7609 26.7168C96.8662 26.5257 98.8172 25.5313 100.209 23.94C100.993 23.056 101.575 22.0118 101.915 20.88C102.263 19.6705 102.334 18.3981 102.122 17.1576C102.069 16.8387 101.995 16.5236 101.901 16.2144C101.858 16.0578 101.806 15.9039 101.745 15.7536C101.685 15.6 101.632 15.4464 101.567 15.2952C101.3 14.6848 100.962 14.108 100.559 13.5768C100.359 13.312 100.142 13.0603 99.9089 12.8232C99.796 12.7023 99.6757 12.5885 99.5489 12.4824C99.4265 12.3744 99.3089 12.2568 99.1793 12.1584L98.7857 11.8656L98.5889 11.7216L98.3777 11.5968L97.9625 11.3568C97.8209 11.2776 97.6721 11.2176 97.5281 11.1456C96.425 10.6236 95.2189 10.3556 93.9986 10.3614C92.7783 10.3672 91.5749 10.6467 90.4769 11.1792C88.5742 12.0929 87.0967 13.7045 86.3513 15.6792C86.3105 15.7896 86.2721 15.9 86.2337 16.008C86.1902 16.1145 86.1557 16.2245 86.1305 16.3368C86.0753 16.5576 86.0225 16.776 85.9697 16.9896C85.8968 17.4081 85.8471 17.8304 85.8209 18.2544C85.7671 19.626 86.0558 20.9894 86.6609 22.2216L86.0177 24.1848L85.8473 24.6936C85.8089 24.8088 85.7873 24.8688 85.7873 24.8688C85.7873 24.8688 85.8017 24.8136 85.8377 24.7008L85.9913 24.1968L86.6081 22.2072V22.2264C85.9869 20.992 85.6865 19.621 85.7345 18.24C85.757 17.8112 85.8043 17.3841 85.8761 16.9608C85.9289 16.7448 85.9841 16.524 86.0369 16.3008C86.0624 16.1873 86.0961 16.0758 86.1377 15.9672C86.1785 15.8568 86.2169 15.7464 86.2577 15.6336C86.6585 14.557 87.2785 13.5753 88.0783 12.7507C88.8782 11.9261 89.8406 11.2765 90.9045 10.8432C91.9685 10.4098 93.1108 10.202 94.2592 10.233C95.4076 10.264 96.537 10.5331 97.5761 11.0232C97.7225 11.0928 97.8737 11.1552 98.0177 11.2368L98.4401 11.4888L98.6513 11.616L98.8529 11.7624L99.2513 12.0576C99.3833 12.1608 99.5033 12.2784 99.6281 12.3864C99.756 12.4947 99.8778 12.6101 99.9929 12.732C100.229 12.9739 100.449 13.2304 100.653 13.5C101.063 14.0342 101.409 14.6151 101.682 15.2304C101.747 15.384 101.8 15.5424 101.86 15.696C101.924 15.8524 101.977 16.0128 102.021 16.176C102.116 16.4907 102.19 16.8114 102.242 17.136C102.458 18.3949 102.386 19.6867 102.03 20.9136C101.69 22.0669 101.101 23.1318 100.305 24.0336C98.892 25.64 96.9157 26.6419 94.7849 26.832C94.5449 26.832 94.3049 26.8656 94.0841 26.8656L93.4049 26.8368C92.9759 26.8068 92.5499 26.7442 92.1305 26.6496C90.7794 26.3537 89.5347 25.6949 88.5305 24.744H88.5497L86.4929 24.852L85.9697 24.876C85.8425 24.8784 85.7849 24.8784 85.7849 24.8784Z" fill="#263238"/>
<path d="M89.3535 18.2401L90.7143 17.0593L93.0063 19.4137L98.1471 15.1321L99.2343 16.4881L92.6487 21.8497L89.3535 18.2401Z" fill="#ED9FF4"/>
<path d="M71.5464 83.8775L25.524 94.1351C25.2577 94.196 24.9819 94.2036 24.7126 94.1574C24.4432 94.1112 24.1857 94.0123 23.9548 93.8661C23.7239 93.72 23.5242 93.5296 23.3672 93.306C23.2102 93.0824 23.099 92.8299 23.04 92.5631L8.11444 25.5431C8.05498 25.2775 8.0485 25.0028 8.09536 24.7348C8.14222 24.4667 8.24151 24.2105 8.38754 23.9809C8.53356 23.7513 8.72346 23.5527 8.94635 23.3966C9.16924 23.2405 9.42074 23.1298 9.68644 23.0711L55.7088 12.8135C55.9745 12.754 56.2494 12.7475 56.5176 12.7943C56.7858 12.8411 57.0422 12.9404 57.272 13.0864C57.5018 13.2324 57.7006 13.4223 57.857 13.6452C58.0133 13.8681 58.1242 14.1197 58.1832 14.3855L73.1184 81.4055C73.1779 81.671 73.1844 81.9457 73.1375 82.2137C73.0907 82.4818 72.9914 82.738 72.8453 82.9676C72.6993 83.1973 72.5094 83.3958 72.2865 83.5519C72.0637 83.7081 71.8121 83.8187 71.5464 83.8775Z" fill="#E0E0E0"/>
<path d="M71.5465 83.8776L71.7001 83.8344C71.8493 83.7858 71.9932 83.7223 72.1297 83.6448C72.3535 83.5132 72.5512 83.3415 72.7129 83.1384C72.9332 82.8599 73.0779 82.5292 73.1329 82.1784C73.1676 81.9662 73.1676 81.7498 73.1329 81.5376C73.0945 81.3144 73.0345 81.0792 72.9817 80.8344C72.8713 80.3544 72.7417 79.8072 72.6217 79.2264C72.3609 78.0632 72.0609 76.7248 71.7217 75.2112C70.3705 69.1704 68.4169 60.4296 66.0025 49.6272C64.8025 44.2272 63.4777 38.3112 62.0593 31.9584C61.3521 28.784 60.6201 25.504 59.8633 22.1184C59.4873 20.4256 59.1049 18.7096 58.7161 16.9704C58.5193 16.1016 58.3249 15.2256 58.1257 14.3448C58.0175 13.9057 57.7648 13.5158 57.4083 13.2377C57.0519 12.9596 56.6122 12.8093 56.1601 12.8112C55.9346 12.8162 55.7106 12.8484 55.4929 12.9072L54.8209 13.056L53.4697 13.3584L50.7433 13.9656L45.1945 15.204L33.7609 17.76L9.70326 23.1168C9.19473 23.2295 8.74916 23.5337 8.4591 23.9664C8.16905 24.399 8.05679 24.9267 8.14566 25.44C8.36406 26.46 8.59926 27.4824 8.82246 28.5C9.27686 30.532 9.72726 32.552 10.1737 34.56L12.8137 46.4184C14.5465 54.192 16.2169 61.68 17.8081 68.832C19.3993 75.984 20.9089 82.752 22.3249 89.1144C22.5009 89.9144 22.6761 90.7016 22.8505 91.476C22.9393 91.8648 23.0185 92.2584 23.1121 92.64C23.2129 93.0158 23.4195 93.3549 23.7073 93.6168C23.9932 93.8749 24.3457 94.0478 24.7249 94.116C24.9129 94.1466 25.1041 94.1523 25.2937 94.1328C25.4809 94.1088 25.6705 94.0632 25.8577 94.02L28.0921 93.5232L36.5713 91.6368L62.1601 85.9512L69.1201 84.4104L70.9297 84.012L71.5465 83.8776L70.9321 84.0216L69.1225 84.4296L62.1625 85.9872L36.5785 91.7064L28.1089 93.6L25.8745 94.0992C25.6873 94.14 25.5001 94.188 25.3033 94.2144C25.1065 94.2344 24.9079 94.228 24.7129 94.1952C24.3158 94.1262 23.9467 93.9453 23.6491 93.6735C23.3514 93.4018 23.1376 93.0507 23.0329 92.6616C22.9369 92.2752 22.8577 91.8864 22.7689 91.4976C22.5945 90.7184 22.4185 89.9312 22.2409 89.136C20.8249 82.7832 19.3105 75.996 17.7169 68.8536C16.1233 61.7112 14.4529 54.2136 12.7177 46.44L10.0777 34.584C9.63126 32.5776 9.18086 30.556 8.72646 28.5192C8.50086 27.5016 8.26806 26.484 8.04726 25.4544C7.95487 24.9167 8.07313 24.3641 8.37749 23.9114C8.68185 23.4587 9.14891 23.1406 9.68166 23.0232L33.7417 17.6592L45.1825 15.12L50.7289 13.884L53.4553 13.2768L54.8089 12.96L55.4809 12.8112C55.7028 12.7536 55.9308 12.723 56.1601 12.72C56.6285 12.7211 57.0833 12.878 57.4526 13.1661C57.822 13.4542 58.085 13.8571 58.2001 14.3112C58.3969 15.1944 58.5937 16.068 58.7881 16.9392C59.1801 18.68 59.5657 20.3936 59.9449 22.08C60.6953 25.464 61.4257 28.744 62.1361 31.92C63.5497 38.2728 64.8649 44.1888 66.0673 49.5912C68.4673 60.3912 70.4113 69.1392 71.7553 75.1824C72.0889 76.692 72.3865 78.036 72.6457 79.1976C72.7729 79.7808 72.8857 80.316 73.0009 80.808C73.0537 81.048 73.1137 81.288 73.1497 81.5112C73.1856 81.7257 73.1856 81.9447 73.1497 82.1592C73.0949 82.5165 72.9477 82.8532 72.7225 83.136C72.5586 83.3389 72.3594 83.5105 72.1345 83.6424C71.9962 83.7201 71.8497 83.7821 71.6977 83.8272L71.5465 83.8776Z" fill="#263238"/>
<g opacity="0.3">
<path d="M27.8576 91.7616L69.7904 82.176L68.4656 73.9584L66.0872 69.3528L25.9736 85.1088L27.8576 91.7616Z" fill="black"/>
</g>
<g opacity="0.3">
<path d="M45.3652 15.2712L46.9516 17.8896L47.2588 19.2792L46.1836 19.5192L45.3652 15.2712Z" fill="black"/>
</g>
<path d="M10.5029 25.9321L25.0517 91.2121L70.6541 81.0505L68.0525 69.3769L56.1053 15.7681L10.5029 25.9321Z" fill="white"/>
<path d="M10.5034 25.9319L56.1034 15.7295H56.1418V15.7703C60.1882 33.9119 65.2354 56.5511 70.6978 81.0503V81.1007H70.6498L25.0498 91.2599H25.0066V91.2143C16.441 52.6655 10.5898 26.3231 10.501 25.9343C10.5898 26.3327 16.4794 52.6679 25.0954 91.2143L25.0402 91.1807L70.6402 81.0119L70.6018 81.0719C65.1466 56.5775 60.1042 33.9383 56.065 15.7919L56.113 15.8231L10.5034 25.9319Z" fill="#263238"/>
<path d="M23.344 18.1644L43.4549 13.6839C43.8482 13.5962 44.2602 13.6684 44.6002 13.8846C44.9402 14.1007 45.1805 14.4431 45.2681 14.8363L46.4299 20.0509L23.3486 25.1932L22.1879 19.9834C22.1437 19.788 22.1386 19.5858 22.1728 19.3885C22.2071 19.1911 22.2801 19.0025 22.3875 18.8334C22.495 18.6643 22.6348 18.5182 22.7989 18.4034C22.9631 18.2886 23.1483 18.2074 23.344 18.1644Z" fill="#263238"/>
<path d="M35.7771 12.7561L29.9043 14.0641L31.7115 18.9457L36.1347 17.9593L35.7771 12.7561Z" fill="#263238"/>
<path d="M43.4553 13.68C43.4553 13.7064 38.9649 14.7312 33.4137 15.9696C27.8625 17.208 23.3529 18.1944 23.3457 18.168C23.3385 18.1416 27.8361 17.1168 33.3921 15.8784C38.9481 14.64 43.4409 13.6608 43.4553 13.68Z" fill="#455A64"/>
<path d="M23.6312 24.0001C23.6048 24.0001 23.372 23.0641 23.1128 21.8977C22.8536 20.7313 22.6616 19.7785 22.6904 19.7713C22.7192 19.7641 22.9496 20.7073 23.2088 21.8761C23.468 23.0449 23.6576 24.0001 23.6312 24.0001Z" fill="#455A64"/>
<path d="M45.3289 18.6337C45.1361 18.0024 44.9759 17.3615 44.8489 16.7137C44.6901 16.0805 44.5635 15.4397 44.4697 14.7937C44.6622 15.4211 44.8224 16.0579 44.9497 16.7017C45.109 17.3388 45.2355 17.9837 45.3289 18.6337Z" fill="#455A64"/>
<path d="M44.4154 19.7737C44.4154 19.8001 39.805 20.8513 34.1074 22.1209C28.4098 23.3905 23.7874 24.4009 23.7754 24.3721C23.7634 24.3433 28.3834 23.2945 34.0954 22.0249C39.8074 20.7553 44.401 19.7473 44.4154 19.7737Z" fill="#455A64"/>
<path d="M32.2689 38.7625C32.2689 38.7913 29.1609 39.5065 25.3089 40.3657C21.4569 41.2249 18.3489 41.8945 18.3321 41.8681C18.3153 41.8417 21.4521 41.1241 25.2921 40.2673C29.1321 39.4105 32.2617 38.7361 32.2689 38.7625Z" fill="#263238"/>
<path d="M55.4791 36.1487C55.4791 36.1775 47.3503 38.0135 37.3111 40.2503C27.2719 42.4871 19.1239 44.2799 19.1191 44.2535C19.1143 44.2271 27.2455 42.3887 37.2895 40.1519C47.3335 37.9151 55.4743 36.1223 55.4791 36.1487Z" fill="#263238"/>
<path d="M55.9806 38.3999C55.9806 38.4263 47.8494 40.2623 37.8102 42.5015C27.771 44.7407 19.6254 46.5311 19.6182 46.5023C19.611 46.4735 27.747 44.6399 37.7886 42.4031C47.8302 40.1663 55.9734 38.3663 55.9806 38.3999Z" fill="#263238"/>
<path d="M56.4796 40.6368C56.4796 40.6632 48.3508 42.4992 38.3116 44.736C28.2724 46.9728 20.1244 48.768 20.1172 48.7392C20.11 48.7104 28.246 46.8768 38.29 44.6376C48.334 42.3984 56.4724 40.6104 56.4796 40.6368Z" fill="#263238"/>
<path d="M56.9791 42.8807C56.9791 42.9071 48.8503 44.7431 38.8111 46.9799C28.7719 49.2167 20.6239 51.0095 20.6191 50.9831C20.6143 50.9567 28.7455 49.1207 38.7895 46.8815C48.8335 44.6423 56.9743 42.8519 56.9791 42.8807Z" fill="#263238"/>
<path d="M57.4801 45.1199C57.4801 45.1487 49.3489 46.9847 39.3097 49.2215C29.2705 51.4583 21.1201 53.2535 21.1201 53.2271C21.1201 53.2007 29.2489 51.3647 39.2905 49.1255C49.3321 46.8863 57.4729 45.0959 57.4801 45.1199Z" fill="#263238"/>
<path d="M28.1697 60.9144C28.16 60.8904 28.1527 60.8655 28.1481 60.84L28.0953 60.6264C28.0497 60.432 27.9849 60.1608 27.9057 59.8224C27.7449 59.1288 27.5193 58.1544 27.2505 56.988L27.3033 57.0216L23.3673 57.9048C23.3673 57.9048 23.4393 57.792 23.4057 57.8448V57.8616V57.8952L23.4201 57.9624L23.4513 58.0968L23.5089 58.3632C23.5497 58.5408 23.5881 58.716 23.6265 58.8912C23.7033 59.2368 23.7801 59.5776 23.8521 59.9088C23.9985 60.5688 24.1353 61.1928 24.2625 61.7664L24.2097 61.7328L27.0537 61.1208L27.8625 60.9528L28.0785 60.912L28.1553 60.8976C28.1553 60.8976 28.1361 60.8976 28.0881 60.9192L27.8841 60.9696L27.0921 61.1568L24.2409 61.836H24.1977V61.7928L23.7801 59.9376C23.7057 59.6064 23.6289 59.2656 23.5401 58.92C23.5017 58.7448 23.4609 58.5696 23.4225 58.392C23.4009 58.3056 23.3817 58.2144 23.3625 58.1256L23.3313 57.9912L23.3169 57.924V57.8904V57.8736V57.8616C23.2833 57.9168 23.3625 57.7896 23.3553 57.8016L27.2937 56.9304H27.3369V56.9736L27.9561 59.8536C28.0257 60.1896 28.0809 60.4584 28.1217 60.6504C28.1385 60.7368 28.1505 60.804 28.1625 60.8592C28.1673 60.8772 28.1698 60.8958 28.1697 60.9144Z" fill="#263238"/>
<path d="M57.4254 51.2113L29.9658 57.3291L30.4762 59.6201L57.9358 53.5023L57.4254 51.2113Z" fill="#E0E0E0"/>
<path d="M29.691 67.7448C29.6819 67.7198 29.6747 67.6941 29.6694 67.668C29.655 67.6128 29.6382 67.5408 29.6166 67.4544C29.571 67.26 29.5062 66.9912 29.427 66.6528C29.2662 65.9568 29.0406 64.9728 28.7718 63.816L28.8246 63.8496L24.8886 64.7328C24.8886 64.7472 24.9606 64.62 24.927 64.6752V64.6872V64.704V64.7376L24.9414 64.8048L24.9726 64.9392C24.9918 65.0304 25.011 65.1192 25.0326 65.208L25.1478 65.7336C25.2246 66.0816 25.3014 66.42 25.3734 66.7512C25.5198 67.4112 25.6566 68.0352 25.7838 68.6088L25.731 68.5752L28.5774 67.9656L29.3838 67.7976L29.5998 67.7544C29.6248 67.7474 29.6506 67.7434 29.6766 67.7424L29.6118 67.7616L29.4054 67.812L28.6134 68.0016L25.7502 68.6616H25.707V68.6184L25.2894 66.7632C25.215 66.432 25.1382 66.0912 25.0494 65.7456C25.011 65.5728 24.9702 65.3952 24.9318 65.22C24.9126 65.1312 24.891 65.0424 24.8718 64.9512L24.8406 64.8168L24.8262 64.7496V64.716V64.6872L24.8646 64.6248L28.8006 63.7656H28.8438V63.8064C29.0982 64.9896 29.3238 65.9664 29.463 66.6864C29.5326 67.0224 29.5878 67.2912 29.6286 67.4832C29.6454 67.5696 29.6574 67.6368 29.6694 67.692C29.6788 67.7086 29.6861 67.7264 29.691 67.7448Z" fill="#263238"/>
<path d="M58.9459 58.0416L31.4863 64.1594L31.9968 66.4505L59.4563 60.3326L58.9459 58.0416Z" fill="#E0E0E0"/>
<path d="M31.2118 74.5729C31.2118 74.5729 31.2118 74.5441 31.1902 74.4961C31.1686 74.4481 31.159 74.3689 31.1374 74.2825C31.0918 74.0881 31.027 73.8193 30.9478 73.4809C30.787 72.7873 30.5614 71.8009 30.2926 70.6441L30.3454 70.6777L26.3998 71.5609C26.3998 71.5753 26.4718 71.4481 26.4382 71.5033V71.5201V71.5369V71.5705L26.4526 71.6377L26.4838 71.7721C26.503 71.8633 26.5222 71.9521 26.5438 72.0409L26.659 72.5665C26.7358 72.9145 26.8126 73.2529 26.8846 73.5841L27.295 75.4417L27.2422 75.4105L30.0886 74.7985L30.895 74.6305L31.111 74.5873C31.1366 74.5845 31.1623 74.5845 31.1878 74.5873L31.123 74.6065L30.9166 74.6569L30.1246 74.8465L27.2614 75.5065H27.2182V75.4633C27.091 74.8921 26.9494 74.2633 26.8006 73.6081C26.7262 73.2769 26.6494 72.9385 26.5606 72.5905C26.5222 72.4177 26.4814 72.2425 26.443 72.0649C26.4238 71.9761 26.4022 71.8873 26.383 71.7985L26.3542 71.6641L26.3374 71.5969V71.5609V71.5201C26.3038 71.5729 26.383 71.4457 26.3758 71.4601L30.3142 70.5889H30.3574V70.6321L30.9766 73.5121C31.0462 73.8481 31.1014 74.1169 31.1422 74.3113C31.159 74.3953 31.1734 74.4625 31.183 74.5177C31.1951 74.5346 31.2048 74.5532 31.2118 74.5729Z" fill="#263238"/>
<path d="M60.4693 64.8722L33.0098 70.99L33.5202 73.281L60.9797 67.1632L60.4693 64.8722Z" fill="#E0E0E0"/>
<path d="M24.3867 59.5056L24.7995 58.8552L26.0259 59.5368L27.6051 57.156L28.2147 57.5784L26.1795 60.5784L24.3867 59.5056Z" fill="#ED9FF4"/>
<path d="M25.8574 66.1055L26.2702 65.4551L27.4966 66.1367L29.0734 63.7559L29.6854 64.1783L27.6478 67.1759L25.8574 66.1055Z" fill="#ED9FF4"/>
<path d="M27.3672 72.8711L27.78 72.2231L29.004 72.9047L30.5832 70.5239L31.1928 70.9439L29.1576 73.9439L27.3672 72.8711Z" fill="#ED9FF4"/>
<path d="M39.9362 81.36C39.9362 81.3888 37.6226 81.9288 34.757 82.56C31.8914 83.1912 29.5634 83.6928 29.5586 83.6664C29.5538 83.64 31.8698 83.1 34.7354 82.4664C37.601 81.8328 39.929 81.336 39.9362 81.36Z" fill="#263238"/>
<path d="M45.1059 80.1265C44.4794 80.3195 43.8434 80.4797 43.2003 80.6065C42.567 80.764 41.9262 80.8898 41.2803 80.9833C41.906 80.7908 42.5413 80.6306 43.1835 80.5033C44.2371 80.2705 45.1011 80.1001 45.1059 80.1265Z" fill="#263238"/>
<path d="M62.2281 74.7384C62.2281 74.7648 60.1473 75.2544 57.5697 75.828C54.9921 76.4016 52.8945 76.8456 52.8897 76.8192C52.8849 76.7928 54.9681 76.3056 57.5481 75.7296C60.1281 75.1536 62.2233 74.712 62.2281 74.7384Z" fill="#263238"/>
<path d="M60.0003 81.055C60.0003 81.055 60.0219 80.9902 60.0459 80.8654C60.0776 80.6808 60.0678 80.4914 60.0171 80.311C59.9317 80.0257 59.8209 79.7485 59.6859 79.483C59.4945 79.1307 59.3823 78.7408 59.3571 78.3406C59.3627 78.0944 59.4199 77.8521 59.5249 77.6293C59.6299 77.4065 59.7804 77.2081 59.9667 77.047C60.185 76.8658 60.446 76.7435 60.725 76.6918C61.004 76.6402 61.2915 76.6608 61.5603 76.7518C61.8553 76.8416 62.1185 77.014 62.3187 77.2486C62.4253 77.375 62.4884 77.5324 62.4987 77.6974C62.5014 77.7862 62.4756 77.8735 62.425 77.9465C62.3745 78.0195 62.3019 78.0743 62.2179 78.103C62.0609 78.1538 61.9005 78.1931 61.7379 78.2206L61.2579 78.319C60.9363 78.3838 60.6099 78.4414 60.2739 78.4846C59.6231 78.5785 58.9625 78.5826 58.3107 78.4966C58.0162 78.4332 57.7086 78.4829 57.4491 78.6358C57.2428 78.8437 57.0682 79.0806 56.9307 79.339C56.8471 79.4663 56.7311 79.5691 56.5947 79.6366C56.4559 79.6979 56.2991 79.7047 56.1555 79.6558C55.9086 79.546 55.6737 79.4109 55.4547 79.2526C55.353 79.185 55.2373 79.1415 55.1163 79.1254C55.0031 79.1128 54.8891 79.1409 54.7947 79.2046C54.6287 79.3565 54.4913 79.537 54.3891 79.7374C54.2799 79.9094 54.1308 80.0524 53.9544 80.1544C53.7781 80.2563 53.5798 80.3142 53.3763 80.323C53.0684 80.3353 52.7677 80.2288 52.5363 80.0254C52.3909 79.8997 52.2767 79.742 52.2027 79.5646C52.1768 79.5039 52.1582 79.4402 52.1475 79.375C52.1475 79.375 52.1691 79.4398 52.2219 79.5574C52.2997 79.7271 52.4155 79.8765 52.5603 79.9942C52.786 80.1854 53.0761 80.2832 53.3715 80.2678C53.5656 80.2579 53.7544 80.2009 53.9216 80.1018C54.0888 80.0027 54.2295 79.8645 54.3315 79.699C54.437 79.4892 54.5802 79.3004 54.7539 79.1422C54.8631 79.0663 54.9958 79.0314 55.1283 79.0438C55.2596 79.0634 55.3854 79.11 55.4979 79.1806C55.7134 79.3331 55.9433 79.4641 56.1843 79.5718C56.3076 79.6133 56.4419 79.6073 56.5611 79.555C56.6831 79.4944 56.7855 79.4004 56.8563 79.2838C56.9989 79.0186 57.1801 78.776 57.3939 78.5638C57.5268 78.4689 57.6825 78.411 57.8451 78.3958C58.0046 78.3789 58.1655 78.3789 58.3251 78.3958C58.9698 78.4794 59.623 78.4753 60.2667 78.3838C60.5979 78.3406 60.9219 78.2806 61.2435 78.2182L61.7235 78.1222C61.8776 78.0937 62.0298 78.056 62.1795 78.0094C62.2452 77.9886 62.3024 77.9468 62.3422 77.8905C62.3821 77.8342 62.4024 77.7664 62.4003 77.6974C62.3894 77.5537 62.334 77.417 62.2419 77.3062C62.0525 77.0809 61.8027 76.9144 61.5219 76.8262C61.2673 76.7398 60.995 76.7196 60.7305 76.7674C60.4659 76.8153 60.218 76.9297 60.0099 77.0998C59.831 77.252 59.6861 77.44 59.5844 77.6517C59.4827 77.8633 59.4265 78.0939 59.4195 78.3286C59.4411 78.7198 59.5458 79.1019 59.7267 79.4494C59.8594 79.7187 59.9663 79.9999 60.0459 80.2894C60.0928 80.4749 60.0969 80.6686 60.0579 80.8558C60.0466 80.9243 60.0272 80.9911 60.0003 81.055Z" fill="#263238"/>
<path d="M64.9614 77.9833C64.9209 77.9995 64.8792 78.0124 64.8366 78.0217L64.4718 78.1081L63.1326 78.4177C62.0046 78.6817 60.4446 79.0513 58.7286 79.4857C57.0126 79.9201 55.4646 80.3401 54.3486 80.6473L53.0238 81.0121L52.6614 81.1081C52.6198 81.1211 52.5773 81.1307 52.5342 81.1369C52.5728 81.1158 52.6139 81.0997 52.6566 81.0889L53.0118 80.9761C53.3214 80.8777 53.7702 80.7361 54.327 80.5801C55.443 80.2537 56.9862 79.8241 58.7046 79.3801C60.423 78.9361 61.983 78.5857 63.1182 78.3433C63.6846 78.2209 64.1454 78.1249 64.4646 78.0625L64.8318 77.9929C64.8746 77.9858 64.918 77.9825 64.9614 77.9833Z" fill="#263238"/>
<path d="M45.2755 25.3218L26.6357 29.4746L27.416 32.9767L46.0558 28.8239L45.2755 25.3218Z" fill="#E0E0E0"/>
<path d="M62.9092 82.1543L68.9308 113.969L74.434 103.8L84.8644 109.922L73.7932 78.9431L62.9092 82.1543Z" fill="#ED9FF4"/>
<g opacity="0.3">
<path d="M64.9355 92.8535C65.5087 92.9615 66.0997 92.9286 66.6574 92.7576C67.2151 92.5866 67.7229 92.2827 68.1371 91.8719C68.6867 91.3055 69.0515 90.5327 69.7427 90.1535C70.3643 89.8127 71.1299 89.8607 71.8139 90.0503C72.4979 90.2399 73.1411 90.5543 73.8251 90.7319C74.5 90.9039 75.2024 90.9398 75.8913 90.8376C76.5803 90.7354 77.242 90.4972 77.8379 90.1367L76.1003 85.3127L68.0363 84.3047L64.1963 88.9247L64.9355 92.8535Z" fill="black"/>
</g>
<path d="M74.0431 102.538C74.0095 102.538 73.1119 99.24 72.0391 95.1576C70.9663 91.0752 70.1191 87.7535 70.1575 87.7463C70.1959 87.7391 71.0863 91.0391 72.1591 95.1263C73.2319 99.2136 74.0767 102.528 74.0431 102.538Z" fill="#263238"/>
<path d="M63.7902 83.8079L57.7686 115.622L52.2654 105.456L41.835 111.576L52.9062 80.5967L63.7902 83.8079Z" fill="#ED9FF4"/>
<g opacity="0.3">
<path d="M49.5938 89.863C49.5938 89.863 51.3073 91.2718 53.3497 90.6238C55.3921 89.9758 56.6617 89.8366 57.7681 90.6238C58.8745 91.411 61.8674 93.9718 61.8674 93.9718L62.561 90.3022L58.5409 84.7822L54.3458 85.6294L51.3602 85.9198L50.2489 88.0246L49.5938 89.863Z" fill="black"/>
</g>
<path d="M99.0964 55.0895C99.0964 57.3719 96.1804 59.3375 95.7532 61.4951C95.314 63.7175 97.2484 66.6479 96.4012 68.6951C95.554 70.7423 92.0812 71.4767 90.85 73.3271C89.6188 75.1775 90.2668 78.6431 88.69 80.2223C87.1132 81.8015 83.65 81.1367 81.7948 82.3823C79.9396 83.6279 79.2436 87.0695 77.1628 87.9335C75.118 88.7807 72.1876 86.8463 69.9628 87.2855C67.8028 87.7127 65.8396 90.6287 63.5572 90.6287C61.2748 90.6287 59.3068 87.7127 57.1492 87.2855C54.9268 86.8463 51.9964 88.7807 49.9492 87.9335C47.902 87.0863 47.17 83.6135 45.3196 82.3823C43.4692 81.1511 40.0036 81.7991 38.422 80.2223C36.8404 78.6455 37.5076 75.1823 36.262 73.3271C35.0164 71.4719 31.5748 70.7759 30.7132 68.6951C29.8516 66.6143 31.8004 63.7199 31.3612 61.4951C30.934 59.3351 28.0156 57.3719 28.0156 55.0895C28.0156 52.8071 30.934 50.8391 31.3612 48.6815C31.8004 46.4591 29.8636 43.5287 30.7132 41.4815C31.5628 39.4343 35.0332 38.6999 36.262 36.8519C37.4908 35.0039 36.8452 31.5359 38.422 29.9543C39.9988 28.3727 43.462 29.0399 45.3196 27.7943C47.1772 26.5487 47.8684 23.1071 49.9492 22.2455C52.03 21.3839 54.9244 23.3327 57.1492 22.8935C59.3092 22.4663 61.2748 19.5479 63.5572 19.5479C65.8396 19.5479 67.8052 22.4663 69.9628 22.8935C72.1852 23.3327 75.1156 21.3959 77.1628 22.2455C79.2436 23.1071 79.9444 26.5655 81.7948 27.7943C83.6452 29.0231 87.1108 28.3775 88.69 29.9543C90.2692 31.5311 89.6044 34.9943 90.85 36.8519C92.0956 38.7095 95.5372 39.4007 96.4012 41.4815C97.2652 43.5623 95.314 46.4567 95.7532 48.6815C96.1804 50.8391 99.0964 52.7999 99.0964 55.0895Z" fill="#ED9FF4"/>
<path d="M55.2411 35.1672C55.2411 35.1672 55.2147 35.136 55.1763 35.0688C55.1379 35.0016 55.0779 34.8936 55.0131 34.776C54.8715 34.5216 54.6771 34.1472 54.4467 33.6816C53.9835 32.7504 53.3835 31.44 52.8051 29.9616C52.2267 28.4832 51.7827 27.1104 51.4923 26.1216C51.3483 25.62 51.2379 25.2144 51.1683 24.9216C51.1371 24.792 51.1107 24.6816 51.0915 24.5952C51.079 24.558 51.0726 24.5192 51.0723 24.48C51.0909 24.515 51.1054 24.552 51.1155 24.5904L51.2139 24.9096C51.3075 25.2048 51.4299 25.6032 51.5763 26.0856C51.8883 27.0768 52.3467 28.4376 52.9203 29.9256C53.4939 31.4136 54.0843 32.712 54.5259 33.6528L55.0563 34.764L55.1979 35.0664C55.2153 35.0986 55.2297 35.1323 55.2411 35.1672Z" fill="#263238"/>
<path d="M58.4038 33.9646C58.3618 33.8808 58.3303 33.7921 58.3102 33.7006C58.2598 33.5278 58.1926 33.2758 58.1134 32.9638C57.955 32.3422 57.7582 31.4734 57.5806 30.5086C57.403 29.5438 57.2782 28.663 57.2062 28.0246C57.1678 27.7054 57.1438 27.4462 57.1294 27.2662C57.1183 27.1737 57.1183 27.0803 57.1294 26.9878C57.157 27.0769 57.1755 27.1686 57.1846 27.2614L57.2998 28.0126C57.3958 28.6486 57.5398 29.5246 57.7102 30.487C57.8806 31.4494 58.0702 32.3182 58.2046 32.9446C58.2694 33.2374 58.3222 33.487 58.3654 33.6886C58.3873 33.7791 58.4002 33.8715 58.4038 33.9646Z" fill="#263238"/>
<path d="M63.9839 33.4102C63.9479 33.4102 63.8591 30.7174 63.7847 27.3982C63.7103 24.079 63.6767 21.3837 63.7103 21.3813C63.7439 21.3789 63.8351 24.0718 63.9095 27.3958C63.9839 30.7198 64.0175 33.4102 63.9839 33.4102Z" fill="#263238"/>
<path d="M69.6005 27.8782C69.6341 27.8782 69.2453 29.2342 68.7341 30.8854C68.2229 32.5366 67.7741 33.8638 67.7501 33.8542C67.7261 33.8446 68.1053 32.4982 68.6165 30.847C69.1277 29.1958 69.5645 27.8686 69.6005 27.8782Z" fill="#263238"/>
<path d="M71.8896 34.8359C71.8943 34.7962 71.9049 34.7574 71.9208 34.7207L72.0288 34.4039C72.1248 34.1303 72.2688 33.7367 72.4608 33.2519C72.8376 32.2919 73.3752 30.9503 73.9896 29.4863C74.604 28.0223 75.1752 26.7047 75.5952 25.7543C75.8016 25.2935 75.972 24.9143 76.1016 24.6311L76.2432 24.3287C76.2792 24.2615 76.2984 24.2255 76.3032 24.2279C76.2945 24.2657 76.2824 24.3026 76.2672 24.3383L76.1448 24.6503L75.6768 25.7903C75.2664 26.7647 74.7168 28.0799 74.1048 29.5367C73.4928 30.9935 72.9504 32.3087 72.5424 33.2855L72.0744 34.4231L71.9424 34.7303C71.9293 34.7675 71.9115 34.803 71.8896 34.8359Z" fill="#263238"/>
<path d="M74.8809 36.4006C74.9173 36.3157 74.9632 36.2352 75.0177 36.1606C75.1137 36.007 75.2577 35.7886 75.4353 35.5222C75.7953 34.9918 76.3137 34.267 76.9161 33.4942C77.5185 32.7214 78.0969 32.0542 78.5241 31.5742C78.7377 31.3342 78.9153 31.1446 79.0401 31.015C79.1002 30.9431 79.1687 30.8786 79.2441 30.823C79.1976 30.9049 79.1412 30.9807 79.0761 31.0486C78.9465 31.207 78.7833 31.4014 78.5961 31.6318C78.1857 32.1262 77.6217 32.8102 77.0193 33.583C76.4169 34.3558 75.8913 35.0686 75.5121 35.587L75.0633 36.199C75.0096 36.2724 74.9485 36.3399 74.8809 36.4006Z" fill="#263238"/>
<path d="M79.2532 39.9767C79.2292 39.9527 81.13 38.1479 83.494 35.9471C85.858 33.7463 87.7972 31.9823 87.814 32.0063C87.8308 32.0303 85.9396 33.8375 83.5732 36.0383C81.2068 38.2391 79.2772 40.0031 79.2532 39.9767Z" fill="#263238"/>
<path d="M86.8803 40.7231C86.6489 40.8695 86.4084 41.001 86.1603 41.1167C85.7091 41.3567 85.0971 41.6903 84.4203 42.0767C83.7435 42.4631 83.1195 42.7847 82.6563 43.0007C82.4163 43.1087 82.2387 43.1927 82.1043 43.2407C82.0386 43.2749 81.9683 43.2992 81.8955 43.3127C82.1269 43.1664 82.3674 43.0349 82.6155 42.9191C83.0667 42.6791 83.6787 42.3455 84.3555 41.9591C85.0323 41.5727 85.6563 41.2391 86.1195 41.0351C86.3595 40.9271 86.5371 40.8431 86.6715 40.7951C86.7367 40.76 86.8073 40.7356 86.8803 40.7231Z" fill="#263238"/>
<path d="M93.9337 43.6486C93.9457 43.6822 91.6849 44.5078 88.8937 45.4942C86.1025 46.4806 83.8153 47.251 83.8057 47.2198C83.7961 47.1886 86.0521 46.3606 88.8457 45.3742C91.6393 44.3878 93.9217 43.6174 93.9337 43.6486Z" fill="#263238"/>
<path d="M96.1805 56.4814C96.1805 56.515 93.7205 56.311 90.6941 56.023C87.6677 55.735 85.2149 55.4734 85.2197 55.4374C85.2245 55.4014 87.6773 55.6102 90.7061 55.8982C93.7349 56.1862 96.1829 56.4478 96.1805 56.4814Z" fill="#263238"/>
<path d="M94.3728 67.992C94.3584 68.0232 92.0616 66.9672 89.244 65.6376C86.4264 64.308 84.1536 63.2016 84.168 63.1704C84.1824 63.1392 86.4792 64.1928 89.2968 65.5248C92.1144 66.8568 94.3872 67.9608 94.3728 67.992Z" fill="#263238"/>
<path d="M86.8184 78.9432C86.792 78.9648 85.1384 77.0424 83.12 74.652C81.1016 72.2616 79.4888 70.3008 79.52 70.2792C79.5512 70.2576 81.2 72.1776 83.2184 74.5704C85.2368 76.9632 86.8448 78.9192 86.8184 78.9432Z" fill="#263238"/>
<path d="M80.5102 80.3998C80.4355 80.3166 80.3688 80.2266 80.311 80.131C80.1886 79.9534 80.0158 79.6918 79.8094 79.3678C79.3918 78.7174 78.8326 77.8078 78.2422 76.7878C77.6518 75.7678 77.1478 74.827 76.8022 74.1478C76.627 73.8046 76.4854 73.5262 76.3942 73.3318C76.3399 73.233 76.2949 73.1293 76.2598 73.0222C76.3276 73.1118 76.387 73.2074 76.4374 73.3078C76.5526 73.519 76.7014 73.7878 76.8814 74.107C77.2534 74.7814 77.7718 75.7126 78.3598 76.7326C78.9478 77.7526 79.495 78.667 79.8934 79.327C80.0806 79.6438 80.239 79.9054 80.3614 80.1118C80.4214 80.202 80.4713 80.2986 80.5102 80.3998Z" fill="#263238"/>
<path d="M76.5931 85.896C76.5931 85.896 76.5691 85.8648 76.5307 85.7976L76.3747 85.5048C76.2379 85.248 76.0531 84.8736 75.8323 84.408C75.3907 83.4744 74.8219 82.164 74.2819 80.6808C73.7419 79.1976 73.3339 77.8296 73.0819 76.8408C72.9499 76.3416 72.8419 75.9336 72.7891 75.6528C72.7627 75.5232 72.7411 75.4128 72.7219 75.3264C72.7123 75.2887 72.7067 75.2501 72.7051 75.2112C72.7247 75.2455 72.7385 75.2828 72.7459 75.3216L72.8371 75.6408C72.9211 75.9384 73.0315 76.3344 73.1659 76.8168C73.4491 77.808 73.8691 79.1712 74.4091 80.6568C74.9491 82.1424 75.5011 83.4456 75.9235 84.3888L76.4275 85.5C76.4803 85.62 76.5259 85.7208 76.5643 85.8024C76.5778 85.8323 76.5874 85.8637 76.5931 85.896Z" fill="#263238"/>
<path d="M68.6595 82.0342C68.6075 81.7583 68.5731 81.4793 68.5563 81.199C68.5011 80.683 68.4123 79.9702 68.2827 79.1902C68.1531 78.4102 68.0019 77.7094 67.8867 77.203C67.8112 76.9319 67.7535 76.6561 67.7139 76.3774C67.7496 76.4442 67.777 76.5152 67.7955 76.5886C67.8435 76.7278 67.9035 76.9294 67.9731 77.1814C68.1099 77.683 68.2731 78.3814 68.4051 79.171C68.5199 79.84 68.6 80.5145 68.6451 81.1918C68.6619 81.451 68.6715 81.6718 68.6715 81.8086C68.6776 81.884 68.6736 81.9599 68.6595 82.0342Z" fill="#263238"/>
<path d="M63.468 88.9438C63.4625 88.9032 63.4625 88.862 63.468 88.8214C63.468 88.7254 63.468 88.6078 63.468 88.4686C63.468 88.1614 63.468 87.7174 63.468 87.1702C63.4872 86.0734 63.5376 84.5614 63.624 82.8934C63.7104 81.2254 63.8184 79.7134 63.9072 78.6214C63.9504 78.0742 63.9912 77.6326 64.0224 77.3278C64.0392 77.1886 64.0512 77.071 64.0608 76.9774C64.0636 76.9357 64.0717 76.8946 64.0848 76.855C64.0905 76.8964 64.0905 76.9384 64.0848 76.9798C64.0848 77.0734 64.0848 77.191 64.068 77.3326C64.0488 77.6566 64.0248 78.0934 63.9936 78.6262C63.9288 79.7374 63.8424 81.2398 63.7536 82.8982C63.6648 84.5566 63.6024 86.0782 63.5616 87.1726C63.5424 87.7054 63.5256 88.1326 63.5136 88.4686C63.5136 88.6102 63.4992 88.7254 63.4944 88.8214C63.4917 88.8633 63.4828 88.9045 63.468 88.9438Z" fill="#263238"/>
<path d="M59.2496 76.855C59.2479 77.0618 59.2238 77.2678 59.1776 77.4694C59.1152 77.8438 59.0144 78.3598 58.8824 78.9238C58.7504 79.4878 58.6112 79.9966 58.5008 80.3638C58.4529 80.5645 58.3829 80.7593 58.292 80.9446C58.3134 80.7395 58.3543 80.537 58.4144 80.3398L58.76 78.8998C58.8848 78.3598 59 77.8702 59.0912 77.4598C59.1245 77.2536 59.1775 77.051 59.2496 76.855Z" fill="#263238"/>
<path d="M51.6193 73.2C51.3049 73.7198 50.9544 74.217 50.5705 74.688C50.2183 75.1835 49.8343 75.6557 49.4209 76.1016C49.7347 75.5812 50.0852 75.084 50.4697 74.6136C50.8203 74.1167 51.2044 73.6444 51.6193 73.2Z" fill="#263238"/>
<path d="M47.6193 70.5022C47.6433 70.5238 46.1553 72.2734 44.2929 74.407C42.4305 76.5406 40.8969 78.247 40.8705 78.2302C40.8441 78.2134 42.3345 76.459 44.1969 74.3254C46.0593 72.1918 47.5929 70.4782 47.6193 70.5022Z" fill="#263238"/>
<path d="M45.6151 67.5239C45.0266 68.0916 44.4089 68.6283 43.7647 69.1319C42.7207 69.9911 41.8567 70.6679 41.8447 70.6415C42.4337 70.0751 43.0513 69.5392 43.6951 69.0359C44.3094 68.5 44.9502 67.9954 45.6151 67.5239Z" fill="#263238"/>
<path d="M43.2729 63.0334C43.2873 63.0646 41.2137 64.0966 38.6385 65.335C36.0633 66.5734 33.9681 67.555 33.9513 67.5238C33.9345 67.4926 36.0105 66.463 38.5857 65.2222C41.1609 63.9814 43.2585 63.0022 43.2729 63.0334Z" fill="#263238"/>
<path d="M42.3317 60.7944C42.2628 60.8247 42.1901 60.8457 42.1157 60.8568C41.9741 60.8904 41.7701 60.9336 41.5181 60.9792C41.0117 61.0752 40.3061 61.1808 39.5237 61.26C38.7413 61.3392 38.0285 61.3728 37.5125 61.38C37.2557 61.38 37.0469 61.38 36.9029 61.38C36.8278 61.3849 36.7524 61.3776 36.6797 61.3584C36.955 61.3206 37.2323 61.299 37.5101 61.2936C38.0237 61.2624 38.7317 61.2144 39.5117 61.1352C40.2917 61.056 40.9949 60.9648 41.5037 60.8952C41.777 60.8421 42.0537 60.8084 42.3317 60.7944Z" fill="#263238"/>
<path d="M41.5701 55.6222C41.4303 55.6337 41.2898 55.6337 41.1501 55.6222L40.0077 55.5646C39.0477 55.5166 37.7133 55.4734 36.2421 55.4806C34.7709 55.4878 33.4365 55.5478 32.4741 55.6054L31.3341 55.675C31.1947 55.6909 31.0542 55.6957 30.9141 55.6893C31.0504 55.6566 31.1893 55.6358 31.3293 55.627C31.5981 55.5958 31.9869 55.5574 32.4669 55.5166C33.4269 55.4374 34.7661 55.3654 36.2397 55.3558C37.7133 55.3462 39.0501 55.4062 40.0149 55.4758C40.4949 55.5118 40.8861 55.5454 41.1549 55.5742C41.2942 55.5804 41.433 55.5964 41.5701 55.6222Z" fill="#263238"/>
<path d="M42.041 51.0815C42.041 51.1151 40.4786 50.7095 38.5706 50.1767C36.6626 49.6439 35.1242 49.1879 35.1338 49.1543C35.1434 49.1207 36.6962 49.5239 38.6042 50.0567C40.5122 50.5895 42.0506 51.0479 42.041 51.0815Z" fill="#263238"/>
<path d="M43.0473 47.2798C43.0087 47.2775 42.9707 47.2694 42.9345 47.2558L42.6153 47.1598C42.3417 47.0734 41.9457 46.939 41.4633 46.7638C40.2028 46.301 38.9675 45.7722 37.7625 45.1798C36.5579 44.5867 35.3859 43.9298 34.2513 43.2118C33.8169 42.9358 33.4689 42.7054 33.2337 42.5398L32.9649 42.3454C32.9049 42.2998 32.8737 42.2758 32.8761 42.271C32.9124 42.2856 32.947 42.3041 32.9793 42.3262L33.2625 42.499C33.5025 42.6526 33.8577 42.871 34.2969 43.1374C35.1777 43.6702 36.4113 44.3734 37.8177 45.0574C39.2241 45.7414 40.5345 46.2982 41.4945 46.6726C41.9745 46.8574 42.3609 47.0038 42.6321 47.1046L42.9417 47.2222C42.9785 47.2384 43.0138 47.2577 43.0473 47.2798Z" fill="#263238"/>
<path d="M45.3054 43.4398C45.2862 43.4662 44.0718 42.6454 42.5934 41.6038C41.115 40.5622 39.9318 39.6958 39.9534 39.667C39.975 39.6382 41.187 40.4614 42.6678 41.503C44.1486 42.5446 45.3246 43.4182 45.3054 43.4398Z" fill="#263238"/>
<path d="M40.5317 31.7808C40.5317 31.7808 40.5653 31.8 40.6229 31.8456L40.8629 32.0568L41.7485 32.8392L44.6549 35.4336L47.5733 38.0136L48.4565 38.7984L48.6965 39.0168C48.7255 39.0406 48.7513 39.068 48.7733 39.0984C48.7733 39.0984 48.7397 39.0816 48.6797 39.036L48.4397 38.8368C48.2213 38.6616 47.9117 38.4024 47.5301 38.0808C46.7669 37.4376 45.7253 36.5376 44.5853 35.5272C43.4453 34.5168 42.4253 33.5856 41.7053 32.904C41.3405 32.5632 41.0477 32.2872 40.8461 32.0904L40.6181 31.8648C40.5605 31.812 40.5269 31.7832 40.5317 31.7808Z" fill="#263238"/>
<path d="M48.0176 31.999C48.0176 31.999 48.0824 32.0518 48.1808 32.1646C48.2792 32.2774 48.4208 32.443 48.5864 32.6446C48.92 33.0622 49.364 33.6526 49.8248 34.3246C50.2856 34.9966 50.672 35.6254 50.9384 36.0886C51.0728 36.3286 51.1784 36.5086 51.2456 36.6406C51.2871 36.7063 51.3194 36.7774 51.3416 36.8518C51.1657 36.6228 51.0053 36.3823 50.8616 36.1318C50.576 35.6806 50.1776 35.0638 49.7192 34.3918C49.2608 33.7198 48.8288 33.127 48.5192 32.6974C48.3382 32.4748 48.1707 32.2416 48.0176 31.999Z" fill="#263238"/>
<g opacity="0.2">
<path d="M38.4248 29.9566L48.8672 39.0982L51.4616 37.0222L45.404 27.739C45.404 27.739 44.9384 28.0798 43.724 28.4254C42.5648 28.759 39.1208 28.8478 38.4248 29.9566Z" fill="black"/>
</g>
<g opacity="0.2">
<path d="M50.0479 22.224L55.1455 34.9848L58.4047 33.9648L57.3175 22.896C57.3175 22.896 56.7583 23.028 55.5127 22.8696C54.3055 22.716 51.3799 21.5712 50.0479 22.224Z" fill="black"/>
</g>
<g opacity="0.3">
<path d="M63.6416 19.5528L63.9848 33.4104L67.0376 33.5568L70.1288 22.92C69.4866 22.7925 68.8757 22.5397 68.3312 22.176C67.2752 21.4992 65.12 19.44 63.6416 19.5528Z" fill="black"/>
</g>
<g opacity="0.2">
<path d="M76.957 22.1711L71.8906 34.9463L74.641 36.2639L81.613 27.6575C81.089 27.2152 80.6421 26.6888 80.2906 26.0999C79.633 25.0367 78.5002 22.5959 76.957 22.1711Z" fill="black"/>
</g>
<g opacity="0.2">
<path d="M88.8557 30.1416L79.4189 39.9816L81.5213 42.816L90.7421 36.6624C90.4385 36.1032 90.2331 35.4959 90.1349 34.8672C89.9141 33.6672 89.8829 31.488 88.8557 30.1416Z" fill="black"/>
</g>
<g opacity="0.2">
<path d="M96.3047 41.2439L83.5967 46.4735L84.6503 49.7207L95.7071 48.5207C95.7071 48.5207 95.6375 48.1799 95.7839 46.9343C95.9231 45.7271 97.1999 43.0295 96.3047 41.2439Z" fill="black"/>
</g>
<g opacity="0.2">
<path d="M99.1198 55.0894L85.2646 55.5694L85.1494 58.6246L95.7094 61.7158C95.7795 61.2759 95.9205 60.8504 96.127 60.4558C96.9142 58.987 99.1198 56.9134 99.1198 55.0894Z" fill="black"/>
</g>
<g opacity="0.2">
<path d="M96.5634 68.1887L83.8074 63.2183L82.5186 65.9999L91.1994 72.8711C91.6557 72.4341 92.1606 72.0508 92.7042 71.7287C93.7602 71.0543 96.2706 69.9623 96.5634 68.1887Z" fill="black"/>
</g>
<g opacity="0.2">
<path d="M77.8039 67.9917L74.6455 70.6317C74.8855 70.8717 79.0927 78.0333 81.6871 82.4541C81.7208 82.425 81.7561 82.3978 81.7927 82.3725C83.4991 81.2301 86.5375 81.6885 88.2511 80.5581L77.8039 67.9917Z" fill="black"/>
<path d="M71.9997 73.0029L67.2861 74.6109L69.5181 87.4077C69.6631 87.3566 69.8115 87.3157 69.9621 87.2853C72.1845 86.8461 75.1149 88.7805 77.1621 87.9333C77.4424 87.8132 77.703 87.6513 77.9349 87.4533L71.9997 73.0029Z" fill="black"/>
<path d="M63.3942 90.6239L64.1454 73.9055L60.0654 72.8711L57.0342 87.2711L57.1446 87.2903C59.2566 87.7007 61.179 90.4799 63.3942 90.6239Z" fill="black"/>
<path d="M53.1466 71.0662C53.1466 71.0662 47.761 78.2806 44.9434 82.1638C45.0737 82.2294 45.2003 82.3023 45.3226 82.3822C47.173 83.6206 47.8714 87.0694 49.9522 87.9334C50.0482 87.9718 50.1466 88.003 50.245 88.0318L57.769 73.7902L53.1466 71.0662Z" fill="black"/>
<path d="M47.6192 65.2583L36.1328 73.1519C36.176 73.2095 36.224 73.2647 36.2624 73.3247C37.5104 75.1871 36.8456 78.6407 38.4224 80.2199C38.568 80.3629 38.7289 80.4893 38.9024 80.5967C42.9608 76.0223 50.2472 67.8095 50.5112 67.5239L47.6192 65.2583Z" fill="black"/>
<path d="M44.9859 59.6206L31.4043 61.8142C31.6227 63.9934 29.9043 66.7438 30.7131 68.6926C30.7618 68.8117 30.8204 68.9265 30.8883 69.0358C35.6403 66.6694 45.5691 61.747 45.9819 61.7206L44.9859 59.6206Z" fill="black"/>
<path d="M44.2444 52.0557L31.4068 48.3525C31.3948 48.4629 31.3804 48.5733 31.3612 48.6813C30.934 50.8413 28.0156 52.8069 28.0156 55.0893C28.0163 55.2413 28.0291 55.393 28.054 55.5429H43.7236L44.2444 52.0557Z" fill="black"/>
<path d="M30.7656 41.383C35.5656 43.9534 44.9424 49.1542 44.9424 49.1542L47.2512 44.7694L36.408 36.6094C36.36 36.6934 36.3144 36.7798 36.2616 36.8494C35.04 38.671 31.6968 39.3814 30.7656 41.383Z" fill="black"/>
</g>
<path d="M99.0961 55.0894L99.0817 54.9358C99.076 54.7853 99.0551 54.6358 99.0193 54.4894C98.8796 53.9139 98.6356 53.3689 98.2993 52.8814C97.8865 52.219 97.2625 51.4774 96.6193 50.539C96.2561 50.0399 95.9772 49.4845 95.7937 48.895C95.6375 48.207 95.6375 47.4927 95.7937 46.8046C95.9281 46.0726 96.1465 45.319 96.3361 44.5198C96.5257 43.7206 96.7033 42.8566 96.5257 41.9734C96.4252 41.5264 96.2204 41.1095 95.9281 40.7566C95.6145 40.3974 95.2565 40.0796 94.8625 39.811C94.0657 39.2446 93.1489 38.7934 92.2729 38.203C91.8197 37.9108 91.408 37.5589 91.0489 37.1566C90.6964 36.7201 90.4403 36.2137 90.2977 35.671C89.9905 34.579 89.9209 33.4126 89.6881 32.2462C89.5864 31.6523 89.386 31.0796 89.0953 30.5518C88.7796 30.0205 88.3006 29.6055 87.7297 29.3686C87.1404 29.1318 86.5235 28.9706 85.8937 28.8886C85.2577 28.783 84.6049 28.7086 83.9521 28.5934C83.2833 28.497 82.6347 28.2919 82.0321 27.9862C81.4345 27.627 80.9285 27.1341 80.5537 26.5462C80.1553 25.975 79.8121 25.3606 79.4473 24.7534C79.0979 24.1322 78.6792 23.5525 78.1993 23.0254C77.7047 22.4923 77.03 22.1614 76.3057 22.0966C75.5656 22.0693 74.8258 22.1559 74.1121 22.3534C73.3921 22.5286 72.6529 22.7422 71.8969 22.8838C71.1327 23.0639 70.3355 23.0491 69.5785 22.8406C68.8406 22.5512 68.1505 22.1523 67.5313 21.6574C66.8905 21.1774 66.2665 20.6974 65.5825 20.2702C64.8985 19.843 64.1233 19.5334 63.3169 19.6246H63.1657C63.1153 19.6246 63.0673 19.6462 63.0193 19.6558C62.9209 19.6798 62.8201 19.6966 62.7241 19.7254C62.5308 19.7869 62.3416 19.8607 62.1577 19.9462C61.7864 20.1228 61.4301 20.3291 61.0921 20.563C60.4105 21.043 59.7649 21.5662 59.0641 22.0414C58.7152 22.2857 58.3458 22.4993 57.9601 22.6798C57.5648 22.8567 57.1416 22.9631 56.7097 22.9942C55.8437 22.9998 54.9816 22.8777 54.1513 22.6318C53.3152 22.3931 52.4624 22.2174 51.6001 22.1062C51.1695 22.0639 50.7348 22.0931 50.3137 22.1926C49.8942 22.3093 49.5074 22.5212 49.1833 22.8118C48.5209 23.3902 48.0601 24.1678 47.5993 24.931C47.1642 25.7302 46.6556 26.4871 46.0801 27.1918C45.7754 27.541 45.4094 27.8313 45.0001 28.0486C44.5823 28.2462 44.1435 28.3959 43.6921 28.495C42.7897 28.6942 41.8681 28.7782 40.9585 28.9414C40.0489 29.1046 39.1201 29.3614 38.4625 29.9998C38.1451 30.3379 37.9001 30.7373 37.7425 31.1734C37.5836 31.6133 37.4671 32.0674 37.3945 32.5294C37.2265 33.4558 37.1545 34.4062 36.9145 35.3398C36.8114 35.8137 36.6391 36.2697 36.4033 36.6934C36.1548 37.1132 35.8291 37.4821 35.4433 37.7806C34.6849 38.3902 33.8233 38.8414 32.9977 39.3454C32.5841 39.5944 32.1872 39.8702 31.8097 40.171C31.4341 40.4712 31.1182 40.8391 30.8785 41.2558C30.6499 41.6802 30.5342 42.1563 30.5425 42.6382C30.551 43.1227 30.6081 43.6052 30.7129 44.0782C30.9145 45.0382 31.2193 45.9814 31.3825 46.9582C31.4792 47.4595 31.4987 47.9727 31.4401 48.4798C31.372 48.9857 31.2091 49.4743 30.9601 49.9198C30.4585 50.7958 29.8057 51.5662 29.2273 52.3822C28.9302 52.7844 28.6715 53.2135 28.4545 53.6638C28.2167 54.1031 28.0922 54.5947 28.0922 55.0942C28.0922 55.5937 28.2167 56.0854 28.4545 56.5246C28.6712 56.9752 28.9299 57.4043 29.2273 57.8062C29.8057 58.6222 30.4585 59.3926 30.9601 60.2686C31.2045 60.706 31.3672 61.1842 31.4401 61.6798C31.5011 62.1801 31.4849 62.6869 31.3921 63.1822C31.2313 64.1686 30.9265 65.1142 30.7225 66.0742C30.6185 66.5475 30.5615 67.0298 30.5521 67.5142C30.5426 67.9968 30.6575 68.4737 30.8857 68.899C31.1236 69.317 31.4388 69.686 31.8145 69.9862C32.192 70.2871 32.5889 70.5629 33.0025 70.8118C33.8281 71.3158 34.6825 71.7718 35.4505 72.3766C35.8357 72.6758 36.1613 73.0446 36.4105 73.4638C36.6481 73.8859 36.8204 74.3414 36.9217 74.815C37.1473 75.751 37.2241 76.7014 37.4017 77.6278C37.4762 78.0897 37.5935 78.5437 37.7521 78.9838C37.9059 79.4198 38.1468 79.8199 38.4601 80.1598C39.1249 80.8054 40.0609 81.0622 40.9585 81.2254C41.8561 81.3886 42.7897 81.4654 43.6921 81.6718C44.1442 81.7713 44.5837 81.9211 45.0025 82.1182C45.4112 82.3364 45.7771 82.6266 46.0825 82.975C46.6523 83.6809 47.156 84.4377 47.5873 85.2358C48.0481 85.999 48.5089 86.7766 49.1713 87.355C49.4948 87.6452 49.8808 87.857 50.2993 87.9742C50.724 88.0815 51.1636 88.1172 51.6001 88.0798C52.4609 87.9641 53.312 87.7852 54.1465 87.5446C54.9773 87.2969 55.8403 87.1739 56.7073 87.1798C57.1393 87.2124 57.5623 87.3196 57.9577 87.4966C58.3431 87.6777 58.7125 87.8913 59.0617 88.135C59.7625 88.615 60.4057 89.1454 61.0897 89.611C61.4262 89.8466 61.7819 90.0538 62.1529 90.2302C62.337 90.3154 62.5261 90.3892 62.7193 90.451C62.8177 90.4774 62.9161 90.4967 63.0145 90.5206L63.1633 90.5518H63.3121C64.1209 90.643 64.8985 90.3118 65.5801 89.9062C66.2617 89.5006 66.8881 88.9894 67.5265 88.519C68.1466 88.0242 68.8375 87.6254 69.5761 87.3358C70.3332 87.1286 71.1301 87.1138 71.8945 87.2926C72.6505 87.4366 73.3801 87.6502 74.1097 87.8254C74.8246 88.0208 75.5649 88.1074 76.3057 88.0822C77.0291 88.015 77.7024 87.6834 78.1969 87.151C78.6753 86.6219 79.0938 86.0416 79.4449 85.4206C79.8073 84.8158 80.1505 84.2014 80.5489 83.6278C80.9258 83.0409 81.4324 82.5483 82.0297 82.1878C82.632 81.8819 83.2807 81.6775 83.9497 81.583C84.6049 81.4654 85.2553 81.391 85.8913 81.2878C86.5216 81.202 87.1385 81.0367 87.7273 80.7958C88.2976 80.5581 88.7764 80.1433 89.0929 79.6126C89.3818 79.0843 89.5813 78.5117 89.6833 77.9182C89.9233 76.7518 89.9857 75.583 90.2953 74.491C90.4365 73.9485 90.6926 73.4427 91.0465 73.0078C91.4045 72.6045 91.8164 72.2524 92.2705 71.9614C93.1465 71.371 94.0633 70.9198 94.8577 70.3534C95.2535 70.0854 95.6126 69.7667 95.9257 69.4054C96.2177 69.0536 96.4217 68.6373 96.5209 68.191C96.6046 67.76 96.6168 67.3181 96.5569 66.883C96.5073 66.466 96.432 66.0524 96.3313 65.6446C96.1393 64.8454 95.9233 64.0918 95.7889 63.3598C95.6327 62.6718 95.6327 61.9575 95.7889 61.2694C95.9734 60.6804 96.2522 60.1252 96.6145 59.6254C97.2649 58.687 97.8913 57.9454 98.2945 57.283C98.6312 56.7958 98.8752 56.2507 99.0145 55.675C99.0504 55.5287 99.0713 55.3792 99.0769 55.2286L99.0913 55.0774C99.0913 55.0774 99.0913 55.1278 99.0913 55.2286C99.0867 55.3798 99.0674 55.5301 99.0337 55.6774C98.897 56.2577 98.6528 56.8072 98.3137 57.2974C97.9033 57.9646 97.2817 58.7086 96.6337 59.647C96.2737 60.1429 95.9987 60.6953 95.8201 61.2814C95.6639 61.9622 95.6639 62.6695 95.8201 63.3502C95.9545 64.0702 96.1729 64.831 96.3673 65.6302C96.4719 66.0411 96.552 66.4579 96.6073 66.8782C96.6671 67.3189 96.6549 67.7663 96.5713 68.203C96.4711 68.6595 96.2638 69.0857 95.9665 69.4462C95.6503 69.8115 95.2881 70.1342 94.8889 70.4062C94.0873 70.9774 93.1729 71.431 92.3017 72.019C91.8568 72.3081 91.4532 72.6561 91.1017 73.0534C90.7551 73.4815 90.5046 73.9792 90.3673 74.5126C90.0625 75.5926 89.9953 76.759 89.7601 77.9326C89.6586 78.5356 89.4566 79.1173 89.1625 79.6534C88.8383 80.1998 88.3468 80.6272 87.7609 80.8726C87.1661 81.1169 86.5427 81.2847 85.9057 81.3718C85.2673 81.4774 84.6145 81.5518 83.9641 81.6694C83.3037 81.7637 82.6632 81.9656 82.0681 82.267C81.4875 82.6194 80.995 83.0995 80.6281 83.671C80.2345 84.2398 79.8913 84.8518 79.5265 85.4614C79.1734 86.0887 78.7516 86.6747 78.2689 87.2086C77.7586 87.7589 77.0627 88.1009 76.3153 88.1686C75.5641 88.1982 74.8128 88.1116 74.0881 87.9118C73.3561 87.7366 72.6265 87.5254 71.8777 87.3838C71.13 87.2089 70.3506 87.2229 69.6097 87.4246C68.8824 87.7114 68.202 88.1054 67.5913 88.5934C66.9553 89.0614 66.3289 89.5654 65.6377 89.9878C65.4577 90.0838 65.2873 90.1966 65.1001 90.2758C65.0065 90.319 64.9153 90.3646 64.8217 90.403L64.5313 90.5062C64.1375 90.6415 63.7193 90.6906 63.3049 90.6502L63.1489 90.6382C63.0985 90.6382 63.0481 90.6166 62.9953 90.607C62.8945 90.583 62.7913 90.5639 62.6929 90.535C62.4935 90.4734 62.2986 90.3981 62.1097 90.3094C61.7331 90.1307 61.3718 89.9212 61.0297 89.683C60.3409 89.203 59.6953 88.6798 59.0017 88.207C58.6571 87.968 58.2935 87.7577 57.9145 87.5782C57.531 87.4077 57.121 87.3046 56.7025 87.2734C55.8469 87.2696 54.9953 87.3917 54.1753 87.6358C53.332 87.8839 52.4711 88.0676 51.6001 88.1854C51.155 88.2289 50.7058 88.1989 50.2705 88.0966C49.8344 87.9751 49.4321 87.755 49.0945 87.4534C48.4129 86.8559 47.9473 86.071 47.4865 85.3054C47.0595 84.5136 46.5597 83.7631 45.9937 83.0638C45.6988 82.7258 45.3441 82.4451 44.9473 82.2358C44.5383 82.0415 44.1082 81.8949 43.6657 81.799C42.7729 81.6022 41.8537 81.5182 40.9369 81.3526C40.475 81.2758 40.0211 81.1569 39.5809 80.9974C39.1344 80.8337 38.7261 80.5806 38.3809 80.2534C38.0533 79.9035 37.8023 79.4891 37.6441 79.0366C37.482 78.5896 37.3623 78.1284 37.2865 77.659C37.1185 76.7254 37.0465 75.775 36.8065 74.8534C36.7068 74.3918 36.5386 73.9476 36.3073 73.5358C36.0644 73.1289 35.7468 72.7714 35.3713 72.4822C34.6273 71.8846 33.7681 71.4334 32.9401 70.927C32.5224 70.675 32.1215 70.396 31.7401 70.0918C31.3519 69.7806 31.0261 69.3987 30.7801 68.9662C30.5431 68.5239 30.4241 68.028 30.4345 67.5262C30.4402 67.0295 30.4981 66.5348 30.6073 66.0502C30.8113 65.0902 31.1161 64.1302 31.2745 63.1702C31.3651 62.6867 31.3805 62.1921 31.3201 61.7038C31.2474 61.2187 31.0846 60.7515 30.8401 60.3262C30.3601 59.4622 29.6977 58.6966 29.1145 57.8734C28.8106 57.4633 28.5447 57.0263 28.3201 56.5678C28.076 56.1116 27.9482 55.6021 27.9482 55.0846C27.9482 54.5672 28.076 54.0577 28.3201 53.6014C28.5416 53.1444 28.8051 52.7089 29.1073 52.3006C29.6905 51.4774 30.3409 50.7118 30.8305 49.8502C31.0747 49.424 31.2375 48.956 31.3105 48.4702C31.3665 47.9817 31.3503 47.4876 31.2625 47.0038C31.1017 46.0438 30.7969 45.0838 30.5929 44.1238C30.4857 43.6398 30.4286 43.146 30.4225 42.6502C30.4129 42.1483 30.5328 41.6524 30.7705 41.2102C31.0181 40.7796 31.3436 40.3987 31.7305 40.087C32.1113 39.7821 32.5122 39.503 32.9305 39.2518C33.7585 38.7454 34.6105 38.2918 35.3617 37.6966C35.7365 37.4074 36.0533 37.0499 36.2953 36.643C36.5254 36.2301 36.6929 35.7852 36.7921 35.323C37.0153 34.4014 37.0921 33.4534 37.2721 32.5198C37.3471 32.0505 37.466 31.5893 37.6273 31.1422C37.772 30.6846 38.0239 30.2682 38.362 29.9275C38.7002 29.5869 39.1147 29.3319 39.5713 29.1838C40.0115 29.0244 40.4654 28.9055 40.9273 28.8286C41.8441 28.663 42.7633 28.5886 43.6561 28.3846C44.0978 28.2858 44.5275 28.1394 44.9377 27.9478C45.3333 27.7368 45.6871 27.4554 45.9817 27.1174C46.5477 26.4182 47.0475 25.6677 47.4745 24.8758C47.9353 24.1102 48.4009 23.3254 49.0849 22.7302C49.4241 22.4242 49.8301 22.2015 50.2705 22.0798C50.706 21.9786 51.155 21.9486 51.6001 21.991C52.4658 22.1068 53.3217 22.2865 54.1609 22.5286C54.9806 22.7747 55.8323 22.8977 56.6881 22.8934C57.1027 22.8604 57.5086 22.7565 57.8881 22.5862C58.2683 22.4091 58.6321 22.1987 58.9753 21.9574C59.6713 21.4774 60.3169 20.9518 61.0057 20.4838C61.3473 20.2448 61.7086 20.0352 62.0857 19.8574C62.2744 19.7695 62.4683 19.6933 62.6665 19.6294C62.7673 19.6006 62.8705 19.5838 62.9713 19.5598L63.1225 19.5262H63.2785C63.6929 19.4871 64.1108 19.5362 64.5049 19.6702L64.7953 19.7734C64.8889 19.8118 64.9801 19.8574 65.0737 19.9006C65.2633 19.9822 65.4337 20.0926 65.6113 20.1886C66.3049 20.611 66.9289 21.115 67.5673 21.583C68.1774 22.0707 68.8569 22.4646 69.5833 22.7518C70.324 22.9548 71.1038 22.9689 71.8513 22.7926C72.6001 22.6534 73.3297 22.4422 74.0617 22.267C74.7865 22.0677 75.5376 21.9803 76.2889 22.0078C77.036 22.0765 77.7316 22.4183 78.2425 22.9678C78.7258 23.5027 79.1484 24.0895 79.5025 24.7174C79.8673 25.3246 80.2081 25.939 80.6017 26.5054C80.9679 27.0781 81.4605 27.5593 82.0417 27.9118C82.6364 28.2143 83.277 28.4163 83.9377 28.5094C84.5881 28.627 85.2409 28.7014 85.8793 28.807C86.5161 28.8954 87.1393 29.0631 87.7345 29.3062C88.3204 29.5515 88.8125 29.9779 89.1385 30.523C89.4316 31.0596 89.6336 31.6411 89.7361 32.2438C89.9761 33.4174 90.0385 34.5838 90.3409 35.6638C90.4798 36.1967 90.7301 36.694 91.0753 37.123C91.4261 37.5218 91.8298 37.8706 92.2753 38.1598C93.1465 38.7478 94.0633 39.2014 94.8625 39.7726C95.2617 40.0447 95.6239 40.3674 95.9401 40.7326C96.2376 41.0925 96.4457 41.5177 96.5473 41.9734C96.6309 42.411 96.6431 42.8592 96.5833 43.3006C96.5282 43.7203 96.4481 44.1362 96.3433 44.5462C96.1513 45.3478 95.9305 46.099 95.7961 46.8286C95.6399 47.5094 95.6399 48.2167 95.7961 48.8974C95.9747 49.4836 96.2496 50.036 96.6097 50.5318C97.2553 51.4726 97.8769 52.2118 98.2897 52.8814C98.6282 53.3721 98.8724 53.9214 99.0097 54.5014C99.0434 54.6488 99.0627 54.7991 99.0673 54.9502C99.0961 55.0366 99.0961 55.0894 99.0961 55.0894Z" fill="#263238"/>
<path d="M56.8803 88.0799C56.9139 88.0799 56.0283 91.6799 54.9027 96.1007C53.7771 100.522 52.8363 104.1 52.8027 104.093C52.7691 104.086 53.6547 100.493 54.7803 96.0695C55.9059 91.6463 56.8563 88.0607 56.8803 88.0799Z" fill="#263238"/>
<path d="M63.5567 76.8767C75.5895 76.8767 85.3439 67.1222 85.3439 55.0894C85.3439 43.0567 75.5895 33.3022 63.5567 33.3022C51.524 33.3022 41.7695 43.0567 41.7695 55.0894C41.7695 67.1222 51.524 76.8767 63.5567 76.8767Z" fill="white"/>
<path d="M50.1416 47.5391C49.8416 47.8391 48.1904 50.8439 48.0392 53.3231C47.888 55.8023 48.2456 69.7175 48.2456 69.7175L48.3104 70.6415C52.232 75.2279 66.488 82.0535 79.328 70.6175L80.048 62.0567L77.9288 43.9343L70.5608 42.1319L68.8352 39.3359L57.3344 42.0287L56.3072 44.4527L50.1416 47.5391Z" fill="#455A64"/>
<path d="M68.0453 32.0495C68.5517 30.1655 69.0485 28.2695 69.2237 26.3279C69.3989 24.3863 69.2381 22.3799 68.4653 20.5895C68.3477 20.3183 67.3757 18.5063 67.0829 18.5519C66.8741 18.5831 67.5029 20.2871 67.4069 20.4719C66.4829 22.2647 66.3149 24.3695 66.5813 26.3687C66.8562 28.3101 67.3472 30.2148 68.0453 32.0471" fill="#263238"/>
<path d="M67.8529 24.6095C67.7617 19.7207 64.8385 15.7007 59.9545 15.9287L59.5033 15.9767C57.3188 16.207 55.301 17.2511 53.8513 18.9014C52.4016 20.5516 51.6262 22.6871 51.6793 24.8831C51.7849 29.1191 51.9529 33.7991 52.2193 36.0503C52.7689 40.7087 57.4993 40.9439 57.4993 40.9439L57.7177 44.0087L59.7217 46.1855L69.0121 40.4255L67.8529 24.6095Z" fill="#FFBF9D"/>
<path d="M57.5117 40.9799C57.5117 40.9799 60.4709 40.8431 63.3965 38.5439C63.3965 38.5439 62.4173 42.7703 57.7181 42.8399L57.5117 40.9799Z" fill="#FF9A6C"/>
<path d="M54.3652 28.6823C54.3816 28.8574 54.4664 29.0191 54.6011 29.1323C54.7359 29.2455 54.9097 29.3011 55.0852 29.2871C55.1706 29.2849 55.2547 29.2657 55.3326 29.2306C55.4105 29.1955 55.4806 29.1451 55.5387 29.0825C55.5968 29.0199 55.6419 28.9463 55.6711 28.866C55.7004 28.7857 55.7133 28.7004 55.7091 28.6151C55.6921 28.4401 55.6071 28.2788 55.4726 28.1657C55.338 28.0527 55.1644 27.9969 54.9891 28.0103C54.9036 28.0121 54.8193 28.031 54.7413 28.0661C54.6633 28.1011 54.593 28.1514 54.5348 28.2141C54.4766 28.2768 54.4316 28.3505 54.4025 28.431C54.3733 28.5114 54.3606 28.5968 54.3652 28.6823Z" fill="#263238"/>
<path d="M52.8819 26.7141C52.9731 26.7909 53.4387 26.3661 54.1563 26.2917C54.8739 26.2173 55.4355 26.5317 55.5051 26.4237C55.5387 26.3829 55.4379 26.2341 55.1907 26.0901C54.858 25.9088 54.4776 25.8342 54.1011 25.8765C53.7282 25.915 53.377 26.0704 53.0979 26.3205C52.8939 26.5149 52.8363 26.6781 52.8819 26.7141Z" fill="#263238"/>
<path d="M60.699 28.1446C60.7155 28.3198 60.8003 28.4815 60.935 28.5946C61.0697 28.7078 61.2436 28.7634 61.419 28.7494C61.5044 28.7473 61.5886 28.7281 61.6664 28.6929C61.7443 28.6578 61.8144 28.6074 61.8726 28.5448C61.9307 28.4822 61.9757 28.4086 62.005 28.3283C62.0343 28.2481 62.0472 28.1627 62.043 28.0774C62.0265 27.902 61.9418 27.7401 61.8072 27.6266C61.6725 27.513 61.4987 27.4568 61.323 27.4702C61.2375 27.4726 61.1533 27.4921 61.0754 27.5275C60.9975 27.5629 60.9274 27.6135 60.8693 27.6763C60.8112 27.7391 60.7662 27.8129 60.737 27.8933C60.7077 27.9737 60.6948 28.0591 60.699 28.1446Z" fill="#263238"/>
<path d="M59.9354 26.2632C60.0266 26.3424 60.4946 25.9152 61.2098 25.8408C61.925 25.7664 62.4914 26.0808 62.5586 25.9752C62.5922 25.932 62.4938 25.7832 62.2466 25.6416C61.9134 25.4593 61.5319 25.3847 61.1546 25.428C60.7813 25.4648 60.4296 25.6204 60.1514 25.872C59.9498 26.064 59.8922 26.2296 59.9354 26.2632Z" fill="#263238"/>
<path d="M57.9433 32.0447C57.9433 32.0039 57.4897 31.9727 56.7577 31.9559C56.5729 31.9559 56.3953 31.9391 56.3521 31.8167C56.3159 31.6296 56.3385 31.4359 56.4169 31.2623L56.8105 29.8223C57.3529 27.7583 57.7249 26.0687 57.6433 26.0471C57.5617 26.0255 57.0505 27.6815 56.5081 29.7479L56.1385 31.1999C56.0482 31.4303 56.0414 31.685 56.1193 31.9199C56.1521 31.9824 56.1988 32.0365 56.2558 32.0782C56.3128 32.1198 56.3786 32.1477 56.4481 32.1599C56.5525 32.1727 56.6581 32.1727 56.7625 32.1599C57.4945 32.1287 57.9457 32.0855 57.9433 32.0447Z" fill="#263238"/>
<path d="M60.1057 32.3182C59.9881 32.3182 60.0697 33.1006 59.4625 33.7246C58.8553 34.3486 58.0225 34.3486 58.0225 34.459C58.0225 34.507 58.2217 34.591 58.5745 34.5622C59.0289 34.5196 59.4538 34.3182 59.7745 33.9934C60.0805 33.6792 60.2526 33.2585 60.2545 32.8198C60.2665 32.491 60.1585 32.3086 60.1057 32.3182Z" fill="#263238"/>
<path d="M59.6693 23.3494C59.7605 23.5366 60.4661 23.3686 61.3181 23.383C62.1701 23.3974 62.8757 23.5534 62.9669 23.3662C63.0077 23.2774 62.8709 23.107 62.5757 22.9462C62.1841 22.7564 61.7546 22.6577 61.3193 22.6577C60.8841 22.6577 60.4546 22.7564 60.0629 22.9462C59.7605 23.0902 59.6285 23.2606 59.6693 23.3494Z" fill="#263238"/>
<path d="M52.9273 24.2999C53.0689 24.4487 53.5465 24.2279 54.1393 24.1559C54.7321 24.0839 55.2481 24.1559 55.3393 23.9687C55.3825 23.8799 55.2865 23.7287 55.0513 23.5943C54.7362 23.4406 54.3826 23.3839 54.0352 23.4313C53.6879 23.4787 53.3624 23.6282 53.1001 23.8607C52.9129 24.0503 52.8625 24.2255 52.9273 24.2999Z" fill="#263238"/>
<path d="M67.8359 28.1062C67.9127 28.063 70.9415 26.8198 71.1767 30.0262C71.4119 33.2326 68.1599 32.7958 68.1383 32.7046C68.1167 32.6134 67.8359 28.1062 67.8359 28.1062Z" fill="#FFBF9D"/>
<path d="M69.0265 31.4206C69.0409 31.4206 69.0841 31.4542 69.1825 31.4902C69.3192 31.5376 69.469 31.5298 69.6001 31.4686C69.9289 31.3198 70.1737 30.763 70.1473 30.1846C70.1362 29.9095 70.0632 29.6404 69.9337 29.3974C69.8962 29.2998 69.8355 29.2128 69.7569 29.1438C69.6783 29.0748 69.5842 29.0259 69.4825 29.0014C69.4175 28.9886 69.3501 28.9991 69.2921 29.0312C69.2341 29.0632 69.1894 29.1147 69.1657 29.1766C69.1273 29.2702 69.1537 29.3326 69.1369 29.3398C69.1201 29.347 69.0649 29.2894 69.0793 29.1574C69.0919 29.0763 69.1317 29.0018 69.1921 28.9462C69.2755 28.8736 69.3841 28.8365 69.4945 28.843C69.6278 28.8588 69.7547 28.9088 69.8628 28.9884C69.9709 29.0679 70.0565 29.1741 70.1113 29.2966C70.2689 29.5635 70.358 29.8653 70.3705 30.175C70.3969 30.8206 70.1113 31.4494 69.6505 31.615C69.5666 31.6466 69.4766 31.6589 69.3873 31.651C69.298 31.6431 69.2116 31.6152 69.1345 31.5694C69.0385 31.4974 69.0169 31.4254 69.0265 31.4206Z" fill="#FF9A6C"/>
<path d="M53.4094 19.4399C52.8742 19.1855 54.3214 17.4071 55.5694 16.7471C57.439 15.7511 60.343 15.0239 62.1502 15.4127C64.327 15.8927 66.1702 16.8287 67.3678 18.7055C68.5654 20.5823 69.115 22.8215 69.1966 25.0463C69.2206 25.7255 69.1966 26.4359 68.8702 27.0311C68.4694 27.7679 67.639 28.2695 67.7398 29.2439C67.7638 29.4199 67.7524 29.5988 67.7062 29.7703C67.66 29.9417 67.5801 30.1022 67.471 30.2423C66.9238 30.9047 66.1702 30.3647 65.803 29.7983C65.0182 28.5983 64.843 27.0983 64.6894 25.6631C64.579 24.6455 64.471 23.6039 64.6894 22.6055C64.8094 22.0607 65.0302 21.5399 65.1214 20.9903C65.2126 20.4407 65.1574 19.8287 64.7926 19.4063C64.7075 19.3177 64.6143 19.2374 64.5142 19.1663C64.042 18.8039 63.4816 18.5741 62.8909 18.5007C62.3003 18.4273 61.7007 18.5129 61.1542 18.7487C59.3902 19.5023 56.3734 20.6543 55.5286 20.0927C54.3166 19.2863 53.9998 18.7199 53.9998 18.7199L53.4094 19.4399Z" fill="#263238"/>
<path d="M50.1412 47.5391C49.9564 47.7959 47.3332 48.6671 46.3372 50.3255C45.3412 51.9839 44.3572 59.4287 44.3572 59.4287L43.7236 64.3199C44.9716 66.2927 46.6468 68.9063 48.4228 70.7495L50.1412 47.5391Z" fill="#455A64"/>
<g opacity="0.3">
<path d="M69.8525 54.72C69.9233 55.7238 70.1134 56.7156 70.4189 57.6744C70.7621 58.6176 71.3645 59.5056 72.2453 59.9928C72.6125 60.1944 73.0277 60.3288 73.3373 60.6168C73.6469 60.9048 73.8341 61.3704 74.1341 61.7088C74.5094 62.081 74.9725 62.3525 75.4805 62.4984C76.9102 63.0226 78.4274 63.267 79.9493 63.2184C79.9973 62.7048 79.9997 60.8184 80.0477 60.3024L69.8525 54.72Z" fill="black"/>
</g>
<path d="M77.9283 43.9343C77.9283 43.9343 81.2355 44.9135 82.2051 46.3223C83.1747 47.7311 84.8907 53.1935 85.2435 54.2063C85.5963 55.2191 85.2867 57.5663 84.6267 59.2463C83.9667 60.9263 82.8195 62.3879 80.8395 62.6063C78.8595 62.8247 75.7299 61.6823 75.0243 60.9263C74.3187 60.1703 74.0283 58.4975 74.0283 58.4975C74.9076 58.3434 75.7747 58.126 76.6227 57.8471" fill="#455A64"/>
<path d="M76.6222 57.864L76.5814 57.8808L76.4566 57.9264C76.3462 57.9648 76.1806 58.02 75.9622 58.0848C75.3312 58.2735 74.6902 58.4273 74.0422 58.5456L74.0686 58.5096C74.1491 58.9219 74.2623 59.3272 74.407 59.7216C74.486 59.9452 74.5815 60.1626 74.6926 60.372C74.8066 60.5958 74.9566 60.7993 75.1366 60.9744C75.3398 61.1488 75.5639 61.2971 75.8038 61.416C76.0573 61.549 76.3176 61.6684 76.5838 61.7736C77.155 62.002 77.7422 62.1881 78.3406 62.3304C78.9866 62.4889 79.6484 62.5735 80.3134 62.5824C80.4865 62.5839 80.6596 62.5759 80.8318 62.5584C81.0055 62.5385 81.1778 62.5081 81.3478 62.4672C81.6965 62.3888 82.0314 62.2586 82.3414 62.0808C82.987 61.7075 83.5291 61.1786 83.9182 60.5424C84.3298 59.8817 84.6449 59.1657 84.8542 58.416C85.025 57.8399 85.1526 57.2519 85.2358 56.6568C85.3251 56.0806 85.3541 55.4966 85.3222 54.9144C85.3033 54.6343 85.2459 54.3581 85.1518 54.0936C85.0606 53.8248 84.9718 53.5584 84.8854 53.2944L84.3694 51.7512C84.0286 50.748 83.6926 49.8 83.3566 48.9192C83.0617 48.0996 82.7063 47.303 82.2934 46.536C82.1027 46.21 81.8479 45.9259 81.5446 45.7008C81.2803 45.4905 80.9994 45.3019 80.7046 45.1368C80.2312 44.8667 79.7415 44.6262 79.2382 44.4168C78.8254 44.2464 78.499 44.1264 78.2782 44.0472L78.0262 43.9584C77.9963 43.9504 77.9673 43.9391 77.9398 43.9248C77.9701 43.9287 77.9999 43.936 78.0286 43.9464L78.2854 44.0232C78.511 44.0952 78.8422 44.208 79.2598 44.3712C79.7673 44.5715 80.2619 44.8032 80.7406 45.0648C81.0407 45.2299 81.3272 45.4185 81.5974 45.6288C81.9097 45.8579 82.1725 46.1477 82.3702 46.4808C82.7924 47.252 83.1551 48.0543 83.455 48.8808C83.7982 49.7592 84.1366 50.7096 84.4798 51.7128C84.6502 52.2144 84.823 52.7304 85.0006 53.256C85.0894 53.5176 85.1782 53.784 85.267 54.0528C85.3657 54.3264 85.4263 54.6123 85.447 54.9024C85.4811 55.4933 85.453 56.0862 85.363 56.6712C85.2782 57.2727 85.149 57.8671 84.9766 58.4496C84.7623 59.2121 84.4389 59.9396 84.0166 60.6096C83.6165 61.2628 83.0586 61.805 82.3942 62.1864C82.0741 62.3685 81.7288 62.5019 81.3694 62.5824C81.1946 62.624 81.0175 62.6553 80.839 62.676C80.6614 62.676 80.4838 62.7072 80.311 62.7C79.6368 62.6877 78.9661 62.5992 78.3118 62.436C77.708 62.2912 77.1159 62.1011 76.5406 61.8672C76.2727 61.7588 76.0107 61.6362 75.7558 61.5C75.5089 61.3763 75.2783 61.2223 75.0694 61.0416C74.8837 60.8578 74.7296 60.6445 74.6134 60.4104C74.502 60.1978 74.4066 59.9772 74.3278 59.7504C74.1871 59.3489 74.0772 58.9374 73.999 58.5192V58.488H74.0302C74.875 58.3416 75.523 58.176 75.9622 58.056L76.4614 57.9144L76.5886 57.8784C76.6078 57.864 76.6222 57.8616 76.6222 57.864Z" fill="#263238"/>
<path d="M82.6927 56.095C82.6687 56.095 82.5919 55.687 82.3159 55.0774C81.9534 54.285 81.4473 53.5665 80.8231 52.9582C80.4773 52.6291 80.0861 52.351 79.6615 52.1326L79.3711 52.003C79.2751 51.9598 79.1743 51.9406 79.0831 51.9094C78.9105 51.8551 78.7328 51.8181 78.5527 51.799L78.4327 51.7822H78.1063C77.9937 51.7806 77.8811 51.7902 77.7703 51.811C77.6739 51.8304 77.5759 51.8409 77.4775 51.8422C77.5684 51.8046 77.6635 51.778 77.7607 51.763C77.8725 51.7314 77.9878 51.7144 78.1039 51.7126H78.3199H78.4375L78.5623 51.727C78.7484 51.74 78.9325 51.7722 79.1119 51.823C79.2126 51.8483 79.312 51.8787 79.4095 51.9142L79.7119 52.0438C80.1523 52.2613 80.5569 52.5445 80.9119 52.8838C81.5497 53.5002 82.0552 54.2401 82.3975 55.0582C82.4587 55.1974 82.5116 55.3401 82.5559 55.4854C82.593 55.5947 82.6234 55.7061 82.6471 55.819C82.6711 55.9094 82.6864 56.0018 82.6927 56.095Z" fill="#263238"/>
<path d="M84.4966 53.1262C84.3603 52.7769 84.1932 52.4403 83.9974 52.1206C83.5002 51.3614 82.7557 50.7976 81.8902 50.5246C80.875 50.215 79.8886 50.311 79.1998 50.3758L78.3766 50.4742C78.2768 50.4922 78.1756 50.501 78.0742 50.5006C78.1691 50.4635 78.2683 50.4385 78.3694 50.4262C78.5614 50.3878 78.8494 50.3374 79.1902 50.2894C80.0999 50.1304 81.0331 50.1697 81.9262 50.4046C82.4153 50.5516 82.8693 50.7965 83.2606 51.1246C83.581 51.3969 83.855 51.7195 84.0718 52.0798C84.2202 52.3162 84.3387 52.5702 84.4246 52.8358C84.4597 52.9295 84.4839 53.0269 84.4966 53.1262Z" fill="#263238"/>
<path d="M82.0038 49.5768C80.71 49.2717 79.3576 49.3248 78.0918 49.7304C78.2578 49.6221 78.4401 49.541 78.6318 49.4904C79.086 49.3507 79.5562 49.2701 80.031 49.2504C80.5058 49.2335 80.9808 49.2771 81.4446 49.38C81.6398 49.4173 81.8283 49.4836 82.0038 49.5768Z" fill="#263238"/>
<path d="M76.6515 44.7598C76.6707 44.7598 76.6227 45.0982 76.5843 45.6406C76.4837 47.0299 76.6036 48.4263 76.9395 49.7782L76.8531 49.807C76.7547 49.531 76.6779 49.3054 76.6275 49.147C76.5962 49.0697 76.5736 48.9892 76.5603 48.907C76.6092 48.9815 76.648 49.0622 76.6755 49.147C76.7403 49.2982 76.8291 49.519 76.9395 49.7926L76.8531 49.819C76.6631 49.1549 76.5369 48.4742 76.4763 47.7862C76.4135 47.0744 76.42 46.3583 76.4955 45.6478C76.5267 45.3766 76.5627 45.1678 76.5915 45.007C76.5996 44.9221 76.6198 44.8389 76.6515 44.7598Z" fill="#263238"/>
<path d="M71.974 38.604C71.974 38.604 70.258 38.604 70.042 40.6656C69.8764 42.2496 70.042 43.7856 70.042 44.4816C70.042 45.1776 69.7372 47.6424 69.7372 47.6424C69.7372 47.6424 68.566 48.6816 68.5852 49.9296C68.6044 51.1776 69.4972 51.5664 69.4972 51.5664C69.3475 51.9531 69.3145 52.3753 69.4024 52.7806C69.4903 53.1858 69.6951 53.5564 69.9916 53.8464C69.9916 53.8464 69.4948 54.996 69.9028 55.7664C70.138 56.1496 70.5049 56.4338 70.9348 56.5656C70.8644 56.7173 70.8273 56.8823 70.8261 57.0495C70.825 57.2167 70.8597 57.3822 70.9279 57.5348C70.9962 57.6875 71.0964 57.8237 71.2218 57.9343C71.3472 58.0449 71.4948 58.1273 71.6548 58.176C72.2314 58.3546 72.8353 58.4286 73.438 58.3944L74.7196 58.3704L75.8476 58.9944C75.8476 58.9944 77.782 58.152 77.83 57.012L77.8804 55.872C77.8804 55.872 77.326 54 77.2804 53.4C77.2348 52.8 77.7268 51.3672 77.4292 50.724C77.1316 50.0808 76.0924 49.7016 76.1908 48.804C76.2892 47.9064 76.0924 47.4072 75.646 46.9104C75.1996 46.4136 73.2292 45.4248 73.2292 45.4248C73.2292 45.4248 72.7228 43.9848 72.7228 42.9984C72.7228 42.012 73.7092 38.9808 71.974 38.604Z" fill="#FFBF9D"/>
<path d="M73.1308 45.7991C72.9833 45.9198 72.8222 46.0229 72.6508 46.1063C72.3484 46.2839 71.9308 46.5191 71.4508 46.7735C70.9708 47.0279 70.5532 47.2535 70.2508 47.4095C70.0874 47.5083 69.9135 47.5888 69.7324 47.6495C69.8794 47.5274 70.0406 47.4234 70.2124 47.3399C70.5148 47.1623 70.9324 46.9271 71.4124 46.6727C71.8924 46.4183 72.31 46.1927 72.6124 46.0367C72.7755 45.9379 72.9495 45.8581 73.1308 45.7991Z" fill="#FF9A6C"/>
<path d="M74.2589 49.6799C74.2589 49.6799 74.2109 49.7351 74.1077 49.8143C73.9645 49.9268 73.8155 50.0317 73.6613 50.1287C73.1546 50.4535 72.6157 50.7253 72.0533 50.9399C71.491 51.1581 70.908 51.3189 70.3133 51.4199C70.0733 51.4559 69.8981 51.4775 69.7709 51.4847C69.7043 51.4972 69.636 51.4972 69.5693 51.4847C69.5693 51.4655 69.8477 51.4271 70.2893 51.3335C70.8717 51.2112 71.4438 51.0443 72.0005 50.8343C72.556 50.6194 73.0937 50.361 73.6085 50.0615C73.8187 49.9233 74.0358 49.796 74.2589 49.6799Z" fill="#FF9A6C"/>
<path d="M75.7322 48.444C75.7634 48.456 75.6986 48.684 75.4922 48.8592C75.2858 49.0344 75.065 49.0872 75.0578 49.056C75.0506 49.0248 75.2282 48.9336 75.4082 48.7656C75.5882 48.5976 75.6986 48.4296 75.7322 48.444Z" fill="#FF9A6C"/>
<path d="M75.0244 53.0759C74.7939 53.1879 74.5527 53.2763 74.3044 53.3399C73.7139 53.5156 73.1127 53.6527 72.5044 53.7503C71.8962 53.8494 71.282 53.9072 70.666 53.9231C70.4107 53.9428 70.154 53.9348 69.9004 53.8991C70.1525 53.8633 70.4066 53.8424 70.6612 53.8367C71.1412 53.8031 71.7772 53.7407 72.4852 53.6279C73.1932 53.5151 73.8244 53.3687 74.2804 53.2535C74.5247 53.1799 74.7731 53.1206 75.0244 53.0759Z" fill="#FF9A6C"/>
<path d="M76.594 52.7999C76.6305 52.6749 76.6745 52.5522 76.726 52.4327C76.8212 52.1395 76.8531 51.8295 76.8196 51.5231C76.7814 51.2169 76.6765 50.9228 76.5124 50.6615C76.4346 50.5571 76.3633 50.4481 76.2988 50.3351C76.2988 50.3231 76.4356 50.4119 76.5868 50.6111C76.7809 50.8743 76.9033 51.1835 76.942 51.5083C76.9807 51.8331 76.9344 52.1623 76.8076 52.4639C76.7092 52.6823 76.606 52.7999 76.594 52.7999Z" fill="#FF9A6C"/>
<path d="M75.1198 56.5511C74.9232 56.6235 74.7185 56.6719 74.5102 56.6951C74.0116 56.7737 73.5077 56.813 73.003 56.8127C72.4971 56.8118 71.9922 56.7692 71.4934 56.6855C71.2849 56.6619 71.0802 56.6128 70.8838 56.5391C71.0922 56.5427 71.3001 56.5628 71.5054 56.5991C72.0027 56.6553 72.5026 56.6849 73.003 56.6879C73.5025 56.6868 74.0016 56.6596 74.4982 56.6063C74.7036 56.5713 74.9114 56.5529 75.1198 56.5511Z" fill="#FF9A6C"/>
<path d="M72.0678 43.0224C72.0678 43.0368 71.9886 43.1016 71.8278 43.1592C71.6162 43.2299 71.3914 43.2528 71.1698 43.2262C70.9482 43.1997 70.7352 43.1243 70.5462 43.0056C70.4022 42.912 70.3351 42.8304 70.3447 42.8184C70.61 42.9516 70.8928 43.047 71.1847 43.1016C71.4813 43.1173 71.7787 43.0907 72.0678 43.0224Z" fill="#FF9A6C"/>
<path d="M76.9494 52.9368C76.971 52.9959 76.9808 53.0587 76.9782 53.1216C76.9782 53.2921 76.9581 53.4621 76.9182 53.628C76.8726 53.8368 76.7934 54.0792 76.7166 54.348C76.6236 54.6292 76.5933 54.9274 76.6278 55.2216C76.6686 55.5264 76.8966 55.7712 76.9326 56.0808C76.9571 56.3425 76.8901 56.6046 76.743 56.8224C76.6535 56.9668 76.5498 57.1019 76.4334 57.2256C76.3518 57.3144 76.3014 57.3576 76.2942 57.3528C76.287 57.348 76.4598 57.1416 76.6662 56.7792C76.7903 56.5748 76.8434 56.3352 76.8174 56.0976C76.7886 55.836 76.5582 55.5912 76.503 55.2432C76.4664 54.9305 76.5017 54.6137 76.6062 54.3168C76.6902 54.0456 76.7766 53.808 76.8318 53.5968C76.8871 53.38 76.9264 53.1594 76.9494 52.9368Z" fill="#FF9A6C"/>
<path d="M77.5949 54.4438C77.634 54.5142 77.6616 54.5904 77.6765 54.6694C77.7197 54.8158 77.7773 55.0318 77.8301 55.3006C77.8952 55.6169 77.9338 55.938 77.9453 56.2606C77.9659 56.6641 77.892 57.0668 77.7293 57.4366C77.5404 57.7908 77.2901 58.1085 76.9901 58.375C76.7514 58.5925 76.4971 58.7923 76.2293 58.9726C76.0013 59.1286 75.8093 59.2438 75.6749 59.3182C75.6088 59.363 75.537 59.3985 75.4613 59.4238C75.4493 59.407 75.7373 59.2246 76.1813 58.9006C76.4388 58.7133 76.6841 58.5097 76.9157 58.291C77.2009 58.0302 77.4396 57.7226 77.6213 57.3814C77.7751 57.0284 77.8481 56.6455 77.8349 56.2606C77.8293 55.943 77.8004 55.6261 77.7485 55.3126C77.6549 54.7774 77.5757 54.4486 77.5949 54.4438Z" fill="#263238"/>
<path d="M59.4868 46.4542C59.3869 46.3955 59.2936 46.3263 59.2084 46.2478L58.4884 45.6454L57.9892 45.2254C57.9039 45.1456 57.8087 45.077 57.706 45.0214C57.6562 44.9959 57.6011 44.9826 57.5452 44.9826C57.4892 44.9826 57.4341 44.9959 57.3844 45.0214C57.178 45.1294 57.0388 45.3934 56.8636 45.6142C56.6884 45.835 56.5156 46.0942 56.3332 46.3342C56.0452 46.723 55.7644 47.095 55.5076 47.4406L55.3516 47.647L55.402 47.3926C55.5396 46.6789 55.7395 45.9786 55.9996 45.2998C56.0956 45.0598 56.182 44.8534 56.2396 44.7214C56.2666 44.6505 56.3029 44.5835 56.3476 44.5222C56.3311 44.5954 56.3078 44.6669 56.278 44.7358C56.2276 44.8726 56.1532 45.0718 56.0668 45.3262C55.8321 46.0085 55.6484 46.7072 55.5172 47.4166L55.4092 47.3686L56.2324 46.2598L56.7628 45.5398L57.0172 45.2014C57.0979 45.0812 57.2066 44.9824 57.334 44.9134C57.4007 44.8842 57.4731 44.8705 57.5459 44.8734C57.6187 44.8763 57.6898 44.8957 57.754 44.9302C57.863 44.9916 57.9638 45.0666 58.054 45.1534L58.534 45.5854L59.2348 46.2166C59.3249 46.2891 59.4092 46.3685 59.4868 46.4542Z" fill="#263238"/>
<path d="M69.6193 44.4264C69.5915 44.458 69.5601 44.4862 69.5258 44.5104L69.2426 44.7312L68.1842 45.5256L64.6538 48.1248L64.601 48.1632L64.5649 48.108C64.5361 48.0648 64.5073 48.0168 64.4761 47.9712L62.7049 45.1728L62.7698 45.1944C62.0872 45.4655 61.4289 45.7939 60.8017 46.176C60.5761 46.3128 60.4009 46.416 60.2809 46.5048C60.2226 46.5488 60.1599 46.5866 60.0938 46.6176C60.1446 46.5647 60.2009 46.5172 60.2617 46.476C60.3769 46.392 60.5474 46.2696 60.7706 46.1232C61.3897 45.7202 62.0454 45.3763 62.7289 45.096L62.7698 45.0792L62.7938 45.1152C63.3146 45.924 63.9265 46.8816 64.5817 47.904C64.6129 47.9496 64.6417 47.9976 64.6705 48.0408L64.5793 48.024L68.1338 45.456L69.2138 44.6904L69.5114 44.4888C69.581 44.4432 69.6169 44.4216 69.6193 44.4264Z" fill="#263238"/>
<path d="M48.079 53.9709C48.0899 54.0262 48.0948 54.0826 48.0934 54.1389C48.0934 54.2637 48.0934 54.4245 48.1054 54.6189C48.1054 55.0533 48.127 55.6605 48.139 56.4045C48.1678 57.9117 48.2278 60.0045 48.307 62.2965C48.3862 64.5885 48.4318 66.6813 48.4366 68.1909C48.4366 68.9469 48.4366 69.5565 48.4366 69.9789C48.4366 70.1781 48.4366 70.3413 48.4246 70.4589C48.4272 70.516 48.4231 70.5732 48.4126 70.6293C48.4091 70.5726 48.4091 70.5157 48.4126 70.4589C48.4126 70.3365 48.4126 70.1733 48.3982 69.9789C48.3982 69.5421 48.379 68.9349 48.3646 68.1933C48.3382 66.6838 48.2758 64.5933 48.199 62.2989C48.1222 60.0045 48.0742 57.9141 48.0694 56.4045C48.0694 55.6509 48.0694 55.0389 48.0694 54.6189C48.0694 54.4173 48.0694 54.2565 48.0694 54.1389C48.069 54.0828 48.0722 54.0267 48.079 53.9709Z" fill="#263238"/>
<path d="M59.566 75.6478C59.558 75.6262 59.5532 75.6036 59.5516 75.5806C59.5516 75.5278 59.5516 75.4606 59.53 75.3766C59.5108 75.187 59.4844 74.9254 59.4532 74.5918C59.386 73.9102 59.3092 72.9118 59.2324 71.6998C59.1556 70.4878 59.0908 69.019 59.05 67.4014C59.0092 65.7838 59.0044 64.0006 59.05 62.1214C59.0956 60.2422 59.1796 58.4734 59.29 56.8582C59.4004 55.243 59.53 53.7886 59.6596 52.5718C59.7892 51.355 59.8996 50.3686 60.0052 49.6918C60.0532 49.3582 60.0892 49.099 60.1156 48.9118C60.13 48.8278 60.1396 48.7606 60.1492 48.7078C60.1504 48.6848 60.1552 48.6621 60.1636 48.6406C60.1673 48.6637 60.1673 48.6872 60.1636 48.7102C60.1636 48.763 60.1516 48.8302 60.1444 48.9142C60.1228 49.1014 60.094 49.363 60.0556 49.6966C59.974 50.3782 59.8684 51.3622 59.7508 52.5766C59.6332 53.791 59.5108 55.2478 59.4076 56.863C59.3044 58.4782 59.2252 60.2566 59.182 62.1238C59.1388 63.991 59.1508 65.7694 59.182 67.387C59.2132 69.0046 59.2732 70.459 59.3404 71.6806C59.4076 72.9022 59.4676 73.8934 59.5204 74.575C59.542 74.9086 59.5612 75.1726 59.5732 75.3622C59.5732 75.4462 59.5732 75.5134 59.5852 75.5662C59.5811 75.5939 59.5746 75.6212 59.566 75.6478Z" fill="#263238"/>
<path d="M52.4143 36.3647L52.1599 36.5327L51.4111 37.0127C51.0799 37.2263 50.6911 37.5311 50.2351 37.8671C49.9951 38.0399 49.7743 38.2487 49.5151 38.4599L49.1239 38.7887C48.9895 38.9039 48.8623 39.0287 48.7255 39.1607C47.3981 40.399 46.2321 41.7996 45.2551 43.3295L44.8279 44.0159C44.6767 44.2439 44.5615 44.4959 44.4223 44.7359C44.2831 44.9759 44.1463 45.2351 44.0215 45.4991C43.8967 45.7631 43.7815 46.0343 43.6519 46.3079C43.5919 46.4447 43.5247 46.5791 43.4671 46.7207C43.4095 46.8623 43.3591 47.0063 43.3039 47.1527C43.1959 47.4407 43.0807 47.7311 42.9751 48.0311C42.7975 48.6383 42.5719 49.2527 42.4375 49.9079C41.7533 52.7428 41.6391 55.6853 42.1015 58.5647C42.7032 62.2726 44.2558 65.7611 46.6079 68.69C48.9599 71.6188 52.0311 73.8879 55.5216 75.2758C59.0121 76.6638 62.8029 77.1232 66.5239 76.6092C70.2449 76.0952 73.7691 74.6253 76.7527 72.3431C77.506 71.7641 78.2225 71.1389 78.8983 70.4711L79.3783 69.9623C79.5415 69.7943 79.6999 69.6239 79.8583 69.4439L80.3143 68.9183C80.4583 68.7359 80.5999 68.5535 80.7439 68.3735C82.9148 65.5773 84.3632 62.2891 84.9607 58.7999C85.1012 57.9898 85.1965 57.1726 85.2463 56.3519C85.2703 55.9463 85.2703 55.5455 85.2847 55.1519C85.2991 54.7583 85.2559 54.3575 85.2415 53.9663C85.2415 53.7719 85.2247 53.5751 85.2175 53.3807C85.2103 53.1863 85.1743 52.9967 85.1551 52.8047C85.1071 52.4231 85.0615 52.0439 85.0159 51.6695C84.9703 51.2951 84.8719 50.9303 84.7999 50.5655C84.7397 50.2038 84.6596 49.8456 84.5599 49.4927L84.2623 48.4535C84.2156 48.283 84.1587 48.1155 84.0919 47.9519C84.0295 47.7863 83.9671 47.6207 83.9071 47.4575C83.7799 47.1335 83.6671 46.8023 83.5303 46.4975C83.3935 46.1927 83.2447 45.8831 83.1031 45.5831C82.0594 43.4133 80.6591 41.4338 78.9607 39.7271C77.6739 38.4485 76.238 37.3292 74.6839 36.3935L73.7671 35.8679C73.6287 35.7868 73.4861 35.7131 73.3399 35.6471L72.9367 35.4551L72.2167 35.1143C72.0007 35.0039 71.7871 34.9415 71.6071 34.8743L70.7719 34.5527L70.4887 34.4375L70.7767 34.5407L71.6143 34.8527C71.7967 34.9247 72.0103 34.9871 72.2287 35.0927L72.9487 35.4287L73.3543 35.6207C73.5013 35.685 73.6447 35.7571 73.7839 35.8367L74.7031 36.3599C76.2673 37.2897 77.7124 38.4068 79.0063 39.6863C80.7149 41.3918 82.1249 43.3721 83.1775 45.5447C83.3191 45.8495 83.4631 46.1543 83.6095 46.4663C83.7559 46.7783 83.8495 47.1071 83.9887 47.4263L84.1759 47.9207C84.2427 48.0851 84.2996 48.2534 84.3463 48.4247C84.4471 48.7703 84.5479 49.1159 84.6487 49.4687C84.7527 49.8229 84.8368 50.1827 84.9007 50.5463C84.9727 50.9111 85.0591 51.2663 85.1215 51.6527C85.1839 52.0391 85.2127 52.4111 85.2607 52.7951C85.2823 52.9871 85.3135 53.1791 85.3255 53.3735C85.3375 53.5679 85.3423 53.7647 85.3495 53.9615C85.3639 54.3551 85.3855 54.7511 85.3951 55.1615C85.4047 55.5719 85.3831 55.9655 85.3567 56.3615C85.1115 60.7548 83.5353 64.9695 80.8375 68.4455L80.4007 68.9927L79.9399 69.5231C79.7911 69.7031 79.6303 69.8759 79.4599 70.0439L78.9799 70.5575C78.3 71.2292 77.5785 71.8577 76.8199 72.4391C73.8219 74.7308 70.2812 76.2067 66.5431 76.7227C62.805 77.2388 58.9969 76.7775 55.4901 75.3837C51.9833 73.99 48.8974 71.7114 46.5334 68.7701C44.1693 65.8288 42.6077 62.3252 42.0007 58.6007C41.7572 57.0994 41.6767 55.5761 41.7607 54.0575C41.8212 52.6568 42.0231 51.2657 42.3631 49.9055C42.4975 49.2479 42.7255 48.6335 42.9031 48.0215C43.0111 47.7239 43.1287 47.4311 43.2391 47.1407C43.2943 46.9967 43.3495 46.8527 43.4023 46.7087C43.4551 46.5647 43.5295 46.4327 43.5895 46.2935C43.7167 46.0199 43.8295 45.7511 43.9615 45.4847C44.0935 45.2183 44.2351 44.9711 44.3671 44.7191C44.4991 44.4671 44.6239 44.2175 44.7751 43.9871L45.2071 43.3007C46.1893 41.7684 47.3645 40.369 48.7039 39.1367C48.8407 39.0095 48.9679 38.8799 49.1023 38.7647L49.4959 38.4359C49.7551 38.2271 49.9759 38.0207 50.2159 37.8479C50.6839 37.5119 51.0679 37.2119 51.4015 37.0007L52.1575 36.5207C52.3207 36.4151 52.4143 36.3647 52.4143 36.3647Z" fill="#263238"/>
</svg>
