<svg width="40" height="40" viewBox="0 0 40 40" fill="none" xmlns="http://www.w3.org/2000/svg">
<path d="M19.9997 3.3335C24.1685 7.89742 26.5376 13.8202 26.6663 20.0002C26.5376 26.1801 24.1685 32.1029 19.9997 36.6668M19.9997 3.3335C15.8309 7.89742 13.4618 13.8202 13.333 20.0002C13.4618 26.1801 15.8309 32.1029 19.9997 36.6668M19.9997 3.3335C10.7949 3.3335 3.33301 10.7954 3.33301 20.0002C3.33301 29.2049 10.7949 36.6668 19.9997 36.6668M19.9997 3.3335C29.2044 3.3335 36.6663 10.7954 36.6663 20.0002C36.6663 29.2049 29.2044 36.6668 19.9997 36.6668M4.16637 15.0002H35.833M4.16634 25.0002H35.833" stroke="#0E87FE" stroke-width="3" stroke-linecap="round" stroke-linejoin="round"/>
</svg>
