<svg width="20" height="20" viewBox="0 0 20 20" fill="none" xmlns="http://www.w3.org/2000/svg">
<g clip-path="url(#clip0_2136_6645)">
<path d="M2.00196 6.839L8.64178 10.6713C9.17945 10.9816 9.44829 11.1368 9.72985 11.1813C9.97855 11.2207 10.2331 11.1984 10.4712 11.1165C10.7407 11.0237 10.9786 10.8242 11.4542 10.4252L17.3276 5.49818M6.55166 16.4789L14.521 15.7817C15.8085 15.669 16.4522 15.6127 16.9221 15.3191C17.3353 15.0609 17.6563 14.6784 17.8388 14.2266C18.0463 13.7129 17.99 13.0692 17.8774 11.7817L17.4483 6.87749C17.3357 5.59001 17.2794 4.94627 16.9858 4.47644C16.7275 4.06317 16.3451 3.74226 15.8932 3.5597C15.3796 3.35216 14.7358 3.40848 13.4484 3.52112L5.479 4.21835C4.19152 4.33099 3.54778 4.38731 3.07795 4.6809C2.66468 4.93914 2.34377 5.32159 2.16121 5.77343C1.95367 6.2871 2.00999 6.93084 2.12263 8.21832L2.5517 13.1225C2.66434 14.41 2.72066 15.0538 3.01424 15.5236C3.27248 15.9369 3.65493 16.2578 4.10677 16.4403C4.62044 16.6479 5.26418 16.5915 6.55166 16.4789Z" stroke="white" stroke-width="1.66667" stroke-linecap="round" stroke-linejoin="round"/>
</g>
<defs>
<clipPath id="clip0_2136_6645">
<rect width="18" height="18" fill="white" transform="translate(0 1.60903) scale(1.02562) rotate(-5)"/>
</clipPath>
</defs>
</svg>
