<svg width="87" height="89" viewBox="0 0 87 89" fill="none" xmlns="http://www.w3.org/2000/svg">
<path fill-rule="evenodd" clip-rule="evenodd" d="M57.3252 84.5607H57.3142C56.8446 84.5607 56.4328 84.747 56.0899 85.0146C56.0238 85.067 55.9411 85.0974 55.8819 85.1567C55.5528 85.4878 55.3627 85.9403 55.3214 86.4341C55.3173 86.4893 55.2897 86.5376 55.2897 86.5941C55.2897 86.8452 55.3489 87.0797 55.4329 87.3005C55.4605 87.3722 55.4949 87.4343 55.5293 87.5019C55.6037 87.6467 55.6932 87.7805 55.8007 87.9033C55.853 87.964 55.8998 88.0261 55.959 88.0799C56.1215 88.2275 56.3006 88.3572 56.5044 88.4468H56.5058C56.7578 88.5586 57.0332 88.6262 57.3252 88.6262C58.23 88.6262 58.9695 88.0247 59.2326 87.2039C59.3028 87.0163 59.351 86.8204 59.3524 86.6052C59.3524 86.601 59.3551 86.5983 59.3551 86.5941C59.3551 85.4698 58.4462 84.5607 57.3252 84.5607ZM85.7234 60.3213C85.5264 60.2386 85.3074 60.2068 85.083 60.1917C85.043 60.1903 85.0114 60.1682 84.97 60.1682H84.959C83.838 60.1682 82.9346 61.0784 82.9346 62.2023C82.9346 62.4754 82.9924 62.7332 83.0902 62.9677C83.1591 63.1359 83.272 63.2711 83.378 63.4131C83.4221 63.4669 83.4469 63.5331 83.4937 63.5827C83.8311 63.9413 84.2966 64.1619 84.8172 64.2033C84.8199 64.2033 84.8227 64.2047 84.8254 64.2061V64.2047C84.875 64.2088 84.9191 64.2336 84.97 64.2336C86.0911 64.2336 87 63.3235 87 62.2023C87 61.3473 86.4698 60.6219 85.7234 60.3213ZM15.8579 24.3925H15.8469C14.7259 24.3925 13.8224 25.3027 13.8224 26.4252C13.8224 27.5464 14.7369 28.4579 15.8579 28.4579C16.9775 28.4579 17.8878 27.5464 17.8878 26.4252C17.8878 25.3027 16.9775 24.3925 15.8579 24.3925ZM15.8579 72.3645H15.8469C14.7259 72.3645 13.8224 73.2736 13.8224 74.3979C13.8224 75.5194 14.7369 76.4299 15.8579 76.4299C16.9775 76.4299 17.8878 75.5194 17.8878 74.3979C17.8878 73.2736 16.9775 72.3645 15.8579 72.3645ZM29.6803 40.6542C30.8013 40.6542 31.7103 39.7427 31.7103 38.6215C31.7103 37.4976 30.8013 36.5888 29.6803 36.5888H29.6707C28.5483 36.5888 27.6449 37.4976 27.6449 38.6215C27.6449 39.7427 28.5593 40.6542 29.6803 40.6542ZM15.8579 12.1963H15.8469C14.7259 12.1963 13.8224 13.1064 13.8224 14.229C13.8224 15.3515 14.7369 16.2617 15.8579 16.2617C16.9775 16.2617 17.8878 15.3515 17.8878 14.229C17.8878 13.1064 16.9775 12.1963 15.8579 12.1963ZM15.8579 47.972H15.8469C14.7259 47.972 13.8224 48.8821 13.8224 50.0047C13.8224 51.1272 14.7369 52.0374 15.8579 52.0374C16.9775 52.0374 17.8878 51.1272 17.8878 50.0047C17.8878 48.8821 16.9775 47.972 15.8579 47.972ZM15.8579 60.1682H15.8469C14.7259 60.1682 13.8224 61.0784 13.8224 62.2023C13.8224 63.3235 14.7369 64.2336 15.8579 64.2336C16.9775 64.2336 17.8878 63.3235 17.8878 62.2023C17.8878 61.0784 16.9775 60.1682 15.8579 60.1682ZM29.6803 16.2617C30.8013 16.2617 31.7103 15.3515 31.7103 14.229C31.7103 13.1064 30.8013 12.1963 29.6803 12.1963H29.6707C28.5483 12.1963 27.6449 13.1064 27.6449 14.229C27.6449 15.3515 28.5593 16.2617 29.6803 16.2617ZM29.6803 28.4579C30.8013 28.4579 31.7103 27.5464 31.7103 26.4252C31.7103 25.3027 30.8013 24.3925 29.6803 24.3925H29.6707C28.5483 24.3925 27.6449 25.3027 27.6449 26.4252C27.6449 27.5464 28.5593 28.4579 29.6803 28.4579ZM29.6803 4.06542C30.8013 4.06542 31.7103 3.15525 31.7103 2.03271C31.7103 0.910169 30.8013 0 29.6803 0H29.6707C28.5483 0 27.6449 0.910169 27.6449 2.03271C27.6449 3.15525 28.5593 4.06542 29.6803 4.06542ZM15.8579 36.5888H15.8469C14.7259 36.5888 13.8224 37.4976 13.8224 38.6215C13.8224 39.7427 14.7369 40.6542 15.8579 40.6542C16.9775 40.6542 17.8878 39.7427 17.8878 38.6215C17.8878 37.4976 16.9775 36.5888 15.8579 36.5888ZM2.03684 47.972H2.02445C0.903427 47.972 0 48.8821 0 50.0047C0 51.1272 0.915821 52.0374 2.03684 52.0374C3.15786 52.0374 4.06542 51.1272 4.06542 50.0047C4.06542 48.8821 3.15786 47.972 2.03684 47.972ZM2.03684 36.5888H2.02445C0.903427 36.5888 0 37.4976 0 38.6215C0 39.7427 0.915821 40.6542 2.03684 40.6542C3.15786 40.6542 4.06542 39.7427 4.06542 38.6215C4.06542 37.4976 3.15786 36.5888 2.03684 36.5888ZM2.03615 60.1682H2.02376C1.76889 60.1682 1.53056 60.2261 1.30876 60.3144C1.19579 60.3572 1.10211 60.4261 1.00017 60.4882C0.914754 60.5419 0.827963 60.5902 0.750815 60.6578C0.617183 60.7667 0.512483 60.8936 0.410537 61.0343C0.39125 61.0632 0.371963 61.0894 0.352676 61.1211C0.242465 61.2921 0.161184 61.4714 0.106078 61.6728L0.104701 61.6741V61.6755C0.0578609 61.8465 0 62.0148 0 62.2023C0 63.0022 0.475286 63.6793 1.14895 64.0102V64.0116H1.15033C1.41897 64.1426 1.70828 64.2295 2.02513 64.2309C2.02927 64.2309 2.03202 64.2336 2.03615 64.2336C3.15755 64.2336 4.06542 63.3235 4.06542 62.2023C4.06542 61.921 4.00894 61.6535 3.90561 61.4107C3.5984 60.6812 2.87652 60.1682 2.03615 60.1682ZM71.1476 36.5888H71.1366C70.0156 36.5888 69.1122 37.4976 69.1122 38.6215C69.1122 39.7427 70.0266 40.6542 71.1476 40.6542C72.2686 40.6542 73.1776 39.7427 73.1776 38.6215C73.1776 37.4976 72.2686 36.5888 71.1476 36.5888ZM2.03615 24.3925H2.02376C1.79231 24.3925 1.57878 24.4435 1.37764 24.5235C1.19442 24.587 1.03461 24.6821 0.880313 24.7924C0.878935 24.7924 0.878935 24.7924 0.877558 24.7938C0.358187 25.162 0 25.7385 0 26.4252C0 26.5121 0.038574 26.5852 0.0495951 26.6707H0.0482175C0.0482175 26.6735 0.0495951 26.6748 0.0509727 26.6762C0.114344 27.1713 0.336145 27.6085 0.690198 27.9256C0.738416 27.9698 0.799032 27.9946 0.850005 28.0332C0.989147 28.1352 1.12278 28.2414 1.28672 28.3062C1.51678 28.4014 1.76751 28.4579 2.03615 28.4579C2.87652 28.4579 3.5984 27.9463 3.90561 27.2154C4.00894 26.9727 4.06542 26.7052 4.06542 26.4252C4.06542 26.1453 4.00894 25.8778 3.90561 25.635C3.5984 24.9041 2.87652 24.3925 2.03615 24.3925ZM71.1476 47.972H71.1366C70.0156 47.972 69.1122 48.8821 69.1122 50.0047C69.1122 51.1272 70.0266 52.0374 71.1476 52.0374C72.2686 52.0374 73.1776 51.1272 73.1776 50.0047C73.1776 48.8821 72.2686 47.972 71.1476 47.972ZM71.1476 24.3925H71.1366C70.0156 24.3925 69.1122 25.3027 69.1122 26.4252C69.1122 27.5464 70.0266 28.4579 71.1476 28.4579C72.2686 28.4579 73.1776 27.5464 73.1776 26.4252C73.1776 25.3027 72.2686 24.3925 71.1476 24.3925ZM71.1476 72.3645H71.1366C70.0156 72.3645 69.1122 73.2736 69.1122 74.3979C69.1122 75.5194 70.0266 76.4299 71.1476 76.4299C72.2686 76.4299 73.1776 75.5194 73.1776 74.3979C73.1776 73.2736 72.2686 72.3645 71.1476 72.3645ZM71.1476 60.1682H71.1366C70.0156 60.1682 69.1122 61.0784 69.1122 62.2023C69.1122 63.3235 70.0266 64.2336 71.1476 64.2336C72.2686 64.2336 73.1776 63.3235 73.1776 62.2023C73.1776 61.0784 72.2686 60.1682 71.1476 60.1682ZM57.3259 4.06542C58.4465 4.06542 59.3551 3.15525 59.3551 2.03271C59.3551 2.03271 59.3538 2.03133 59.3538 2.02995C59.3538 1.70036 59.2574 1.40111 59.117 1.1253C59.1032 1.0991 59.0853 1.07979 59.0702 1.05497C58.9229 0.794329 58.7219 0.577819 58.4782 0.40406H58.4768C58.145 0.168243 57.7623 0 57.3259 0H57.3149C56.1942 0 55.2897 0.910169 55.2897 2.03271C55.2897 3.15525 56.2052 4.06542 57.3259 4.06542ZM71.1476 12.1963H71.1366C70.0156 12.1963 69.1122 13.1064 69.1122 14.229C69.1122 15.3515 70.0266 16.2617 71.1476 16.2617C72.2686 16.2617 73.1776 15.3515 73.1776 14.229C73.1776 13.1064 72.2686 12.1963 71.1476 12.1963ZM57.3252 24.3925H57.3142C56.1931 24.3925 55.2897 25.3027 55.2897 26.4252C55.2897 27.5464 56.2042 28.4579 57.3252 28.4579C58.4462 28.4579 59.3551 27.5464 59.3551 26.4252C59.3551 25.3027 58.4462 24.3925 57.3252 24.3925ZM57.3252 60.1682H57.3142C56.1931 60.1682 55.2897 61.0784 55.2897 62.2023C55.2897 63.3235 56.2042 64.2336 57.3252 64.2336C58.4462 64.2336 59.3551 63.3235 59.3551 62.2023C59.3551 61.0784 58.4462 60.1682 57.3252 60.1682ZM57.3252 47.972H57.3142C56.1931 47.972 55.2897 48.8821 55.2897 50.0047C55.2897 51.1272 56.2042 52.0374 57.3252 52.0374C58.4462 52.0374 59.3551 51.1272 59.3551 50.0047C59.3551 48.8821 58.4462 47.972 57.3252 47.972ZM57.3252 36.5888H57.3142C56.1931 36.5888 55.2897 37.4976 55.2897 38.6215C55.2897 39.7427 56.2042 40.6542 57.3252 40.6542C58.4462 40.6542 59.3551 39.7427 59.3551 38.6215C59.3551 37.4976 58.4462 36.5888 57.3252 36.5888ZM57.3252 72.3645H57.3142C56.1931 72.3645 55.2897 73.2736 55.2897 74.3979C55.2897 75.5194 56.2042 76.4299 57.3252 76.4299C58.4462 76.4299 59.3551 75.5194 59.3551 74.3979C59.3551 73.2736 58.4462 72.3645 57.3252 72.3645ZM29.6803 52.0374C30.8013 52.0374 31.7103 51.1272 31.7103 50.0047C31.7103 48.8821 30.8013 47.972 29.6803 47.972H29.6707C28.5483 47.972 27.6449 48.8821 27.6449 50.0047C27.6449 51.1272 28.5593 52.0374 29.6803 52.0374ZM31.1153 85.1567C31.0547 85.096 30.9721 85.0656 30.9046 85.0146C30.5617 84.747 30.1499 84.5607 29.6803 84.5607H29.6693C28.5483 84.5607 27.6449 85.4698 27.6449 86.5941C27.6449 87.146 27.8693 87.6426 28.2274 88.0095C28.2288 88.0109 28.2288 88.0123 28.2302 88.0123C28.5992 88.3903 29.1116 88.6262 29.6803 88.6262C29.7877 88.6262 29.88 88.582 29.9833 88.5655C29.9847 88.5655 29.9861 88.5641 29.9874 88.5641C30.4667 88.4896 30.8854 88.2689 31.1897 87.9199C31.2393 87.8661 31.2682 87.7998 31.3109 87.7405C31.4032 87.6095 31.5009 87.4853 31.5615 87.3349C31.6524 87.1101 31.7061 86.8645 31.7075 86.6024C31.7075 86.5997 31.7103 86.5983 31.7103 86.5941C31.7103 86.0782 31.5023 85.6202 31.187 85.2615C31.158 85.2284 31.1456 85.1857 31.1153 85.1567ZM84.1786 28.298C84.4224 28.4014 84.6897 28.4579 84.9707 28.4579C85.2669 28.4579 85.5438 28.3876 85.7973 28.2732C85.8056 28.2691 85.8111 28.2622 85.8194 28.258C86.0673 28.1423 86.2809 27.9796 86.4613 27.7783C86.7892 27.4185 87 26.9498 87 26.4259C87 25.3038 86.0908 24.3925 84.9707 24.3925H84.9597C83.8383 24.3925 82.9346 25.3038 82.9346 26.4259C82.9346 27.2669 83.4484 27.9892 84.1786 28.298ZM84.9707 40.6542C86.0908 40.6542 87 39.7427 87 38.6215C87 37.4976 86.0908 36.5888 84.9707 36.5888H84.9597C83.8383 36.5888 82.9346 37.4976 82.9346 38.6215C82.9346 39.7427 83.848 40.6542 84.9707 40.6542ZM84.9707 52.0374C86.0908 52.0374 87 51.1272 87 50.0047C87 48.8821 86.0908 47.972 84.9707 47.972H84.9597C83.8383 47.972 82.9346 48.8821 82.9346 50.0047C82.9346 51.1272 83.848 52.0374 84.9707 52.0374ZM43.5028 24.3925H43.4931C42.3721 24.3925 41.4673 25.3027 41.4673 26.4252C41.4673 27.5464 42.3817 28.4579 43.5028 28.4579C44.6238 28.4579 45.5327 27.5464 45.5327 26.4252C45.5327 25.3027 44.6238 24.3925 43.5028 24.3925ZM43.5028 12.1963H43.4931C42.3721 12.1963 41.4673 13.1064 41.4673 14.229C41.4673 15.3515 42.3817 16.2617 43.5028 16.2617C44.6238 16.2617 45.5327 15.3515 45.5327 14.229C45.5327 13.1064 44.6238 12.1963 43.5028 12.1963ZM43.5028 0H43.4931C42.3721 0 41.4673 0.910169 41.4673 2.03271C41.4673 3.15525 42.3817 4.06542 43.5028 4.06542C44.6238 4.06542 45.5327 3.15525 45.5327 2.03271C45.5327 0.910169 44.6238 0 43.5028 0ZM29.6803 76.4299C30.8013 76.4299 31.7103 75.5194 31.7103 74.3979C31.7103 73.2736 30.8013 72.3645 29.6803 72.3645H29.6707C28.5483 72.3645 27.6449 73.2736 27.6449 74.3979C27.6449 75.5194 28.5593 76.4299 29.6803 76.4299ZM29.6803 64.2336C30.8013 64.2336 31.7103 63.3235 31.7103 62.2023C31.7103 61.0784 30.8013 60.1682 29.6803 60.1682H29.6707C28.5483 60.1682 27.6449 61.0784 27.6449 62.2023C27.6449 63.3235 28.5593 64.2336 29.6803 64.2336ZM43.5028 36.5888H43.4931C42.3721 36.5888 41.4673 37.4976 41.4673 38.6215C41.4673 39.7427 42.3817 40.6542 43.5028 40.6542C44.6238 40.6542 45.5327 39.7427 45.5327 38.6215C45.5327 37.4976 44.6238 36.5888 43.5028 36.5888ZM57.3252 12.1963H57.3142C56.1931 12.1963 55.2897 13.1064 55.2897 14.229C55.2897 15.3515 56.2042 16.2617 57.3252 16.2617C58.4462 16.2617 59.3551 15.3515 59.3551 14.229C59.3551 13.1064 58.4462 12.1963 57.3252 12.1963ZM43.5028 72.3645H43.4931C42.3721 72.3645 41.4673 73.2736 41.4673 74.3979C41.4673 75.5194 42.3817 76.4299 43.5028 76.4299C44.6238 76.4299 45.5327 75.5194 45.5327 74.3979C45.5327 73.2736 44.6238 72.3645 43.5028 72.3645ZM43.5028 84.5607H43.4931C42.3721 84.5607 41.4673 85.4712 41.4673 86.5941C41.4673 87.7171 42.3817 88.6262 43.5028 88.6262C44.6238 88.6262 45.5327 87.7171 45.5327 86.5941C45.5327 85.4712 44.6238 84.5607 43.5028 84.5607ZM43.5028 60.1682H43.4931C42.3721 60.1682 41.4673 61.0784 41.4673 62.2023C41.4673 63.3235 42.3817 64.2336 43.5028 64.2336C44.6238 64.2336 45.5327 63.3235 45.5327 62.2023C45.5327 61.0784 44.6238 60.1682 43.5028 60.1682ZM43.5028 47.972H43.4931C42.3721 47.972 41.4673 48.8821 41.4673 50.0047C41.4673 51.1272 42.3817 52.0374 43.5028 52.0374C44.6238 52.0374 45.5327 51.1272 45.5327 50.0047C45.5327 48.8821 44.6238 47.972 43.5028 47.972Z" fill="#5207CD"/>
</svg>
