<svg width="40" height="40" viewBox="0 0 40 40" fill="none" xmlns="http://www.w3.org/2000/svg">
<path d="M20.0007 5.00016H27.0007C29.8009 5.00016 31.201 5.00016 32.2706 5.54513C33.2114 6.0245 33.9763 6.7894 34.4557 7.73021C35.0007 8.79977 35.0007 10.1999 35.0007 13.0002V27.0002C35.0007 29.8004 35.0007 31.2006 34.4557 32.2701C33.9763 33.2109 33.2114 33.9758 32.2706 34.4552C31.201 35.0002 29.8009 35.0002 27.0007 35.0002H13.0007C10.2004 35.0002 8.80026 35.0002 7.7307 34.4552C6.78989 33.9758 6.02499 33.2109 5.54562 32.2701C5.00065 31.2006 5.00065 29.8004 5.00065 27.0002V20.0002M13.334 21.6668V28.3335M26.6673 18.3335V28.3335M20.0007 11.6668V28.3335M3.33398 8.3335L8.33398 3.3335M8.33398 3.3335L13.334 8.3335M8.33398 3.3335L8.33398 13.3335" stroke="#F9F9F9" stroke-width="2" stroke-linecap="round" stroke-linejoin="round"/>
</svg>
