<svg width="19" height="19" viewBox="0 0 19 19" fill="none" xmlns="http://www.w3.org/2000/svg">
<g clip-path="url(#clip0_808_82697)">
<path d="M12.3335 5.75C12.3335 5.05252 12.3335 4.70378 12.2568 4.41766C12.0488 3.6412 11.4423 3.03472 10.6658 2.82667C10.3797 2.75 10.031 2.75 9.3335 2.75C8.63602 2.75 8.28728 2.75 8.00115 2.82667C7.2247 3.03472 6.61821 3.6412 6.41016 4.41766C6.3335 4.70378 6.3335 5.05252 6.3335 5.75M4.2335 16.25H14.4335C15.2736 16.25 15.6936 16.25 16.0145 16.0865C16.2967 15.9427 16.5262 15.7132 16.67 15.431C16.8335 15.1101 16.8335 14.6901 16.8335 13.85V8.15C16.8335 7.30992 16.8335 6.88988 16.67 6.56901C16.5262 6.28677 16.2967 6.0573 16.0145 5.91349C15.6936 5.75 15.2736 5.75 14.4335 5.75H4.2335C3.39342 5.75 2.97338 5.75 2.65251 5.91349C2.37027 6.0573 2.1408 6.28677 1.99699 6.56901C1.8335 6.88988 1.8335 7.30992 1.8335 8.15V13.85C1.8335 14.6901 1.8335 15.1101 1.99699 15.431C2.1408 15.7132 2.37027 15.9427 2.65251 16.0865C2.97338 16.25 3.39342 16.25 4.2335 16.25Z" stroke="#667085" stroke-width="1.67" stroke-linecap="round" stroke-linejoin="round"/>
</g>
<defs>
<clipPath id="clip0_808_82697">
<rect width="18" height="18" fill="white" transform="translate(0.333496 0.5)"/>
</clipPath>
</defs>
</svg>
