<svg width="19" height="19" viewBox="0 0 19 19" fill="none" xmlns="http://www.w3.org/2000/svg">
<path d="M16.4165 14.0002L15.6664 14.8207C15.2686 15.2558 14.7291 15.5002 14.1666 15.5002C13.6041 15.5002 13.0646 15.2558 12.6668 14.8207C12.2684 14.3865 11.729 14.1427 11.1666 14.1427C10.6043 14.1427 10.0649 14.3865 9.66648 14.8207M2.9165 15.5002H4.17241C4.5393 15.5002 4.72274 15.5002 4.89537 15.4587C5.04843 15.422 5.19474 15.3614 5.32895 15.2791C5.48033 15.1864 5.61004 15.0567 5.86947 14.7972L15.2915 5.37517C15.9128 4.75385 15.9128 3.74649 15.2915 3.12517C14.6702 2.50385 13.6628 2.50385 13.0415 3.12517L3.61945 12.5472C3.36002 12.8067 3.23031 12.9364 3.13754 13.0877C3.0553 13.222 2.99469 13.3683 2.95795 13.5213C2.9165 13.694 2.9165 13.8774 2.9165 14.2443V15.5002Z" stroke="#667085" stroke-width="1.67" stroke-linecap="round" stroke-linejoin="round"/>
</svg>
