<svg width="19" height="19" viewBox="0 0 19 19" fill="none" xmlns="http://www.w3.org/2000/svg">
<path d="M12.4835 16.25H5.53202C5.07766 16.25 4.85048 16.25 4.74528 16.1602C4.654 16.0822 4.60556 15.9652 4.61498 15.8456C4.62584 15.7077 4.78648 15.547 5.10776 15.2257L11.485 8.84853C11.782 8.55152 11.9305 8.40301 12.1017 8.34737C12.2524 8.29842 12.4146 8.29842 12.5653 8.34737C12.7365 8.40301 12.885 8.55152 13.182 8.84853L16.0835 11.75V12.65M12.4835 16.25C13.7436 16.25 14.3737 16.25 14.855 16.0048C15.2783 15.789 15.6225 15.4448 15.8383 15.0215C16.0835 14.5402 16.0835 13.9101 16.0835 12.65M12.4835 16.25H6.1835C4.92338 16.25 4.29332 16.25 3.81202 16.0048C3.38865 15.789 3.04445 15.4448 2.82873 15.0215C2.5835 14.5402 2.5835 13.9101 2.5835 12.65V6.35C2.5835 5.08988 2.5835 4.45982 2.82873 3.97852C3.04445 3.55516 3.38865 3.21095 3.81202 2.99524C4.29332 2.75 4.92338 2.75 6.1835 2.75H12.4835C13.7436 2.75 14.3737 2.75 14.855 2.99524C15.2783 3.21095 15.6225 3.55516 15.8383 3.97852C16.0835 4.45982 16.0835 5.08988 16.0835 6.35V12.65M8.2085 6.875C8.2085 7.70343 7.53692 8.375 6.7085 8.375C5.88007 8.375 5.2085 7.70343 5.2085 6.875C5.2085 6.04657 5.88007 5.375 6.7085 5.375C7.53692 5.375 8.2085 6.04657 8.2085 6.875Z" stroke="#667085" stroke-width="1.67" stroke-linecap="round" stroke-linejoin="round"/>
</svg>
