<svg width="13" height="17" viewBox="0 0 13 17" fill="none" xmlns="http://www.w3.org/2000/svg">
<path d="M10.833 6.125C10.833 7.55737 10.1461 8.82875 9.07951 9.62762L10.1295 11.0276C10.8917 10.4576 11.5103 9.71765 11.9362 8.86656C12.3622 8.01546 12.5836 7.07672 12.583 6.125H10.833ZM6.45801 1.75C7.61833 1.75 8.73113 2.21094 9.5516 3.03141C10.3721 3.85188 10.833 4.96468 10.833 6.125H12.583C12.583 4.50055 11.9377 2.94263 10.789 1.79397C9.64038 0.64531 8.08246 0 6.45801 0V1.75ZM2.08301 6.125C2.08301 4.96468 2.54394 3.85188 3.36442 3.03141C4.18489 2.21094 5.29769 1.75 6.45801 1.75V0C4.83356 0 3.27564 0.64531 2.12698 1.79397C0.97832 2.94263 0.333009 4.50055 0.333009 6.125H2.08301ZM3.83651 9.62762C3.2917 9.22063 2.84946 8.69203 2.54503 8.08393C2.2406 7.47583 2.08239 6.80504 2.08301 6.125H0.333009C0.332396 7.07672 0.553859 8.01546 0.979787 8.86656C1.40571 9.71765 2.02435 10.4576 2.78651 11.0276L3.83651 9.62762ZM5.58038 14.6501C5.55271 13.3159 5.27706 11.9985 4.76751 10.7651L3.15051 11.4345C3.57576 12.4644 3.80763 13.5669 3.83126 14.6869L5.58038 14.6501ZM7.63226 14.1846C7.26768 14.367 6.86564 14.4619 6.45801 14.4619C6.05037 14.4619 5.64834 14.367 5.28376 14.1846L4.50151 15.75C5.10898 16.0537 5.77883 16.2118 6.45801 16.2118C7.13718 16.2118 7.80703 16.0537 8.41451 15.75L7.63226 14.1846ZM8.14851 10.766C7.63876 11.999 7.36282 13.3162 7.33476 14.6501L9.08476 14.6869C9.10838 13.5669 9.34026 12.4644 9.76551 11.4345L8.14851 10.766ZM8.41451 15.75C8.61244 15.6506 8.77947 15.4991 8.89759 15.3117C9.01571 15.1244 9.08042 14.9083 9.08476 14.6869L7.33476 14.6501C7.33717 14.5528 7.36616 14.4579 7.4186 14.3759C7.47104 14.2938 7.54492 14.2277 7.63226 14.1846L8.41451 15.75ZM3.83126 14.6869C3.84001 15.1279 4.08851 15.5435 4.50151 15.75L5.28376 14.1846C5.37109 14.2277 5.44498 14.2938 5.49742 14.3759C5.54986 14.4579 5.57885 14.5528 5.58126 14.6501L3.83126 14.6869ZM2.78651 11.0276C2.91776 11.1274 2.99563 11.1851 3.04988 11.2289C3.10501 11.2744 3.09451 11.2726 3.07001 11.2411L4.45251 10.1684C4.28888 9.95662 4.03513 9.77637 3.83651 9.62762L2.78651 11.0276ZM4.76751 10.7651C4.69926 10.5997 4.61263 10.374 4.45251 10.1684L3.07001 11.2411C3.05863 11.2254 3.05601 11.2175 3.06738 11.2411C3.09531 11.3051 3.12273 11.3692 3.14963 11.4336L4.76751 10.7651ZM9.07951 9.62762C8.88088 9.77637 8.62626 9.9575 8.46263 10.1684L9.84601 11.2411C9.82238 11.2717 9.81101 11.2744 9.86613 11.2297C9.92038 11.1851 9.99738 11.1274 10.1295 11.0285L9.07951 9.62762ZM9.76551 11.4345L9.81801 11.3094L9.84863 11.2411C9.86001 11.2175 9.85738 11.2254 9.84601 11.2411L8.46263 10.1684C8.30251 10.3749 8.21676 10.5997 8.14851 10.766L9.76551 11.4345Z" fill="#667085"/>
<path d="M9.07584 11.375C8.30097 11.893 7.38988 12.1694 6.45784 12.1694C5.5258 12.1694 4.61471 11.893 3.83984 11.375" stroke="#667085" stroke-width="1.66667"/>
</svg>
