<svg width="19" height="19" viewBox="0 0 19 19" fill="none" xmlns="http://www.w3.org/2000/svg">
<path d="M16.0835 9.5L7.0835 9.5M16.0835 5L7.0835 5M16.0835 14L7.0835 14M4.0835 9.5C4.0835 9.91421 3.74771 10.25 3.3335 10.25C2.91928 10.25 2.5835 9.91421 2.5835 9.5C2.5835 9.08579 2.91928 8.75 3.3335 8.75C3.74771 8.75 4.0835 9.08579 4.0835 9.5ZM4.0835 5C4.0835 5.41421 3.74771 5.75 3.3335 5.75C2.91928 5.75 2.5835 5.41421 2.5835 5C2.5835 4.58579 2.91928 4.25 3.3335 4.25C3.74771 4.25 4.0835 4.58579 4.0835 5ZM4.0835 14C4.0835 14.4142 3.74771 14.75 3.3335 14.75C2.91928 14.75 2.5835 14.4142 2.5835 14C2.5835 13.5858 2.91928 13.25 3.3335 13.25C3.74771 13.25 4.0835 13.5858 4.0835 14Z" stroke="#667085" stroke-width="1.67" stroke-linecap="round" stroke-linejoin="round"/>
</svg>
