<svg width="19" height="19" viewBox="0 0 19 19" fill="none" xmlns="http://www.w3.org/2000/svg">
<g clip-path="url(#clip0_808_82685)">
<path d="M5.23728 8.9216C5.19066 8.62117 5.16648 8.31339 5.16648 8C5.16648 4.68629 7.87044 2 11.2059 2C14.5415 2 17.2454 4.68629 17.2454 8C17.2454 8.74855 17.1074 9.46509 16.8554 10.1259C16.803 10.2631 16.7768 10.3317 16.765 10.3853C16.7532 10.4384 16.7486 10.4757 16.7474 10.5301C16.7461 10.5849 16.7535 10.6454 16.7684 10.7662L17.0703 13.2189C17.103 13.4844 17.1193 13.6172 17.0752 13.7137C17.0365 13.7982 16.9678 13.8654 16.8823 13.9021C16.7848 13.9441 16.6525 13.9247 16.3878 13.8859L13.9988 13.5357C13.8741 13.5174 13.8117 13.5083 13.7549 13.5086C13.6987 13.5089 13.6599 13.513 13.6049 13.5246C13.5493 13.5363 13.4783 13.5629 13.3362 13.6161C12.6738 13.8642 11.9558 14 11.2059 14C10.8923 14 10.5842 13.9762 10.2835 13.9305M6.39019 17C8.61386 17 10.4165 15.1532 10.4165 12.875C10.4165 10.5968 8.61386 8.75 6.39019 8.75C4.16652 8.75 2.36387 10.5968 2.36387 12.875C2.36387 13.3329 2.43671 13.7735 2.57117 14.185C2.628 14.359 2.65642 14.446 2.66575 14.5055C2.67548 14.5675 2.67719 14.6023 2.67356 14.665C2.67009 14.7251 2.65506 14.793 2.62501 14.9287L2.1665 17L4.41261 16.6932C4.5352 16.6765 4.5965 16.6681 4.65003 16.6685C4.70639 16.6689 4.73631 16.6719 4.79158 16.683C4.84408 16.6934 4.92212 16.721 5.07821 16.776C5.48945 16.9212 5.93083 17 6.39019 17Z" stroke="#667085" stroke-width="1.67" stroke-linecap="round" stroke-linejoin="round"/>
</g>
<defs>
<clipPath id="clip0_808_82685">
<rect width="18" height="18" fill="white" transform="translate(0.666504 0.5)"/>
</clipPath>
</defs>
</svg>
