<svg width="19" height="19" viewBox="0 0 19 19" fill="none" xmlns="http://www.w3.org/2000/svg">
<path d="M6.6665 5.75H12.6665M9.6665 5.75V13.25M6.5165 16.25H12.8165C14.0766 16.25 14.7067 16.25 15.188 16.0048C15.6113 15.789 15.9556 15.4448 16.1713 15.0215C16.4165 14.5402 16.4165 13.9101 16.4165 12.65V6.35C16.4165 5.08988 16.4165 4.45982 16.1713 3.97852C15.9556 3.55516 15.6113 3.21095 15.188 2.99524C14.7067 2.75 14.0766 2.75 12.8165 2.75H6.5165C5.25639 2.75 4.62633 2.75 4.14503 2.99524C3.72166 3.21095 3.37745 3.55516 3.16174 3.97852C2.9165 4.45982 2.9165 5.08988 2.9165 6.35V12.65C2.9165 13.9101 2.9165 14.5402 3.16174 15.0215C3.37745 15.4448 3.72166 15.789 4.14503 16.0048C4.62633 16.25 5.25639 16.25 6.5165 16.25Z" stroke="#667085" stroke-width="1.67" stroke-linecap="round" stroke-linejoin="round"/>
</svg>
