<svg width="19" height="19" viewBox="0 0 19 19" fill="none" xmlns="http://www.w3.org/2000/svg">
<path d="M15.3335 16.25C15.3335 15.2033 15.3335 14.68 15.2043 14.2541C14.9135 13.2953 14.1632 12.545 13.2044 12.2542C12.7785 12.125 12.2552 12.125 11.2085 12.125H7.4585C6.41182 12.125 5.88849 12.125 5.46264 12.2542C4.50384 12.545 3.75353 13.2953 3.46268 14.2541C3.3335 14.68 3.3335 15.2033 3.3335 16.25M12.7085 6.125C12.7085 7.98896 11.1975 9.5 9.3335 9.5C7.46953 9.5 5.9585 7.98896 5.9585 6.125C5.9585 4.26104 7.46953 2.75 9.3335 2.75C11.1975 2.75 12.7085 4.26104 12.7085 6.125Z" stroke="#667085" stroke-width="1.67" stroke-linecap="round" stroke-linejoin="round"/>
</svg>
