<svg width="18" height="19" viewBox="0 0 18 19" fill="none" xmlns="http://www.w3.org/2000/svg">
<path d="M16.5 7.19853C16.5 6.74417 16.5 6.51699 16.4102 6.41179C16.3322 6.32051 16.2152 6.27207 16.0956 6.28149C15.9577 6.29234 15.797 6.45298 15.4757 6.77426L12.75 9.5L15.4757 12.2257C15.797 12.547 15.9577 12.7077 16.0956 12.7185C16.2152 12.7279 16.3322 12.6795 16.4102 12.5882C16.5 12.483 16.5 12.2558 16.5 11.8015V7.19853Z" stroke="#667085" stroke-width="1.67" stroke-linecap="round" stroke-linejoin="round"/>
<path d="M1.5 7.85C1.5 6.58988 1.5 5.95982 1.74524 5.47852C1.96095 5.05516 2.30516 4.71095 2.72852 4.49524C3.20982 4.25 3.83988 4.25 5.1 4.25H9.15C10.4101 4.25 11.0402 4.25 11.5215 4.49524C11.9448 4.71095 12.289 5.05516 12.5048 5.47852C12.75 5.95982 12.75 6.58988 12.75 7.85V11.15C12.75 12.4101 12.75 13.0402 12.5048 13.5215C12.289 13.9448 11.9448 14.289 11.5215 14.5048C11.0402 14.75 10.4101 14.75 9.15 14.75H5.1C3.83988 14.75 3.20982 14.75 2.72852 14.5048C2.30516 14.289 1.96095 13.9448 1.74524 13.5215C1.5 13.0402 1.5 12.4101 1.5 11.15V7.85Z" stroke="#667085" stroke-width="1.67" stroke-linecap="round" stroke-linejoin="round"/>
</svg>
