<svg width="20" height="20" viewBox="0 0 20 20" fill="none" xmlns="http://www.w3.org/2000/svg">
<g clip-path="url(#clip0_0_179)">
<path d="M4.16699 12.5H3.33366C2.89163 12.5 2.46771 12.3244 2.15515 12.0119C1.84259 11.6993 1.66699 11.2754 1.66699 10.8334V3.33335C1.66699 2.89133 1.84259 2.4674 2.15515 2.15484C2.46771 1.84228 2.89163 1.66669 3.33366 1.66669H10.8337C11.2757 1.66669 11.6996 1.84228 12.0122 2.15484C12.3247 2.4674 12.5003 2.89133 12.5003 3.33335V4.16669M9.16699 7.50002H16.667C17.5875 7.50002 18.3337 8.24621 18.3337 9.16669V16.6667C18.3337 17.5872 17.5875 18.3334 16.667 18.3334H9.16699C8.24652 18.3334 7.50033 17.5872 7.50033 16.6667V9.16669C7.50033 8.24621 8.24652 7.50002 9.16699 7.50002Z" stroke="#344054" stroke-width="1.67" stroke-linecap="round" stroke-linejoin="round"/>
</g>
<defs>
<clipPath id="clip0_0_179">
<rect width="20" height="20" fill="white"/>
</clipPath>
</defs>
</svg>
