<svg width="20" height="20" viewBox="0 0 20 20" fill="none" xmlns="http://www.w3.org/2000/svg">
<path d="M10.8333 11.6667L8.33333 9.16669M12.5086 2.91669V1.66669M15.7914 4.21724L16.6753 3.33335M15.7914 10.8334L16.6753 11.7172M9.17529 4.21724L8.29141 3.33335M17.092 7.50002H18.342M5.10947 17.3905L12.8072 9.69283C13.1372 9.36282 13.3022 9.19781 13.364 9.00754C13.4184 8.84017 13.4184 8.65988 13.364 8.49251C13.3022 8.30223 13.1372 8.13723 12.8072 7.80721L12.1928 7.19283C11.8628 6.86282 11.6978 6.69781 11.5075 6.63598C11.3401 6.5816 11.1599 6.5816 10.9925 6.63598C10.8022 6.69781 10.6372 6.86282 10.3072 7.19283L2.60947 14.8905C2.27946 15.2206 2.11445 15.3856 2.05263 15.5758C1.99825 15.7432 1.99825 15.9235 2.05263 16.0909C2.11445 16.2811 2.27946 16.4461 2.60947 16.7762L3.22385 17.3905C3.55387 17.7206 3.71887 17.8856 3.90915 17.9474C4.07652 18.0018 4.25681 18.0018 4.42418 17.9474C4.61445 17.8856 4.77946 17.7206 5.10947 17.3905Z" stroke="#5207CD" stroke-width="1.67" stroke-linecap="round" stroke-linejoin="round"/>
</svg>
