<svg width="15" height="15" viewBox="0 0 15 15" fill="none" xmlns="http://www.w3.org/2000/svg">
<g clip-path="url(#clip0_253_56110)">
<path d="M1.92249 4.67676L4.60252 6.59103C4.74197 6.69064 4.8117 6.74045 4.88467 6.75192C4.94888 6.76202 5.01465 6.75184 5.0728 6.72281C5.1389 6.68981 5.19031 6.62126 5.29313 6.48416L5.85945 5.72907C5.88852 5.6903 5.90306 5.67092 5.92015 5.6542C5.93532 5.63935 5.95197 5.62608 5.96983 5.61461C5.98995 5.60169 6.01209 5.59185 6.05638 5.57217L8.47425 4.49756C8.57448 4.45301 8.62459 4.43074 8.66238 4.39595C8.6958 4.36519 8.72212 4.3275 8.73949 4.28553C8.75913 4.23807 8.76278 4.18335 8.77007 4.07391L8.94711 1.41838M8.4375 8.4375L10.0725 9.13822C10.2622 9.21952 10.3571 9.26017 10.4073 9.32769C10.4514 9.38693 10.4731 9.45986 10.4685 9.53355C10.4633 9.61756 10.4061 9.70342 10.2916 9.87514L9.52343 11.0274C9.46916 11.1088 9.44203 11.1495 9.40618 11.1789C9.37444 11.205 9.33787 11.2246 9.29856 11.2365C9.25416 11.25 9.20524 11.25 9.10741 11.25H7.86038C7.73079 11.25 7.66599 11.25 7.61086 11.2283C7.56218 11.2092 7.51908 11.1781 7.48551 11.138C7.44751 11.0925 7.42702 11.0311 7.38604 10.9081L6.94049 9.57148C6.91632 9.49897 6.90424 9.46271 6.90106 9.42586C6.89823 9.39319 6.90057 9.36028 6.90799 9.32834C6.91635 9.29231 6.93344 9.25812 6.96762 9.18976L7.30607 8.51287C7.37483 8.37534 7.40921 8.30657 7.46217 8.26388C7.50884 8.22626 7.56535 8.20285 7.62495 8.19646C7.69259 8.1892 7.76552 8.21351 7.91139 8.26213L8.4375 8.4375ZM13.75 7.5C13.75 10.9518 10.9518 13.75 7.5 13.75C4.04822 13.75 1.25 10.9518 1.25 7.5C1.25 4.04822 4.04822 1.25 7.5 1.25C10.9518 1.25 13.75 4.04822 13.75 7.5Z" stroke="#5207CD" stroke-width="0.975" stroke-linecap="round" stroke-linejoin="round"/>
</g>
<defs>
<clipPath id="clip0_253_56110">
<rect width="15" height="15" fill="white"/>
</clipPath>
</defs>
</svg>
