<svg width="590" height="67" viewBox="0 0 590 67" fill="none" xmlns="http://www.w3.org/2000/svg">
<path d="M1.00024 1.00024L14.326 6.35125L28.0681 8.84772L41.8103 3.85477L55.9689 6.35125H70.1275L83.8696 8.84772H96.7789L110.105 12.1763L123.43 8.84772L139.255 14.6728L150.915 12.1763L163.408 14.6728L175.9 17.1693L191.725 14.6728L203.385 17.1693L214.212 22.1622L228.787 27.1552L243.362 31.316H257.937L273.345 33.8124L284.172 31.316H290.418L300.829 27.1552H313.499H325.999H334.499L343.499 31.316L354.499 33.8124H362.499L379.534 36.3089L385.781 42.134L399.523 44.6305L415.347 47.1269H422.01C424.647 46.2948 430.089 44.6305 430.755 44.6305C431.421 44.6305 439.917 42.9662 444.081 42.134L454.908 36.3089H467.817L480.31 42.134L489.055 39.6375L505.712 36.3089L516.123 39.6375L534.029 42.134C536.112 42.9662 540.443 44.6305 541.109 44.6305C541.775 44.6305 546.384 47.4043 548.605 48.7913H556.933L563.18 57.1128H576.505L588.998 66" stroke="#F75656" stroke-width="2" stroke-linecap="round" stroke-linejoin="round"/>
</svg>
