<svg width="16" height="17" viewBox="0 0 16 17" fill="none" xmlns="http://www.w3.org/2000/svg">
<path d="M14.4488 16.1485C14.4488 14.9625 14.4488 14.3695 14.3025 13.887C13.9729 12.8005 13.1227 11.9504 12.0363 11.6208C11.5537 11.4744 10.9607 11.4744 9.77475 11.4744H5.52558C4.33958 11.4744 3.74658 11.4744 3.26405 11.6208C2.17762 11.9504 1.32744 12.8005 0.997869 13.887C0.851494 14.3695 0.851494 14.9625 0.851494 16.1485M11.4744 4.67575C11.4744 6.78782 9.76224 8.5 7.65017 8.5C5.53809 8.5 3.82591 6.78782 3.82591 4.67575C3.82591 2.56367 5.53809 0.851494 7.65017 0.851494C9.76224 0.851494 11.4744 2.56367 11.4744 4.67575Z" stroke="#5207CD" stroke-width="1.67" stroke-linecap="round" stroke-linejoin="round"/>
</svg>
