<svg width="14" height="14" viewBox="0 0 14 14" fill="none" xmlns="http://www.w3.org/2000/svg">
<g clip-path="url(#clip0_253_55939)">
<path d="M1.16667 4.08333L5.92954 7.41734C6.31522 7.68732 6.50806 7.82231 6.71782 7.8746C6.90311 7.92078 7.09689 7.92078 7.28218 7.8746C7.49194 7.82231 7.68478 7.68732 8.07046 7.41734L12.8333 4.08333M3.96667 11.6667H10.0333C11.0134 11.6667 11.5035 11.6667 11.8778 11.4759C12.2071 11.3081 12.4748 11.0404 12.6426 10.7112C12.8333 10.3368 12.8333 9.84676 12.8333 8.86667V5.13333C12.8333 4.15324 12.8333 3.6632 12.6426 3.28885C12.4748 2.95957 12.2071 2.69185 11.8778 2.52407C11.5035 2.33333 11.0134 2.33333 10.0333 2.33333H3.96667C2.98657 2.33333 2.49653 2.33333 2.12218 2.52407C1.7929 2.69185 1.52518 2.95957 1.35741 3.28885C1.16667 3.6632 1.16667 4.15324 1.16667 5.13333V8.86667C1.16667 9.84676 1.16667 10.3368 1.35741 10.7112C1.52518 11.0404 1.7929 11.3081 2.12218 11.4759C2.49653 11.6667 2.98657 11.6667 3.96667 11.6667Z" stroke="#0E87FE" stroke-width="1.2525" stroke-linecap="round" stroke-linejoin="round"/>
</g>
<defs>
<clipPath id="clip0_253_55939">
<rect width="13.5" height="13.5" fill="white" transform="scale(1.03704)"/>
</clipPath>
</defs>
</svg>
