<svg width="97" height="55" viewBox="0 0 97 55" fill="none" xmlns="http://www.w3.org/2000/svg">
<g clip-path="url(#clip0_253_56401)">
<path d="M0.378484 0.378484H96.6215V54.8801H0.378484V0.378484Z" fill="#F8F8F8"/>
<rect x="0.15265" y="5.45943" width="7.61147" height="0.756967" transform="rotate(-45 0.15265 5.45943)" fill="#D0D5DD"/>
<rect x="0.0487889" y="11.389" width="16.0475" height="0.756967" transform="rotate(-45 0.0487889 11.389)" fill="#D0D5DD"/>
<rect x="-0.010842" y="17.2752" width="24.3037" height="0.756967" transform="rotate(-45 -0.010842 17.2752)" fill="#D0D5DD"/>
<rect x="-0.0247641" y="23.1146" width="32.8059" height="0.756967" transform="rotate(-45 -0.0247641 23.1146)" fill="#D0D5DD"/>
<rect x="0.0670232" y="28.8485" width="40.8651" height="0.756967" transform="rotate(-45 0.0670232 28.8485)" fill="#D0D5DD"/>
<rect x="0.0542099" y="34.6874" width="49.2768" height="0.756967" transform="rotate(-45 0.0542099 34.6874)" fill="#D0D5DD"/>
<rect x="0.110884" y="40.4564" width="57.4021" height="0.756967" transform="rotate(-45 0.110884 40.4564)" fill="#D0D5DD"/>
<rect x="0.0975778" y="46.2953" width="65.3306" height="0.756967" transform="rotate(-45 0.0975778 46.2953)" fill="#D0D5DD"/>
<rect x="0.0842718" y="52.1347" width="73.9653" height="0.756967" transform="rotate(-45 0.0842718 52.1347)" fill="#D0D5DD"/>
<rect x="3.39551" y="54.6495" width="77.0608" height="0.756967" transform="rotate(-45 3.39551 54.6495)" fill="#D0D5DD"/>
<rect x="9.26952" y="54.6012" width="77.0239" height="0.756967" transform="rotate(-45 9.26952 54.6012)" fill="#D0D5DD"/>
<rect x="14.9098" y="54.7865" width="77.5409" height="0.756967" transform="rotate(-45 14.9098 54.7865)" fill="#D0D5DD"/>
<rect x="20.8265" y="54.6958" width="77.7557" height="0.756967" transform="rotate(-45 20.8265 54.6958)" fill="#D0D5DD"/>
<rect x="26.6939" y="54.6539" width="77.3532" height="0.756967" transform="rotate(-45 26.6939 54.6539)" fill="#D0D5DD"/>
<rect x="32.4919" y="54.682" width="77.0804" height="0.756967" transform="rotate(-45 32.4919 54.682)" fill="#D0D5DD"/>
<rect x="38.1969" y="54.8028" width="77.6846" height="0.756967" transform="rotate(-45 38.1969 54.8028)" fill="#D0D5DD"/>
<rect x="43.9015" y="54.924" width="76.6899" height="0.756967" transform="rotate(-45 43.9015 54.924)" fill="#D0D5DD"/>
<rect x="50.0229" y="54.6288" width="68.2599" height="0.756967" transform="rotate(-45 50.0229 54.6288)" fill="#D0D5DD"/>
<rect x="55.6475" y="54.8299" width="60.5326" height="0.756967" transform="rotate(-45 55.6475 54.8299)" fill="#D0D5DD"/>
<rect x="61.1261" y="55.1773" width="53.0116" height="0.756967" transform="rotate(-45 61.1261 55.1773)" fill="#D0D5DD"/>
<rect x="67.1464" y="54.9826" width="44.7248" height="0.756967" transform="rotate(-45 67.1464 54.9826)" fill="#D0D5DD"/>
<rect x="72.7379" y="55.2172" width="37.0441" height="0.756967" transform="rotate(-45 72.7379 55.2172)" fill="#D0D5DD"/>
<rect x="78.9715" y="54.8092" width="28.4543" height="0.756967" transform="rotate(-45 78.9715 54.8092)" fill="#D0D5DD"/>
<rect x="84.4561" y="55.1507" width="20.9254" height="0.756967" transform="rotate(-45 84.4561 55.1507)" fill="#D0D5DD"/>
<rect x="90.5276" y="54.9048" width="12.5647" height="0.756967" transform="rotate(-45 90.5276 54.9048)" fill="#D0D5DD"/>
</g>
<path d="M0.378484 0.378484V0H0V0.378484H0.378484ZM96.6215 0.378484H97V0H96.6215V0.378484ZM0.378484 0.756967H96.6215V0H0.378484V0.756967ZM96.243 0.378484V54.8801H97V0.378484H96.243ZM0.756967 54.8801V0.378484H0V54.8801H0.756967Z" fill="#D0D5DD"/>
<defs>
<clipPath id="clip0_253_56401">
<path d="M0.378484 0.378484H96.6215V54.8801H0.378484V0.378484Z" fill="white"/>
</clipPath>
</defs>
</svg>
