<svg width="18" height="18" viewBox="0 0 18 18" fill="none" xmlns="http://www.w3.org/2000/svg">
<path d="M13.5 6.625C13.5 8.05737 12.8131 9.32875 11.7465 10.1276L12.7965 11.5276C13.5587 10.9576 14.1773 10.2177 14.6032 9.36656C15.0292 8.51546 15.2506 7.57672 15.25 6.625H13.5ZM9.125 2.25C10.2853 2.25 11.3981 2.71094 12.2186 3.53141C13.0391 4.35188 13.5 5.46468 13.5 6.625H15.25C15.25 5.00055 14.6047 3.44263 13.456 2.29397C12.3074 1.14531 10.7495 0.5 9.125 0.5V2.25ZM4.75 6.625C4.75 5.46468 5.21094 4.35188 6.03141 3.53141C6.85188 2.71094 7.96468 2.25 9.125 2.25V0.5C7.50055 0.5 5.94263 1.14531 4.79397 2.29397C3.64531 3.44263 3 5.00055 3 6.625H4.75ZM6.5035 10.1276C5.95869 9.72063 5.51645 9.19203 5.21202 8.58393C4.9076 7.97583 4.74939 7.30504 4.75 6.625H3C2.99939 7.57672 3.22085 8.51546 3.64678 9.36656C4.07271 10.2177 4.69135 10.9576 5.4535 11.5276L6.5035 10.1276ZM8.24738 15.1501C8.2197 13.8159 7.94405 12.4985 7.4345 11.2651L5.8175 11.9345C6.24275 12.9644 6.47463 14.0669 6.49825 15.1869L8.24738 15.1501ZM10.2993 14.6846C9.93467 14.867 9.53264 14.9619 9.125 14.9619C8.71736 14.9619 8.31533 14.867 7.95075 14.6846L7.1685 16.25C7.77598 16.5537 8.44583 16.7118 9.125 16.7118C9.80417 16.7118 10.474 16.5537 11.0815 16.25L10.2993 14.6846ZM10.8155 11.266C10.3058 12.499 10.0298 13.8162 10.0017 15.1501L11.7517 15.1869C11.7754 14.0669 12.0072 12.9644 12.4325 11.9345L10.8155 11.266ZM11.0815 16.25C11.2794 16.1506 11.4465 15.9991 11.5646 15.8117C11.6827 15.6244 11.7474 15.4083 11.7517 15.1869L10.0017 15.1501C10.0042 15.0528 10.0332 14.9579 10.0856 14.8759C10.138 14.7938 10.2119 14.7277 10.2993 14.6846L11.0815 16.25ZM6.49825 15.1869C6.507 15.6279 6.7555 16.0435 7.1685 16.25L7.95075 14.6846C8.03808 14.7277 8.11197 14.7938 8.16441 14.8759C8.21685 14.9579 8.24584 15.0528 8.24825 15.1501L6.49825 15.1869ZM5.4535 11.5276C5.58475 11.6274 5.66263 11.6851 5.71688 11.7289C5.772 11.7744 5.7615 11.7726 5.737 11.7411L7.1195 10.6684C6.95588 10.4566 6.70213 10.2764 6.5035 10.1276L5.4535 11.5276ZM7.4345 11.2651C7.36625 11.0997 7.27963 10.874 7.1195 10.6684L5.737 11.7411C5.72563 11.7254 5.723 11.7175 5.73438 11.7411C5.7623 11.8051 5.78972 11.8692 5.81663 11.9336L7.4345 11.2651ZM11.7465 10.1276C11.5479 10.2764 11.2933 10.4575 11.1296 10.6684L12.513 11.7411C12.4894 11.7717 12.478 11.7744 12.5331 11.7297C12.5874 11.6851 12.6644 11.6274 12.7965 11.5285L11.7465 10.1276ZM12.4325 11.9345L12.485 11.8094L12.5156 11.7411C12.527 11.7175 12.5244 11.7254 12.513 11.7411L11.1296 10.6684C10.9695 10.8749 10.8837 11.0997 10.8155 11.266L12.4325 11.9345Z" fill="#F75656"/>
<path d="M11.743 11.875C10.9681 12.393 10.057 12.6694 9.12496 12.6694C8.19292 12.6694 7.28183 12.393 6.50696 11.875" stroke="#F75656" stroke-width="1.66667"/>
</svg>
