<svg width="23" height="23" viewBox="0 0 23 23" fill="none" xmlns="http://www.w3.org/2000/svg">
<path d="M10.3972 3.2453H6.03038C4.28348 3.2453 3.41004 3.2453 2.74281 3.58527C2.1559 3.88431 1.67873 4.36148 1.37969 4.94839C1.03972 5.61562 1.03972 6.48906 1.03972 8.23596V16.9696C1.03972 18.7165 1.03972 19.5899 1.37969 20.2572C1.67873 20.8441 2.1559 21.3212 2.74281 21.6203C3.41004 21.9603 4.28348 21.9603 6.03038 21.9603H14.764C16.5109 21.9603 17.3844 21.9603 18.0516 21.6203C18.6385 21.3212 19.1157 20.8441 19.4147 20.2572C19.7547 19.5899 19.7547 18.7165 19.7547 16.9696V12.6028M7.27801 15.7219H9.01907C9.52768 15.7219 9.78199 15.7219 10.0213 15.6645C10.2335 15.6135 10.4363 15.5295 10.6224 15.4155C10.8322 15.2869 11.012 15.1071 11.3717 14.7475L21.3143 4.80488C22.1756 3.94355 22.1756 2.54705 21.3143 1.68572C20.4529 0.824388 19.0564 0.824387 18.1951 1.68572L8.2525 11.6283C7.89286 11.9879 7.71304 12.1678 7.58444 12.3776C7.47043 12.5637 7.38641 12.7665 7.33547 12.9787C7.27801 13.218 7.27801 13.4723 7.27801 13.9809V15.7219Z" stroke="#0E87FE" stroke-width="2" stroke-linecap="round" stroke-linejoin="round"/>
</svg>
