<?xml version="1.0" encoding="UTF-8"?>
<svg version="1.1" xmlns="http://www.w3.org/2000/svg" width="1024" height="1024">
<path d="M0 0 C0.42667969 0.41636719 0.85335937 0.83273438 1.29296875 1.26171875 C1.29296875 1.92171875 1.29296875 2.58171875 1.29296875 3.26171875 C2.28296875 3.59171875 3.27296875 3.92171875 4.29296875 4.26171875 C5.89803322 6.36042183 7.32865148 8.40842004 8.73046875 10.63671875 C9.13080322 11.27230713 9.5311377 11.90789551 9.94360352 12.56274414 C19.36297063 27.91860619 20.92098816 44.88546439 16.82763672 62.23388672 C10.30335824 87.45816647 -3.69513123 111.34521134 -20.796875 130.859375 C-21.26875244 131.39860596 -21.74062988 131.93783691 -22.22680664 132.4934082 C-23.48949454 133.90804629 -24.78083903 135.29696094 -26.07421875 136.68359375 C-27.97778969 139.15561354 -27.97778969 139.15561354 -27.6171875 142.1171875 C-26.38935626 146.35926538 -25.05633386 150.5525305 -23.61132812 154.72460938 C-19.90364768 166.00352917 -19.34712472 177.72454576 -19.09375 189.5078125 C-19.05605561 191.01574224 -19.01835078 192.52367171 -18.9806366 194.03160095 C-18.52996289 213.32691878 -18.51988706 232.62938772 -18.52172852 251.92895508 C-18.52183135 257.30143737 -18.50800029 262.67379111 -18.49095631 268.04624271 C-18.47976154 272.26660233 -18.47781133 276.48693107 -18.47833824 280.707304 C-18.47717629 282.68805841 -18.47285811 284.66881411 -18.46500587 286.6495533 C-18.38292485 309.41464922 -20.65634395 330.09005199 -29.70703125 351.26171875 C-30.11308594 352.21175781 -30.51914062 353.16179687 -30.9375 354.140625 C-38.56820614 370.58804147 -50.94532546 385.99223385 -63.95703125 398.484375 C-65.78259079 400.15545087 -65.78259079 400.15545087 -66.70703125 402.26171875 C-67.36703125 402.26171875 -68.02703125 402.26171875 -68.70703125 402.26171875 C-69.03703125 403.25171875 -69.36703125 404.24171875 -69.70703125 405.26171875 C-70.36703125 405.26171875 -71.02703125 405.26171875 -71.70703125 405.26171875 C-72.03703125 406.25171875 -72.36703125 407.24171875 -72.70703125 408.26171875 C-73.36703125 408.26171875 -74.02703125 408.26171875 -74.70703125 408.26171875 C-74.95775391 408.83696289 -75.20847656 409.41220703 -75.46679688 410.00488281 C-76.87431952 412.56613071 -78.4887315 414.30229267 -80.55078125 416.37109375 C-81.30230469 417.12519531 -82.05382812 417.87929688 -82.828125 418.65625 C-83.61316406 419.43355469 -84.39820313 420.21085937 -85.20703125 421.01171875 C-86.38458984 422.20087891 -86.38458984 422.20087891 -87.5859375 423.4140625 C-88.33746094 424.16300781 -89.08898437 424.91195313 -89.86328125 425.68359375 C-90.55228516 426.3703418 -91.24128906 427.05708984 -91.95117188 427.76464844 C-93.70703125 429.26171875 -93.70703125 429.26171875 -95.70703125 429.26171875 C-95.96484375 429.844375 -96.22265625 430.42703125 -96.48828125 431.02734375 C-97.80537142 433.44200905 -99.25791509 435.07912052 -101.20703125 437.01171875 C-101.81546875 437.6253125 -102.42390625 438.23890625 -103.05078125 438.87109375 C-104.70703125 440.26171875 -104.70703125 440.26171875 -106.70703125 440.26171875 C-106.94023134 440.82009713 -107.17343143 441.37847551 -107.4136982 441.95377445 C-109.03882013 444.85379381 -111.04370016 446.84074745 -113.40036011 449.18882751 C-113.88110587 449.67057656 -114.36185164 450.15232561 -114.85716546 450.64867312 C-116.46761492 452.26007439 -118.08509944 453.86422187 -119.70263672 455.46850586 C-120.8594251 456.62309275 -122.01576587 457.77812825 -123.17169189 458.93357849 C-125.66134107 461.42029444 -128.15411434 463.90382059 -130.64934921 466.38493156 C-134.59583708 470.30915201 -138.53522367 474.24044935 -142.47366333 478.17274475 C-148.70534296 484.39304114 -154.94167591 490.60864811 -161.18004811 496.82223183 C-172.34751136 507.94539307 -183.50944507 519.07409623 -194.66612923 530.20806891 C-198.5812486 534.11478752 -202.4991591 538.01867902 -206.41934562 541.92031276 C-208.85969738 544.35000574 -211.29800646 546.78174107 -213.73581696 549.21398354 C-214.86525967 550.33996179 -215.99557294 551.4650676 -217.12682724 552.58922577 C-218.67346206 554.12637356 -220.21694993 555.6666162 -221.75973511 557.20762634 C-222.62362288 558.06799468 -223.48751064 558.92836302 -224.37757683 559.81480312 C-226.77145628 562.24698847 -226.77145628 562.24698847 -228.89123726 565.07759953 C-229.49044928 565.79835887 -230.08966129 566.51911821 -230.70703125 567.26171875 C-231.36703125 567.26171875 -232.02703125 567.26171875 -232.70703125 567.26171875 C-232.70703125 567.92171875 -232.70703125 568.58171875 -232.70703125 569.26171875 C-233.36703125 569.26171875 -234.02703125 569.26171875 -234.70703125 569.26171875 C-235.10339531 570.1452257 -235.10339531 570.1452257 -235.50776672 571.04658127 C-236.75333565 573.34724668 -238.05152901 574.85774796 -239.89526367 576.70391846 C-240.87950821 577.69662247 -240.87950821 577.69662247 -241.88363647 578.7093811 C-242.60266144 579.4243576 -243.3216864 580.13933411 -244.0625 580.87597656 C-244.82035797 581.63733917 -245.57821594 582.39870178 -246.35903931 583.18313599 C-248.86586038 585.69876126 -251.37992839 588.20699883 -253.89453125 590.71484375 C-255.63595396 592.45761321 -257.37707966 594.2006795 -259.11791992 595.94403076 C-262.76644829 599.59550839 -266.41857204 603.24334171 -270.07324219 606.88867188 C-274.7679381 611.57195657 -279.45357721 616.26418381 -284.13658142 620.95915604 C-287.7290638 624.55884788 -291.32627439 628.15378417 -294.92495728 631.74727631 C-296.65527374 633.47625462 -298.38409479 635.20673078 -300.11141968 636.93869781 C-302.52000807 639.3523382 -304.93486728 641.75951961 -307.3515625 644.16503906 C-308.07058746 644.88811249 -308.78961243 645.61118591 -309.53042603 646.35617065 C-310.18658905 647.00669403 -310.84275208 647.65721741 -311.51879883 648.32745361 C-312.08955643 648.89745716 -312.66031403 649.46746071 -313.24836731 650.05473709 C-314.70703125 651.26171875 -314.70703125 651.26171875 -316.70703125 651.26171875 C-316.70703125 651.92171875 -316.70703125 652.58171875 -316.70703125 653.26171875 C-318.76033144 654.80776874 -320.78966976 656.20401214 -322.95703125 657.57421875 C-323.90787598 658.17762085 -323.90787598 658.17762085 -324.87792969 658.79321289 C-341.06154746 668.82001955 -359.2125125 672.0702988 -377.93237305 668.23413086 C-394.93093187 664.14153271 -410.86305118 654.67330594 -421.64453125 640.76171875 C-424.05617641 637.8385125 -426.77432045 635.65576839 -429.70703125 633.26171875 C-431.38505685 631.60648897 -433.04970891 629.93767765 -434.70703125 628.26171875 C-435.78229983 627.19439783 -436.85896224 626.12847989 -437.93676758 625.0637207 C-441.12064924 621.91526186 -444.29856131 618.76085354 -447.47436523 615.60424805 C-448.84500502 614.24375266 -450.21742145 612.88504498 -451.59155273 611.52807617 C-453.57872735 609.56502866 -455.55948831 607.59570785 -457.5390625 605.625 C-458.15771683 605.01666824 -458.77637115 604.40833649 -459.41377258 603.78157043 C-460.88330635 602.31242995 -462.30080545 600.79156588 -463.70703125 599.26171875 C-463.70703125 598.60171875 -463.70703125 597.94171875 -463.70703125 597.26171875 C-464.28453125 597.03484375 -464.86203125 596.80796875 -465.45703125 596.57421875 C-468.29675433 594.91771362 -469.65927661 592.83603887 -471.70703125 590.26171875 C-473.53835337 588.65189564 -475.40901716 587.11244846 -477.31640625 585.59375 C-477.7753125 585.15417969 -478.23421875 584.71460938 -478.70703125 584.26171875 C-478.70703125 583.60171875 -478.70703125 582.94171875 -478.70703125 582.26171875 C-479.36703125 582.26171875 -480.02703125 582.26171875 -480.70703125 582.26171875 C-480.70703125 581.60171875 -480.70703125 580.94171875 -480.70703125 580.26171875 C-481.28453125 580.03484375 -481.86203125 579.80796875 -482.45703125 579.57421875 C-485.27130738 577.93255768 -486.73440858 575.82612822 -488.70703125 573.26171875 C-489.36703125 572.93171875 -490.02703125 572.60171875 -490.70703125 572.26171875 C-490.70703125 571.60171875 -490.70703125 570.94171875 -490.70703125 570.26171875 C-491.36703125 570.26171875 -492.02703125 570.26171875 -492.70703125 570.26171875 C-493.9765625 568.96875 -493.9765625 568.96875 -495.51953125 567.07421875 C-500.41294626 561.30514 -505.8211167 556.06141944 -511.2019043 550.75292969 C-512.6075194 549.36031054 -513.99961526 547.95408281 -515.390625 546.546875 C-517.2525379 544.71008065 -519.11654812 543.03050364 -521.14453125 541.38671875 C-524.20685781 538.80267313 -526.74916022 536.00325973 -529.3046875 532.92578125 C-532.00970689 529.71592537 -534.93218083 526.88159909 -538.20703125 524.26171875 C-543.10621705 520.34237011 -547.1136825 515.70220996 -551.15625 510.93359375 C-552.62053592 509.15845512 -552.62053592 509.15845512 -554.70703125 508.26171875 C-554.70703125 507.60171875 -554.70703125 506.94171875 -554.70703125 506.26171875 C-555.36703125 506.26171875 -556.02703125 506.26171875 -556.70703125 506.26171875 C-558.06880047 504.61820418 -559.39665191 502.94649219 -560.70703125 501.26171875 C-563.2023258 498.63846037 -565.6602627 496.29809429 -568.51953125 494.07421875 C-569.24140625 493.47609375 -569.96328125 492.87796875 -570.70703125 492.26171875 C-570.70703125 491.60171875 -570.70703125 490.94171875 -570.70703125 490.26171875 C-571.36703125 490.26171875 -572.02703125 490.26171875 -572.70703125 490.26171875 C-574.18799782 488.75851631 -574.18799782 488.75851631 -575.89541626 486.70046997 C-579.31919093 482.67705493 -582.92368234 478.93965596 -586.69287109 475.24169922 C-587.35243301 474.59002274 -588.01199493 473.93834625 -588.69154358 473.266922 C-590.11019669 471.86533586 -591.52990245 470.46481451 -592.95057297 469.06527328 C-595.98850956 466.06984754 -599.01676613 463.06471266 -602.04569435 460.06018257 C-607.66661066 454.48472659 -613.29117644 448.91309373 -618.93261719 443.35839844 C-622.87453483 439.47634952 -626.80371659 435.58178855 -630.72514725 431.67905045 C-632.20913277 430.20669647 -633.697609 428.73885259 -635.1908989 427.27593613 C-648.92827549 413.81094972 -660.29572312 400.20432764 -663.3125 380.609375 C-663.66891085 378.11836305 -663.66891085 378.11836305 -664.70703125 375.26171875 C-664.16234448 364.8485894 -662.76849248 354.93254076 -658.70703125 345.26171875 C-658.18496094 343.99134766 -658.18496094 343.99134766 -657.65234375 342.6953125 C-653.41295346 333.35403527 -646.54644789 325.85427007 -639.1953125 318.82421875 C-637.44883519 317.08948156 -637.44883519 317.08948156 -635.58203125 313.94921875 C-633.44453347 310.88547193 -632.10885843 310.5150235 -628.70703125 309.26171875 C-627.65682022 307.41200179 -627.65682022 307.41200179 -626.70703125 305.26171875 C-625.06726559 303.56857843 -623.39548351 301.90631126 -621.70703125 300.26171875 C-619.87543606 298.42077885 -618.04443117 296.57926706 -616.21411133 294.73706055 C-610.90630331 289.39672401 -605.59352847 284.06135851 -600.27782154 278.7288847 C-597.0674169 275.50799018 -593.85893147 272.28522843 -590.65454102 269.05834961 C-587.54734831 265.92949887 -584.43535898 262.80549515 -581.31992149 259.68485451 C-580.13359221 258.49482272 -578.949028 257.3030287 -577.76624489 256.10947227 C-576.11933552 254.44813779 -574.46636816 252.79307372 -572.81176758 251.1394043 C-572.32187347 250.64231964 -571.83197937 250.14523499 -571.32723999 249.63308716 C-567.93514199 246.26171875 -567.93514199 246.26171875 -565.70703125 246.26171875 C-565.50335937 245.72804688 -565.2996875 245.194375 -565.08984375 244.64453125 C-563.12092132 241.25175531 -560.40628557 238.82991719 -557.58203125 236.13671875 C-555.56919634 234.21600443 -553.62870913 232.27742368 -551.70703125 230.26171875 C-551.70703125 229.60171875 -551.70703125 228.94171875 -551.70703125 228.26171875 C-550.04036458 227.26171875 -548.37369792 226.26171875 -546.70703125 225.26171875 C-544.43728071 223.10836567 -542.28647669 220.86984961 -540.12890625 218.60546875 C-538.68903028 217.12365465 -537.20084547 215.68914123 -535.70703125 214.26171875 C-535.04703125 214.26171875 -534.38703125 214.26171875 -533.70703125 214.26171875 C-533.04703125 212.94171875 -532.38703125 211.62171875 -531.70703125 210.26171875 C-531.04703125 210.26171875 -530.38703125 210.26171875 -529.70703125 210.26171875 C-529.55234375 209.30265625 -529.55234375 209.30265625 -529.39453125 208.32421875 C-529.16765625 207.64359375 -528.94078125 206.96296875 -528.70703125 206.26171875 C-527.71703125 205.93171875 -526.72703125 205.60171875 -525.70703125 205.26171875 C-525.04703125 204.27171875 -524.38703125 203.28171875 -523.70703125 202.26171875 C-523.04703125 202.26171875 -522.38703125 202.26171875 -521.70703125 202.26171875 C-521.70703125 201.60171875 -521.70703125 200.94171875 -521.70703125 200.26171875 C-520.29598522 198.87011909 -520.29598522 198.87011909 -518.30961609 197.23220825 C-513.3082542 192.97510671 -508.698169 188.38572459 -504.06567383 183.73388672 C-503.13619431 182.80455322 -502.20671478 181.87521973 -501.24906921 180.91772461 C-498.72225143 178.39119149 -496.19851042 175.86160577 -493.67534471 173.33142614 C-491.0236309 170.6734146 -488.36904035 168.0182791 -485.71476746 165.36282349 C-480.69345272 160.33841088 -475.67468924 155.31145801 -470.6568591 150.28356564 C-464.96049318 144.57602296 -459.2612907 138.87131633 -453.56184161 133.16685271 C-443.81654131 123.41288253 -434.07335816 113.65680229 -424.33255005 103.89834595 C-420.45900896 100.01783425 -416.58498469 96.13782119 -412.70703125 92.26171875 C-411.88203125 91.43671875 -411.05703125 90.61171875 -410.20703125 89.76171875 C-395.70703125 75.26171875 -395.70703125 75.26171875 -393.2890625 72.86328125 C-391.62448002 71.18610738 -389.98414298 69.48434142 -388.375 67.75390625 C-367.33829963 45.55770271 -340.31942702 35.90845478 -310.11413574 35.09640503 C-305.51439097 35.02689966 -300.91626516 35.06173093 -296.31640625 35.1015625 C-294.63072055 35.10786505 -292.94503055 35.11309428 -291.25933838 35.11732483 C-286.87911786 35.13043704 -282.49904504 35.15477085 -278.11889648 35.18267822 C-271.0994934 35.22629599 -264.08005266 35.25583364 -257.0605545 35.27871895 C-254.64413149 35.28874016 -252.22783787 35.30579688 -249.8114624 35.32371521 C-241.49340927 35.36867568 -233.27853654 35.14136107 -224.98602295 34.46768188 C-219.7067337 34.13607416 -214.48245965 34.4058584 -209.20703125 34.69921875 C-207.02485 34.80439976 -204.84255646 34.90727716 -202.66015625 35.0078125 C-201.11424805 35.07911377 -201.11424805 35.07911377 -199.53710938 35.15185547 C-196.00366313 35.28902341 -192.49295904 35.29676649 -188.95703125 35.26171875 C-172.68009052 35.16986243 -156.56838698 35.91553689 -140.74926758 40.03125 C-137.69717256 40.57104248 -137.69717256 40.57104248 -135.50048828 38.83398438 C-134.49284424 37.76180664 -134.49284424 37.76180664 -133.46484375 36.66796875 C-132.70816406 35.88421875 -131.95148437 35.10046875 -131.171875 34.29296875 C-130.39972656 33.45765625 -129.62757813 32.62234375 -128.83203125 31.76171875 C-127.29543179 30.14479116 -125.75639037 28.5301805 -124.21484375 26.91796875 C-123.46130615 26.12712891 -122.70776855 25.33628906 -121.93139648 24.52148438 C-116.65153688 19.15759671 -110.80510063 14.41001066 -104.89453125 9.76171875 C-104.29995117 9.2932251 -103.70537109 8.82473145 -103.09277344 8.34204102 C-98.51664506 4.78520793 -93.7778827 1.60340254 -88.81640625 -1.3984375 C-86.60361471 -2.69653137 -86.60361471 -2.69653137 -84.70703125 -4.73828125 C-57.11681807 -19.75961954 -25.09861522 -18.88864857 0 0 Z M-109.70703125 54.26171875 C-108.5971694 57.5913043 -108.08642888 57.96426163 -105.33203125 59.88671875 C-86.47490633 73.57065011 -68.84111705 90.32406939 -54.0234375 108.3046875 C-53.48589844 108.95050781 -52.94835937 109.59632813 -52.39453125 110.26171875 C-51.92402344 110.83921875 -51.45351563 111.41671875 -50.96875 112.01171875 C-49.76624398 113.49631876 -49.76624398 113.49631876 -47.70703125 113.26171875 C-47.04703125 114.58171875 -46.38703125 115.90171875 -45.70703125 117.26171875 C-19.00800068 82.81441004 -19.00800068 82.81441004 -11.70703125 41.26171875 C-13.62099025 32.63191543 -17.55073285 25.55905802 -25.1015625 20.73046875 C-57.49618705 3.61257191 -88.22909827 32.5863783 -109.70703125 54.26171875 Z M-381.18980408 101.62423706 C-382.18221192 102.61620728 -383.17484012 103.60795708 -384.16766554 104.59950936 C-386.85811374 107.28774983 -389.54548175 109.97905009 -392.23229802 112.6709199 C-395.14449057 115.58747132 -398.05961441 118.50109051 -400.97436523 121.41508484 C-406.01280917 126.45300687 -411.04943289 131.4927426 -416.08479118 136.53374863 C-423.37032473 143.82744788 -430.65865469 151.1183476 -437.94764585 158.40859129 C-449.78354437 170.24667344 -461.61721283 182.0869822 -473.44946289 193.92871094 C-484.92420092 205.41263159 -496.39999097 216.89549927 -507.87719727 228.37695312 C-508.58510951 229.08512809 -509.29302176 229.79330306 -510.02238589 230.52293788 C-513.5748583 234.07671565 -517.12735153 237.63047262 -520.67985523 241.18421912 C-545.1391337 265.65209699 -569.59619829 290.12218613 -594.05097961 314.59455872 C-594.57208216 315.11603542 -595.0931847 315.63751213 -595.63007823 316.17479116 C-598.04080169 318.58725001 -600.4515106 320.99972339 -602.86219543 323.41222084 C-604.47352163 325.02473697 -606.08494311 326.6371579 -607.69649112 328.24945235 C-608.90318977 329.45718708 -610.10939137 330.66541918 -611.31459916 331.87464166 C-613.30350414 333.86932604 -615.30968119 335.83236958 -617.35546875 337.76953125 C-627.72816123 347.72612719 -634.57684187 357.00533678 -635.01953125 371.69921875 C-634.69688023 388.15442063 -624.35766648 398.05549162 -613.265625 408.99609375 C-612.05240552 410.20370388 -610.83985711 411.41198854 -609.62794495 412.62091064 C-606.45543709 415.78204258 -603.27403121 418.9340654 -600.09057617 422.08416748 C-596.85638136 425.2876271 -593.63068823 428.49962205 -590.40429688 431.7109375 C-585.19284898 436.89612769 -579.97641041 442.07622946 -574.75285339 447.2492218 C-565.46207572 456.45262062 -565.46207572 456.45262062 -562.76953125 459.76171875 C-560.00645068 463.0349065 -557.03559213 465.57054187 -553.70703125 468.26171875 C-549.43544957 472.39712585 -545.48081061 476.78607626 -541.54882812 481.24023438 C-540.30817714 482.61778478 -539.01160283 483.94454261 -537.70703125 485.26171875 C-537.04703125 485.26171875 -536.38703125 485.26171875 -535.70703125 485.26171875 C-535.70703125 485.92171875 -535.70703125 486.58171875 -535.70703125 487.26171875 C-534.29380006 488.43941141 -532.87607462 489.61222708 -531.43359375 490.75390625 C-528.98226057 492.89466328 -527.02200822 495.36192252 -525.00390625 497.90625 C-524.5759375 498.35355469 -524.14796875 498.80085938 -523.70703125 499.26171875 C-523.04703125 499.26171875 -522.38703125 499.26171875 -521.70703125 499.26171875 C-521.37049247 500.08519224 -521.37049247 500.08519224 -521.02715492 500.92530155 C-519.31602628 503.95373781 -517.03327355 506.21488238 -514.58505249 508.64439392 C-514.05812636 509.1751456 -513.53120023 509.70589728 -512.98830664 510.25273234 C-511.2213902 512.0299674 -509.44740626 513.7999726 -507.67333984 515.57006836 C-506.40484467 516.84291077 -505.13676812 518.1161705 -503.86907959 519.38981628 C-500.42314597 522.84915343 -496.97081961 526.30204316 -493.51691389 529.75341868 C-490.63261572 532.63664755 -487.75129885 535.52284664 -484.86993277 538.40900522 C-478.06912492 545.22091406 -471.26299487 552.02747311 -464.45361328 558.83081055 C-457.43538357 565.84300618 -450.42636594 572.86431345 -443.42181909 579.89017481 C-437.40419431 585.92543486 -431.38075726 591.95485074 -425.35268271 597.97967345 C-421.75415385 601.57639156 -418.15787257 605.1752857 -414.56721115 608.77985954 C-411.18731611 612.17235865 -407.80019978 615.55748055 -404.40749359 618.93716621 C-403.16656558 620.17573411 -401.92816643 621.41684192 -400.6925621 622.66072083 C-389.36834883 634.05525591 -379.38056955 641.64848303 -362.83203125 642.44921875 C-341.69424747 642.04272291 -328.55816116 625.27340305 -314.73046875 611.453125 C-313.30993676 610.03581198 -311.88933206 608.61857182 -310.46865845 607.20140076 C-307.51363388 604.25232289 -304.56064128 601.30122761 -301.60888672 598.34887695 C-297.81861914 594.55850685 -294.02146419 590.7751159 -290.22260094 586.99336338 C-287.29739462 584.07923365 -284.37670199 581.16061294 -281.45729446 578.24067497 C-280.05779811 576.84236099 -278.65667462 575.4456736 -277.25391769 574.05063057 C-275.30564102 572.11208556 -273.36372375 570.16738794 -271.42333984 568.22094727 C-270.84060303 567.64382996 -270.25786621 567.06671265 -269.6574707 566.47210693 C-266.67031087 563.85764518 -266.67031087 563.85764518 -265.70703125 560.26171875 C-265.04703125 560.26171875 -264.38703125 560.26171875 -263.70703125 560.26171875 C-263.70703125 559.60171875 -263.70703125 558.94171875 -263.70703125 558.26171875 C-262.71703125 557.93171875 -261.72703125 557.60171875 -260.70703125 557.26171875 C-260.70703125 556.60171875 -260.70703125 555.94171875 -260.70703125 555.26171875 C-260.04703125 555.26171875 -259.38703125 555.26171875 -258.70703125 555.26171875 C-257.1988866 553.77375179 -257.1988866 553.77375179 -255.63084412 551.81564331 C-251.61976937 547.10294446 -247.31883198 542.75419062 -242.92602539 538.39892578 C-242.07644257 537.55240952 -241.22685974 536.70589325 -240.35153198 535.83372498 C-238.045842 533.53699292 -235.73798944 531.24245896 -233.42944264 528.94859934 C-231.00738085 526.54033437 -228.58902729 524.12835288 -226.17051697 521.71652222 C-217.95005092 513.52010661 -209.7235393 505.32977399 -201.49291992 497.14355469 C-196.93435448 492.60950204 -192.37936295 488.07188947 -187.828206 483.53040016 C-185.42332061 481.13098863 -183.01650003 478.73358758 -180.60511971 476.34070206 C-177.92632661 473.68099985 -175.2536342 471.01531041 -172.58227539 468.34814453 C-171.77975845 467.55438919 -170.97724152 466.76063385 -170.15040588 465.94282532 C-169.4284906 465.21960587 -168.70657532 464.49638641 -167.96278381 463.75125122 C-167.33030763 463.12191744 -166.69783144 462.49258366 -166.04618931 461.84417915 C-164.49170282 460.35277668 -164.49170282 460.35277668 -164.70703125 458.26171875 C-163.71703125 457.93171875 -162.72703125 457.60171875 -161.70703125 457.26171875 C-158.99854202 454.88666657 -158.99854202 454.88666657 -156.70703125 452.26171875 C-156.70703125 451.60171875 -156.70703125 450.94171875 -156.70703125 450.26171875 C-156.12953125 450.01421875 -155.55203125 449.76671875 -154.95703125 449.51171875 C-152.37763146 448.07871887 -150.64581533 446.47747199 -148.70703125 444.26171875 C-148.70703125 443.60171875 -148.70703125 442.94171875 -148.70703125 442.26171875 C-147.71703125 441.93171875 -146.72703125 441.60171875 -145.70703125 441.26171875 C-145.70703125 440.60171875 -145.70703125 439.94171875 -145.70703125 439.26171875 C-145.06765625 438.99359375 -144.42828125 438.72546875 -143.76953125 438.44921875 C-141.37571439 437.37504123 -141.37571439 437.37504123 -140.70703125 434.26171875 C-139.71703125 433.93171875 -138.72703125 433.60171875 -137.70703125 433.26171875 C-137.70703125 432.60171875 -137.70703125 431.94171875 -137.70703125 431.26171875 C-137.15015625 431.05546875 -136.59328125 430.84921875 -136.01953125 430.63671875 C-133.41874109 429.09030298 -131.85918639 427.18988313 -129.98828125 424.83984375 C-127.26582189 421.48657064 -124.19095782 418.65096403 -120.83203125 415.94921875 C-118.4596645 414.0126182 -116.50253263 411.94328627 -114.5246582 409.60620117 C-110.71741977 405.2081058 -106.65325106 401.13168621 -102.5 397.0625 C-100.9274373 395.50746183 -99.35518136 393.95211338 -97.78320312 392.39648438 C-95.34473981 389.98881653 -92.90405094 387.58355723 -90.45776367 385.18383789 C-67.23326926 362.37695738 -48.02792238 337.0210734 -47.57331848 302.84458923 C-47.56437164 300.69580578 -47.56088469 298.54699525 -47.56176758 296.39819336 C-47.55840897 295.21997009 -47.55505035 294.04174683 -47.55158997 292.82781982 C-47.5437421 289.61044466 -47.5404137 286.39310832 -47.53977418 283.17572474 C-47.53906056 281.15859057 -47.53692028 279.14146304 -47.53427696 277.12433052 C-47.52503602 270.06668803 -47.52094015 263.00906436 -47.52172852 255.95141602 C-47.52232764 249.40715697 -47.51180508 242.8629808 -47.49598485 236.31874269 C-47.48283364 230.67426419 -47.47754784 225.02981249 -47.47818393 219.38531882 C-47.47843687 216.02586065 -47.47475578 212.66653421 -47.46500587 209.30708122 C-47.22619906 185.41163655 -47.22619906 185.41163655 -52.33203125 162.19921875 C-52.72007935 161.06407837 -52.72007935 161.06407837 -53.1159668 159.90600586 C-59.25993444 142.80526577 -71.79679088 129.83195778 -84.48217773 117.28076172 C-86.27586616 115.50544874 -88.06130321 113.72214419 -89.84570312 111.9375 C-95.63314771 106.16807232 -101.47675634 100.55599434 -107.70703125 95.26171875 C-109.35628909 93.76548483 -111.00266558 92.26606063 -112.64453125 90.76171875 C-115.92329324 87.81690474 -119.22793115 84.92102598 -122.64453125 82.13671875 C-123.35480469 81.55664062 -124.06507813 80.9765625 -124.796875 80.37890625 C-125.42722656 80.01023437 -126.05757812 79.6415625 -126.70703125 79.26171875 C-130.09673613 80.39162038 -130.27621379 80.73510991 -131.90625 83.69921875 C-132.30674561 84.42028809 -132.70724121 85.14135742 -133.11987305 85.88427734 C-133.54051025 86.66883301 -133.96114746 87.45338867 -134.39453125 88.26171875 C-135.05545776 89.47915771 -135.05545776 89.47915771 -135.72973633 90.72119141 C-141.90491968 102.21534926 -147.34746799 113.76499468 -151.70703125 126.07421875 C-152.16178833 127.35594971 -152.16178833 127.35594971 -152.62573242 128.66357422 C-153.93887369 132.50234314 -154.70703125 135.13103533 -154.70703125 139.26171875 C-153.03144781 140.75230626 -153.03144781 140.75230626 -150.76953125 141.94921875 C-137.30981339 150.45120354 -128.91651948 164.04097033 -124.70703125 179.26171875 C-120.81740208 197.79619332 -124.96667952 215.31162402 -134.70703125 231.26171875 C-143.78109748 244.10949872 -158.19821212 252.79723141 -173.33203125 256.57421875 C-191.61728593 259.59730259 -209.10110884 256.53037511 -224.70703125 246.26171875 C-231.79847077 240.91081487 -237.07287731 234.80779828 -241.70703125 227.26171875 C-242.26519531 226.36195313 -242.82335937 225.4621875 -243.3984375 224.53515625 C-246.91278126 218.52266451 -248.79313764 213.14559269 -249.70703125 206.26171875 C-249.91328125 205.10671875 -250.11953125 203.95171875 -250.33203125 202.76171875 C-252.18846436 185.43500974 -248.30730606 167.23242082 -237.39453125 153.38671875 C-235.86086309 151.65245492 -234.29939507 149.94225036 -232.70703125 148.26171875 C-232.041875 147.54371094 -231.37671875 146.82570313 -230.69140625 146.0859375 C-220.64008343 136.2072519 -207.39032094 131.38699566 -193.70703125 129.26171875 C-191.56611455 128.90670256 -189.42550921 128.54980553 -187.28515625 128.19140625 C-185.70589355 127.9281958 -185.70589355 127.9281958 -184.09472656 127.65966797 C-183.30678711 127.52834473 -182.51884766 127.39702148 -181.70703125 127.26171875 C-181.46170654 126.52872559 -181.21638184 125.79573242 -180.96362305 125.04052734 C-174.2232507 105.08553908 -166.01784287 86.6651486 -155.70703125 68.26171875 C-163.92209488 66.17323837 -171.9199647 65.94330009 -180.35791016 65.91113281 C-181.8112457 65.89853449 -183.26457436 65.88511919 -184.71789551 65.87095642 C-188.639711 65.83531342 -192.56150977 65.81179749 -196.48342943 65.79113865 C-199.77303101 65.77261756 -203.06257428 65.74790152 -206.35213411 65.72316813 C-214.12452676 65.66475706 -221.89693755 65.61600828 -229.66943359 65.57373047 C-237.64809398 65.53019774 -245.62655057 65.47211788 -253.60505736 65.40648293 C-260.48778691 65.35028768 -267.37053971 65.30242607 -274.25337541 65.26123405 C-278.34950477 65.23669237 -282.44556028 65.20935887 -286.54161453 65.17432404 C-290.40107213 65.14174665 -294.26045892 65.11974705 -298.12002563 65.10531807 C-299.52271111 65.09843927 -300.92538547 65.08812003 -302.32801437 65.07376671 C-337.23817328 64.72745138 -357.1446626 77.50053806 -381.18980408 101.62423706 Z M-210.70703125 166.26171875 C-211.57328125 166.96296875 -212.43953125 167.66421875 -213.33203125 168.38671875 C-220.19139688 176.69016135 -223.71045075 186.48425009 -222.70703125 197.26171875 C-220.86309861 207.82526504 -216.21681926 215.95473368 -207.8984375 222.7578125 C-199.26434051 228.68317318 -189.3832756 230.09803312 -179.14453125 228.69921875 C-169.08584922 226.5212705 -161.5921329 220.56052568 -155.70703125 212.26171875 C-150.66296785 204.22541436 -150.43948999 194.45739241 -151.70703125 185.26171875 C-153.47459693 178.7853022 -155.72684401 173.82689039 -160.70703125 169.26171875 C-161.68931272 172.58636373 -162.62357261 175.8616389 -163.33203125 179.2578125 C-165.13013676 187.60470003 -165.13013676 187.60470003 -167.95703125 190.82421875 C-168.86453125 191.29859375 -169.77203125 191.77296875 -170.70703125 192.26171875 C-171.80015625 192.92171875 -172.89328125 193.58171875 -174.01953125 194.26171875 C-177.88435491 195.30980652 -178.4778015 195.33671685 -181.89453125 193.76171875 C-186.33976981 191.15143332 -189.06188851 188.19714697 -190.70703125 183.26171875 C-190.968876 177.23928959 -190.27678967 171.67912116 -189.20703125 165.76171875 C-189.06394531 164.93929687 -188.92085937 164.116875 -188.7734375 163.26953125 C-188.42396213 161.26587248 -188.06634969 159.26363577 -187.70703125 157.26171875 C-196.68948016 157.26171875 -204.13897025 160.29355091 -210.70703125 166.26171875 Z " fill="#080808" transform="translate(824.70703125,168.73828125)"/>
<path d="M0 0 C5.06043763 2.48060668 9.39041092 6.6642214 13 11 C13 11.66 13 12.32 13 13 C13.66 13 14.32 13 15 13 C16.71230248 14.61974559 18.37163262 16.2958946 20 18 C20.928125 18.886875 21.85625 19.77375 22.8125 20.6875 C25 23 25 23 25 25 C25.5775 25.226875 26.155 25.45375 26.75 25.6875 C29.59530878 27.34726345 30.93653334 29.42066667 33 32 C34.14326286 33.03095943 35.30730208 34.03906723 36.484375 35.03125 C41.72117085 39.5597128 46.6046287 44.42068639 51.5 49.3125 C52.4178125 50.21806641 53.335625 51.12363281 54.28125 52.05664062 C55.1475 52.92095703 56.01375 53.78527344 56.90625 54.67578125 C57.69322266 55.45864502 58.48019531 56.24150879 59.29101562 57.0480957 C61 59 61 59 61 61 C61.66 61 62.32 61 63 61 C65.68416178 63.46652704 68.02756942 66.03427549 70.3125 68.875 C72.93468056 72.09463942 75.98195948 74.69969781 79.12890625 77.39453125 C81.2011768 79.17261726 83.1844517 80.95750816 85 83 C85 83.66 85 84.32 85 85 C85.66 85 86.32 85 87 85 C87 85.66 87 86.32 87 87 C87.66 87 88.32 87 89 87 C89 87.66 89 88.32 89 89 C90.98 89.99 90.98 89.99 93 91 C93 91.66 93 92.32 93 93 C93.5775 93.226875 94.155 93.45375 94.75 93.6875 C97.58972308 95.34400513 98.95224536 97.42567988 101 100 C102.08604485 100.95843458 103.1919968 101.89458778 104.3125 102.8125 C106.8892307 104.94895578 109.09453055 107.16677611 111.25463867 109.72167969 C114.85881651 113.8935136 118.68254112 117.77824321 122.61328125 121.640625 C124.03984267 123.05455723 125.46627118 124.46862357 126.89257812 125.8828125 C129.11375919 128.07906974 131.33653013 130.2736728 133.56176758 132.46582031 C135.72914541 134.60305282 137.89030683 136.74641748 140.05078125 138.890625 C141.05229973 139.87195404 141.05229973 139.87195404 142.0740509 140.87310791 C142.69197006 141.48764832 143.30988922 142.10218872 143.9465332 142.73535156 C144.48945511 143.27081604 145.03237701 143.80628052 145.5917511 144.35797119 C148.69679113 147.97847122 149.44540019 151.17465003 149.3203125 155.97265625 C148.6464408 160.23777103 146.08355978 163.0477808 142.9375 165.8125 C138.96916168 168.24470736 135.56347512 168.38028959 131 168 C125.77802875 165.41334663 121.93485513 162.36797263 117.86346436 158.24441528 C117.28790275 157.67353365 116.71234114 157.10265201 116.11933827 156.51447093 C114.20618042 154.61321155 112.30384603 152.7014914 110.40136719 150.78955078 C109.02652943 149.41878095 107.65105489 148.04864953 106.2749939 146.67910767 C102.54928146 142.96704688 98.83309122 139.24558903 95.1189642 135.52194071 C91.22778585 131.62315624 87.32928091 127.73170894 83.4319458 123.83908081 C76.88997864 117.30256775 70.35435389 110.75976314 63.82226562 104.21337891 C56.2723666 96.64714728 48.71171169 89.09179289 41.14539218 81.54198468 C34.64545755 75.05566653 28.15139071 68.56351711 21.66218686 62.06646335 C17.78810757 58.18770935 13.91203542 54.31100523 10.03066254 50.43954849 C6.38278788 46.80034373 2.74233785 43.15387079 -0.89252853 39.50167465 C-2.22708207 38.16315674 -3.56419073 36.82718078 -4.90403366 35.49395752 C-6.73352094 33.67267719 -8.55350281 31.8423917 -10.37139893 30.009552 C-11.16822802 29.22276115 -11.16822802 29.22276115 -11.98115468 28.42007554 C-16.29756076 24.03466045 -18.75391076 20.21480317 -19.4375 14.0625 C-19.24329619 9.45457316 -17.69677598 6.7171777 -15 3 C-10.7146046 -0.90727228 -5.50354203 -0.7811479 0 0 Z " fill="#090909" transform="translate(364,454)"/>
<path d="M0 0 C5.10226614 3.51193415 9.30926066 8.13861529 13.66162109 12.51220703 C14.6392448 13.48848192 15.61716511 14.46445989 16.59536743 15.44015503 C18.63422544 17.47607757 20.66945431 19.51554107 22.70214844 21.55761719 C25.31151404 24.17843724 27.92983841 26.79009461 30.55089378 29.39921761 C32.56701996 31.40813418 34.57838007 33.42176801 36.58830643 35.43688583 C37.55252815 36.40244341 38.51824242 37.36651284 39.48545456 38.32907486 C40.83074327 39.66930677 42.16897702 41.01660919 43.50683594 42.36425781 C44.27039398 43.12940704 45.03395203 43.89455627 45.82064819 44.68289185 C47.45068359 46.56689453 47.45068359 46.56689453 47.45068359 48.56689453 C48.09005859 48.83501953 48.72943359 49.10314453 49.38818359 49.37939453 C51.45068359 50.56689453 51.45068359 50.56689453 52.45068359 53.56689453 C53.02818359 53.85564453 53.60568359 54.14439453 54.20068359 54.44189453 C57.1841392 55.93362233 59.14800529 58.208024 61.45068359 60.56689453 C62.61687697 61.73018192 63.78513817 62.89139845 64.95498657 64.05101013 C65.60541428 64.69710236 66.25584198 65.34319458 66.92597961 66.00886536 C67.62329697 66.70146957 68.32061432 67.39407379 69.0390625 68.10766602 C76.64077057 75.66033147 84.23481147 83.22065936 91.82456398 90.7853384 C96.4127878 95.35787105 101.00378778 99.9275445 105.60107422 104.4909668 C110.05487289 108.9121758 114.5013076 113.34066863 118.94272995 117.77430916 C120.63458016 119.46062152 122.32906627 121.14429362 124.02623367 122.82525444 C126.39822422 125.17547228 128.76066396 127.53490781 131.12109375 129.89672852 C131.82245956 130.5873085 132.52382538 131.27788849 133.2464447 131.98939514 C137.28192267 136.05068357 141.06510589 139.95210356 141.70068359 145.91064453 C141.03432839 151.65795814 139.66240704 154.5510652 135.45068359 158.56689453 C132.41721468 160.86814681 129.40075983 160.83136621 125.64599609 160.93017578 C119.76210116 159.95650633 115.71398137 156.26393241 111.66891479 152.15934753 C111.11941449 151.61382164 110.56991419 151.06829574 110.00376236 150.50623876 C108.17273039 148.68479595 106.35257041 146.85287174 104.53222656 145.02075195 C103.21827986 143.70923434 101.90368794 142.39836287 100.58850098 141.08808899 C97.02390465 137.53288968 93.46877767 133.96835878 89.91554785 130.40180373 C86.1932883 126.66821719 82.46330808 122.94235798 78.73440552 119.21540833 C72.47331486 112.9552003 66.21822921 106.68904142 59.96679688 100.41918945 C52.74313436 93.17436447 45.5106882 85.93840252 38.27331817 78.70727271 C31.30714534 71.7467985 24.34666419 64.78066051 17.38895035 57.81173134 C14.42987046 54.84801163 11.46892054 51.88617904 8.50646591 48.92583275 C5.01672336 45.43797656 1.53203143 41.94515031 -1.94885254 38.4484539 C-3.2258135 37.16725747 -4.50446484 35.88774323 -5.78493881 34.61005783 C-7.53513961 32.8630903 -9.27904307 31.1100644 -11.02151489 29.35539246 C-11.52715788 28.85352879 -12.03280087 28.35166513 -12.55376637 27.83459347 C-17.71520855 22.60924464 -21.28575092 18.07851102 -21.54931641 10.56689453 C-20.85221197 6.45397837 -20.22043975 4.25666019 -17.29931641 1.25439453 C-11.25353207 -2.45551858 -6.39436967 -3.5946131 0 0 Z " fill="#090909" transform="translate(308.54931640625,526.43310546875)"/>
<path d="M0 0 C0 3.67077915 -1.14905353 4.50559224 -3.63806295 7.02530688 C-4.44932567 7.82346181 -4.44932567 7.82346181 -5.27697754 8.63774109 C-6.12839821 9.49300667 -6.12839821 9.49300667 -6.99701929 10.36555034 C-8.91086541 12.28435859 -10.83527673 14.1922123 -12.75976562 16.1003418 C-14.12985042 17.46958084 -15.49927589 18.8394799 -16.86808777 20.20999146 C-20.59475065 23.93751777 -24.33061438 27.65569945 -28.06814384 31.37232566 C-31.96926505 35.25473791 -35.86193515 39.14560429 -39.75549316 43.03559875 C-47.1337323 50.40450041 -54.5195879 57.76571916 -61.90818071 65.12423784 C-70.31778338 73.50034948 -78.71890492 81.88494536 -87.11930943 90.27028024 C-104.40342339 107.5230066 -121.69821083 124.76500045 -139 142 C-139.66 141.67 -140.32 141.34 -141 141 C-140.46890625 140.49210938 -139.9378125 139.98421875 -139.390625 139.4609375 C-134.654104 134.9107582 -134.654104 134.9107582 -130.8125 129.625 C-128.72318282 126.59909236 -127.35363778 126.23555076 -124 125 C-122.94978897 123.15028304 -122.94978897 123.15028304 -122 121 C-120.36023434 119.30685968 -118.68845226 117.64459251 -117 116 C-115.16840481 114.1590601 -113.33739992 112.31754831 -111.50708008 110.4753418 C-106.19927206 105.13500526 -100.88649722 99.79963976 -95.57079029 94.46716595 C-92.36038565 91.24627143 -89.15190022 88.02350968 -85.94750977 84.79663086 C-82.84031706 81.66778012 -79.72832773 78.5437764 -76.61289024 75.42313576 C-75.42656096 74.23310397 -74.24199675 73.04130995 -73.05921364 71.84775352 C-71.41230427 70.18641904 -69.75933691 68.53135497 -68.10473633 66.87768555 C-67.61484222 66.38060089 -67.12494812 65.88351624 -66.62020874 65.37136841 C-63.22811074 62 -63.22811074 62 -61 62 C-60.79632813 61.46632813 -60.59265625 60.93265625 -60.3828125 60.3828125 C-58.41389007 56.99003656 -55.69925432 54.56819844 -52.875 51.875 C-50.86216509 49.95428568 -48.92167788 48.01570493 -47 46 C-47 45.34 -47 44.68 -47 44 C-45.33333333 43 -43.66666667 42 -42 41 C-39.73024946 38.84664692 -37.57944544 36.60813086 -35.421875 34.34375 C-33.98199903 32.8619359 -32.49381422 31.42742248 -31 30 C-30.34 30 -29.68 30 -29 30 C-28.34 28.68 -27.68 27.36 -27 26 C-26.34 26 -25.68 26 -25 26 C-24.896875 25.360625 -24.79375 24.72125 -24.6875 24.0625 C-24.460625 23.381875 -24.23375 22.70125 -24 22 C-23.01 21.67 -22.02 21.34 -21 21 C-20.01 19.515 -20.01 19.515 -19 18 C-18.34 18 -17.68 18 -17 18 C-17 17.34 -17 16.68 -17 16 C-15.56640625 14.58984375 -15.56640625 14.58984375 -13.5625 12.9375 C-8.77658299 8.87931634 -4.3885623 4.47999069 0 0 Z " fill="#252525" transform="translate(320,353)"/>
<path d="M0 0 C0.495 0.99 0.495 0.99 1 2 C0.54109375 2.51949219 0.0821875 3.03898438 -0.390625 3.57421875 C-4.27637652 7.97568232 -4.27637652 7.97568232 -7.9375 12.5625 C-9.64929953 14.58553581 -11.20598009 16.06556856 -13.21875 17.74829102 C-19.99981302 23.63373655 -26.22965204 30.10704592 -32.5625 36.46484375 C-33.96332215 37.86753391 -35.36436743 39.27000128 -36.765625 40.67225647 C-40.43054887 44.3409754 -44.09245808 48.01268878 -47.75372314 51.68505859 C-51.49934506 55.44095978 -55.24784413 59.19398711 -58.99609375 62.94726562 C-66.33352953 70.29538554 -73.66778005 77.6466758 -81 85 C-81.66 84.67 -82.32 84.34 -83 84 C-82.3268148 83.33014572 -82.3268148 83.33014572 -81.64002991 82.64675903 C-76.98170954 78.01051252 -72.32687358 73.37078902 -67.67407227 68.72900391 C-65.93571199 66.99568142 -64.19645649 65.26325629 -62.45629883 63.53173828 C-59.95940655 61.04693577 -57.46572086 58.55895464 -54.97265625 56.0703125 C-54.19036148 55.29317902 -53.40806671 54.51604553 -52.60206604 53.71536255 C-51.8813945 52.99476654 -51.16072296 52.27417053 -50.41821289 51.53173828 C-49.78089737 50.89664337 -49.14358185 50.26154846 -48.48695374 49.60720825 C-46.91010952 48.05284111 -46.91010952 48.05284111 -46 46 C-45.34 46 -44.68 46 -44 46 C-44 45.34 -44 44.68 -44 44 C-42.625 42.375 -42.625 42.375 -41 41 C-40.34 41 -39.68 41 -39 41 C-38.61710312 40.1291275 -38.61710312 40.1291275 -38.22647095 39.24066162 C-36.87329301 36.76851675 -35.37431488 35.13367328 -33.37646484 33.14941406 C-32.63584808 32.40894836 -31.89523132 31.66848267 -31.13217163 30.90557861 C-30.33316437 30.11689392 -29.5341571 29.32820923 -28.7109375 28.515625 C-27.89251373 27.70003113 -27.07408997 26.88443726 -26.23086548 26.04412842 C-23.61690027 23.44135438 -20.99606495 20.84562238 -18.375 18.25 C-16.60110546 16.4861366 -14.82766234 14.7218191 -13.0546875 12.95703125 C-8.70834858 8.63273864 -4.35634919 4.3142067 0 0 Z " fill="#202020" transform="translate(605,683)"/>
<path d="M0 0 C0.495 1.485 0.495 1.485 1 3 C-26.06 30.06 -53.12 57.12 -81 85 C-81.66 84.67 -82.32 84.34 -83 84 C-82.20827393 83.21351074 -81.41654785 82.42702148 -80.60083008 81.61669922 C-77.64430626 78.6783721 -74.69117228 75.73665761 -71.73901367 72.79394531 C-70.46453548 71.52447394 -69.18915841 70.25590428 -67.9128418 68.98828125 C-66.07099103 67.15865674 -64.2324729 65.32573788 -62.39453125 63.4921875 C-61.82974564 62.93256317 -61.26496002 62.37293884 -60.68305969 61.7963562 C-57.23484918 58.34862783 -54.09535463 54.76691789 -51 51 C-49.67815865 49.77661983 -48.32677846 48.58372378 -46.9375 47.4375 C-43.88115226 44.83732357 -41.4992281 42.14419019 -39 39 C-37.85018902 37.98066403 -36.68187412 36.98197998 -35.5 36 C-32.58073393 33.57141908 -30.32143384 31.01786399 -28 28 C-26.3540349 26.31288577 -24.68762851 24.6454378 -23 23 C-22.278125 22.236875 -21.55625 21.47375 -20.8125 20.6875 C-19 19 -19 19 -17 19 C-16.79375 18.443125 -16.5875 17.88625 -16.375 17.3125 C-14.85671336 14.75901793 -13.03429275 13.31927635 -10.72265625 11.49609375 C-8.03962222 9.16593041 -5.81149209 6.47389721 -3.515625 3.76953125 C-2 2 -2 2 0 0 Z " fill="#202020" transform="translate(715,572)"/>
<path d="M0 0 C2.28375321 0.10508216 4.56760881 0.20796322 6.8515625 0.30859375 C8.46853027 0.37989502 8.46853027 0.37989502 10.11816406 0.45263672 C13.7104703 0.586678 17.28045044 0.59820745 20.875 0.5625 C30.28324305 0.47518452 39.67122539 1.05229638 49.0625 1.5625 C49.0625 1.8925 49.0625 2.2225 49.0625 2.5625 C39.11538068 2.58599688 29.1682683 2.60360048 19.22112656 2.61431217 C14.59890491 2.61946135 9.97670267 2.62640782 5.35449219 2.63793945 C-16.10124505 2.69009733 -37.50164885 2.58278946 -58.9375 1.5625 C-58.9375 1.2325 -58.9375 0.9025 -58.9375 0.5625 C-58.04144043 0.56773682 -57.14538086 0.57297363 -56.22216797 0.57836914 C-52.8263278 0.59563909 -49.43053579 0.60805908 -46.03466797 0.61743164 C-44.57828016 0.62239187 -43.12189715 0.62916215 -41.66552734 0.63793945 C-34.30883562 0.68109465 -27.02978619 0.63299003 -19.69140625 0.03125 C-13.07642944 -0.50064775 -6.62038393 -0.34878414 0 0 Z " fill="#3B3B3B" transform="translate(614.9375,203.4375)"/>
<path d="M0 0 C0.66 0.33 1.32 0.66 2 1 C-17.14 20.14 -36.28 39.28 -56 59 C-56.66 58.67 -57.32 58.34 -58 58 C-38.66666667 38.66666667 -19.33333333 19.33333333 0 0 Z " fill="#1F201F" transform="translate(445,228)"/>
<path d="M0 0 C0.33 0.66 0.66 1.32 1 2 C-0.07826365 3.27513763 -1.16285519 4.54492569 -2.25 5.8125 C-2.85328125 6.52019531 -3.4565625 7.22789062 -4.078125 7.95703125 C-5.92370398 9.91889671 -7.79945332 11.45669625 -10 13 C-10.66 12.67 -11.32 12.34 -12 12 C-8.04 8.04 -4.08 4.08 0 0 Z " fill="#262626" transform="translate(605,683)"/>
<path d="M0 0 C0.33 0 0.66 0 1 0 C1.33 4.62 1.66 9.24 2 14 C1.01 14.66 0.02 15.32 -1 16 C-0.67 10.72 -0.34 5.44 0 0 Z " fill="#30302F" transform="translate(813,210)"/>
<path d="M0 0 C0.66 0.33 1.32 0.66 2 1 C-0.31 3.31 -2.62 5.62 -5 8 C-5 5 -5 5 -2.5 2.3125 C-1.675 1.549375 -0.85 0.78625 0 0 Z " fill="#272727" transform="translate(352,455)"/>
<path d="M0 0 C0.66 0.33 1.32 0.66 2 1 C0.02 3.31 -1.96 5.62 -4 8 C-4.66 7.01 -5.32 6.02 -6 5 C-4.02 3.35 -2.04 1.7 0 0 Z " fill="#242425" transform="translate(724,175)"/>
<path d="M0 0 C1.98 0.495 1.98 0.495 4 1 C3.34 1 2.68 1 2 1 C1.67 1.66 1.34 2.32 1 3 C0.01 3.495 0.01 3.495 -1 4 C-0.67 2.68 -0.34 1.36 0 0 Z " fill="#323230" transform="translate(601,680)"/>
<path d="M0 0 C0.99 0.495 0.99 0.495 2 1 C2 1.99 2 2.98 2 4 C1.34 4 0.68 4 0 4 C0 2.68 0 1.36 0 0 Z " fill="#363533" transform="translate(208,456)"/>
<path d="M0 0 C0.99 0 1.98 0 3 0 C3 0.66 3 1.32 3 2 C2.01 1.67 1.02 1.34 0 1 C0 0.67 0 0.34 0 0 Z " fill="#31312F" transform="translate(632,648)"/>
<path d="M0 0 C0.99 0.495 0.99 0.495 2 1 C1.01 2.485 1.01 2.485 0 4 C0 2.68 0 1.36 0 0 Z " fill="#323332" transform="translate(360,305)"/>
<path d="M0 0 C0 3 0 3 0 3 Z " fill="#333331" transform="translate(580,328)"/>
<path d="M0 0 C4 1 4 1 4 1 Z " fill="#323231" transform="translate(649,236)"/>
<path d="M0 0 C3 1 3 1 3 1 Z " fill="#323433" transform="translate(480,801)"/>
<path d="M0 0 C0.66 0 1.32 0 2 0 C1.67 0.66 1.34 1.32 1 2 C0.67 1.34 0.34 0.68 0 0 Z " fill="#313231" transform="translate(594,688)"/>
<path d="M0 0 C0.99 0.495 0.99 0.495 2 1 C1.01 1.495 1.01 1.495 0 2 C0 1.34 0 0.68 0 0 Z " fill="#323230" transform="translate(629,656)"/>
<path d="M0 0 C0.99 0.495 0.99 0.495 2 1 C1.01 1.495 1.01 1.495 0 2 C0 1.34 0 0.68 0 0 Z " fill="#363435" transform="translate(288,528)"/>
<path d="" fill="#3F3E3F" transform="translate(0,0)"/>
<path d="M0 0 C0.99 0.495 0.99 0.495 2 1 C1.01 1.495 1.01 1.495 0 2 C0 1.34 0 0.68 0 0 Z " fill="#353534" transform="translate(232,432)"/>
<path d="" fill="#333533" transform="translate(0,0)"/>
<path d="M0 0 C0.66 0.66 1.32 1.32 2 2 C1.34 2 0.68 2 0 2 C0 1.34 0 0.68 0 0 Z " fill="#343533" transform="translate(260,408)"/>
<path d="" fill="#323130" transform="translate(0,0)"/>
<path d="M0 0 C0.66 0 1.32 0 2 0 C1.67 0.66 1.34 1.32 1 2 C0.67 1.34 0.34 0.68 0 0 Z " fill="#343431" transform="translate(400,264)"/>
<path d="M0 0 C0.66 0 1.32 0 2 0 C1.67 0.66 1.34 1.32 1 2 C0.67 1.34 0.34 0.68 0 0 Z " fill="#2D2B2C" transform="translate(717,224)"/>
<path d="M0 0 C0.33 0.66 0.66 1.32 1 2 C0.34 1.67 -0.32 1.34 -1 1 C-0.67 0.67 -0.34 0.34 0 0 Z " fill="#363535" transform="translate(443,224)"/>
<path d="" fill="#383836" transform="translate(0,0)"/>
<path d="M0 0 C2 1 2 1 2 1 Z " fill="#343333" transform="translate(469,808)"/>
<path d="M0 0 C2 1 2 1 2 1 Z " fill="#333333" transform="translate(455,808)"/>
<path d="" fill="#323131" transform="translate(0,0)"/>
<path d="" fill="#303032" transform="translate(0,0)"/>
<path d="M0 0 C2 1 2 1 2 1 Z " fill="#323131" transform="translate(517,769)"/>
<path d="" fill="#313132" transform="translate(0,0)"/>
<path d="" fill="#323130" transform="translate(0,0)"/>
<path d="" fill="#313230" transform="translate(0,0)"/>
<path d="" fill="#323231" transform="translate(0,0)"/>
<path d="" fill="#353333" transform="translate(0,0)"/>
<path d="" fill="#343231" transform="translate(0,0)"/>
<path d="" fill="#343231" transform="translate(0,0)"/>
<path d="" fill="#313231" transform="translate(0,0)"/>
<path d="M0 0 C2 1 2 1 2 1 Z " fill="#393837" transform="translate(499,623)"/>
<path d="" fill="#3B3837" transform="translate(0,0)"/>
<path d="" fill="#303030" transform="translate(0,0)"/>
<path d="M0 0 C2 1 2 1 2 1 Z " fill="#2F2E2E" transform="translate(363,576)"/>
<path d="" fill="#303030" transform="translate(0,0)"/>
<path d="" fill="#363434" transform="translate(0,0)"/>
<path d="" fill="#3C3B3A" transform="translate(0,0)"/>
<path d="M0 0 C2 1 2 1 2 1 Z " fill="#393838" transform="translate(296,523)"/>
<path d="" fill="#333434" transform="translate(0,0)"/>
<path d="M0 0 C2 1 2 1 2 1 Z " fill="#383836" transform="translate(629,431)"/>
<path d="" fill="#353735" transform="translate(0,0)"/>
<path d="M0 0 C2 1 2 1 2 1 Z " fill="#373734" transform="translate(641,395)"/>
<path d="M0 0 C2 1 2 1 2 1 Z " fill="#353634" transform="translate(274,392)"/>
<path d="M0 0 C2 1 2 1 2 1 Z " fill="#333332" transform="translate(296,369)"/>
<path d="" fill="#333433" transform="translate(0,0)"/>
<path d="" fill="#333231" transform="translate(0,0)"/>
<path d="" fill="#333431" transform="translate(0,0)"/>
<path d="" fill="#313130" transform="translate(0,0)"/>
<path d="" fill="#2C2A2B" transform="translate(0,0)"/>
<path d="" fill="#2F2C2E" transform="translate(0,0)"/>
<path d="M0 0 C2 1 2 1 2 1 Z " fill="#333331" transform="translate(331,337)"/>
<path d="M0 0 C2 1 2 1 2 1 Z " fill="#333331" transform="translate(760,312)"/>
<path d="" fill="#313131" transform="translate(0,0)"/>
<path d="" fill="#343333" transform="translate(0,0)"/>
<path d="M0 0 C2 1 2 1 2 1 Z " fill="#343332" transform="translate(624,296)"/>
<path d="M0 0 C2 1 2 1 2 1 Z " fill="#333431" transform="translate(370,296)"/>
<path d="" fill="#31302F" transform="translate(0,0)"/>
<path d="M0 0 C2 1 2 1 2 1 Z " fill="#343430" transform="translate(641,291)"/>
<path d="M0 0 C2 1 2 1 2 1 Z " fill="#323432" transform="translate(389,281)"/>
<path d="" fill="#333231" transform="translate(0,0)"/>
<path d="" fill="#353332" transform="translate(0,0)"/>
<path d="M0 0 C2 1 2 1 2 1 Z " fill="#313030" transform="translate(654,236)"/>
<path d="M0 0 C2 1 2 1 2 1 Z " fill="#363434" transform="translate(440,224)"/>
<path d="M0 0 C2 1 2 1 2 1 Z " fill="#2D2D2D" transform="translate(684,208)"/>
<path d="M0 0 C2 1 2 1 2 1 Z " fill="#383838" transform="translate(720,176)"/>
<path d="M0 0 C2 1 2 1 2 1 Z " fill="#424141" transform="translate(799,154)"/>
<path d="M0 0 C2 1 2 1 2 1 Z " fill="#403F3F" transform="translate(776,152)"/>
<path d="" fill="#4F504F" transform="translate(0,0)"/>
<path d="" fill="#363333" transform="translate(0,0)"/>
<path d="" fill="#333232" transform="translate(0,0)"/>
<path d="" fill="#363636" transform="translate(0,0)"/>
<path d="" fill="#333431" transform="translate(0,0)"/>
<path d="" fill="#323230" transform="translate(0,0)"/>
<path d="" fill="#33322E" transform="translate(0,0)"/>
<path d="" fill="#323331" transform="translate(0,0)"/>
<path d="" fill="#353535" transform="translate(0,0)"/>
<path d="" fill="#323333" transform="translate(0,0)"/>
<path d="" fill="#30322F" transform="translate(0,0)"/>
<path d="" fill="#323130" transform="translate(0,0)"/>
<path d="" fill="#363233" transform="translate(0,0)"/>
<path d="" fill="#31302F" transform="translate(0,0)"/>
<path d="" fill="#313131" transform="translate(0,0)"/>
<path d="" fill="#31302E" transform="translate(0,0)"/>
<path d="" fill="#323031" transform="translate(0,0)"/>
<path d="" fill="#333334" transform="translate(0,0)"/>
<path d="" fill="#302E2E" transform="translate(0,0)"/>
<path d="" fill="#30302F" transform="translate(0,0)"/>
<path d="" fill="#333030" transform="translate(0,0)"/>
<path d="" fill="#2E3130" transform="translate(0,0)"/>
<path d="" fill="#2F2F31" transform="translate(0,0)"/>
<path d="" fill="#302F2F" transform="translate(0,0)"/>
<path d="" fill="#31302F" transform="translate(0,0)"/>
<path d="" fill="#2D2E2C" transform="translate(0,0)"/>
<path d="" fill="#312F30" transform="translate(0,0)"/>
<path d="" fill="#313130" transform="translate(0,0)"/>
<path d="" fill="#302E2D" transform="translate(0,0)"/>
<path d="" fill="#31302F" transform="translate(0,0)"/>
<path d="" fill="#323231" transform="translate(0,0)"/>
<path d="" fill="#31322F" transform="translate(0,0)"/>
<path d="" fill="#343132" transform="translate(0,0)"/>
<path d="" fill="#333130" transform="translate(0,0)"/>
<path d="" fill="#322F31" transform="translate(0,0)"/>
<path d="" fill="#2F2F31" transform="translate(0,0)"/>
<path d="" fill="#333431" transform="translate(0,0)"/>
<path d="" fill="#333331" transform="translate(0,0)"/>
<path d="" fill="#31332F" transform="translate(0,0)"/>
<path d="" fill="#353332" transform="translate(0,0)"/>
<path d="" fill="#343130" transform="translate(0,0)"/>
<path d="" fill="#323030" transform="translate(0,0)"/>
<path d="" fill="#2E322E" transform="translate(0,0)"/>
<path d="" fill="#2D2D2B" transform="translate(0,0)"/>
<path d="" fill="#323231" transform="translate(0,0)"/>
<path d="" fill="#323330" transform="translate(0,0)"/>
<path d="" fill="#323030" transform="translate(0,0)"/>
<path d="" fill="#343133" transform="translate(0,0)"/>
<path d="" fill="#32302F" transform="translate(0,0)"/>
<path d="" fill="#2E2D2D" transform="translate(0,0)"/>
<path d="" fill="#2E2E2F" transform="translate(0,0)"/>
<path d="" fill="#332F30" transform="translate(0,0)"/>
<path d="" fill="#353430" transform="translate(0,0)"/>
<path d="" fill="#333331" transform="translate(0,0)"/>
<path d="" fill="#30312F" transform="translate(0,0)"/>
<path d="" fill="#2D2C2C" transform="translate(0,0)"/>
<path d="" fill="#323230" transform="translate(0,0)"/>
<path d="" fill="#313330" transform="translate(0,0)"/>
<path d="" fill="#333233" transform="translate(0,0)"/>
<path d="" fill="#383838" transform="translate(0,0)"/>
<path d="" fill="#353534" transform="translate(0,0)"/>
<path d="" fill="#323330" transform="translate(0,0)"/>
<path d="" fill="#383937" transform="translate(0,0)"/>
<path d="" fill="#383537" transform="translate(0,0)"/>
<path d="" fill="#3C3B38" transform="translate(0,0)"/>
<path d="" fill="#323230" transform="translate(0,0)"/>
<path d="" fill="#302F2F" transform="translate(0,0)"/>
<path d="" fill="#353332" transform="translate(0,0)"/>
<path d="" fill="#313330" transform="translate(0,0)"/>
<path d="" fill="#333331" transform="translate(0,0)"/>
<path d="" fill="#332F31" transform="translate(0,0)"/>
<path d="" fill="#353434" transform="translate(0,0)"/>
<path d="" fill="#312F30" transform="translate(0,0)"/>
<path d="" fill="#363535" transform="translate(0,0)"/>
<path d="" fill="#343332" transform="translate(0,0)"/>
<path d="" fill="#323033" transform="translate(0,0)"/>
<path d="" fill="#363434" transform="translate(0,0)"/>
<path d="" fill="#33322F" transform="translate(0,0)"/>
<path d="" fill="#393939" transform="translate(0,0)"/>
<path d="" fill="#343330" transform="translate(0,0)"/>
<path d="" fill="#2E2C2D" transform="translate(0,0)"/>
<path d="" fill="#343131" transform="translate(0,0)"/>
<path d="" fill="#333032" transform="translate(0,0)"/>
<path d="" fill="#363535" transform="translate(0,0)"/>
<path d="" fill="#363535" transform="translate(0,0)"/>
<path d="" fill="#30322E" transform="translate(0,0)"/>
<path d="" fill="#373433" transform="translate(0,0)"/>
<path d="" fill="#323031" transform="translate(0,0)"/>
<path d="" fill="#323433" transform="translate(0,0)"/>
<path d="" fill="#353433" transform="translate(0,0)"/>
<path d="" fill="#2E302E" transform="translate(0,0)"/>
<path d="" fill="#393836" transform="translate(0,0)"/>
<path d="" fill="#333230" transform="translate(0,0)"/>
<path d="" fill="#332F2F" transform="translate(0,0)"/>
<path d="" fill="#343232" transform="translate(0,0)"/>
<path d="" fill="#30302F" transform="translate(0,0)"/>
<path d="" fill="#2D2E2C" transform="translate(0,0)"/>
<path d="" fill="#302F2F" transform="translate(0,0)"/>
<path d="" fill="#323134" transform="translate(0,0)"/>
<path d="" fill="#333232" transform="translate(0,0)"/>
<path d="" fill="#323130" transform="translate(0,0)"/>
<path d="" fill="#31312F" transform="translate(0,0)"/>
<path d="" fill="#343231" transform="translate(0,0)"/>
<path d="" fill="#353331" transform="translate(0,0)"/>
<path d="" fill="#302F2E" transform="translate(0,0)"/>
<path d="" fill="#31312E" transform="translate(0,0)"/>
<path d="" fill="#343232" transform="translate(0,0)"/>
<path d="" fill="#333331" transform="translate(0,0)"/>
<path d="" fill="#323232" transform="translate(0,0)"/>
<path d="" fill="#3B3C3A" transform="translate(0,0)"/>
<path d="" fill="#2E2C2C" transform="translate(0,0)"/>
<path d="" fill="#302E2D" transform="translate(0,0)"/>
<path d="" fill="#312F2E" transform="translate(0,0)"/>
<path d="" fill="#31332F" transform="translate(0,0)"/>
<path d="" fill="#31312F" transform="translate(0,0)"/>
<path d="" fill="#2F2E2C" transform="translate(0,0)"/>
<path d="" fill="#373535" transform="translate(0,0)"/>
<path d="" fill="#353433" transform="translate(0,0)"/>
<path d="" fill="#2F2D2D" transform="translate(0,0)"/>
<path d="" fill="#373433" transform="translate(0,0)"/>
<path d="" fill="#383736" transform="translate(0,0)"/>
<path d="" fill="#363537" transform="translate(0,0)"/>
<path d="" fill="#2F2D2E" transform="translate(0,0)"/>
<path d="" fill="#2E2D2D" transform="translate(0,0)"/>
<path d="" fill="#333231" transform="translate(0,0)"/>
<path d="" fill="#2F302E" transform="translate(0,0)"/>
<path d="" fill="#31302E" transform="translate(0,0)"/>
<path d="" fill="#333131" transform="translate(0,0)"/>
<path d="" fill="#343031" transform="translate(0,0)"/>
<path d="" fill="#2E302C" transform="translate(0,0)"/>
<path d="" fill="#353534" transform="translate(0,0)"/>
<path d="" fill="#2F2D2E" transform="translate(0,0)"/>
<path d="" fill="#323330" transform="translate(0,0)"/>
<path d="" fill="#302E2F" transform="translate(0,0)"/>
<path d="" fill="#353334" transform="translate(0,0)"/>
<path d="" fill="#302F2F" transform="translate(0,0)"/>
<path d="" fill="#322F2F" transform="translate(0,0)"/>
<path d="" fill="#33302F" transform="translate(0,0)"/>
<path d="" fill="#333231" transform="translate(0,0)"/>
<path d="" fill="#2F2C2D" transform="translate(0,0)"/>
<path d="" fill="#2E2F2D" transform="translate(0,0)"/>
<path d="" fill="#2F2E2F" transform="translate(0,0)"/>
<path d="" fill="#30302E" transform="translate(0,0)"/>
<path d="" fill="#393738" transform="translate(0,0)"/>
<path d="" fill="#313030" transform="translate(0,0)"/>
<path d="" fill="#302E2E" transform="translate(0,0)"/>
<path d="" fill="#322F31" transform="translate(0,0)"/>
<path d="" fill="#313131" transform="translate(0,0)"/>
<path d="" fill="#333132" transform="translate(0,0)"/>
<path d="" fill="#313130" transform="translate(0,0)"/>
<path d="" fill="#2E312F" transform="translate(0,0)"/>
<path d="" fill="#302D2B" transform="translate(0,0)"/>
<path d="" fill="#2E2F2F" transform="translate(0,0)"/>
<path d="" fill="#353434" transform="translate(0,0)"/>
<path d="" fill="#373434" transform="translate(0,0)"/>
<path d="" fill="#322F2E" transform="translate(0,0)"/>
<path d="" fill="#32302E" transform="translate(0,0)"/>
<path d="" fill="#3B3A39" transform="translate(0,0)"/>
<path d="" fill="#313030" transform="translate(0,0)"/>
<path d="" fill="#333132" transform="translate(0,0)"/>
<path d="" fill="#333232" transform="translate(0,0)"/>
<path d="" fill="#343533" transform="translate(0,0)"/>
<path d="" fill="#343433" transform="translate(0,0)"/>
<path d="" fill="#312F2D" transform="translate(0,0)"/>
<path d="" fill="#363535" transform="translate(0,0)"/>
<path d="" fill="#333131" transform="translate(0,0)"/>
<path d="" fill="#2F2C2D" transform="translate(0,0)"/>
<path d="" fill="#322F30" transform="translate(0,0)"/>
<path d="" fill="#323130" transform="translate(0,0)"/>
<path d="" fill="#343230" transform="translate(0,0)"/>
<path d="" fill="#323533" transform="translate(0,0)"/>
<path d="" fill="#3A3939" transform="translate(0,0)"/>
<path d="" fill="#312E2C" transform="translate(0,0)"/>
<path d="" fill="#322F31" transform="translate(0,0)"/>
<path d="" fill="#3B3939" transform="translate(0,0)"/>
<path d="" fill="#332F31" transform="translate(0,0)"/>
<path d="" fill="#323230" transform="translate(0,0)"/>
<path d="" fill="#31302E" transform="translate(0,0)"/>
<path d="" fill="#302F2E" transform="translate(0,0)"/>
<path d="" fill="#343332" transform="translate(0,0)"/>
<path d="" fill="#313132" transform="translate(0,0)"/>
<path d="" fill="#2E2C2C" transform="translate(0,0)"/>
<path d="" fill="#302F2D" transform="translate(0,0)"/>
<path d="" fill="#302F30" transform="translate(0,0)"/>
<path d="" fill="#302F2E" transform="translate(0,0)"/>
<path d="" fill="#373731" transform="translate(0,0)"/>
<path d="" fill="#322F30" transform="translate(0,0)"/>
<path d="" fill="#343233" transform="translate(0,0)"/>
<path d="" fill="#302E2F" transform="translate(0,0)"/>
<path d="" fill="#313130" transform="translate(0,0)"/>
<path d="" fill="#322F30" transform="translate(0,0)"/>
<path d="" fill="#333132" transform="translate(0,0)"/>
<path d="" fill="#32312F" transform="translate(0,0)"/>
<path d="" fill="#333430" transform="translate(0,0)"/>
<path d="" fill="#343133" transform="translate(0,0)"/>
<path d="" fill="#312F2F" transform="translate(0,0)"/>
<path d="" fill="#3B3839" transform="translate(0,0)"/>
<path d="" fill="#31302E" transform="translate(0,0)"/>
<path d="" fill="#313231" transform="translate(0,0)"/>
<path d="" fill="#373636" transform="translate(0,0)"/>
<path d="" fill="#3E3D3C" transform="translate(0,0)"/>
<path d="" fill="#323131" transform="translate(0,0)"/>
<path d="" fill="#3E3E3D" transform="translate(0,0)"/>
<path d="" fill="#343134" transform="translate(0,0)"/>
<path d="" fill="#353435" transform="translate(0,0)"/>
<path d="" fill="#3C3A3A" transform="translate(0,0)"/>
<path d="" fill="#343433" transform="translate(0,0)"/>
<path d="" fill="#333231" transform="translate(0,0)"/>
<path d="" fill="#3B3B3B" transform="translate(0,0)"/>
<path d="" fill="#353433" transform="translate(0,0)"/>
<path d="" fill="#313031" transform="translate(0,0)"/>
<path d="" fill="#343333" transform="translate(0,0)"/>
<path d="" fill="#39363A" transform="translate(0,0)"/>
<path d="" fill="#373636" transform="translate(0,0)"/>
<path d="" fill="#363533" transform="translate(0,0)"/>
<path d="" fill="#363838" transform="translate(0,0)"/>
<path d="" fill="#393537" transform="translate(0,0)"/>
<path d="" fill="#363839" transform="translate(0,0)"/>
<path d="" fill="#373837" transform="translate(0,0)"/>
<path d="" fill="#3E3D3B" transform="translate(0,0)"/>
<path d="" fill="#353437" transform="translate(0,0)"/>
<path d="" fill="#393736" transform="translate(0,0)"/>
<path d="" fill="#373A37" transform="translate(0,0)"/>
<path d="" fill="#3A3C3B" transform="translate(0,0)"/>
<path d="" fill="#353534" transform="translate(0,0)"/>
<path d="" fill="#393938" transform="translate(0,0)"/>
<path d="" fill="#3A3938" transform="translate(0,0)"/>
<path d="" fill="#353734" transform="translate(0,0)"/>
<path d="" fill="#363735" transform="translate(0,0)"/>
<path d="" fill="#383736" transform="translate(0,0)"/>
<path d="" fill="#363637" transform="translate(0,0)"/>
<path d="" fill="#383837" transform="translate(0,0)"/>
<path d="" fill="#333533" transform="translate(0,0)"/>
<path d="" fill="#353233" transform="translate(0,0)"/>
<path d="" fill="#353534" transform="translate(0,0)"/>
<path d="" fill="#313331" transform="translate(0,0)"/>
<path d="" fill="#343634" transform="translate(0,0)"/>
<path d="" fill="#3C3B3A" transform="translate(0,0)"/>
<path d="" fill="#343330" transform="translate(0,0)"/>
<path d="" fill="#343333" transform="translate(0,0)"/>
<path d="" fill="#363637" transform="translate(0,0)"/>
<path d="" fill="#323235" transform="translate(0,0)"/>
<path d="" fill="#333431" transform="translate(0,0)"/>
<path d="" fill="#383837" transform="translate(0,0)"/>
<path d="" fill="#393B37" transform="translate(0,0)"/>
<path d="" fill="#333431" transform="translate(0,0)"/>
<path d="" fill="#353535" transform="translate(0,0)"/>
<path d="" fill="#373332" transform="translate(0,0)"/>
<path d="" fill="#343532" transform="translate(0,0)"/>
<path d="" fill="#363435" transform="translate(0,0)"/>
<path d="" fill="#333232" transform="translate(0,0)"/>
<path d="" fill="#363634" transform="translate(0,0)"/>
<path d="" fill="#353535" transform="translate(0,0)"/>
<path d="" fill="#343434" transform="translate(0,0)"/>
<path d="" fill="#343433" transform="translate(0,0)"/>
<path d="" fill="#343432" transform="translate(0,0)"/>
<path d="" fill="#333333" transform="translate(0,0)"/>
<path d="" fill="#333131" transform="translate(0,0)"/>
<path d="" fill="#373734" transform="translate(0,0)"/>
<path d="" fill="#373737" transform="translate(0,0)"/>
<path d="" fill="#31302F" transform="translate(0,0)"/>
<path d="" fill="#363433" transform="translate(0,0)"/>
<path d="" fill="#323230" transform="translate(0,0)"/>
<path d="" fill="#333435" transform="translate(0,0)"/>
<path d="" fill="#363534" transform="translate(0,0)"/>
<path d="" fill="#333131" transform="translate(0,0)"/>
<path d="" fill="#343031" transform="translate(0,0)"/>
<path d="" fill="#333533" transform="translate(0,0)"/>
<path d="" fill="#373636" transform="translate(0,0)"/>
<path d="" fill="#323231" transform="translate(0,0)"/>
<path d="" fill="#323132" transform="translate(0,0)"/>
<path d="" fill="#333534" transform="translate(0,0)"/>
<path d="" fill="#313030" transform="translate(0,0)"/>
<path d="" fill="#323031" transform="translate(0,0)"/>
<path d="" fill="#343334" transform="translate(0,0)"/>
<path d="" fill="#333230" transform="translate(0,0)"/>
<path d="" fill="#2F322F" transform="translate(0,0)"/>
<path d="" fill="#313332" transform="translate(0,0)"/>
<path d="" fill="#31302F" transform="translate(0,0)"/>
<path d="" fill="#333231" transform="translate(0,0)"/>
<path d="" fill="#333434" transform="translate(0,0)"/>
<path d="" fill="#353334" transform="translate(0,0)"/>
<path d="" fill="#2D302D" transform="translate(0,0)"/>
<path d="" fill="#333333" transform="translate(0,0)"/>
<path d="" fill="#353633" transform="translate(0,0)"/>
<path d="" fill="#313232" transform="translate(0,0)"/>
<path d="" fill="#323332" transform="translate(0,0)"/>
<path d="" fill="#333335" transform="translate(0,0)"/>
<path d="" fill="#343334" transform="translate(0,0)"/>
<path d="" fill="#323430" transform="translate(0,0)"/>
<path d="" fill="#333230" transform="translate(0,0)"/>
<path d="" fill="#343331" transform="translate(0,0)"/>
<path d="" fill="#333533" transform="translate(0,0)"/>
<path d="" fill="#30312F" transform="translate(0,0)"/>
<path d="" fill="#333232" transform="translate(0,0)"/>
<path d="" fill="#323031" transform="translate(0,0)"/>
<path d="" fill="#373536" transform="translate(0,0)"/>
<path d="" fill="#33332F" transform="translate(0,0)"/>
<path d="" fill="#353432" transform="translate(0,0)"/>
<path d="" fill="#30312F" transform="translate(0,0)"/>
<path d="" fill="#343434" transform="translate(0,0)"/>
<path d="" fill="#323032" transform="translate(0,0)"/>
<path d="" fill="#343233" transform="translate(0,0)"/>
<path d="" fill="#323334" transform="translate(0,0)"/>
<path d="" fill="#313332" transform="translate(0,0)"/>
<path d="" fill="#323332" transform="translate(0,0)"/>
<path d="" fill="#333234" transform="translate(0,0)"/>
<path d="" fill="#343232" transform="translate(0,0)"/>
<path d="" fill="#302F30" transform="translate(0,0)"/>
<path d="" fill="#323332" transform="translate(0,0)"/>
<path d="" fill="#363430" transform="translate(0,0)"/>
<path d="" fill="#2F2C2C" transform="translate(0,0)"/>
<path d="" fill="#323030" transform="translate(0,0)"/>
<path d="" fill="#2E2B2C" transform="translate(0,0)"/>
<path d="" fill="#323231" transform="translate(0,0)"/>
<path d="" fill="#323130" transform="translate(0,0)"/>
<path d="" fill="#2F2E2C" transform="translate(0,0)"/>
<path d="" fill="#322F30" transform="translate(0,0)"/>
<path d="" fill="#2D2C2A" transform="translate(0,0)"/>
<path d="" fill="#333431" transform="translate(0,0)"/>
<path d="" fill="#353334" transform="translate(0,0)"/>
<path d="" fill="#333231" transform="translate(0,0)"/>
<path d="" fill="#2F2E2B" transform="translate(0,0)"/>
<path d="" fill="#2F2D30" transform="translate(0,0)"/>
<path d="" fill="#333333" transform="translate(0,0)"/>
<path d="" fill="#383638" transform="translate(0,0)"/>
<path d="" fill="#3B3B39" transform="translate(0,0)"/>
<path d="" fill="#34322E" transform="translate(0,0)"/>
<path d="" fill="#353632" transform="translate(0,0)"/>
<path d="" fill="#2F2E2E" transform="translate(0,0)"/>
<path d="" fill="#363634" transform="translate(0,0)"/>
<path d="" fill="#333432" transform="translate(0,0)"/>
<path d="" fill="#313131" transform="translate(0,0)"/>
<path d="" fill="#2D2B2B" transform="translate(0,0)"/>
<path d="" fill="#323331" transform="translate(0,0)"/>
<path d="" fill="#353434" transform="translate(0,0)"/>
<path d="" fill="#343132" transform="translate(0,0)"/>
<path d="" fill="#383838" transform="translate(0,0)"/>
<path d="" fill="#353231" transform="translate(0,0)"/>
<path d="" fill="#333433" transform="translate(0,0)"/>
<path d="" fill="#353531" transform="translate(0,0)"/>
<path d="" fill="#33302F" transform="translate(0,0)"/>
<path d="" fill="#363734" transform="translate(0,0)"/>
<path d="" fill="#333434" transform="translate(0,0)"/>
<path d="" fill="#333530" transform="translate(0,0)"/>
<path d="" fill="#313230" transform="translate(0,0)"/>
<path d="" fill="#373436" transform="translate(0,0)"/>
<path d="" fill="#363735" transform="translate(0,0)"/>
<path d="" fill="#343332" transform="translate(0,0)"/>
<path d="" fill="#333432" transform="translate(0,0)"/>
<path d="" fill="#353636" transform="translate(0,0)"/>
<path d="" fill="#333031" transform="translate(0,0)"/>
<path d="" fill="#32302F" transform="translate(0,0)"/>
<path d="" fill="#343333" transform="translate(0,0)"/>
<path d="" fill="#353431" transform="translate(0,0)"/>
<path d="" fill="#353232" transform="translate(0,0)"/>
<path d="" fill="#323232" transform="translate(0,0)"/>
<path d="" fill="#303130" transform="translate(0,0)"/>
<path d="" fill="#343533" transform="translate(0,0)"/>
<path d="" fill="#34322F" transform="translate(0,0)"/>
<path d="" fill="#363433" transform="translate(0,0)"/>
<path d="" fill="#333332" transform="translate(0,0)"/>
<path d="" fill="#323233" transform="translate(0,0)"/>
<path d="" fill="#333432" transform="translate(0,0)"/>
<path d="" fill="#353535" transform="translate(0,0)"/>
<path d="" fill="#333534" transform="translate(0,0)"/>
<path d="" fill="#333333" transform="translate(0,0)"/>
<path d="" fill="#313131" transform="translate(0,0)"/>
<path d="" fill="#302F2E" transform="translate(0,0)"/>
<path d="" fill="#333635" transform="translate(0,0)"/>
<path d="" fill="#323132" transform="translate(0,0)"/>
<path d="" fill="#353333" transform="translate(0,0)"/>
<path d="" fill="#363532" transform="translate(0,0)"/>
<path d="" fill="#343231" transform="translate(0,0)"/>
<path d="" fill="#353534" transform="translate(0,0)"/>
<path d="" fill="#343431" transform="translate(0,0)"/>
<path d="" fill="#343630" transform="translate(0,0)"/>
<path d="" fill="#353433" transform="translate(0,0)"/>
<path d="" fill="#333333" transform="translate(0,0)"/>
<path d="" fill="#343231" transform="translate(0,0)"/>
<path d="" fill="#313132" transform="translate(0,0)"/>
<path d="" fill="#30302E" transform="translate(0,0)"/>
<path d="" fill="#333132" transform="translate(0,0)"/>
<path d="" fill="#313536" transform="translate(0,0)"/>
<path d="" fill="#3D3C3E" transform="translate(0,0)"/>
<path d="" fill="#353534" transform="translate(0,0)"/>
<path d="" fill="#343030" transform="translate(0,0)"/>
<path d="" fill="#302F2D" transform="translate(0,0)"/>
<path d="" fill="#2F302E" transform="translate(0,0)"/>
<path d="" fill="#353434" transform="translate(0,0)"/>
<path d="" fill="#333130" transform="translate(0,0)"/>
<path d="" fill="#343535" transform="translate(0,0)"/>
<path d="" fill="#333333" transform="translate(0,0)"/>
<path d="" fill="#323131" transform="translate(0,0)"/>
<path d="" fill="#363535" transform="translate(0,0)"/>
<path d="" fill="#333335" transform="translate(0,0)"/>
<path d="" fill="#353232" transform="translate(0,0)"/>
<path d="" fill="#303030" transform="translate(0,0)"/>
<path d="" fill="#323635" transform="translate(0,0)"/>
<path d="" fill="#323334" transform="translate(0,0)"/>
<path d="" fill="#353432" transform="translate(0,0)"/>
<path d="" fill="#343435" transform="translate(0,0)"/>
<path d="" fill="#393938" transform="translate(0,0)"/>
<path d="" fill="#393B3B" transform="translate(0,0)"/>
<path d="" fill="#3C3D3E" transform="translate(0,0)"/>
<path d="" fill="#3D3E3D" transform="translate(0,0)"/>
<path d="" fill="#353536" transform="translate(0,0)"/>
<path d="" fill="#373735" transform="translate(0,0)"/>
<path d="" fill="#424343" transform="translate(0,0)"/>
<path d="" fill="#333133" transform="translate(0,0)"/>
<path d="" fill="#363735" transform="translate(0,0)"/>
<path d="" fill="#373533" transform="translate(0,0)"/>
<path d="" fill="#343233" transform="translate(0,0)"/>
<path d="" fill="#383635" transform="translate(0,0)"/>
<path d="" fill="#383735" transform="translate(0,0)"/>
<path d="" fill="#32322F" transform="translate(0,0)"/>
<path d="" fill="#333432" transform="translate(0,0)"/>
<path d="" fill="#383A36" transform="translate(0,0)"/>
<path d="" fill="#373735" transform="translate(0,0)"/>
<path d="" fill="#383737" transform="translate(0,0)"/>
<path d="" fill="#3B3C3A" transform="translate(0,0)"/>
<path d="" fill="#323632" transform="translate(0,0)"/>
<path d="" fill="#383435" transform="translate(0,0)"/>
<path d="" fill="#333433" transform="translate(0,0)"/>
<path d="" fill="#363633" transform="translate(0,0)"/>
<path d="" fill="#373434" transform="translate(0,0)"/>
<path d="" fill="#353735" transform="translate(0,0)"/>
<path d="" fill="#353335" transform="translate(0,0)"/>
<path d="" fill="#373438" transform="translate(0,0)"/>
<path d="" fill="#373835" transform="translate(0,0)"/>
<path d="" fill="#434343" transform="translate(0,0)"/>
<path d="" fill="#454644" transform="translate(0,0)"/>
<path d="" fill="#444342" transform="translate(0,0)"/>
<path d="" fill="#42423F" transform="translate(0,0)"/>
<path d="" fill="#393839" transform="translate(0,0)"/>
<path d="" fill="#40403F" transform="translate(0,0)"/>
<path d="" fill="#3F3E40" transform="translate(0,0)"/>
<path d="" fill="#414141" transform="translate(0,0)"/>
<path d="" fill="#413F40" transform="translate(0,0)"/>
<path d="" fill="#3F3E3F" transform="translate(0,0)"/>
<path d="" fill="#403D3F" transform="translate(0,0)"/>
</svg>
